# generated by tools/gen_conductor_models.py - do not edit by hand
mtllib cross.mtl
v 0.381250 0.000000 0.381250
v 0.618750 0.000000 0.381250
v 0.618750 0.000000 0.618750
v 0.381250 0.000000 0.618750
v 0.381250 0.164500 0.618750
v 0.618750 0.164500 0.618750
v 0.618750 0.164500 0.381250
v 0.381250 0.164500 0.381250
v 0.503500 0.026000 0.337500
v 0.500379 0.041690 0.337500
v 0.500379 0.041690 0.381250
v 0.503500 0.026000 0.381250
v 0.491491 0.054991 0.337500
v 0.491491 0.054991 0.381250
v 0.478190 0.063879 0.337500
v 0.478190 0.063879 0.381250
v 0.462500 0.067000 0.337500
v 0.462500 0.067000 0.381250
v 0.446810 0.063879 0.337500
v 0.446810 0.063879 0.381250
v 0.433509 0.054991 0.337500
v 0.433509 0.054991 0.381250
v 0.424621 0.041690 0.337500
v 0.424621 0.041690 0.381250
v 0.421500 0.026000 0.337500
v 0.421500 0.026000 0.381250
v 0.424621 0.010310 0.337500
v 0.424621 0.010310 0.381250
v 0.433509 -0.002991 0.337500
v 0.433509 -0.002991 0.381250
v 0.446810 -0.011879 0.337500
v 0.446810 -0.011879 0.381250
v 0.462500 -0.015000 0.337500
v 0.462500 -0.015000 0.381250
v 0.478190 -0.011879 0.337500
v 0.478190 -0.011879 0.381250
v 0.491491 -0.002991 0.337500
v 0.491491 -0.002991 0.381250
v 0.500379 0.010310 0.337500
v 0.500379 0.010310 0.381250
v 0.578500 0.026000 0.337500
v 0.575379 0.041690 0.337500
v 0.575379 0.041690 0.381250
v 0.578500 0.026000 0.381250
v 0.566491 0.054991 0.337500
v 0.566491 0.054991 0.381250
v 0.553190 0.063879 0.337500
v 0.553190 0.063879 0.381250
v 0.537500 0.067000 0.337500
v 0.537500 0.067000 0.381250
v 0.521810 0.063879 0.337500
v 0.521810 0.063879 0.381250
v 0.508509 0.054991 0.337500
v 0.508509 0.054991 0.381250
v 0.499621 0.041690 0.337500
v 0.499621 0.041690 0.381250
v 0.496500 0.026000 0.337500
v 0.496500 0.026000 0.381250
v 0.499621 0.010310 0.337500
v 0.499621 0.010310 0.381250
v 0.508509 -0.002991 0.337500
v 0.508509 -0.002991 0.381250
v 0.521810 -0.011879 0.337500
v 0.521810 -0.011879 0.381250
v 0.537500 -0.015000 0.337500
v 0.537500 -0.015000 0.381250
v 0.553190 -0.011879 0.337500
v 0.553190 -0.011879 0.381250
v 0.566491 -0.002991 0.337500
v 0.566491 -0.002991 0.381250
v 0.575379 0.010310 0.337500
v 0.575379 0.010310 0.381250
v 0.503500 0.101000 0.337500
v 0.500379 0.116690 0.337500
v 0.500379 0.116690 0.381250
v 0.503500 0.101000 0.381250
v 0.491491 0.129991 0.337500
v 0.491491 0.129991 0.381250
v 0.478190 0.138879 0.337500
v 0.478190 0.138879 0.381250
v 0.462500 0.142000 0.337500
v 0.462500 0.142000 0.381250
v 0.446810 0.138879 0.337500
v 0.446810 0.138879 0.381250
v 0.433509 0.129991 0.337500
v 0.433509 0.129991 0.381250
v 0.424621 0.116690 0.337500
v 0.424621 0.116690 0.381250
v 0.421500 0.101000 0.337500
v 0.421500 0.101000 0.381250
v 0.424621 0.085310 0.337500
v 0.424621 0.085310 0.381250
v 0.433509 0.072009 0.337500
v 0.433509 0.072009 0.381250
v 0.446810 0.063121 0.337500
v 0.446810 0.063121 0.381250
v 0.462500 0.060000 0.337500
v 0.462500 0.060000 0.381250
v 0.478190 0.063121 0.337500
v 0.478190 0.063121 0.381250
v 0.491491 0.072009 0.337500
v 0.491491 0.072009 0.381250
v 0.500379 0.085310 0.337500
v 0.500379 0.085310 0.381250
v 0.578500 0.101000 0.337500
v 0.575379 0.116690 0.337500
v 0.575379 0.116690 0.381250
v 0.578500 0.101000 0.381250
v 0.566491 0.129991 0.337500
v 0.566491 0.129991 0.381250
v 0.553190 0.138879 0.337500
v 0.553190 0.138879 0.381250
v 0.537500 0.142000 0.337500
v 0.537500 0.142000 0.381250
v 0.521810 0.138879 0.337500
v 0.521810 0.138879 0.381250
v 0.508509 0.129991 0.337500
v 0.508509 0.129991 0.381250
v 0.499621 0.116690 0.337500
v 0.499621 0.116690 0.381250
v 0.496500 0.101000 0.337500
v 0.496500 0.101000 0.381250
v 0.499621 0.085310 0.337500
v 0.499621 0.085310 0.381250
v 0.508509 0.072009 0.337500
v 0.508509 0.072009 0.381250
v 0.521810 0.063121 0.337500
v 0.521810 0.063121 0.381250
v 0.537500 0.060000 0.337500
v 0.537500 0.060000 0.381250
v 0.553190 0.063121 0.337500
v 0.553190 0.063121 0.381250
v 0.566491 0.072009 0.337500
v 0.566491 0.072009 0.381250
v 0.575379 0.085310 0.337500
v 0.575379 0.085310 0.381250
v 0.618750 0.067000 0.462500
v 0.618750 0.063879 0.478190
v 0.662500 0.063879 0.478190
v 0.662500 0.067000 0.462500
v 0.618750 0.054991 0.491491
v 0.662500 0.054991 0.491491
v 0.618750 0.041690 0.500379
v 0.662500 0.041690 0.500379
v 0.618750 0.026000 0.503500
v 0.662500 0.026000 0.503500
v 0.618750 0.010310 0.500379
v 0.662500 0.010310 0.500379
v 0.618750 -0.002991 0.491491
v 0.662500 -0.002991 0.491491
v 0.618750 -0.011879 0.478190
v 0.662500 -0.011879 0.478190
v 0.618750 -0.015000 0.462500
v 0.662500 -0.015000 0.462500
v 0.618750 -0.011879 0.446810
v 0.662500 -0.011879 0.446810
v 0.618750 -0.002991 0.433509
v 0.662500 -0.002991 0.433509
v 0.618750 0.010310 0.424621
v 0.662500 0.010310 0.424621
v 0.618750 0.026000 0.421500
v 0.662500 0.026000 0.421500
v 0.618750 0.041690 0.424621
v 0.662500 0.041690 0.424621
v 0.618750 0.054991 0.433509
v 0.662500 0.054991 0.433509
v 0.618750 0.063879 0.446810
v 0.662500 0.063879 0.446810
v 0.618750 0.067000 0.537500
v 0.618750 0.063879 0.553190
v 0.662500 0.063879 0.553190
v 0.662500 0.067000 0.537500
v 0.618750 0.054991 0.566491
v 0.662500 0.054991 0.566491
v 0.618750 0.041690 0.575379
v 0.662500 0.041690 0.575379
v 0.618750 0.026000 0.578500
v 0.662500 0.026000 0.578500
v 0.618750 0.010310 0.575379
v 0.662500 0.010310 0.575379
v 0.618750 -0.002991 0.566491
v 0.662500 -0.002991 0.566491
v 0.618750 -0.011879 0.553190
v 0.662500 -0.011879 0.553190
v 0.618750 -0.015000 0.537500
v 0.662500 -0.015000 0.537500
v 0.618750 -0.011879 0.521810
v 0.662500 -0.011879 0.521810
v 0.618750 -0.002991 0.508509
v 0.662500 -0.002991 0.508509
v 0.618750 0.010310 0.499621
v 0.662500 0.010310 0.499621
v 0.618750 0.026000 0.496500
v 0.662500 0.026000 0.496500
v 0.618750 0.041690 0.499621
v 0.662500 0.041690 0.499621
v 0.618750 0.054991 0.508509
v 0.662500 0.054991 0.508509
v 0.618750 0.063879 0.521810
v 0.662500 0.063879 0.521810
v 0.618750 0.142000 0.462500
v 0.618750 0.138879 0.478190
v 0.662500 0.138879 0.478190
v 0.662500 0.142000 0.462500
v 0.618750 0.129991 0.491491
v 0.662500 0.129991 0.491491
v 0.618750 0.116690 0.500379
v 0.662500 0.116690 0.500379
v 0.618750 0.101000 0.503500
v 0.662500 0.101000 0.503500
v 0.618750 0.085310 0.500379
v 0.662500 0.085310 0.500379
v 0.618750 0.072009 0.491491
v 0.662500 0.072009 0.491491
v 0.618750 0.063121 0.478190
v 0.662500 0.063121 0.478190
v 0.618750 0.060000 0.462500
v 0.662500 0.060000 0.462500
v 0.618750 0.063121 0.446810
v 0.662500 0.063121 0.446810
v 0.618750 0.072009 0.433509
v 0.662500 0.072009 0.433509
v 0.618750 0.085310 0.424621
v 0.662500 0.085310 0.424621
v 0.618750 0.101000 0.421500
v 0.662500 0.101000 0.421500
v 0.618750 0.116690 0.424621
v 0.662500 0.116690 0.424621
v 0.618750 0.129991 0.433509
v 0.662500 0.129991 0.433509
v 0.618750 0.138879 0.446810
v 0.662500 0.138879 0.446810
v 0.618750 0.142000 0.537500
v 0.618750 0.138879 0.553190
v 0.662500 0.138879 0.553190
v 0.662500 0.142000 0.537500
v 0.618750 0.129991 0.566491
v 0.662500 0.129991 0.566491
v 0.618750 0.116690 0.575379
v 0.662500 0.116690 0.575379
v 0.618750 0.101000 0.578500
v 0.662500 0.101000 0.578500
v 0.618750 0.085310 0.575379
v 0.662500 0.085310 0.575379
v 0.618750 0.072009 0.566491
v 0.662500 0.072009 0.566491
v 0.618750 0.063121 0.553190
v 0.662500 0.063121 0.553190
v 0.618750 0.060000 0.537500
v 0.662500 0.060000 0.537500
v 0.618750 0.063121 0.521810
v 0.662500 0.063121 0.521810
v 0.618750 0.072009 0.508509
v 0.662500 0.072009 0.508509
v 0.618750 0.085310 0.499621
v 0.662500 0.085310 0.499621
v 0.618750 0.101000 0.496500
v 0.662500 0.101000 0.496500
v 0.618750 0.116690 0.499621
v 0.662500 0.116690 0.499621
v 0.618750 0.129991 0.508509
v 0.662500 0.129991 0.508509
v 0.618750 0.138879 0.521810
v 0.662500 0.138879 0.521810
v 0.503500 0.026000 0.618750
v 0.500379 0.041690 0.618750
v 0.500379 0.041690 0.662500
v 0.503500 0.026000 0.662500
v 0.491491 0.054991 0.618750
v 0.491491 0.054991 0.662500
v 0.478190 0.063879 0.618750
v 0.478190 0.063879 0.662500
v 0.462500 0.067000 0.618750
v 0.462500 0.067000 0.662500
v 0.446810 0.063879 0.618750
v 0.446810 0.063879 0.662500
v 0.433509 0.054991 0.618750
v 0.433509 0.054991 0.662500
v 0.424621 0.041690 0.618750
v 0.424621 0.041690 0.662500
v 0.421500 0.026000 0.618750
v 0.421500 0.026000 0.662500
v 0.424621 0.010310 0.618750
v 0.424621 0.010310 0.662500
v 0.433509 -0.002991 0.618750
v 0.433509 -0.002991 0.662500
v 0.446810 -0.011879 0.618750
v 0.446810 -0.011879 0.662500
v 0.462500 -0.015000 0.618750
v 0.462500 -0.015000 0.662500
v 0.478190 -0.011879 0.618750
v 0.478190 -0.011879 0.662500
v 0.491491 -0.002991 0.618750
v 0.491491 -0.002991 0.662500
v 0.500379 0.010310 0.618750
v 0.500379 0.010310 0.662500
v 0.578500 0.026000 0.618750
v 0.575379 0.041690 0.618750
v 0.575379 0.041690 0.662500
v 0.578500 0.026000 0.662500
v 0.566491 0.054991 0.618750
v 0.566491 0.054991 0.662500
v 0.553190 0.063879 0.618750
v 0.553190 0.063879 0.662500
v 0.537500 0.067000 0.618750
v 0.537500 0.067000 0.662500
v 0.521810 0.063879 0.618750
v 0.521810 0.063879 0.662500
v 0.508509 0.054991 0.618750
v 0.508509 0.054991 0.662500
v 0.499621 0.041690 0.618750
v 0.499621 0.041690 0.662500
v 0.496500 0.026000 0.618750
v 0.496500 0.026000 0.662500
v 0.499621 0.010310 0.618750
v 0.499621 0.010310 0.662500
v 0.508509 -0.002991 0.618750
v 0.508509 -0.002991 0.662500
v 0.521810 -0.011879 0.618750
v 0.521810 -0.011879 0.662500
v 0.537500 -0.015000 0.618750
v 0.537500 -0.015000 0.662500
v 0.553190 -0.011879 0.618750
v 0.553190 -0.011879 0.662500
v 0.566491 -0.002991 0.618750
v 0.566491 -0.002991 0.662500
v 0.575379 0.010310 0.618750
v 0.575379 0.010310 0.662500
v 0.503500 0.101000 0.618750
v 0.500379 0.116690 0.618750
v 0.500379 0.116690 0.662500
v 0.503500 0.101000 0.662500
v 0.491491 0.129991 0.618750
v 0.491491 0.129991 0.662500
v 0.478190 0.138879 0.618750
v 0.478190 0.138879 0.662500
v 0.462500 0.142000 0.618750
v 0.462500 0.142000 0.662500
v 0.446810 0.138879 0.618750
v 0.446810 0.138879 0.662500
v 0.433509 0.129991 0.618750
v 0.433509 0.129991 0.662500
v 0.424621 0.116690 0.618750
v 0.424621 0.116690 0.662500
v 0.421500 0.101000 0.618750
v 0.421500 0.101000 0.662500
v 0.424621 0.085310 0.618750
v 0.424621 0.085310 0.662500
v 0.433509 0.072009 0.618750
v 0.433509 0.072009 0.662500
v 0.446810 0.063121 0.618750
v 0.446810 0.063121 0.662500
v 0.462500 0.060000 0.618750
v 0.462500 0.060000 0.662500
v 0.478190 0.063121 0.618750
v 0.478190 0.063121 0.662500
v 0.491491 0.072009 0.618750
v 0.491491 0.072009 0.662500
v 0.500379 0.085310 0.618750
v 0.500379 0.085310 0.662500
v 0.578500 0.101000 0.618750
v 0.575379 0.116690 0.618750
v 0.575379 0.116690 0.662500
v 0.578500 0.101000 0.662500
v 0.566491 0.129991 0.618750
v 0.566491 0.129991 0.662500
v 0.553190 0.138879 0.618750
v 0.553190 0.138879 0.662500
v 0.537500 0.142000 0.618750
v 0.537500 0.142000 0.662500
v 0.521810 0.138879 0.618750
v 0.521810 0.138879 0.662500
v 0.508509 0.129991 0.618750
v 0.508509 0.129991 0.662500
v 0.499621 0.116690 0.618750
v 0.499621 0.116690 0.662500
v 0.496500 0.101000 0.618750
v 0.496500 0.101000 0.662500
v 0.499621 0.085310 0.618750
v 0.499621 0.085310 0.662500
v 0.508509 0.072009 0.618750
v 0.508509 0.072009 0.662500
v 0.521810 0.063121 0.618750
v 0.521810 0.063121 0.662500
v 0.537500 0.060000 0.618750
v 0.537500 0.060000 0.662500
v 0.553190 0.063121 0.618750
v 0.553190 0.063121 0.662500
v 0.566491 0.072009 0.618750
v 0.566491 0.072009 0.662500
v 0.575379 0.085310 0.618750
v 0.575379 0.085310 0.662500
v 0.337500 0.067000 0.462500
v 0.337500 0.063879 0.478190
v 0.381250 0.063879 0.478190
v 0.381250 0.067000 0.462500
v 0.337500 0.054991 0.491491
v 0.381250 0.054991 0.491491
v 0.337500 0.041690 0.500379
v 0.381250 0.041690 0.500379
v 0.337500 0.026000 0.503500
v 0.381250 0.026000 0.503500
v 0.337500 0.010310 0.500379
v 0.381250 0.010310 0.500379
v 0.337500 -0.002991 0.491491
v 0.381250 -0.002991 0.491491
v 0.337500 -0.011879 0.478190
v 0.381250 -0.011879 0.478190
v 0.337500 -0.015000 0.462500
v 0.381250 -0.015000 0.462500
v 0.337500 -0.011879 0.446810
v 0.381250 -0.011879 0.446810
v 0.337500 -0.002991 0.433509
v 0.381250 -0.002991 0.433509
v 0.337500 0.010310 0.424621
v 0.381250 0.010310 0.424621
v 0.337500 0.026000 0.421500
v 0.381250 0.026000 0.421500
v 0.337500 0.041690 0.424621
v 0.381250 0.041690 0.424621
v 0.337500 0.054991 0.433509
v 0.381250 0.054991 0.433509
v 0.337500 0.063879 0.446810
v 0.381250 0.063879 0.446810
v 0.337500 0.067000 0.537500
v 0.337500 0.063879 0.553190
v 0.381250 0.063879 0.553190
v 0.381250 0.067000 0.537500
v 0.337500 0.054991 0.566491
v 0.381250 0.054991 0.566491
v 0.337500 0.041690 0.575379
v 0.381250 0.041690 0.575379
v 0.337500 0.026000 0.578500
v 0.381250 0.026000 0.578500
v 0.337500 0.010310 0.575379
v 0.381250 0.010310 0.575379
v 0.337500 -0.002991 0.566491
v 0.381250 -0.002991 0.566491
v 0.337500 -0.011879 0.553190
v 0.381250 -0.011879 0.553190
v 0.337500 -0.015000 0.537500
v 0.381250 -0.015000 0.537500
v 0.337500 -0.011879 0.521810
v 0.381250 -0.011879 0.521810
v 0.337500 -0.002991 0.508509
v 0.381250 -0.002991 0.508509
v 0.337500 0.010310 0.499621
v 0.381250 0.010310 0.499621
v 0.337500 0.026000 0.496500
v 0.381250 0.026000 0.496500
v 0.337500 0.041690 0.499621
v 0.381250 0.041690 0.499621
v 0.337500 0.054991 0.508509
v 0.381250 0.054991 0.508509
v 0.337500 0.063879 0.521810
v 0.381250 0.063879 0.521810
v 0.337500 0.142000 0.462500
v 0.337500 0.138879 0.478190
v 0.381250 0.138879 0.478190
v 0.381250 0.142000 0.462500
v 0.337500 0.129991 0.491491
v 0.381250 0.129991 0.491491
v 0.337500 0.116690 0.500379
v 0.381250 0.116690 0.500379
v 0.337500 0.101000 0.503500
v 0.381250 0.101000 0.503500
v 0.337500 0.085310 0.500379
v 0.381250 0.085310 0.500379
v 0.337500 0.072009 0.491491
v 0.381250 0.072009 0.491491
v 0.337500 0.063121 0.478190
v 0.381250 0.063121 0.478190
v 0.337500 0.060000 0.462500
v 0.381250 0.060000 0.462500
v 0.337500 0.063121 0.446810
v 0.381250 0.063121 0.446810
v 0.337500 0.072009 0.433509
v 0.381250 0.072009 0.433509
v 0.337500 0.085310 0.424621
v 0.381250 0.085310 0.424621
v 0.337500 0.101000 0.421500
v 0.381250 0.101000 0.421500
v 0.337500 0.116690 0.424621
v 0.381250 0.116690 0.424621
v 0.337500 0.129991 0.433509
v 0.381250 0.129991 0.433509
v 0.337500 0.138879 0.446810
v 0.381250 0.138879 0.446810
v 0.337500 0.142000 0.537500
v 0.337500 0.138879 0.553190
v 0.381250 0.138879 0.553190
v 0.381250 0.142000 0.537500
v 0.337500 0.129991 0.566491
v 0.381250 0.129991 0.566491
v 0.337500 0.116690 0.575379
v 0.381250 0.116690 0.575379
v 0.337500 0.101000 0.578500
v 0.381250 0.101000 0.578500
v 0.337500 0.085310 0.575379
v 0.381250 0.085310 0.575379
v 0.337500 0.072009 0.566491
v 0.381250 0.072009 0.566491
v 0.337500 0.063121 0.553190
v 0.381250 0.063121 0.553190
v 0.337500 0.060000 0.537500
v 0.381250 0.060000 0.537500
v 0.337500 0.063121 0.521810
v 0.381250 0.063121 0.521810
v 0.337500 0.072009 0.508509
v 0.381250 0.072009 0.508509
v 0.337500 0.085310 0.499621
v 0.381250 0.085310 0.499621
v 0.337500 0.101000 0.496500
v 0.381250 0.101000 0.496500
v 0.337500 0.116690 0.499621
v 0.381250 0.116690 0.499621
v 0.337500 0.129991 0.508509
v 0.381250 0.129991 0.508509
v 0.337500 0.138879 0.521810
v 0.381250 0.138879 0.521810
vn 0.0000 -1.0000 0.0000
vn 0.0000 1.0000 0.0000
vn 0.0000 0.0000 -1.0000
vn 0.0000 0.0000 1.0000
vn -1.0000 0.0000 0.0000
vn 1.0000 0.0000 0.0000
vn 0.9808 0.1951 0.0000
vn 0.8315 0.5556 0.0000
vn 0.5556 0.8315 0.0000
vn 0.1951 0.9808 0.0000
vn -0.1951 0.9808 0.0000
vn -0.5556 0.8315 0.0000
vn -0.8315 0.5556 0.0000
vn -0.9808 0.1951 0.0000
vn -0.9808 -0.1951 0.0000
vn -0.8315 -0.5556 0.0000
vn -0.5556 -0.8315 0.0000
vn -0.1951 -0.9808 0.0000
vn 0.1951 -0.9808 0.0000
vn 0.5556 -0.8315 0.0000
vn 0.8315 -0.5556 0.0000
vn 0.9808 -0.1951 0.0000
vn 0.0000 0.9808 0.1951
vn 0.0000 0.8315 0.5556
vn 0.0000 0.5556 0.8315
vn 0.0000 0.1951 0.9808
vn 0.0000 -0.1951 0.9808
vn 0.0000 -0.5556 0.8315
vn 0.0000 -0.8315 0.5556
vn 0.0000 -0.9808 0.1951
vn 0.0000 -0.9808 -0.1951
vn 0.0000 -0.8315 -0.5556
vn 0.0000 -0.5556 -0.8315
vn 0.0000 -0.1951 -0.9808
vn 0.0000 0.1951 -0.9808
vn 0.0000 0.5556 -0.8315
vn 0.0000 0.8315 -0.5556
vn 0.0000 0.9808 -0.1951
vt 0.000000 1.000000
vt 1.000000 1.000000
vt 1.000000 0.000000
vt 0.000000 0.000000
vt 0.062500 0.000000
vt 0.062500 1.000000
vt 0.125000 0.000000
vt 0.125000 1.000000
vt 0.187500 0.000000
vt 0.187500 1.000000
vt 0.250000 0.000000
vt 0.250000 1.000000
vt 0.312500 0.000000
vt 0.312500 1.000000
vt 0.375000 0.000000
vt 0.375000 1.000000
vt 0.437500 0.000000
vt 0.437500 1.000000
vt 0.500000 0.000000
vt 0.500000 1.000000
vt 0.562500 0.000000
vt 0.562500 1.000000
vt 0.625000 0.000000
vt 0.625000 1.000000
vt 0.687500 0.000000
vt 0.687500 1.000000
vt 0.750000 0.000000
vt 0.750000 1.000000
vt 0.812500 0.000000
vt 0.812500 1.000000
vt 0.875000 0.000000
vt 0.875000 1.000000
vt 0.937500 0.000000
vt 0.937500 1.000000
o clamp
usemtl fitting
f 1/1/1 2/2/1 3/3/1 4/4/1
f 5/4/2 6/3/2 7/2/2 8/1/2
f 8/2/3 7/1/3 2/4/3 1/3/3
f 6/2/4 5/1/4 4/4/4 3/3/4
f 5/2/5 8/1/5 1/4/5 4/3/5
f 7/2/6 6/1/6 3/4/6 2/3/6
f 9/4/7 10/5/7 11/6/7 12/1/7
f 10/5/8 13/7/8 14/8/8 11/6/8
f 13/7/9 15/9/9 16/10/9 14/8/9
f 15/9/10 17/11/10 18/12/10 16/10/10
f 17/11/11 19/13/11 20/14/11 18/12/11
f 19/13/12 21/15/12 22/16/12 20/14/12
f 21/15/13 23/17/13 24/18/13 22/16/13
f 23/17/14 25/19/14 26/20/14 24/18/14
f 25/19/15 27/21/15 28/22/15 26/20/15
f 27/21/16 29/23/16 30/24/16 28/22/16
f 29/23/17 31/25/17 32/26/17 30/24/17
f 31/25/18 33/27/18 34/28/18 32/26/18
f 33/27/19 35/29/19 36/30/19 34/28/19
f 35/29/20 37/31/20 38/32/20 36/30/20
f 37/31/21 39/33/21 40/34/21 38/32/21
f 39/33/22 9/3/22 12/2/22 40/34/22
f 41/4/7 42/5/7 43/6/7 44/1/7
f 42/5/8 45/7/8 46/8/8 43/6/8
f 45/7/9 47/9/9 48/10/9 46/8/9
f 47/9/10 49/11/10 50/12/10 48/10/10
f 49/11/11 51/13/11 52/14/11 50/12/11
f 51/13/12 53/15/12 54/16/12 52/14/12
f 53/15/13 55/17/13 56/18/13 54/16/13
f 55/17/14 57/19/14 58/20/14 56/18/14
f 57/19/15 59/21/15 60/22/15 58/20/15
f 59/21/16 61/23/16 62/24/16 60/22/16
f 61/23/17 63/25/17 64/26/17 62/24/17
f 63/25/18 65/27/18 66/28/18 64/26/18
f 65/27/19 67/29/19 68/30/19 66/28/19
f 67/29/20 69/31/20 70/32/20 68/30/20
f 69/31/21 71/33/21 72/34/21 70/32/21
f 71/33/22 41/3/22 44/2/22 72/34/22
f 73/4/7 74/5/7 75/6/7 76/1/7
f 74/5/8 77/7/8 78/8/8 75/6/8
f 77/7/9 79/9/9 80/10/9 78/8/9
f 79/9/10 81/11/10 82/12/10 80/10/10
f 81/11/11 83/13/11 84/14/11 82/12/11
f 83/13/12 85/15/12 86/16/12 84/14/12
f 85/15/13 87/17/13 88/18/13 86/16/13
f 87/17/14 89/19/14 90/20/14 88/18/14
f 89/19/15 91/21/15 92/22/15 90/20/15
f 91/21/16 93/23/16 94/24/16 92/22/16
f 93/23/17 95/25/17 96/26/17 94/24/17
f 95/25/18 97/27/18 98/28/18 96/26/18
f 97/27/19 99/29/19 100/30/19 98/28/19
f 99/29/20 101/31/20 102/32/20 100/30/20
f 101/31/21 103/33/21 104/34/21 102/32/21
f 103/33/22 73/3/22 76/2/22 104/34/22
f 105/4/7 106/5/7 107/6/7 108/1/7
f 106/5/8 109/7/8 110/8/8 107/6/8
f 109/7/9 111/9/9 112/10/9 110/8/9
f 111/9/10 113/11/10 114/12/10 112/10/10
f 113/11/11 115/13/11 116/14/11 114/12/11
f 115/13/12 117/15/12 118/16/12 116/14/12
f 117/15/13 119/17/13 120/18/13 118/16/13
f 119/17/14 121/19/14 122/20/14 120/18/14
f 121/19/15 123/21/15 124/22/15 122/20/15
f 123/21/16 125/23/16 126/24/16 124/22/16
f 125/23/17 127/25/17 128/26/17 126/24/17
f 127/25/18 129/27/18 130/28/18 128/26/18
f 129/27/19 131/29/19 132/30/19 130/28/19
f 131/29/20 133/31/20 134/32/20 132/30/20
f 133/31/21 135/33/21 136/34/21 134/32/21
f 135/33/22 105/3/22 108/2/22 136/34/22
f 137/4/23 138/5/23 139/6/23 140/1/23
f 138/5/24 141/7/24 142/8/24 139/6/24
f 141/7/25 143/9/25 144/10/25 142/8/25
f 143/9/26 145/11/26 146/12/26 144/10/26
f 145/11/27 147/13/27 148/14/27 146/12/27
f 147/13/28 149/15/28 150/16/28 148/14/28
f 149/15/29 151/17/29 152/18/29 150/16/29
f 151/17/30 153/19/30 154/20/30 152/18/30
f 153/19/31 155/21/31 156/22/31 154/20/31
f 155/21/32 157/23/32 158/24/32 156/22/32
f 157/23/33 159/25/33 160/26/33 158/24/33
f 159/25/34 161/27/34 162/28/34 160/26/34
f 161/27/35 163/29/35 164/30/35 162/28/35
f 163/29/36 165/31/36 166/32/36 164/30/36
f 165/31/37 167/33/37 168/34/37 166/32/37
f 167/33/38 137/3/38 140/2/38 168/34/38
f 169/4/23 170/5/23 171/6/23 172/1/23
f 170/5/24 173/7/24 174/8/24 171/6/24
f 173/7/25 175/9/25 176/10/25 174/8/25
f 175/9/26 177/11/26 178/12/26 176/10/26
f 177/11/27 179/13/27 180/14/27 178/12/27
f 179/13/28 181/15/28 182/16/28 180/14/28
f 181/15/29 183/17/29 184/18/29 182/16/29
f 183/17/30 185/19/30 186/20/30 184/18/30
f 185/19/31 187/21/31 188/22/31 186/20/31
f 187/21/32 189/23/32 190/24/32 188/22/32
f 189/23/33 191/25/33 192/26/33 190/24/33
f 191/25/34 193/27/34 194/28/34 192/26/34
f 193/27/35 195/29/35 196/30/35 194/28/35
f 195/29/36 197/31/36 198/32/36 196/30/36
f 197/31/37 199/33/37 200/34/37 198/32/37
f 199/33/38 169/3/38 172/2/38 200/34/38
f 201/4/23 202/5/23 203/6/23 204/1/23
f 202/5/24 205/7/24 206/8/24 203/6/24
f 205/7/25 207/9/25 208/10/25 206/8/25
f 207/9/26 209/11/26 210/12/26 208/10/26
f 209/11/27 211/13/27 212/14/27 210/12/27
f 211/13/28 213/15/28 214/16/28 212/14/28
f 213/15/29 215/17/29 216/18/29 214/16/29
f 215/17/30 217/19/30 218/20/30 216/18/30
f 217/19/31 219/21/31 220/22/31 218/20/31
f 219/21/32 221/23/32 222/24/32 220/22/32
f 221/23/33 223/25/33 224/26/33 222/24/33
f 223/25/34 225/27/34 226/28/34 224/26/34
f 225/27/35 227/29/35 228/30/35 226/28/35
f 227/29/36 229/31/36 230/32/36 228/30/36
f 229/31/37 231/33/37 232/34/37 230/32/37
f 231/33/38 201/3/38 204/2/38 232/34/38
f 233/4/23 234/5/23 235/6/23 236/1/23
f 234/5/24 237/7/24 238/8/24 235/6/24
f 237/7/25 239/9/25 240/10/25 238/8/25
f 239/9/26 241/11/26 242/12/26 240/10/26
f 241/11/27 243/13/27 244/14/27 242/12/27
f 243/13/28 245/15/28 246/16/28 244/14/28
f 245/15/29 247/17/29 248/18/29 246/16/29
f 247/17/30 249/19/30 250/20/30 248/18/30
f 249/19/31 251/21/31 252/22/31 250/20/31
f 251/21/32 253/23/32 254/24/32 252/22/32
f 253/23/33 255/25/33 256/26/33 254/24/33
f 255/25/34 257/27/34 258/28/34 256/26/34
f 257/27/35 259/29/35 260/30/35 258/28/35
f 259/29/36 261/31/36 262/32/36 260/30/36
f 261/31/37 263/33/37 264/34/37 262/32/37
f 263/33/38 233/3/38 236/2/38 264/34/38
f 265/4/7 266/5/7 267/6/7 268/1/7
f 266/5/8 269/7/8 270/8/8 267/6/8
f 269/7/9 271/9/9 272/10/9 270/8/9
f 271/9/10 273/11/10 274/12/10 272/10/10
f 273/11/11 275/13/11 276/14/11 274/12/11
f 275/13/12 277/15/12 278/16/12 276/14/12
f 277/15/13 279/17/13 280/18/13 278/16/13
f 279/17/14 281/19/14 282/20/14 280/18/14
f 281/19/15 283/21/15 284/22/15 282/20/15
f 283/21/16 285/23/16 286/24/16 284/22/16
f 285/23/17 287/25/17 288/26/17 286/24/17
f 287/25/18 289/27/18 290/28/18 288/26/18
f 289/27/19 291/29/19 292/30/19 290/28/19
f 291/29/20 293/31/20 294/32/20 292/30/20
f 293/31/21 295/33/21 296/34/21 294/32/21
f 295/33/22 265/3/22 268/2/22 296/34/22
f 297/4/7 298/5/7 299/6/7 300/1/7
f 298/5/8 301/7/8 302/8/8 299/6/8
f 301/7/9 303/9/9 304/10/9 302/8/9
f 303/9/10 305/11/10 306/12/10 304/10/10
f 305/11/11 307/13/11 308/14/11 306/12/11
f 307/13/12 309/15/12 310/16/12 308/14/12
f 309/15/13 311/17/13 312/18/13 310/16/13
f 311/17/14 313/19/14 314/20/14 312/18/14
f 313/19/15 315/21/15 316/22/15 314/20/15
f 315/21/16 317/23/16 318/24/16 316/22/16
f 317/23/17 319/25/17 320/26/17 318/24/17
f 319/25/18 321/27/18 322/28/18 320/26/18
f 321/27/19 323/29/19 324/30/19 322/28/19
f 323/29/20 325/31/20 326/32/20 324/30/20
f 325/31/21 327/33/21 328/34/21 326/32/21
f 327/33/22 297/3/22 300/2/22 328/34/22
f 329/4/7 330/5/7 331/6/7 332/1/7
f 330/5/8 333/7/8 334/8/8 331/6/8
f 333/7/9 335/9/9 336/10/9 334/8/9
f 335/9/10 337/11/10 338/12/10 336/10/10
f 337/11/11 339/13/11 340/14/11 338/12/11
f 339/13/12 341/15/12 342/16/12 340/14/12
f 341/15/13 343/17/13 344/18/13 342/16/13
f 343/17/14 345/19/14 346/20/14 344/18/14
f 345/19/15 347/21/15 348/22/15 346/20/15
f 347/21/16 349/23/16 350/24/16 348/22/16
f 349/23/17 351/25/17 352/26/17 350/24/17
f 351/25/18 353/27/18 354/28/18 352/26/18
f 353/27/19 355/29/19 356/30/19 354/28/19
f 355/29/20 357/31/20 358/32/20 356/30/20
f 357/31/21 359/33/21 360/34/21 358/32/21
f 359/33/22 329/3/22 332/2/22 360/34/22
f 361/4/7 362/5/7 363/6/7 364/1/7
f 362/5/8 365/7/8 366/8/8 363/6/8
f 365/7/9 367/9/9 368/10/9 366/8/9
f 367/9/10 369/11/10 370/12/10 368/10/10
f 369/11/11 371/13/11 372/14/11 370/12/11
f 371/13/12 373/15/12 374/16/12 372/14/12
f 373/15/13 375/17/13 376/18/13 374/16/13
f 375/17/14 377/19/14 378/20/14 376/18/14
f 377/19/15 379/21/15 380/22/15 378/20/15
f 379/21/16 381/23/16 382/24/16 380/22/16
f 381/23/17 383/25/17 384/26/17 382/24/17
f 383/25/18 385/27/18 386/28/18 384/26/18
f 385/27/19 387/29/19 388/30/19 386/28/19
f 387/29/20 389/31/20 390/32/20 388/30/20
f 389/31/21 391/33/21 392/34/21 390/32/21
f 391/33/22 361/3/22 364/2/22 392/34/22
f 393/4/23 394/5/23 395/6/23 396/1/23
f 394/5/24 397/7/24 398/8/24 395/6/24
f 397/7/25 399/9/25 400/10/25 398/8/25
f 399/9/26 401/11/26 402/12/26 400/10/26
f 401/11/27 403/13/27 404/14/27 402/12/27
f 403/13/28 405/15/28 406/16/28 404/14/28
f 405/15/29 407/17/29 408/18/29 406/16/29
f 407/17/30 409/19/30 410/20/30 408/18/30
f 409/19/31 411/21/31 412/22/31 410/20/31
f 411/21/32 413/23/32 414/24/32 412/22/32
f 413/23/33 415/25/33 416/26/33 414/24/33
f 415/25/34 417/27/34 418/28/34 416/26/34
f 417/27/35 419/29/35 420/30/35 418/28/35
f 419/29/36 421/31/36 422/32/36 420/30/36
f 421/31/37 423/33/37 424/34/37 422/32/37
f 423/33/38 393/3/38 396/2/38 424/34/38
f 425/4/23 426/5/23 427/6/23 428/1/23
f 426/5/24 429/7/24 430/8/24 427/6/24
f 429/7/25 431/9/25 432/10/25 430/8/25
f 431/9/26 433/11/26 434/12/26 432/10/26
f 433/11/27 435/13/27 436/14/27 434/12/27
f 435/13/28 437/15/28 438/16/28 436/14/28
f 437/15/29 439/17/29 440/18/29 438/16/29
f 439/17/30 441/19/30 442/20/30 440/18/30
f 441/19/31 443/21/31 444/22/31 442/20/31
f 443/21/32 445/23/32 446/24/32 444/22/32
f 445/23/33 447/25/33 448/26/33 446/24/33
f 447/25/34 449/27/34 450/28/34 448/26/34
f 449/27/35 451/29/35 452/30/35 450/28/35
f 451/29/36 453/31/36 454/32/36 452/30/36
f 453/31/37 455/33/37 456/34/37 454/32/37
f 455/33/38 425/3/38 428/2/38 456/34/38
f 457/4/23 458/5/23 459/6/23 460/1/23
f 458/5/24 461/7/24 462/8/24 459/6/24
f 461/7/25 463/9/25 464/10/25 462/8/25
f 463/9/26 465/11/26 466/12/26 464/10/26
f 465/11/27 467/13/27 468/14/27 466/12/27
f 467/13/28 469/15/28 470/16/28 468/14/28
f 469/15/29 471/17/29 472/18/29 470/16/29
f 471/17/30 473/19/30 474/20/30 472/18/30
f 473/19/31 475/21/31 476/22/31 474/20/31
f 475/21/32 477/23/32 478/24/32 476/22/32
f 477/23/33 479/25/33 480/26/33 478/24/33
f 479/25/34 481/27/34 482/28/34 480/26/34
f 481/27/35 483/29/35 484/30/35 482/28/35
f 483/29/36 485/31/36 486/32/36 484/30/36
f 485/31/37 487/33/37 488/34/37 486/32/37
f 487/33/38 457/3/38 460/2/38 488/34/38
f 489/4/23 490/5/23 491/6/23 492/1/23
f 490/5/24 493/7/24 494/8/24 491/6/24
f 493/7/25 495/9/25 496/10/25 494/8/25
f 495/9/26 497/11/26 498/12/26 496/10/26
f 497/11/27 499/13/27 500/14/27 498/12/27
f 499/13/28 501/15/28 502/16/28 500/14/28
f 501/15/29 503/17/29 504/18/29 502/16/29
f 503/17/30 505/19/30 506/20/30 504/18/30
f 505/19/31 507/21/31 508/22/31 506/20/31
f 507/21/32 509/23/32 510/24/32 508/22/32
f 509/23/33 511/25/33 512/26/33 510/24/33
f 511/25/34 513/27/34 514/28/34 512/26/34
f 513/27/35 515/29/35 516/30/35 514/28/35
f 515/29/36 517/31/36 518/32/36 516/30/36
f 517/31/37 519/33/37 520/34/37 518/32/37
f 519/33/38 489/3/38 492/2/38 520/34/38
