# generated by tools/gen_conductor_models.py - do not edit by hand
mtllib end.mtl
v 0.462500 0.052000 0.287500
v 0.457428 0.051500 0.287500
v 0.458782 0.050877 0.293418
v 0.463755 0.051364 0.294425
v 0.452550 0.050021 0.287500
v 0.453952 0.049433 0.292665
v 0.448055 0.047618 0.287500
v 0.449451 0.047090 0.292193
v 0.444115 0.044385 0.287500
v 0.445451 0.043935 0.292022
v 0.440882 0.040445 0.287500
v 0.442106 0.040092 0.292157
v 0.438479 0.035950 0.287500
v 0.439545 0.035706 0.292593
v 0.437000 0.031072 0.287500
v 0.437866 0.030948 0.293314
v 0.436500 0.026000 0.287500
v 0.437134 0.026000 0.294292
v 0.437000 0.020928 0.287500
v 0.437377 0.021052 0.295489
v 0.438479 0.016050 0.287500
v 0.438585 0.016294 0.296860
v 0.440882 0.011555 0.287500
v 0.440712 0.011908 0.298351
v 0.444115 0.007615 0.287500
v 0.443677 0.008065 0.299906
v 0.448055 0.004382 0.287500
v 0.447364 0.004910 0.301464
v 0.452550 0.001979 0.287500
v 0.451634 0.002567 0.302966
v 0.457428 0.000500 0.287500
v 0.456321 0.001123 0.304354
v 0.462500 0.000000 0.287500
v 0.461245 0.000636 0.305575
v 0.467572 0.000500 0.287500
v 0.466218 0.001123 0.306582
v 0.472450 0.001979 0.287500
v 0.471048 0.002567 0.307335
v 0.476945 0.004382 0.287500
v 0.475549 0.004910 0.307807
v 0.480885 0.007615 0.287500
v 0.479549 0.008065 0.307978
v 0.484118 0.011555 0.287500
v 0.482894 0.011908 0.307843
v 0.486521 0.016050 0.287500
v 0.485455 0.016294 0.307407
v 0.488000 0.020928 0.287500
v 0.487134 0.021052 0.306686
v 0.488500 0.026000 0.287500
v 0.487866 0.026000 0.305708
v 0.488000 0.031072 0.287500
v 0.487623 0.030948 0.304511
v 0.486521 0.035950 0.287500
v 0.486415 0.035706 0.303140
v 0.484118 0.040445 0.287500
v 0.484288 0.040092 0.301649
v 0.480885 0.044385 0.287500
v 0.481323 0.043935 0.300094
v 0.476945 0.047618 0.287500
v 0.477636 0.047090 0.298536
v 0.472450 0.050021 0.287500
v 0.473366 0.049433 0.297034
v 0.467572 0.051500 0.287500
v 0.468679 0.050877 0.295646
v 0.389719 0.121752 0.430918
v 0.394692 0.122239 0.431925
v 0.384890 0.120308 0.430165
v 0.380388 0.117965 0.429693
v 0.376388 0.114810 0.429522
v 0.373044 0.110967 0.429657
v 0.370483 0.106581 0.430093
v 0.368804 0.101823 0.430814
v 0.368072 0.096875 0.431792
v 0.368314 0.091927 0.432989
v 0.369523 0.087169 0.434360
v 0.371650 0.082783 0.435851
v 0.374614 0.078940 0.437406
v 0.378302 0.075785 0.438964
v 0.382571 0.073442 0.440466
v 0.387258 0.071998 0.441854
v 0.392183 0.071511 0.443075
v 0.397156 0.071998 0.444082
v 0.401985 0.073442 0.444835
v 0.406487 0.075785 0.445307
v 0.410487 0.078940 0.445478
v 0.413831 0.082783 0.445343
v 0.416392 0.087169 0.444907
v 0.418071 0.091927 0.444186
v 0.418803 0.096875 0.443208
v 0.418561 0.101823 0.442011
v 0.417352 0.106581 0.440640
v 0.415225 0.110967 0.439149
v 0.412261 0.114810 0.437594
v 0.408573 0.117965 0.436036
v 0.404304 0.120308 0.434534
v 0.399617 0.121752 0.433146
v 0.389631 0.122595 0.512500
v 0.394722 0.122843 0.512500
v 0.384687 0.121358 0.512500
v 0.380078 0.119180 0.512500
v 0.375983 0.116146 0.512500
v 0.372559 0.112370 0.512500
v 0.369937 0.107999 0.512500
v 0.368219 0.103201 0.512500
v 0.367469 0.098159 0.512500
v 0.367718 0.093069 0.512500
v 0.368954 0.088124 0.512500
v 0.371132 0.083516 0.512500
v 0.374167 0.079421 0.512500
v 0.377942 0.075997 0.512500
v 0.382313 0.073375 0.512500
v 0.387112 0.071656 0.512500
v 0.392153 0.070907 0.512500
v 0.397244 0.071155 0.512500
v 0.402188 0.072392 0.512500
v 0.406797 0.074570 0.512500
v 0.410892 0.077604 0.512500
v 0.414316 0.081380 0.512500
v 0.416938 0.085751 0.512500
v 0.418656 0.090549 0.512500
v 0.419406 0.095591 0.512500
v 0.419157 0.100681 0.512500
v 0.417921 0.105626 0.512500
v 0.415743 0.110234 0.512500
v 0.412708 0.114329 0.512500
v 0.408933 0.117753 0.512500
v 0.404562 0.120375 0.512500
v 0.399763 0.122094 0.512500
v 0.490312 0.096875 0.431250
v 0.488451 0.115774 0.431250
v 0.488451 0.115774 0.593750
v 0.490312 0.096875 0.593750
v 0.482938 0.133947 0.431250
v 0.482938 0.133947 0.593750
v 0.473986 0.150696 0.431250
v 0.473986 0.150696 0.593750
v 0.461938 0.165376 0.431250
v 0.461938 0.165376 0.593750
v 0.447258 0.177424 0.431250
v 0.447258 0.177424 0.593750
v 0.430510 0.186376 0.431250
v 0.430510 0.186376 0.593750
v 0.412337 0.191889 0.431250
v 0.412337 0.191889 0.593750
v 0.393437 0.193750 0.431250
v 0.393437 0.193750 0.593750
v 0.374538 0.191889 0.431250
v 0.374538 0.191889 0.593750
v 0.356365 0.186376 0.431250
v 0.356365 0.186376 0.593750
v 0.339617 0.177424 0.431250
v 0.339617 0.177424 0.593750
v 0.324937 0.165376 0.431250
v 0.324937 0.165376 0.593750
v 0.312889 0.150696 0.431250
v 0.312889 0.150696 0.593750
v 0.303937 0.133947 0.431250
v 0.303937 0.133947 0.593750
v 0.298424 0.115774 0.431250
v 0.298424 0.115774 0.593750
v 0.296563 0.096875 0.431250
v 0.296563 0.096875 0.593750
v 0.298424 0.077976 0.431250
v 0.298424 0.077976 0.593750
v 0.303937 0.059803 0.431250
v 0.303937 0.059803 0.593750
v 0.312889 0.043054 0.431250
v 0.312889 0.043054 0.593750
v 0.324937 0.028374 0.431250
v 0.324937 0.028374 0.593750
v 0.339617 0.016326 0.431250
v 0.339617 0.016326 0.593750
v 0.356365 0.007374 0.431250
v 0.356365 0.007374 0.593750
v 0.374538 0.001861 0.431250
v 0.374538 0.001861 0.593750
v 0.393437 0.000000 0.431250
v 0.393437 0.000000 0.593750
v 0.412337 0.001861 0.431250
v 0.412337 0.001861 0.593750
v 0.430510 0.007374 0.431250
v 0.430510 0.007374 0.593750
v 0.447258 0.016326 0.431250
v 0.447258 0.016326 0.593750
v 0.461938 0.028374 0.431250
v 0.461938 0.028374 0.593750
v 0.473986 0.043054 0.431250
v 0.473986 0.043054 0.593750
v 0.482938 0.059803 0.431250
v 0.482938 0.059803 0.593750
v 0.488451 0.077976 0.431250
v 0.488451 0.077976 0.593750
v 0.459062 0.096875 0.559375
v 0.457802 0.109678 0.559375
v 0.457802 0.109678 0.628125
v 0.459062 0.096875 0.628125
v 0.454067 0.121989 0.559375
v 0.454067 0.121989 0.628125
v 0.448003 0.133334 0.559375
v 0.448003 0.133334 0.628125
v 0.439841 0.143279 0.559375
v 0.439841 0.143279 0.628125
v 0.429897 0.151440 0.559375
v 0.429897 0.151440 0.628125
v 0.418551 0.157505 0.559375
v 0.418551 0.157505 0.628125
v 0.406240 0.161239 0.559375
v 0.406240 0.161239 0.628125
v 0.393437 0.162500 0.559375
v 0.393437 0.162500 0.628125
v 0.380635 0.161239 0.559375
v 0.380635 0.161239 0.628125
v 0.368324 0.157505 0.559375
v 0.368324 0.157505 0.628125
v 0.356978 0.151440 0.559375
v 0.356978 0.151440 0.628125
v 0.347034 0.143279 0.559375
v 0.347034 0.143279 0.628125
v 0.338872 0.133334 0.559375
v 0.338872 0.133334 0.628125
v 0.332808 0.121989 0.559375
v 0.332808 0.121989 0.628125
v 0.329073 0.109678 0.559375
v 0.329073 0.109678 0.628125
v 0.327813 0.096875 0.559375
v 0.327813 0.096875 0.628125
v 0.329073 0.084072 0.559375
v 0.329073 0.084072 0.628125
v 0.332808 0.071761 0.559375
v 0.332808 0.071761 0.628125
v 0.338872 0.060416 0.559375
v 0.338872 0.060416 0.628125
v 0.347034 0.050471 0.559375
v 0.347034 0.050471 0.628125
v 0.356978 0.042310 0.559375
v 0.356978 0.042310 0.628125
v 0.368324 0.036245 0.559375
v 0.368324 0.036245 0.628125
v 0.380635 0.032511 0.559375
v 0.380635 0.032511 0.628125
v 0.393437 0.031250 0.559375
v 0.393437 0.031250 0.628125
v 0.406240 0.032511 0.559375
v 0.406240 0.032511 0.628125
v 0.418551 0.036245 0.559375
v 0.418551 0.036245 0.628125
v 0.429897 0.042310 0.559375
v 0.429897 0.042310 0.628125
v 0.439841 0.050471 0.559375
v 0.439841 0.050471 0.628125
v 0.448003 0.060416 0.559375
v 0.448003 0.060416 0.628125
v 0.454067 0.071761 0.559375
v 0.454067 0.071761 0.628125
v 0.457802 0.084072 0.559375
v 0.457802 0.084072 0.628125
v 0.449688 0.096875 0.540625
v 0.448607 0.107849 0.540625
v 0.448607 0.107849 0.715625
v 0.449688 0.096875 0.715625
v 0.445406 0.118401 0.540625
v 0.445406 0.118401 0.715625
v 0.440208 0.128126 0.540625
v 0.440208 0.128126 0.715625
v 0.433212 0.136650 0.540625
v 0.433212 0.136650 0.715625
v 0.424688 0.143645 0.540625
v 0.424688 0.143645 0.715625
v 0.414963 0.148843 0.540625
v 0.414963 0.148843 0.715625
v 0.404411 0.152044 0.540625
v 0.404411 0.152044 0.715625
v 0.393437 0.153125 0.540625
v 0.393437 0.153125 0.715625
v 0.382464 0.152044 0.540625
v 0.382464 0.152044 0.715625
v 0.371912 0.148843 0.540625
v 0.371912 0.148843 0.715625
v 0.362187 0.143645 0.540625
v 0.362187 0.143645 0.715625
v 0.353663 0.136650 0.540625
v 0.353663 0.136650 0.715625
v 0.346667 0.128126 0.540625
v 0.346667 0.128126 0.715625
v 0.341469 0.118401 0.540625
v 0.341469 0.118401 0.715625
v 0.338268 0.107849 0.540625
v 0.338268 0.107849 0.715625
v 0.337187 0.096875 0.540625
v 0.337187 0.096875 0.715625
v 0.338268 0.085901 0.540625
v 0.338268 0.085901 0.715625
v 0.341469 0.075349 0.540625
v 0.341469 0.075349 0.715625
v 0.346667 0.065624 0.540625
v 0.346667 0.065624 0.715625
v 0.353663 0.057100 0.540625
v 0.353663 0.057100 0.715625
v 0.362187 0.050105 0.540625
v 0.362187 0.050105 0.715625
v 0.371912 0.044907 0.540625
v 0.371912 0.044907 0.715625
v 0.382464 0.041706 0.540625
v 0.382464 0.041706 0.715625
v 0.393437 0.040625 0.540625
v 0.393437 0.040625 0.715625
v 0.404411 0.041706 0.540625
v 0.404411 0.041706 0.715625
v 0.414963 0.044907 0.540625
v 0.414963 0.044907 0.715625
v 0.424688 0.050105 0.540625
v 0.424688 0.050105 0.715625
v 0.433212 0.057100 0.540625
v 0.433212 0.057100 0.715625
v 0.440208 0.065624 0.540625
v 0.440208 0.065624 0.715625
v 0.445406 0.075349 0.540625
v 0.445406 0.075349 0.715625
v 0.448607 0.085901 0.540625
v 0.448607 0.085901 0.715625
v 0.537500 0.052000 0.287500
v 0.532428 0.051500 0.287500
v 0.531321 0.050877 0.295646
v 0.536245 0.051364 0.294425
v 0.527550 0.050021 0.287500
v 0.526634 0.049433 0.297034
v 0.523055 0.047618 0.287500
v 0.522364 0.047090 0.298536
v 0.519115 0.044385 0.287500
v 0.518677 0.043935 0.300094
v 0.515882 0.040445 0.287500
v 0.515712 0.040092 0.301649
v 0.513479 0.035950 0.287500
v 0.513585 0.035706 0.303140
v 0.512000 0.031072 0.287500
v 0.512377 0.030948 0.304511
v 0.511500 0.026000 0.287500
v 0.512134 0.026000 0.305708
v 0.512000 0.020928 0.287500
v 0.512866 0.021052 0.306686
v 0.513479 0.016050 0.287500
v 0.514545 0.016294 0.307407
v 0.515882 0.011555 0.287500
v 0.517106 0.011908 0.307843
v 0.519115 0.007615 0.287500
v 0.520451 0.008065 0.307978
v 0.523055 0.004382 0.287500
v 0.524451 0.004910 0.307807
v 0.527550 0.001979 0.287500
v 0.528952 0.002567 0.307335
v 0.532428 0.000500 0.287500
v 0.533782 0.001123 0.306582
v 0.537500 0.000000 0.287500
v 0.538755 0.000636 0.305575
v 0.542572 0.000500 0.287500
v 0.543679 0.001123 0.304354
v 0.547450 0.001979 0.287500
v 0.548366 0.002567 0.302966
v 0.551945 0.004382 0.287500
v 0.552636 0.004910 0.301464
v 0.555885 0.007615 0.287500
v 0.556323 0.008065 0.299906
v 0.559118 0.011555 0.287500
v 0.559288 0.011908 0.298351
v 0.561521 0.016050 0.287500
v 0.561415 0.016294 0.296860
v 0.563000 0.020928 0.287500
v 0.562623 0.021052 0.295489
v 0.563500 0.026000 0.287500
v 0.562866 0.026000 0.294292
v 0.563000 0.031072 0.287500
v 0.562134 0.030948 0.293314
v 0.561521 0.035950 0.287500
v 0.560455 0.035706 0.292593
v 0.559118 0.040445 0.287500
v 0.557894 0.040092 0.292157
v 0.555885 0.044385 0.287500
v 0.554549 0.043935 0.292022
v 0.551945 0.047618 0.287500
v 0.550549 0.047090 0.292193
v 0.547450 0.050021 0.287500
v 0.546048 0.049433 0.292665
v 0.542572 0.051500 0.287500
v 0.541218 0.050877 0.293418
v 0.600383 0.121752 0.433146
v 0.605308 0.122239 0.431925
v 0.595696 0.120308 0.434534
v 0.591427 0.117965 0.436036
v 0.587739 0.114810 0.437594
v 0.584775 0.110967 0.439149
v 0.582648 0.106581 0.440640
v 0.581439 0.101823 0.442011
v 0.581197 0.096875 0.443208
v 0.581929 0.091927 0.444186
v 0.583608 0.087169 0.444907
v 0.586169 0.082783 0.445343
v 0.589513 0.078940 0.445478
v 0.593513 0.075785 0.445307
v 0.598015 0.073442 0.444835
v 0.602844 0.071998 0.444082
v 0.607817 0.071511 0.443075
v 0.612742 0.071998 0.441854
v 0.617429 0.073442 0.440466
v 0.621698 0.075785 0.438964
v 0.625386 0.078940 0.437406
v 0.628350 0.082783 0.435851
v 0.630477 0.087169 0.434360
v 0.631686 0.091927 0.432989
v 0.631928 0.096875 0.431792
v 0.631196 0.101823 0.430814
v 0.629517 0.106581 0.430093
v 0.626956 0.110967 0.429657
v 0.623612 0.114810 0.429522
v 0.619612 0.117965 0.429693
v 0.615110 0.120308 0.430165
v 0.610281 0.121752 0.430918
v 0.600237 0.122094 0.512500
v 0.605278 0.122843 0.512500
v 0.595438 0.120375 0.512500
v 0.591067 0.117753 0.512500
v 0.587292 0.114329 0.512500
v 0.584257 0.110234 0.512500
v 0.582079 0.105626 0.512500
v 0.580843 0.100681 0.512500
v 0.580594 0.095591 0.512500
v 0.581344 0.090549 0.512500
v 0.583062 0.085751 0.512500
v 0.585684 0.081380 0.512500
v 0.589108 0.077604 0.512500
v 0.593203 0.074570 0.512500
v 0.597812 0.072392 0.512500
v 0.602756 0.071155 0.512500
v 0.607847 0.070907 0.512500
v 0.612888 0.071656 0.512500
v 0.617687 0.073375 0.512500
v 0.622058 0.075997 0.512500
v 0.625833 0.079421 0.512500
v 0.628868 0.083516 0.512500
v 0.631046 0.088124 0.512500
v 0.632282 0.093069 0.512500
v 0.632531 0.098159 0.512500
v 0.631781 0.103201 0.512500
v 0.630063 0.107999 0.512500
v 0.627441 0.112370 0.512500
v 0.624017 0.116146 0.512500
v 0.619922 0.119180 0.512500
v 0.615313 0.121358 0.512500
v 0.610369 0.122595 0.512500
v 0.703438 0.096875 0.431250
v 0.701576 0.115774 0.431250
v 0.701576 0.115774 0.593750
v 0.703438 0.096875 0.593750
v 0.696063 0.133947 0.431250
v 0.696063 0.133947 0.593750
v 0.687111 0.150696 0.431250
v 0.687111 0.150696 0.593750
v 0.675063 0.165376 0.431250
v 0.675063 0.165376 0.593750
v 0.660383 0.177424 0.431250
v 0.660383 0.177424 0.593750
v 0.643635 0.186376 0.431250
v 0.643635 0.186376 0.593750
v 0.625462 0.191889 0.431250
v 0.625462 0.191889 0.593750
v 0.606563 0.193750 0.431250
v 0.606563 0.193750 0.593750
v 0.587663 0.191889 0.431250
v 0.587663 0.191889 0.593750
v 0.569490 0.186376 0.431250
v 0.569490 0.186376 0.593750
v 0.552742 0.177424 0.431250
v 0.552742 0.177424 0.593750
v 0.538062 0.165376 0.431250
v 0.538062 0.165376 0.593750
v 0.526014 0.150696 0.431250
v 0.526014 0.150696 0.593750
v 0.517062 0.133947 0.431250
v 0.517062 0.133947 0.593750
v 0.511549 0.115774 0.431250
v 0.511549 0.115774 0.593750
v 0.509687 0.096875 0.431250
v 0.509687 0.096875 0.593750
v 0.511549 0.077976 0.431250
v 0.511549 0.077976 0.593750
v 0.517062 0.059803 0.431250
v 0.517062 0.059803 0.593750
v 0.526014 0.043054 0.431250
v 0.526014 0.043054 0.593750
v 0.538062 0.028374 0.431250
v 0.538062 0.028374 0.593750
v 0.552742 0.016326 0.431250
v 0.552742 0.016326 0.593750
v 0.569490 0.007374 0.431250
v 0.569490 0.007374 0.593750
v 0.587663 0.001861 0.431250
v 0.587663 0.001861 0.593750
v 0.606563 0.000000 0.431250
v 0.606563 0.000000 0.593750
v 0.625462 0.001861 0.431250
v 0.625462 0.001861 0.593750
v 0.643635 0.007374 0.431250
v 0.643635 0.007374 0.593750
v 0.660383 0.016326 0.431250
v 0.660383 0.016326 0.593750
v 0.675063 0.028374 0.431250
v 0.675063 0.028374 0.593750
v 0.687111 0.043054 0.431250
v 0.687111 0.043054 0.593750
v 0.696063 0.059803 0.431250
v 0.696063 0.059803 0.593750
v 0.701576 0.077976 0.431250
v 0.701576 0.077976 0.593750
v 0.672188 0.096875 0.559375
v 0.670927 0.109678 0.559375
v 0.670927 0.109678 0.628125
v 0.672188 0.096875 0.628125
v 0.667192 0.121989 0.559375
v 0.667192 0.121989 0.628125
v 0.661128 0.133334 0.559375
v 0.661128 0.133334 0.628125
v 0.652966 0.143279 0.559375
v 0.652966 0.143279 0.628125
v 0.643022 0.151440 0.559375
v 0.643022 0.151440 0.628125
v 0.631676 0.157505 0.559375
v 0.631676 0.157505 0.628125
v 0.619365 0.161239 0.559375
v 0.619365 0.161239 0.628125
v 0.606563 0.162500 0.559375
v 0.606563 0.162500 0.628125
v 0.593760 0.161239 0.559375
v 0.593760 0.161239 0.628125
v 0.581449 0.157505 0.559375
v 0.581449 0.157505 0.628125
v 0.570103 0.151440 0.559375
v 0.570103 0.151440 0.628125
v 0.560159 0.143279 0.559375
v 0.560159 0.143279 0.628125
v 0.551997 0.133334 0.559375
v 0.551997 0.133334 0.628125
v 0.545933 0.121989 0.559375
v 0.545933 0.121989 0.628125
v 0.542198 0.109678 0.559375
v 0.542198 0.109678 0.628125
v 0.540937 0.096875 0.559375
v 0.540937 0.096875 0.628125
v 0.542198 0.084072 0.559375
v 0.542198 0.084072 0.628125
v 0.545933 0.071761 0.559375
v 0.545933 0.071761 0.628125
v 0.551997 0.060416 0.559375
v 0.551997 0.060416 0.628125
v 0.560159 0.050471 0.559375
v 0.560159 0.050471 0.628125
v 0.570103 0.042310 0.559375
v 0.570103 0.042310 0.628125
v 0.581449 0.036245 0.559375
v 0.581449 0.036245 0.628125
v 0.593760 0.032511 0.559375
v 0.593760 0.032511 0.628125
v 0.606563 0.031250 0.559375
v 0.606563 0.031250 0.628125
v 0.619365 0.032511 0.559375
v 0.619365 0.032511 0.628125
v 0.631676 0.036245 0.559375
v 0.631676 0.036245 0.628125
v 0.643022 0.042310 0.559375
v 0.643022 0.042310 0.628125
v 0.652966 0.050471 0.559375
v 0.652966 0.050471 0.628125
v 0.661128 0.060416 0.559375
v 0.661128 0.060416 0.628125
v 0.667192 0.071761 0.559375
v 0.667192 0.071761 0.628125
v 0.670927 0.084072 0.559375
v 0.670927 0.084072 0.628125
v 0.662813 0.096875 0.540625
v 0.661732 0.107849 0.540625
v 0.661732 0.107849 0.715625
v 0.662813 0.096875 0.715625
v 0.658531 0.118401 0.540625
v 0.658531 0.118401 0.715625
v 0.653333 0.128126 0.540625
v 0.653333 0.128126 0.715625
v 0.646337 0.136650 0.540625
v 0.646337 0.136650 0.715625
v 0.637813 0.143645 0.540625
v 0.637813 0.143645 0.715625
v 0.628088 0.148843 0.540625
v 0.628088 0.148843 0.715625
v 0.617536 0.152044 0.540625
v 0.617536 0.152044 0.715625
v 0.606563 0.153125 0.540625
v 0.606563 0.153125 0.715625
v 0.595589 0.152044 0.540625
v 0.595589 0.152044 0.715625
v 0.585037 0.148843 0.540625
v 0.585037 0.148843 0.715625
v 0.575312 0.143645 0.540625
v 0.575312 0.143645 0.715625
v 0.566788 0.136650 0.540625
v 0.566788 0.136650 0.715625
v 0.559792 0.128126 0.540625
v 0.559792 0.128126 0.715625
v 0.554594 0.118401 0.540625
v 0.554594 0.118401 0.715625
v 0.551393 0.107849 0.540625
v 0.551393 0.107849 0.715625
v 0.550312 0.096875 0.540625
v 0.550312 0.096875 0.715625
v 0.551393 0.085901 0.540625
v 0.551393 0.085901 0.715625
v 0.554594 0.075349 0.540625
v 0.554594 0.075349 0.715625
v 0.559792 0.065624 0.540625
v 0.559792 0.065624 0.715625
v 0.566788 0.057100 0.540625
v 0.566788 0.057100 0.715625
v 0.575312 0.050105 0.540625
v 0.575312 0.050105 0.715625
v 0.585037 0.044907 0.540625
v 0.585037 0.044907 0.715625
v 0.595589 0.041706 0.540625
v 0.595589 0.041706 0.715625
v 0.606563 0.040625 0.540625
v 0.606563 0.040625 0.715625
v 0.617536 0.041706 0.540625
v 0.617536 0.041706 0.715625
v 0.628088 0.044907 0.540625
v 0.628088 0.044907 0.715625
v 0.637813 0.050105 0.540625
v 0.637813 0.050105 0.715625
v 0.646337 0.057100 0.540625
v 0.646337 0.057100 0.715625
v 0.653333 0.065624 0.540625
v 0.653333 0.065624 0.715625
v 0.658531 0.075349 0.540625
v 0.658531 0.075349 0.715625
v 0.661732 0.085901 0.540625
v 0.661732 0.085901 0.715625
v 0.462500 0.127000 0.287500
v 0.457428 0.126500 0.287500
v 0.459515 0.123637 0.287564
v 0.464551 0.124081 0.288207
v 0.452550 0.125021 0.287500
v 0.454593 0.122324 0.287400
v 0.448055 0.122618 0.287500
v 0.449975 0.120191 0.287719
v 0.444115 0.119385 0.287500
v 0.445838 0.117321 0.288510
v 0.440882 0.115445 0.287500
v 0.442341 0.113823 0.289743
v 0.438479 0.110950 0.287500
v 0.439620 0.109833 0.291370
v 0.437000 0.106072 0.287500
v 0.437777 0.105503 0.293329
v 0.436500 0.101000 0.287500
v 0.436885 0.101000 0.295544
v 0.437000 0.095928 0.287500
v 0.436977 0.096497 0.297931
v 0.438479 0.091050 0.287500
v 0.438049 0.092167 0.300396
v 0.440882 0.086555 0.287500
v 0.440062 0.088177 0.302847
v 0.444115 0.082615 0.287500
v 0.442937 0.084679 0.305188
v 0.448055 0.079382 0.287500
v 0.446563 0.081809 0.307330
v 0.452550 0.076979 0.287500
v 0.450802 0.079676 0.309190
v 0.457428 0.075500 0.287500
v 0.455491 0.078363 0.310697
v 0.462500 0.075000 0.287500
v 0.460449 0.077919 0.311793
v 0.467572 0.075500 0.287500
v 0.465485 0.078363 0.312436
v 0.472450 0.076979 0.287500
v 0.470407 0.079676 0.312600
v 0.476945 0.079382 0.287500
v 0.475025 0.081809 0.312281
v 0.480885 0.082615 0.287500
v 0.479162 0.084679 0.311490
v 0.484118 0.086555 0.287500
v 0.482659 0.088177 0.310257
v 0.486521 0.091050 0.287500
v 0.485380 0.092167 0.308630
v 0.488000 0.095928 0.287500
v 0.487223 0.096497 0.306671
v 0.488500 0.101000 0.287500
v 0.488115 0.101000 0.304456
v 0.488000 0.106072 0.287500
v 0.488023 0.105503 0.302069
v 0.486521 0.110950 0.287500
v 0.486951 0.109833 0.299604
v 0.484118 0.115445 0.287500
v 0.484938 0.113823 0.297153
v 0.480885 0.119385 0.287500
v 0.482063 0.117321 0.294812
v 0.476945 0.122618 0.287500
v 0.478437 0.120191 0.292670
v 0.472450 0.125021 0.287500
v 0.474198 0.122324 0.290810
v 0.467572 0.126500 0.287500
v 0.469509 0.123637 0.289303
v 0.390452 0.332637 0.425064
v 0.395489 0.333081 0.425707
v 0.385530 0.331324 0.424900
v 0.380912 0.329191 0.425219
v 0.376775 0.326321 0.426010
v 0.373279 0.322823 0.427243
v 0.370557 0.318833 0.428870
v 0.368715 0.314503 0.430829
v 0.367822 0.310000 0.433044
v 0.367914 0.305497 0.435431
v 0.368987 0.301167 0.437896
v 0.370999 0.297177 0.440347
v 0.373874 0.293679 0.442688
v 0.377501 0.290809 0.444830
v 0.381740 0.288676 0.446690
v 0.386428 0.287363 0.448197
v 0.391386 0.286919 0.449293
v 0.396423 0.287363 0.449936
v 0.401345 0.288676 0.450100
v 0.405963 0.290809 0.449781
v 0.410100 0.293679 0.448990
v 0.413596 0.297177 0.447757
v 0.416318 0.301167 0.446130
v 0.418160 0.305497 0.444171
v 0.419053 0.310000 0.441956
v 0.418961 0.314503 0.439569
v 0.417888 0.318833 0.437104
v 0.415876 0.322823 0.434653
v 0.413001 0.326321 0.432312
v 0.409374 0.329191 0.430170
v 0.405135 0.331324 0.428310
v 0.400447 0.332637 0.426803
v 0.390643 0.335849 0.512500
v 0.395739 0.335898 0.512500
v 0.385653 0.334807 0.512500
v 0.380963 0.332812 0.512500
v 0.376752 0.329940 0.512500
v 0.373183 0.326302 0.512500
v 0.370392 0.322037 0.512500
v 0.368486 0.317310 0.512500
v 0.367540 0.312302 0.512500
v 0.367588 0.307205 0.512500
v 0.368630 0.302216 0.512500
v 0.370625 0.297526 0.512500
v 0.373497 0.293315 0.512500
v 0.377136 0.289745 0.512500
v 0.381400 0.286954 0.512500
v 0.386128 0.285049 0.512500
v 0.391136 0.284102 0.512500
v 0.396232 0.284151 0.512500
v 0.401222 0.285193 0.512500
v 0.405912 0.287188 0.512500
v 0.410123 0.290060 0.512500
v 0.413692 0.293698 0.512500
v 0.416483 0.297963 0.512500
v 0.418389 0.302690 0.512500
v 0.419335 0.307698 0.512500
v 0.419287 0.312795 0.512500
v 0.418245 0.317784 0.512500
v 0.416250 0.322474 0.512500
v 0.413378 0.326685 0.512500
v 0.409739 0.330255 0.512500
v 0.405475 0.333046 0.512500
v 0.400747 0.334951 0.512500
v 0.490312 0.310000 0.431250
v 0.488451 0.328899 0.431250
v 0.488451 0.328899 0.593750
v 0.490312 0.310000 0.593750
v 0.482938 0.347072 0.431250
v 0.482938 0.347072 0.593750
v 0.473986 0.363821 0.431250
v 0.473986 0.363821 0.593750
v 0.461938 0.378501 0.431250
v 0.461938 0.378501 0.593750
v 0.447258 0.390549 0.431250
v 0.447258 0.390549 0.593750
v 0.430510 0.399501 0.431250
v 0.430510 0.399501 0.593750
v 0.412337 0.405014 0.431250
v 0.412337 0.405014 0.593750
v 0.393437 0.406875 0.431250
v 0.393437 0.406875 0.593750
v 0.374538 0.405014 0.431250
v 0.374538 0.405014 0.593750
v 0.356365 0.399501 0.431250
v 0.356365 0.399501 0.593750
v 0.339617 0.390549 0.431250
v 0.339617 0.390549 0.593750
v 0.324937 0.378501 0.431250
v 0.324937 0.378501 0.593750
v 0.312889 0.363821 0.431250
v 0.312889 0.363821 0.593750
v 0.303937 0.347072 0.431250
v 0.303937 0.347072 0.593750
v 0.298424 0.328899 0.431250
v 0.298424 0.328899 0.593750
v 0.296563 0.310000 0.431250
v 0.296563 0.310000 0.593750
v 0.298424 0.291101 0.431250
v 0.298424 0.291101 0.593750
v 0.303937 0.272928 0.431250
v 0.303937 0.272928 0.593750
v 0.312889 0.256179 0.431250
v 0.312889 0.256179 0.593750
v 0.324937 0.241499 0.431250
v 0.324937 0.241499 0.593750
v 0.339617 0.229451 0.431250
v 0.339617 0.229451 0.593750
v 0.356365 0.220499 0.431250
v 0.356365 0.220499 0.593750
v 0.374538 0.214986 0.431250
v 0.374538 0.214986 0.593750
v 0.393437 0.213125 0.431250
v 0.393437 0.213125 0.593750
v 0.412337 0.214986 0.431250
v 0.412337 0.214986 0.593750
v 0.430510 0.220499 0.431250
v 0.430510 0.220499 0.593750
v 0.447258 0.229451 0.431250
v 0.447258 0.229451 0.593750
v 0.461938 0.241499 0.431250
v 0.461938 0.241499 0.593750
v 0.473986 0.256179 0.431250
v 0.473986 0.256179 0.593750
v 0.482938 0.272928 0.431250
v 0.482938 0.272928 0.593750
v 0.488451 0.291101 0.431250
v 0.488451 0.291101 0.593750
v 0.459062 0.310000 0.559375
v 0.457802 0.322803 0.559375
v 0.457802 0.322803 0.628125
v 0.459062 0.310000 0.628125
v 0.454067 0.335114 0.559375
v 0.454067 0.335114 0.628125
v 0.448003 0.346459 0.559375
v 0.448003 0.346459 0.628125
v 0.439841 0.356404 0.559375
v 0.439841 0.356404 0.628125
v 0.429897 0.364565 0.559375
v 0.429897 0.364565 0.628125
v 0.418551 0.370630 0.559375
v 0.418551 0.370630 0.628125
v 0.406240 0.374364 0.559375
v 0.406240 0.374364 0.628125
v 0.393437 0.375625 0.559375
v 0.393437 0.375625 0.628125
v 0.380635 0.374364 0.559375
v 0.380635 0.374364 0.628125
v 0.368324 0.370630 0.559375
v 0.368324 0.370630 0.628125
v 0.356978 0.364565 0.559375
v 0.356978 0.364565 0.628125
v 0.347034 0.356404 0.559375
v 0.347034 0.356404 0.628125
v 0.338872 0.346459 0.559375
v 0.338872 0.346459 0.628125
v 0.332808 0.335114 0.559375
v 0.332808 0.335114 0.628125
v 0.329073 0.322803 0.559375
v 0.329073 0.322803 0.628125
v 0.327813 0.310000 0.559375
v 0.327813 0.310000 0.628125
v 0.329073 0.297197 0.559375
v 0.329073 0.297197 0.628125
v 0.332808 0.284886 0.559375
v 0.332808 0.284886 0.628125
v 0.338872 0.273541 0.559375
v 0.338872 0.273541 0.628125
v 0.347034 0.263596 0.559375
v 0.347034 0.263596 0.628125
v 0.356978 0.255435 0.559375
v 0.356978 0.255435 0.628125
v 0.368324 0.249370 0.559375
v 0.368324 0.249370 0.628125
v 0.380635 0.245636 0.559375
v 0.380635 0.245636 0.628125
v 0.393437 0.244375 0.559375
v 0.393437 0.244375 0.628125
v 0.406240 0.245636 0.559375
v 0.406240 0.245636 0.628125
v 0.418551 0.249370 0.559375
v 0.418551 0.249370 0.628125
v 0.429897 0.255435 0.559375
v 0.429897 0.255435 0.628125
v 0.439841 0.263596 0.559375
v 0.439841 0.263596 0.628125
v 0.448003 0.273541 0.559375
v 0.448003 0.273541 0.628125
v 0.454067 0.284886 0.559375
v 0.454067 0.284886 0.628125
v 0.457802 0.297197 0.559375
v 0.457802 0.297197 0.628125
v 0.449688 0.310000 0.540625
v 0.448607 0.320974 0.540625
v 0.448607 0.320974 0.715625
v 0.449688 0.310000 0.715625
v 0.445406 0.331526 0.540625
v 0.445406 0.331526 0.715625
v 0.440208 0.341251 0.540625
v 0.440208 0.341251 0.715625
v 0.433212 0.349775 0.540625
v 0.433212 0.349775 0.715625
v 0.424688 0.356770 0.540625
v 0.424688 0.356770 0.715625
v 0.414963 0.361968 0.540625
v 0.414963 0.361968 0.715625
v 0.404411 0.365169 0.540625
v 0.404411 0.365169 0.715625
v 0.393437 0.366250 0.540625
v 0.393437 0.366250 0.715625
v 0.382464 0.365169 0.540625
v 0.382464 0.365169 0.715625
v 0.371912 0.361968 0.540625
v 0.371912 0.361968 0.715625
v 0.362187 0.356770 0.540625
v 0.362187 0.356770 0.715625
v 0.353663 0.349775 0.540625
v 0.353663 0.349775 0.715625
v 0.346667 0.341251 0.540625
v 0.346667 0.341251 0.715625
v 0.341469 0.331526 0.540625
v 0.341469 0.331526 0.715625
v 0.338268 0.320974 0.540625
v 0.338268 0.320974 0.715625
v 0.337187 0.310000 0.540625
v 0.337187 0.310000 0.715625
v 0.338268 0.299026 0.540625
v 0.338268 0.299026 0.715625
v 0.341469 0.288474 0.540625
v 0.341469 0.288474 0.715625
v 0.346667 0.278749 0.540625
v 0.346667 0.278749 0.715625
v 0.353663 0.270225 0.540625
v 0.353663 0.270225 0.715625
v 0.362187 0.263230 0.540625
v 0.362187 0.263230 0.715625
v 0.371912 0.258032 0.540625
v 0.371912 0.258032 0.715625
v 0.382464 0.254831 0.540625
v 0.382464 0.254831 0.715625
v 0.393437 0.253750 0.540625
v 0.393437 0.253750 0.715625
v 0.404411 0.254831 0.540625
v 0.404411 0.254831 0.715625
v 0.414963 0.258032 0.540625
v 0.414963 0.258032 0.715625
v 0.424688 0.263230 0.540625
v 0.424688 0.263230 0.715625
v 0.433212 0.270225 0.540625
v 0.433212 0.270225 0.715625
v 0.440208 0.278749 0.540625
v 0.440208 0.278749 0.715625
v 0.445406 0.288474 0.540625
v 0.445406 0.288474 0.715625
v 0.448607 0.299026 0.540625
v 0.448607 0.299026 0.715625
v 0.537500 0.127000 0.287500
v 0.532428 0.126500 0.287500
v 0.530491 0.123637 0.289303
v 0.535449 0.124081 0.288207
v 0.527550 0.125021 0.287500
v 0.525802 0.122324 0.290810
v 0.523055 0.122618 0.287500
v 0.521563 0.120191 0.292670
v 0.519115 0.119385 0.287500
v 0.517937 0.117321 0.294812
v 0.515882 0.115445 0.287500
v 0.515062 0.113823 0.297153
v 0.513479 0.110950 0.287500
v 0.513049 0.109833 0.299604
v 0.512000 0.106072 0.287500
v 0.511977 0.105503 0.302069
v 0.511500 0.101000 0.287500
v 0.511885 0.101000 0.304456
v 0.512000 0.095928 0.287500
v 0.512777 0.096497 0.306671
v 0.513479 0.091050 0.287500
v 0.514620 0.092167 0.308630
v 0.515882 0.086555 0.287500
v 0.517341 0.088177 0.310257
v 0.519115 0.082615 0.287500
v 0.520838 0.084679 0.311490
v 0.523055 0.079382 0.287500
v 0.524975 0.081809 0.312281
v 0.527550 0.076979 0.287500
v 0.529593 0.079676 0.312600
v 0.532428 0.075500 0.287500
v 0.534515 0.078363 0.312436
v 0.537500 0.075000 0.287500
v 0.539551 0.077919 0.311793
v 0.542572 0.075500 0.287500
v 0.544509 0.078363 0.310697
v 0.547450 0.076979 0.287500
v 0.549198 0.079676 0.309190
v 0.551945 0.079382 0.287500
v 0.553437 0.081809 0.307330
v 0.555885 0.082615 0.287500
v 0.557063 0.084679 0.305188
v 0.559118 0.086555 0.287500
v 0.559938 0.088177 0.302847
v 0.561521 0.091050 0.287500
v 0.561951 0.092167 0.300396
v 0.563000 0.095928 0.287500
v 0.563023 0.096497 0.297931
v 0.563500 0.101000 0.287500
v 0.563115 0.101000 0.295544
v 0.563000 0.106072 0.287500
v 0.562223 0.105503 0.293329
v 0.561521 0.110950 0.287500
v 0.560380 0.109833 0.291370
v 0.559118 0.115445 0.287500
v 0.557659 0.113823 0.289743
v 0.555885 0.119385 0.287500
v 0.554162 0.117321 0.288510
v 0.551945 0.122618 0.287500
v 0.550025 0.120191 0.287719
v 0.547450 0.125021 0.287500
v 0.545407 0.122324 0.287400
v 0.542572 0.126500 0.287500
v 0.540485 0.123637 0.287564
v 0.599553 0.332637 0.426803
v 0.604511 0.333081 0.425707
v 0.594865 0.331324 0.428310
v 0.590626 0.329191 0.430170
v 0.586999 0.326321 0.432312
v 0.584124 0.322823 0.434653
v 0.582112 0.318833 0.437104
v 0.581039 0.314503 0.439569
v 0.580947 0.310000 0.441956
v 0.581840 0.305497 0.444171
v 0.583682 0.301167 0.446130
v 0.586404 0.297177 0.447757
v 0.589900 0.293679 0.448990
v 0.594037 0.290809 0.449781
v 0.598655 0.288676 0.450100
v 0.603577 0.287363 0.449936
v 0.608614 0.286919 0.449293
v 0.613572 0.287363 0.448197
v 0.618260 0.288676 0.446690
v 0.622499 0.290809 0.444830
v 0.626126 0.293679 0.442688
v 0.629001 0.297177 0.440347
v 0.631013 0.301167 0.437896
v 0.632086 0.305497 0.435431
v 0.632178 0.310000 0.433044
v 0.631285 0.314503 0.430829
v 0.629443 0.318833 0.428870
v 0.626721 0.322823 0.427243
v 0.623225 0.326321 0.426010
v 0.619088 0.329191 0.425219
v 0.614470 0.331324 0.424900
v 0.609548 0.332637 0.425064
v 0.599253 0.334951 0.512500
v 0.604261 0.335898 0.512500
v 0.594525 0.333046 0.512500
v 0.590261 0.330255 0.512500
v 0.586622 0.326685 0.512500
v 0.583750 0.322474 0.512500
v 0.581755 0.317784 0.512500
v 0.580713 0.312795 0.512500
v 0.580665 0.307698 0.512500
v 0.581611 0.302690 0.512500
v 0.583517 0.297963 0.512500
v 0.586308 0.293698 0.512500
v 0.589877 0.290060 0.512500
v 0.594088 0.287188 0.512500
v 0.598778 0.285193 0.512500
v 0.603768 0.284151 0.512500
v 0.608864 0.284102 0.512500
v 0.613872 0.285049 0.512500
v 0.618600 0.286954 0.512500
v 0.622864 0.289745 0.512500
v 0.626503 0.293315 0.512500
v 0.629375 0.297526 0.512500
v 0.631370 0.302216 0.512500
v 0.632412 0.307205 0.512500
v 0.632460 0.312302 0.512500
v 0.631514 0.317310 0.512500
v 0.629608 0.322037 0.512500
v 0.626817 0.326302 0.512500
v 0.623248 0.329940 0.512500
v 0.619037 0.332812 0.512500
v 0.614347 0.334807 0.512500
v 0.609357 0.335849 0.512500
v 0.703438 0.310000 0.431250
v 0.701576 0.328899 0.431250
v 0.701576 0.328899 0.593750
v 0.703438 0.310000 0.593750
v 0.696063 0.347072 0.431250
v 0.696063 0.347072 0.593750
v 0.687111 0.363821 0.431250
v 0.687111 0.363821 0.593750
v 0.675063 0.378501 0.431250
v 0.675063 0.378501 0.593750
v 0.660383 0.390549 0.431250
v 0.660383 0.390549 0.593750
v 0.643635 0.399501 0.431250
v 0.643635 0.399501 0.593750
v 0.625462 0.405014 0.431250
v 0.625462 0.405014 0.593750
v 0.606563 0.406875 0.431250
v 0.606563 0.406875 0.593750
v 0.587663 0.405014 0.431250
v 0.587663 0.405014 0.593750
v 0.569490 0.399501 0.431250
v 0.569490 0.399501 0.593750
v 0.552742 0.390549 0.431250
v 0.552742 0.390549 0.593750
v 0.538062 0.378501 0.431250
v 0.538062 0.378501 0.593750
v 0.526014 0.363821 0.431250
v 0.526014 0.363821 0.593750
v 0.517062 0.347072 0.431250
v 0.517062 0.347072 0.593750
v 0.511549 0.328899 0.431250
v 0.511549 0.328899 0.593750
v 0.509687 0.310000 0.431250
v 0.509687 0.310000 0.593750
v 0.511549 0.291101 0.431250
v 0.511549 0.291101 0.593750
v 0.517062 0.272928 0.431250
v 0.517062 0.272928 0.593750
v 0.526014 0.256179 0.431250
v 0.526014 0.256179 0.593750
v 0.538062 0.241499 0.431250
v 0.538062 0.241499 0.593750
v 0.552742 0.229451 0.431250
v 0.552742 0.229451 0.593750
v 0.569490 0.220499 0.431250
v 0.569490 0.220499 0.593750
v 0.587663 0.214986 0.431250
v 0.587663 0.214986 0.593750
v 0.606563 0.213125 0.431250
v 0.606563 0.213125 0.593750
v 0.625462 0.214986 0.431250
v 0.625462 0.214986 0.593750
v 0.643635 0.220499 0.431250
v 0.643635 0.220499 0.593750
v 0.660383 0.229451 0.431250
v 0.660383 0.229451 0.593750
v 0.675063 0.241499 0.431250
v 0.675063 0.241499 0.593750
v 0.687111 0.256179 0.431250
v 0.687111 0.256179 0.593750
v 0.696063 0.272928 0.431250
v 0.696063 0.272928 0.593750
v 0.701576 0.291101 0.431250
v 0.701576 0.291101 0.593750
v 0.672188 0.310000 0.559375
v 0.670927 0.322803 0.559375
v 0.670927 0.322803 0.628125
v 0.672188 0.310000 0.628125
v 0.667192 0.335114 0.559375
v 0.667192 0.335114 0.628125
v 0.661128 0.346459 0.559375
v 0.661128 0.346459 0.628125
v 0.652966 0.356404 0.559375
v 0.652966 0.356404 0.628125
v 0.643022 0.364565 0.559375
v 0.643022 0.364565 0.628125
v 0.631676 0.370630 0.559375
v 0.631676 0.370630 0.628125
v 0.619365 0.374364 0.559375
v 0.619365 0.374364 0.628125
v 0.606563 0.375625 0.559375
v 0.606563 0.375625 0.628125
v 0.593760 0.374364 0.559375
v 0.593760 0.374364 0.628125
v 0.581449 0.370630 0.559375
v 0.581449 0.370630 0.628125
v 0.570103 0.364565 0.559375
v 0.570103 0.364565 0.628125
v 0.560159 0.356404 0.559375
v 0.560159 0.356404 0.628125
v 0.551997 0.346459 0.559375
v 0.551997 0.346459 0.628125
v 0.545933 0.335114 0.559375
v 0.545933 0.335114 0.628125
v 0.542198 0.322803 0.559375
v 0.542198 0.322803 0.628125
v 0.540937 0.310000 0.559375
v 0.540937 0.310000 0.628125
v 0.542198 0.297197 0.559375
v 0.542198 0.297197 0.628125
v 0.545933 0.284886 0.559375
v 0.545933 0.284886 0.628125
v 0.551997 0.273541 0.559375
v 0.551997 0.273541 0.628125
v 0.560159 0.263596 0.559375
v 0.560159 0.263596 0.628125
v 0.570103 0.255435 0.559375
v 0.570103 0.255435 0.628125
v 0.581449 0.249370 0.559375
v 0.581449 0.249370 0.628125
v 0.593760 0.245636 0.559375
v 0.593760 0.245636 0.628125
v 0.606563 0.244375 0.559375
v 0.606563 0.244375 0.628125
v 0.619365 0.245636 0.559375
v 0.619365 0.245636 0.628125
v 0.631676 0.249370 0.559375
v 0.631676 0.249370 0.628125
v 0.643022 0.255435 0.559375
v 0.643022 0.255435 0.628125
v 0.652966 0.263596 0.559375
v 0.652966 0.263596 0.628125
v 0.661128 0.273541 0.559375
v 0.661128 0.273541 0.628125
v 0.667192 0.284886 0.559375
v 0.667192 0.284886 0.628125
v 0.670927 0.297197 0.559375
v 0.670927 0.297197 0.628125
v 0.662813 0.310000 0.540625
v 0.661732 0.320974 0.540625
v 0.661732 0.320974 0.715625
v 0.662813 0.310000 0.715625
v 0.658531 0.331526 0.540625
v 0.658531 0.331526 0.715625
v 0.653333 0.341251 0.540625
v 0.653333 0.341251 0.715625
v 0.646337 0.349775 0.540625
v 0.646337 0.349775 0.715625
v 0.637813 0.356770 0.540625
v 0.637813 0.356770 0.715625
v 0.628088 0.361968 0.540625
v 0.628088 0.361968 0.715625
v 0.617536 0.365169 0.540625
v 0.617536 0.365169 0.715625
v 0.606563 0.366250 0.540625
v 0.606563 0.366250 0.715625
v 0.595589 0.365169 0.540625
v 0.595589 0.365169 0.715625
v 0.585037 0.361968 0.540625
v 0.585037 0.361968 0.715625
v 0.575312 0.356770 0.540625
v 0.575312 0.356770 0.715625
v 0.566788 0.349775 0.540625
v 0.566788 0.349775 0.715625
v 0.559792 0.341251 0.540625
v 0.559792 0.341251 0.715625
v 0.554594 0.331526 0.540625
v 0.554594 0.331526 0.715625
v 0.551393 0.320974 0.540625
v 0.551393 0.320974 0.715625
v 0.550312 0.310000 0.540625
v 0.550312 0.310000 0.715625
v 0.551393 0.299026 0.540625
v 0.551393 0.299026 0.715625
v 0.554594 0.288474 0.540625
v 0.554594 0.288474 0.715625
v 0.559792 0.278749 0.540625
v 0.559792 0.278749 0.715625
v 0.566788 0.270225 0.540625
v 0.566788 0.270225 0.715625
v 0.575312 0.263230 0.540625
v 0.575312 0.263230 0.715625
v 0.585037 0.258032 0.540625
v 0.585037 0.258032 0.715625
v 0.595589 0.254831 0.540625
v 0.595589 0.254831 0.715625
v 0.606563 0.253750 0.540625
v 0.606563 0.253750 0.715625
v 0.617536 0.254831 0.540625
v 0.617536 0.254831 0.715625
v 0.628088 0.258032 0.540625
v 0.628088 0.258032 0.715625
v 0.637813 0.263230 0.540625
v 0.637813 0.263230 0.715625
v 0.646337 0.270225 0.540625
v 0.646337 0.270225 0.715625
v 0.653333 0.278749 0.540625
v 0.653333 0.278749 0.715625
v 0.658531 0.288474 0.540625
v 0.658531 0.288474 0.715625
v 0.661732 0.299026 0.540625
v 0.661732 0.299026 0.715625
v 0.451250 0.026000 0.372500
v 0.473750 0.026000 0.372500
v 0.473750 0.026000 0.352500
v 0.451250 0.026000 0.352500
v 0.451250 0.101000 0.352500
v 0.473750 0.101000 0.352500
v 0.473750 0.101000 0.372500
v 0.451250 0.101000 0.372500
v 0.526250 0.026000 0.372500
v 0.548750 0.026000 0.372500
v 0.548750 0.026000 0.352500
v 0.526250 0.026000 0.352500
v 0.526250 0.101000 0.352500
v 0.548750 0.101000 0.352500
v 0.548750 0.101000 0.372500
v 0.526250 0.101000 0.372500
v 0.451250 0.053500 0.372500
v 0.548750 0.053500 0.372500
v 0.548750 0.053500 0.352500
v 0.451250 0.053500 0.352500
v 0.451250 0.073500 0.352500
v 0.548750 0.073500 0.352500
v 0.548750 0.073500 0.372500
v 0.451250 0.073500 0.372500
vn -0.0975 0.9904 0.0000
vn -0.2889 0.9523 0.0000
vn -0.4691 0.8777 0.0000
vn -0.6313 0.7693 0.0000
vn -0.7693 0.6313 0.0000
vn -0.8777 0.4691 0.0000
vn -0.9523 0.2889 0.0000
vn -0.9904 0.0975 0.0000
vn -0.9904 -0.0975 0.0000
vn -0.9523 -0.2889 0.0000
vn -0.8777 -0.4691 0.0000
vn -0.7693 -0.6313 0.0000
vn -0.6313 -0.7693 0.0000
vn -0.4691 -0.8777 0.0000
vn -0.2889 -0.9523 0.0000
vn -0.0975 -0.9904 0.0000
vn 0.0975 -0.9904 0.0000
vn 0.2889 -0.9523 0.0000
vn 0.4691 -0.8777 0.0000
vn 0.6313 -0.7693 0.0000
vn 0.7693 -0.6313 0.0000
vn 0.8777 -0.4691 0.0000
vn 0.9523 -0.2889 0.0000
vn 0.9904 -0.0975 0.0000
vn 0.9904 0.0975 0.0000
vn 0.9523 0.2889 -0.0000
vn 0.8777 0.4691 -0.0000
vn 0.7693 0.6313 -0.0000
vn 0.6313 0.7693 -0.0000
vn 0.4691 0.8777 -0.0000
vn 0.2889 0.9523 -0.0000
vn 0.0975 0.9904 0.0000
vn -0.0474 0.9662 -0.2338
vn -0.2359 0.9290 -0.2676
vn -0.4153 0.8562 -0.2912
vn -0.5788 0.7505 -0.3036
vn -0.7201 0.6159 -0.3043
vn -0.8336 0.4577 -0.2933
vn -0.9152 0.2818 -0.2710
vn -0.9615 0.0952 -0.2383
vn -0.9709 -0.0952 -0.1965
vn -0.9430 -0.2818 -0.1471
vn -0.8789 -0.4577 -0.0921
vn -0.7810 -0.6159 -0.0335
vn -0.6531 -0.7505 0.0264
vn -0.5000 -0.8562 0.0852
vn -0.3278 -0.9290 0.1408
vn -0.1430 -0.9662 0.1910
vn 0.0474 -0.9662 0.2338
vn 0.2359 -0.9290 0.2676
vn 0.4153 -0.8562 0.2912
vn 0.5788 -0.7505 0.3036
vn 0.7201 -0.6159 0.3043
vn 0.8336 -0.4577 0.2933
vn 0.9152 -0.2818 0.2710
vn 0.9615 -0.0952 0.2383
vn 0.9709 0.0952 0.1965
vn 0.9430 0.2818 0.1471
vn 0.8789 0.4577 0.0921
vn 0.7810 0.6159 0.0335
vn 0.6531 0.7505 -0.0264
vn 0.5000 0.8562 -0.0852
vn 0.3278 0.9290 -0.1408
vn 0.1430 0.9662 -0.1910
vn -0.0000 -0.0000 -1.0000
vn 0.0000 0.0000 1.0000
vn 0.9952 0.0980 0.0000
vn 0.9569 0.2903 0.0000
vn 0.8819 0.4714 0.0000
vn 0.7730 0.6344 0.0000
vn 0.6344 0.7730 0.0000
vn 0.4714 0.8819 0.0000
vn 0.2903 0.9569 0.0000
vn 0.0980 0.9952 0.0000
vn -0.0980 0.9952 0.0000
vn -0.2903 0.9569 0.0000
vn -0.4714 0.8819 0.0000
vn -0.6344 0.7730 0.0000
vn -0.7730 0.6344 0.0000
vn -0.8819 0.4714 0.0000
vn -0.9569 0.2903 0.0000
vn -0.9952 0.0980 0.0000
vn -0.9952 -0.0980 0.0000
vn -0.9569 -0.2903 0.0000
vn -0.8819 -0.4714 0.0000
vn -0.7730 -0.6344 0.0000
vn -0.6344 -0.7730 0.0000
vn -0.4714 -0.8819 0.0000
vn -0.2903 -0.9569 0.0000
vn -0.0980 -0.9952 0.0000
vn 0.0980 -0.9952 0.0000
vn 0.2903 -0.9569 0.0000
vn 0.4714 -0.8819 0.0000
vn 0.6344 -0.7730 0.0000
vn 0.7730 -0.6344 0.0000
vn 0.8819 -0.4714 0.0000
vn 0.9569 -0.2903 0.0000
vn 0.9952 -0.0980 0.0000
vn -0.1430 0.9662 -0.1910
vn -0.3278 0.9290 -0.1408
vn -0.5000 0.8562 -0.0852
vn -0.6531 0.7505 -0.0264
vn -0.7810 0.6159 0.0335
vn -0.8789 0.4577 0.0921
vn -0.9430 0.2818 0.1471
vn -0.9709 0.0952 0.1965
vn -0.9615 -0.0952 0.2383
vn -0.9152 -0.2818 0.2710
vn -0.8336 -0.4577 0.2933
vn -0.7201 -0.6159 0.3043
vn -0.5788 -0.7505 0.3036
vn -0.4153 -0.8562 0.2912
vn -0.2359 -0.9290 0.2676
vn -0.0474 -0.9662 0.2338
vn 0.1430 -0.9662 0.1910
vn 0.3278 -0.9290 0.1408
vn 0.5000 -0.8562 0.0852
vn 0.6531 -0.7505 0.0264
vn 0.7810 -0.6159 -0.0335
vn 0.8789 -0.4577 -0.0921
vn 0.9430 -0.2818 -0.1471
vn 0.9709 -0.0952 -0.1965
vn 0.9615 0.0952 -0.2383
vn 0.9152 0.2818 -0.2710
vn 0.8336 0.4577 -0.2933
vn 0.7201 0.6159 -0.3043
vn 0.5788 0.7505 -0.3036
vn 0.4153 0.8562 -0.2912
vn 0.2359 0.9290 -0.2676
vn 0.0474 0.9662 -0.2338
vn -0.0180 0.8792 -0.4659
vn -0.2095 0.8454 -0.4815
vn -0.3929 0.7791 -0.4785
vn -0.5613 0.6829 -0.4571
vn -0.7081 0.5605 -0.4182
vn -0.8277 0.4165 -0.3632
vn -0.9155 0.2565 -0.2942
vn -0.9680 0.0866 -0.2140
vn -0.9834 -0.0866 -0.1255
vn -0.9610 -0.2565 -0.0322
vn -0.9017 -0.4165 0.0624
vn -0.8077 -0.5605 0.1545
vn -0.6827 -0.6829 0.2407
vn -0.5314 -0.7791 0.3177
vn -0.3598 -0.8454 0.3824
vn -0.1742 -0.8792 0.4325
vn 0.0180 -0.8792 0.4659
vn 0.2095 -0.8454 0.4815
vn 0.3929 -0.7791 0.4785
vn 0.5613 -0.6829 0.4571
vn 0.7081 -0.5605 0.4182
vn 0.8277 -0.4165 0.3632
vn 0.9155 -0.2565 0.2942
vn 0.9680 -0.0866 0.2140
vn 0.9834 0.0866 0.1255
vn 0.9610 0.2565 0.0322
vn 0.9017 0.4165 -0.0624
vn 0.8077 0.5605 -0.1545
vn 0.6827 0.6829 -0.2407
vn 0.5314 0.7791 -0.3177
vn 0.3598 0.8454 -0.3824
vn 0.1742 0.8792 -0.4325
vn -0.1742 0.8792 -0.4325
vn -0.3598 0.8454 -0.3824
vn -0.5314 0.7791 -0.3177
vn -0.6827 0.6829 -0.2407
vn -0.8077 0.5605 -0.1545
vn -0.9017 0.4165 -0.0624
vn -0.9610 0.2565 0.0322
vn -0.9834 0.0866 0.1255
vn -0.9680 -0.0866 0.2140
vn -0.9155 -0.2565 0.2942
vn -0.8277 -0.4165 0.3632
vn -0.7081 -0.5605 0.4182
vn -0.5613 -0.6829 0.4571
vn -0.3929 -0.7791 0.4785
vn -0.2095 -0.8454 0.4815
vn -0.0180 -0.8792 0.4659
vn 0.1742 -0.8792 0.4325
vn 0.3598 -0.8454 0.3824
vn 0.5314 -0.7791 0.3177
vn 0.6827 -0.6829 0.2407
vn 0.8077 -0.5605 0.1545
vn 0.9017 -0.4165 0.0624
vn 0.9610 -0.2565 -0.0322
vn 0.9834 -0.0866 -0.1255
vn 0.9680 0.0866 -0.2140
vn 0.9155 0.2565 -0.2942
vn 0.8277 0.4165 -0.3632
vn 0.7081 0.5605 -0.4182
vn 0.5613 0.6829 -0.4571
vn 0.3929 0.7791 -0.4785
vn 0.2095 0.8454 -0.4815
vn 0.0180 0.8792 -0.4659
vn 0.0000 -1.0000 0.0000
vn 0.0000 1.0000 0.0000
vn -1.0000 0.0000 0.0000
vn 1.0000 0.0000 0.0000
vt 0.000000 0.000000
vt 0.031250 0.000000
vt 0.031250 0.048656
vt 0.000000 0.048656
vt 0.062500 0.000000
vt 0.062500 0.048656
vt 0.093750 0.000000
vt 0.093750 0.048656
vt 0.125000 0.000000
vt 0.125000 0.048656
vt 0.156250 0.000000
vt 0.156250 0.048656
vt 0.187500 0.000000
vt 0.187500 0.048656
vt 0.218750 0.000000
vt 0.218750 0.048656
vt 0.250000 0.000000
vt 0.250000 0.048656
vt 0.281250 0.000000
vt 0.281250 0.048656
vt 0.312500 0.000000
vt 0.312500 0.048656
vt 0.343750 0.000000
vt 0.343750 0.048656
vt 0.375000 0.000000
vt 0.375000 0.048656
vt 0.406250 0.000000
vt 0.406250 0.048656
vt 0.437500 0.000000
vt 0.437500 0.048656
vt 0.468750 0.000000
vt 0.468750 0.048656
vt 0.500000 0.000000
vt 0.500000 0.048656
vt 0.531250 0.000000
vt 0.531250 0.048656
vt 0.562500 0.000000
vt 0.562500 0.048656
vt 0.593750 0.000000
vt 0.593750 0.048656
vt 0.625000 0.000000
vt 0.625000 0.048656
vt 0.656250 0.000000
vt 0.656250 0.048656
vt 0.687500 0.000000
vt 0.687500 0.048656
vt 0.718750 0.000000
vt 0.718750 0.048656
vt 0.750000 0.000000
vt 0.750000 0.048656
vt 0.781250 0.000000
vt 0.781250 0.048656
vt 0.812500 0.000000
vt 0.812500 0.048656
vt 0.843750 0.000000
vt 0.843750 0.048656
vt 0.875000 0.000000
vt 0.875000 0.048656
vt 0.906250 0.000000
vt 0.906250 0.048656
vt 0.937500 0.000000
vt 0.937500 0.048656
vt 0.968750 0.000000
vt 0.968750 0.048656
vt 1.000000 0.000000
vt 1.000000 0.048656
vt 0.031250 0.708067
vt 0.000000 0.708067
vt 0.062500 0.708067
vt 0.093750 0.708067
vt 0.125000 0.708067
vt 0.156250 0.708067
vt 0.187500 0.708067
vt 0.218750 0.708067
vt 0.250000 0.708067
vt 0.281250 0.708067
vt 0.312500 0.708067
vt 0.343750 0.708067
vt 0.375000 0.708067
vt 0.406250 0.708067
vt 0.437500 0.708067
vt 0.468750 0.708067
vt 0.500000 0.708067
vt 0.531250 0.708067
vt 0.562500 0.708067
vt 0.593750 0.708067
vt 0.625000 0.708067
vt 0.656250 0.708067
vt 0.687500 0.708067
vt 0.718750 0.708067
vt 0.750000 0.708067
vt 0.781250 0.708067
vt 0.812500 0.708067
vt 0.843750 0.708067
vt 0.875000 0.708067
vt 0.906250 0.708067
vt 0.937500 0.708067
vt 0.968750 0.708067
vt 1.000000 0.708067
vt 0.031250 1.000000
vt 0.000000 1.000000
vt 0.062500 1.000000
vt 0.093750 1.000000
vt 0.125000 1.000000
vt 0.156250 1.000000
vt 0.187500 1.000000
vt 0.218750 1.000000
vt 0.250000 1.000000
vt 0.281250 1.000000
vt 0.312500 1.000000
vt 0.343750 1.000000
vt 0.375000 1.000000
vt 0.406250 1.000000
vt 0.437500 1.000000
vt 0.468750 1.000000
vt 0.500000 1.000000
vt 0.531250 1.000000
vt 0.562500 1.000000
vt 0.593750 1.000000
vt 0.625000 1.000000
vt 0.656250 1.000000
vt 0.687500 1.000000
vt 0.718750 1.000000
vt 0.750000 1.000000
vt 0.781250 1.000000
vt 0.812500 1.000000
vt 0.843750 1.000000
vt 0.875000 1.000000
vt 0.906250 1.000000
vt 0.937500 1.000000
vt 0.968750 1.000000
vt 1.000000 1.000000
vt 0.990393 0.402455
vt 0.961940 0.308658
vt 0.915735 0.222215
vt 0.853553 0.146447
vt 0.777785 0.084265
vt 0.691342 0.038060
vt 0.597545 0.009607
vt 0.402455 0.009607
vt 0.308658 0.038060
vt 0.222215 0.084265
vt 0.146447 0.146447
vt 0.084265 0.222215
vt 0.038060 0.308658
vt 0.009607 0.402455
vt 0.000000 0.500000
vt 0.009607 0.597545
vt 0.038060 0.691342
vt 0.084265 0.777785
vt 0.146447 0.853553
vt 0.222215 0.915735
vt 0.308658 0.961940
vt 0.402455 0.990393
vt 0.597545 0.990393
vt 0.691342 0.961940
vt 0.777785 0.915735
vt 0.853553 0.853553
vt 0.915735 0.777785
vt 0.961940 0.691342
vt 0.990393 0.597545
vt 1.000000 0.500000
vt 0.031250 0.036020
vt 0.000000 0.036020
vt 0.062500 0.036020
vt 0.093750 0.036020
vt 0.125000 0.036020
vt 0.156250 0.036020
vt 0.187500 0.036020
vt 0.218750 0.036020
vt 0.250000 0.036020
vt 0.281250 0.036020
vt 0.312500 0.036020
vt 0.343750 0.036020
vt 0.375000 0.036020
vt 0.406250 0.036020
vt 0.437500 0.036020
vt 0.468750 0.036020
vt 0.500000 0.036020
vt 0.531250 0.036020
vt 0.562500 0.036020
vt 0.593750 0.036020
vt 0.625000 0.036020
vt 0.656250 0.036020
vt 0.687500 0.036020
vt 0.718750 0.036020
vt 0.750000 0.036020
vt 0.781250 0.036020
vt 0.812500 0.036020
vt 0.843750 0.036020
vt 0.875000 0.036020
vt 0.906250 0.036020
vt 0.937500 0.036020
vt 0.968750 0.036020
vt 1.000000 0.036020
vt 0.031250 0.783882
vt 0.000000 0.783882
vt 0.062500 0.783882
vt 0.093750 0.783882
vt 0.125000 0.783882
vt 0.156250 0.783882
vt 0.187500 0.783882
vt 0.218750 0.783882
vt 0.250000 0.783882
vt 0.281250 0.783882
vt 0.312500 0.783882
vt 0.343750 0.783882
vt 0.375000 0.783882
vt 0.406250 0.783882
vt 0.437500 0.783882
vt 0.468750 0.783882
vt 0.500000 0.783882
vt 0.531250 0.783882
vt 0.562500 0.783882
vt 0.593750 0.783882
vt 0.625000 0.783882
vt 0.656250 0.783882
vt 0.687500 0.783882
vt 0.718750 0.783882
vt 0.750000 0.783882
vt 0.781250 0.783882
vt 0.812500 0.783882
vt 0.843750 0.783882
vt 0.875000 0.783882
vt 0.906250 0.783882
vt 0.937500 0.783882
vt 0.968750 0.783882
vt 1.000000 0.783882
vt 0.500000 0.500000
o conductor
usemtl conductor
f 1/1/1 2/2/1 3/3/1 4/4/1
f 2/2/2 5/5/2 6/6/2 3/3/2
f 5/5/3 7/7/3 8/8/3 6/6/3
f 7/7/4 9/9/4 10/10/4 8/8/4
f 9/9/5 11/11/5 12/12/5 10/10/5
f 11/11/6 13/13/6 14/14/6 12/12/6
f 13/13/7 15/15/7 16/16/7 14/14/7
f 15/15/8 17/17/8 18/18/8 16/16/8
f 17/17/9 19/19/9 20/20/9 18/18/9
f 19/19/10 21/21/10 22/22/10 20/20/10
f 21/21/11 23/23/11 24/24/11 22/22/11
f 23/23/12 25/25/12 26/26/12 24/24/12
f 25/25/13 27/27/13 28/28/13 26/26/13
f 27/27/14 29/29/14 30/30/14 28/28/14
f 29/29/15 31/31/15 32/32/15 30/30/15
f 31/31/16 33/33/16 34/34/16 32/32/16
f 33/33/17 35/35/17 36/36/17 34/34/17
f 35/35/18 37/37/18 38/38/18 36/36/18
f 37/37/19 39/39/19 40/40/19 38/38/19
f 39/39/20 41/41/20 42/42/20 40/40/20
f 41/41/21 43/43/21 44/44/21 42/42/21
f 43/43/22 45/45/22 46/46/22 44/44/22
f 45/45/23 47/47/23 48/48/23 46/46/23
f 47/47/24 49/49/24 50/50/24 48/48/24
f 49/49/25 51/51/25 52/52/25 50/50/25
f 51/51/26 53/53/26 54/54/26 52/52/26
f 53/53/27 55/55/27 56/56/27 54/54/27
f 55/55/28 57/57/28 58/58/28 56/56/28
f 57/57/29 59/59/29 60/60/29 58/58/29
f 59/59/30 61/61/30 62/62/30 60/60/30
f 61/61/31 63/63/31 64/64/31 62/62/31
f 63/63/32 1/65/32 4/66/32 64/64/32
f 4/4/33 3/3/33 65/67/33 66/68/33
f 3/3/34 6/6/34 67/69/34 65/67/34
f 6/6/35 8/8/35 68/70/35 67/69/35
f 8/8/36 10/10/36 69/71/36 68/70/36
f 10/10/37 12/12/37 70/72/37 69/71/37
f 12/12/38 14/14/38 71/73/38 70/72/38
f 14/14/39 16/16/39 72/74/39 71/73/39
f 16/16/40 18/18/40 73/75/40 72/74/40
f 18/18/41 20/20/41 74/76/41 73/75/41
f 20/20/42 22/22/42 75/77/42 74/76/42
f 22/22/43 24/24/43 76/78/43 75/77/43
f 24/24/44 26/26/44 77/79/44 76/78/44
f 26/26/45 28/28/45 78/80/45 77/79/45
f 28/28/46 30/30/46 79/81/46 78/80/46
f 30/30/47 32/32/47 80/82/47 79/81/47
f 32/32/48 34/34/48 81/83/48 80/82/48
f 34/34/49 36/36/49 82/84/49 81/83/49
f 36/36/50 38/38/50 83/85/50 82/84/50
f 38/38/51 40/40/51 84/86/51 83/85/51
f 40/40/52 42/42/52 85/87/52 84/86/52
f 42/42/53 44/44/53 86/88/53 85/87/53
f 44/44/54 46/46/54 87/89/54 86/88/54
f 46/46/55 48/48/55 88/90/55 87/89/55
f 48/48/56 50/50/56 89/91/56 88/90/56
f 50/50/57 52/52/57 90/92/57 89/91/57
f 52/52/58 54/54/58 91/93/58 90/92/58
f 54/54/59 56/56/59 92/94/59 91/93/59
f 56/56/60 58/58/60 93/95/60 92/94/60
f 58/58/61 60/60/61 94/96/61 93/95/61
f 60/60/62 62/62/62 95/97/62 94/96/62
f 62/62/63 64/64/63 96/98/63 95/97/63
f 64/64/64 4/66/64 66/99/64 96/98/64
f 66/68/33 65/67/33 97/100/33 98/101/33
f 65/67/34 67/69/34 99/102/34 97/100/34
f 67/69/35 68/70/35 100/103/35 99/102/35
f 68/70/36 69/71/36 101/104/36 100/103/36
f 69/71/37 70/72/37 102/105/37 101/104/37
f 70/72/38 71/73/38 103/106/38 102/105/38
f 71/73/39 72/74/39 104/107/39 103/106/39
f 72/74/40 73/75/40 105/108/40 104/107/40
f 73/75/41 74/76/41 106/109/41 105/108/41
f 74/76/42 75/77/42 107/110/42 106/109/42
f 75/77/43 76/78/43 108/111/43 107/110/43
f 76/78/44 77/79/44 109/112/44 108/111/44
f 77/79/45 78/80/45 110/113/45 109/112/45
f 78/80/46 79/81/46 111/114/46 110/113/46
f 79/81/47 80/82/47 112/115/47 111/114/47
f 80/82/48 81/83/48 113/116/48 112/115/48
f 81/83/49 82/84/49 114/117/49 113/116/49
f 82/84/50 83/85/50 115/118/50 114/117/50
f 83/85/51 84/86/51 116/119/51 115/118/51
f 84/86/52 85/87/52 117/120/52 116/119/52
f 85/87/53 86/88/53 118/121/53 117/120/53
f 86/88/54 87/89/54 119/122/54 118/121/54
f 87/89/55 88/90/55 120/123/55 119/122/55
f 88/90/56 89/91/56 121/124/56 120/123/56
f 89/91/57 90/92/57 122/125/57 121/124/57
f 90/92/58 91/93/58 123/126/58 122/125/58
f 91/93/59 92/94/59 124/127/59 123/126/59
f 92/94/60 93/95/60 125/128/60 124/127/60
f 93/95/61 94/96/61 126/129/61 125/128/61
f 94/96/62 95/97/62 127/130/62 126/129/62
f 95/97/63 96/98/63 128/131/63 127/130/63
f 96/98/64 66/99/64 98/132/64 128/131/64
f 63/133/65 61/134/65 59/135/65 57/136/65 55/137/65 53/138/65 51/139/65 49/33/65 47/140/65 45/141/65 43/142/65 41/143/65 39/144/65 37/145/65 35/146/65 33/147/65 31/148/65 29/149/65 27/150/65 25/151/65 23/152/65 21/153/65 19/154/65 17/116/65 15/155/65 13/156/65 11/157/65 9/158/65 7/159/65 5/160/65 2/161/65 1/162/65
f 98/162/66 97/161/66 99/160/66 100/159/66 101/158/66 102/157/66 103/156/66 104/155/66 105/116/66 106/154/66 107/153/66 108/152/66 109/151/66 110/150/66 111/149/66 112/148/66 113/147/66 114/146/66 115/145/66 116/144/66 117/143/66 118/142/66 119/141/66 120/140/66 121/33/66 122/139/66 123/138/66 124/137/66 125/136/66 126/135/66 127/134/66 128/133/66
f 321/1/1 322/2/1 323/3/1 324/4/1
f 322/2/2 325/5/2 326/6/2 323/3/2
f 325/5/3 327/7/3 328/8/3 326/6/3
f 327/7/4 329/9/4 330/10/4 328/8/4
f 329/9/5 331/11/5 332/12/5 330/10/5
f 331/11/6 333/13/6 334/14/6 332/12/6
f 333/13/7 335/15/7 336/16/7 334/14/7
f 335/15/8 337/17/8 338/18/8 336/16/8
f 337/17/9 339/19/9 340/20/9 338/18/9
f 339/19/10 341/21/10 342/22/10 340/20/10
f 341/21/11 343/23/11 344/24/11 342/22/11
f 343/23/12 345/25/12 346/26/12 344/24/12
f 345/25/13 347/27/13 348/28/13 346/26/13
f 347/27/14 349/29/14 350/30/14 348/28/14
f 349/29/15 351/31/15 352/32/15 350/30/15
f 351/31/16 353/33/16 354/34/16 352/32/16
f 353/33/17 355/35/17 356/36/17 354/34/17
f 355/35/18 357/37/18 358/38/18 356/36/18
f 357/37/19 359/39/19 360/40/19 358/38/19
f 359/39/20 361/41/20 362/42/20 360/40/20
f 361/41/21 363/43/21 364/44/21 362/42/21
f 363/43/22 365/45/22 366/46/22 364/44/22
f 365/45/23 367/47/23 368/48/23 366/46/23
f 367/47/24 369/49/24 370/50/24 368/48/24
f 369/49/25 371/51/25 372/52/25 370/50/25
f 371/51/26 373/53/26 374/54/26 372/52/26
f 373/53/27 375/55/27 376/56/27 374/54/27
f 375/55/28 377/57/28 378/58/28 376/56/28
f 377/57/29 379/59/29 380/60/29 378/58/29
f 379/59/30 381/61/30 382/62/30 380/60/30
f 381/61/31 383/63/31 384/64/31 382/62/31
f 383/63/32 321/65/32 324/66/32 384/64/32
f 324/4/99 323/3/99 385/67/99 386/68/99
f 323/3/100 326/6/100 387/69/100 385/67/100
f 326/6/101 328/8/101 388/70/101 387/69/101
f 328/8/102 330/10/102 389/71/102 388/70/102
f 330/10/103 332/12/103 390/72/103 389/71/103
f 332/12/104 334/14/104 391/73/104 390/72/104
f 334/14/105 336/16/105 392/74/105 391/73/105
f 336/16/106 338/18/106 393/75/106 392/74/106
f 338/18/107 340/20/107 394/76/107 393/75/107
f 340/20/108 342/22/108 395/77/108 394/76/108
f 342/22/109 344/24/109 396/78/109 395/77/109
f 344/24/110 346/26/110 397/79/110 396/78/110
f 346/26/111 348/28/111 398/80/111 397/79/111
f 348/28/112 350/30/112 399/81/112 398/80/112
f 350/30/113 352/32/113 400/82/113 399/81/113
f 352/32/114 354/34/114 401/83/114 400/82/114
f 354/34/115 356/36/115 402/84/115 401/83/115
f 356/36/116 358/38/116 403/85/116 402/84/116
f 358/38/117 360/40/117 404/86/117 403/85/117
f 360/40/118 362/42/118 405/87/118 404/86/118
f 362/42/119 364/44/119 406/88/119 405/87/119
f 364/44/120 366/46/120 407/89/120 406/88/120
f 366/46/121 368/48/121 408/90/121 407/89/121
f 368/48/122 370/50/122 409/91/122 408/90/122
f 370/50/123 372/52/123 410/92/123 409/91/123
f 372/52/124 374/54/124 411/93/124 410/92/124
f 374/54/125 376/56/125 412/94/125 411/93/125
f 376/56/126 378/58/126 413/95/126 412/94/126
f 378/58/127 380/60/127 414/96/127 413/95/127
f 380/60/128 382/62/128 415/97/128 414/96/128
f 382/62/129 384/64/129 416/98/129 415/97/129
f 384/64/130 324/66/130 386/99/130 416/98/130
f 386/68/99 385/67/99 417/100/99 418/101/99
f 385/67/100 387/69/100 419/102/100 417/100/100
f 387/69/101 388/70/101 420/103/101 419/102/101
f 388/70/102 389/71/102 421/104/102 420/103/102
f 389/71/103 390/72/103 422/105/103 421/104/103
f 390/72/104 391/73/104 423/106/104 422/105/104
f 391/73/105 392/74/105 424/107/105 423/106/105
f 392/74/106 393/75/106 425/108/106 424/107/106
f 393/75/107 394/76/107 426/109/107 425/108/107
f 394/76/108 395/77/108 427/110/108 426/109/108
f 395/77/109 396/78/109 428/111/109 427/110/109
f 396/78/110 397/79/110 429/112/110 428/111/110
f 397/79/111 398/80/111 430/113/111 429/112/111
f 398/80/112 399/81/112 431/114/112 430/113/112
f 399/81/113 400/82/113 432/115/113 431/114/113
f 400/82/114 401/83/114 433/116/114 432/115/114
f 401/83/115 402/84/115 434/117/115 433/116/115
f 402/84/116 403/85/116 435/118/116 434/117/116
f 403/85/117 404/86/117 436/119/117 435/118/117
f 404/86/118 405/87/118 437/120/118 436/119/118
f 405/87/119 406/88/119 438/121/119 437/120/119
f 406/88/120 407/89/120 439/122/120 438/121/120
f 407/89/121 408/90/121 440/123/121 439/122/121
f 408/90/122 409/91/122 441/124/122 440/123/122
f 409/91/123 410/92/123 442/125/123 441/124/123
f 410/92/124 411/93/124 443/126/124 442/125/124
f 411/93/125 412/94/125 444/127/125 443/126/125
f 412/94/126 413/95/126 445/128/126 444/127/126
f 413/95/127 414/96/127 446/129/127 445/128/127
f 414/96/128 415/97/128 447/130/128 446/129/128
f 415/97/129 416/98/129 448/131/129 447/130/129
f 416/98/130 386/99/130 418/132/130 448/131/130
f 383/133/65 381/134/65 379/135/65 377/136/65 375/137/65 373/138/65 371/139/65 369/33/65 367/140/65 365/141/65 363/142/65 361/143/65 359/144/65 357/145/65 355/146/65 353/147/65 351/148/65 349/149/65 347/150/65 345/151/65 343/152/65 341/153/65 339/154/65 337/116/65 335/155/65 333/156/65 331/157/65 329/158/65 327/159/65 325/160/65 322/161/65 321/162/65
f 418/162/66 417/161/66 419/160/66 420/159/66 421/158/66 422/157/66 423/156/66 424/155/66 425/116/66 426/154/66 427/153/66 428/152/66 429/151/66 430/150/66 431/149/66 432/148/66 433/147/66 434/146/66 435/145/66 436/144/66 437/143/66 438/142/66 439/141/66 440/140/66 441/33/66 442/139/66 443/138/66 444/137/66 445/136/66 446/135/66 447/134/66 448/133/66
f 641/1/1 642/2/1 643/163/1 644/164/1
f 642/2/2 645/5/2 646/165/2 643/163/2
f 645/5/3 647/7/3 648/166/3 646/165/3
f 647/7/4 649/9/4 650/167/4 648/166/4
f 649/9/5 651/11/5 652/168/5 650/167/5
f 651/11/6 653/13/6 654/169/6 652/168/6
f 653/13/7 655/15/7 656/170/7 654/169/7
f 655/15/8 657/17/8 658/171/8 656/170/8
f 657/17/9 659/19/9 660/172/9 658/171/9
f 659/19/10 661/21/10 662/173/10 660/172/10
f 661/21/11 663/23/11 664/174/11 662/173/11
f 663/23/12 665/25/12 666/175/12 664/174/12
f 665/25/13 667/27/13 668/176/13 666/175/13
f 667/27/14 669/29/14 670/177/14 668/176/14
f 669/29/15 671/31/15 672/178/15 670/177/15
f 671/31/16 673/33/16 674/179/16 672/178/16
f 673/33/17 675/35/17 676/180/17 674/179/17
f 675/35/18 677/37/18 678/181/18 676/180/18
f 677/37/19 679/39/19 680/182/19 678/181/19
f 679/39/20 681/41/20 682/183/20 680/182/20
f 681/41/21 683/43/21 684/184/21 682/183/21
f 683/43/22 685/45/22 686/185/22 684/184/22
f 685/45/23 687/47/23 688/186/23 686/185/23
f 687/47/24 689/49/24 690/187/24 688/186/24
f 689/49/25 691/51/25 692/188/25 690/187/25
f 691/51/26 693/53/26 694/189/26 692/188/26
f 693/53/27 695/55/27 696/190/27 694/189/27
f 695/55/28 697/57/28 698/191/28 696/190/28
f 697/57/29 699/59/29 700/192/29 698/191/29
f 699/59/30 701/61/30 702/193/30 700/192/30
f 701/61/31 703/63/31 704/194/31 702/193/31
f 703/63/32 641/65/32 644/195/32 704/194/32
f 644/164/131 643/163/131 705/196/131 706/197/131
f 643/163/132 646/165/132 707/198/132 705/196/132
f 646/165/133 648/166/133 708/199/133 707/198/133
f 648/166/134 650/167/134 709/200/134 708/199/134
f 650/167/135 652/168/135 710/201/135 709/200/135
f 652/168/136 654/169/136 711/202/136 710/201/136
f 654/169/137 656/170/137 712/203/137 711/202/137
f 656/170/138 658/171/138 713/204/138 712/203/138
f 658/171/139 660/172/139 714/205/139 713/204/139
f 660/172/140 662/173/140 715/206/140 714/205/140
f 662/173/141 664/174/141 716/207/141 715/206/141
f 664/174/142 666/175/142 717/208/142 716/207/142
f 666/175/143 668/176/143 718/209/143 717/208/143
f 668/176/144 670/177/144 719/210/144 718/209/144
f 670/177/145 672/178/145 720/211/145 719/210/145
f 672/178/146 674/179/146 721/212/146 720/211/146
f 674/179/147 676/180/147 722/213/147 721/212/147
f 676/180/148 678/181/148 723/214/148 722/213/148
f 678/181/149 680/182/149 724/215/149 723/214/149
f 680/182/150 682/183/150 725/216/150 724/215/150
f 682/183/151 684/184/151 726/217/151 725/216/151
f 684/184/152 686/185/152 727/218/152 726/217/152
f 686/185/153 688/186/153 728/219/153 727/218/153
f 688/186/154 690/187/154 729/220/154 728/219/154
f 690/187/155 692/188/155 730/221/155 729/220/155
f 692/188/156 694/189/156 731/222/156 730/221/156
f 694/189/157 696/190/157 732/223/157 731/222/157
f 696/190/158 698/191/158 733/224/158 732/223/158
f 698/191/159 700/192/159 734/225/159 733/224/159
f 700/192/160 702/193/160 735/226/160 734/225/160
f 702/193/161 704/194/161 736/227/161 735/226/161
f 704/194/162 644/195/162 706/228/162 736/227/162
f 706/197/131 705/196/131 737/100/131 738/101/131
f 705/196/132 707/198/132 739/102/132 737/100/132
f 707/198/133 708/199/133 740/103/133 739/102/133
f 708/199/134 709/200/134 741/104/134 740/103/134
f 709/200/135 710/201/135 742/105/135 741/104/135
f 710/201/136 711/202/136 743/106/136 742/105/136
f 711/202/137 712/203/137 744/107/137 743/106/137
f 712/203/138 713/204/138 745/108/138 744/107/138
f 713/204/139 714/205/139 746/109/139 745/108/139
f 714/205/140 715/206/140 747/110/140 746/109/140
f 715/206/141 716/207/141 748/111/141 747/110/141
f 716/207/142 717/208/142 749/112/142 748/111/142
f 717/208/143 718/209/143 750/113/143 749/112/143
f 718/209/144 719/210/144 751/114/144 750/113/144
f 719/210/145 720/211/145 752/115/145 751/114/145
f 720/211/146 721/212/146 753/116/146 752/115/146
f 721/212/147 722/213/147 754/117/147 753/116/147
f 722/213/148 723/214/148 755/118/148 754/117/148
f 723/214/149 724/215/149 756/119/149 755/118/149
f 724/215/150 725/216/150 757/120/150 756/119/150
f 725/216/151 726/217/151 758/121/151 757/120/151
f 726/217/152 727/218/152 759/122/152 758/121/152
f 727/218/153 728/219/153 760/123/153 759/122/153
f 728/219/154 729/220/154 761/124/154 760/123/154
f 729/220/155 730/221/155 762/125/155 761/124/155
f 730/221/156 731/222/156 763/126/156 762/125/156
f 731/222/157 732/223/157 764/127/157 763/126/157
f 732/223/158 733/224/158 765/128/158 764/127/158
f 733/224/159 734/225/159 766/129/159 765/128/159
f 734/225/160 735/226/160 767/130/160 766/129/160
f 735/226/161 736/227/161 768/131/161 767/130/161
f 736/227/162 706/228/162 738/132/162 768/131/162
f 703/133/65 701/134/65 699/135/65 697/136/65 695/137/65 693/138/65 691/139/65 689/33/65 687/140/65 685/141/65 683/142/65 681/143/65 679/144/65 677/145/65 675/146/65 673/147/65 671/148/65 669/149/65 667/150/65 665/151/65 663/152/65 661/153/65 659/154/65 657/116/65 655/155/65 653/156/65 651/157/65 649/158/65 647/159/65 645/160/65 642/161/65 641/162/65
f 738/162/66 737/161/66 739/160/66 740/159/66 741/158/66 742/157/66 743/156/66 744/155/66 745/116/66 746/154/66 747/153/66 748/152/66 749/151/66 750/150/66 751/149/66 752/148/66 753/147/66 754/146/66 755/145/66 756/144/66 757/143/66 758/142/66 759/141/66 760/140/66 761/33/66 762/139/66 763/138/66 764/137/66 765/136/66 766/135/66 767/134/66 768/133/66
f 961/1/1 962/2/1 963/163/1 964/164/1
f 962/2/2 965/5/2 966/165/2 963/163/2
f 965/5/3 967/7/3 968/166/3 966/165/3
f 967/7/4 969/9/4 970/167/4 968/166/4
f 969/9/5 971/11/5 972/168/5 970/167/5
f 971/11/6 973/13/6 974/169/6 972/168/6
f 973/13/7 975/15/7 976/170/7 974/169/7
f 975/15/8 977/17/8 978/171/8 976/170/8
f 977/17/9 979/19/9 980/172/9 978/171/9
f 979/19/10 981/21/10 982/173/10 980/172/10
f 981/21/11 983/23/11 984/174/11 982/173/11
f 983/23/12 985/25/12 986/175/12 984/174/12
f 985/25/13 987/27/13 988/176/13 986/175/13
f 987/27/14 989/29/14 990/177/14 988/176/14
f 989/29/15 991/31/15 992/178/15 990/177/15
f 991/31/16 993/33/16 994/179/16 992/178/16
f 993/33/17 995/35/17 996/180/17 994/179/17
f 995/35/18 997/37/18 998/181/18 996/180/18
f 997/37/19 999/39/19 1000/182/19 998/181/19
f 999/39/20 1001/41/20 1002/183/20 1000/182/20
f 1001/41/21 1003/43/21 1004/184/21 1002/183/21
f 1003/43/22 1005/45/22 1006/185/22 1004/184/22
f 1005/45/23 1007/47/23 1008/186/23 1006/185/23
f 1007/47/24 1009/49/24 1010/187/24 1008/186/24
f 1009/49/25 1011/51/25 1012/188/25 1010/187/25
f 1011/51/26 1013/53/26 1014/189/26 1012/188/26
f 1013/53/27 1015/55/27 1016/190/27 1014/189/27
f 1015/55/28 1017/57/28 1018/191/28 1016/190/28
f 1017/57/29 1019/59/29 1020/192/29 1018/191/29
f 1019/59/30 1021/61/30 1022/193/30 1020/192/30
f 1021/61/31 1023/63/31 1024/194/31 1022/193/31
f 1023/63/32 961/65/32 964/195/32 1024/194/32
f 964/164/163 963/163/163 1025/196/163 1026/197/163
f 963/163/164 966/165/164 1027/198/164 1025/196/164
f 966/165/165 968/166/165 1028/199/165 1027/198/165
f 968/166/166 970/167/166 1029/200/166 1028/199/166
f 970/167/167 972/168/167 1030/201/167 1029/200/167
f 972/168/168 974/169/168 1031/202/168 1030/201/168
f 974/169/169 976/170/169 1032/203/169 1031/202/169
f 976/170/170 978/171/170 1033/204/170 1032/203/170
f 978/171/171 980/172/171 1034/205/171 1033/204/171
f 980/172/172 982/173/172 1035/206/172 1034/205/172
f 982/173/173 984/174/173 1036/207/173 1035/206/173
f 984/174/174 986/175/174 1037/208/174 1036/207/174
f 986/175/175 988/176/175 1038/209/175 1037/208/175
f 988/176/176 990/177/176 1039/210/176 1038/209/176
f 990/177/177 992/178/177 1040/211/177 1039/210/177
f 992/178/178 994/179/178 1041/212/178 1040/211/178
f 994/179/179 996/180/179 1042/213/179 1041/212/179
f 996/180/180 998/181/180 1043/214/180 1042/213/180
f 998/181/181 1000/182/181 1044/215/181 1043/214/181
f 1000/182/182 1002/183/182 1045/216/182 1044/215/182
f 1002/183/183 1004/184/183 1046/217/183 1045/216/183
f 1004/184/184 1006/185/184 1047/218/184 1046/217/184
f 1006/185/185 1008/186/185 1048/219/185 1047/218/185
f 1008/186/186 1010/187/186 1049/220/186 1048/219/186
f 1010/187/187 1012/188/187 1050/221/187 1049/220/187
f 1012/188/188 1014/189/188 1051/222/188 1050/221/188
f 1014/189/189 1016/190/189 1052/223/189 1051/222/189
f 1016/190/190 1018/191/190 1053/224/190 1052/223/190
f 1018/191/191 1020/192/191 1054/225/191 1053/224/191
f 1020/192/192 1022/193/192 1055/226/192 1054/225/192
f 1022/193/193 1024/194/193 1056/227/193 1055/226/193
f 1024/194/194 964/195/194 1026/228/194 1056/227/194
f 1026/197/163 1025/196/163 1057/100/163 1058/101/163
f 1025/196/164 1027/198/164 1059/102/164 1057/100/164
f 1027/198/165 1028/199/165 1060/103/165 1059/102/165
f 1028/199/166 1029/200/166 1061/104/166 1060/103/166
f 1029/200/167 1030/201/167 1062/105/167 1061/104/167
f 1030/201/168 1031/202/168 1063/106/168 1062/105/168
f 1031/202/169 1032/203/169 1064/107/169 1063/106/169
f 1032/203/170 1033/204/170 1065/108/170 1064/107/170
f 1033/204/171 1034/205/171 1066/109/171 1065/108/171
f 1034/205/172 1035/206/172 1067/110/172 1066/109/172
f 1035/206/173 1036/207/173 1068/111/173 1067/110/173
f 1036/207/174 1037/208/174 1069/112/174 1068/111/174
f 1037/208/175 1038/209/175 1070/113/175 1069/112/175
f 1038/209/176 1039/210/176 1071/114/176 1070/113/176
f 1039/210/177 1040/211/177 1072/115/177 1071/114/177
f 1040/211/178 1041/212/178 1073/116/178 1072/115/178
f 1041/212/179 1042/213/179 1074/117/179 1073/116/179
f 1042/213/180 1043/214/180 1075/118/180 1074/117/180
f 1043/214/181 1044/215/181 1076/119/181 1075/118/181
f 1044/215/182 1045/216/182 1077/120/182 1076/119/182
f 1045/216/183 1046/217/183 1078/121/183 1077/120/183
f 1046/217/184 1047/218/184 1079/122/184 1078/121/184
f 1047/218/185 1048/219/185 1080/123/185 1079/122/185
f 1048/219/186 1049/220/186 1081/124/186 1080/123/186
f 1049/220/187 1050/221/187 1082/125/187 1081/124/187
f 1050/221/188 1051/222/188 1083/126/188 1082/125/188
f 1051/222/189 1052/223/189 1084/127/189 1083/126/189
f 1052/223/190 1053/224/190 1085/128/190 1084/127/190
f 1053/224/191 1054/225/191 1086/129/191 1085/128/191
f 1054/225/192 1055/226/192 1087/130/192 1086/129/192
f 1055/226/193 1056/227/193 1088/131/193 1087/130/193
f 1056/227/194 1026/228/194 1058/132/194 1088/131/194
f 1023/133/65 1021/134/65 1019/135/65 1017/136/65 1015/137/65 1013/138/65 1011/139/65 1009/33/65 1007/140/65 1005/141/65 1003/142/65 1001/143/65 999/144/65 997/145/65 995/146/65 993/147/65 991/148/65 989/149/65 987/150/65 985/151/65 983/152/65 981/153/65 979/154/65 977/116/65 975/155/65 973/156/65 971/157/65 969/158/65 967/159/65 965/160/65 962/161/65 961/162/65
f 1058/162/66 1057/161/66 1059/160/66 1060/159/66 1061/158/66 1062/157/66 1063/156/66 1064/155/66 1065/116/66 1066/154/66 1067/153/66 1068/152/66 1069/151/66 1070/150/66 1071/149/66 1072/148/66 1073/147/66 1074/146/66 1075/145/66 1076/144/66 1077/143/66 1078/142/66 1079/141/66 1080/140/66 1081/33/66 1082/139/66 1083/138/66 1084/137/66 1085/136/66 1086/135/66 1087/134/66 1088/133/66
o clamp
usemtl fitting
f 129/1/67 130/2/67 131/100/67 132/101/67
f 130/2/68 133/5/68 134/102/68 131/100/68
f 133/5/69 135/7/69 136/103/69 134/102/69
f 135/7/70 137/9/70 138/104/70 136/103/70
f 137/9/71 139/11/71 140/105/71 138/104/71
f 139/11/72 141/13/72 142/106/72 140/105/72
f 141/13/73 143/15/73 144/107/73 142/106/73
f 143/15/74 145/17/74 146/108/74 144/107/74
f 145/17/75 147/19/75 148/109/75 146/108/75
f 147/19/76 149/21/76 150/110/76 148/109/76
f 149/21/77 151/23/77 152/111/77 150/110/77
f 151/23/78 153/25/78 154/112/78 152/111/78
f 153/25/79 155/27/79 156/113/79 154/112/79
f 155/27/80 157/29/80 158/114/80 156/113/80
f 157/29/81 159/31/81 160/115/81 158/114/81
f 159/31/82 161/33/82 162/116/82 160/115/82
f 161/33/83 163/35/83 164/117/83 162/116/83
f 163/35/84 165/37/84 166/118/84 164/117/84
f 165/37/85 167/39/85 168/119/85 166/118/85
f 167/39/86 169/41/86 170/120/86 168/119/86
f 169/41/87 171/43/87 172/121/87 170/120/87
f 171/43/88 173/45/88 174/122/88 172/121/88
f 173/45/89 175/47/89 176/123/89 174/122/89
f 175/47/90 177/49/90 178/124/90 176/123/90
f 177/49/91 179/51/91 180/125/91 178/124/91
f 179/51/92 181/53/92 182/126/92 180/125/92
f 181/53/93 183/55/93 184/127/93 182/126/93
f 183/55/94 185/57/94 186/128/94 184/127/94
f 185/57/95 187/59/95 188/129/95 186/128/95
f 187/59/96 189/61/96 190/130/96 188/129/96
f 189/61/97 191/63/97 192/131/97 190/130/97
f 191/63/98 129/65/98 132/132/98 192/131/98
f 193/1/67 194/2/67 195/100/67 196/101/67
f 194/2/68 197/5/68 198/102/68 195/100/68
f 197/5/69 199/7/69 200/103/69 198/102/69
f 199/7/70 201/9/70 202/104/70 200/103/70
f 201/9/71 203/11/71 204/105/71 202/104/71
f 203/11/72 205/13/72 206/106/72 204/105/72
f 205/13/73 207/15/73 208/107/73 206/106/73
f 207/15/74 209/17/74 210/108/74 208/107/74
f 209/17/75 211/19/75 212/109/75 210/108/75
f 211/19/76 213/21/76 214/110/76 212/109/76
f 213/21/77 215/23/77 216/111/77 214/110/77
f 215/23/78 217/25/78 218/112/78 216/111/78
f 217/25/79 219/27/79 220/113/79 218/112/79
f 219/27/80 221/29/80 222/114/80 220/113/80
f 221/29/81 223/31/81 224/115/81 222/114/81
f 223/31/82 225/33/82 226/116/82 224/115/82
f 225/33/83 227/35/83 228/117/83 226/116/83
f 227/35/84 229/37/84 230/118/84 228/117/84
f 229/37/85 231/39/85 232/119/85 230/118/85
f 231/39/86 233/41/86 234/120/86 232/119/86
f 233/41/87 235/43/87 236/121/87 234/120/87
f 235/43/88 237/45/88 238/122/88 236/121/88
f 237/45/89 239/47/89 240/123/89 238/122/89
f 239/47/90 241/49/90 242/124/90 240/123/90
f 241/49/91 243/51/91 244/125/91 242/124/91
f 243/51/92 245/53/92 246/126/92 244/125/92
f 245/53/93 247/55/93 248/127/93 246/126/93
f 247/55/94 249/57/94 250/128/94 248/127/94
f 249/57/95 251/59/95 252/129/95 250/128/95
f 251/59/96 253/61/96 254/130/96 252/129/96
f 253/61/97 255/63/97 256/131/97 254/130/97
f 255/63/98 193/65/98 196/132/98 256/131/98
f 257/1/67 258/2/67 259/100/67 260/101/67
f 258/2/68 261/5/68 262/102/68 259/100/68
f 261/5/69 263/7/69 264/103/69 262/102/69
f 263/7/70 265/9/70 266/104/70 264/103/70
f 265/9/71 267/11/71 268/105/71 266/104/71
f 267/11/72 269/13/72 270/106/72 268/105/72
f 269/13/73 271/15/73 272/107/73 270/106/73
f 271/15/74 273/17/74 274/108/74 272/107/74
f 273/17/75 275/19/75 276/109/75 274/108/75
f 275/19/76 277/21/76 278/110/76 276/109/76
f 277/21/77 279/23/77 280/111/77 278/110/77
f 279/23/78 281/25/78 282/112/78 280/111/78
f 281/25/79 283/27/79 284/113/79 282/112/79
f 283/27/80 285/29/80 286/114/80 284/113/80
f 285/29/81 287/31/81 288/115/81 286/114/81
f 287/31/82 289/33/82 290/116/82 288/115/82
f 289/33/83 291/35/83 292/117/83 290/116/83
f 291/35/84 293/37/84 294/118/84 292/117/84
f 293/37/85 295/39/85 296/119/85 294/118/85
f 295/39/86 297/41/86 298/120/86 296/119/86
f 297/41/87 299/43/87 300/121/87 298/120/87
f 299/43/88 301/45/88 302/122/88 300/121/88
f 301/45/89 303/47/89 304/123/89 302/122/89
f 303/47/90 305/49/90 306/124/90 304/123/90
f 305/49/91 307/51/91 308/125/91 306/124/91
f 307/51/92 309/53/92 310/126/92 308/125/92
f 309/53/93 311/55/93 312/127/93 310/126/93
f 311/55/94 313/57/94 314/128/94 312/127/94
f 313/57/95 315/59/95 316/129/95 314/128/95
f 315/59/96 317/61/96 318/130/96 316/129/96
f 317/61/97 319/63/97 320/131/97 318/130/97
f 319/63/98 257/65/98 260/132/98 320/131/98
f 260/162/66 259/161/66 262/160/66 264/159/66
f 260/162/66 264/159/66 266/158/66 268/157/66
f 260/162/66 268/157/66 270/156/66 272/155/66
f 260/162/66 272/155/66 274/116/66 276/154/66
f 260/162/66 276/154/66 278/153/66 280/152/66
f 260/162/66 280/152/66 282/151/66 284/150/66
f 260/162/66 284/150/66 286/149/66 288/148/66
f 260/162/66 288/148/66 290/147/66 292/146/66
f 260/162/66 292/146/66 294/145/66 296/144/66
f 260/162/66 296/144/66 298/143/66 300/142/66
f 260/162/66 300/142/66 302/141/66 304/140/66
f 260/162/66 304/140/66 306/33/66 308/139/66
f 260/162/66 308/139/66 310/138/66 312/137/66
f 260/162/66 312/137/66 314/136/66 316/135/66
f 260/162/66 316/135/66 318/134/66 320/133/66
f 449/1/67 450/2/67 451/100/67 452/101/67
f 450/2/68 453/5/68 454/102/68 451/100/68
f 453/5/69 455/7/69 456/103/69 454/102/69
f 455/7/70 457/9/70 458/104/70 456/103/70
f 457/9/71 459/11/71 460/105/71 458/104/71
f 459/11/72 461/13/72 462/106/72 460/105/72
f 461/13/73 463/15/73 464/107/73 462/106/73
f 463/15/74 465/17/74 466/108/74 464/107/74
f 465/17/75 467/19/75 468/109/75 466/108/75
f 467/19/76 469/21/76 470/110/76 468/109/76
f 469/21/77 471/23/77 472/111/77 470/110/77
f 471/23/78 473/25/78 474/112/78 472/111/78
f 473/25/79 475/27/79 476/113/79 474/112/79
f 475/27/80 477/29/80 478/114/80 476/113/80
f 477/29/81 479/31/81 480/115/81 478/114/81
f 479/31/82 481/33/82 482/116/82 480/115/82
f 481/33/83 483/35/83 484/117/83 482/116/83
f 483/35/84 485/37/84 486/118/84 484/117/84
f 485/37/85 487/39/85 488/119/85 486/118/85
f 487/39/86 489/41/86 490/120/86 488/119/86
f 489/41/87 491/43/87 492/121/87 490/120/87
f 491/43/88 493/45/88 494/122/88 492/121/88
f 493/45/89 495/47/89 496/123/89 494/122/89
f 495/47/90 497/49/90 498/124/90 496/123/90
f 497/49/91 499/51/91 500/125/91 498/124/91
f 499/51/92 501/53/92 502/126/92 500/125/92
f 501/53/93 503/55/93 504/127/93 502/126/93
f 503/55/94 505/57/94 506/128/94 504/127/94
f 505/57/95 507/59/95 508/129/95 506/128/95
f 507/59/96 509/61/96 510/130/96 508/129/96
f 509/61/97 511/63/97 512/131/97 510/130/97
f 511/63/98 449/65/98 452/132/98 512/131/98
f 513/1/67 514/2/67 515/100/67 516/101/67
f 514/2/68 517/5/68 518/102/68 515/100/68
f 517/5/69 519/7/69 520/103/69 518/102/69
f 519/7/70 521/9/70 522/104/70 520/103/70
f 521/9/71 523/11/71 524/105/71 522/104/71
f 523/11/72 525/13/72 526/106/72 524/105/72
f 525/13/73 527/15/73 528/107/73 526/106/73
f 527/15/74 529/17/74 530/108/74 528/107/74
f 529/17/75 531/19/75 532/109/75 530/108/75
f 531/19/76 533/21/76 534/110/76 532/109/76
f 533/21/77 535/23/77 536/111/77 534/110/77
f 535/23/78 537/25/78 538/112/78 536/111/78
f 537/25/79 539/27/79 540/113/79 538/112/79
f 539/27/80 541/29/80 542/114/80 540/113/80
f 541/29/81 543/31/81 544/115/81 542/114/81
f 543/31/82 545/33/82 546/116/82 544/115/82
f 545/33/83 547/35/83 548/117/83 546/116/83
f 547/35/84 549/37/84 550/118/84 548/117/84
f 549/37/85 551/39/85 552/119/85 550/118/85
f 551/39/86 553/41/86 554/120/86 552/119/86
f 553/41/87 555/43/87 556/121/87 554/120/87
f 555/43/88 557/45/88 558/122/88 556/121/88
f 557/45/89 559/47/89 560/123/89 558/122/89
f 559/47/90 561/49/90 562/124/90 560/123/90
f 561/49/91 563/51/91 564/125/91 562/124/91
f 563/51/92 565/53/92 566/126/92 564/125/92
f 565/53/93 567/55/93 568/127/93 566/126/93
f 567/55/94 569/57/94 570/128/94 568/127/94
f 569/57/95 571/59/95 572/129/95 570/128/95
f 571/59/96 573/61/96 574/130/96 572/129/96
f 573/61/97 575/63/97 576/131/97 574/130/97
f 575/63/98 513/65/98 516/132/98 576/131/98
f 577/1/67 578/2/67 579/100/67 580/101/67
f 578/2/68 581/5/68 582/102/68 579/100/68
f 581/5/69 583/7/69 584/103/69 582/102/69
f 583/7/70 585/9/70 586/104/70 584/103/70
f 585/9/71 587/11/71 588/105/71 586/104/71
f 587/11/72 589/13/72 590/106/72 588/105/72
f 589/13/73 591/15/73 592/107/73 590/106/73
f 591/15/74 593/17/74 594/108/74 592/107/74
f 593/17/75 595/19/75 596/109/75 594/108/75
f 595/19/76 597/21/76 598/110/76 596/109/76
f 597/21/77 599/23/77 600/111/77 598/110/77
f 599/23/78 601/25/78 602/112/78 600/111/78
f 601/25/79 603/27/79 604/113/79 602/112/79
f 603/27/80 605/29/80 606/114/80 604/113/80
f 605/29/81 607/31/81 608/115/81 606/114/81
f 607/31/82 609/33/82 610/116/82 608/115/82
f 609/33/83 611/35/83 612/117/83 610/116/83
f 611/35/84 613/37/84 614/118/84 612/117/84
f 613/37/85 615/39/85 616/119/85 614/118/85
f 615/39/86 617/41/86 618/120/86 616/119/86
f 617/41/87 619/43/87 620/121/87 618/120/87
f 619/43/88 621/45/88 622/122/88 620/121/88
f 621/45/89 623/47/89 624/123/89 622/122/89
f 623/47/90 625/49/90 626/124/90 624/123/90
f 625/49/91 627/51/91 628/125/91 626/124/91
f 627/51/92 629/53/92 630/126/92 628/125/92
f 629/53/93 631/55/93 632/127/93 630/126/93
f 631/55/94 633/57/94 634/128/94 632/127/94
f 633/57/95 635/59/95 636/129/95 634/128/95
f 635/59/96 637/61/96 638/130/96 636/129/96
f 637/61/97 639/63/97 640/131/97 638/130/97
f 639/63/98 577/65/98 580/132/98 640/131/98
f 580/162/66 579/161/66 582/160/66 584/159/66
f 580/162/66 584/159/66 586/158/66 588/157/66
f 580/162/66 588/157/66 590/156/66 592/155/66
f 580/162/66 592/155/66 594/116/66 596/154/66
f 580/162/66 596/154/66 598/153/66 600/152/66
f 580/162/66 600/152/66 602/151/66 604/150/66
f 580/162/66 604/150/66 606/149/66 608/148/66
f 580/162/66 608/148/66 610/147/66 612/146/66
f 580/162/66 612/146/66 614/145/66 616/144/66
f 580/162/66 616/144/66 618/143/66 620/142/66
f 580/162/66 620/142/66 622/141/66 624/140/66
f 580/162/66 624/140/66 626/33/66 628/139/66
f 580/162/66 628/139/66 630/138/66 632/137/66
f 580/162/66 632/137/66 634/136/66 636/135/66
f 580/162/66 636/135/66 638/134/66 640/133/66
f 769/1/67 770/2/67 771/100/67 772/101/67
f 770/2/68 773/5/68 774/102/68 771/100/68
f 773/5/69 775/7/69 776/103/69 774/102/69
f 775/7/70 777/9/70 778/104/70 776/103/70
f 777/9/71 779/11/71 780/105/71 778/104/71
f 779/11/72 781/13/72 782/106/72 780/105/72
f 781/13/73 783/15/73 784/107/73 782/106/73
f 783/15/74 785/17/74 786/108/74 784/107/74
f 785/17/75 787/19/75 788/109/75 786/108/75
f 787/19/76 789/21/76 790/110/76 788/109/76
f 789/21/77 791/23/77 792/111/77 790/110/77
f 791/23/78 793/25/78 794/112/78 792/111/78
f 793/25/79 795/27/79 796/113/79 794/112/79
f 795/27/80 797/29/80 798/114/80 796/113/80
f 797/29/81 799/31/81 800/115/81 798/114/81
f 799/31/82 801/33/82 802/116/82 800/115/82
f 801/33/83 803/35/83 804/117/83 802/116/83
f 803/35/84 805/37/84 806/118/84 804/117/84
f 805/37/85 807/39/85 808/119/85 806/118/85
f 807/39/86 809/41/86 810/120/86 808/119/86
f 809/41/87 811/43/87 812/121/87 810/120/87
f 811/43/88 813/45/88 814/122/88 812/121/88
f 813/45/89 815/47/89 816/123/89 814/122/89
f 815/47/90 817/49/90 818/124/90 816/123/90
f 817/49/91 819/51/91 820/125/91 818/124/91
f 819/51/92 821/53/92 822/126/92 820/125/92
f 821/53/93 823/55/93 824/127/93 822/126/93
f 823/55/94 825/57/94 826/128/94 824/127/94
f 825/57/95 827/59/95 828/129/95 826/128/95
f 827/59/96 829/61/96 830/130/96 828/129/96
f 829/61/97 831/63/97 832/131/97 830/130/97
f 831/63/98 769/65/98 772/132/98 832/131/98
f 833/1/67 834/2/67 835/100/67 836/101/67
f 834/2/68 837/5/68 838/102/68 835/100/68
f 837/5/69 839/7/69 840/103/69 838/102/69
f 839/7/70 841/9/70 842/104/70 840/103/70
f 841/9/71 843/11/71 844/105/71 842/104/71
f 843/11/72 845/13/72 846/106/72 844/105/72
f 845/13/73 847/15/73 848/107/73 846/106/73
f 847/15/74 849/17/74 850/108/74 848/107/74
f 849/17/75 851/19/75 852/109/75 850/108/75
f 851/19/76 853/21/76 854/110/76 852/109/76
f 853/21/77 855/23/77 856/111/77 854/110/77
f 855/23/78 857/25/78 858/112/78 856/111/78
f 857/25/79 859/27/79 860/113/79 858/112/79
f 859/27/80 861/29/80 862/114/80 860/113/80
f 861/29/81 863/31/81 864/115/81 862/114/81
f 863/31/82 865/33/82 866/116/82 864/115/82
f 865/33/83 867/35/83 868/117/83 866/116/83
f 867/35/84 869/37/84 870/118/84 868/117/84
f 869/37/85 871/39/85 872/119/85 870/118/85
f 871/39/86 873/41/86 874/120/86 872/119/86
f 873/41/87 875/43/87 876/121/87 874/120/87
f 875/43/88 877/45/88 878/122/88 876/121/88
f 877/45/89 879/47/89 880/123/89 878/122/89
f 879/47/90 881/49/90 882/124/90 880/123/90
f 881/49/91 883/51/91 884/125/91 882/124/91
f 883/51/92 885/53/92 886/126/92 884/125/92
f 885/53/93 887/55/93 888/127/93 886/126/93
f 887/55/94 889/57/94 890/128/94 888/127/94
f 889/57/95 891/59/95 892/129/95 890/128/95
f 891/59/96 893/61/96 894/130/96 892/129/96
f 893/61/97 895/63/97 896/131/97 894/130/97
f 895/63/98 833/65/98 836/132/98 896/131/98
f 897/1/67 898/2/67 899/100/67 900/101/67
f 898/2/68 901/5/68 902/102/68 899/100/68
f 901/5/69 903/7/69 904/103/69 902/102/69
f 903/7/70 905/9/70 906/104/70 904/103/70
f 905/9/71 907/11/71 908/105/71 906/104/71
f 907/11/72 909/13/72 910/106/72 908/105/72
f 909/13/73 911/15/73 912/107/73 910/106/73
f 911/15/74 913/17/74 914/108/74 912/107/74
f 913/17/75 915/19/75 916/109/75 914/108/75
f 915/19/76 917/21/76 918/110/76 916/109/76
f 917/21/77 919/23/77 920/111/77 918/110/77
f 919/23/78 921/25/78 922/112/78 920/111/78
f 921/25/79 923/27/79 924/113/79 922/112/79
f 923/27/80 925/29/80 926/114/80 924/113/80
f 925/29/81 927/31/81 928/115/81 926/114/81
f 927/31/82 929/33/82 930/116/82 928/115/82
f 929/33/83 931/35/83 932/117/83 930/116/83
f 931/35/84 933/37/84 934/118/84 932/117/84
f 933/37/85 935/39/85 936/119/85 934/118/85
f 935/39/86 937/41/86 938/120/86 936/119/86
f 937/41/87 939/43/87 940/121/87 938/120/87
f 939/43/88 941/45/88 942/122/88 940/121/88
f 941/45/89 943/47/89 944/123/89 942/122/89
f 943/47/90 945/49/90 946/124/90 944/123/90
f 945/49/91 947/51/91 948/125/91 946/124/91
f 947/51/92 949/53/92 950/126/92 948/125/92
f 949/53/93 951/55/93 952/127/93 950/126/93
f 951/55/94 953/57/94 954/128/94 952/127/94
f 953/57/95 955/59/95 956/129/95 954/128/95
f 955/59/96 957/61/96 958/130/96 956/129/96
f 957/61/97 959/63/97 960/131/97 958/130/97
f 959/63/98 897/65/98 900/132/98 960/131/98
f 900/162/66 899/161/66 902/160/66 904/159/66
f 900/162/66 904/159/66 906/158/66 908/157/66
f 900/162/66 908/157/66 910/156/66 912/155/66
f 900/162/66 912/155/66 914/116/66 916/154/66
f 900/162/66 916/154/66 918/153/66 920/152/66
f 900/162/66 920/152/66 922/151/66 924/150/66
f 900/162/66 924/150/66 926/149/66 928/148/66
f 900/162/66 928/148/66 930/147/66 932/146/66
f 900/162/66 932/146/66 934/145/66 936/144/66
f 900/162/66 936/144/66 938/143/66 940/142/66
f 900/162/66 940/142/66 942/141/66 944/140/66
f 900/162/66 944/140/66 946/33/66 948/139/66
f 900/162/66 948/139/66 950/138/66 952/137/66
f 900/162/66 952/137/66 954/136/66 956/135/66
f 900/162/66 956/135/66 958/134/66 960/133/66
f 1089/1/67 1090/2/67 1091/100/67 1092/101/67
f 1090/2/68 1093/5/68 1094/102/68 1091/100/68
f 1093/5/69 1095/7/69 1096/103/69 1094/102/69
f 1095/7/70 1097/9/70 1098/104/70 1096/103/70
f 1097/9/71 1099/11/71 1100/105/71 1098/104/71
f 1099/11/72 1101/13/72 1102/106/72 1100/105/72
f 1101/13/73 1103/15/73 1104/107/73 1102/106/73
f 1103/15/74 1105/17/74 1106/108/74 1104/107/74
f 1105/17/75 1107/19/75 1108/109/75 1106/108/75
f 1107/19/76 1109/21/76 1110/110/76 1108/109/76
f 1109/21/77 1111/23/77 1112/111/77 1110/110/77
f 1111/23/78 1113/25/78 1114/112/78 1112/111/78
f 1113/25/79 1115/27/79 1116/113/79 1114/112/79
f 1115/27/80 1117/29/80 1118/114/80 1116/113/80
f 1117/29/81 1119/31/81 1120/115/81 1118/114/81
f 1119/31/82 1121/33/82 1122/116/82 1120/115/82
f 1121/33/83 1123/35/83 1124/117/83 1122/116/83
f 1123/35/84 1125/37/84 1126/118/84 1124/117/84
f 1125/37/85 1127/39/85 1128/119/85 1126/118/85
f 1127/39/86 1129/41/86 1130/120/86 1128/119/86
f 1129/41/87 1131/43/87 1132/121/87 1130/120/87
f 1131/43/88 1133/45/88 1134/122/88 1132/121/88
f 1133/45/89 1135/47/89 1136/123/89 1134/122/89
f 1135/47/90 1137/49/90 1138/124/90 1136/123/90
f 1137/49/91 1139/51/91 1140/125/91 1138/124/91
f 1139/51/92 1141/53/92 1142/126/92 1140/125/92
f 1141/53/93 1143/55/93 1144/127/93 1142/126/93
f 1143/55/94 1145/57/94 1146/128/94 1144/127/94
f 1145/57/95 1147/59/95 1148/129/95 1146/128/95
f 1147/59/96 1149/61/96 1150/130/96 1148/129/96
f 1149/61/97 1151/63/97 1152/131/97 1150/130/97
f 1151/63/98 1089/65/98 1092/132/98 1152/131/98
f 1153/1/67 1154/2/67 1155/100/67 1156/101/67
f 1154/2/68 1157/5/68 1158/102/68 1155/100/68
f 1157/5/69 1159/7/69 1160/103/69 1158/102/69
f 1159/7/70 1161/9/70 1162/104/70 1160/103/70
f 1161/9/71 1163/11/71 1164/105/71 1162/104/71
f 1163/11/72 1165/13/72 1166/106/72 1164/105/72
f 1165/13/73 1167/15/73 1168/107/73 1166/106/73
f 1167/15/74 1169/17/74 1170/108/74 1168/107/74
f 1169/17/75 1171/19/75 1172/109/75 1170/108/75
f 1171/19/76 1173/21/76 1174/110/76 1172/109/76
f 1173/21/77 1175/23/77 1176/111/77 1174/110/77
f 1175/23/78 1177/25/78 1178/112/78 1176/111/78
f 1177/25/79 1179/27/79 1180/113/79 1178/112/79
f 1179/27/80 1181/29/80 1182/114/80 1180/113/80
f 1181/29/81 1183/31/81 1184/115/81 1182/114/81
f 1183/31/82 1185/33/82 1186/116/82 1184/115/82
f 1185/33/83 1187/35/83 1188/117/83 1186/116/83
f 1187/35/84 1189/37/84 1190/118/84 1188/117/84
f 1189/37/85 1191/39/85 1192/119/85 1190/118/85
f 1191/39/86 1193/41/86 1194/120/86 1192/119/86
f 1193/41/87 1195/43/87 1196/121/87 1194/120/87
f 1195/43/88 1197/45/88 1198/122/88 1196/121/88
f 1197/45/89 1199/47/89 1200/123/89 1198/122/89
f 1199/47/90 1201/49/90 1202/124/90 1200/123/90
f 1201/49/91 1203/51/91 1204/125/91 1202/124/91
f 1203/51/92 1205/53/92 1206/126/92 1204/125/92
f 1205/53/93 1207/55/93 1208/127/93 1206/126/93
f 1207/55/94 1209/57/94 1210/128/94 1208/127/94
f 1209/57/95 1211/59/95 1212/129/95 1210/128/95
f 1211/59/96 1213/61/96 1214/130/96 1212/129/96
f 1213/61/97 1215/63/97 1216/131/97 1214/130/97
f 1215/63/98 1153/65/98 1156/132/98 1216/131/98
f 1217/1/67 1218/2/67 1219/100/67 1220/101/67
f 1218/2/68 1221/5/68 1222/102/68 1219/100/68
f 1221/5/69 1223/7/69 1224/103/69 1222/102/69
f 1223/7/70 1225/9/70 1226/104/70 1224/103/70
f 1225/9/71 1227/11/71 1228/105/71 1226/104/71
f 1227/11/72 1229/13/72 1230/106/72 1228/105/72
f 1229/13/73 1231/15/73 1232/107/73 1230/106/73
f 1231/15/74 1233/17/74 1234/108/74 1232/107/74
f 1233/17/75 1235/19/75 1236/109/75 1234/108/75
f 1235/19/76 1237/21/76 1238/110/76 1236/109/76
f 1237/21/77 1239/23/77 1240/111/77 1238/110/77
f 1239/23/78 1241/25/78 1242/112/78 1240/111/78
f 1241/25/79 1243/27/79 1244/113/79 1242/112/79
f 1243/27/80 1245/29/80 1246/114/80 1244/113/80
f 1245/29/81 1247/31/81 1248/115/81 1246/114/81
f 1247/31/82 1249/33/82 1250/116/82 1248/115/82
f 1249/33/83 1251/35/83 1252/117/83 1250/116/83
f 1251/35/84 1253/37/84 1254/118/84 1252/117/84
f 1253/37/85 1255/39/85 1256/119/85 1254/118/85
f 1255/39/86 1257/41/86 1258/120/86 1256/119/86
f 1257/41/87 1259/43/87 1260/121/87 1258/120/87
f 1259/43/88 1261/45/88 1262/122/88 1260/121/88
f 1261/45/89 1263/47/89 1264/123/89 1262/122/89
f 1263/47/90 1265/49/90 1266/124/90 1264/123/90
f 1265/49/91 1267/51/91 1268/125/91 1266/124/91
f 1267/51/92 1269/53/92 1270/126/92 1268/125/92
f 1269/53/93 1271/55/93 1272/127/93 1270/126/93
f 1271/55/94 1273/57/94 1274/128/94 1272/127/94
f 1273/57/95 1275/59/95 1276/129/95 1274/128/95
f 1275/59/96 1277/61/96 1278/130/96 1276/129/96
f 1277/61/97 1279/63/97 1280/131/97 1278/130/97
f 1279/63/98 1217/65/98 1220/132/98 1280/131/98
f 1220/162/66 1219/161/66 1222/160/66 1224/159/66
f 1220/162/66 1224/159/66 1226/158/66 1228/157/66
f 1220/162/66 1228/157/66 1230/156/66 1232/155/66
f 1220/162/66 1232/155/66 1234/116/66 1236/154/66
f 1220/162/66 1236/154/66 1238/153/66 1240/152/66
f 1220/162/66 1240/152/66 1242/151/66 1244/150/66
f 1220/162/66 1244/150/66 1246/149/66 1248/148/66
f 1220/162/66 1248/148/66 1250/147/66 1252/146/66
f 1220/162/66 1252/146/66 1254/145/66 1256/144/66
f 1220/162/66 1256/144/66 1258/143/66 1260/142/66
f 1220/162/66 1260/142/66 1262/141/66 1264/140/66
f 1220/162/66 1264/140/66 1266/33/66 1268/139/66
f 1220/162/66 1268/139/66 1270/138/66 1272/137/66
f 1220/162/66 1272/137/66 1274/136/66 1276/135/66
f 1220/162/66 1276/135/66 1278/134/66 1280/133/66
o spacer
usemtl spacer
f 1281/1/195 1282/33/195 1283/229/195 1284/147/195
f 1285/147/196 1286/229/196 1287/33/196 1288/1/196
f 1284/33/65 1283/1/65 1286/147/65 1285/229/65
f 1282/33/66 1281/1/66 1288/147/66 1287/229/66
f 1281/33/197 1284/1/197 1285/147/197 1288/229/197
f 1283/33/198 1282/1/198 1287/147/198 1286/229/198
f 1289/1/195 1290/33/195 1291/229/195 1292/147/195
f 1293/147/196 1294/229/196 1295/33/196 1296/1/196
f 1292/33/65 1291/1/65 1294/147/65 1293/229/65
f 1290/33/66 1289/1/66 1296/147/66 1295/229/66
f 1289/33/197 1292/1/197 1293/147/197 1296/229/197
f 1291/33/198 1290/1/198 1295/147/198 1294/229/198
f 1297/1/195 1298/33/195 1299/229/195 1300/147/195
f 1301/147/196 1302/229/196 1303/33/196 1304/1/196
f 1300/33/65 1299/1/65 1302/147/65 1301/229/65
f 1298/33/66 1297/1/66 1304/147/66 1303/229/66
f 1297/33/197 1300/1/197 1301/147/197 1304/229/197
f 1299/33/198 1298/1/198 1303/147/198 1302/229/198
