# generated by tools/gen_conductor_models.py - do not edit by hand
mtllib line.mtl
v 0.462500 0.052000 0.287500
v 0.452550 0.050021 0.287500
v 0.452550 0.050021 0.712500
v 0.462500 0.052000 0.712500
v 0.444115 0.044385 0.287500
v 0.444115 0.044385 0.712500
v 0.438479 0.035950 0.287500
v 0.438479 0.035950 0.712500
v 0.436500 0.026000 0.287500
v 0.436500 0.026000 0.712500
v 0.438479 0.016050 0.287500
v 0.438479 0.016050 0.712500
v 0.444115 0.007615 0.287500
v 0.444115 0.007615 0.712500
v 0.452550 0.001979 0.287500
v 0.452550 0.001979 0.712500
v 0.462500 0.000000 0.287500
v 0.462500 0.000000 0.712500
v 0.472450 0.001979 0.287500
v 0.472450 0.001979 0.712500
v 0.480885 0.007615 0.287500
v 0.480885 0.007615 0.712500
v 0.486521 0.016050 0.287500
v 0.486521 0.016050 0.712500
v 0.488500 0.026000 0.287500
v 0.488500 0.026000 0.712500
v 0.486521 0.035950 0.287500
v 0.486521 0.035950 0.712500
v 0.480885 0.044385 0.287500
v 0.480885 0.044385 0.712500
v 0.472450 0.050021 0.287500
v 0.472450 0.050021 0.712500
v 0.537500 0.052000 0.287500
v 0.527550 0.050021 0.287500
v 0.527550 0.050021 0.712500
v 0.537500 0.052000 0.712500
v 0.519115 0.044385 0.287500
v 0.519115 0.044385 0.712500
v 0.513479 0.035950 0.287500
v 0.513479 0.035950 0.712500
v 0.511500 0.026000 0.287500
v 0.511500 0.026000 0.712500
v 0.513479 0.016050 0.287500
v 0.513479 0.016050 0.712500
v 0.519115 0.007615 0.287500
v 0.519115 0.007615 0.712500
v 0.527550 0.001979 0.287500
v 0.527550 0.001979 0.712500
v 0.537500 0.000000 0.287500
v 0.537500 0.000000 0.712500
v 0.547450 0.001979 0.287500
v 0.547450 0.001979 0.712500
v 0.555885 0.007615 0.287500
v 0.555885 0.007615 0.712500
v 0.561521 0.016050 0.287500
v 0.561521 0.016050 0.712500
v 0.563500 0.026000 0.287500
v 0.563500 0.026000 0.712500
v 0.561521 0.035950 0.287500
v 0.561521 0.035950 0.712500
v 0.555885 0.044385 0.287500
v 0.555885 0.044385 0.712500
v 0.547450 0.050021 0.287500
v 0.547450 0.050021 0.712500
v 0.462500 0.127000 0.287500
v 0.452550 0.125021 0.287500
v 0.452550 0.125021 0.712500
v 0.462500 0.127000 0.712500
v 0.444115 0.119385 0.287500
v 0.444115 0.119385 0.712500
v 0.438479 0.110950 0.287500
v 0.438479 0.110950 0.712500
v 0.436500 0.101000 0.287500
v 0.436500 0.101000 0.712500
v 0.438479 0.091050 0.287500
v 0.438479 0.091050 0.712500
v 0.444115 0.082615 0.287500
v 0.444115 0.082615 0.712500
v 0.452550 0.076979 0.287500
v 0.452550 0.076979 0.712500
v 0.462500 0.075000 0.287500
v 0.462500 0.075000 0.712500
v 0.472450 0.076979 0.287500
v 0.472450 0.076979 0.712500
v 0.480885 0.082615 0.287500
v 0.480885 0.082615 0.712500
v 0.486521 0.091050 0.287500
v 0.486521 0.091050 0.712500
v 0.488500 0.101000 0.287500
v 0.488500 0.101000 0.712500
v 0.486521 0.110950 0.287500
v 0.486521 0.110950 0.712500
v 0.480885 0.119385 0.287500
v 0.480885 0.119385 0.712500
v 0.472450 0.125021 0.287500
v 0.472450 0.125021 0.712500
v 0.537500 0.127000 0.287500
v 0.527550 0.125021 0.287500
v 0.527550 0.125021 0.712500
v 0.537500 0.127000 0.712500
v 0.519115 0.119385 0.287500
v 0.519115 0.119385 0.712500
v 0.513479 0.110950 0.287500
v 0.513479 0.110950 0.712500
v 0.511500 0.101000 0.287500
v 0.511500 0.101000 0.712500
v 0.513479 0.091050 0.287500
v 0.513479 0.091050 0.712500
v 0.519115 0.082615 0.287500
v 0.519115 0.082615 0.712500
v 0.527550 0.076979 0.287500
v 0.527550 0.076979 0.712500
v 0.537500 0.075000 0.287500
v 0.537500 0.075000 0.712500
v 0.547450 0.076979 0.287500
v 0.547450 0.076979 0.712500
v 0.555885 0.082615 0.287500
v 0.555885 0.082615 0.712500
v 0.561521 0.091050 0.287500
v 0.561521 0.091050 0.712500
v 0.563500 0.101000 0.287500
v 0.563500 0.101000 0.712500
v 0.561521 0.110950 0.287500
v 0.561521 0.110950 0.712500
v 0.555885 0.119385 0.287500
v 0.555885 0.119385 0.712500
v 0.547450 0.125021 0.287500
v 0.547450 0.125021 0.712500
v 0.451250 0.026000 0.490000
v 0.473750 0.026000 0.490000
v 0.473750 0.026000 0.510000
v 0.451250 0.026000 0.510000
v 0.451250 0.101000 0.510000
v 0.473750 0.101000 0.510000
v 0.473750 0.101000 0.490000
v 0.451250 0.101000 0.490000
v 0.526250 0.026000 0.490000
v 0.548750 0.026000 0.490000
v 0.548750 0.026000 0.510000
v 0.526250 0.026000 0.510000
v 0.526250 0.101000 0.510000
v 0.548750 0.101000 0.510000
v 0.548750 0.101000 0.490000
v 0.526250 0.101000 0.490000
v 0.451250 0.053500 0.490000
v 0.548750 0.053500 0.490000
v 0.548750 0.053500 0.510000
v 0.451250 0.053500 0.510000
v 0.451250 0.073500 0.510000
v 0.548750 0.073500 0.510000
v 0.548750 0.073500 0.490000
v 0.451250 0.073500 0.490000
vn -0.1913 0.9619 0.0000
vn -0.5449 0.8155 0.0000
vn -0.8155 0.5449 0.0000
vn -0.9619 0.1913 0.0000
vn -0.9619 -0.1913 0.0000
vn -0.8155 -0.5449 0.0000
vn -0.5449 -0.8155 0.0000
vn -0.1913 -0.9619 0.0000
vn 0.1913 -0.9619 0.0000
vn 0.5449 -0.8155 0.0000
vn 0.8155 -0.5449 0.0000
vn 0.9619 -0.1913 0.0000
vn 0.9619 0.1913 0.0000
vn 0.8155 0.5449 -0.0000
vn 0.5449 0.8155 -0.0000
vn 0.1913 0.9619 0.0000
vn -0.0000 -0.0000 -1.0000
vn 0.0000 0.0000 1.0000
vn 0.0000 -1.0000 0.0000
vn 0.0000 1.0000 0.0000
vn -1.0000 0.0000 0.0000
vn 1.0000 0.0000 0.0000
vt 0.000000 0.000000
vt 0.062500 0.000000
vt 0.062500 1.000000
vt 0.000000 1.000000
vt 0.125000 0.000000
vt 0.125000 1.000000
vt 0.187500 0.000000
vt 0.187500 1.000000
vt 0.250000 0.000000
vt 0.250000 1.000000
vt 0.312500 0.000000
vt 0.312500 1.000000
vt 0.375000 0.000000
vt 0.375000 1.000000
vt 0.437500 0.000000
vt 0.437500 1.000000
vt 0.500000 0.000000
vt 0.500000 1.000000
vt 0.562500 0.000000
vt 0.562500 1.000000
vt 0.625000 0.000000
vt 0.625000 1.000000
vt 0.687500 0.000000
vt 0.687500 1.000000
vt 0.750000 0.000000
vt 0.750000 1.000000
vt 0.812500 0.000000
vt 0.812500 1.000000
vt 0.875000 0.000000
vt 0.875000 1.000000
vt 0.937500 0.000000
vt 0.937500 1.000000
vt 1.000000 0.000000
vt 1.000000 1.000000
vt 0.961940 0.308658
vt 0.853553 0.146447
vt 0.691342 0.038060
vt 0.308658 0.038060
vt 0.146447 0.146447
vt 0.038060 0.308658
vt 0.000000 0.500000
vt 0.038060 0.691342
vt 0.146447 0.853553
vt 0.308658 0.961940
vt 0.691342 0.961940
vt 0.853553 0.853553
vt 0.961940 0.691342
vt 1.000000 0.500000
vt 0.500000 0.500000
o conductor
usemtl conductor
f 1/1/1 2/2/1 3/3/1 4/4/1
f 2/2/2 5/5/2 6/6/2 3/3/2
f 5/5/3 7/7/3 8/8/3 6/6/3
f 7/7/4 9/9/4 10/10/4 8/8/4
f 9/9/5 11/11/5 12/12/5 10/10/5
f 11/11/6 13/13/6 14/14/6 12/12/6
f 13/13/7 15/15/7 16/16/7 14/14/7
f 15/15/8 17/17/8 18/18/8 16/16/8
f 17/17/9 19/19/9 20/20/9 18/18/9
f 19/19/10 21/21/10 22/22/10 20/20/10
f 21/21/11 23/23/11 24/24/11 22/22/11
f 23/23/12 25/25/12 26/26/12 24/24/12
f 25/25/13 27/27/13 28/28/13 26/26/13
f 27/27/14 29/29/14 30/30/14 28/28/14
f 29/29/15 31/31/15 32/32/15 30/30/15
f 31/31/16 1/33/16 4/34/16 32/32/16
f 31/35/17 29/36/17 27/37/17 25/17/17 23/38/17 21/39/17 19/40/17 17/41/17 15/42/17 13/43/17 11/44/17 9/18/17 7/45/17 5/46/17 2/47/17 1/48/17
f 4/48/18 3/47/18 6/46/18 8/45/18 10/18/18 12/44/18 14/43/18 16/42/18 18/41/18 20/40/18 22/39/18 24/38/18 26/17/18 28/37/18 30/36/18 32/35/18
f 33/1/1 34/2/1 35/3/1 36/4/1
f 34/2/2 37/5/2 38/6/2 35/3/2
f 37/5/3 39/7/3 40/8/3 38/6/3
f 39/7/4 41/9/4 42/10/4 40/8/4
f 41/9/5 43/11/5 44/12/5 42/10/5
f 43/11/6 45/13/6 46/14/6 44/12/6
f 45/13/7 47/15/7 48/16/7 46/14/7
f 47/15/8 49/17/8 50/18/8 48/16/8
f 49/17/9 51/19/9 52/20/9 50/18/9
f 51/19/10 53/21/10 54/22/10 52/20/10
f 53/21/11 55/23/11 56/24/11 54/22/11
f 55/23/12 57/25/12 58/26/12 56/24/12
f 57/25/13 59/27/13 60/28/13 58/26/13
f 59/27/14 61/29/14 62/30/14 60/28/14
f 61/29/15 63/31/15 64/32/15 62/30/15
f 63/31/16 33/33/16 36/34/16 64/32/16
f 63/35/17 61/36/17 59/37/17 57/17/17 55/38/17 53/39/17 51/40/17 49/41/17 47/42/17 45/43/17 43/44/17 41/18/17 39/45/17 37/46/17 34/47/17 33/48/17
f 36/48/18 35/47/18 38/46/18 40/45/18 42/18/18 44/44/18 46/43/18 48/42/18 50/41/18 52/40/18 54/39/18 56/38/18 58/17/18 60/37/18 62/36/18 64/35/18
f 65/1/1 66/2/1 67/3/1 68/4/1
f 66/2/2 69/5/2 70/6/2 67/3/2
f 69/5/3 71/7/3 72/8/3 70/6/3
f 71/7/4 73/9/4 74/10/4 72/8/4
f 73/9/5 75/11/5 76/12/5 74/10/5
f 75/11/6 77/13/6 78/14/6 76/12/6
f 77/13/7 79/15/7 80/16/7 78/14/7
f 79/15/8 81/17/8 82/18/8 80/16/8
f 81/17/9 83/19/9 84/20/9 82/18/9
f 83/19/10 85/21/10 86/22/10 84/20/10
f 85/21/11 87/23/11 88/24/11 86/22/11
f 87/23/12 89/25/12 90/26/12 88/24/12
f 89/25/13 91/27/13 92/28/13 90/26/13
f 91/27/14 93/29/14 94/30/14 92/28/14
f 93/29/15 95/31/15 96/32/15 94/30/15
f 95/31/16 65/33/16 68/34/16 96/32/16
f 95/35/17 93/36/17 91/37/17 89/17/17 87/38/17 85/39/17 83/40/17 81/41/17 79/42/17 77/43/17 75/44/17 73/18/17 71/45/17 69/46/17 66/47/17 65/48/17
f 68/48/18 67/47/18 70/46/18 72/45/18 74/18/18 76/44/18 78/43/18 80/42/18 82/41/18 84/40/18 86/39/18 88/38/18 90/17/18 92/37/18 94/36/18 96/35/18
f 97/1/1 98/2/1 99/3/1 100/4/1
f 98/2/2 101/5/2 102/6/2 99/3/2
f 101/5/3 103/7/3 104/8/3 102/6/3
f 103/7/4 105/9/4 106/10/4 104/8/4
f 105/9/5 107/11/5 108/12/5 106/10/5
f 107/11/6 109/13/6 110/14/6 108/12/6
f 109/13/7 111/15/7 112/16/7 110/14/7
f 111/15/8 113/17/8 114/18/8 112/16/8
f 113/17/9 115/19/9 116/20/9 114/18/9
f 115/19/10 117/21/10 118/22/10 116/20/10
f 117/21/11 119/23/11 120/24/11 118/22/11
f 119/23/12 121/25/12 122/26/12 120/24/12
f 121/25/13 123/27/13 124/28/13 122/26/13
f 123/27/14 125/29/14 126/30/14 124/28/14
f 125/29/15 127/31/15 128/32/15 126/30/15
f 127/31/16 97/33/16 100/34/16 128/32/16
f 127/35/17 125/36/17 123/37/17 121/17/17 119/38/17 117/39/17 115/40/17 113/41/17 111/42/17 109/43/17 107/44/17 105/18/17 103/45/17 101/46/17 98/47/17 97/48/17
f 100/48/18 99/47/18 102/46/18 104/45/18 106/18/18 108/44/18 110/43/18 112/42/18 114/41/18 116/40/18 118/39/18 120/38/18 122/17/18 124/37/18 126/36/18 128/35/18
o spacer
usemtl spacer
f 129/41/19 130/49/19 131/17/19 132/1/19
f 133/1/20 134/17/20 135/49/20 136/41/20
f 136/49/17 135/41/17 130/1/17 129/17/17
f 134/49/18 133/41/18 132/1/18 131/17/18
f 133/49/21 136/41/21 129/1/21 132/17/21
f 135/49/22 134/41/22 131/1/22 130/17/22
f 137/41/19 138/49/19 139/17/19 140/1/19
f 141/1/20 142/17/20 143/49/20 144/41/20
f 144/49/17 143/41/17 138/1/17 137/17/17
f 142/49/18 141/41/18 140/1/18 139/17/18
f 141/49/21 144/41/21 137/1/21 140/17/21
f 143/49/22 142/41/22 139/1/22 138/17/22
f 145/41/19 146/49/19 147/17/19 148/1/19
f 149/1/20 150/17/20 151/49/20 152/41/20
f 152/49/17 151/41/17 146/1/17 145/17/17
f 150/49/18 149/41/18 148/1/18 147/17/18
f 149/49/21 152/41/21 145/1/21 148/17/21
f 151/49/22 150/41/22 147/1/22 146/17/22
