# generated by tools/gen_conductor_models.py - do not edit by hand
mtllib tee.mtl
v 0.381250 0.000000 0.381250
v 0.618750 0.000000 0.381250
v 0.618750 0.000000 0.618750
v 0.381250 0.000000 0.618750
v 0.381250 0.164500 0.618750
v 0.618750 0.164500 0.618750
v 0.618750 0.164500 0.381250
v 0.381250 0.164500 0.381250
v 0.503500 0.026000 0.293750
v 0.502712 0.033999 0.293750
v 0.502712 0.033999 0.381250
v 0.503500 0.026000 0.381250
v 0.500379 0.041690 0.293750
v 0.500379 0.041690 0.381250
v 0.496590 0.048778 0.293750
v 0.496590 0.048778 0.381250
v 0.491491 0.054991 0.293750
v 0.491491 0.054991 0.381250
v 0.485278 0.060090 0.293750
v 0.485278 0.060090 0.381250
v 0.478190 0.063879 0.293750
v 0.478190 0.063879 0.381250
v 0.470499 0.066212 0.293750
v 0.470499 0.066212 0.381250
v 0.462500 0.067000 0.293750
v 0.462500 0.067000 0.381250
v 0.454501 0.066212 0.293750
v 0.454501 0.066212 0.381250
v 0.446810 0.063879 0.293750
v 0.446810 0.063879 0.381250
v 0.439722 0.060090 0.293750
v 0.439722 0.060090 0.381250
v 0.433509 0.054991 0.293750
v 0.433509 0.054991 0.381250
v 0.428410 0.048778 0.293750
v 0.428410 0.048778 0.381250
v 0.424621 0.041690 0.293750
v 0.424621 0.041690 0.381250
v 0.422288 0.033999 0.293750
v 0.422288 0.033999 0.381250
v 0.421500 0.026000 0.293750
v 0.421500 0.026000 0.381250
v 0.422288 0.018001 0.293750
v 0.422288 0.018001 0.381250
v 0.424621 0.010310 0.293750
v 0.424621 0.010310 0.381250
v 0.428410 0.003222 0.293750
v 0.428410 0.003222 0.381250
v 0.433509 -0.002991 0.293750
v 0.433509 -0.002991 0.381250
v 0.439722 -0.008090 0.293750
v 0.439722 -0.008090 0.381250
v 0.446810 -0.011879 0.293750
v 0.446810 -0.011879 0.381250
v 0.454501 -0.014212 0.293750
v 0.454501 -0.014212 0.381250
v 0.462500 -0.015000 0.293750
v 0.462500 -0.015000 0.381250
v 0.470499 -0.014212 0.293750
v 0.470499 -0.014212 0.381250
v 0.478190 -0.011879 0.293750
v 0.478190 -0.011879 0.381250
v 0.485278 -0.008090 0.293750
v 0.485278 -0.008090 0.381250
v 0.491491 -0.002991 0.293750
v 0.491491 -0.002991 0.381250
v 0.496590 0.003222 0.293750
v 0.496590 0.003222 0.381250
v 0.500379 0.010310 0.293750
v 0.500379 0.010310 0.381250
v 0.502712 0.018001 0.293750
v 0.502712 0.018001 0.381250
v 0.578500 0.026000 0.293750
v 0.577712 0.033999 0.293750
v 0.577712 0.033999 0.381250
v 0.578500 0.026000 0.381250
v 0.575379 0.041690 0.293750
v 0.575379 0.041690 0.381250
v 0.571590 0.048778 0.293750
v 0.571590 0.048778 0.381250
v 0.566491 0.054991 0.293750
v 0.566491 0.054991 0.381250
v 0.560278 0.060090 0.293750
v 0.560278 0.060090 0.381250
v 0.553190 0.063879 0.293750
v 0.553190 0.063879 0.381250
v 0.545499 0.066212 0.293750
v 0.545499 0.066212 0.381250
v 0.537500 0.067000 0.293750
v 0.537500 0.067000 0.381250
v 0.529501 0.066212 0.293750
v 0.529501 0.066212 0.381250
v 0.521810 0.063879 0.293750
v 0.521810 0.063879 0.381250
v 0.514722 0.060090 0.293750
v 0.514722 0.060090 0.381250
v 0.508509 0.054991 0.293750
v 0.508509 0.054991 0.381250
v 0.503410 0.048778 0.293750
v 0.503410 0.048778 0.381250
v 0.499621 0.041690 0.293750
v 0.499621 0.041690 0.381250
v 0.497288 0.033999 0.293750
v 0.497288 0.033999 0.381250
v 0.496500 0.026000 0.293750
v 0.496500 0.026000 0.381250
v 0.497288 0.018001 0.293750
v 0.497288 0.018001 0.381250
v 0.499621 0.010310 0.293750
v 0.499621 0.010310 0.381250
v 0.503410 0.003222 0.293750
v 0.503410 0.003222 0.381250
v 0.508509 -0.002991 0.293750
v 0.508509 -0.002991 0.381250
v 0.514722 -0.008090 0.293750
v 0.514722 -0.008090 0.381250
v 0.521810 -0.011879 0.293750
v 0.521810 -0.011879 0.381250
v 0.529501 -0.014212 0.293750
v 0.529501 -0.014212 0.381250
v 0.537500 -0.015000 0.293750
v 0.537500 -0.015000 0.381250
v 0.545499 -0.014212 0.293750
v 0.545499 -0.014212 0.381250
v 0.553190 -0.011879 0.293750
v 0.553190 -0.011879 0.381250
v 0.560278 -0.008090 0.293750
v 0.560278 -0.008090 0.381250
v 0.566491 -0.002991 0.293750
v 0.566491 -0.002991 0.381250
v 0.571590 0.003222 0.293750
v 0.571590 0.003222 0.381250
v 0.575379 0.010310 0.293750
v 0.575379 0.010310 0.381250
v 0.577712 0.018001 0.293750
v 0.577712 0.018001 0.381250
v 0.503500 0.101000 0.293750
v 0.502712 0.108999 0.293750
v 0.502712 0.108999 0.381250
v 0.503500 0.101000 0.381250
v 0.500379 0.116690 0.293750
v 0.500379 0.116690 0.381250
v 0.496590 0.123778 0.293750
v 0.496590 0.123778 0.381250
v 0.491491 0.129991 0.293750
v 0.491491 0.129991 0.381250
v 0.485278 0.135090 0.293750
v 0.485278 0.135090 0.381250
v 0.478190 0.138879 0.293750
v 0.478190 0.138879 0.381250
v 0.470499 0.141212 0.293750
v 0.470499 0.141212 0.381250
v 0.462500 0.142000 0.293750
v 0.462500 0.142000 0.381250
v 0.454501 0.141212 0.293750
v 0.454501 0.141212 0.381250
v 0.446810 0.138879 0.293750
v 0.446810 0.138879 0.381250
v 0.439722 0.135090 0.293750
v 0.439722 0.135090 0.381250
v 0.433509 0.129991 0.293750
v 0.433509 0.129991 0.381250
v 0.428410 0.123778 0.293750
v 0.428410 0.123778 0.381250
v 0.424621 0.116690 0.293750
v 0.424621 0.116690 0.381250
v 0.422288 0.108999 0.293750
v 0.422288 0.108999 0.381250
v 0.421500 0.101000 0.293750
v 0.421500 0.101000 0.381250
v 0.422288 0.093001 0.293750
v 0.422288 0.093001 0.381250
v 0.424621 0.085310 0.293750
v 0.424621 0.085310 0.381250
v 0.428410 0.078222 0.293750
v 0.428410 0.078222 0.381250
v 0.433509 0.072009 0.293750
v 0.433509 0.072009 0.381250
v 0.439722 0.066910 0.293750
v 0.439722 0.066910 0.381250
v 0.446810 0.063121 0.293750
v 0.446810 0.063121 0.381250
v 0.454501 0.060788 0.293750
v 0.454501 0.060788 0.381250
v 0.462500 0.060000 0.293750
v 0.462500 0.060000 0.381250
v 0.470499 0.060788 0.293750
v 0.470499 0.060788 0.381250
v 0.478190 0.063121 0.293750
v 0.478190 0.063121 0.381250
v 0.485278 0.066910 0.293750
v 0.485278 0.066910 0.381250
v 0.491491 0.072009 0.293750
v 0.491491 0.072009 0.381250
v 0.496590 0.078222 0.293750
v 0.496590 0.078222 0.381250
v 0.500379 0.085310 0.293750
v 0.500379 0.085310 0.381250
v 0.502712 0.093001 0.293750
v 0.502712 0.093001 0.381250
v 0.578500 0.101000 0.293750
v 0.577712 0.108999 0.293750
v 0.577712 0.108999 0.381250
v 0.578500 0.101000 0.381250
v 0.575379 0.116690 0.293750
v 0.575379 0.116690 0.381250
v 0.571590 0.123778 0.293750
v 0.571590 0.123778 0.381250
v 0.566491 0.129991 0.293750
v 0.566491 0.129991 0.381250
v 0.560278 0.135090 0.293750
v 0.560278 0.135090 0.381250
v 0.553190 0.138879 0.293750
v 0.553190 0.138879 0.381250
v 0.545499 0.141212 0.293750
v 0.545499 0.141212 0.381250
v 0.537500 0.142000 0.293750
v 0.537500 0.142000 0.381250
v 0.529501 0.141212 0.293750
v 0.529501 0.141212 0.381250
v 0.521810 0.138879 0.293750
v 0.521810 0.138879 0.381250
v 0.514722 0.135090 0.293750
v 0.514722 0.135090 0.381250
v 0.508509 0.129991 0.293750
v 0.508509 0.129991 0.381250
v 0.503410 0.123778 0.293750
v 0.503410 0.123778 0.381250
v 0.499621 0.116690 0.293750
v 0.499621 0.116690 0.381250
v 0.497288 0.108999 0.293750
v 0.497288 0.108999 0.381250
v 0.496500 0.101000 0.293750
v 0.496500 0.101000 0.381250
v 0.497288 0.093001 0.293750
v 0.497288 0.093001 0.381250
v 0.499621 0.085310 0.293750
v 0.499621 0.085310 0.381250
v 0.503410 0.078222 0.293750
v 0.503410 0.078222 0.381250
v 0.508509 0.072009 0.293750
v 0.508509 0.072009 0.381250
v 0.514722 0.066910 0.293750
v 0.514722 0.066910 0.381250
v 0.521810 0.063121 0.293750
v 0.521810 0.063121 0.381250
v 0.529501 0.060788 0.293750
v 0.529501 0.060788 0.381250
v 0.537500 0.060000 0.293750
v 0.537500 0.060000 0.381250
v 0.545499 0.060788 0.293750
v 0.545499 0.060788 0.381250
v 0.553190 0.063121 0.293750
v 0.553190 0.063121 0.381250
v 0.560278 0.066910 0.293750
v 0.560278 0.066910 0.381250
v 0.566491 0.072009 0.293750
v 0.566491 0.072009 0.381250
v 0.571590 0.078222 0.293750
v 0.571590 0.078222 0.381250
v 0.575379 0.085310 0.293750
v 0.575379 0.085310 0.381250
v 0.577712 0.093001 0.293750
v 0.577712 0.093001 0.381250
v 0.575000 0.067000 0.462500
v 0.575000 0.066212 0.470499
v 0.662500 0.066212 0.470499
v 0.662500 0.067000 0.462500
v 0.575000 0.063879 0.478190
v 0.662500 0.063879 0.478190
v 0.575000 0.060090 0.485278
v 0.662500 0.060090 0.485278
v 0.575000 0.054991 0.491491
v 0.662500 0.054991 0.491491
v 0.575000 0.048778 0.496590
v 0.662500 0.048778 0.496590
v 0.575000 0.041690 0.500379
v 0.662500 0.041690 0.500379
v 0.575000 0.033999 0.502712
v 0.662500 0.033999 0.502712
v 0.575000 0.026000 0.503500
v 0.662500 0.026000 0.503500
v 0.575000 0.018001 0.502712
v 0.662500 0.018001 0.502712
v 0.575000 0.010310 0.500379
v 0.662500 0.010310 0.500379
v 0.575000 0.003222 0.496590
v 0.662500 0.003222 0.496590
v 0.575000 -0.002991 0.491491
v 0.662500 -0.002991 0.491491
v 0.575000 -0.008090 0.485278
v 0.662500 -0.008090 0.485278
v 0.575000 -0.011879 0.478190
v 0.662500 -0.011879 0.478190
v 0.575000 -0.014212 0.470499
v 0.662500 -0.014212 0.470499
v 0.575000 -0.015000 0.462500
v 0.662500 -0.015000 0.462500
v 0.575000 -0.014212 0.454501
v 0.662500 -0.014212 0.454501
v 0.575000 -0.011879 0.446810
v 0.662500 -0.011879 0.446810
v 0.575000 -0.008090 0.439722
v 0.662500 -0.008090 0.439722
v 0.575000 -0.002991 0.433509
v 0.662500 -0.002991 0.433509
v 0.575000 0.003222 0.428410
v 0.662500 0.003222 0.428410
v 0.575000 0.010310 0.424621
v 0.662500 0.010310 0.424621
v 0.575000 0.018001 0.422288
v 0.662500 0.018001 0.422288
v 0.575000 0.026000 0.421500
v 0.662500 0.026000 0.421500
v 0.575000 0.033999 0.422288
v 0.662500 0.033999 0.422288
v 0.575000 0.041690 0.424621
v 0.662500 0.041690 0.424621
v 0.575000 0.048778 0.428410
v 0.662500 0.048778 0.428410
v 0.575000 0.054991 0.433509
v 0.662500 0.054991 0.433509
v 0.575000 0.060090 0.439722
v 0.662500 0.060090 0.439722
v 0.575000 0.063879 0.446810
v 0.662500 0.063879 0.446810
v 0.575000 0.066212 0.454501
v 0.662500 0.066212 0.454501
v 0.575000 0.067000 0.537500
v 0.575000 0.066212 0.545499
v 0.662500 0.066212 0.545499
v 0.662500 0.067000 0.537500
v 0.575000 0.063879 0.553190
v 0.662500 0.063879 0.553190
v 0.575000 0.060090 0.560278
v 0.662500 0.060090 0.560278
v 0.575000 0.054991 0.566491
v 0.662500 0.054991 0.566491
v 0.575000 0.048778 0.571590
v 0.662500 0.048778 0.571590
v 0.575000 0.041690 0.575379
v 0.662500 0.041690 0.575379
v 0.575000 0.033999 0.577712
v 0.662500 0.033999 0.577712
v 0.575000 0.026000 0.578500
v 0.662500 0.026000 0.578500
v 0.575000 0.018001 0.577712
v 0.662500 0.018001 0.577712
v 0.575000 0.010310 0.575379
v 0.662500 0.010310 0.575379
v 0.575000 0.003222 0.571590
v 0.662500 0.003222 0.571590
v 0.575000 -0.002991 0.566491
v 0.662500 -0.002991 0.566491
v 0.575000 -0.008090 0.560278
v 0.662500 -0.008090 0.560278
v 0.575000 -0.011879 0.553190
v 0.662500 -0.011879 0.553190
v 0.575000 -0.014212 0.545499
v 0.662500 -0.014212 0.545499
v 0.575000 -0.015000 0.537500
v 0.662500 -0.015000 0.537500
v 0.575000 -0.014212 0.529501
v 0.662500 -0.014212 0.529501
v 0.575000 -0.011879 0.521810
v 0.662500 -0.011879 0.521810
v 0.575000 -0.008090 0.514722
v 0.662500 -0.008090 0.514722
v 0.575000 -0.002991 0.508509
v 0.662500 -0.002991 0.508509
v 0.575000 0.003222 0.503410
v 0.662500 0.003222 0.503410
v 0.575000 0.010310 0.499621
v 0.662500 0.010310 0.499621
v 0.575000 0.018001 0.497288
v 0.662500 0.018001 0.497288
v 0.575000 0.026000 0.496500
v 0.662500 0.026000 0.496500
v 0.575000 0.033999 0.497288
v 0.662500 0.033999 0.497288
v 0.575000 0.041690 0.499621
v 0.662500 0.041690 0.499621
v 0.575000 0.048778 0.503410
v 0.662500 0.048778 0.503410
v 0.575000 0.054991 0.508509
v 0.662500 0.054991 0.508509
v 0.575000 0.060090 0.514722
v 0.662500 0.060090 0.514722
v 0.575000 0.063879 0.521810
v 0.662500 0.063879 0.521810
v 0.575000 0.066212 0.529501
v 0.662500 0.066212 0.529501
v 0.575000 0.142000 0.462500
v 0.575000 0.141212 0.470499
v 0.662500 0.141212 0.470499
v 0.662500 0.142000 0.462500
v 0.575000 0.138879 0.478190
v 0.662500 0.138879 0.478190
v 0.575000 0.135090 0.485278
v 0.662500 0.135090 0.485278
v 0.575000 0.129991 0.491491
v 0.662500 0.129991 0.491491
v 0.575000 0.123778 0.496590
v 0.662500 0.123778 0.496590
v 0.575000 0.116690 0.500379
v 0.662500 0.116690 0.500379
v 0.575000 0.108999 0.502712
v 0.662500 0.108999 0.502712
v 0.575000 0.101000 0.503500
v 0.662500 0.101000 0.503500
v 0.575000 0.093001 0.502712
v 0.662500 0.093001 0.502712
v 0.575000 0.085310 0.500379
v 0.662500 0.085310 0.500379
v 0.575000 0.078222 0.496590
v 0.662500 0.078222 0.496590
v 0.575000 0.072009 0.491491
v 0.662500 0.072009 0.491491
v 0.575000 0.066910 0.485278
v 0.662500 0.066910 0.485278
v 0.575000 0.063121 0.478190
v 0.662500 0.063121 0.478190
v 0.575000 0.060788 0.470499
v 0.662500 0.060788 0.470499
v 0.575000 0.060000 0.462500
v 0.662500 0.060000 0.462500
v 0.575000 0.060788 0.454501
v 0.662500 0.060788 0.454501
v 0.575000 0.063121 0.446810
v 0.662500 0.063121 0.446810
v 0.575000 0.066910 0.439722
v 0.662500 0.066910 0.439722
v 0.575000 0.072009 0.433509
v 0.662500 0.072009 0.433509
v 0.575000 0.078222 0.428410
v 0.662500 0.078222 0.428410
v 0.575000 0.085310 0.424621
v 0.662500 0.085310 0.424621
v 0.575000 0.093001 0.422288
v 0.662500 0.093001 0.422288
v 0.575000 0.101000 0.421500
v 0.662500 0.101000 0.421500
v 0.575000 0.108999 0.422288
v 0.662500 0.108999 0.422288
v 0.575000 0.116690 0.424621
v 0.662500 0.116690 0.424621
v 0.575000 0.123778 0.428410
v 0.662500 0.123778 0.428410
v 0.575000 0.129991 0.433509
v 0.662500 0.129991 0.433509
v 0.575000 0.135090 0.439722
v 0.662500 0.135090 0.439722
v 0.575000 0.138879 0.446810
v 0.662500 0.138879 0.446810
v 0.575000 0.141212 0.454501
v 0.662500 0.141212 0.454501
v 0.575000 0.142000 0.537500
v 0.575000 0.141212 0.545499
v 0.662500 0.141212 0.545499
v 0.662500 0.142000 0.537500
v 0.575000 0.138879 0.553190
v 0.662500 0.138879 0.553190
v 0.575000 0.135090 0.560278
v 0.662500 0.135090 0.560278
v 0.575000 0.129991 0.566491
v 0.662500 0.129991 0.566491
v 0.575000 0.123778 0.571590
v 0.662500 0.123778 0.571590
v 0.575000 0.116690 0.575379
v 0.662500 0.116690 0.575379
v 0.575000 0.108999 0.577712
v 0.662500 0.108999 0.577712
v 0.575000 0.101000 0.578500
v 0.662500 0.101000 0.578500
v 0.575000 0.093001 0.577712
v 0.662500 0.093001 0.577712
v 0.575000 0.085310 0.575379
v 0.662500 0.085310 0.575379
v 0.575000 0.078222 0.571590
v 0.662500 0.078222 0.571590
v 0.575000 0.072009 0.566491
v 0.662500 0.072009 0.566491
v 0.575000 0.066910 0.560278
v 0.662500 0.066910 0.560278
v 0.575000 0.063121 0.553190
v 0.662500 0.063121 0.553190
v 0.575000 0.060788 0.545499
v 0.662500 0.060788 0.545499
v 0.575000 0.060000 0.537500
v 0.662500 0.060000 0.537500
v 0.575000 0.060788 0.529501
v 0.662500 0.060788 0.529501
v 0.575000 0.063121 0.521810
v 0.662500 0.063121 0.521810
v 0.575000 0.066910 0.514722
v 0.662500 0.066910 0.514722
v 0.575000 0.072009 0.508509
v 0.662500 0.072009 0.508509
v 0.575000 0.078222 0.503410
v 0.662500 0.078222 0.503410
v 0.575000 0.085310 0.499621
v 0.662500 0.085310 0.499621
v 0.575000 0.093001 0.497288
v 0.662500 0.093001 0.497288
v 0.575000 0.101000 0.496500
v 0.662500 0.101000 0.496500
v 0.575000 0.108999 0.497288
v 0.662500 0.108999 0.497288
v 0.575000 0.116690 0.499621
v 0.662500 0.116690 0.499621
v 0.575000 0.123778 0.503410
v 0.662500 0.123778 0.503410
v 0.575000 0.129991 0.508509
v 0.662500 0.129991 0.508509
v 0.575000 0.135090 0.514722
v 0.662500 0.135090 0.514722
v 0.575000 0.138879 0.521810
v 0.662500 0.138879 0.521810
v 0.575000 0.141212 0.529501
v 0.662500 0.141212 0.529501
v 0.503500 0.026000 0.575000
v 0.502712 0.033999 0.575000
v 0.502712 0.033999 0.662500
v 0.503500 0.026000 0.662500
v 0.500379 0.041690 0.575000
v 0.500379 0.041690 0.662500
v 0.496590 0.048778 0.575000
v 0.496590 0.048778 0.662500
v 0.491491 0.054991 0.575000
v 0.491491 0.054991 0.662500
v 0.485278 0.060090 0.575000
v 0.485278 0.060090 0.662500
v 0.478190 0.063879 0.575000
v 0.478190 0.063879 0.662500
v 0.470499 0.066212 0.575000
v 0.470499 0.066212 0.662500
v 0.462500 0.067000 0.575000
v 0.462500 0.067000 0.662500
v 0.454501 0.066212 0.575000
v 0.454501 0.066212 0.662500
v 0.446810 0.063879 0.575000
v 0.446810 0.063879 0.662500
v 0.439722 0.060090 0.575000
v 0.439722 0.060090 0.662500
v 0.433509 0.054991 0.575000
v 0.433509 0.054991 0.662500
v 0.428410 0.048778 0.575000
v 0.428410 0.048778 0.662500
v 0.424621 0.041690 0.575000
v 0.424621 0.041690 0.662500
v 0.422288 0.033999 0.575000
v 0.422288 0.033999 0.662500
v 0.421500 0.026000 0.575000
v 0.421500 0.026000 0.662500
v 0.422288 0.018001 0.575000
v 0.422288 0.018001 0.662500
v 0.424621 0.010310 0.575000
v 0.424621 0.010310 0.662500
v 0.428410 0.003222 0.575000
v 0.428410 0.003222 0.662500
v 0.433509 -0.002991 0.575000
v 0.433509 -0.002991 0.662500
v 0.439722 -0.008090 0.575000
v 0.439722 -0.008090 0.662500
v 0.446810 -0.011879 0.575000
v 0.446810 -0.011879 0.662500
v 0.454501 -0.014212 0.575000
v 0.454501 -0.014212 0.662500
v 0.462500 -0.015000 0.575000
v 0.462500 -0.015000 0.662500
v 0.470499 -0.014212 0.575000
v 0.470499 -0.014212 0.662500
v 0.478190 -0.011879 0.575000
v 0.478190 -0.011879 0.662500
v 0.485278 -0.008090 0.575000
v 0.485278 -0.008090 0.662500
v 0.491491 -0.002991 0.575000
v 0.491491 -0.002991 0.662500
v 0.496590 0.003222 0.575000
v 0.496590 0.003222 0.662500
v 0.500379 0.010310 0.575000
v 0.500379 0.010310 0.662500
v 0.502712 0.018001 0.575000
v 0.502712 0.018001 0.662500
v 0.578500 0.026000 0.575000
v 0.577712 0.033999 0.575000
v 0.577712 0.033999 0.662500
v 0.578500 0.026000 0.662500
v 0.575379 0.041690 0.575000
v 0.575379 0.041690 0.662500
v 0.571590 0.048778 0.575000
v 0.571590 0.048778 0.662500
v 0.566491 0.054991 0.575000
v 0.566491 0.054991 0.662500
v 0.560278 0.060090 0.575000
v 0.560278 0.060090 0.662500
v 0.553190 0.063879 0.575000
v 0.553190 0.063879 0.662500
v 0.545499 0.066212 0.575000
v 0.545499 0.066212 0.662500
v 0.537500 0.067000 0.575000
v 0.537500 0.067000 0.662500
v 0.529501 0.066212 0.575000
v 0.529501 0.066212 0.662500
v 0.521810 0.063879 0.575000
v 0.521810 0.063879 0.662500
v 0.514722 0.060090 0.575000
v 0.514722 0.060090 0.662500
v 0.508509 0.054991 0.575000
v 0.508509 0.054991 0.662500
v 0.503410 0.048778 0.575000
v 0.503410 0.048778 0.662500
v 0.499621 0.041690 0.575000
v 0.499621 0.041690 0.662500
v 0.497288 0.033999 0.575000
v 0.497288 0.033999 0.662500
v 0.496500 0.026000 0.575000
v 0.496500 0.026000 0.662500
v 0.497288 0.018001 0.575000
v 0.497288 0.018001 0.662500
v 0.499621 0.010310 0.575000
v 0.499621 0.010310 0.662500
v 0.503410 0.003222 0.575000
v 0.503410 0.003222 0.662500
v 0.508509 -0.002991 0.575000
v 0.508509 -0.002991 0.662500
v 0.514722 -0.008090 0.575000
v 0.514722 -0.008090 0.662500
v 0.521810 -0.011879 0.575000
v 0.521810 -0.011879 0.662500
v 0.529501 -0.014212 0.575000
v 0.529501 -0.014212 0.662500
v 0.537500 -0.015000 0.575000
v 0.537500 -0.015000 0.662500
v 0.545499 -0.014212 0.575000
v 0.545499 -0.014212 0.662500
v 0.553190 -0.011879 0.575000
v 0.553190 -0.011879 0.662500
v 0.560278 -0.008090 0.575000
v 0.560278 -0.008090 0.662500
v 0.566491 -0.002991 0.575000
v 0.566491 -0.002991 0.662500
v 0.571590 0.003222 0.575000
v 0.571590 0.003222 0.662500
v 0.575379 0.010310 0.575000
v 0.575379 0.010310 0.662500
v 0.577712 0.018001 0.575000
v 0.577712 0.018001 0.662500
v 0.503500 0.101000 0.575000
v 0.502712 0.108999 0.575000
v 0.502712 0.108999 0.662500
v 0.503500 0.101000 0.662500
v 0.500379 0.116690 0.575000
v 0.500379 0.116690 0.662500
v 0.496590 0.123778 0.575000
v 0.496590 0.123778 0.662500
v 0.491491 0.129991 0.575000
v 0.491491 0.129991 0.662500
v 0.485278 0.135090 0.575000
v 0.485278 0.135090 0.662500
v 0.478190 0.138879 0.575000
v 0.478190 0.138879 0.662500
v 0.470499 0.141212 0.575000
v 0.470499 0.141212 0.662500
v 0.462500 0.142000 0.575000
v 0.462500 0.142000 0.662500
v 0.454501 0.141212 0.575000
v 0.454501 0.141212 0.662500
v 0.446810 0.138879 0.575000
v 0.446810 0.138879 0.662500
v 0.439722 0.135090 0.575000
v 0.439722 0.135090 0.662500
v 0.433509 0.129991 0.575000
v 0.433509 0.129991 0.662500
v 0.428410 0.123778 0.575000
v 0.428410 0.123778 0.662500
v 0.424621 0.116690 0.575000
v 0.424621 0.116690 0.662500
v 0.422288 0.108999 0.575000
v 0.422288 0.108999 0.662500
v 0.421500 0.101000 0.575000
v 0.421500 0.101000 0.662500
v 0.422288 0.093001 0.575000
v 0.422288 0.093001 0.662500
v 0.424621 0.085310 0.575000
v 0.424621 0.085310 0.662500
v 0.428410 0.078222 0.575000
v 0.428410 0.078222 0.662500
v 0.433509 0.072009 0.575000
v 0.433509 0.072009 0.662500
v 0.439722 0.066910 0.575000
v 0.439722 0.066910 0.662500
v 0.446810 0.063121 0.575000
v 0.446810 0.063121 0.662500
v 0.454501 0.060788 0.575000
v 0.454501 0.060788 0.662500
v 0.462500 0.060000 0.575000
v 0.462500 0.060000 0.662500
v 0.470499 0.060788 0.575000
v 0.470499 0.060788 0.662500
v 0.478190 0.063121 0.575000
v 0.478190 0.063121 0.662500
v 0.485278 0.066910 0.575000
v 0.485278 0.066910 0.662500
v 0.491491 0.072009 0.575000
v 0.491491 0.072009 0.662500
v 0.496590 0.078222 0.575000
v 0.496590 0.078222 0.662500
v 0.500379 0.085310 0.575000
v 0.500379 0.085310 0.662500
v 0.502712 0.093001 0.575000
v 0.502712 0.093001 0.662500
v 0.578500 0.101000 0.575000
v 0.577712 0.108999 0.575000
v 0.577712 0.108999 0.662500
v 0.578500 0.101000 0.662500
v 0.575379 0.116690 0.575000
v 0.575379 0.116690 0.662500
v 0.571590 0.123778 0.575000
v 0.571590 0.123778 0.662500
v 0.566491 0.129991 0.575000
v 0.566491 0.129991 0.662500
v 0.560278 0.135090 0.575000
v 0.560278 0.135090 0.662500
v 0.553190 0.138879 0.575000
v 0.553190 0.138879 0.662500
v 0.545499 0.141212 0.575000
v 0.545499 0.141212 0.662500
v 0.537500 0.142000 0.575000
v 0.537500 0.142000 0.662500
v 0.529501 0.141212 0.575000
v 0.529501 0.141212 0.662500
v 0.521810 0.138879 0.575000
v 0.521810 0.138879 0.662500
v 0.514722 0.135090 0.575000
v 0.514722 0.135090 0.662500
v 0.508509 0.129991 0.575000
v 0.508509 0.129991 0.662500
v 0.503410 0.123778 0.575000
v 0.503410 0.123778 0.662500
v 0.499621 0.116690 0.575000
v 0.499621 0.116690 0.662500
v 0.497288 0.108999 0.575000
v 0.497288 0.108999 0.662500
v 0.496500 0.101000 0.575000
v 0.496500 0.101000 0.662500
v 0.497288 0.093001 0.575000
v 0.497288 0.093001 0.662500
v 0.499621 0.085310 0.575000
v 0.499621 0.085310 0.662500
v 0.503410 0.078222 0.575000
v 0.503410 0.078222 0.662500
v 0.508509 0.072009 0.575000
v 0.508509 0.072009 0.662500
v 0.514722 0.066910 0.575000
v 0.514722 0.066910 0.662500
v 0.521810 0.063121 0.575000
v 0.521810 0.063121 0.662500
v 0.529501 0.060788 0.575000
v 0.529501 0.060788 0.662500
v 0.537500 0.060000 0.575000
v 0.537500 0.060000 0.662500
v 0.545499 0.060788 0.575000
v 0.545499 0.060788 0.662500
v 0.553190 0.063121 0.575000
v 0.553190 0.063121 0.662500
v 0.560278 0.066910 0.575000
v 0.560278 0.066910 0.662500
v 0.566491 0.072009 0.575000
v 0.566491 0.072009 0.662500
v 0.571590 0.078222 0.575000
v 0.571590 0.078222 0.662500
v 0.575379 0.085310 0.575000
v 0.575379 0.085310 0.662500
v 0.577712 0.093001 0.575000
v 0.577712 0.093001 0.662500
vn 0.0000 -1.0000 0.0000
vn 0.0000 1.0000 0.0000
vn 0.0000 0.0000 -1.0000
vn 0.0000 0.0000 1.0000
vn -1.0000 0.0000 0.0000
vn 1.0000 0.0000 0.0000
vn 0.9952 0.0980 0.0000
vn 0.9569 0.2903 0.0000
vn 0.8819 0.4714 0.0000
vn 0.7730 0.6344 0.0000
vn 0.6344 0.7730 0.0000
vn 0.4714 0.8819 0.0000
vn 0.2903 0.9569 0.0000
vn 0.0980 0.9952 0.0000
vn -0.0980 0.9952 0.0000
vn -0.2903 0.9569 0.0000
vn -0.4714 0.8819 0.0000
vn -0.6344 0.7730 0.0000
vn -0.7730 0.6344 0.0000
vn -0.8819 0.4714 0.0000
vn -0.9569 0.2903 0.0000
vn -0.9952 0.0980 0.0000
vn -0.9952 -0.0980 0.0000
vn -0.9569 -0.2903 0.0000
vn -0.8819 -0.4714 0.0000
vn -0.7730 -0.6344 0.0000
vn -0.6344 -0.7730 0.0000
vn -0.4714 -0.8819 0.0000
vn -0.2903 -0.9569 0.0000
vn -0.0980 -0.9952 0.0000
vn 0.0980 -0.9952 0.0000
vn 0.2903 -0.9569 0.0000
vn 0.4714 -0.8819 0.0000
vn 0.6344 -0.7730 0.0000
vn 0.7730 -0.6344 0.0000
vn 0.8819 -0.4714 0.0000
vn 0.9569 -0.2903 0.0000
vn 0.9952 -0.0980 0.0000
vn 0.0000 0.9952 0.0980
vn 0.0000 0.9569 0.2903
vn 0.0000 0.8819 0.4714
vn 0.0000 0.7730 0.6344
vn 0.0000 0.6344 0.7730
vn 0.0000 0.4714 0.8819
vn 0.0000 0.2903 0.9569
vn 0.0000 0.0980 0.9952
vn 0.0000 -0.0980 0.9952
vn 0.0000 -0.2903 0.9569
vn 0.0000 -0.4714 0.8819
vn 0.0000 -0.6344 0.7730
vn 0.0000 -0.7730 0.6344
vn 0.0000 -0.8819 0.4714
vn 0.0000 -0.9569 0.2903
vn 0.0000 -0.9952 0.0980
vn 0.0000 -0.9952 -0.0980
vn 0.0000 -0.9569 -0.2903
vn 0.0000 -0.8819 -0.4714
vn 0.0000 -0.7730 -0.6344
vn 0.0000 -0.6344 -0.7730
vn 0.0000 -0.4714 -0.8819
vn 0.0000 -0.2903 -0.9569
vn 0.0000 -0.0980 -0.9952
vn 0.0000 0.0980 -0.9952
vn 0.0000 0.2903 -0.9569
vn 0.0000 0.4714 -0.8819
vn 0.0000 0.6344 -0.7730
vn 0.0000 0.7730 -0.6344
vn 0.0000 0.8819 -0.4714
vn 0.0000 0.9569 -0.2903
vn 0.0000 0.9952 -0.0980
vt 0.000000 1.000000
vt 1.000000 1.000000
vt 1.000000 0.000000
vt 0.000000 0.000000
vt 0.031250 0.000000
vt 0.031250 1.000000
vt 0.062500 0.000000
vt 0.062500 1.000000
vt 0.093750 0.000000
vt 0.093750 1.000000
vt 0.125000 0.000000
vt 0.125000 1.000000
vt 0.156250 0.000000
vt 0.156250 1.000000
vt 0.187500 0.000000
vt 0.187500 1.000000
vt 0.218750 0.000000
vt 0.218750 1.000000
vt 0.250000 0.000000
vt 0.250000 1.000000
vt 0.281250 0.000000
vt 0.281250 1.000000
vt 0.312500 0.000000
vt 0.312500 1.000000
vt 0.343750 0.000000
vt 0.343750 1.000000
vt 0.375000 0.000000
vt 0.375000 1.000000
vt 0.406250 0.000000
vt 0.406250 1.000000
vt 0.437500 0.000000
vt 0.437500 1.000000
vt 0.468750 0.000000
vt 0.468750 1.000000
vt 0.500000 0.000000
vt 0.500000 1.000000
vt 0.531250 0.000000
vt 0.531250 1.000000
vt 0.562500 0.000000
vt 0.562500 1.000000
vt 0.593750 0.000000
vt 0.593750 1.000000
vt 0.625000 0.000000
vt 0.625000 1.000000
vt 0.656250 0.000000
vt 0.656250 1.000000
vt 0.687500 0.000000
vt 0.687500 1.000000
vt 0.718750 0.000000
vt 0.718750 1.000000
vt 0.750000 0.000000
vt 0.750000 1.000000
vt 0.781250 0.000000
vt 0.781250 1.000000
vt 0.812500 0.000000
vt 0.812500 1.000000
vt 0.843750 0.000000
vt 0.843750 1.000000
vt 0.875000 0.000000
vt 0.875000 1.000000
vt 0.906250 0.000000
vt 0.906250 1.000000
vt 0.937500 0.000000
vt 0.937500 1.000000
vt 0.968750 0.000000
vt 0.968750 1.000000
o clamp
usemtl fitting
f 1/1/1 2/2/1 3/3/1 4/4/1
f 5/4/2 6/3/2 7/2/2 8/1/2
f 8/2/3 7/1/3 2/4/3 1/3/3
f 6/2/4 5/1/4 4/4/4 3/3/4
f 5/2/5 8/1/5 1/4/5 4/3/5
f 7/2/6 6/1/6 3/4/6 2/3/6
f 9/4/7 10/5/7 11/6/7 12/1/7
f 10/5/8 13/7/8 14/8/8 11/6/8
f 13/7/9 15/9/9 16/10/9 14/8/9
f 15/9/10 17/11/10 18/12/10 16/10/10
f 17/11/11 19/13/11 20/14/11 18/12/11
f 19/13/12 21/15/12 22/16/12 20/14/12
f 21/15/13 23/17/13 24/18/13 22/16/13
f 23/17/14 25/19/14 26/20/14 24/18/14
f 25/19/15 27/21/15 28/22/15 26/20/15
f 27/21/16 29/23/16 30/24/16 28/22/16
f 29/23/17 31/25/17 32/26/17 30/24/17
f 31/25/18 33/27/18 34/28/18 32/26/18
f 33/27/19 35/29/19 36/30/19 34/28/19
f 35/29/20 37/31/20 38/32/20 36/30/20
f 37/31/21 39/33/21 40/34/21 38/32/21
f 39/33/22 41/35/22 42/36/22 40/34/22
f 41/35/23 43/37/23 44/38/23 42/36/23
f 43/37/24 45/39/24 46/40/24 44/38/24
f 45/39/25 47/41/25 48/42/25 46/40/25
f 47/41/26 49/43/26 50/44/26 48/42/26
f 49/43/27 51/45/27 52/46/27 50/44/27
f 51/45/28 53/47/28 54/48/28 52/46/28
f 53/47/29 55/49/29 56/50/29 54/48/29
f 55/49/30 57/51/30 58/52/30 56/50/30
f 57/51/31 59/53/31 60/54/31 58/52/31
f 59/53/32 61/55/32 62/56/32 60/54/32
f 61/55/33 63/57/33 64/58/33 62/56/33
f 63/57/34 65/59/34 66/60/34 64/58/34
f 65/59/35 67/61/35 68/62/35 66/60/35
f 67/61/36 69/63/36 70/64/36 68/62/36
f 69/63/37 71/65/37 72/66/37 70/64/37
f 71/65/38 9/3/38 12/2/38 72/66/38
f 73/4/7 74/5/7 75/6/7 76/1/7
f 74/5/8 77/7/8 78/8/8 75/6/8
f 77/7/9 79/9/9 80/10/9 78/8/9
f 79/9/10 81/11/10 82/12/10 80/10/10
f 81/11/11 83/13/11 84/14/11 82/12/11
f 83/13/12 85/15/12 86/16/12 84/14/12
f 85/15/13 87/17/13 88/18/13 86/16/13
f 87/17/14 89/19/14 90/20/14 88/18/14
f 89/19/15 91/21/15 92/22/15 90/20/15
f 91/21/16 93/23/16 94/24/16 92/22/16
f 93/23/17 95/25/17 96/26/17 94/24/17
f 95/25/18 97/27/18 98/28/18 96/26/18
f 97/27/19 99/29/19 100/30/19 98/28/19
f 99/29/20 101/31/20 102/32/20 100/30/20
f 101/31/21 103/33/21 104/34/21 102/32/21
f 103/33/22 105/35/22 106/36/22 104/34/22
f 105/35/23 107/37/23 108/38/23 106/36/23
f 107/37/24 109/39/24 110/40/24 108/38/24
f 109/39/25 111/41/25 112/42/25 110/40/25
f 111/41/26 113/43/26 114/44/26 112/42/26
f 113/43/27 115/45/27 116/46/27 114/44/27
f 115/45/28 117/47/28 118/48/28 116/46/28
f 117/47/29 119/49/29 120/50/29 118/48/29
f 119/49/30 121/51/30 122/52/30 120/50/30
f 121/51/31 123/53/31 124/54/31 122/52/31
f 123/53/32 125/55/32 126/56/32 124/54/32
f 125/55/33 127/57/33 128/58/33 126/56/33
f 127/57/34 129/59/34 130/60/34 128/58/34
f 129/59/35 131/61/35 132/62/35 130/60/35
f 131/61/36 133/63/36 134/64/36 132/62/36
f 133/63/37 135/65/37 136/66/37 134/64/37
f 135/65/38 73/3/38 76/2/38 136/66/38
f 137/4/7 138/5/7 139/6/7 140/1/7
f 138/5/8 141/7/8 142/8/8 139/6/8
f 141/7/9 143/9/9 144/10/9 142/8/9
f 143/9/10 145/11/10 146/12/10 144/10/10
f 145/11/11 147/13/11 148/14/11 146/12/11
f 147/13/12 149/15/12 150/16/12 148/14/12
f 149/15/13 151/17/13 152/18/13 150/16/13
f 151/17/14 153/19/14 154/20/14 152/18/14
f 153/19/15 155/21/15 156/22/15 154/20/15
f 155/21/16 157/23/16 158/24/16 156/22/16
f 157/23/17 159/25/17 160/26/17 158/24/17
f 159/25/18 161/27/18 162/28/18 160/26/18
f 161/27/19 163/29/19 164/30/19 162/28/19
f 163/29/20 165/31/20 166/32/20 164/30/20
f 165/31/21 167/33/21 168/34/21 166/32/21
f 167/33/22 169/35/22 170/36/22 168/34/22
f 169/35/23 171/37/23 172/38/23 170/36/23
f 171/37/24 173/39/24 174/40/24 172/38/24
f 173/39/25 175/41/25 176/42/25 174/40/25
f 175/41/26 177/43/26 178/44/26 176/42/26
f 177/43/27 179/45/27 180/46/27 178/44/27
f 179/45/28 181/47/28 182/48/28 180/46/28
f 181/47/29 183/49/29 184/50/29 182/48/29
f 183/49/30 185/51/30 186/52/30 184/50/30
f 185/51/31 187/53/31 188/54/31 186/52/31
f 187/53/32 189/55/32 190/56/32 188/54/32
f 189/55/33 191/57/33 192/58/33 190/56/33
f 191/57/34 193/59/34 194/60/34 192/58/34
f 193/59/35 195/61/35 196/62/35 194/60/35
f 195/61/36 197/63/36 198/64/36 196/62/36
f 197/63/37 199/65/37 200/66/37 198/64/37
f 199/65/38 137/3/38 140/2/38 200/66/38
f 201/4/7 202/5/7 203/6/7 204/1/7
f 202/5/8 205/7/8 206/8/8 203/6/8
f 205/7/9 207/9/9 208/10/9 206/8/9
f 207/9/10 209/11/10 210/12/10 208/10/10
f 209/11/11 211/13/11 212/14/11 210/12/11
f 211/13/12 213/15/12 214/16/12 212/14/12
f 213/15/13 215/17/13 216/18/13 214/16/13
f 215/17/14 217/19/14 218/20/14 216/18/14
f 217/19/15 219/21/15 220/22/15 218/20/15
f 219/21/16 221/23/16 222/24/16 220/22/16
f 221/23/17 223/25/17 224/26/17 222/24/17
f 223/25/18 225/27/18 226/28/18 224/26/18
f 225/27/19 227/29/19 228/30/19 226/28/19
f 227/29/20 229/31/20 230/32/20 228/30/20
f 229/31/21 231/33/21 232/34/21 230/32/21
f 231/33/22 233/35/22 234/36/22 232/34/22
f 233/35/23 235/37/23 236/38/23 234/36/23
f 235/37/24 237/39/24 238/40/24 236/38/24
f 237/39/25 239/41/25 240/42/25 238/40/25
f 239/41/26 241/43/26 242/44/26 240/42/26
f 241/43/27 243/45/27 244/46/27 242/44/27
f 243/45/28 245/47/28 246/48/28 244/46/28
f 245/47/29 247/49/29 248/50/29 246/48/29
f 247/49/30 249/51/30 250/52/30 248/50/30
f 249/51/31 251/53/31 252/54/31 250/52/31
f 251/53/32 253/55/32 254/56/32 252/54/32
f 253/55/33 255/57/33 256/58/33 254/56/33
f 255/57/34 257/59/34 258/60/34 256/58/34
f 257/59/35 259/61/35 260/62/35 258/60/35
f 259/61/36 261/63/36 262/64/36 260/62/36
f 261/63/37 263/65/37 264/66/37 262/64/37
f 263/65/38 201/3/38 204/2/38 264/66/38
f 265/4/39 266/5/39 267/6/39 268/1/39
f 266/5/40 269/7/40 270/8/40 267/6/40
f 269/7/41 271/9/41 272/10/41 270/8/41
f 271/9/42 273/11/42 274/12/42 272/10/42
f 273/11/43 275/13/43 276/14/43 274/12/43
f 275/13/44 277/15/44 278/16/44 276/14/44
f 277/15/45 279/17/45 280/18/45 278/16/45
f 279/17/46 281/19/46 282/20/46 280/18/46
f 281/19/47 283/21/47 284/22/47 282/20/47
f 283/21/48 285/23/48 286/24/48 284/22/48
f 285/23/49 287/25/49 288/26/49 286/24/49
f 287/25/50 289/27/50 290/28/50 288/26/50
f 289/27/51 291/29/51 292/30/51 290/28/51
f 291/29/52 293/31/52 294/32/52 292/30/52
f 293/31/53 295/33/53 296/34/53 294/32/53
f 295/33/54 297/35/54 298/36/54 296/34/54
f 297/35/55 299/37/55 300/38/55 298/36/55
f 299/37/56 301/39/56 302/40/56 300/38/56
f 301/39/57 303/41/57 304/42/57 302/40/57
f 303/41/58 305/43/58 306/44/58 304/42/58
f 305/43/59 307/45/59 308/46/59 306/44/59
f 307/45/60 309/47/60 310/48/60 308/46/60
f 309/47/61 311/49/61 312/50/61 310/48/61
f 311/49/62 313/51/62 314/52/62 312/50/62
f 313/51/63 315/53/63 316/54/63 314/52/63
f 315/53/64 317/55/64 318/56/64 316/54/64
f 317/55/65 319/57/65 320/58/65 318/56/65
f 319/57/66 321/59/66 322/60/66 320/58/66
f 321/59/67 323/61/67 324/62/67 322/60/67
f 323/61/68 325/63/68 326/64/68 324/62/68
f 325/63/69 327/65/69 328/66/69 326/64/69
f 327/65/70 265/3/70 268/2/70 328/66/70
f 329/4/39 330/5/39 331/6/39 332/1/39
f 330/5/40 333/7/40 334/8/40 331/6/40
f 333/7/41 335/9/41 336/10/41 334/8/41
f 335/9/42 337/11/42 338/12/42 336/10/42
f 337/11/43 339/13/43 340/14/43 338/12/43
f 339/13/44 341/15/44 342/16/44 340/14/44
f 341/15/45 343/17/45 344/18/45 342/16/45
f 343/17/46 345/19/46 346/20/46 344/18/46
f 345/19/47 347/21/47 348/22/47 346/20/47
f 347/21/48 349/23/48 350/24/48 348/22/48
f 349/23/49 351/25/49 352/26/49 350/24/49
f 351/25/50 353/27/50 354/28/50 352/26/50
f 353/27/51 355/29/51 356/30/51 354/28/51
f 355/29/52 357/31/52 358/32/52 356/30/52
f 357/31/53 359/33/53 360/34/53 358/32/53
f 359/33/54 361/35/54 362/36/54 360/34/54
f 361/35/55 363/37/55 364/38/55 362/36/55
f 363/37/56 365/39/56 366/40/56 364/38/56
f 365/39/57 367/41/57 368/42/57 366/40/57
f 367/41/58 369/43/58 370/44/58 368/42/58
f 369/43/59 371/45/59 372/46/59 370/44/59
f 371/45/60 373/47/60 374/48/60 372/46/60
f 373/47/61 375/49/61 376/50/61 374/48/61
f 375/49/62 377/51/62 378/52/62 376/50/62
f 377/51/63 379/53/63 380/54/63 378/52/63
f 379/53/64 381/55/64 382/56/64 380/54/64
f 381/55/65 383/57/65 384/58/65 382/56/65
f 383/57/66 385/59/66 386/60/66 384/58/66
f 385/59/67 387/61/67 388/62/67 386/60/67
f 387/61/68 389/63/68 390/64/68 388/62/68
f 389/63/69 391/65/69 392/66/69 390/64/69
f 391/65/70 329/3/70 332/2/70 392/66/70
f 393/4/39 394/5/39 395/6/39 396/1/39
f 394/5/40 397/7/40 398/8/40 395/6/40
f 397/7/41 399/9/41 400/10/41 398/8/41
f 399/9/42 401/11/42 402/12/42 400/10/42
f 401/11/43 403/13/43 404/14/43 402/12/43
f 403/13/44 405/15/44 406/16/44 404/14/44
f 405/15/45 407/17/45 408/18/45 406/16/45
f 407/17/46 409/19/46 410/20/46 408/18/46
f 409/19/47 411/21/47 412/22/47 410/20/47
f 411/21/48 413/23/48 414/24/48 412/22/48
f 413/23/49 415/25/49 416/26/49 414/24/49
f 415/25/50 417/27/50 418/28/50 416/26/50
f 417/27/51 419/29/51 420/30/51 418/28/51
f 419/29/52 421/31/52 422/32/52 420/30/52
f 421/31/53 423/33/53 424/34/53 422/32/53
f 423/33/54 425/35/54 426/36/54 424/34/54
f 425/35/55 427/37/55 428/38/55 426/36/55
f 427/37/56 429/39/56 430/40/56 428/38/56
f 429/39/57 431/41/57 432/42/57 430/40/57
f 431/41/58 433/43/58 434/44/58 432/42/58
f 433/43/59 435/45/59 436/46/59 434/44/59
f 435/45/60 437/47/60 438/48/60 436/46/60
f 437/47/61 439/49/61 440/50/61 438/48/61
f 439/49/62 441/51/62 442/52/62 440/50/62
f 441/51/63 443/53/63 444/54/63 442/52/63
f 443/53/64 445/55/64 446/56/64 444/54/64
f 445/55/65 447/57/65 448/58/65 446/56/65
f 447/57/66 449/59/66 450/60/66 448/58/66
f 449/59/67 451/61/67 452/62/67 450/60/67
f 451/61/68 453/63/68 454/64/68 452/62/68
f 453/63/69 455/65/69 456/66/69 454/64/69
f 455/65/70 393/3/70 396/2/70 456/66/70
f 457/4/39 458/5/39 459/6/39 460/1/39
f 458/5/40 461/7/40 462/8/40 459/6/40
f 461/7/41 463/9/41 464/10/41 462/8/41
f 463/9/42 465/11/42 466/12/42 464/10/42
f 465/11/43 467/13/43 468/14/43 466/12/43
f 467/13/44 469/15/44 470/16/44 468/14/44
f 469/15/45 471/17/45 472/18/45 470/16/45
f 471/17/46 473/19/46 474/20/46 472/18/46
f 473/19/47 475/21/47 476/22/47 474/20/47
f 475/21/48 477/23/48 478/24/48 476/22/48
f 477/23/49 479/25/49 480/26/49 478/24/49
f 479/25/50 481/27/50 482/28/50 480/26/50
f 481/27/51 483/29/51 484/30/51 482/28/51
f 483/29/52 485/31/52 486/32/52 484/30/52
f 485/31/53 487/33/53 488/34/53 486/32/53
f 487/33/54 489/35/54 490/36/54 488/34/54
f 489/35/55 491/37/55 492/38/55 490/36/55
f 491/37/56 493/39/56 494/40/56 492/38/56
f 493/39/57 495/41/57 496/42/57 494/40/57
f 495/41/58 497/43/58 498/44/58 496/42/58
f 497/43/59 499/45/59 500/46/59 498/44/59
f 499/45/60 501/47/60 502/48/60 500/46/60
f 501/47/61 503/49/61 504/50/61 502/48/61
f 503/49/62 505/51/62 506/52/62 504/50/62
f 505/51/63 507/53/63 508/54/63 506/52/63
f 507/53/64 509/55/64 510/56/64 508/54/64
f 509/55/65 511/57/65 512/58/65 510/56/65
f 511/57/66 513/59/66 514/60/66 512/58/66
f 513/59/67 515/61/67 516/62/67 514/60/67
f 515/61/68 517/63/68 518/64/68 516/62/68
f 517/63/69 519/65/69 520/66/69 518/64/69
f 519/65/70 457/3/70 460/2/70 520/66/70
f 521/4/7 522/5/7 523/6/7 524/1/7
f 522/5/8 525/7/8 526/8/8 523/6/8
f 525/7/9 527/9/9 528/10/9 526/8/9
f 527/9/10 529/11/10 530/12/10 528/10/10
f 529/11/11 531/13/11 532/14/11 530/12/11
f 531/13/12 533/15/12 534/16/12 532/14/12
f 533/15/13 535/17/13 536/18/13 534/16/13
f 535/17/14 537/19/14 538/20/14 536/18/14
f 537/19/15 539/21/15 540/22/15 538/20/15
f 539/21/16 541/23/16 542/24/16 540/22/16
f 541/23/17 543/25/17 544/26/17 542/24/17
f 543/25/18 545/27/18 546/28/18 544/26/18
f 545/27/19 547/29/19 548/30/19 546/28/19
f 547/29/20 549/31/20 550/32/20 548/30/20
f 549/31/21 551/33/21 552/34/21 550/32/21
f 551/33/22 553/35/22 554/36/22 552/34/22
f 553/35/23 555/37/23 556/38/23 554/36/23
f 555/37/24 557/39/24 558/40/24 556/38/24
f 557/39/25 559/41/25 560/42/25 558/40/25
f 559/41/26 561/43/26 562/44/26 560/42/26
f 561/43/27 563/45/27 564/46/27 562/44/27
f 563/45/28 565/47/28 566/48/28 564/46/28
f 565/47/29 567/49/29 568/50/29 566/48/29
f 567/49/30 569/51/30 570/52/30 568/50/30
f 569/51/31 571/53/31 572/54/31 570/52/31
f 571/53/32 573/55/32 574/56/32 572/54/32
f 573/55/33 575/57/33 576/58/33 574/56/33
f 575/57/34 577/59/34 578/60/34 576/58/34
f 577/59/35 579/61/35 580/62/35 578/60/35
f 579/61/36 581/63/36 582/64/36 580/62/36
f 581/63/37 583/65/37 584/66/37 582/64/37
f 583/65/38 521/3/38 524/2/38 584/66/38
f 585/4/7 586/5/7 587/6/7 588/1/7
f 586/5/8 589/7/8 590/8/8 587/6/8
f 589/7/9 591/9/9 592/10/9 590/8/9
f 591/9/10 593/11/10 594/12/10 592/10/10
f 593/11/11 595/13/11 596/14/11 594/12/11
f 595/13/12 597/15/12 598/16/12 596/14/12
f 597/15/13 599/17/13 600/18/13 598/16/13
f 599/17/14 601/19/14 602/20/14 600/18/14
f 601/19/15 603/21/15 604/22/15 602/20/15
f 603/21/16 605/23/16 606/24/16 604/22/16
f 605/23/17 607/25/17 608/26/17 606/24/17
f 607/25/18 609/27/18 610/28/18 608/26/18
f 609/27/19 611/29/19 612/30/19 610/28/19
f 611/29/20 613/31/20 614/32/20 612/30/20
f 613/31/21 615/33/21 616/34/21 614/32/21
f 615/33/22 617/35/22 618/36/22 616/34/22
f 617/35/23 619/37/23 620/38/23 618/36/23
f 619/37/24 621/39/24 622/40/24 620/38/24
f 621/39/25 623/41/25 624/42/25 622/40/25
f 623/41/26 625/43/26 626/44/26 624/42/26
f 625/43/27 627/45/27 628/46/27 626/44/27
f 627/45/28 629/47/28 630/48/28 628/46/28
f 629/47/29 631/49/29 632/50/29 630/48/29
f 631/49/30 633/51/30 634/52/30 632/50/30
f 633/51/31 635/53/31 636/54/31 634/52/31
f 635/53/32 637/55/32 638/56/32 636/54/32
f 637/55/33 639/57/33 640/58/33 638/56/33
f 639/57/34 641/59/34 642/60/34 640/58/34
f 641/59/35 643/61/35 644/62/35 642/60/35
f 643/61/36 645/63/36 646/64/36 644/62/36
f 645/63/37 647/65/37 648/66/37 646/64/37
f 647/65/38 585/3/38 588/2/38 648/66/38
f 649/4/7 650/5/7 651/6/7 652/1/7
f 650/5/8 653/7/8 654/8/8 651/6/8
f 653/7/9 655/9/9 656/10/9 654/8/9
f 655/9/10 657/11/10 658/12/10 656/10/10
f 657/11/11 659/13/11 660/14/11 658/12/11
f 659/13/12 661/15/12 662/16/12 660/14/12
f 661/15/13 663/17/13 664/18/13 662/16/13
f 663/17/14 665/19/14 666/20/14 664/18/14
f 665/19/15 667/21/15 668/22/15 666/20/15
f 667/21/16 669/23/16 670/24/16 668/22/16
f 669/23/17 671/25/17 672/26/17 670/24/17
f 671/25/18 673/27/18 674/28/18 672/26/18
f 673/27/19 675/29/19 676/30/19 674/28/19
f 675/29/20 677/31/20 678/32/20 676/30/20
f 677/31/21 679/33/21 680/34/21 678/32/21
f 679/33/22 681/35/22 682/36/22 680/34/22
f 681/35/23 683/37/23 684/38/23 682/36/23
f 683/37/24 685/39/24 686/40/24 684/38/24
f 685/39/25 687/41/25 688/42/25 686/40/25
f 687/41/26 689/43/26 690/44/26 688/42/26
f 689/43/27 691/45/27 692/46/27 690/44/27
f 691/45/28 693/47/28 694/48/28 692/46/28
f 693/47/29 695/49/29 696/50/29 694/48/29
f 695/49/30 697/51/30 698/52/30 696/50/30
f 697/51/31 699/53/31 700/54/31 698/52/31
f 699/53/32 701/55/32 702/56/32 700/54/32
f 701/55/33 703/57/33 704/58/33 702/56/33
f 703/57/34 705/59/34 706/60/34 704/58/34
f 705/59/35 707/61/35 708/62/35 706/60/35
f 707/61/36 709/63/36 710/64/36 708/62/36
f 709/63/37 711/65/37 712/66/37 710/64/37
f 711/65/38 649/3/38 652/2/38 712/66/38
f 713/4/7 714/5/7 715/6/7 716/1/7
f 714/5/8 717/7/8 718/8/8 715/6/8
f 717/7/9 719/9/9 720/10/9 718/8/9
f 719/9/10 721/11/10 722/12/10 720/10/10
f 721/11/11 723/13/11 724/14/11 722/12/11
f 723/13/12 725/15/12 726/16/12 724/14/12
f 725/15/13 727/17/13 728/18/13 726/16/13
f 727/17/14 729/19/14 730/20/14 728/18/14
f 729/19/15 731/21/15 732/22/15 730/20/15
f 731/21/16 733/23/16 734/24/16 732/22/16
f 733/23/17 735/25/17 736/26/17 734/24/17
f 735/25/18 737/27/18 738/28/18 736/26/18
f 737/27/19 739/29/19 740/30/19 738/28/19
f 739/29/20 741/31/20 742/32/20 740/30/20
f 741/31/21 743/33/21 744/34/21 742/32/21
f 743/33/22 745/35/22 746/36/22 744/34/22
f 745/35/23 747/37/23 748/38/23 746/36/23
f 747/37/24 749/39/24 750/40/24 748/38/24
f 749/39/25 751/41/25 752/42/25 750/40/25
f 751/41/26 753/43/26 754/44/26 752/42/26
f 753/43/27 755/45/27 756/46/27 754/44/27
f 755/45/28 757/47/28 758/48/28 756/46/28
f 757/47/29 759/49/29 760/50/29 758/48/29
f 759/49/30 761/51/30 762/52/30 760/50/30
f 761/51/31 763/53/31 764/54/31 762/52/31
f 763/53/32 765/55/32 766/56/32 764/54/32
f 765/55/33 767/57/33 768/58/33 766/56/33
f 767/57/34 769/59/34 770/60/34 768/58/34
f 769/59/35 771/61/35 772/62/35 770/60/35
f 771/61/36 773/63/36 774/64/36 772/62/36
f 773/63/37 775/65/37 776/66/37 774/64/37
f 775/65/38 713/3/38 716/2/38 776/66/38
