# generated by tools/gen_conductor_models.py - do not edit by hand
mtllib bend.mtl
v 0.500000 0.110000 0.287500
v 0.489303 0.108943 0.288342
v 0.492018 0.108943 0.322421
v 0.502616 0.110000 0.320742
v 0.479017 0.105813 0.289151
v 0.481828 0.105813 0.324035
v 0.469538 0.100731 0.289897
v 0.472436 0.100731 0.325522
v 0.461229 0.093891 0.290551
v 0.464204 0.093891 0.326826
v 0.454410 0.085556 0.291088
v 0.457448 0.085556 0.327896
v 0.449343 0.076048 0.291487
v 0.452428 0.076048 0.328691
v 0.446223 0.065730 0.291732
v 0.449337 0.065730 0.329181
v 0.445170 0.055000 0.291815
v 0.448293 0.055000 0.329346
v 0.446223 0.044270 0.291732
v 0.449337 0.044270 0.329181
v 0.449343 0.033952 0.291487
v 0.452428 0.033952 0.328691
v 0.454410 0.024444 0.291088
v 0.457448 0.024444 0.327896
v 0.461229 0.016109 0.290551
v 0.464204 0.016109 0.326826
v 0.469538 0.009269 0.289897
v 0.472436 0.009269 0.325522
v 0.479017 0.004187 0.289151
v 0.481828 0.004187 0.324035
v 0.489303 0.001057 0.288342
v 0.492018 0.001057 0.322421
v 0.500000 0.000000 0.287500
v 0.502616 0.000000 0.320742
v 0.510697 0.001057 0.286658
v 0.513214 0.001057 0.319064
v 0.520983 0.004187 0.285849
v 0.523405 0.004187 0.317450
v 0.530462 0.009269 0.285103
v 0.532796 0.009269 0.315962
v 0.538771 0.016109 0.284449
v 0.541028 0.016109 0.314658
v 0.545590 0.024444 0.283912
v 0.547784 0.024444 0.313588
v 0.550657 0.033952 0.283513
v 0.552804 0.033952 0.312793
v 0.553777 0.044270 0.283268
v 0.555895 0.044270 0.312304
v 0.554830 0.055000 0.283185
v 0.556939 0.055000 0.312138
v 0.553777 0.065730 0.283268
v 0.555895 0.065730 0.312304
v 0.550657 0.076048 0.283513
v 0.552804 0.076048 0.312793
v 0.545590 0.085556 0.283912
v 0.547784 0.085556 0.313588
v 0.538771 0.093891 0.284449
v 0.541028 0.093891 0.314658
v 0.530462 0.100731 0.285103
v 0.532796 0.100731 0.315962
v 0.520983 0.105813 0.285849
v 0.523405 0.105813 0.317450
v 0.510697 0.108943 0.286658
v 0.513214 0.108943 0.319064
v 0.500196 0.108943 0.356482
v 0.510400 0.110000 0.353166
v 0.490383 0.105813 0.359670
v 0.481340 0.100731 0.362609
v 0.473413 0.093891 0.365184
v 0.466908 0.085556 0.367298
v 0.462074 0.076048 0.368868
v 0.459097 0.065730 0.369835
v 0.458092 0.055000 0.370162
v 0.459097 0.044270 0.369835
v 0.462074 0.033952 0.368868
v 0.466908 0.024444 0.367298
v 0.473413 0.016109 0.365184
v 0.481340 0.009269 0.362609
v 0.490383 0.004187 0.359670
v 0.500196 0.001057 0.356482
v 0.510400 0.000000 0.353166
v 0.520605 0.001057 0.349850
v 0.530418 0.004187 0.346662
v 0.539461 0.009269 0.343724
v 0.547388 0.016109 0.341148
v 0.553893 0.024444 0.339035
v 0.558727 0.033952 0.337464
v 0.561704 0.044270 0.336497
v 0.562709 0.055000 0.336170
v 0.561704 0.065730 0.336497
v 0.558727 0.076048 0.337464
v 0.553893 0.085556 0.339035
v 0.547388 0.093891 0.341148
v 0.539461 0.100731 0.343724
v 0.530418 0.105813 0.346662
v 0.520605 0.108943 0.349850
v 0.513601 0.108943 0.388844
v 0.523161 0.110000 0.383973
v 0.504408 0.105813 0.393528
v 0.495935 0.100731 0.397845
v 0.488509 0.093891 0.401629
v 0.482415 0.085556 0.404734
v 0.477886 0.076048 0.407042
v 0.475097 0.065730 0.408463
v 0.474156 0.055000 0.408942
v 0.475097 0.044270 0.408463
v 0.477886 0.033952 0.407042
v 0.482415 0.024444 0.404734
v 0.488509 0.016109 0.401629
v 0.495935 0.009269 0.397845
v 0.504408 0.004187 0.393528
v 0.513601 0.001057 0.388844
v 0.523161 0.000000 0.383973
v 0.532722 0.001057 0.379102
v 0.541915 0.004187 0.374418
v 0.550387 0.009269 0.370101
v 0.557813 0.016109 0.366317
v 0.563908 0.024444 0.363212
v 0.568436 0.033952 0.360904
v 0.571225 0.044270 0.359483
v 0.572166 0.055000 0.359004
v 0.571225 0.065730 0.359483
v 0.568436 0.076048 0.360904
v 0.563908 0.085556 0.363212
v 0.557813 0.093891 0.366317
v 0.550387 0.100731 0.370101
v 0.541915 0.105813 0.374418
v 0.532722 0.108943 0.379102
v 0.531903 0.108943 0.418711
v 0.540584 0.110000 0.412404
v 0.523556 0.105813 0.424776
v 0.515863 0.100731 0.430365
v 0.509121 0.093891 0.435264
v 0.503587 0.085556 0.439284
v 0.499475 0.076048 0.442272
v 0.496943 0.065730 0.444111
v 0.496088 0.055000 0.444733
v 0.496943 0.044270 0.444111
v 0.499475 0.033952 0.442272
v 0.503587 0.024444 0.439284
v 0.509121 0.016109 0.435264
v 0.515863 0.009269 0.430365
v 0.523556 0.004187 0.424776
v 0.531903 0.001057 0.418711
v 0.540584 0.000000 0.412404
v 0.549265 0.001057 0.406097
v 0.557612 0.004187 0.400033
v 0.565305 0.009269 0.394444
v 0.572047 0.016109 0.389545
v 0.577581 0.024444 0.385524
v 0.581693 0.033952 0.382537
v 0.584225 0.044270 0.380697
v 0.585080 0.055000 0.380076
v 0.584225 0.065730 0.380697
v 0.581693 0.076048 0.382537
v 0.577581 0.085556 0.385524
v 0.572047 0.093891 0.389545
v 0.565305 0.100731 0.394444
v 0.557612 0.105813 0.400033
v 0.549265 0.108943 0.406097
v 0.554653 0.108943 0.445347
v 0.562240 0.110000 0.437760
v 0.547357 0.105813 0.452643
v 0.540633 0.100731 0.459367
v 0.534740 0.093891 0.465260
v 0.529903 0.085556 0.470097
v 0.526309 0.076048 0.473691
v 0.524096 0.065730 0.475904
v 0.523349 0.055000 0.476651
v 0.524096 0.044270 0.475904
v 0.526309 0.033952 0.473691
v 0.529903 0.024444 0.470097
v 0.534740 0.016109 0.465260
v 0.540633 0.009269 0.459367
v 0.547357 0.004187 0.452643
v 0.554653 0.001057 0.445347
v 0.562240 0.000000 0.437760
v 0.569827 0.001057 0.430173
v 0.577123 0.004187 0.422877
v 0.583846 0.009269 0.416154
v 0.589740 0.016109 0.410260
v 0.594576 0.024444 0.405424
v 0.598170 0.033952 0.401830
v 0.600383 0.044270 0.399617
v 0.601131 0.055000 0.398869
v 0.600383 0.065730 0.399617
v 0.598170 0.076048 0.401830
v 0.594576 0.085556 0.405424
v 0.589740 0.093891 0.410260
v 0.583846 0.100731 0.416154
v 0.577123 0.105813 0.422877
v 0.569827 0.108943 0.430173
v 0.581289 0.108943 0.468097
v 0.587596 0.110000 0.459416
v 0.575224 0.105813 0.476444
v 0.569635 0.100731 0.484137
v 0.564736 0.093891 0.490879
v 0.560716 0.085556 0.496413
v 0.557728 0.076048 0.500525
v 0.555889 0.065730 0.503057
v 0.555267 0.055000 0.503912
v 0.555889 0.044270 0.503057
v 0.557728 0.033952 0.500525
v 0.560716 0.024444 0.496413
v 0.564736 0.016109 0.490879
v 0.569635 0.009269 0.484137
v 0.575224 0.004187 0.476444
v 0.581289 0.001057 0.468097
v 0.587596 0.000000 0.459416
v 0.593903 0.001057 0.450735
v 0.599967 0.004187 0.442388
v 0.605556 0.009269 0.434695
v 0.610455 0.016109 0.427953
v 0.614476 0.024444 0.422419
v 0.617463 0.033952 0.418307
v 0.619303 0.044270 0.415775
v 0.619924 0.055000 0.414920
v 0.619303 0.065730 0.415775
v 0.617463 0.076048 0.418307
v 0.614476 0.085556 0.422419
v 0.610455 0.093891 0.427953
v 0.605556 0.100731 0.434695
v 0.599967 0.105813 0.442388
v 0.593903 0.108943 0.450735
v 0.611156 0.108943 0.486399
v 0.616027 0.110000 0.476839
v 0.606472 0.105813 0.495592
v 0.602155 0.100731 0.504065
v 0.598371 0.093891 0.511491
v 0.595266 0.085556 0.517585
v 0.592958 0.076048 0.522114
v 0.591537 0.065730 0.524903
v 0.591058 0.055000 0.525844
v 0.591537 0.044270 0.524903
v 0.592958 0.033952 0.522114
v 0.595266 0.024444 0.517585
v 0.598371 0.016109 0.511491
v 0.602155 0.009269 0.504065
v 0.606472 0.004187 0.495592
v 0.611156 0.001057 0.486399
v 0.616027 0.000000 0.476839
v 0.620898 0.001057 0.467278
v 0.625582 0.004187 0.458085
v 0.629899 0.009269 0.449613
v 0.633683 0.016109 0.442187
v 0.636788 0.024444 0.436092
v 0.639096 0.033952 0.431564
v 0.640517 0.044270 0.428775
v 0.640996 0.055000 0.427834
v 0.640517 0.065730 0.428775
v 0.639096 0.076048 0.431564
v 0.636788 0.085556 0.436092
v 0.633683 0.093891 0.442187
v 0.629899 0.100731 0.449613
v 0.625582 0.105813 0.458085
v 0.620898 0.108943 0.467278
v 0.643518 0.108943 0.499804
v 0.646834 0.110000 0.489600
v 0.640330 0.105813 0.509617
v 0.637391 0.100731 0.518660
v 0.634816 0.093891 0.526587
v 0.632702 0.085556 0.533092
v 0.631132 0.076048 0.537926
v 0.630165 0.065730 0.540903
v 0.629838 0.055000 0.541908
v 0.630165 0.044270 0.540903
v 0.631132 0.033952 0.537926
v 0.632702 0.024444 0.533092
v 0.634816 0.016109 0.526587
v 0.637391 0.009269 0.518660
v 0.640330 0.004187 0.509617
v 0.643518 0.001057 0.499804
v 0.646834 0.000000 0.489600
v 0.650150 0.001057 0.479395
v 0.653338 0.004187 0.469582
v 0.656276 0.009269 0.460539
v 0.658852 0.016109 0.452612
v 0.660965 0.024444 0.446107
v 0.662536 0.033952 0.441273
v 0.663503 0.044270 0.438296
v 0.663830 0.055000 0.437291
v 0.663503 0.065730 0.438296
v 0.662536 0.076048 0.441273
v 0.660965 0.085556 0.446107
v 0.658852 0.093891 0.452612
v 0.656276 0.100731 0.460539
v 0.653338 0.105813 0.469582
v 0.650150 0.108943 0.479395
v 0.677579 0.108943 0.507982
v 0.679258 0.110000 0.497384
v 0.675965 0.105813 0.518172
v 0.674478 0.100731 0.527564
v 0.673174 0.093891 0.535796
v 0.672104 0.085556 0.542552
v 0.671309 0.076048 0.547572
v 0.670819 0.065730 0.550663
v 0.670654 0.055000 0.551707
v 0.670819 0.044270 0.550663
v 0.671309 0.033952 0.547572
v 0.672104 0.024444 0.542552
v 0.673174 0.016109 0.535796
v 0.674478 0.009269 0.527564
v 0.675965 0.004187 0.518172
v 0.677579 0.001057 0.507982
v 0.679258 0.000000 0.497384
v 0.680936 0.001057 0.486786
v 0.682550 0.004187 0.476595
v 0.684038 0.009269 0.467204
v 0.685342 0.016109 0.458972
v 0.686412 0.024444 0.452216
v 0.687207 0.033952 0.447196
v 0.687696 0.044270 0.444105
v 0.687862 0.055000 0.443061
v 0.687696 0.065730 0.444105
v 0.687207 0.076048 0.447196
v 0.686412 0.085556 0.452216
v 0.685342 0.093891 0.458972
v 0.684038 0.100731 0.467204
v 0.682550 0.105813 0.476595
v 0.680936 0.108943 0.486786
v 0.711658 0.108943 0.510697
v 0.712500 0.110000 0.500000
v 0.710849 0.105813 0.520983
v 0.710103 0.100731 0.530462
v 0.709449 0.093891 0.538771
v 0.708912 0.085556 0.545590
v 0.708513 0.076048 0.550657
v 0.708268 0.065730 0.553777
v 0.708185 0.055000 0.554830
v 0.708268 0.044270 0.553777
v 0.708513 0.033952 0.550657
v 0.708912 0.024444 0.545590
v 0.709449 0.016109 0.538771
v 0.710103 0.009269 0.530462
v 0.710849 0.004187 0.520983
v 0.711658 0.001057 0.510697
v 0.712500 0.000000 0.500000
v 0.713342 0.001057 0.489303
v 0.714151 0.004187 0.479017
v 0.714897 0.009269 0.469538
v 0.715551 0.016109 0.461229
v 0.716088 0.024444 0.454410
v 0.716487 0.033952 0.449343
v 0.716732 0.044270 0.446223
v 0.716815 0.055000 0.445170
v 0.716732 0.065730 0.446223
v 0.716487 0.076048 0.449343
v 0.716088 0.085556 0.454410
v 0.715551 0.093891 0.461229
v 0.714897 0.100731 0.469538
v 0.714151 0.105813 0.479017
v 0.713342 0.108943 0.489303
vn -0.0972 0.9904 0.0077
vn -0.2880 0.9523 0.0227
vn -0.4677 0.8777 0.0368
vn -0.6294 0.7693 0.0495
vn -0.7669 0.6313 0.0604
vn -0.8750 0.4691 0.0689
vn -0.9494 0.2889 0.0747
vn -0.9873 0.0975 0.0777
vn -0.9873 -0.0975 0.0777
vn -0.9494 -0.2889 0.0747
vn -0.8750 -0.4691 0.0689
vn -0.7669 -0.6313 0.0604
vn -0.6294 -0.7693 0.0495
vn -0.4677 -0.8777 0.0368
vn -0.2880 -0.9523 0.0227
vn -0.0972 -0.9904 0.0077
vn 0.0972 -0.9904 -0.0077
vn 0.2880 -0.9523 -0.0227
vn 0.4677 -0.8777 -0.0368
vn 0.6294 -0.7693 -0.0495
vn 0.7669 -0.6313 -0.0604
vn 0.8750 -0.4691 -0.0689
vn 0.9494 -0.2889 -0.0747
vn 0.9873 -0.0975 -0.0777
vn 0.9873 0.0975 -0.0777
vn 0.9494 0.2889 -0.0747
vn 0.8750 0.4691 -0.0689
vn 0.7669 0.6313 -0.0604
vn 0.6294 0.7693 -0.0495
vn 0.4677 0.8777 -0.0368
vn 0.2880 0.9523 -0.0227
vn 0.0972 0.9904 -0.0077
vn -0.0963 0.9904 0.0153
vn -0.2853 0.9523 0.0452
vn -0.4634 0.8777 0.0734
vn -0.6236 0.7693 0.0988
vn -0.7598 0.6313 0.1203
vn -0.8669 0.4691 0.1373
vn -0.9406 0.2889 0.1490
vn -0.9782 0.0975 0.1549
vn -0.9782 -0.0975 0.1549
vn -0.9406 -0.2889 0.1490
vn -0.8669 -0.4691 0.1373
vn -0.7598 -0.6313 0.1203
vn -0.6236 -0.7693 0.0988
vn -0.4634 -0.8777 0.0734
vn -0.2853 -0.9523 0.0452
vn -0.0963 -0.9904 0.0153
vn 0.0963 -0.9904 -0.0153
vn 0.2853 -0.9523 -0.0452
vn 0.4634 -0.8777 -0.0734
vn 0.6236 -0.7693 -0.0988
vn 0.7598 -0.6313 -0.1203
vn 0.8669 -0.4691 -0.1373
vn 0.9406 -0.2889 -0.1490
vn 0.9782 -0.0975 -0.1549
vn 0.9782 0.0975 -0.1549
vn 0.9406 0.2889 -0.1490
vn 0.8669 0.4691 -0.1373
vn 0.7598 0.6313 -0.1203
vn 0.6236 0.7693 -0.0988
vn 0.4634 0.8777 -0.0734
vn 0.2853 0.9523 -0.0452
vn 0.0963 0.9904 -0.0153
vn -0.0928 0.9904 0.0301
vn -0.2747 0.9523 0.0893
vn -0.4462 0.8777 0.1450
vn -0.6004 0.7693 0.1951
vn -0.7316 0.6313 0.2377
vn -0.8347 0.4691 0.2712
vn -0.9057 0.2889 0.2943
vn -0.9419 0.0975 0.3060
vn -0.9419 -0.0975 0.3060
vn -0.9057 -0.2889 0.2943
vn -0.8347 -0.4691 0.2712
vn -0.7316 -0.6313 0.2377
vn -0.6004 -0.7693 0.1951
vn -0.4462 -0.8777 0.1450
vn -0.2747 -0.9523 0.0893
vn -0.0928 -0.9904 0.0301
vn 0.0928 -0.9904 -0.0301
vn 0.2747 -0.9523 -0.0893
vn 0.4462 -0.8777 -0.1450
vn 0.6004 -0.7693 -0.1951
vn 0.7316 -0.6313 -0.2377
vn 0.8347 -0.4691 -0.2712
vn 0.9057 -0.2889 -0.2943
vn 0.9419 -0.0975 -0.3060
vn 0.9419 0.0975 -0.3060
vn 0.9057 0.2889 -0.2943
vn 0.8347 0.4691 -0.2712
vn 0.7316 0.6313 -0.2377
vn 0.6004 0.7693 -0.1951
vn 0.4462 0.8777 -0.1450
vn 0.2747 0.9523 -0.0893
vn 0.0928 0.9904 -0.0301
vn -0.0869 0.9904 0.0443
vn -0.2574 0.9523 0.1312
vn -0.4180 0.8777 0.2130
vn -0.5625 0.7693 0.2866
vn -0.6854 0.6313 0.3493
vn -0.7820 0.4691 0.3985
vn -0.8485 0.2889 0.4324
vn -0.8824 0.0975 0.4496
vn -0.8824 -0.0975 0.4496
vn -0.8485 -0.2889 0.4324
vn -0.7820 -0.4691 0.3985
vn -0.6854 -0.6313 0.3493
vn -0.5625 -0.7693 0.2866
vn -0.4180 -0.8777 0.2130
vn -0.2574 -0.9523 0.1312
vn -0.0869 -0.9904 0.0443
vn 0.0869 -0.9904 -0.0443
vn 0.2574 -0.9523 -0.1312
vn 0.4180 -0.8777 -0.2130
vn 0.5625 -0.7693 -0.2866
vn 0.6854 -0.6313 -0.3493
vn 0.7820 -0.4691 -0.3985
vn 0.8485 -0.2889 -0.4324
vn 0.8824 -0.0975 -0.4496
vn 0.8824 0.0975 -0.4496
vn 0.8485 0.2889 -0.4324
vn 0.7820 0.4691 -0.3985
vn 0.6854 0.6313 -0.3493
vn 0.5625 0.7693 -0.2866
vn 0.4180 0.8777 -0.2130
vn 0.2574 0.9523 -0.1312
vn 0.0869 0.9904 -0.0443
vn -0.0789 0.9904 0.0573
vn -0.2337 0.9523 0.1698
vn -0.3795 0.8777 0.2757
vn -0.5108 0.7693 0.3711
vn -0.6224 0.6313 0.4522
vn -0.7101 0.4691 0.5159
vn -0.7705 0.2889 0.5598
vn -0.8012 0.0975 0.5821
vn -0.8012 -0.0975 0.5821
vn -0.7705 -0.2889 0.5598
vn -0.7101 -0.4691 0.5159
vn -0.6224 -0.6313 0.4522
vn -0.5108 -0.7693 0.3711
vn -0.3795 -0.8777 0.2757
vn -0.2337 -0.9523 0.1698
vn -0.0789 -0.9904 0.0573
vn 0.0789 -0.9904 -0.0573
vn 0.2337 -0.9523 -0.1698
vn 0.3795 -0.8777 -0.2757
vn 0.5108 -0.7693 -0.3711
vn 0.6224 -0.6313 -0.4522
vn 0.7101 -0.4691 -0.5159
vn 0.7705 -0.2889 -0.5598
vn 0.8012 -0.0975 -0.5821
vn 0.8012 0.0975 -0.5821
vn 0.7705 0.2889 -0.5598
vn 0.7101 0.4691 -0.5159
vn 0.6224 0.6313 -0.4522
vn 0.5108 0.7693 -0.3711
vn 0.3795 0.8777 -0.2757
vn 0.2337 0.9523 -0.1698
vn 0.0789 0.9904 -0.0573
vn -0.0690 0.9904 0.0690
vn -0.2043 0.9523 0.2043
vn -0.3317 0.8777 0.3317
vn -0.4464 0.7693 0.4464
vn -0.5440 0.6313 0.5440
vn -0.6206 0.4691 0.6206
vn -0.6734 0.2889 0.6734
vn -0.7003 0.0975 0.7003
vn -0.7003 -0.0975 0.7003
vn -0.6734 -0.2889 0.6734
vn -0.6206 -0.4691 0.6206
vn -0.5440 -0.6313 0.5440
vn -0.4464 -0.7693 0.4464
vn -0.3317 -0.8777 0.3317
vn -0.2043 -0.9523 0.2043
vn -0.0690 -0.9904 0.0690
vn 0.0690 -0.9904 -0.0690
vn 0.2043 -0.9523 -0.2043
vn 0.3317 -0.8777 -0.3317
vn 0.4464 -0.7693 -0.4464
vn 0.5440 -0.6313 -0.5440
vn 0.6206 -0.4691 -0.6206
vn 0.6734 -0.2889 -0.6734
vn 0.7003 -0.0975 -0.7003
vn 0.7003 0.0975 -0.7003
vn 0.6734 0.2889 -0.6734
vn 0.6206 0.4691 -0.6206
vn 0.5440 0.6313 -0.5440
vn 0.4464 0.7693 -0.4464
vn 0.3317 0.8777 -0.3317
vn 0.2043 0.9523 -0.2043
vn 0.0690 0.9904 -0.0690
vn -0.0573 0.9904 0.0789
vn -0.1698 0.9523 0.2337
vn -0.2757 0.8777 0.3795
vn -0.3711 0.7693 0.5108
vn -0.4522 0.6313 0.6224
vn -0.5159 0.4691 0.7101
vn -0.5598 0.2889 0.7705
vn -0.5821 0.0975 0.8012
vn -0.5821 -0.0975 0.8012
vn -0.5598 -0.2889 0.7705
vn -0.5159 -0.4691 0.7101
vn -0.4522 -0.6313 0.6224
vn -0.3711 -0.7693 0.5108
vn -0.2757 -0.8777 0.3795
vn -0.1698 -0.9523 0.2337
vn -0.0573 -0.9904 0.0789
vn 0.0573 -0.9904 -0.0789
vn 0.1698 -0.9523 -0.2337
vn 0.2757 -0.8777 -0.3795
vn 0.3711 -0.7693 -0.5108
vn 0.4522 -0.6313 -0.6224
vn 0.5159 -0.4691 -0.7101
vn 0.5598 -0.2889 -0.7705
vn 0.5821 -0.0975 -0.8012
vn 0.5821 0.0975 -0.8012
vn 0.5598 0.2889 -0.7705
vn 0.5159 0.4691 -0.7101
vn 0.4522 0.6313 -0.6224
vn 0.3711 0.7693 -0.5108
vn 0.2757 0.8777 -0.3795
vn 0.1698 0.9523 -0.2337
vn 0.0573 0.9904 -0.0789
vn -0.0443 0.9904 0.0869
vn -0.1312 0.9523 0.2574
vn -0.2130 0.8777 0.4180
vn -0.2866 0.7693 0.5625
vn -0.3493 0.6313 0.6854
vn -0.3985 0.4691 0.7820
vn -0.4324 0.2889 0.8485
vn -0.4496 0.0975 0.8824
vn -0.4496 -0.0975 0.8824
vn -0.4324 -0.2889 0.8485
vn -0.3985 -0.4691 0.7820
vn -0.3493 -0.6313 0.6854
vn -0.2866 -0.7693 0.5625
vn -0.2130 -0.8777 0.4180
vn -0.1312 -0.9523 0.2574
vn -0.0443 -0.9904 0.0869
vn 0.0443 -0.9904 -0.0869
vn 0.1312 -0.9523 -0.2574
vn 0.2130 -0.8777 -0.4180
vn 0.2866 -0.7693 -0.5625
vn 0.3493 -0.6313 -0.6854
vn 0.3985 -0.4691 -0.7820
vn 0.4324 -0.2889 -0.8485
vn 0.4496 -0.0975 -0.8824
vn 0.4496 0.0975 -0.8824
vn 0.4324 0.2889 -0.8485
vn 0.3985 0.4691 -0.7820
vn 0.3493 0.6313 -0.6854
vn 0.2866 0.7693 -0.5625
vn 0.2130 0.8777 -0.4180
vn 0.1312 0.9523 -0.2574
vn 0.0443 0.9904 -0.0869
vn -0.0301 0.9904 0.0928
vn -0.0893 0.9523 0.2747
vn -0.1450 0.8777 0.4462
vn -0.1951 0.7693 0.6004
vn -0.2377 0.6313 0.7316
vn -0.2712 0.4691 0.8347
vn -0.2943 0.2889 0.9057
vn -0.3060 0.0975 0.9419
vn -0.3060 -0.0975 0.9419
vn -0.2943 -0.2889 0.9057
vn -0.2712 -0.4691 0.8347
vn -0.2377 -0.6313 0.7316
vn -0.1951 -0.7693 0.6004
vn -0.1450 -0.8777 0.4462
vn -0.0893 -0.9523 0.2747
vn -0.0301 -0.9904 0.0928
vn 0.0301 -0.9904 -0.0928
vn 0.0893 -0.9523 -0.2747
vn 0.1450 -0.8777 -0.4462
vn 0.1951 -0.7693 -0.6004
vn 0.2377 -0.6313 -0.7316
vn 0.2712 -0.4691 -0.8347
vn 0.2943 -0.2889 -0.9057
vn 0.3060 -0.0975 -0.9419
vn 0.3060 0.0975 -0.9419
vn 0.2943 0.2889 -0.9057
vn 0.2712 0.4691 -0.8347
vn 0.2377 0.6313 -0.7316
vn 0.1951 0.7693 -0.6004
vn 0.1450 0.8777 -0.4462
vn 0.0893 0.9523 -0.2747
vn 0.0301 0.9904 -0.0928
vn -0.0153 0.9904 0.0963
vn -0.0452 0.9523 0.2853
vn -0.0734 0.8777 0.4634
vn -0.0988 0.7693 0.6236
vn -0.1203 0.6313 0.7598
vn -0.1373 0.4691 0.8669
vn -0.1490 0.2889 0.9406
vn -0.1549 0.0975 0.9782
vn -0.1549 -0.0975 0.9782
vn -0.1490 -0.2889 0.9406
vn -0.1373 -0.4691 0.8669
vn -0.1203 -0.6313 0.7598
vn -0.0988 -0.7693 0.6236
vn -0.0734 -0.8777 0.4634
vn -0.0452 -0.9523 0.2853
vn -0.0153 -0.9904 0.0963
vn 0.0153 -0.9904 -0.0963
vn 0.0452 -0.9523 -0.2853
vn 0.0734 -0.8777 -0.4634
vn 0.0988 -0.7693 -0.6236
vn 0.1203 -0.6313 -0.7598
vn 0.1373 -0.4691 -0.8669
vn 0.1490 -0.2889 -0.9406
vn 0.1549 -0.0975 -0.9782
vn 0.1549 0.0975 -0.9782
vn 0.1490 0.2889 -0.9406
vn 0.1373 0.4691 -0.8669
vn 0.1203 0.6313 -0.7598
vn 0.0988 0.7693 -0.6236
vn 0.0734 0.8777 -0.4634
vn 0.0452 0.9523 -0.2853
vn 0.0153 0.9904 -0.0963
vn -0.0785 -0.0000 -0.9969
vn 0.9969 0.0000 0.0785
vt 0.000000 0.000000
vt 0.031250 0.000000
vt 0.031250 0.100000
vt 0.000000 0.100000
vt 0.062500 0.000000
vt 0.062500 0.100000
vt 0.093750 0.000000
vt 0.093750 0.100000
vt 0.125000 0.000000
vt 0.125000 0.100000
vt 0.156250 0.000000
vt 0.156250 0.100000
vt 0.187500 0.000000
vt 0.187500 0.100000
vt 0.218750 0.000000
vt 0.218750 0.100000
vt 0.250000 0.000000
vt 0.250000 0.100000
vt 0.281250 0.000000
vt 0.281250 0.100000
vt 0.312500 0.000000
vt 0.312500 0.100000
vt 0.343750 0.000000
vt 0.343750 0.100000
vt 0.375000 0.000000
vt 0.375000 0.100000
vt 0.406250 0.000000
vt 0.406250 0.100000
vt 0.437500 0.000000
vt 0.437500 0.100000
vt 0.468750 0.000000
vt 0.468750 0.100000
vt 0.500000 0.000000
vt 0.500000 0.100000
vt 0.531250 0.000000
vt 0.531250 0.100000
vt 0.562500 0.000000
vt 0.562500 0.100000
vt 0.593750 0.000000
vt 0.593750 0.100000
vt 0.625000 0.000000
vt 0.625000 0.100000
vt 0.656250 0.000000
vt 0.656250 0.100000
vt 0.687500 0.000000
vt 0.687500 0.100000
vt 0.718750 0.000000
vt 0.718750 0.100000
vt 0.750000 0.000000
vt 0.750000 0.100000
vt 0.781250 0.000000
vt 0.781250 0.100000
vt 0.812500 0.000000
vt 0.812500 0.100000
vt 0.843750 0.000000
vt 0.843750 0.100000
vt 0.875000 0.000000
vt 0.875000 0.100000
vt 0.906250 0.000000
vt 0.906250 0.100000
vt 0.937500 0.000000
vt 0.937500 0.100000
vt 0.968750 0.000000
vt 0.968750 0.100000
vt 1.000000 0.000000
vt 1.000000 0.100000
vt 0.031250 0.200000
vt 0.000000 0.200000
vt 0.062500 0.200000
vt 0.093750 0.200000
vt 0.125000 0.200000
vt 0.156250 0.200000
vt 0.187500 0.200000
vt 0.218750 0.200000
vt 0.250000 0.200000
vt 0.281250 0.200000
vt 0.312500 0.200000
vt 0.343750 0.200000
vt 0.375000 0.200000
vt 0.406250 0.200000
vt 0.437500 0.200000
vt 0.468750 0.200000
vt 0.500000 0.200000
vt 0.531250 0.200000
vt 0.562500 0.200000
vt 0.593750 0.200000
vt 0.625000 0.200000
vt 0.656250 0.200000
vt 0.687500 0.200000
vt 0.718750 0.200000
vt 0.750000 0.200000
vt 0.781250 0.200000
vt 0.812500 0.200000
vt 0.843750 0.200000
vt 0.875000 0.200000
vt 0.906250 0.200000
vt 0.937500 0.200000
vt 0.968750 0.200000
vt 1.000000 0.200000
vt 0.031250 0.300000
vt 0.000000 0.300000
vt 0.062500 0.300000
vt 0.093750 0.300000
vt 0.125000 0.300000
vt 0.156250 0.300000
vt 0.187500 0.300000
vt 0.218750 0.300000
vt 0.250000 0.300000
vt 0.281250 0.300000
vt 0.312500 0.300000
vt 0.343750 0.300000
vt 0.375000 0.300000
vt 0.406250 0.300000
vt 0.437500 0.300000
vt 0.468750 0.300000
vt 0.500000 0.300000
vt 0.531250 0.300000
vt 0.562500 0.300000
vt 0.593750 0.300000
vt 0.625000 0.300000
vt 0.656250 0.300000
vt 0.687500 0.300000
vt 0.718750 0.300000
vt 0.750000 0.300000
vt 0.781250 0.300000
vt 0.812500 0.300000
vt 0.843750 0.300000
vt 0.875000 0.300000
vt 0.906250 0.300000
vt 0.937500 0.300000
vt 0.968750 0.300000
vt 1.000000 0.300000
vt 0.031250 0.400000
vt 0.000000 0.400000
vt 0.062500 0.400000
vt 0.093750 0.400000
vt 0.125000 0.400000
vt 0.156250 0.400000
vt 0.187500 0.400000
vt 0.218750 0.400000
vt 0.250000 0.400000
vt 0.281250 0.400000
vt 0.312500 0.400000
vt 0.343750 0.400000
vt 0.375000 0.400000
vt 0.406250 0.400000
vt 0.437500 0.400000
vt 0.468750 0.400000
vt 0.500000 0.400000
vt 0.531250 0.400000
vt 0.562500 0.400000
vt 0.593750 0.400000
vt 0.625000 0.400000
vt 0.656250 0.400000
vt 0.687500 0.400000
vt 0.718750 0.400000
vt 0.750000 0.400000
vt 0.781250 0.400000
vt 0.812500 0.400000
vt 0.843750 0.400000
vt 0.875000 0.400000
vt 0.906250 0.400000
vt 0.937500 0.400000
vt 0.968750 0.400000
vt 1.000000 0.400000
vt 0.031250 0.500000
vt 0.000000 0.500000
vt 0.062500 0.500000
vt 0.093750 0.500000
vt 0.125000 0.500000
vt 0.156250 0.500000
vt 0.187500 0.500000
vt 0.218750 0.500000
vt 0.250000 0.500000
vt 0.281250 0.500000
vt 0.312500 0.500000
vt 0.343750 0.500000
vt 0.375000 0.500000
vt 0.406250 0.500000
vt 0.437500 0.500000
vt 0.468750 0.500000
vt 0.500000 0.500000
vt 0.531250 0.500000
vt 0.562500 0.500000
vt 0.593750 0.500000
vt 0.625000 0.500000
vt 0.656250 0.500000
vt 0.687500 0.500000
vt 0.718750 0.500000
vt 0.750000 0.500000
vt 0.781250 0.500000
vt 0.812500 0.500000
vt 0.843750 0.500000
vt 0.875000 0.500000
vt 0.906250 0.500000
vt 0.937500 0.500000
vt 0.968750 0.500000
vt 1.000000 0.500000
vt 0.031250 0.600000
vt 0.000000 0.600000
vt 0.062500 0.600000
vt 0.093750 0.600000
vt 0.125000 0.600000
vt 0.156250 0.600000
vt 0.187500 0.600000
vt 0.218750 0.600000
vt 0.250000 0.600000
vt 0.281250 0.600000
vt 0.312500 0.600000
vt 0.343750 0.600000
vt 0.375000 0.600000
vt 0.406250 0.600000
vt 0.437500 0.600000
vt 0.468750 0.600000
vt 0.500000 0.600000
vt 0.531250 0.600000
vt 0.562500 0.600000
vt 0.593750 0.600000
vt 0.625000 0.600000
vt 0.656250 0.600000
vt 0.687500 0.600000
vt 0.718750 0.600000
vt 0.750000 0.600000
vt 0.781250 0.600000
vt 0.812500 0.600000
vt 0.843750 0.600000
vt 0.875000 0.600000
vt 0.906250 0.600000
vt 0.937500 0.600000
vt 0.968750 0.600000
vt 1.000000 0.600000
vt 0.031250 0.700000
vt 0.000000 0.700000
vt 0.062500 0.700000
vt 0.093750 0.700000
vt 0.125000 0.700000
vt 0.156250 0.700000
vt 0.187500 0.700000
vt 0.218750 0.700000
vt 0.250000 0.700000
vt 0.281250 0.700000
vt 0.312500 0.700000
vt 0.343750 0.700000
vt 0.375000 0.700000
vt 0.406250 0.700000
vt 0.437500 0.700000
vt 0.468750 0.700000
vt 0.500000 0.700000
vt 0.531250 0.700000
vt 0.562500 0.700000
vt 0.593750 0.700000
vt 0.625000 0.700000
vt 0.656250 0.700000
vt 0.687500 0.700000
vt 0.718750 0.700000
vt 0.750000 0.700000
vt 0.781250 0.700000
vt 0.812500 0.700000
vt 0.843750 0.700000
vt 0.875000 0.700000
vt 0.906250 0.700000
vt 0.937500 0.700000
vt 0.968750 0.700000
vt 1.000000 0.700000
vt 0.031250 0.800000
vt 0.000000 0.800000
vt 0.062500 0.800000
vt 0.093750 0.800000
vt 0.125000 0.800000
vt 0.156250 0.800000
vt 0.187500 0.800000
vt 0.218750 0.800000
vt 0.250000 0.800000
vt 0.281250 0.800000
vt 0.312500 0.800000
vt 0.343750 0.800000
vt 0.375000 0.800000
vt 0.406250 0.800000
vt 0.437500 0.800000
vt 0.468750 0.800000
vt 0.500000 0.800000
vt 0.531250 0.800000
vt 0.562500 0.800000
vt 0.593750 0.800000
vt 0.625000 0.800000
vt 0.656250 0.800000
vt 0.687500 0.800000
vt 0.718750 0.800000
vt 0.750000 0.800000
vt 0.781250 0.800000
vt 0.812500 0.800000
vt 0.843750 0.800000
vt 0.875000 0.800000
vt 0.906250 0.800000
vt 0.937500 0.800000
vt 0.968750 0.800000
vt 1.000000 0.800000
vt 0.031250 0.900000
vt 0.000000 0.900000
vt 0.062500 0.900000
vt 0.093750 0.900000
vt 0.125000 0.900000
vt 0.156250 0.900000
vt 0.187500 0.900000
vt 0.218750 0.900000
vt 0.250000 0.900000
vt 0.281250 0.900000
vt 0.312500 0.900000
vt 0.343750 0.900000
vt 0.375000 0.900000
vt 0.406250 0.900000
vt 0.437500 0.900000
vt 0.468750 0.900000
vt 0.500000 0.900000
vt 0.531250 0.900000
vt 0.562500 0.900000
vt 0.593750 0.900000
vt 0.625000 0.900000
vt 0.656250 0.900000
vt 0.687500 0.900000
vt 0.718750 0.900000
vt 0.750000 0.900000
vt 0.781250 0.900000
vt 0.812500 0.900000
vt 0.843750 0.900000
vt 0.875000 0.900000
vt 0.906250 0.900000
vt 0.937500 0.900000
vt 0.968750 0.900000
vt 1.000000 0.900000
vt 0.031250 1.000000
vt 0.000000 1.000000
vt 0.062500 1.000000
vt 0.093750 1.000000
vt 0.125000 1.000000
vt 0.156250 1.000000
vt 0.187500 1.000000
vt 0.218750 1.000000
vt 0.250000 1.000000
vt 0.281250 1.000000
vt 0.312500 1.000000
vt 0.343750 1.000000
vt 0.375000 1.000000
vt 0.406250 1.000000
vt 0.437500 1.000000
vt 0.468750 1.000000
vt 0.500000 1.000000
vt 0.531250 1.000000
vt 0.562500 1.000000
vt 0.593750 1.000000
vt 0.625000 1.000000
vt 0.656250 1.000000
vt 0.687500 1.000000
vt 0.718750 1.000000
vt 0.750000 1.000000
vt 0.781250 1.000000
vt 0.812500 1.000000
vt 0.843750 1.000000
vt 0.875000 1.000000
vt 0.906250 1.000000
vt 0.937500 1.000000
vt 0.968750 1.000000
vt 1.000000 1.000000
vt 0.990393 0.402455
vt 0.961940 0.308658
vt 0.915735 0.222215
vt 0.853553 0.146447
vt 0.777785 0.084265
vt 0.691342 0.038060
vt 0.597545 0.009607
vt 0.402455 0.009607
vt 0.308658 0.038060
vt 0.222215 0.084265
vt 0.146447 0.146447
vt 0.084265 0.222215
vt 0.038060 0.308658
vt 0.009607 0.402455
vt 0.009607 0.597545
vt 0.038060 0.691342
vt 0.084265 0.777785
vt 0.146447 0.853553
vt 0.222215 0.915735
vt 0.308658 0.961940
vt 0.402455 0.990393
vt 0.597545 0.990393
vt 0.691342 0.961940
vt 0.777785 0.915735
vt 0.853553 0.853553
vt 0.915735 0.777785
vt 0.961940 0.691342
vt 0.990393 0.597545
o conductor
usemtl conductor
f 1/1/1 2/2/1 3/3/1 4/4/1
f 2/2/2 5/5/2 6/6/2 3/3/2
f 5/5/3 7/7/3 8/8/3 6/6/3
f 7/7/4 9/9/4 10/10/4 8/8/4
f 9/9/5 11/11/5 12/12/5 10/10/5
f 11/11/6 13/13/6 14/14/6 12/12/6
f 13/13/7 15/15/7 16/16/7 14/14/7
f 15/15/8 17/17/8 18/18/8 16/16/8
f 17/17/9 19/19/9 20/20/9 18/18/9
f 19/19/10 21/21/10 22/22/10 20/20/10
f 21/21/11 23/23/11 24/24/11 22/22/11
f 23/23/12 25/25/12 26/26/12 24/24/12
f 25/25/13 27/27/13 28/28/13 26/26/13
f 27/27/14 29/29/14 30/30/14 28/28/14
f 29/29/15 31/31/15 32/32/15 30/30/15
f 31/31/16 33/33/16 34/34/16 32/32/16
f 33/33/17 35/35/17 36/36/17 34/34/17
f 35/35/18 37/37/18 38/38/18 36/36/18
f 37/37/19 39/39/19 40/40/19 38/38/19
f 39/39/20 41/41/20 42/42/20 40/40/20
f 41/41/21 43/43/21 44/44/21 42/42/21
f 43/43/22 45/45/22 46/46/22 44/44/22
f 45/45/23 47/47/23 48/48/23 46/46/23
f 47/47/24 49/49/24 50/50/24 48/48/24
f 49/49/25 51/51/25 52/52/25 50/50/25
f 51/51/26 53/53/26 54/54/26 52/52/26
f 53/53/27 55/55/27 56/56/27 54/54/27
f 55/55/28 57/57/28 58/58/28 56/56/28
f 57/57/29 59/59/29 60/60/29 58/58/29
f 59/59/30 61/61/30 62/62/30 60/60/30
f 61/61/31 63/63/31 64/64/31 62/62/31
f 63/63/32 1/65/32 4/66/32 64/64/32
f 4/4/33 3/3/33 65/67/33 66/68/33
f 3/3/34 6/6/34 67/69/34 65/67/34
f 6/6/35 8/8/35 68/70/35 67/69/35
f 8/8/36 10/10/36 69/71/36 68/70/36
f 10/10/37 12/12/37 70/72/37 69/71/37
f 12/12/38 14/14/38 71/73/38 70/72/38
f 14/14/39 16/16/39 72/74/39 71/73/39
f 16/16/40 18/18/40 73/75/40 72/74/40
f 18/18/41 20/20/41 74/76/41 73/75/41
f 20/20/42 22/22/42 75/77/42 74/76/42
f 22/22/43 24/24/43 76/78/43 75/77/43
f 24/24/44 26/26/44 77/79/44 76/78/44
f 26/26/45 28/28/45 78/80/45 77/79/45
f 28/28/46 30/30/46 79/81/46 78/80/46
f 30/30/47 32/32/47 80/82/47 79/81/47
f 32/32/48 34/34/48 81/83/48 80/82/48
f 34/34/49 36/36/49 82/84/49 81/83/49
f 36/36/50 38/38/50 83/85/50 82/84/50
f 38/38/51 40/40/51 84/86/51 83/85/51
f 40/40/52 42/42/52 85/87/52 84/86/52
f 42/42/53 44/44/53 86/88/53 85/87/53
f 44/44/54 46/46/54 87/89/54 86/88/54
f 46/46/55 48/48/55 88/90/55 87/89/55
f 48/48/56 50/50/56 89/91/56 88/90/56
f 50/50/57 52/52/57 90/92/57 89/91/57
f 52/52/58 54/54/58 91/93/58 90/92/58
f 54/54/59 56/56/59 92/94/59 91/93/59
f 56/56/60 58/58/60 93/95/60 92/94/60
f 58/58/61 60/60/61 94/96/61 93/95/61
f 60/60/62 62/62/62 95/97/62 94/96/62
f 62/62/63 64/64/63 96/98/63 95/97/63
f 64/64/64 4/66/64 66/99/64 96/98/64
f 66/68/65 65/67/65 97/100/65 98/101/65
f 65/67/66 67/69/66 99/102/66 97/100/66
f 67/69/67 68/70/67 100/103/67 99/102/67
f 68/70/68 69/71/68 101/104/68 100/103/68
f 69/71/69 70/72/69 102/105/69 101/104/69
f 70/72/70 71/73/70 103/106/70 102/105/70
f 71/73/71 72/74/71 104/107/71 103/106/71
f 72/74/72 73/75/72 105/108/72 104/107/72
f 73/75/73 74/76/73 106/109/73 105/108/73
f 74/76/74 75/77/74 107/110/74 106/109/74
f 75/77/75 76/78/75 108/111/75 107/110/75
f 76/78/76 77/79/76 109/112/76 108/111/76
f 77/79/77 78/80/77 110/113/77 109/112/77
f 78/80/78 79/81/78 111/114/78 110/113/78
f 79/81/79 80/82/79 112/115/79 111/114/79
f 80/82/80 81/83/80 113/116/80 112/115/80
f 81/83/81 82/84/81 114/117/81 113/116/81
f 82/84/82 83/85/82 115/118/82 114/117/82
f 83/85/83 84/86/83 116/119/83 115/118/83
f 84/86/84 85/87/84 117/120/84 116/119/84
f 85/87/85 86/88/85 118/121/85 117/120/85
f 86/88/86 87/89/86 119/122/86 118/121/86
f 87/89/87 88/90/87 120/123/87 119/122/87
f 88/90/88 89/91/88 121/124/88 120/123/88
f 89/91/89 90/92/89 122/125/89 121/124/89
f 90/92/90 91/93/90 123/126/90 122/125/90
f 91/93/91 92/94/91 124/127/91 123/126/91
f 92/94/92 93/95/92 125/128/92 124/127/92
f 93/95/93 94/96/93 126/129/93 125/128/93
f 94/96/94 95/97/94 127/130/94 126/129/94
f 95/97/95 96/98/95 128/131/95 127/130/95
f 96/98/96 66/99/96 98/132/96 128/131/96
f 98/101/97 97/100/97 129/133/97 130/134/97
f 97/100/98 99/102/98 131/135/98 129/133/98
f 99/102/99 100/103/99 132/136/99 131/135/99
f 100/103/100 101/104/100 133/137/100 132/136/100
f 101/104/101 102/105/101 134/138/101 133/137/101
f 102/105/102 103/106/102 135/139/102 134/138/102
f 103/106/103 104/107/103 136/140/103 135/139/103
f 104/107/104 105/108/104 137/141/104 136/140/104
f 105/108/105 106/109/105 138/142/105 137/141/105
f 106/109/106 107/110/106 139/143/106 138/142/106
f 107/110/107 108/111/107 140/144/107 139/143/107
f 108/111/108 109/112/108 141/145/108 140/144/108
f 109/112/109 110/113/109 142/146/109 141/145/109
f 110/113/110 111/114/110 143/147/110 142/146/110
f 111/114/111 112/115/111 144/148/111 143/147/111
f 112/115/112 113/116/112 145/149/112 144/148/112
f 113/116/113 114/117/113 146/150/113 145/149/113
f 114/117/114 115/118/114 147/151/114 146/150/114
f 115/118/115 116/119/115 148/152/115 147/151/115
f 116/119/116 117/120/116 149/153/116 148/152/116
f 117/120/117 118/121/117 150/154/117 149/153/117
f 118/121/118 119/122/118 151/155/118 150/154/118
f 119/122/119 120/123/119 152/156/119 151/155/119
f 120/123/120 121/124/120 153/157/120 152/156/120
f 121/124/121 122/125/121 154/158/121 153/157/121
f 122/125/122 123/126/122 155/159/122 154/158/122
f 123/126/123 124/127/123 156/160/123 155/159/123
f 124/127/124 125/128/124 157/161/124 156/160/124
f 125/128/125 126/129/125 158/162/125 157/161/125
f 126/129/126 127/130/126 159/163/126 158/162/126
f 127/130/127 128/131/127 160/164/127 159/163/127
f 128/131/128 98/132/128 130/165/128 160/164/128
f 130/134/129 129/133/129 161/166/129 162/167/129
f 129/133/130 131/135/130 163/168/130 161/166/130
f 131/135/131 132/136/131 164/169/131 163/168/131
f 132/136/132 133/137/132 165/170/132 164/169/132
f 133/137/133 134/138/133 166/171/133 165/170/133
f 134/138/134 135/139/134 167/172/134 166/171/134
f 135/139/135 136/140/135 168/173/135 167/172/135
f 136/140/136 137/141/136 169/174/136 168/173/136
f 137/141/137 138/142/137 170/175/137 169/174/137
f 138/142/138 139/143/138 171/176/138 170/175/138
f 139/143/139 140/144/139 172/177/139 171/176/139
f 140/144/140 141/145/140 173/178/140 172/177/140
f 141/145/141 142/146/141 174/179/141 173/178/141
f 142/146/142 143/147/142 175/180/142 174/179/142
f 143/147/143 144/148/143 176/181/143 175/180/143
f 144/148/144 145/149/144 177/182/144 176/181/144
f 145/149/145 146/150/145 178/183/145 177/182/145
f 146/150/146 147/151/146 179/184/146 178/183/146
f 147/151/147 148/152/147 180/185/147 179/184/147
f 148/152/148 149/153/148 181/186/148 180/185/148
f 149/153/149 150/154/149 182/187/149 181/186/149
f 150/154/150 151/155/150 183/188/150 182/187/150
f 151/155/151 152/156/151 184/189/151 183/188/151
f 152/156/152 153/157/152 185/190/152 184/189/152
f 153/157/153 154/158/153 186/191/153 185/190/153
f 154/158/154 155/159/154 187/192/154 186/191/154
f 155/159/155 156/160/155 188/193/155 187/192/155
f 156/160/156 157/161/156 189/194/156 188/193/156
f 157/161/157 158/162/157 190/195/157 189/194/157
f 158/162/158 159/163/158 191/196/158 190/195/158
f 159/163/159 160/164/159 192/197/159 191/196/159
f 160/164/160 130/165/160 162/198/160 192/197/160
f 162/167/161 161/166/161 193/199/161 194/200/161
f 161/166/162 163/168/162 195/201/162 193/199/162
f 163/168/163 164/169/163 196/202/163 195/201/163
f 164/169/164 165/170/164 197/203/164 196/202/164
f 165/170/165 166/171/165 198/204/165 197/203/165
f 166/171/166 167/172/166 199/205/166 198/204/166
f 167/172/167 168/173/167 200/206/167 199/205/167
f 168/173/168 169/174/168 201/207/168 200/206/168
f 169/174/169 170/175/169 202/208/169 201/207/169
f 170/175/170 171/176/170 203/209/170 202/208/170
f 171/176/171 172/177/171 204/210/171 203/209/171
f 172/177/172 173/178/172 205/211/172 204/210/172
f 173/178/173 174/179/173 206/212/173 205/211/173
f 174/179/174 175/180/174 207/213/174 206/212/174
f 175/180/175 176/181/175 208/214/175 207/213/175
f 176/181/176 177/182/176 209/215/176 208/214/176
f 177/182/177 178/183/177 210/216/177 209/215/177
f 178/183/178 179/184/178 211/217/178 210/216/178
f 179/184/179 180/185/179 212/218/179 211/217/179
f 180/185/180 181/186/180 213/219/180 212/218/180
f 181/186/181 182/187/181 214/220/181 213/219/181
f 182/187/182 183/188/182 215/221/182 214/220/182
f 183/188/183 184/189/183 216/222/183 215/221/183
f 184/189/184 185/190/184 217/223/184 216/222/184
f 185/190/185 186/191/185 218/224/185 217/223/185
f 186/191/186 187/192/186 219/225/186 218/224/186
f 187/192/187 188/193/187 220/226/187 219/225/187
f 188/193/188 189/194/188 221/227/188 220/226/188
f 189/194/189 190/195/189 222/228/189 221/227/189
f 190/195/190 191/196/190 223/229/190 222/228/190
f 191/196/191 192/197/191 224/230/191 223/229/191
f 192/197/192 162/198/192 194/231/192 224/230/192
f 194/200/193 193/199/193 225/232/193 226/233/193
f 193/199/194 195/201/194 227/234/194 225/232/194
f 195/201/195 196/202/195 228/235/195 227/234/195
f 196/202/196 197/203/196 229/236/196 228/235/196
f 197/203/197 198/204/197 230/237/197 229/236/197
f 198/204/198 199/205/198 231/238/198 230/237/198
f 199/205/199 200/206/199 232/239/199 231/238/199
f 200/206/200 201/207/200 233/240/200 232/239/200
f 201/207/201 202/208/201 234/241/201 233/240/201
f 202/208/202 203/209/202 235/242/202 234/241/202
f 203/209/203 204/210/203 236/243/203 235/242/203
f 204/210/204 205/211/204 237/244/204 236/243/204
f 205/211/205 206/212/205 238/245/205 237/244/205
f 206/212/206 207/213/206 239/246/206 238/245/206
f 207/213/207 208/214/207 240/247/207 239/246/207
f 208/214/208 209/215/208 241/248/208 240/247/208
f 209/215/209 210/216/209 242/249/209 241/248/209
f 210/216/210 211/217/210 243/250/210 242/249/210
f 211/217/211 212/218/211 244/251/211 243/250/211
f 212/218/212 213/219/212 245/252/212 244/251/212
f 213/219/213 214/220/213 246/253/213 245/252/213
f 214/220/214 215/221/214 247/254/214 246/253/214
f 215/221/215 216/222/215 248/255/215 247/254/215
f 216/222/216 217/223/216 249/256/216 248/255/216
f 217/223/217 218/224/217 250/257/217 249/256/217
f 218/224/218 219/225/218 251/258/218 250/257/218
f 219/225/219 220/226/219 252/259/219 251/258/219
f 220/226/220 221/227/220 253/260/220 252/259/220
f 221/227/221 222/228/221 254/261/221 253/260/221
f 222/228/222 223/229/222 255/262/222 254/261/222
f 223/229/223 224/230/223 256/263/223 255/262/223
f 224/230/224 194/231/224 226/264/224 256/263/224
f 226/233/225 225/232/225 257/265/225 258/266/225
f 225/232/226 227/234/226 259/267/226 257/265/226
f 227/234/227 228/235/227 260/268/227 259/267/227
f 228/235/228 229/236/228 261/269/228 260/268/228
f 229/236/229 230/237/229 262/270/229 261/269/229
f 230/237/230 231/238/230 263/271/230 262/270/230
f 231/238/231 232/239/231 264/272/231 263/271/231
f 232/239/232 233/240/232 265/273/232 264/272/232
f 233/240/233 234/241/233 266/274/233 265/273/233
f 234/241/234 235/242/234 267/275/234 266/274/234
f 235/242/235 236/243/235 268/276/235 267/275/235
f 236/243/236 237/244/236 269/277/236 268/276/236
f 237/244/237 238/245/237 270/278/237 269/277/237
f 238/245/238 239/246/238 271/279/238 270/278/238
f 239/246/239 240/247/239 272/280/239 271/279/239
f 240/247/240 241/248/240 273/281/240 272/280/240
f 241/248/241 242/249/241 274/282/241 273/281/241
f 242/249/242 243/250/242 275/283/242 274/282/242
f 243/250/243 244/251/243 276/284/243 275/283/243
f 244/251/244 245/252/244 277/285/244 276/284/244
f 245/252/245 246/253/245 278/286/245 277/285/245
f 246/253/246 247/254/246 279/287/246 278/286/246
f 247/254/247 248/255/247 280/288/247 279/287/247
f 248/255/248 249/256/248 281/289/248 280/288/248
f 249/256/249 250/257/249 282/290/249 281/289/249
f 250/257/250 251/258/250 283/291/250 282/290/250
f 251/258/251 252/259/251 284/292/251 283/291/251
f 252/259/252 253/260/252 285/293/252 284/292/252
f 253/260/253 254/261/253 286/294/253 285/293/253
f 254/261/254 255/262/254 287/295/254 286/294/254
f 255/262/255 256/263/255 288/296/255 287/295/255
f 256/263/256 226/264/256 258/297/256 288/296/256
f 258/266/257 257/265/257 289/298/257 290/299/257
f 257/265/258 259/267/258 291/300/258 289/298/258
f 259/267/259 260/268/259 292/301/259 291/300/259
f 260/268/260 261/269/260 293/302/260 292/301/260
f 261/269/261 262/270/261 294/303/261 293/302/261
f 262/270/262 263/271/262 295/304/262 294/303/262
f 263/271/263 264/272/263 296/305/263 295/304/263
f 264/272/264 265/273/264 297/306/264 296/305/264
f 265/273/265 266/274/265 298/307/265 297/306/265
f 266/274/266 267/275/266 299/308/266 298/307/266
f 267/275/267 268/276/267 300/309/267 299/308/267
f 268/276/268 269/277/268 301/310/268 300/309/268
f 269/277/269 270/278/269 302/311/269 301/310/269
f 270/278/270 271/279/270 303/312/270 302/311/270
f 271/279/271 272/280/271 304/313/271 303/312/271
f 272/280/272 273/281/272 305/314/272 304/313/272
f 273/281/273 274/282/273 306/315/273 305/314/273
f 274/282/274 275/283/274 307/316/274 306/315/274
f 275/283/275 276/284/275 308/317/275 307/316/275
f 276/284/276 277/285/276 309/318/276 308/317/276
f 277/285/277 278/286/277 310/319/277 309/318/277
f 278/286/278 279/287/278 311/320/278 310/319/278
f 279/287/279 280/288/279 312/321/279 311/320/279
f 280/288/280 281/289/280 313/322/280 312/321/280
f 281/289/281 282/290/281 314/323/281 313/322/281
f 282/290/282 283/291/282 315/324/282 314/323/282
f 283/291/283 284/292/283 316/325/283 315/324/283
f 284/292/284 285/293/284 317/326/284 316/325/284
f 285/293/285 286/294/285 318/327/285 317/326/285
f 286/294/286 287/295/286 319/328/286 318/327/286
f 287/295/287 288/296/287 320/329/287 319/328/287
f 288/296/288 258/297/288 290/330/288 320/329/288
f 290/299/289 289/298/289 321/331/289 322/332/289
f 289/298/290 291/300/290 323/333/290 321/331/290
f 291/300/291 292/301/291 324/334/291 323/333/291
f 292/301/292 293/302/292 325/335/292 324/334/292
f 293/302/293 294/303/293 326/336/293 325/335/293
f 294/303/294 295/304/294 327/337/294 326/336/294
f 295/304/295 296/305/295 328/338/295 327/337/295
f 296/305/296 297/306/296 329/339/296 328/338/296
f 297/306/297 298/307/297 330/340/297 329/339/297
f 298/307/298 299/308/298 331/341/298 330/340/298
f 299/308/299 300/309/299 332/342/299 331/341/299
f 300/309/300 301/310/300 333/343/300 332/342/300
f 301/310/301 302/311/301 334/344/301 333/343/301
f 302/311/302 303/312/302 335/345/302 334/344/302
f 303/312/303 304/313/303 336/346/303 335/345/303
f 304/313/304 305/314/304 337/347/304 336/346/304
f 305/314/305 306/315/305 338/348/305 337/347/305
f 306/315/306 307/316/306 339/349/306 338/348/306
f 307/316/307 308/317/307 340/350/307 339/349/307
f 308/317/308 309/318/308 341/351/308 340/350/308
f 309/318/309 310/319/309 342/352/309 341/351/309
f 310/319/310 311/320/310 343/353/310 342/352/310
f 311/320/311 312/321/311 344/354/311 343/353/311
f 312/321/312 313/322/312 345/355/312 344/354/312
f 313/322/313 314/323/313 346/356/313 345/355/313
f 314/323/314 315/324/314 347/357/314 346/356/314
f 315/324/315 316/325/315 348/358/315 347/357/315
f 316/325/316 317/326/316 349/359/316 348/358/316
f 317/326/317 318/327/317 350/360/317 349/359/317
f 318/327/318 319/328/318 351/361/318 350/360/318
f 319/328/319 320/329/319 352/362/319 351/361/319
f 320/329/320 290/330/320 322/363/320 352/362/320
f 63/364/321 61/365/321 59/366/321 57/367/321 55/368/321 53/369/321 51/370/321 49/33/321 47/371/321 45/372/321 43/373/321 41/374/321 39/375/321 37/376/321 35/377/321 33/167/321 31/378/321 29/379/321 27/380/321 25/381/321 23/382/321 21/383/321 19/384/321 17/347/321 15/385/321 13/386/321 11/387/321 9/388/321 7/389/321 5/390/321 2/391/321 1/198/321
f 322/198/322 321/391/322 323/390/322 324/389/322 325/388/322 326/387/322 327/386/322 328/385/322 329/347/322 330/384/322 331/383/322 332/382/322 333/381/322 334/380/322 335/379/322 336/378/322 337/167/322 338/377/322 339/376/322 340/375/322 341/374/322 342/373/322 343/372/322 344/371/322 345/33/322 346/370/322 347/369/322 348/368/322 349/367/322 350/366/322 351/365/322 352/364/322
