# generated by tools/gen_conductor_models.py - do not edit by hand
mtllib end.mtl
v 0.500000 0.110000 0.287500
v 0.489270 0.108943 0.287500
v 0.489270 0.108355 0.292056
v 0.500000 0.109400 0.291900
v 0.478952 0.105813 0.287500
v 0.478952 0.105259 0.292517
v 0.469444 0.100731 0.287500
v 0.469444 0.100232 0.293265
v 0.461109 0.093891 0.287500
v 0.461109 0.093467 0.294272
v 0.454269 0.085556 0.287500
v 0.454269 0.085223 0.295500
v 0.449187 0.076048 0.287500
v 0.449187 0.075818 0.296900
v 0.446057 0.065730 0.287500
v 0.446057 0.065613 0.298420
v 0.445000 0.055000 0.287500
v 0.445000 0.055000 0.300000
v 0.446057 0.044270 0.287500
v 0.446057 0.044387 0.301580
v 0.449187 0.033952 0.287500
v 0.449187 0.034182 0.303100
v 0.454269 0.024444 0.287500
v 0.454269 0.024777 0.304500
v 0.461109 0.016109 0.287500
v 0.461109 0.016533 0.305728
v 0.469444 0.009269 0.287500
v 0.469444 0.009768 0.306735
v 0.478952 0.004187 0.287500
v 0.478952 0.004741 0.307483
v 0.489270 0.001057 0.287500
v 0.489270 0.001645 0.307944
v 0.500000 0.000000 0.287500
v 0.500000 0.000600 0.308100
v 0.510730 0.001057 0.287500
v 0.510730 0.001645 0.307944
v 0.521048 0.004187 0.287500
v 0.521048 0.004741 0.307483
v 0.530556 0.009269 0.287500
v 0.530556 0.009768 0.306735
v 0.538891 0.016109 0.287500
v 0.538891 0.016533 0.305728
v 0.545731 0.024444 0.287500
v 0.545731 0.024777 0.304500
v 0.550813 0.033952 0.287500
v 0.550813 0.034182 0.303100
v 0.553943 0.044270 0.287500
v 0.553943 0.044387 0.301580
v 0.555000 0.055000 0.287500
v 0.555000 0.055000 0.300000
v 0.553943 0.065730 0.287500
v 0.553943 0.065613 0.298420
v 0.550813 0.076048 0.287500
v 0.550813 0.075818 0.296900
v 0.545731 0.085556 0.287500
v 0.545731 0.085223 0.295500
v 0.538891 0.093891 0.287500
v 0.538891 0.093467 0.294272
v 0.530556 0.100731 0.287500
v 0.530556 0.100232 0.293265
v 0.521048 0.105813 0.287500
v 0.521048 0.105259 0.292517
v 0.510730 0.108943 0.287500
v 0.510730 0.108355 0.292056
v 0.489270 0.150230 0.429556
v 0.500000 0.151275 0.429400
v 0.478952 0.147134 0.430017
v 0.469444 0.142107 0.430765
v 0.461109 0.135342 0.431772
v 0.454269 0.127098 0.433000
v 0.449187 0.117693 0.434400
v 0.446057 0.107488 0.435920
v 0.445000 0.096875 0.437500
v 0.446057 0.086262 0.439080
v 0.449187 0.076057 0.440600
v 0.454269 0.066652 0.442000
v 0.461109 0.058408 0.443228
v 0.469444 0.051643 0.444235
v 0.478952 0.046616 0.444983
v 0.489270 0.043520 0.445444
v 0.500000 0.042475 0.445600
v 0.510730 0.043520 0.445444
v 0.521048 0.046616 0.444983
v 0.530556 0.051643 0.444235
v 0.538891 0.058408 0.443228
v 0.545731 0.066652 0.442000
v 0.550813 0.076057 0.440600
v 0.553943 0.086262 0.439080
v 0.555000 0.096875 0.437500
v 0.553943 0.107488 0.435920
v 0.550813 0.117693 0.434400
v 0.545731 0.127098 0.433000
v 0.538891 0.135342 0.431772
v 0.530556 0.142107 0.430765
v 0.521048 0.147134 0.430017
v 0.510730 0.150230 0.429556
v 0.489270 0.150818 0.512500
v 0.500000 0.151875 0.512500
v 0.478952 0.147688 0.512500
v 0.469444 0.142606 0.512500
v 0.461109 0.135766 0.512500
v 0.454269 0.127431 0.512500
v 0.449187 0.117923 0.512500
v 0.446057 0.107605 0.512500
v 0.445000 0.096875 0.512500
v 0.446057 0.086145 0.512500
v 0.449187 0.075827 0.512500
v 0.454269 0.066319 0.512500
v 0.461109 0.057984 0.512500
v 0.469444 0.051144 0.512500
v 0.478952 0.046062 0.512500
v 0.489270 0.042932 0.512500
v 0.500000 0.041875 0.512500
v 0.510730 0.042932 0.512500
v 0.521048 0.046062 0.512500
v 0.530556 0.051144 0.512500
v 0.538891 0.057984 0.512500
v 0.545731 0.066319 0.512500
v 0.550813 0.075827 0.512500
v 0.553943 0.086145 0.512500
v 0.555000 0.096875 0.512500
v 0.553943 0.107605 0.512500
v 0.550813 0.117923 0.512500
v 0.545731 0.127431 0.512500
v 0.538891 0.135766 0.512500
v 0.530556 0.142606 0.512500
v 0.521048 0.147688 0.512500
v 0.510730 0.150818 0.512500
v 0.596875 0.096875 0.431250
v 0.595014 0.115774 0.431250
v 0.595014 0.115774 0.593750
v 0.596875 0.096875 0.593750
v 0.589501 0.133947 0.431250
v 0.589501 0.133947 0.593750
v 0.580549 0.150696 0.431250
v 0.580549 0.150696 0.593750
v 0.568501 0.165376 0.431250
v 0.568501 0.165376 0.593750
v 0.553821 0.177424 0.431250
v 0.553821 0.177424 0.593750
v 0.537072 0.186376 0.431250
v 0.537072 0.186376 0.593750
v 0.518899 0.191889 0.431250
v 0.518899 0.191889 0.593750
v 0.500000 0.193750 0.431250
v 0.500000 0.193750 0.593750
v 0.481101 0.191889 0.431250
v 0.481101 0.191889 0.593750
v 0.462928 0.186376 0.431250
v 0.462928 0.186376 0.593750
v 0.446179 0.177424 0.431250
v 0.446179 0.177424 0.593750
v 0.431499 0.165376 0.431250
v 0.431499 0.165376 0.593750
v 0.419451 0.150696 0.431250
v 0.419451 0.150696 0.593750
v 0.410499 0.133947 0.431250
v 0.410499 0.133947 0.593750
v 0.404986 0.115774 0.431250
v 0.404986 0.115774 0.593750
v 0.403125 0.096875 0.431250
v 0.403125 0.096875 0.593750
v 0.404986 0.077976 0.431250
v 0.404986 0.077976 0.593750
v 0.410499 0.059803 0.431250
v 0.410499 0.059803 0.593750
v 0.419451 0.043054 0.431250
v 0.419451 0.043054 0.593750
v 0.431499 0.028374 0.431250
v 0.431499 0.028374 0.593750
v 0.446179 0.016326 0.431250
v 0.446179 0.016326 0.593750
v 0.462928 0.007374 0.431250
v 0.462928 0.007374 0.593750
v 0.481101 0.001861 0.431250
v 0.481101 0.001861 0.593750
v 0.500000 0.000000 0.431250
v 0.500000 0.000000 0.593750
v 0.518899 0.001861 0.431250
v 0.518899 0.001861 0.593750
v 0.537072 0.007374 0.431250
v 0.537072 0.007374 0.593750
v 0.553821 0.016326 0.431250
v 0.553821 0.016326 0.593750
v 0.568501 0.028374 0.431250
v 0.568501 0.028374 0.593750
v 0.580549 0.043054 0.431250
v 0.580549 0.043054 0.593750
v 0.589501 0.059803 0.431250
v 0.589501 0.059803 0.593750
v 0.595014 0.077976 0.431250
v 0.595014 0.077976 0.593750
v 0.565625 0.096875 0.559375
v 0.564364 0.109678 0.559375
v 0.564364 0.109678 0.628125
v 0.565625 0.096875 0.628125
v 0.560630 0.121989 0.559375
v 0.560630 0.121989 0.628125
v 0.554565 0.133334 0.559375
v 0.554565 0.133334 0.628125
v 0.546404 0.143279 0.559375
v 0.546404 0.143279 0.628125
v 0.536459 0.151440 0.559375
v 0.536459 0.151440 0.628125
v 0.525114 0.157505 0.559375
v 0.525114 0.157505 0.628125
v 0.512803 0.161239 0.559375
v 0.512803 0.161239 0.628125
v 0.500000 0.162500 0.559375
v 0.500000 0.162500 0.628125
v 0.487197 0.161239 0.559375
v 0.487197 0.161239 0.628125
v 0.474886 0.157505 0.559375
v 0.474886 0.157505 0.628125
v 0.463541 0.151440 0.559375
v 0.463541 0.151440 0.628125
v 0.453596 0.143279 0.559375
v 0.453596 0.143279 0.628125
v 0.445435 0.133334 0.559375
v 0.445435 0.133334 0.628125
v 0.439370 0.121989 0.559375
v 0.439370 0.121989 0.628125
v 0.435636 0.109678 0.559375
v 0.435636 0.109678 0.628125
v 0.434375 0.096875 0.559375
v 0.434375 0.096875 0.628125
v 0.435636 0.084072 0.559375
v 0.435636 0.084072 0.628125
v 0.439370 0.071761 0.559375
v 0.439370 0.071761 0.628125
v 0.445435 0.060416 0.559375
v 0.445435 0.060416 0.628125
v 0.453596 0.050471 0.559375
v 0.453596 0.050471 0.628125
v 0.463541 0.042310 0.559375
v 0.463541 0.042310 0.628125
v 0.474886 0.036245 0.559375
v 0.474886 0.036245 0.628125
v 0.487197 0.032511 0.559375
v 0.487197 0.032511 0.628125
v 0.500000 0.031250 0.559375
v 0.500000 0.031250 0.628125
v 0.512803 0.032511 0.559375
v 0.512803 0.032511 0.628125
v 0.525114 0.036245 0.559375
v 0.525114 0.036245 0.628125
v 0.536459 0.042310 0.559375
v 0.536459 0.042310 0.628125
v 0.546404 0.050471 0.559375
v 0.546404 0.050471 0.628125
v 0.554565 0.060416 0.559375
v 0.554565 0.060416 0.628125
v 0.560630 0.071761 0.559375
v 0.560630 0.071761 0.628125
v 0.564364 0.084072 0.559375
v 0.564364 0.084072 0.628125
v 0.561250 0.096875 0.540625
v 0.560073 0.108824 0.540625
v 0.560073 0.108824 0.715625
v 0.561250 0.096875 0.715625
v 0.556588 0.120314 0.540625
v 0.556588 0.120314 0.715625
v 0.550928 0.130904 0.540625
v 0.550928 0.130904 0.715625
v 0.543310 0.140185 0.540625
v 0.543310 0.140185 0.715625
v 0.534029 0.147803 0.540625
v 0.534029 0.147803 0.715625
v 0.523439 0.153463 0.540625
v 0.523439 0.153463 0.715625
v 0.511949 0.156948 0.540625
v 0.511949 0.156948 0.715625
v 0.500000 0.158125 0.540625
v 0.500000 0.158125 0.715625
v 0.488051 0.156948 0.540625
v 0.488051 0.156948 0.715625
v 0.476561 0.153463 0.540625
v 0.476561 0.153463 0.715625
v 0.465971 0.147803 0.540625
v 0.465971 0.147803 0.715625
v 0.456690 0.140185 0.540625
v 0.456690 0.140185 0.715625
v 0.449072 0.130904 0.540625
v 0.449072 0.130904 0.715625
v 0.443412 0.120314 0.540625
v 0.443412 0.120314 0.715625
v 0.439927 0.108824 0.540625
v 0.439927 0.108824 0.715625
v 0.438750 0.096875 0.540625
v 0.438750 0.096875 0.715625
v 0.439927 0.084926 0.540625
v 0.439927 0.084926 0.715625
v 0.443412 0.073436 0.540625
v 0.443412 0.073436 0.715625
v 0.449072 0.062846 0.540625
v 0.449072 0.062846 0.715625
v 0.456690 0.053565 0.540625
v 0.456690 0.053565 0.715625
v 0.465971 0.045947 0.540625
v 0.465971 0.045947 0.715625
v 0.476561 0.040287 0.540625
v 0.476561 0.040287 0.715625
v 0.488051 0.036802 0.540625
v 0.488051 0.036802 0.715625
v 0.500000 0.035625 0.540625
v 0.500000 0.035625 0.715625
v 0.511949 0.036802 0.540625
v 0.511949 0.036802 0.715625
v 0.523439 0.040287 0.540625
v 0.523439 0.040287 0.715625
v 0.534029 0.045947 0.540625
v 0.534029 0.045947 0.715625
v 0.543310 0.053565 0.540625
v 0.543310 0.053565 0.715625
v 0.550928 0.062846 0.540625
v 0.550928 0.062846 0.715625
v 0.556588 0.073436 0.540625
v 0.556588 0.073436 0.715625
v 0.560073 0.084926 0.540625
v 0.560073 0.084926 0.715625
vn -0.0975 0.9904 0.0000
vn -0.2889 0.9523 0.0000
vn -0.4691 0.8777 0.0000
vn -0.6313 0.7693 0.0000
vn -0.7693 0.6313 0.0000
vn -0.8777 0.4691 0.0000
vn -0.9523 0.2889 0.0000
vn -0.9904 0.0975 0.0000
vn -0.9904 -0.0975 0.0000
vn -0.9523 -0.2889 0.0000
vn -0.8777 -0.4691 0.0000
vn -0.7693 -0.6313 0.0000
vn -0.6313 -0.7693 0.0000
vn -0.4691 -0.8777 0.0000
vn -0.2889 -0.9523 0.0000
vn -0.0975 -0.9904 0.0000
vn 0.0975 -0.9904 0.0000
vn 0.2889 -0.9523 0.0000
vn 0.4691 -0.8777 0.0000
vn 0.6313 -0.7693 0.0000
vn 0.7693 -0.6313 0.0000
vn 0.8777 -0.4691 0.0000
vn 0.9523 -0.2889 0.0000
vn 0.9904 -0.0975 0.0000
vn 0.9904 0.0975 0.0000
vn 0.9523 0.2889 -0.0000
vn 0.8777 0.4691 -0.0000
vn 0.7693 0.6313 -0.0000
vn 0.6313 0.7693 -0.0000
vn 0.4691 0.8777 -0.0000
vn 0.2889 0.9523 -0.0000
vn 0.0975 0.9904 0.0000
vn -0.0975 0.9796 -0.1459
vn -0.2889 0.9419 -0.1403
vn -0.4691 0.8681 -0.1293
vn -0.6313 0.7609 -0.1133
vn -0.7693 0.6245 -0.0930
vn -0.8777 0.4640 -0.0691
vn -0.9523 0.2857 -0.0425
vn -0.9904 0.0965 -0.0144
vn -0.9904 -0.0965 0.0144
vn -0.9523 -0.2857 0.0425
vn -0.8777 -0.4640 0.0691
vn -0.7693 -0.6245 0.0930
vn -0.6313 -0.7609 0.1133
vn -0.4691 -0.8681 0.1293
vn -0.2889 -0.9419 0.1403
vn -0.0975 -0.9796 0.1459
vn 0.0975 -0.9796 0.1459
vn 0.2889 -0.9419 0.1403
vn 0.4691 -0.8681 0.1293
vn 0.6313 -0.7609 0.1133
vn 0.7693 -0.6245 0.0930
vn 0.8777 -0.4640 0.0691
vn 0.9523 -0.2857 0.0425
vn 0.9904 -0.0965 0.0144
vn 0.9904 0.0965 -0.0144
vn 0.9523 0.2857 -0.0425
vn 0.8777 0.4640 -0.0691
vn 0.7693 0.6245 -0.0930
vn 0.6313 0.7609 -0.1133
vn 0.4691 0.8681 -0.1293
vn 0.2889 0.9419 -0.1403
vn 0.0975 0.9796 -0.1459
vn -0.0000 -0.0000 -1.0000
vn 0.0000 0.0000 1.0000
vn 0.9952 0.0980 0.0000
vn 0.9569 0.2903 0.0000
vn 0.8819 0.4714 0.0000
vn 0.7730 0.6344 0.0000
vn 0.6344 0.7730 0.0000
vn 0.4714 0.8819 0.0000
vn 0.2903 0.9569 0.0000
vn 0.0980 0.9952 0.0000
vn -0.0980 0.9952 0.0000
vn -0.2903 0.9569 0.0000
vn -0.4714 0.8819 0.0000
vn -0.6344 0.7730 0.0000
vn -0.7730 0.6344 0.0000
vn -0.8819 0.4714 0.0000
vn -0.9569 0.2903 0.0000
vn -0.9952 0.0980 0.0000
vn -0.9952 -0.0980 0.0000
vn -0.9569 -0.2903 0.0000
vn -0.8819 -0.4714 0.0000
vn -0.7730 -0.6344 0.0000
vn -0.6344 -0.7730 0.0000
vn -0.4714 -0.8819 0.0000
vn -0.2903 -0.9569 0.0000
vn -0.0980 -0.9952 0.0000
vn 0.0980 -0.9952 0.0000
vn 0.2903 -0.9569 0.0000
vn 0.4714 -0.8819 0.0000
vn 0.6344 -0.7730 0.0000
vn 0.7730 -0.6344 0.0000
vn 0.8819 -0.4714 0.0000
vn 0.9569 -0.2903 0.0000
vn 0.9952 -0.0980 0.0000
vt 0.000000 0.000000
vt 0.031250 0.000000
vt 0.031250 0.054058
vt 0.000000 0.054058
vt 0.062500 0.000000
vt 0.062500 0.054058
vt 0.093750 0.000000
vt 0.093750 0.054058
vt 0.125000 0.000000
vt 0.125000 0.054058
vt 0.156250 0.000000
vt 0.156250 0.054058
vt 0.187500 0.000000
vt 0.187500 0.054058
vt 0.218750 0.000000
vt 0.218750 0.054058
vt 0.250000 0.000000
vt 0.250000 0.054058
vt 0.281250 0.000000
vt 0.281250 0.054058
vt 0.312500 0.000000
vt 0.312500 0.054058
vt 0.343750 0.000000
vt 0.343750 0.054058
vt 0.375000 0.000000
vt 0.375000 0.054058
vt 0.406250 0.000000
vt 0.406250 0.054058
vt 0.437500 0.000000
vt 0.437500 0.054058
vt 0.468750 0.000000
vt 0.468750 0.054058
vt 0.500000 0.000000
vt 0.500000 0.054058
vt 0.531250 0.000000
vt 0.531250 0.054058
vt 0.562500 0.000000
vt 0.562500 0.054058
vt 0.593750 0.000000
vt 0.593750 0.054058
vt 0.625000 0.000000
vt 0.625000 0.054058
vt 0.656250 0.000000
vt 0.656250 0.054058
vt 0.687500 0.000000
vt 0.687500 0.054058
vt 0.718750 0.000000
vt 0.718750 0.054058
vt 0.750000 0.000000
vt 0.750000 0.054058
vt 0.781250 0.000000
vt 0.781250 0.054058
vt 0.812500 0.000000
vt 0.812500 0.054058
vt 0.843750 0.000000
vt 0.843750 0.054058
vt 0.875000 0.000000
vt 0.875000 0.054058
vt 0.906250 0.000000
vt 0.906250 0.054058
vt 0.937500 0.000000
vt 0.937500 0.054058
vt 0.968750 0.000000
vt 0.968750 0.054058
vt 1.000000 0.000000
vt 1.000000 0.054058
vt 0.031250 0.675655
vt 0.000000 0.675655
vt 0.062500 0.675655
vt 0.093750 0.675655
vt 0.125000 0.675655
vt 0.156250 0.675655
vt 0.187500 0.675655
vt 0.218750 0.675655
vt 0.250000 0.675655
vt 0.281250 0.675655
vt 0.312500 0.675655
vt 0.343750 0.675655
vt 0.375000 0.675655
vt 0.406250 0.675655
vt 0.437500 0.675655
vt 0.468750 0.675655
vt 0.500000 0.675655
vt 0.531250 0.675655
vt 0.562500 0.675655
vt 0.593750 0.675655
vt 0.625000 0.675655
vt 0.656250 0.675655
vt 0.687500 0.675655
vt 0.718750 0.675655
vt 0.750000 0.675655
vt 0.781250 0.675655
vt 0.812500 0.675655
vt 0.843750 0.675655
vt 0.875000 0.675655
vt 0.906250 0.675655
vt 0.937500 0.675655
vt 0.968750 0.675655
vt 1.000000 0.675655
vt 0.031250 1.000000
vt 0.000000 1.000000
vt 0.062500 1.000000
vt 0.093750 1.000000
vt 0.125000 1.000000
vt 0.156250 1.000000
vt 0.187500 1.000000
vt 0.218750 1.000000
vt 0.250000 1.000000
vt 0.281250 1.000000
vt 0.312500 1.000000
vt 0.343750 1.000000
vt 0.375000 1.000000
vt 0.406250 1.000000
vt 0.437500 1.000000
vt 0.468750 1.000000
vt 0.500000 1.000000
vt 0.531250 1.000000
vt 0.562500 1.000000
vt 0.593750 1.000000
vt 0.625000 1.000000
vt 0.656250 1.000000
vt 0.687500 1.000000
vt 0.718750 1.000000
vt 0.750000 1.000000
vt 0.781250 1.000000
vt 0.812500 1.000000
vt 0.843750 1.000000
vt 0.875000 1.000000
vt 0.906250 1.000000
vt 0.937500 1.000000
vt 0.968750 1.000000
vt 1.000000 1.000000
vt 0.990393 0.402455
vt 0.961940 0.308658
vt 0.915735 0.222215
vt 0.853553 0.146447
vt 0.777785 0.084265
vt 0.691342 0.038060
vt 0.597545 0.009607
vt 0.402455 0.009607
vt 0.308658 0.038060
vt 0.222215 0.084265
vt 0.146447 0.146447
vt 0.084265 0.222215
vt 0.038060 0.308658
vt 0.009607 0.402455
vt 0.000000 0.500000
vt 0.009607 0.597545
vt 0.038060 0.691342
vt 0.084265 0.777785
vt 0.146447 0.853553
vt 0.222215 0.915735
vt 0.308658 0.961940
vt 0.402455 0.990393
vt 0.597545 0.990393
vt 0.691342 0.961940
vt 0.777785 0.915735
vt 0.853553 0.853553
vt 0.915735 0.777785
vt 0.961940 0.691342
vt 0.990393 0.597545
vt 1.000000 0.500000
o conductor
usemtl conductor
f 1/1/1 2/2/1 3/3/1 4/4/1
f 2/2/2 5/5/2 6/6/2 3/3/2
f 5/5/3 7/7/3 8/8/3 6/6/3
f 7/7/4 9/9/4 10/10/4 8/8/4
f 9/9/5 11/11/5 12/12/5 10/10/5
f 11/11/6 13/13/6 14/14/6 12/12/6
f 13/13/7 15/15/7 16/16/7 14/14/7
f 15/15/8 17/17/8 18/18/8 16/16/8
f 17/17/9 19/19/9 20/20/9 18/18/9
f 19/19/10 21/21/10 22/22/10 20/20/10
f 21/21/11 23/23/11 24/24/11 22/22/11
f 23/23/12 25/25/12 26/26/12 24/24/12
f 25/25/13 27/27/13 28/28/13 26/26/13
f 27/27/14 29/29/14 30/30/14 28/28/14
f 29/29/15 31/31/15 32/32/15 30/30/15
f 31/31/16 33/33/16 34/34/16 32/32/16
f 33/33/17 35/35/17 36/36/17 34/34/17
f 35/35/18 37/37/18 38/38/18 36/36/18
f 37/37/19 39/39/19 40/40/19 38/38/19
f 39/39/20 41/41/20 42/42/20 40/40/20
f 41/41/21 43/43/21 44/44/21 42/42/21
f 43/43/22 45/45/22 46/46/22 44/44/22
f 45/45/23 47/47/23 48/48/23 46/46/23
f 47/47/24 49/49/24 50/50/24 48/48/24
f 49/49/25 51/51/25 52/52/25 50/50/25
f 51/51/26 53/53/26 54/54/26 52/52/26
f 53/53/27 55/55/27 56/56/27 54/54/27
f 55/55/28 57/57/28 58/58/28 56/56/28
f 57/57/29 59/59/29 60/60/29 58/58/29
f 59/59/30 61/61/30 62/62/30 60/60/30
f 61/61/31 63/63/31 64/64/31 62/62/31
f 63/63/32 1/65/32 4/66/32 64/64/32
f 4/4/33 3/3/33 65/67/33 66/68/33
f 3/3/34 6/6/34 67/69/34 65/67/34
f 6/6/35 8/8/35 68/70/35 67/69/35
f 8/8/36 10/10/36 69/71/36 68/70/36
f 10/10/37 12/12/37 70/72/37 69/71/37
f 12/12/38 14/14/38 71/73/38 70/72/38
f 14/14/39 16/16/39 72/74/39 71/73/39
f 16/16/40 18/18/40 73/75/40 72/74/40
f 18/18/41 20/20/41 74/76/41 73/75/41
f 20/20/42 22/22/42 75/77/42 74/76/42
f 22/22/43 24/24/43 76/78/43 75/77/43
f 24/24/44 26/26/44 77/79/44 76/78/44
f 26/26/45 28/28/45 78/80/45 77/79/45
f 28/28/46 30/30/46 79/81/46 78/80/46
f 30/30/47 32/32/47 80/82/47 79/81/47
f 32/32/48 34/34/48 81/83/48 80/82/48
f 34/34/49 36/36/49 82/84/49 81/83/49
f 36/36/50 38/38/50 83/85/50 82/84/50
f 38/38/51 40/40/51 84/86/51 83/85/51
f 40/40/52 42/42/52 85/87/52 84/86/52
f 42/42/53 44/44/53 86/88/53 85/87/53
f 44/44/54 46/46/54 87/89/54 86/88/54
f 46/46/55 48/48/55 88/90/55 87/89/55
f 48/48/56 50/50/56 89/91/56 88/90/56
f 50/50/57 52/52/57 90/92/57 89/91/57
f 52/52/58 54/54/58 91/93/58 90/92/58
f 54/54/59 56/56/59 92/94/59 91/93/59
f 56/56/60 58/58/60 93/95/60 92/94/60
f 58/58/61 60/60/61 94/96/61 93/95/61
f 60/60/62 62/62/62 95/97/62 94/96/62
f 62/62/63 64/64/63 96/98/63 95/97/63
f 64/64/64 4/66/64 66/99/64 96/98/64
f 66/68/33 65/67/33 97/100/33 98/101/33
f 65/67/34 67/69/34 99/102/34 97/100/34
f 67/69/35 68/70/35 100/103/35 99/102/35
f 68/70/36 69/71/36 101/104/36 100/103/36
f 69/71/37 70/72/37 102/105/37 101/104/37
f 70/72/38 71/73/38 103/106/38 102/105/38
f 71/73/39 72/74/39 104/107/39 103/106/39
f 72/74/40 73/75/40 105/108/40 104/107/40
f 73/75/41 74/76/41 106/109/41 105/108/41
f 74/76/42 75/77/42 107/110/42 106/109/42
f 75/77/43 76/78/43 108/111/43 107/110/43
f 76/78/44 77/79/44 109/112/44 108/111/44
f 77/79/45 78/80/45 110/113/45 109/112/45
f 78/80/46 79/81/46 111/114/46 110/113/46
f 79/81/47 80/82/47 112/115/47 111/114/47
f 80/82/48 81/83/48 113/116/48 112/115/48
f 81/83/49 82/84/49 114/117/49 113/116/49
f 82/84/50 83/85/50 115/118/50 114/117/50
f 83/85/51 84/86/51 116/119/51 115/118/51
f 84/86/52 85/87/52 117/120/52 116/119/52
f 85/87/53 86/88/53 118/121/53 117/120/53
f 86/88/54 87/89/54 119/122/54 118/121/54
f 87/89/55 88/90/55 120/123/55 119/122/55
f 88/90/56 89/91/56 121/124/56 120/123/56
f 89/91/57 90/92/57 122/125/57 121/124/57
f 90/92/58 91/93/58 123/126/58 122/125/58
f 91/93/59 92/94/59 124/127/59 123/126/59
f 92/94/60 93/95/60 125/128/60 124/127/60
f 93/95/61 94/96/61 126/129/61 125/128/61
f 94/96/62 95/97/62 127/130/62 126/129/62
f 95/97/63 96/98/63 128/131/63 127/130/63
f 96/98/64 66/99/64 98/132/64 128/131/64
f 63/133/65 61/134/65 59/135/65 57/136/65 55/137/65 53/138/65 51/139/65 49/33/65 47/140/65 45/141/65 43/142/65 41/143/65 39/144/65 37/145/65 35/146/65 33/147/65 31/148/65 29/149/65 27/150/65 25/151/65 23/152/65 21/153/65 19/154/65 17/116/65 15/155/65 13/156/65 11/157/65 9/158/65 7/159/65 5/160/65 2/161/65 1/162/65
f 98/162/66 97/161/66 99/160/66 100/159/66 101/158/66 102/157/66 103/156/66 104/155/66 105/116/66 106/154/66 107/153/66 108/152/66 109/151/66 110/150/66 111/149/66 112/148/66 113/147/66 114/146/66 115/145/66 116/144/66 117/143/66 118/142/66 119/141/66 120/140/66 121/33/66 122/139/66 123/138/66 124/137/66 125/136/66 126/135/66 127/134/66 128/133/66
o clamp
usemtl fitting
f 129/1/67 130/2/67 131/100/67 132/101/67
f 130/2/68 133/5/68 134/102/68 131/100/68
f 133/5/69 135/7/69 136/103/69 134/102/69
f 135/7/70 137/9/70 138/104/70 136/103/70
f 137/9/71 139/11/71 140/105/71 138/104/71
f 139/11/72 141/13/72 142/106/72 140/105/72
f 141/13/73 143/15/73 144/107/73 142/106/73
f 143/15/74 145/17/74 146/108/74 144/107/74
f 145/17/75 147/19/75 148/109/75 146/108/75
f 147/19/76 149/21/76 150/110/76 148/109/76
f 149/21/77 151/23/77 152/111/77 150/110/77
f 151/23/78 153/25/78 154/112/78 152/111/78
f 153/25/79 155/27/79 156/113/79 154/112/79
f 155/27/80 157/29/80 158/114/80 156/113/80
f 157/29/81 159/31/81 160/115/81 158/114/81
f 159/31/82 161/33/82 162/116/82 160/115/82
f 161/33/83 163/35/83 164/117/83 162/116/83
f 163/35/84 165/37/84 166/118/84 164/117/84
f 165/37/85 167/39/85 168/119/85 166/118/85
f 167/39/86 169/41/86 170/120/86 168/119/86
f 169/41/87 171/43/87 172/121/87 170/120/87
f 171/43/88 173/45/88 174/122/88 172/121/88
f 173/45/89 175/47/89 176/123/89 174/122/89
f 175/47/90 177/49/90 178/124/90 176/123/90
f 177/49/91 179/51/91 180/125/91 178/124/91
f 179/51/92 181/53/92 182/126/92 180/125/92
f 181/53/93 183/55/93 184/127/93 182/126/93
f 183/55/94 185/57/94 186/128/94 184/127/94
f 185/57/95 187/59/95 188/129/95 186/128/95
f 187/59/96 189/61/96 190/130/96 188/129/96
f 189/61/97 191/63/97 192/131/97 190/130/97
f 191/63/98 129/65/98 132/132/98 192/131/98
f 193/1/67 194/2/67 195/100/67 196/101/67
f 194/2/68 197/5/68 198/102/68 195/100/68
f 197/5/69 199/7/69 200/103/69 198/102/69
f 199/7/70 201/9/70 202/104/70 200/103/70
f 201/9/71 203/11/71 204/105/71 202/104/71
f 203/11/72 205/13/72 206/106/72 204/105/72
f 205/13/73 207/15/73 208/107/73 206/106/73
f 207/15/74 209/17/74 210/108/74 208/107/74
f 209/17/75 211/19/75 212/109/75 210/108/75
f 211/19/76 213/21/76 214/110/76 212/109/76
f 213/21/77 215/23/77 216/111/77 214/110/77
f 215/23/78 217/25/78 218/112/78 216/111/78
f 217/25/79 219/27/79 220/113/79 218/112/79
f 219/27/80 221/29/80 222/114/80 220/113/80
f 221/29/81 223/31/81 224/115/81 222/114/81
f 223/31/82 225/33/82 226/116/82 224/115/82
f 225/33/83 227/35/83 228/117/83 226/116/83
f 227/35/84 229/37/84 230/118/84 228/117/84
f 229/37/85 231/39/85 232/119/85 230/118/85
f 231/39/86 233/41/86 234/120/86 232/119/86
f 233/41/87 235/43/87 236/121/87 234/120/87
f 235/43/88 237/45/88 238/122/88 236/121/88
f 237/45/89 239/47/89 240/123/89 238/122/89
f 239/47/90 241/49/90 242/124/90 240/123/90
f 241/49/91 243/51/91 244/125/91 242/124/91
f 243/51/92 245/53/92 246/126/92 244/125/92
f 245/53/93 247/55/93 248/127/93 246/126/93
f 247/55/94 249/57/94 250/128/94 248/127/94
f 249/57/95 251/59/95 252/129/95 250/128/95
f 251/59/96 253/61/96 254/130/96 252/129/96
f 253/61/97 255/63/97 256/131/97 254/130/97
f 255/63/98 193/65/98 196/132/98 256/131/98
f 257/1/67 258/2/67 259/100/67 260/101/67
f 258/2/68 261/5/68 262/102/68 259/100/68
f 261/5/69 263/7/69 264/103/69 262/102/69
f 263/7/70 265/9/70 266/104/70 264/103/70
f 265/9/71 267/11/71 268/105/71 266/104/71
f 267/11/72 269/13/72 270/106/72 268/105/72
f 269/13/73 271/15/73 272/107/73 270/106/73
f 271/15/74 273/17/74 274/108/74 272/107/74
f 273/17/75 275/19/75 276/109/75 274/108/75
f 275/19/76 277/21/76 278/110/76 276/109/76
f 277/21/77 279/23/77 280/111/77 278/110/77
f 279/23/78 281/25/78 282/112/78 280/111/78
f 281/25/79 283/27/79 284/113/79 282/112/79
f 283/27/80 285/29/80 286/114/80 284/113/80
f 285/29/81 287/31/81 288/115/81 286/114/81
f 287/31/82 289/33/82 290/116/82 288/115/82
f 289/33/83 291/35/83 292/117/83 290/116/83
f 291/35/84 293/37/84 294/118/84 292/117/84
f 293/37/85 295/39/85 296/119/85 294/118/85
f 295/39/86 297/41/86 298/120/86 296/119/86
f 297/41/87 299/43/87 300/121/87 298/120/87
f 299/43/88 301/45/88 302/122/88 300/121/88
f 301/45/89 303/47/89 304/123/89 302/122/89
f 303/47/90 305/49/90 306/124/90 304/123/90
f 305/49/91 307/51/91 308/125/91 306/124/91
f 307/51/92 309/53/92 310/126/92 308/125/92
f 309/53/93 311/55/93 312/127/93 310/126/93
f 311/55/94 313/57/94 314/128/94 312/127/94
f 313/57/95 315/59/95 316/129/95 314/128/95
f 315/59/96 317/61/96 318/130/96 316/129/96
f 317/61/97 319/63/97 320/131/97 318/130/97
f 319/63/98 257/65/98 260/132/98 320/131/98
f 260/162/66 259/161/66 262/160/66 264/159/66
f 260/162/66 264/159/66 266/158/66 268/157/66
f 260/162/66 268/157/66 270/156/66 272/155/66
f 260/162/66 272/155/66 274/116/66 276/154/66
f 260/162/66 276/154/66 278/153/66 280/152/66
f 260/162/66 280/152/66 282/151/66 284/150/66
f 260/162/66 284/150/66 286/149/66 288/148/66
f 260/162/66 288/148/66 290/147/66 292/146/66
f 260/162/66 292/146/66 294/145/66 296/144/66
f 260/162/66 296/144/66 298/143/66 300/142/66
f 260/162/66 300/142/66 302/141/66 304/140/66
f 260/162/66 304/140/66 306/33/66 308/139/66
f 260/162/66 308/139/66 310/138/66 312/137/66
f 260/162/66 312/137/66 314/136/66 316/135/66
f 260/162/66 316/135/66 318/134/66 320/133/66
