# generated by tools/gen_conductor_models.py - do not edit by hand
mtllib loose.mtl
v 0.500000 0.110000 0.187500
v 0.478952 0.105813 0.187500
v 0.478952 0.105813 0.812500
v 0.500000 0.110000 0.812500
v 0.461109 0.093891 0.187500
v 0.461109 0.093891 0.812500
v 0.449187 0.076048 0.187500
v 0.449187 0.076048 0.812500
v 0.445000 0.055000 0.187500
v 0.445000 0.055000 0.812500
v 0.449187 0.033952 0.187500
v 0.449187 0.033952 0.812500
v 0.461109 0.016109 0.187500
v 0.461109 0.016109 0.812500
v 0.478952 0.004187 0.187500
v 0.478952 0.004187 0.812500
v 0.500000 0.000000 0.187500
v 0.500000 0.000000 0.812500
v 0.521048 0.004187 0.187500
v 0.521048 0.004187 0.812500
v 0.538891 0.016109 0.187500
v 0.538891 0.016109 0.812500
v 0.550813 0.033952 0.187500
v 0.550813 0.033952 0.812500
v 0.555000 0.055000 0.187500
v 0.555000 0.055000 0.812500
v 0.550813 0.076048 0.187500
v 0.550813 0.076048 0.812500
v 0.538891 0.093891 0.187500
v 0.538891 0.093891 0.812500
v 0.521048 0.105813 0.187500
v 0.521048 0.105813 0.812500
vn -0.1913 0.9619 0.0000
vn -0.5449 0.8155 0.0000
vn -0.8155 0.5449 0.0000
vn -0.9619 0.1913 0.0000
vn -0.9619 -0.1913 0.0000
vn -0.8155 -0.5449 0.0000
vn -0.5449 -0.8155 0.0000
vn -0.1913 -0.9619 0.0000
vn 0.1913 -0.9619 0.0000
vn 0.5449 -0.8155 0.0000
vn 0.8155 -0.5449 0.0000
vn 0.9619 -0.1913 0.0000
vn 0.9619 0.1913 0.0000
vn 0.8155 0.5449 -0.0000
vn 0.5449 0.8155 -0.0000
vn 0.1913 0.9619 0.0000
vn -0.0000 -0.0000 -1.0000
vn 0.0000 0.0000 1.0000
vt 0.000000 0.000000
vt 0.062500 0.000000
vt 0.062500 1.000000
vt 0.000000 1.000000
vt 0.125000 0.000000
vt 0.125000 1.000000
vt 0.187500 0.000000
vt 0.187500 1.000000
vt 0.250000 0.000000
vt 0.250000 1.000000
vt 0.312500 0.000000
vt 0.312500 1.000000
vt 0.375000 0.000000
vt 0.375000 1.000000
vt 0.437500 0.000000
vt 0.437500 1.000000
vt 0.500000 0.000000
vt 0.500000 1.000000
vt 0.562500 0.000000
vt 0.562500 1.000000
vt 0.625000 0.000000
vt 0.625000 1.000000
vt 0.687500 0.000000
vt 0.687500 1.000000
vt 0.750000 0.000000
vt 0.750000 1.000000
vt 0.812500 0.000000
vt 0.812500 1.000000
vt 0.875000 0.000000
vt 0.875000 1.000000
vt 0.937500 0.000000
vt 0.937500 1.000000
vt 1.000000 0.000000
vt 1.000000 1.000000
vt 0.961940 0.308658
vt 0.853553 0.146447
vt 0.691342 0.038060
vt 0.308658 0.038060
vt 0.146447 0.146447
vt 0.038060 0.308658
vt 0.000000 0.500000
vt 0.038060 0.691342
vt 0.146447 0.853553
vt 0.308658 0.961940
vt 0.691342 0.961940
vt 0.853553 0.853553
vt 0.961940 0.691342
vt 1.000000 0.500000
o conductor
usemtl conductor
f 1/1/1 2/2/1 3/3/1 4/4/1
f 2/2/2 5/5/2 6/6/2 3/3/2
f 5/5/3 7/7/3 8/8/3 6/6/3
f 7/7/4 9/9/4 10/10/4 8/8/4
f 9/9/5 11/11/5 12/12/5 10/10/5
f 11/11/6 13/13/6 14/14/6 12/12/6
f 13/13/7 15/15/7 16/16/7 14/14/7
f 15/15/8 17/17/8 18/18/8 16/16/8
f 17/17/9 19/19/9 20/20/9 18/18/9
f 19/19/10 21/21/10 22/22/10 20/20/10
f 21/21/11 23/23/11 24/24/11 22/22/11
f 23/23/12 25/25/12 26/26/12 24/24/12
f 25/25/13 27/27/13 28/28/13 26/26/13
f 27/27/14 29/29/14 30/30/14 28/28/14
f 29/29/15 31/31/15 32/32/15 30/30/15
f 31/31/16 1/33/16 4/34/16 32/32/16
f 31/35/17 29/36/17 27/37/17 25/17/17 23/38/17 21/39/17 19/40/17 17/41/17 15/42/17 13/43/17 11/44/17 9/18/17 7/45/17 5/46/17 2/47/17 1/48/17
f 4/48/18 3/47/18 6/46/18 8/45/18 10/18/18 12/44/18 14/43/18 16/42/18 18/41/18 20/40/18 22/39/18 24/38/18 26/17/18 28/37/18 30/36/18 32/35/18
