# generated by tools/gen_conductor_models.py - do not edit by hand
mtllib tee.mtl
v 0.381250 0.000000 0.381250
v 0.618750 0.000000 0.381250
v 0.618750 0.000000 0.618750
v 0.381250 0.000000 0.618750
v 0.381250 0.147500 0.618750
v 0.618750 0.147500 0.618750
v 0.618750 0.147500 0.381250
v 0.381250 0.147500 0.381250
v 0.570000 0.055000 0.293750
v 0.568655 0.068656 0.293750
v 0.568655 0.068656 0.381250
v 0.570000 0.055000 0.381250
v 0.564672 0.081788 0.293750
v 0.564672 0.081788 0.381250
v 0.558203 0.093890 0.293750
v 0.558203 0.093890 0.381250
v 0.549497 0.104497 0.293750
v 0.549497 0.104497 0.381250
v 0.538890 0.113203 0.293750
v 0.538890 0.113203 0.381250
v 0.526788 0.119672 0.293750
v 0.526788 0.119672 0.381250
v 0.513656 0.123655 0.293750
v 0.513656 0.123655 0.381250
v 0.500000 0.125000 0.293750
v 0.500000 0.125000 0.381250
v 0.486344 0.123655 0.293750
v 0.486344 0.123655 0.381250
v 0.473212 0.119672 0.293750
v 0.473212 0.119672 0.381250
v 0.461110 0.113203 0.293750
v 0.461110 0.113203 0.381250
v 0.450503 0.104497 0.293750
v 0.450503 0.104497 0.381250
v 0.441797 0.093890 0.293750
v 0.441797 0.093890 0.381250
v 0.435328 0.081788 0.293750
v 0.435328 0.081788 0.381250
v 0.431345 0.068656 0.293750
v 0.431345 0.068656 0.381250
v 0.430000 0.055000 0.293750
v 0.430000 0.055000 0.381250
v 0.431345 0.041344 0.293750
v 0.431345 0.041344 0.381250
v 0.435328 0.028212 0.293750
v 0.435328 0.028212 0.381250
v 0.441797 0.016110 0.293750
v 0.441797 0.016110 0.381250
v 0.450503 0.005503 0.293750
v 0.450503 0.005503 0.381250
v 0.461110 -0.003203 0.293750
v 0.461110 -0.003203 0.381250
v 0.473212 -0.009672 0.293750
v 0.473212 -0.009672 0.381250
v 0.486344 -0.013655 0.293750
v 0.486344 -0.013655 0.381250
v 0.500000 -0.015000 0.293750
v 0.500000 -0.015000 0.381250
v 0.513656 -0.013655 0.293750
v 0.513656 -0.013655 0.381250
v 0.526788 -0.009672 0.293750
v 0.526788 -0.009672 0.381250
v 0.538890 -0.003203 0.293750
v 0.538890 -0.003203 0.381250
v 0.549497 0.005503 0.293750
v 0.549497 0.005503 0.381250
v 0.558203 0.016110 0.293750
v 0.558203 0.016110 0.381250
v 0.564672 0.028212 0.293750
v 0.564672 0.028212 0.381250
v 0.568655 0.041344 0.293750
v 0.568655 0.041344 0.381250
v 0.575000 0.125000 0.500000
v 0.575000 0.123655 0.513656
v 0.662500 0.123655 0.513656
v 0.662500 0.125000 0.500000
v 0.575000 0.119672 0.526788
v 0.662500 0.119672 0.526788
v 0.575000 0.113203 0.538890
v 0.662500 0.113203 0.538890
v 0.575000 0.104497 0.549497
v 0.662500 0.104497 0.549497
v 0.575000 0.093890 0.558203
v 0.662500 0.093890 0.558203
v 0.575000 0.081788 0.564672
v 0.662500 0.081788 0.564672
v 0.575000 0.068656 0.568655
v 0.662500 0.068656 0.568655
v 0.575000 0.055000 0.570000
v 0.662500 0.055000 0.570000
v 0.575000 0.041344 0.568655
v 0.662500 0.041344 0.568655
v 0.575000 0.028212 0.564672
v 0.662500 0.028212 0.564672
v 0.575000 0.016110 0.558203
v 0.662500 0.016110 0.558203
v 0.575000 0.005503 0.549497
v 0.662500 0.005503 0.549497
v 0.575000 -0.003203 0.538890
v 0.662500 -0.003203 0.538890
v 0.575000 -0.009672 0.526788
v 0.662500 -0.009672 0.526788
v 0.575000 -0.013655 0.513656
v 0.662500 -0.013655 0.513656
v 0.575000 -0.015000 0.500000
v 0.662500 -0.015000 0.500000
v 0.575000 -0.013655 0.486344
v 0.662500 -0.013655 0.486344
v 0.575000 -0.009672 0.473212
v 0.662500 -0.009672 0.473212
v 0.575000 -0.003203 0.461110
v 0.662500 -0.003203 0.461110
v 0.575000 0.005503 0.450503
v 0.662500 0.005503 0.450503
v 0.575000 0.016110 0.441797
v 0.662500 0.016110 0.441797
v 0.575000 0.028212 0.435328
v 0.662500 0.028212 0.435328
v 0.575000 0.041344 0.431345
v 0.662500 0.041344 0.431345
v 0.575000 0.055000 0.430000
v 0.662500 0.055000 0.430000
v 0.575000 0.068656 0.431345
v 0.662500 0.068656 0.431345
v 0.575000 0.081788 0.435328
v 0.662500 0.081788 0.435328
v 0.575000 0.093890 0.441797
v 0.662500 0.093890 0.441797
v 0.575000 0.104497 0.450503
v 0.662500 0.104497 0.450503
v 0.575000 0.113203 0.461110
v 0.662500 0.113203 0.461110
v 0.575000 0.119672 0.473212
v 0.662500 0.119672 0.473212
v 0.575000 0.123655 0.486344
v 0.662500 0.123655 0.486344
v 0.570000 0.055000 0.575000
v 0.568655 0.068656 0.575000
v 0.568655 0.068656 0.662500
v 0.570000 0.055000 0.662500
v 0.564672 0.081788 0.575000
v 0.564672 0.081788 0.662500
v 0.558203 0.093890 0.575000
v 0.558203 0.093890 0.662500
v 0.549497 0.104497 0.575000
v 0.549497 0.104497 0.662500
v 0.538890 0.113203 0.575000
v 0.538890 0.113203 0.662500
v 0.526788 0.119672 0.575000
v 0.526788 0.119672 0.662500
v 0.513656 0.123655 0.575000
v 0.513656 0.123655 0.662500
v 0.500000 0.125000 0.575000
v 0.500000 0.125000 0.662500
v 0.486344 0.123655 0.575000
v 0.486344 0.123655 0.662500
v 0.473212 0.119672 0.575000
v 0.473212 0.119672 0.662500
v 0.461110 0.113203 0.575000
v 0.461110 0.113203 0.662500
v 0.450503 0.104497 0.575000
v 0.450503 0.104497 0.662500
v 0.441797 0.093890 0.575000
v 0.441797 0.093890 0.662500
v 0.435328 0.081788 0.575000
v 0.435328 0.081788 0.662500
v 0.431345 0.068656 0.575000
v 0.431345 0.068656 0.662500
v 0.430000 0.055000 0.575000
v 0.430000 0.055000 0.662500
v 0.431345 0.041344 0.575000
v 0.431345 0.041344 0.662500
v 0.435328 0.028212 0.575000
v 0.435328 0.028212 0.662500
v 0.441797 0.016110 0.575000
v 0.441797 0.016110 0.662500
v 0.450503 0.005503 0.575000
v 0.450503 0.005503 0.662500
v 0.461110 -0.003203 0.575000
v 0.461110 -0.003203 0.662500
v 0.473212 -0.009672 0.575000
v 0.473212 -0.009672 0.662500
v 0.486344 -0.013655 0.575000
v 0.486344 -0.013655 0.662500
v 0.500000 -0.015000 0.575000
v 0.500000 -0.015000 0.662500
v 0.513656 -0.013655 0.575000
v 0.513656 -0.013655 0.662500
v 0.526788 -0.009672 0.575000
v 0.526788 -0.009672 0.662500
v 0.538890 -0.003203 0.575000
v 0.538890 -0.003203 0.662500
v 0.549497 0.005503 0.575000
v 0.549497 0.005503 0.662500
v 0.558203 0.016110 0.575000
v 0.558203 0.016110 0.662500
v 0.564672 0.028212 0.575000
v 0.564672 0.028212 0.662500
v 0.568655 0.041344 0.575000
v 0.568655 0.041344 0.662500
vn 0.0000 -1.0000 0.0000
vn 0.0000 1.0000 0.0000
vn 0.0000 0.0000 -1.0000
vn 0.0000 0.0000 1.0000
vn -1.0000 0.0000 0.0000
vn 1.0000 0.0000 0.0000
vn 0.9952 0.0980 0.0000
vn 0.9569 0.2903 0.0000
vn 0.8819 0.4714 0.0000
vn 0.7730 0.6344 0.0000
vn 0.6344 0.7730 0.0000
vn 0.4714 0.8819 0.0000
vn 0.2903 0.9569 0.0000
vn 0.0980 0.9952 0.0000
vn -0.0980 0.9952 0.0000
vn -0.2903 0.9569 0.0000
vn -0.4714 0.8819 0.0000
vn -0.6344 0.7730 0.0000
vn -0.7730 0.6344 0.0000
vn -0.8819 0.4714 0.0000
vn -0.9569 0.2903 0.0000
vn -0.9952 0.0980 0.0000
vn -0.9952 -0.0980 0.0000
vn -0.9569 -0.2903 0.0000
vn -0.8819 -0.4714 0.0000
vn -0.7730 -0.6344 0.0000
vn -0.6344 -0.7730 0.0000
vn -0.4714 -0.8819 0.0000
vn -0.2903 -0.9569 0.0000
vn -0.0980 -0.9952 0.0000
vn 0.0980 -0.9952 0.0000
vn 0.2903 -0.9569 0.0000
vn 0.4714 -0.8819 0.0000
vn 0.6344 -0.7730 0.0000
vn 0.7730 -0.6344 0.0000
vn 0.8819 -0.4714 0.0000
vn 0.9569 -0.2903 0.0000
vn 0.9952 -0.0980 0.0000
vn 0.0000 0.9952 0.0980
vn 0.0000 0.9569 0.2903
vn 0.0000 0.8819 0.4714
vn 0.0000 0.7730 0.6344
vn 0.0000 0.6344 0.7730
vn 0.0000 0.4714 0.8819
vn 0.0000 0.2903 0.9569
vn 0.0000 0.0980 0.9952
vn 0.0000 -0.0980 0.9952
vn 0.0000 -0.2903 0.9569
vn 0.0000 -0.4714 0.8819
vn 0.0000 -0.6344 0.7730
vn 0.0000 -0.7730 0.6344
vn 0.0000 -0.8819 0.4714
vn 0.0000 -0.9569 0.2903
vn 0.0000 -0.9952 0.0980
vn 0.0000 -0.9952 -0.0980
vn 0.0000 -0.9569 -0.2903
vn 0.0000 -0.8819 -0.4714
vn 0.0000 -0.7730 -0.6344
vn 0.0000 -0.6344 -0.7730
vn 0.0000 -0.4714 -0.8819
vn 0.0000 -0.2903 -0.9569
vn 0.0000 -0.0980 -0.9952
vn 0.0000 0.0980 -0.9952
vn 0.0000 0.2903 -0.9569
vn 0.0000 0.4714 -0.8819
vn 0.0000 0.6344 -0.7730
vn 0.0000 0.7730 -0.6344
vn 0.0000 0.8819 -0.4714
vn 0.0000 0.9569 -0.2903
vn 0.0000 0.9952 -0.0980
vt 0.000000 1.000000
vt 1.000000 1.000000
vt 1.000000 0.000000
vt 0.000000 0.000000
vt 0.031250 0.000000
vt 0.031250 1.000000
vt 0.062500 0.000000
vt 0.062500 1.000000
vt 0.093750 0.000000
vt 0.093750 1.000000
vt 0.125000 0.000000
vt 0.125000 1.000000
vt 0.156250 0.000000
vt 0.156250 1.000000
vt 0.187500 0.000000
vt 0.187500 1.000000
vt 0.218750 0.000000
vt 0.218750 1.000000
vt 0.250000 0.000000
vt 0.250000 1.000000
vt 0.281250 0.000000
vt 0.281250 1.000000
vt 0.312500 0.000000
vt 0.312500 1.000000
vt 0.343750 0.000000
vt 0.343750 1.000000
vt 0.375000 0.000000
vt 0.375000 1.000000
vt 0.406250 0.000000
vt 0.406250 1.000000
vt 0.437500 0.000000
vt 0.437500 1.000000
vt 0.468750 0.000000
vt 0.468750 1.000000
vt 0.500000 0.000000
vt 0.500000 1.000000
vt 0.531250 0.000000
vt 0.531250 1.000000
vt 0.562500 0.000000
vt 0.562500 1.000000
vt 0.593750 0.000000
vt 0.593750 1.000000
vt 0.625000 0.000000
vt 0.625000 1.000000
vt 0.656250 0.000000
vt 0.656250 1.000000
vt 0.687500 0.000000
vt 0.687500 1.000000
vt 0.718750 0.000000
vt 0.718750 1.000000
vt 0.750000 0.000000
vt 0.750000 1.000000
vt 0.781250 0.000000
vt 0.781250 1.000000
vt 0.812500 0.000000
vt 0.812500 1.000000
vt 0.843750 0.000000
vt 0.843750 1.000000
vt 0.875000 0.000000
vt 0.875000 1.000000
vt 0.906250 0.000000
vt 0.906250 1.000000
vt 0.937500 0.000000
vt 0.937500 1.000000
vt 0.968750 0.000000
vt 0.968750 1.000000
o clamp
usemtl fitting
f 1/1/1 2/2/1 3/3/1 4/4/1
f 5/4/2 6/3/2 7/2/2 8/1/2
f 8/2/3 7/1/3 2/4/3 1/3/3
f 6/2/4 5/1/4 4/4/4 3/3/4
f 5/2/5 8/1/5 1/4/5 4/3/5
f 7/2/6 6/1/6 3/4/6 2/3/6
f 9/4/7 10/5/7 11/6/7 12/1/7
f 10/5/8 13/7/8 14/8/8 11/6/8
f 13/7/9 15/9/9 16/10/9 14/8/9
f 15/9/10 17/11/10 18/12/10 16/10/10
f 17/11/11 19/13/11 20/14/11 18/12/11
f 19/13/12 21/15/12 22/16/12 20/14/12
f 21/15/13 23/17/13 24/18/13 22/16/13
f 23/17/14 25/19/14 26/20/14 24/18/14
f 25/19/15 27/21/15 28/22/15 26/20/15
f 27/21/16 29/23/16 30/24/16 28/22/16
f 29/23/17 31/25/17 32/26/17 30/24/17
f 31/25/18 33/27/18 34/28/18 32/26/18
f 33/27/19 35/29/19 36/30/19 34/28/19
f 35/29/20 37/31/20 38/32/20 36/30/20
f 37/31/21 39/33/21 40/34/21 38/32/21
f 39/33/22 41/35/22 42/36/22 40/34/22
f 41/35/23 43/37/23 44/38/23 42/36/23
f 43/37/24 45/39/24 46/40/24 44/38/24
f 45/39/25 47/41/25 48/42/25 46/40/25
f 47/41/26 49/43/26 50/44/26 48/42/26
f 49/43/27 51/45/27 52/46/27 50/44/27
f 51/45/28 53/47/28 54/48/28 52/46/28
f 53/47/29 55/49/29 56/50/29 54/48/29
f 55/49/30 57/51/30 58/52/30 56/50/30
f 57/51/31 59/53/31 60/54/31 58/52/31
f 59/53/32 61/55/32 62/56/32 60/54/32
f 61/55/33 63/57/33 64/58/33 62/56/33
f 63/57/34 65/59/34 66/60/34 64/58/34
f 65/59/35 67/61/35 68/62/35 66/60/35
f 67/61/36 69/63/36 70/64/36 68/62/36
f 69/63/37 71/65/37 72/66/37 70/64/37
f 71/65/38 9/3/38 12/2/38 72/66/38
f 73/4/39 74/5/39 75/6/39 76/1/39
f 74/5/40 77/7/40 78/8/40 75/6/40
f 77/7/41 79/9/41 80/10/41 78/8/41
f 79/9/42 81/11/42 82/12/42 80/10/42
f 81/11/43 83/13/43 84/14/43 82/12/43
f 83/13/44 85/15/44 86/16/44 84/14/44
f 85/15/45 87/17/45 88/18/45 86/16/45
f 87/17/46 89/19/46 90/20/46 88/18/46
f 89/19/47 91/21/47 92/22/47 90/20/47
f 91/21/48 93/23/48 94/24/48 92/22/48
f 93/23/49 95/25/49 96/26/49 94/24/49
f 95/25/50 97/27/50 98/28/50 96/26/50
f 97/27/51 99/29/51 100/30/51 98/28/51
f 99/29/52 101/31/52 102/32/52 100/30/52
f 101/31/53 103/33/53 104/34/53 102/32/53
f 103/33/54 105/35/54 106/36/54 104/34/54
f 105/35/55 107/37/55 108/38/55 106/36/55
f 107/37/56 109/39/56 110/40/56 108/38/56
f 109/39/57 111/41/57 112/42/57 110/40/57
f 111/41/58 113/43/58 114/44/58 112/42/58
f 113/43/59 115/45/59 116/46/59 114/44/59
f 115/45/60 117/47/60 118/48/60 116/46/60
f 117/47/61 119/49/61 120/50/61 118/48/61
f 119/49/62 121/51/62 122/52/62 120/50/62
f 121/51/63 123/53/63 124/54/63 122/52/63
f 123/53/64 125/55/64 126/56/64 124/54/64
f 125/55/65 127/57/65 128/58/65 126/56/65
f 127/57/66 129/59/66 130/60/66 128/58/66
f 129/59/67 131/61/67 132/62/67 130/60/67
f 131/61/68 133/63/68 134/64/68 132/62/68
f 133/63/69 135/65/69 136/66/69 134/64/69
f 135/65/70 73/3/70 76/2/70 136/66/70
f 137/4/7 138/5/7 139/6/7 140/1/7
f 138/5/8 141/7/8 142/8/8 139/6/8
f 141/7/9 143/9/9 144/10/9 142/8/9
f 143/9/10 145/11/10 146/12/10 144/10/10
f 145/11/11 147/13/11 148/14/11 146/12/11
f 147/13/12 149/15/12 150/16/12 148/14/12
f 149/15/13 151/17/13 152/18/13 150/16/13
f 151/17/14 153/19/14 154/20/14 152/18/14
f 153/19/15 155/21/15 156/22/15 154/20/15
f 155/21/16 157/23/16 158/24/16 156/22/16
f 157/23/17 159/25/17 160/26/17 158/24/17
f 159/25/18 161/27/18 162/28/18 160/26/18
f 161/27/19 163/29/19 164/30/19 162/28/19
f 163/29/20 165/31/20 166/32/20 164/30/20
f 165/31/21 167/33/21 168/34/21 166/32/21
f 167/33/22 169/35/22 170/36/22 168/34/22
f 169/35/23 171/37/23 172/38/23 170/36/23
f 171/37/24 173/39/24 174/40/24 172/38/24
f 173/39/25 175/41/25 176/42/25 174/40/25
f 175/41/26 177/43/26 178/44/26 176/42/26
f 177/43/27 179/45/27 180/46/27 178/44/27
f 179/45/28 181/47/28 182/48/28 180/46/28
f 181/47/29 183/49/29 184/50/29 182/48/29
f 183/49/30 185/51/30 186/52/30 184/50/30
f 185/51/31 187/53/31 188/54/31 186/52/31
f 187/53/32 189/55/32 190/56/32 188/54/32
f 189/55/33 191/57/33 192/58/33 190/56/33
f 191/57/34 193/59/34 194/60/34 192/58/34
f 193/59/35 195/61/35 196/62/35 194/60/35
f 195/61/36 197/63/36 198/64/36 196/62/36
f 197/63/37 199/65/37 200/66/37 198/64/37
f 199/65/38 137/3/38 140/2/38 200/66/38
