# generated by tools/gen_control_models.py - do not edit by hand
mtllib plant_controller.mtl
v -0.370000 0.000000 -0.170000
v 0.370000 0.000000 -0.170000
v 0.370000 0.000000 0.170000
v -0.370000 0.000000 0.170000
v -0.370000 0.060000 0.170000
v 0.370000 0.060000 0.170000
v 0.370000 0.060000 -0.170000
v -0.370000 0.060000 -0.170000
v -0.286000 0.084000 -0.120000
v -0.293000 0.084000 -0.107876
v -0.293000 0.060000 -0.107876
v -0.286000 0.060000 -0.120000
v -0.307000 0.084000 -0.107876
v -0.307000 0.060000 -0.107876
v -0.314000 0.084000 -0.120000
v -0.314000 0.060000 -0.120000
v -0.307000 0.084000 -0.132124
v -0.307000 0.060000 -0.132124
v -0.293000 0.084000 -0.132124
v -0.293000 0.060000 -0.132124
v -0.272630 0.061440 -0.120000
v -0.274713 0.061440 -0.109526
v -0.274713 0.058560 -0.109526
v -0.272630 0.058560 -0.120000
v -0.280646 0.061440 -0.100646
v -0.280646 0.058560 -0.100646
v -0.289526 0.061440 -0.094713
v -0.289526 0.058560 -0.094713
v -0.300000 0.061440 -0.092630
v -0.300000 0.058560 -0.092630
v -0.310474 0.061440 -0.094713
v -0.310474 0.058560 -0.094713
v -0.319354 0.061440 -0.100646
v -0.319354 0.058560 -0.100646
v -0.325287 0.061440 -0.109526
v -0.325287 0.058560 -0.109526
v -0.327370 0.061440 -0.120000
v -0.327370 0.058560 -0.120000
v -0.325287 0.061440 -0.130474
v -0.325287 0.058560 -0.130474
v -0.319354 0.061440 -0.139354
v -0.319354 0.058560 -0.139354
v -0.310474 0.061440 -0.145287
v -0.310474 0.058560 -0.145287
v -0.300000 0.061440 -0.147370
v -0.300000 0.058560 -0.147370
v -0.289526 0.061440 -0.145287
v -0.289526 0.058560 -0.145287
v -0.280646 0.061440 -0.139354
v -0.280646 0.058560 -0.139354
v -0.274713 0.061440 -0.130474
v -0.274713 0.058560 -0.130474
v -0.279389 0.064800 -0.108100
v -0.300000 0.064800 -0.096200
v -0.300000 0.060000 -0.096200
v -0.279389 0.060000 -0.108100
v -0.320611 0.064800 -0.108100
v -0.320611 0.060000 -0.108100
v -0.320611 0.064800 -0.131900
v -0.320611 0.060000 -0.131900
v -0.300000 0.064800 -0.143800
v -0.300000 0.060000 -0.143800
v -0.279389 0.064800 -0.131900
v -0.279389 0.060000 -0.131900
v -0.286000 0.084000 0.120000
v -0.293000 0.084000 0.132124
v -0.293000 0.060000 0.132124
v -0.286000 0.060000 0.120000
v -0.307000 0.084000 0.132124
v -0.307000 0.060000 0.132124
v -0.314000 0.084000 0.120000
v -0.314000 0.060000 0.120000
v -0.307000 0.084000 0.107876
v -0.307000 0.060000 0.107876
v -0.293000 0.084000 0.107876
v -0.293000 0.060000 0.107876
v -0.272630 0.061440 0.120000
v -0.274713 0.061440 0.130474
v -0.274713 0.058560 0.130474
v -0.272630 0.058560 0.120000
v -0.280646 0.061440 0.139354
v -0.280646 0.058560 0.139354
v -0.289526 0.061440 0.145287
v -0.289526 0.058560 0.145287
v -0.300000 0.061440 0.147370
v -0.300000 0.058560 0.147370
v -0.310474 0.061440 0.145287
v -0.310474 0.058560 0.145287
v -0.319354 0.061440 0.139354
v -0.319354 0.058560 0.139354
v -0.325287 0.061440 0.130474
v -0.325287 0.058560 0.130474
v -0.327370 0.061440 0.120000
v -0.327370 0.058560 0.120000
v -0.325287 0.061440 0.109526
v -0.325287 0.058560 0.109526
v -0.319354 0.061440 0.100646
v -0.319354 0.058560 0.100646
v -0.310474 0.061440 0.094713
v -0.310474 0.058560 0.094713
v -0.300000 0.061440 0.092630
v -0.300000 0.058560 0.092630
v -0.289526 0.061440 0.094713
v -0.289526 0.058560 0.094713
v -0.280646 0.061440 0.100646
v -0.280646 0.058560 0.100646
v -0.274713 0.061440 0.109526
v -0.274713 0.058560 0.109526
v -0.279389 0.064800 0.131900
v -0.300000 0.064800 0.143800
v -0.300000 0.060000 0.143800
v -0.279389 0.060000 0.131900
v -0.320611 0.064800 0.131900
v -0.320611 0.060000 0.131900
v -0.320611 0.064800 0.108100
v -0.320611 0.060000 0.108100
v -0.300000 0.064800 0.096200
v -0.300000 0.060000 0.096200
v -0.279389 0.064800 0.108100
v -0.279389 0.060000 0.108100
v 0.314000 0.084000 -0.120000
v 0.307000 0.084000 -0.107876
v 0.307000 0.060000 -0.107876
v 0.314000 0.060000 -0.120000
v 0.293000 0.084000 -0.107876
v 0.293000 0.060000 -0.107876
v 0.286000 0.084000 -0.120000
v 0.286000 0.060000 -0.120000
v 0.293000 0.084000 -0.132124
v 0.293000 0.060000 -0.132124
v 0.307000 0.084000 -0.132124
v 0.307000 0.060000 -0.132124
v 0.327370 0.061440 -0.120000
v 0.325287 0.061440 -0.109526
v 0.325287 0.058560 -0.109526
v 0.327370 0.058560 -0.120000
v 0.319354 0.061440 -0.100646
v 0.319354 0.058560 -0.100646
v 0.310474 0.061440 -0.094713
v 0.310474 0.058560 -0.094713
v 0.300000 0.061440 -0.092630
v 0.300000 0.058560 -0.092630
v 0.289526 0.061440 -0.094713
v 0.289526 0.058560 -0.094713
v 0.280646 0.061440 -0.100646
v 0.280646 0.058560 -0.100646
v 0.274713 0.061440 -0.109526
v 0.274713 0.058560 -0.109526
v 0.272630 0.061440 -0.120000
v 0.272630 0.058560 -0.120000
v 0.274713 0.061440 -0.130474
v 0.274713 0.058560 -0.130474
v 0.280646 0.061440 -0.139354
v 0.280646 0.058560 -0.139354
v 0.289526 0.061440 -0.145287
v 0.289526 0.058560 -0.145287
v 0.300000 0.061440 -0.147370
v 0.300000 0.058560 -0.147370
v 0.310474 0.061440 -0.145287
v 0.310474 0.058560 -0.145287
v 0.319354 0.061440 -0.139354
v 0.319354 0.058560 -0.139354
v 0.325287 0.061440 -0.130474
v 0.325287 0.058560 -0.130474
v 0.320611 0.064800 -0.108100
v 0.300000 0.064800 -0.096200
v 0.300000 0.060000 -0.096200
v 0.320611 0.060000 -0.108100
v 0.279389 0.064800 -0.108100
v 0.279389 0.060000 -0.108100
v 0.279389 0.064800 -0.131900
v 0.279389 0.060000 -0.131900
v 0.300000 0.064800 -0.143800
v 0.300000 0.060000 -0.143800
v 0.320611 0.064800 -0.131900
v 0.320611 0.060000 -0.131900
v 0.314000 0.084000 0.120000
v 0.307000 0.084000 0.132124
v 0.307000 0.060000 0.132124
v 0.314000 0.060000 0.120000
v 0.293000 0.084000 0.132124
v 0.293000 0.060000 0.132124
v 0.286000 0.084000 0.120000
v 0.286000 0.060000 0.120000
v 0.293000 0.084000 0.107876
v 0.293000 0.060000 0.107876
v 0.307000 0.084000 0.107876
v 0.307000 0.060000 0.107876
v 0.327370 0.061440 0.120000
v 0.325287 0.061440 0.130474
v 0.325287 0.058560 0.130474
v 0.327370 0.058560 0.120000
v 0.319354 0.061440 0.139354
v 0.319354 0.058560 0.139354
v 0.310474 0.061440 0.145287
v 0.310474 0.058560 0.145287
v 0.300000 0.061440 0.147370
v 0.300000 0.058560 0.147370
v 0.289526 0.061440 0.145287
v 0.289526 0.058560 0.145287
v 0.280646 0.061440 0.139354
v 0.280646 0.058560 0.139354
v 0.274713 0.061440 0.130474
v 0.274713 0.058560 0.130474
v 0.272630 0.061440 0.120000
v 0.272630 0.058560 0.120000
v 0.274713 0.061440 0.109526
v 0.274713 0.058560 0.109526
v 0.280646 0.061440 0.100646
v 0.280646 0.058560 0.100646
v 0.289526 0.061440 0.094713
v 0.289526 0.058560 0.094713
v 0.300000 0.061440 0.092630
v 0.300000 0.058560 0.092630
v 0.310474 0.061440 0.094713
v 0.310474 0.058560 0.094713
v 0.319354 0.061440 0.100646
v 0.319354 0.058560 0.100646
v 0.325287 0.061440 0.109526
v 0.325287 0.058560 0.109526
v 0.320611 0.064800 0.131900
v 0.300000 0.064800 0.143800
v 0.300000 0.060000 0.143800
v 0.320611 0.060000 0.131900
v 0.279389 0.064800 0.131900
v 0.279389 0.060000 0.131900
v 0.279389 0.064800 0.108100
v 0.279389 0.060000 0.108100
v 0.300000 0.064800 0.096200
v 0.300000 0.060000 0.096200
v 0.320611 0.064800 0.108100
v 0.320611 0.060000 0.108100
v -0.400000 0.060000 -0.200000
v 0.400000 0.060000 -0.200000
v 0.400000 0.060000 0.200000
v -0.400000 0.060000 0.200000
v -0.400000 1.300000 0.200000
v 0.400000 1.300000 0.200000
v 0.400000 1.300000 -0.200000
v -0.400000 1.300000 -0.200000
v -0.420000 1.300000 -0.220000
v 0.420000 1.300000 -0.220000
v 0.420000 1.300000 0.220000
v -0.420000 1.300000 0.220000
v -0.420000 1.320000 0.220000
v 0.420000 1.320000 0.220000
v 0.420000 1.320000 -0.220000
v -0.420000 1.320000 -0.220000
v -0.370000 0.110000 -0.222000
v 0.370000 0.110000 -0.222000
v 0.370000 0.110000 -0.200000
v -0.370000 0.110000 -0.200000
v -0.370000 1.250000 -0.200000
v 0.370000 1.250000 -0.200000
v 0.370000 1.250000 -0.222000
v -0.370000 1.250000 -0.222000
v -0.349000 0.265000 -0.208000
v -0.350218 0.265000 -0.201877
v -0.350218 0.155000 -0.201877
v -0.349000 0.155000 -0.208000
v -0.353686 0.265000 -0.196686
v -0.353686 0.155000 -0.196686
v -0.358877 0.265000 -0.193218
v -0.358877 0.155000 -0.193218
v -0.365000 0.265000 -0.192000
v -0.365000 0.155000 -0.192000
v -0.371123 0.265000 -0.193218
v -0.371123 0.155000 -0.193218
v -0.376314 0.265000 -0.196686
v -0.376314 0.155000 -0.196686
v -0.379782 0.265000 -0.201877
v -0.379782 0.155000 -0.201877
v -0.381000 0.265000 -0.208000
v -0.381000 0.155000 -0.208000
v -0.379782 0.265000 -0.214123
v -0.379782 0.155000 -0.214123
v -0.376314 0.265000 -0.219314
v -0.376314 0.155000 -0.219314
v -0.371123 0.265000 -0.222782
v -0.371123 0.155000 -0.222782
v -0.365000 0.265000 -0.224000
v -0.365000 0.155000 -0.224000
v -0.358877 0.265000 -0.222782
v -0.358877 0.155000 -0.222782
v -0.353686 0.265000 -0.219314
v -0.353686 0.155000 -0.219314
v -0.350218 0.265000 -0.214123
v -0.350218 0.155000 -0.214123
v -0.349000 0.735000 -0.208000
v -0.350218 0.735000 -0.201877
v -0.350218 0.625000 -0.201877
v -0.349000 0.625000 -0.208000
v -0.353686 0.735000 -0.196686
v -0.353686 0.625000 -0.196686
v -0.358877 0.735000 -0.193218
v -0.358877 0.625000 -0.193218
v -0.365000 0.735000 -0.192000
v -0.365000 0.625000 -0.192000
v -0.371123 0.735000 -0.193218
v -0.371123 0.625000 -0.193218
v -0.376314 0.735000 -0.196686
v -0.376314 0.625000 -0.196686
v -0.379782 0.735000 -0.201877
v -0.379782 0.625000 -0.201877
v -0.381000 0.735000 -0.208000
v -0.381000 0.625000 -0.208000
v -0.379782 0.735000 -0.214123
v -0.379782 0.625000 -0.214123
v -0.376314 0.735000 -0.219314
v -0.376314 0.625000 -0.219314
v -0.371123 0.735000 -0.222782
v -0.371123 0.625000 -0.222782
v -0.365000 0.735000 -0.224000
v -0.365000 0.625000 -0.224000
v -0.358877 0.735000 -0.222782
v -0.358877 0.625000 -0.222782
v -0.353686 0.735000 -0.219314
v -0.353686 0.625000 -0.219314
v -0.350218 0.735000 -0.214123
v -0.350218 0.625000 -0.214123
v -0.349000 1.205000 -0.208000
v -0.350218 1.205000 -0.201877
v -0.350218 1.095000 -0.201877
v -0.349000 1.095000 -0.208000
v -0.353686 1.205000 -0.196686
v -0.353686 1.095000 -0.196686
v -0.358877 1.205000 -0.193218
v -0.358877 1.095000 -0.193218
v -0.365000 1.205000 -0.192000
v -0.365000 1.095000 -0.192000
v -0.371123 1.205000 -0.193218
v -0.371123 1.095000 -0.193218
v -0.376314 1.205000 -0.196686
v -0.376314 1.095000 -0.196686
v -0.379782 1.205000 -0.201877
v -0.379782 1.095000 -0.201877
v -0.381000 1.205000 -0.208000
v -0.381000 1.095000 -0.208000
v -0.379782 1.205000 -0.214123
v -0.379782 1.095000 -0.214123
v -0.376314 1.205000 -0.219314
v -0.376314 1.095000 -0.219314
v -0.371123 1.205000 -0.222782
v -0.371123 1.095000 -0.222782
v -0.365000 1.205000 -0.224000
v -0.365000 1.095000 -0.224000
v -0.358877 1.205000 -0.222782
v -0.358877 1.095000 -0.222782
v -0.353686 1.205000 -0.219314
v -0.353686 1.095000 -0.219314
v -0.350218 1.205000 -0.214123
v -0.350218 1.095000 -0.214123
v -0.200000 0.810000 -0.236000
v 0.200000 0.810000 -0.236000
v 0.200000 0.810000 -0.222000
v -0.200000 0.810000 -0.222000
v -0.200000 1.110000 -0.222000
v 0.200000 1.110000 -0.222000
v 0.200000 1.110000 -0.236000
v -0.200000 1.110000 -0.236000
v -0.175000 0.835000 -0.242000
v 0.175000 0.835000 -0.242000
v 0.175000 0.835000 -0.236000
v -0.175000 0.835000 -0.236000
v -0.175000 1.085000 -0.236000
v 0.175000 1.085000 -0.236000
v 0.175000 1.085000 -0.242000
v -0.175000 1.085000 -0.242000
v 0.120000 0.730000 -0.230000
v 0.118478 0.737654 -0.230000
v 0.118478 0.737654 -0.214000
v 0.120000 0.730000 -0.214000
v 0.114142 0.744142 -0.230000
v 0.114142 0.744142 -0.214000
v 0.107654 0.748478 -0.230000
v 0.107654 0.748478 -0.214000
v 0.100000 0.750000 -0.230000
v 0.100000 0.750000 -0.214000
v 0.092346 0.748478 -0.230000
v 0.092346 0.748478 -0.214000
v 0.085858 0.744142 -0.230000
v 0.085858 0.744142 -0.214000
v 0.081522 0.737654 -0.230000
v 0.081522 0.737654 -0.214000
v 0.080000 0.730000 -0.230000
v 0.080000 0.730000 -0.214000
v 0.081522 0.722346 -0.230000
v 0.081522 0.722346 -0.214000
v 0.085858 0.715858 -0.230000
v 0.085858 0.715858 -0.214000
v 0.092346 0.711522 -0.230000
v 0.092346 0.711522 -0.214000
v 0.100000 0.710000 -0.230000
v 0.100000 0.710000 -0.214000
v 0.107654 0.711522 -0.230000
v 0.107654 0.711522 -0.214000
v 0.114142 0.715858 -0.230000
v 0.114142 0.715858 -0.214000
v 0.118478 0.722346 -0.230000
v 0.118478 0.722346 -0.214000
v 0.020000 0.730000 -0.230000
v 0.018478 0.737654 -0.230000
v 0.018478 0.737654 -0.214000
v 0.020000 0.730000 -0.214000
v 0.014142 0.744142 -0.230000
v 0.014142 0.744142 -0.214000
v 0.007654 0.748478 -0.230000
v 0.007654 0.748478 -0.214000
v 0.000000 0.750000 -0.230000
v 0.000000 0.750000 -0.214000
v -0.007654 0.748478 -0.230000
v -0.007654 0.748478 -0.214000
v -0.014142 0.744142 -0.230000
v -0.014142 0.744142 -0.214000
v -0.018478 0.737654 -0.230000
v -0.018478 0.737654 -0.214000
v -0.020000 0.730000 -0.230000
v -0.020000 0.730000 -0.214000
v -0.018478 0.722346 -0.230000
v -0.018478 0.722346 -0.214000
v -0.014142 0.715858 -0.230000
v -0.014142 0.715858 -0.214000
v -0.007654 0.711522 -0.230000
v -0.007654 0.711522 -0.214000
v -0.000000 0.710000 -0.230000
v -0.000000 0.710000 -0.214000
v 0.007654 0.711522 -0.230000
v 0.007654 0.711522 -0.214000
v 0.014142 0.715858 -0.230000
v 0.014142 0.715858 -0.214000
v 0.018478 0.722346 -0.230000
v 0.018478 0.722346 -0.214000
v -0.080000 0.730000 -0.230000
v -0.081522 0.737654 -0.230000
v -0.081522 0.737654 -0.214000
v -0.080000 0.730000 -0.214000
v -0.085858 0.744142 -0.230000
v -0.085858 0.744142 -0.214000
v -0.092346 0.748478 -0.230000
v -0.092346 0.748478 -0.214000
v -0.100000 0.750000 -0.230000
v -0.100000 0.750000 -0.214000
v -0.107654 0.748478 -0.230000
v -0.107654 0.748478 -0.214000
v -0.114142 0.744142 -0.230000
v -0.114142 0.744142 -0.214000
v -0.118478 0.737654 -0.230000
v -0.118478 0.737654 -0.214000
v -0.120000 0.730000 -0.230000
v -0.120000 0.730000 -0.214000
v -0.118478 0.722346 -0.230000
v -0.118478 0.722346 -0.214000
v -0.114142 0.715858 -0.230000
v -0.114142 0.715858 -0.214000
v -0.107654 0.711522 -0.230000
v -0.107654 0.711522 -0.214000
v -0.100000 0.710000 -0.230000
v -0.100000 0.710000 -0.214000
v -0.092346 0.711522 -0.230000
v -0.092346 0.711522 -0.214000
v -0.085858 0.715858 -0.230000
v -0.085858 0.715858 -0.214000
v -0.081522 0.722346 -0.230000
v -0.081522 0.722346 -0.214000
v -0.203000 0.730000 -0.240000
v -0.205436 0.742246 -0.240000
v -0.198045 0.745307 -0.204000
v -0.195000 0.730000 -0.204000
v -0.212373 0.752627 -0.240000
v -0.206716 0.758284 -0.204000
v -0.222754 0.759564 -0.240000
v -0.219693 0.766955 -0.204000
v -0.235000 0.762000 -0.240000
v -0.235000 0.770000 -0.204000
v -0.247246 0.759564 -0.240000
v -0.250307 0.766955 -0.204000
v -0.257627 0.752627 -0.240000
v -0.263284 0.758284 -0.204000
v -0.264564 0.742246 -0.240000
v -0.271955 0.745307 -0.204000
v -0.267000 0.730000 -0.240000
v -0.275000 0.730000 -0.204000
v -0.264564 0.717754 -0.240000
v -0.271955 0.714693 -0.204000
v -0.257627 0.707373 -0.240000
v -0.263284 0.701716 -0.204000
v -0.247246 0.700436 -0.240000
v -0.250307 0.693045 -0.204000
v -0.235000 0.698000 -0.240000
v -0.235000 0.690000 -0.204000
v -0.222754 0.700436 -0.240000
v -0.219693 0.693045 -0.204000
v -0.212373 0.707373 -0.240000
v -0.206716 0.701716 -0.204000
v -0.205436 0.717754 -0.240000
v -0.198045 0.714693 -0.204000
v 0.285000 0.590000 -0.252000
v 0.345000 0.590000 -0.252000
v 0.345000 0.590000 -0.222000
v 0.285000 0.590000 -0.222000
v 0.285000 0.750000 -0.222000
v 0.345000 0.750000 -0.222000
v 0.345000 0.750000 -0.252000
v 0.285000 0.750000 -0.252000
v -0.260000 0.170000 -0.228000
v 0.260000 0.170000 -0.228000
v 0.260000 0.170000 -0.222000
v -0.260000 0.170000 -0.222000
v -0.260000 0.450000 -0.222000
v 0.260000 0.450000 -0.222000
v 0.260000 0.450000 -0.228000
v -0.260000 0.450000 -0.228000
v -0.300000 0.300000 -0.140000
v 0.300000 0.300000 -0.140000
v 0.300000 0.300000 -0.125000
v -0.300000 0.300000 -0.125000
v -0.300000 0.320000 -0.125000
v 0.300000 0.320000 -0.125000
v 0.300000 0.320000 -0.140000
v -0.300000 0.320000 -0.140000
v -0.280000 0.240000 -0.145000
v -0.170000 0.240000 -0.145000
v -0.170000 0.240000 -0.085000
v -0.280000 0.240000 -0.085000
v -0.280000 0.380000 -0.085000
v -0.170000 0.380000 -0.085000
v -0.170000 0.380000 -0.145000
v -0.280000 0.380000 -0.145000
v -0.162000 0.240000 -0.145000
v -0.107000 0.240000 -0.145000
v -0.107000 0.240000 -0.085000
v -0.162000 0.240000 -0.085000
v -0.162000 0.380000 -0.085000
v -0.107000 0.380000 -0.085000
v -0.107000 0.380000 -0.145000
v -0.162000 0.380000 -0.145000
v -0.099000 0.240000 -0.145000
v -0.044000 0.240000 -0.145000
v -0.044000 0.240000 -0.085000
v -0.099000 0.240000 -0.085000
v -0.099000 0.380000 -0.085000
v -0.044000 0.380000 -0.085000
v -0.044000 0.380000 -0.145000
v -0.099000 0.380000 -0.145000
v -0.036000 0.240000 -0.145000
v 0.094000 0.240000 -0.145000
v 0.094000 0.240000 -0.085000
v -0.036000 0.240000 -0.085000
v -0.036000 0.380000 -0.085000
v 0.094000 0.380000 -0.085000
v 0.094000 0.380000 -0.145000
v -0.036000 0.380000 -0.145000
v 0.102000 0.240000 -0.145000
v 0.177000 0.240000 -0.145000
v 0.177000 0.240000 -0.085000
v 0.102000 0.240000 -0.085000
v 0.102000 0.380000 -0.085000
v 0.177000 0.380000 -0.085000
v 0.177000 0.380000 -0.145000
v 0.102000 0.380000 -0.145000
v -0.240000 0.046000 -0.090000
v 0.240000 0.046000 -0.090000
v 0.240000 0.046000 0.090000
v -0.240000 0.046000 0.090000
v -0.240000 0.060000 0.090000
v 0.240000 0.060000 0.090000
v 0.240000 0.060000 -0.090000
v -0.240000 0.060000 -0.090000
v -0.124000 0.046000 0.000000
v -0.137000 0.046000 0.022517
v -0.137000 0.014000 0.022517
v -0.124000 0.014000 0.000000
v -0.163000 0.046000 0.022517
v -0.163000 0.014000 0.022517
v -0.176000 0.046000 0.000000
v -0.176000 0.014000 0.000000
v -0.163000 0.046000 -0.022517
v -0.163000 0.014000 -0.022517
v -0.137000 0.046000 -0.022517
v -0.137000 0.014000 -0.022517
v -0.024000 0.046000 0.000000
v -0.037000 0.046000 0.022517
v -0.037000 0.014000 0.022517
v -0.024000 0.014000 0.000000
v -0.063000 0.046000 0.022517
v -0.063000 0.014000 0.022517
v -0.076000 0.046000 0.000000
v -0.076000 0.014000 0.000000
v -0.063000 0.046000 -0.022517
v -0.063000 0.014000 -0.022517
v -0.037000 0.046000 -0.022517
v -0.037000 0.014000 -0.022517
v 0.076000 0.046000 0.000000
v 0.063000 0.046000 0.022517
v 0.063000 0.014000 0.022517
v 0.076000 0.014000 0.000000
v 0.037000 0.046000 0.022517
v 0.037000 0.014000 0.022517
v 0.024000 0.046000 0.000000
v 0.024000 0.014000 0.000000
v 0.037000 0.046000 -0.022517
v 0.037000 0.014000 -0.022517
v 0.063000 0.046000 -0.022517
v 0.063000 0.014000 -0.022517
v 0.176000 0.046000 0.000000
v 0.163000 0.046000 0.022517
v 0.163000 0.014000 0.022517
v 0.176000 0.014000 0.000000
v 0.137000 0.046000 0.022517
v 0.137000 0.014000 0.022517
v 0.124000 0.046000 0.000000
v 0.124000 0.014000 0.000000
v 0.137000 0.046000 -0.022517
v 0.137000 0.014000 -0.022517
v 0.163000 0.046000 -0.022517
v 0.163000 0.014000 -0.022517
v 0.270000 1.320000 -0.030000
v 0.350000 1.320000 -0.030000
v 0.350000 1.320000 0.030000
v 0.270000 1.320000 0.030000
v 0.270000 1.350000 0.030000
v 0.350000 1.350000 0.030000
v 0.350000 1.350000 -0.030000
v 0.270000 1.350000 -0.030000
v 0.290000 1.350000 -0.025000
v 0.330000 1.350000 -0.025000
v 0.330000 1.350000 0.025000
v 0.290000 1.350000 0.025000
v 0.290000 1.450000 0.025000
v 0.330000 1.450000 0.025000
v 0.330000 1.450000 -0.025000
v 0.290000 1.450000 -0.025000
v 0.325400 1.498000 0.000000
v 0.324228 1.498000 0.005893
v 0.330325 1.442000 0.008419
v 0.332000 1.442000 0.000000
v 0.320889 1.498000 0.010889
v 0.325556 1.442000 0.015556
v 0.315893 1.498000 0.014228
v 0.318419 1.442000 0.020325
v 0.310000 1.498000 0.015400
v 0.310000 1.442000 0.022000
v 0.304107 1.498000 0.014228
v 0.301581 1.442000 0.020325
v 0.299111 1.498000 0.010889
v 0.294444 1.442000 0.015556
v 0.295772 1.498000 0.005893
v 0.289675 1.442000 0.008419
v 0.294600 1.498000 0.000000
v 0.288000 1.442000 0.000000
v 0.295772 1.498000 -0.005893
v 0.289675 1.442000 -0.008419
v 0.299111 1.498000 -0.010889
v 0.294444 1.442000 -0.015556
v 0.304107 1.498000 -0.014228
v 0.301581 1.442000 -0.020325
v 0.310000 1.498000 -0.015400
v 0.310000 1.442000 -0.022000
v 0.315893 1.498000 -0.014228
v 0.318419 1.442000 -0.020325
v 0.320889 1.498000 -0.010889
v 0.325556 1.442000 -0.015556
v 0.324228 1.498000 -0.005893
v 0.330325 1.442000 -0.008419
v 0.314400 1.940000 0.000000
v 0.314386 1.940000 0.000345
v 0.317975 1.500000 0.000628
v 0.318000 1.500000 0.000000
v 0.314346 1.940000 0.000688
v 0.317902 1.500000 0.001251
v 0.314278 1.940000 0.001027
v 0.317779 1.500000 0.001868
v 0.314185 1.940000 0.001360
v 0.317608 1.500000 0.002472
v 0.314065 1.940000 0.001684
v 0.317391 1.500000 0.003061
v 0.313920 1.940000 0.001998
v 0.317128 1.500000 0.003632
v 0.313752 1.940000 0.002299
v 0.316821 1.500000 0.004180
v 0.313560 1.940000 0.002586
v 0.316472 1.500000 0.004702
v 0.313346 1.940000 0.002858
v 0.316083 1.500000 0.005196
v 0.313111 1.940000 0.003111
v 0.315657 1.500000 0.005657
v 0.312858 1.940000 0.003346
v 0.315196 1.500000 0.006083
v 0.312586 1.940000 0.003560
v 0.314702 1.500000 0.006472
v 0.312299 1.940000 0.003752
v 0.314180 1.500000 0.006821
v 0.311998 1.940000 0.003920
v 0.313632 1.500000 0.007128
v 0.311684 1.940000 0.004065
v 0.313061 1.500000 0.007391
v 0.311360 1.940000 0.004185
v 0.312472 1.500000 0.007608
v 0.311027 1.940000 0.004278
v 0.311868 1.500000 0.007779
v 0.310688 1.940000 0.004346
v 0.311251 1.500000 0.007902
v 0.310345 1.940000 0.004386
v 0.310628 1.500000 0.007975
v 0.310000 1.940000 0.004400
v 0.310000 1.500000 0.008000
v 0.309655 1.940000 0.004386
v 0.309372 1.500000 0.007975
v 0.309312 1.940000 0.004346
v 0.308749 1.500000 0.007902
v 0.308973 1.940000 0.004278
v 0.308132 1.500000 0.007779
v 0.308640 1.940000 0.004185
v 0.307528 1.500000 0.007608
v 0.308316 1.940000 0.004065
v 0.306939 1.500000 0.007391
v 0.308002 1.940000 0.003920
v 0.306368 1.500000 0.007128
v 0.307701 1.940000 0.003752
v 0.305820 1.500000 0.006821
v 0.307414 1.940000 0.003560
v 0.305298 1.500000 0.006472
v 0.307142 1.940000 0.003346
v 0.304804 1.500000 0.006083
v 0.306889 1.940000 0.003111
v 0.304343 1.500000 0.005657
v 0.306654 1.940000 0.002858
v 0.303917 1.500000 0.005196
v 0.306440 1.940000 0.002586
v 0.303528 1.500000 0.004702
v 0.306248 1.940000 0.002299
v 0.303179 1.500000 0.004180
v 0.306080 1.940000 0.001998
v 0.302872 1.500000 0.003632
v 0.305935 1.940000 0.001684
v 0.302609 1.500000 0.003061
v 0.305815 1.940000 0.001360
v 0.302392 1.500000 0.002472
v 0.305722 1.940000 0.001027
v 0.302221 1.500000 0.001868
v 0.305654 1.940000 0.000688
v 0.302098 1.500000 0.001251
v 0.305614 1.940000 0.000345
v 0.302025 1.500000 0.000628
v 0.305600 1.940000 0.000000
v 0.302000 1.500000 0.000000
v 0.305614 1.940000 -0.000345
v 0.302025 1.500000 -0.000628
v 0.305654 1.940000 -0.000688
v 0.302098 1.500000 -0.001251
v 0.305722 1.940000 -0.001027
v 0.302221 1.500000 -0.001868
v 0.305815 1.940000 -0.001360
v 0.302392 1.500000 -0.002472
v 0.305935 1.940000 -0.001684
v 0.302609 1.500000 -0.003061
v 0.306080 1.940000 -0.001998
v 0.302872 1.500000 -0.003632
v 0.306248 1.940000 -0.002299
v 0.303179 1.500000 -0.004180
v 0.306440 1.940000 -0.002586
v 0.303528 1.500000 -0.004702
v 0.306654 1.940000 -0.002858
v 0.303917 1.500000 -0.005196
v 0.306889 1.940000 -0.003111
v 0.304343 1.500000 -0.005657
v 0.307142 1.940000 -0.003346
v 0.304804 1.500000 -0.006083
v 0.307414 1.940000 -0.003560
v 0.305298 1.500000 -0.006472
v 0.307701 1.940000 -0.003752
v 0.305820 1.500000 -0.006821
v 0.308002 1.940000 -0.003920
v 0.306368 1.500000 -0.007128
v 0.308316 1.940000 -0.004065
v 0.306939 1.500000 -0.007391
v 0.308640 1.940000 -0.004185
v 0.307528 1.500000 -0.007608
v 0.308973 1.940000 -0.004278
v 0.308132 1.500000 -0.007779
v 0.309312 1.940000 -0.004346
v 0.308749 1.500000 -0.007902
v 0.309655 1.940000 -0.004386
v 0.309372 1.500000 -0.007975
v 0.310000 1.940000 -0.004400
v 0.310000 1.500000 -0.008000
v 0.310345 1.940000 -0.004386
v 0.310628 1.500000 -0.007975
v 0.310688 1.940000 -0.004346
v 0.311251 1.500000 -0.007902
v 0.311027 1.940000 -0.004278
v 0.311868 1.500000 -0.007779
v 0.311360 1.940000 -0.004185
v 0.312472 1.500000 -0.007608
v 0.311684 1.940000 -0.004065
v 0.313061 1.500000 -0.007391
v 0.311998 1.940000 -0.003920
v 0.313632 1.500000 -0.007128
v 0.312299 1.940000 -0.003752
v 0.314180 1.500000 -0.006821
v 0.312586 1.940000 -0.003560
v 0.314702 1.500000 -0.006472
v 0.312858 1.940000 -0.003346
v 0.315196 1.500000 -0.006083
v 0.313111 1.940000 -0.003111
v 0.315657 1.500000 -0.005657
v 0.313346 1.940000 -0.002858
v 0.316083 1.500000 -0.005196
v 0.313560 1.940000 -0.002586
v 0.316472 1.500000 -0.004702
v 0.313752 1.940000 -0.002299
v 0.316821 1.500000 -0.004180
v 0.313920 1.940000 -0.001998
v 0.317128 1.500000 -0.003632
v 0.314065 1.940000 -0.001684
v 0.317391 1.500000 -0.003061
v 0.314185 1.940000 -0.001360
v 0.317608 1.500000 -0.002472
v 0.314278 1.940000 -0.001027
v 0.317779 1.500000 -0.001868
v 0.314346 1.940000 -0.000688
v 0.317902 1.500000 -0.001251
v 0.314386 1.940000 -0.000345
v 0.317975 1.500000 -0.000628
vn 0.0000 -1.0000 0.0000
vn 0.0000 1.0000 0.0000
vn 0.0000 0.0000 -1.0000
vn 0.0000 0.0000 1.0000
vn -1.0000 0.0000 0.0000
vn 1.0000 0.0000 0.0000
vn 0.8660 0.0000 0.5000
vn -0.8660 0.0000 0.5000
vn -0.8660 0.0000 -0.5000
vn 0.8660 0.0000 -0.5000
vn 0.9808 0.0000 0.1951
vn 0.8315 0.0000 0.5556
vn 0.5556 0.0000 0.8315
vn 0.1951 0.0000 0.9808
vn -0.1951 0.0000 0.9808
vn -0.5556 0.0000 0.8315
vn -0.8315 0.0000 0.5556
vn -0.9808 0.0000 0.1951
vn -0.9808 0.0000 -0.1951
vn -0.8315 0.0000 -0.5556
vn -0.5556 0.0000 -0.8315
vn -0.1951 0.0000 -0.9808
vn 0.1951 0.0000 -0.9808
vn 0.5556 0.0000 -0.8315
vn 0.8315 0.0000 -0.5556
vn 0.9808 0.0000 -0.1951
vn 0.5000 0.0000 0.8660
vn -0.5000 0.0000 0.8660
vn -0.5000 0.0000 -0.8660
vn 0.5000 0.0000 -0.8660
vn 0.9808 0.1951 0.0000
vn 0.8315 0.5556 0.0000
vn 0.5556 0.8315 0.0000
vn 0.1951 0.9808 0.0000
vn -0.1951 0.9808 0.0000
vn -0.5556 0.8315 0.0000
vn -0.8315 0.5556 0.0000
vn -0.9808 0.1951 0.0000
vn -0.9808 -0.1951 0.0000
vn -0.8315 -0.5556 0.0000
vn -0.5556 -0.8315 0.0000
vn -0.1951 -0.9808 0.0000
vn 0.1951 -0.9808 0.0000
vn 0.5556 -0.8315 0.0000
vn 0.8315 -0.5556 0.0000
vn 0.9808 -0.1951 0.0000
vn 0.9762 0.2167 0.0000
vn 0.8190 0.5738 0.0000
vn 0.5371 0.8435 0.0000
vn 0.1734 0.9849 0.0000
vn -0.2167 0.9762 0.0000
vn -0.5738 0.8190 0.0000
vn -0.8435 0.5371 0.0000
vn -0.9849 0.1734 0.0000
vn -0.9762 -0.2167 0.0000
vn -0.8190 -0.5738 0.0000
vn -0.5371 -0.8435 0.0000
vn -0.1734 -0.9849 0.0000
vn 0.2167 -0.9762 0.0000
vn 0.5738 -0.8190 0.0000
vn 0.8435 -0.5371 0.0000
vn 0.9849 -0.1734 0.0000
vn 0.9870 0.0000 0.1606
vn 0.8504 0.0000 0.5261
vn 0.5844 0.0000 0.8115
vn 0.2294 0.0000 0.9733
vn -0.1606 0.0000 0.9870
vn -0.5261 0.0000 0.8504
vn -0.8115 0.0000 0.5844
vn -0.9733 0.0000 0.2294
vn -0.9870 0.0000 -0.1606
vn -0.8504 0.0000 -0.5261
vn -0.5844 0.0000 -0.8115
vn -0.2294 0.0000 -0.9733
vn 0.1606 0.0000 -0.9870
vn 0.5261 0.0000 -0.8504
vn 0.8115 0.0000 -0.5844
vn 0.9733 0.0000 -0.2294
vn 0.9996 0.0000 0.0279
vn 0.9943 0.0000 0.1062
vn 0.9829 0.0000 0.1839
vn 0.9655 0.0000 0.2604
vn 0.9421 0.0000 0.3354
vn 0.9129 0.0000 0.4083
vn 0.8780 0.0000 0.4786
vn 0.8378 0.0000 0.5461
vn 0.7923 0.0000 0.6101
vn 0.7420 0.0000 0.6704
vn 0.6871 0.0000 0.7265
vn 0.6280 0.0000 0.7782
vn 0.5650 0.0000 0.8251
vn 0.4985 0.0000 0.8669
vn 0.4290 0.0000 0.9033
vn 0.3568 0.0000 0.9342
vn 0.2824 0.0000 0.9593
vn 0.2063 0.0000 0.9785
vn 0.1289 0.0000 0.9917
vn 0.0507 0.0000 0.9987
vn -0.0279 0.0000 0.9996
vn -0.1062 0.0000 0.9943
vn -0.1839 0.0000 0.9829
vn -0.2604 0.0000 0.9655
vn -0.3354 0.0000 0.9421
vn -0.4083 0.0000 0.9129
vn -0.4786 0.0000 0.8780
vn -0.5461 0.0000 0.8378
vn -0.6101 0.0000 0.7923
vn -0.6704 0.0000 0.7420
vn -0.7265 0.0000 0.6871
vn -0.7782 0.0000 0.6280
vn -0.8251 0.0000 0.5650
vn -0.8669 0.0000 0.4985
vn -0.9033 0.0000 0.4290
vn -0.9342 0.0000 0.3568
vn -0.9593 0.0000 0.2824
vn -0.9785 0.0000 0.2063
vn -0.9917 0.0000 0.1289
vn -0.9987 0.0000 0.0507
vn -0.9996 0.0000 -0.0279
vn -0.9943 0.0000 -0.1062
vn -0.9829 0.0000 -0.1839
vn -0.9655 0.0000 -0.2604
vn -0.9421 0.0000 -0.3354
vn -0.9129 0.0000 -0.4083
vn -0.8780 0.0000 -0.4786
vn -0.8378 0.0000 -0.5461
vn -0.7923 0.0000 -0.6101
vn -0.7420 0.0000 -0.6704
vn -0.6871 0.0000 -0.7265
vn -0.6280 0.0000 -0.7782
vn -0.5650 0.0000 -0.8251
vn -0.4985 0.0000 -0.8669
vn -0.4290 0.0000 -0.9033
vn -0.3568 0.0000 -0.9342
vn -0.2824 0.0000 -0.9593
vn -0.2063 0.0000 -0.9785
vn -0.1289 0.0000 -0.9917
vn -0.0507 0.0000 -0.9987
vn 0.0279 0.0000 -0.9996
vn 0.1062 0.0000 -0.9943
vn 0.1839 0.0000 -0.9829
vn 0.2604 0.0000 -0.9655
vn 0.3354 0.0000 -0.9421
vn 0.4083 0.0000 -0.9129
vn 0.4786 0.0000 -0.8780
vn 0.5461 0.0000 -0.8378
vn 0.6101 0.0000 -0.7923
vn 0.6704 0.0000 -0.7420
vn 0.7265 0.0000 -0.6871
vn 0.7782 0.0000 -0.6280
vn 0.8251 0.0000 -0.5650
vn 0.8669 0.0000 -0.4985
vn 0.9033 0.0000 -0.4290
vn 0.9342 0.0000 -0.3568
vn 0.9593 0.0000 -0.2824
vn 0.9785 0.0000 -0.2063
vn 0.9917 0.0000 -0.1289
vn 0.9987 0.0000 -0.0507
vt 0.000000 0.600000
vt 0.600000 0.600000
vt 0.600000 0.000000
vt 0.000000 0.000000
vt 0.000000 0.120000
vt 0.020000 0.120000
vt 0.020000 0.000000
vt 0.040000 0.120000
vt 0.040000 0.000000
vt 0.060000 0.120000
vt 0.060000 0.000000
vt 0.080000 0.120000
vt 0.080000 0.000000
vt 0.100000 0.120000
vt 0.100000 0.000000
vt 0.120000 0.120000
vt 0.120000 0.000000
vt 0.007500 0.120000
vt 0.007500 0.000000
vt 0.015000 0.120000
vt 0.015000 0.000000
vt 0.022500 0.120000
vt 0.022500 0.000000
vt 0.030000 0.120000
vt 0.030000 0.000000
vt 0.037500 0.120000
vt 0.037500 0.000000
vt 0.045000 0.120000
vt 0.045000 0.000000
vt 0.052500 0.120000
vt 0.052500 0.000000
vt 0.067500 0.120000
vt 0.067500 0.000000
vt 0.075000 0.120000
vt 0.075000 0.000000
vt 0.082500 0.120000
vt 0.082500 0.000000
vt 0.090000 0.120000
vt 0.090000 0.000000
vt 0.097500 0.120000
vt 0.097500 0.000000
vt 0.105000 0.120000
vt 0.105000 0.000000
vt 0.112500 0.120000
vt 0.112500 0.000000
vt 0.500000 0.000000
vt 0.691342 0.038060
vt 0.853553 0.146447
vt 0.961940 0.308658
vt 0.146447 0.146447
vt 0.308658 0.038060
vt 0.000000 0.500000
vt 0.038060 0.308658
vt 0.146447 0.853553
vt 0.038060 0.691342
vt 0.500000 1.000000
vt 0.308658 0.961940
vt 0.853553 0.853553
vt 0.691342 0.961940
vt 1.000000 0.500000
vt 0.961940 0.691342
vt 0.066987 0.750000
vt 0.066987 0.250000
vt 0.933013 0.250000
vt 0.933013 0.750000
vt 0.000000 1.000000
vt 1.000000 1.000000
vt 1.000000 0.000000
vt 0.500000 0.500000
vt 0.000000 0.200000
vt 0.012500 0.200000
vt 0.012500 0.000000
vt 0.025000 0.200000
vt 0.025000 0.000000
vt 0.037500 0.200000
vt 0.050000 0.200000
vt 0.050000 0.000000
vt 0.062500 0.200000
vt 0.062500 0.000000
vt 0.075000 0.200000
vt 0.087500 0.200000
vt 0.087500 0.000000
vt 0.100000 0.200000
vt 0.112500 0.200000
vt 0.125000 0.200000
vt 0.125000 0.000000
vt 0.137500 0.200000
vt 0.137500 0.000000
vt 0.150000 0.200000
vt 0.150000 0.000000
vt 0.162500 0.200000
vt 0.162500 0.000000
vt 0.175000 0.200000
vt 0.175000 0.000000
vt 0.187500 0.200000
vt 0.187500 0.000000
vt 0.200000 0.200000
vt 0.200000 0.000000
vt 0.000000 0.800000
vt 0.800000 0.800000
vt 0.800000 0.000000
vt 0.062500 1.000000
vt 0.125000 1.000000
vt 0.187500 1.000000
vt 0.250000 0.000000
vt 0.250000 1.000000
vt 0.312500 0.000000
vt 0.312500 1.000000
vt 0.375000 0.000000
vt 0.375000 1.000000
vt 0.437500 0.000000
vt 0.437500 1.000000
vt 0.562500 0.000000
vt 0.562500 1.000000
vt 0.625000 0.000000
vt 0.625000 1.000000
vt 0.687500 0.000000
vt 0.687500 1.000000
vt 0.750000 0.000000
vt 0.750000 1.000000
vt 0.812500 0.000000
vt 0.812500 1.000000
vt 0.875000 0.000000
vt 0.875000 1.000000
vt 0.937500 0.000000
vt 0.937500 1.000000
vt 0.000000 0.300000
vt 0.300000 0.300000
vt 0.300000 0.000000
vt 0.050000 0.300000
vt 0.100000 0.300000
vt 0.150000 0.300000
vt 0.200000 0.300000
vt 0.250000 0.300000
vt 0.250000 0.933013
vt 0.250000 0.066987
vt 0.750000 0.066987
vt 0.750000 0.933013
vt 0.018750 0.300000
vt 0.018750 0.000000
vt 0.037500 0.300000
vt 0.056250 0.300000
vt 0.056250 0.000000
vt 0.075000 0.300000
vt 0.093750 0.300000
vt 0.093750 0.000000
vt 0.112500 0.300000
vt 0.131250 0.300000
vt 0.131250 0.000000
vt 0.168750 0.300000
vt 0.168750 0.000000
vt 0.187500 0.300000
vt 0.206250 0.300000
vt 0.206250 0.000000
vt 0.225000 0.300000
vt 0.225000 0.000000
vt 0.243750 0.300000
vt 0.243750 0.000000
vt 0.262500 0.300000
vt 0.262500 0.000000
vt 0.281250 0.300000
vt 0.281250 0.000000
vt 0.000000 1.200000
vt 0.005000 1.200000
vt 0.005000 0.000000
vt 0.010000 1.200000
vt 0.010000 0.000000
vt 0.015000 1.200000
vt 0.020000 1.200000
vt 0.025000 1.200000
vt 0.030000 1.200000
vt 0.035000 1.200000
vt 0.035000 0.000000
vt 0.040000 1.200000
vt 0.045000 1.200000
vt 0.050000 1.200000
vt 0.055000 1.200000
vt 0.055000 0.000000
vt 0.060000 1.200000
vt 0.065000 1.200000
vt 0.065000 0.000000
vt 0.070000 1.200000
vt 0.070000 0.000000
vt 0.075000 1.200000
vt 0.080000 1.200000
vt 0.085000 1.200000
vt 0.085000 0.000000
vt 0.090000 1.200000
vt 0.095000 1.200000
vt 0.095000 0.000000
vt 0.100000 1.200000
vt 0.105000 1.200000
vt 0.110000 1.200000
vt 0.110000 0.000000
vt 0.115000 1.200000
vt 0.115000 0.000000
vt 0.120000 1.200000
vt 0.125000 1.200000
vt 0.130000 1.200000
vt 0.130000 0.000000
vt 0.135000 1.200000
vt 0.135000 0.000000
vt 0.140000 1.200000
vt 0.140000 0.000000
vt 0.145000 1.200000
vt 0.145000 0.000000
vt 0.150000 1.200000
vt 0.155000 1.200000
vt 0.155000 0.000000
vt 0.160000 1.200000
vt 0.160000 0.000000
vt 0.165000 1.200000
vt 0.165000 0.000000
vt 0.170000 1.200000
vt 0.170000 0.000000
vt 0.175000 1.200000
vt 0.180000 1.200000
vt 0.180000 0.000000
vt 0.185000 1.200000
vt 0.185000 0.000000
vt 0.190000 1.200000
vt 0.190000 0.000000
vt 0.195000 1.200000
vt 0.195000 0.000000
vt 0.200000 1.200000
vt 0.205000 1.200000
vt 0.205000 0.000000
vt 0.210000 1.200000
vt 0.210000 0.000000
vt 0.215000 1.200000
vt 0.215000 0.000000
vt 0.220000 1.200000
vt 0.220000 0.000000
vt 0.225000 1.200000
vt 0.230000 1.200000
vt 0.230000 0.000000
vt 0.235000 1.200000
vt 0.235000 0.000000
vt 0.240000 1.200000
vt 0.240000 0.000000
vt 0.245000 1.200000
vt 0.245000 0.000000
vt 0.250000 1.200000
vt 0.255000 1.200000
vt 0.255000 0.000000
vt 0.260000 1.200000
vt 0.260000 0.000000
vt 0.265000 1.200000
vt 0.265000 0.000000
vt 0.270000 1.200000
vt 0.270000 0.000000
vt 0.275000 1.200000
vt 0.275000 0.000000
vt 0.280000 1.200000
vt 0.280000 0.000000
vt 0.285000 1.200000
vt 0.285000 0.000000
vt 0.290000 1.200000
vt 0.290000 0.000000
vt 0.295000 1.200000
vt 0.295000 0.000000
vt 0.300000 1.200000
vt 0.305000 1.200000
vt 0.305000 0.000000
vt 0.310000 1.200000
vt 0.310000 0.000000
vt 0.315000 1.200000
vt 0.315000 0.000000
vt 0.320000 1.200000
vt 0.320000 0.000000
vt 0.325000 1.200000
vt 0.325000 0.000000
vt 0.330000 1.200000
vt 0.330000 0.000000
vt 0.335000 1.200000
vt 0.335000 0.000000
vt 0.340000 1.200000
vt 0.340000 0.000000
vt 0.345000 1.200000
vt 0.345000 0.000000
vt 0.350000 1.200000
vt 0.350000 0.000000
vt 0.355000 1.200000
vt 0.355000 0.000000
vt 0.360000 1.200000
vt 0.360000 0.000000
vt 0.365000 1.200000
vt 0.365000 0.000000
vt 0.370000 1.200000
vt 0.370000 0.000000
vt 0.375000 1.200000
vt 0.380000 1.200000
vt 0.380000 0.000000
vt 0.385000 1.200000
vt 0.385000 0.000000
vt 0.390000 1.200000
vt 0.390000 0.000000
vt 0.395000 1.200000
vt 0.395000 0.000000
vt 0.400000 1.200000
vt 0.400000 0.000000
vt 0.986185 0.616723
vt 0.993844 0.578217
vt 0.998459 0.539230
vt 0.975528 0.654508
vt 0.926320 0.761249
vt 0.945503 0.726995
vt 0.880203 0.824724
vt 0.904508 0.793893
vt 0.824724 0.880203
vt 0.761249 0.926320
vt 0.793893 0.904508
vt 0.726995 0.945503
vt 0.616723 0.986185
vt 0.654508 0.975528
vt 0.539230 0.998459
vt 0.578217 0.993844
vt 0.460770 0.998459
vt 0.383277 0.986185
vt 0.421783 0.993844
vt 0.345492 0.975528
vt 0.238751 0.926320
vt 0.273005 0.945503
vt 0.175276 0.880203
vt 0.206107 0.904508
vt 0.119797 0.824724
vt 0.073680 0.761249
vt 0.095492 0.793893
vt 0.054497 0.726995
vt 0.013815 0.616723
vt 0.024472 0.654508
vt 0.001541 0.539230
vt 0.006156 0.578217
vt 0.001541 0.460770
vt 0.013815 0.383277
vt 0.006156 0.421783
vt 0.024472 0.345492
vt 0.073680 0.238751
vt 0.054497 0.273005
vt 0.119797 0.175276
vt 0.095492 0.206107
vt 0.175276 0.119797
vt 0.238751 0.073680
vt 0.206107 0.095492
vt 0.273005 0.054497
vt 0.383277 0.013815
vt 0.345492 0.024472
vt 0.460770 0.001541
vt 0.421783 0.006156
vt 0.539230 0.001541
vt 0.616723 0.013815
vt 0.578217 0.006156
vt 0.654508 0.024472
vt 0.761249 0.073680
vt 0.726995 0.054497
vt 0.824724 0.119797
vt 0.793893 0.095492
vt 0.880203 0.175276
vt 0.926320 0.238751
vt 0.904508 0.206107
vt 0.945503 0.273005
vt 0.986185 0.383277
vt 0.975528 0.345492
vt 0.998459 0.460770
vt 0.993844 0.421783
o plinth
usemtl plate
f 1/1/1 2/2/1 3/3/1 4/4/1
f 5/4/2 6/3/2 7/2/2 8/1/2
f 8/2/3 7/1/3 2/4/3 1/3/3
f 6/2/4 5/1/4 4/4/4 3/3/4
f 5/2/5 8/1/5 1/4/5 4/3/5
f 7/2/6 6/1/6 3/4/6 2/3/6
f 9/5/7 10/6/7 11/7/7 12/4/7
f 10/6/4 13/8/4 14/9/4 11/7/4
f 13/8/8 15/10/8 16/11/8 14/9/8
f 15/10/9 17/12/9 18/13/9 16/11/9
f 17/12/3 19/14/3 20/15/3 18/13/3
f 19/14/10 9/16/10 12/17/10 20/15/10
f 21/5/11 22/18/11 23/19/11 24/4/11
f 22/18/12 25/20/12 26/21/12 23/19/12
f 25/20/13 27/22/13 28/23/13 26/21/13
f 27/22/14 29/24/14 30/25/14 28/23/14
f 29/24/15 31/26/15 32/27/15 30/25/15
f 31/26/16 33/28/16 34/29/16 32/27/16
f 33/28/17 35/30/17 36/31/17 34/29/17
f 35/30/18 37/10/18 38/11/18 36/31/18
f 37/10/19 39/32/19 40/33/19 38/11/19
f 39/32/20 41/34/20 42/35/20 40/33/20
f 41/34/21 43/36/21 44/37/21 42/35/21
f 43/36/22 45/38/22 46/39/22 44/37/22
f 45/38/23 47/40/23 48/41/23 46/39/23
f 47/40/24 49/42/24 50/43/24 48/41/24
f 49/42/25 51/44/25 52/45/25 50/43/25
f 51/44/26 21/16/26 24/17/26 52/45/26
f 46/46/1 48/47/1 50/48/1 52/49/1
f 42/50/1 44/51/1 46/46/1 52/49/1
f 38/52/1 40/53/1 42/50/1 52/49/1
f 34/54/1 36/55/1 38/52/1 52/49/1
f 30/56/1 32/57/1 34/54/1 52/49/1
f 26/58/1 28/59/1 30/56/1 52/49/1
f 24/60/1 23/61/1 26/58/1 52/49/1
f 27/59/2 25/58/2 22/61/2 21/60/2
f 31/57/2 29/56/2 27/59/2 21/60/2
f 35/55/2 33/54/2 31/57/2 21/60/2
f 39/53/2 37/52/2 35/55/2 21/60/2
f 43/51/2 41/50/2 39/53/2 21/60/2
f 47/47/2 45/46/2 43/51/2 21/60/2
f 51/49/2 49/48/2 47/47/2 21/60/2
f 53/5/27 54/6/27 55/7/27 56/4/27
f 54/6/28 57/8/28 58/9/28 55/7/28
f 57/8/5 59/10/5 60/11/5 58/9/5
f 59/10/29 61/12/29 62/13/29 60/11/29
f 61/12/30 63/14/30 64/15/30 62/13/30
f 63/14/6 53/16/6 56/17/6 64/15/6
f 58/62/1 60/63/1 62/46/1 64/64/1
f 56/65/1 55/56/1 58/62/1 64/64/1
f 59/63/2 57/62/2 54/56/2 53/65/2
f 63/64/2 61/46/2 59/63/2 53/65/2
f 65/5/7 66/6/7 67/7/7 68/4/7
f 66/6/4 69/8/4 70/9/4 67/7/4
f 69/8/8 71/10/8 72/11/8 70/9/8
f 71/10/9 73/12/9 74/13/9 72/11/9
f 73/12/3 75/14/3 76/15/3 74/13/3
f 75/14/10 65/16/10 68/17/10 76/15/10
f 77/5/11 78/18/11 79/19/11 80/4/11
f 78/18/12 81/20/12 82/21/12 79/19/12
f 81/20/13 83/22/13 84/23/13 82/21/13
f 83/22/14 85/24/14 86/25/14 84/23/14
f 85/24/15 87/26/15 88/27/15 86/25/15
f 87/26/16 89/28/16 90/29/16 88/27/16
f 89/28/17 91/30/17 92/31/17 90/29/17
f 91/30/18 93/10/18 94/11/18 92/31/18
f 93/10/19 95/32/19 96/33/19 94/11/19
f 95/32/20 97/34/20 98/35/20 96/33/20
f 97/34/21 99/36/21 100/37/21 98/35/21
f 99/36/22 101/38/22 102/39/22 100/37/22
f 101/38/23 103/40/23 104/41/23 102/39/23
f 103/40/24 105/42/24 106/43/24 104/41/24
f 105/42/25 107/44/25 108/45/25 106/43/25
f 107/44/26 77/16/26 80/17/26 108/45/26
f 102/46/1 104/47/1 106/48/1 108/49/1
f 98/50/1 100/51/1 102/46/1 108/49/1
f 94/52/1 96/53/1 98/50/1 108/49/1
f 90/54/1 92/55/1 94/52/1 108/49/1
f 86/56/1 88/57/1 90/54/1 108/49/1
f 82/58/1 84/59/1 86/56/1 108/49/1
f 80/60/1 79/61/1 82/58/1 108/49/1
f 83/59/2 81/58/2 78/61/2 77/60/2
f 87/57/2 85/56/2 83/59/2 77/60/2
f 91/55/2 89/54/2 87/57/2 77/60/2
f 95/53/2 93/52/2 91/55/2 77/60/2
f 99/51/2 97/50/2 95/53/2 77/60/2
f 103/47/2 101/46/2 99/51/2 77/60/2
f 107/49/2 105/48/2 103/47/2 77/60/2
f 109/5/27 110/6/27 111/7/27 112/4/27
f 110/6/28 113/8/28 114/9/28 111/7/28
f 113/8/5 115/10/5 116/11/5 114/9/5
f 115/10/29 117/12/29 118/13/29 116/11/29
f 117/12/30 119/14/30 120/15/30 118/13/30
f 119/14/6 109/16/6 112/17/6 120/15/6
f 114/62/1 116/63/1 118/46/1 120/64/1
f 112/65/1 111/56/1 114/62/1 120/64/1
f 115/63/2 113/62/2 110/56/2 109/65/2
f 119/64/2 117/46/2 115/63/2 109/65/2
f 121/5/7 122/6/7 123/7/7 124/4/7
f 122/6/4 125/8/4 126/9/4 123/7/4
f 125/8/8 127/10/8 128/11/8 126/9/8
f 127/10/9 129/12/9 130/13/9 128/11/9
f 129/12/3 131/14/3 132/15/3 130/13/3
f 131/14/10 121/16/10 124/17/10 132/15/10
f 133/5/11 134/18/11 135/19/11 136/4/11
f 134/18/12 137/20/12 138/21/12 135/19/12
f 137/20/13 139/22/13 140/23/13 138/21/13
f 139/22/14 141/24/14 142/25/14 140/23/14
f 141/24/15 143/26/15 144/27/15 142/25/15
f 143/26/16 145/28/16 146/29/16 144/27/16
f 145/28/17 147/30/17 148/31/17 146/29/17
f 147/30/18 149/10/18 150/11/18 148/31/18
f 149/10/19 151/32/19 152/33/19 150/11/19
f 151/32/20 153/34/20 154/35/20 152/33/20
f 153/34/21 155/36/21 156/37/21 154/35/21
f 155/36/22 157/38/22 158/39/22 156/37/22
f 157/38/23 159/40/23 160/41/23 158/39/23
f 159/40/24 161/42/24 162/43/24 160/41/24
f 161/42/25 163/44/25 164/45/25 162/43/25
f 163/44/26 133/16/26 136/17/26 164/45/26
f 158/46/1 160/47/1 162/48/1 164/49/1
f 154/50/1 156/51/1 158/46/1 164/49/1
f 150/52/1 152/53/1 154/50/1 164/49/1
f 146/54/1 148/55/1 150/52/1 164/49/1
f 142/56/1 144/57/1 146/54/1 164/49/1
f 138/58/1 140/59/1 142/56/1 164/49/1
f 136/60/1 135/61/1 138/58/1 164/49/1
f 139/59/2 137/58/2 134/61/2 133/60/2
f 143/57/2 141/56/2 139/59/2 133/60/2
f 147/55/2 145/54/2 143/57/2 133/60/2
f 151/53/2 149/52/2 147/55/2 133/60/2
f 155/51/2 153/50/2 151/53/2 133/60/2
f 159/47/2 157/46/2 155/51/2 133/60/2
f 163/49/2 161/48/2 159/47/2 133/60/2
f 165/5/27 166/6/27 167/7/27 168/4/27
f 166/6/28 169/8/28 170/9/28 167/7/28
f 169/8/5 171/10/5 172/11/5 170/9/5
f 171/10/29 173/12/29 174/13/29 172/11/29
f 173/12/30 175/14/30 176/15/30 174/13/30
f 175/14/6 165/16/6 168/17/6 176/15/6
f 170/62/1 172/63/1 174/46/1 176/64/1
f 168/65/1 167/56/1 170/62/1 176/64/1
f 171/63/2 169/62/2 166/56/2 165/65/2
f 175/64/2 173/46/2 171/63/2 165/65/2
f 177/5/7 178/6/7 179/7/7 180/4/7
f 178/6/4 181/8/4 182/9/4 179/7/4
f 181/8/8 183/10/8 184/11/8 182/9/8
f 183/10/9 185/12/9 186/13/9 184/11/9
f 185/12/3 187/14/3 188/15/3 186/13/3
f 187/14/10 177/16/10 180/17/10 188/15/10
f 189/5/11 190/18/11 191/19/11 192/4/11
f 190/18/12 193/20/12 194/21/12 191/19/12
f 193/20/13 195/22/13 196/23/13 194/21/13
f 195/22/14 197/24/14 198/25/14 196/23/14
f 197/24/15 199/26/15 200/27/15 198/25/15
f 199/26/16 201/28/16 202/29/16 200/27/16
f 201/28/17 203/30/17 204/31/17 202/29/17
f 203/30/18 205/10/18 206/11/18 204/31/18
f 205/10/19 207/32/19 208/33/19 206/11/19
f 207/32/20 209/34/20 210/35/20 208/33/20
f 209/34/21 211/36/21 212/37/21 210/35/21
f 211/36/22 213/38/22 214/39/22 212/37/22
f 213/38/23 215/40/23 216/41/23 214/39/23
f 215/40/24 217/42/24 218/43/24 216/41/24
f 217/42/25 219/44/25 220/45/25 218/43/25
f 219/44/26 189/16/26 192/17/26 220/45/26
f 214/46/1 216/47/1 218/48/1 220/49/1
f 210/50/1 212/51/1 214/46/1 220/49/1
f 206/52/1 208/53/1 210/50/1 220/49/1
f 202/54/1 204/55/1 206/52/1 220/49/1
f 198/56/1 200/57/1 202/54/1 220/49/1
f 194/58/1 196/59/1 198/56/1 220/49/1
f 192/60/1 191/61/1 194/58/1 220/49/1
f 195/59/2 193/58/2 190/61/2 189/60/2
f 199/57/2 197/56/2 195/59/2 189/60/2
f 203/55/2 201/54/2 199/57/2 189/60/2
f 207/53/2 205/52/2 203/55/2 189/60/2
f 211/51/2 209/50/2 207/53/2 189/60/2
f 215/47/2 213/46/2 211/51/2 189/60/2
f 219/49/2 217/48/2 215/47/2 189/60/2
f 221/5/27 222/6/27 223/7/27 224/4/27
f 222/6/28 225/8/28 226/9/28 223/7/28
f 225/8/5 227/10/5 228/11/5 226/9/5
f 227/10/29 229/12/29 230/13/29 228/11/29
f 229/12/30 231/14/30 232/15/30 230/13/30
f 231/14/6 221/16/6 224/17/6 232/15/6
f 226/62/1 228/63/1 230/46/1 232/64/1
f 224/65/1 223/56/1 226/62/1 232/64/1
f 227/63/2 225/62/2 222/56/2 221/65/2
f 231/64/2 229/46/2 227/63/2 221/65/2
o cabinet
usemtl cabinet
f 233/66/1 234/67/1 235/68/1 236/4/1
f 240/67/3 239/66/3 234/4/3 233/68/3
f 238/67/4 237/66/4 236/4/4 235/68/4
f 237/67/5 240/66/5 233/4/5 236/68/5
f 239/67/6 238/66/6 235/4/6 234/68/6
usemtl cabinet_top
f 237/4/2 238/68/2 239/67/2 240/66/2
f 241/52/1 242/69/1 243/46/1 244/4/1
f 245/4/2 246/46/2 247/69/2 248/52/2
f 248/69/3 247/52/3 242/4/3 241/46/3
f 246/69/4 245/52/4 244/4/4 243/46/4
f 245/69/5 248/52/5 241/4/5 244/46/5
f 247/69/6 246/52/6 243/4/6 242/46/6
o door
usemtl cabinet_leaf
f 249/66/1 250/67/1 251/68/1 252/4/1
f 253/4/2 254/68/2 255/67/2 256/66/2
f 256/67/3 255/66/3 250/4/3 249/68/3
f 254/67/4 253/66/4 252/4/4 251/68/4
f 253/67/5 256/66/5 249/4/5 252/68/5
f 255/67/6 254/66/6 251/4/6 250/68/6
usemtl steel
f 257/70/11 258/71/11 259/72/11 260/4/11
f 258/71/12 261/73/12 262/74/12 259/72/12
f 261/73/13 263/75/13 264/27/13 262/74/13
f 263/75/14 265/76/14 266/77/14 264/27/14
f 265/76/15 267/78/15 268/79/15 266/77/15
f 267/78/16 269/80/16 270/35/16 268/79/16
f 269/80/17 271/81/17 272/82/17 270/35/17
f 271/81/18 273/83/18 274/15/18 272/82/18
f 273/83/19 275/84/19 276/45/19 274/15/19
f 275/84/20 277/85/20 278/86/20 276/45/20
f 277/85/21 279/87/21 280/88/21 278/86/21
f 279/87/22 281/89/22 282/90/22 280/88/22
f 281/89/23 283/91/23 284/92/23 282/90/23
f 283/91/24 285/93/24 286/94/24 284/92/24
f 285/93/25 287/95/25 288/96/25 286/94/25
f 287/95/26 257/97/26 260/98/26 288/96/26
f 282/46/1 284/47/1 286/48/1 288/49/1
f 278/50/1 280/51/1 282/46/1 288/49/1
f 274/52/1 276/53/1 278/50/1 288/49/1
f 270/54/1 272/55/1 274/52/1 288/49/1
f 266/56/1 268/57/1 270/54/1 288/49/1
f 262/58/1 264/59/1 266/56/1 288/49/1
f 260/60/1 259/61/1 262/58/1 288/49/1
f 263/59/2 261/58/2 258/61/2 257/60/2
f 267/57/2 265/56/2 263/59/2 257/60/2
f 271/55/2 269/54/2 267/57/2 257/60/2
f 275/53/2 273/52/2 271/55/2 257/60/2
f 279/51/2 277/50/2 275/53/2 257/60/2
f 283/47/2 281/46/2 279/51/2 257/60/2
f 287/49/2 285/48/2 283/47/2 257/60/2
f 289/70/11 290/71/11 291/72/11 292/4/11
f 290/71/12 293/73/12 294/74/12 291/72/12
f 293/73/13 295/75/13 296/27/13 294/74/13
f 295/75/14 297/76/14 298/77/14 296/27/14
f 297/76/15 299/78/15 300/79/15 298/77/15
f 299/78/16 301/80/16 302/35/16 300/79/16
f 301/80/17 303/81/17 304/82/17 302/35/17
f 303/81/18 305/83/18 306/15/18 304/82/18
f 305/83/19 307/84/19 308/45/19 306/15/19
f 307/84/20 309/85/20 310/86/20 308/45/20
f 309/85/21 311/87/21 312/88/21 310/86/21
f 311/87/22 313/89/22 314/90/22 312/88/22
f 313/89/23 315/91/23 316/92/23 314/90/23
f 315/91/24 317/93/24 318/94/24 316/92/24
f 317/93/25 319/95/25 320/96/25 318/94/25
f 319/95/26 289/97/26 292/98/26 320/96/26
f 314/46/1 316/47/1 318/48/1 320/49/1
f 310/50/1 312/51/1 314/46/1 320/49/1
f 306/52/1 308/53/1 310/50/1 320/49/1
f 302/54/1 304/55/1 306/52/1 320/49/1
f 298/56/1 300/57/1 302/54/1 320/49/1
f 294/58/1 296/59/1 298/56/1 320/49/1
f 292/60/1 291/61/1 294/58/1 320/49/1
f 295/59/2 293/58/2 290/61/2 289/60/2
f 299/57/2 297/56/2 295/59/2 289/60/2
f 303/55/2 301/54/2 299/57/2 289/60/2
f 307/53/2 305/52/2 303/55/2 289/60/2
f 311/51/2 309/50/2 307/53/2 289/60/2
f 315/47/2 313/46/2 311/51/2 289/60/2
f 319/49/2 317/48/2 315/47/2 289/60/2
f 321/70/11 322/71/11 323/72/11 324/4/11
f 322/71/12 325/73/12 326/74/12 323/72/12
f 325/73/13 327/75/13 328/27/13 326/74/13
f 327/75/14 329/76/14 330/77/14 328/27/14
f 329/76/15 331/78/15 332/79/15 330/77/15
f 331/78/16 333/80/16 334/35/16 332/79/16
f 333/80/17 335/81/17 336/82/17 334/35/17
f 335/81/18 337/83/18 338/15/18 336/82/18
f 337/83/19 339/84/19 340/45/19 338/15/19
f 339/84/20 341/85/20 342/86/20 340/45/20
f 341/85/21 343/87/21 344/88/21 342/86/21
f 343/87/22 345/89/22 346/90/22 344/88/22
f 345/89/23 347/91/23 348/92/23 346/90/23
f 347/91/24 349/93/24 350/94/24 348/92/24
f 349/93/25 351/95/25 352/96/25 350/94/25
f 351/95/26 321/97/26 324/98/26 352/96/26
f 346/46/1 348/47/1 350/48/1 352/49/1
f 342/50/1 344/51/1 346/46/1 352/49/1
f 338/52/1 340/53/1 342/50/1 352/49/1
f 334/54/1 336/55/1 338/52/1 352/49/1
f 330/56/1 332/57/1 334/54/1 352/49/1
f 326/58/1 328/59/1 330/56/1 352/49/1
f 324/60/1 323/61/1 326/58/1 352/49/1
f 327/59/2 325/58/2 322/61/2 321/60/2
f 331/57/2 329/56/2 327/59/2 321/60/2
f 335/55/2 333/54/2 331/57/2 321/60/2
f 339/53/2 337/52/2 335/55/2 321/60/2
f 343/51/2 341/50/2 339/53/2 321/60/2
f 347/47/2 345/46/2 343/51/2 321/60/2
f 351/49/2 349/48/2 347/47/2 321/60/2
f 497/127/1 498/128/1 499/129/1 500/4/1
f 501/4/2 502/129/2 503/128/2 504/127/2
f 504/128/3 503/127/3 498/4/3 497/129/3
f 502/128/4 501/127/4 500/4/4 499/129/4
f 501/128/5 504/127/5 497/4/5 500/129/5
f 503/128/6 502/127/6 499/4/6 498/129/6
usemtl plate
f 353/99/1 354/100/1 355/101/1 356/4/1
f 357/4/2 358/101/2 359/100/2 360/99/2
f 360/100/3 359/99/3 354/4/3 353/101/3
f 358/100/4 357/99/4 356/4/4 355/101/4
f 357/100/5 360/99/5 353/4/5 356/101/5
f 359/100/6 358/99/6 355/4/6 354/101/6
usemtl display
f 361/66/1 362/67/1 363/68/1 364/4/1
f 365/4/2 366/68/2 367/67/2 368/66/2
f 368/67/3 367/66/3 362/4/3 361/68/3
f 366/67/4 365/66/4 364/4/4 363/68/4
f 365/67/5 368/66/5 361/4/5 364/68/5
f 367/67/6 366/66/6 363/4/6 362/68/6
usemtl lamp_run
f 369/4/31 370/79/31 371/102/31 372/66/31
f 370/79/32 373/86/32 374/103/32 371/102/32
f 373/86/33 375/96/33 376/104/33 374/103/33
f 375/96/34 377/105/34 378/106/34 376/104/34
f 377/105/35 379/107/35 380/108/35 378/106/35
f 379/107/36 381/109/36 382/110/36 380/108/36
f 381/109/37 383/111/37 384/112/37 382/110/37
f 383/111/38 385/46/38 386/56/38 384/112/38
f 385/46/39 387/113/39 388/114/39 386/56/39
f 387/113/40 389/115/40 390/116/40 388/114/40
f 389/115/41 391/117/41 392/118/41 390/116/41
f 391/117/42 393/119/42 394/120/42 392/118/42
f 393/119/43 395/121/43 396/122/43 394/120/43
f 395/121/44 397/123/44 398/124/44 396/122/44
f 397/123/45 399/125/45 400/126/45 398/124/45
f 399/125/46 369/68/46 372/67/46 400/126/46
f 399/49/3 397/48/3 395/47/3 393/46/3
f 399/49/3 393/46/3 391/51/3 389/50/3
f 399/49/3 389/50/3 387/53/3 385/52/3
f 399/49/3 385/52/3 383/55/3 381/54/3
f 399/49/3 381/54/3 379/57/3 377/56/3
f 399/49/3 377/56/3 375/59/3 373/58/3
f 399/49/3 373/58/3 370/61/3 369/60/3
f 372/60/4 371/61/4 374/58/4 376/59/4
f 372/60/4 376/59/4 378/56/4 380/57/4
f 372/60/4 380/57/4 382/54/4 384/55/4
f 372/60/4 384/55/4 386/52/4 388/53/4
f 372/60/4 388/53/4 390/50/4 392/51/4
f 372/60/4 392/51/4 394/46/4 396/47/4
f 372/60/4 396/47/4 398/48/4 400/49/4
usemtl lamp_remote
f 401/4/31 402/79/31 403/102/31 404/66/31
f 402/79/32 405/86/32 406/103/32 403/102/32
f 405/86/33 407/96/33 408/104/33 406/103/33
f 407/96/34 409/105/34 410/106/34 408/104/34
f 409/105/35 411/107/35 412/108/35 410/106/35
f 411/107/36 413/109/36 414/110/36 412/108/36
f 413/109/37 415/111/37 416/112/37 414/110/37
f 415/111/38 417/46/38 418/56/38 416/112/38
f 417/46/39 419/113/39 420/114/39 418/56/39
f 419/113/40 421/115/40 422/116/40 420/114/40
f 421/115/41 423/117/41 424/118/41 422/116/41
f 423/117/42 425/119/42 426/120/42 424/118/42
f 425/119/43 427/121/43 428/122/43 426/120/43
f 427/121/44 429/123/44 430/124/44 428/122/44
f 429/123/45 431/125/45 432/126/45 430/124/45
f 431/125/46 401/68/46 404/67/46 432/126/46
f 431/49/3 429/48/3 427/47/3 425/46/3
f 431/49/3 425/46/3 423/51/3 421/50/3
f 431/49/3 421/50/3 419/53/3 417/52/3
f 431/49/3 417/52/3 415/55/3 413/54/3
f 431/49/3 413/54/3 411/57/3 409/56/3
f 431/49/3 409/56/3 407/59/3 405/58/3
f 431/49/3 405/58/3 402/61/3 401/60/3
f 404/60/4 403/61/4 406/58/4 408/59/4
f 404/60/4 408/59/4 410/56/4 412/57/4
f 404/60/4 412/57/4 414/54/4 416/55/4
f 404/60/4 416/55/4 418/52/4 420/53/4
f 404/60/4 420/53/4 422/50/4 424/51/4
f 404/60/4 424/51/4 426/46/4 428/47/4
f 404/60/4 428/47/4 430/48/4 432/49/4
usemtl lamp_alarm
f 433/4/31 434/79/31 435/102/31 436/66/31
f 434/79/32 437/86/32 438/103/32 435/102/32
f 437/86/33 439/96/33 440/104/33 438/103/33
f 439/96/34 441/105/34 442/106/34 440/104/34
f 441/105/35 443/107/35 444/108/35 442/106/35
f 443/107/36 445/109/36 446/110/36 444/108/36
f 445/109/37 447/111/37 448/112/37 446/110/37
f 447/111/38 449/46/38 450/56/38 448/112/38
f 449/46/39 451/113/39 452/114/39 450/56/39
f 451/113/40 453/115/40 454/116/40 452/114/40
f 453/115/41 455/117/41 456/118/41 454/116/41
f 455/117/42 457/119/42 458/120/42 456/118/42
f 457/119/43 459/121/43 460/122/43 458/120/43
f 459/121/44 461/123/44 462/124/44 460/122/44
f 461/123/45 463/125/45 464/126/45 462/124/45
f 463/125/46 433/68/46 436/67/46 464/126/46
f 463/49/3 461/48/3 459/47/3 457/46/3
f 463/49/3 457/46/3 455/51/3 453/50/3
f 463/49/3 453/50/3 451/53/3 449/52/3
f 463/49/3 449/52/3 447/55/3 445/54/3
f 463/49/3 445/54/3 443/57/3 441/56/3
f 463/49/3 441/56/3 439/59/3 437/58/3
f 463/49/3 437/58/3 434/61/3 433/60/3
f 436/60/4 435/61/4 438/58/4 440/59/4
f 436/60/4 440/59/4 442/56/4 444/57/4
f 436/60/4 444/57/4 446/54/4 448/55/4
f 436/60/4 448/55/4 450/52/4 452/53/4
f 436/60/4 452/53/4 454/50/4 456/51/4
f 436/60/4 456/51/4 458/46/4 460/47/4
f 436/60/4 460/47/4 462/48/4 464/49/4
f 465/4/47 466/79/47 467/102/47 468/66/47
f 466/79/48 469/86/48 470/103/48 467/102/48
f 469/86/49 471/96/49 472/104/49 470/103/49
f 471/96/50 473/105/50 474/106/50 472/104/50
f 473/105/51 475/107/51 476/108/51 474/106/51
f 475/107/52 477/109/52 478/110/52 476/108/52
f 477/109/53 479/111/53 480/112/53 478/110/53
f 479/111/54 481/46/54 482/56/54 480/112/54
f 481/46/55 483/113/55 484/114/55 482/56/55
f 483/113/56 485/115/56 486/116/56 484/114/56
f 485/115/57 487/117/57 488/118/57 486/116/57
f 487/117/58 489/119/58 490/120/58 488/118/58
f 489/119/59 491/121/59 492/122/59 490/120/59
f 491/121/60 493/123/60 494/124/60 492/122/60
f 493/123/61 495/125/61 496/126/61 494/124/61
f 495/125/62 465/68/62 468/67/62 496/126/62
f 495/49/3 493/48/3 491/47/3 489/46/3
f 495/49/3 489/46/3 487/51/3 485/50/3
f 495/49/3 485/50/3 483/53/3 481/52/3
f 495/49/3 481/52/3 479/55/3 477/54/3
f 495/49/3 477/54/3 475/57/3 473/56/3
f 495/49/3 473/56/3 471/59/3 469/58/3
f 495/49/3 469/58/3 466/61/3 465/60/3
f 468/60/4 467/61/4 470/58/4 472/59/4
f 468/60/4 472/59/4 474/56/4 476/57/4
f 468/60/4 476/57/4 478/54/4 480/55/4
f 468/60/4 480/55/4 482/52/4 484/53/4
f 468/60/4 484/53/4 486/50/4 488/51/4
f 468/60/4 488/51/4 490/46/4 492/47/4
f 468/60/4 492/47/4 494/48/4 496/49/4
usemtl vent
f 505/66/1 506/67/1 507/68/1 508/4/1
f 509/4/2 510/68/2 511/67/2 512/66/2
f 512/67/3 511/66/3 506/4/3 505/68/3
f 510/67/4 509/66/4 508/4/4 507/68/4
f 509/67/5 512/66/5 505/4/5 508/68/5
f 511/67/6 510/66/6 507/4/6 506/68/6
o rail
usemtl steel
f 513/70/1 514/97/1 515/98/1 516/4/1
f 517/4/2 518/98/2 519/97/2 520/70/2
f 520/97/3 519/70/3 514/4/3 513/98/3
f 518/97/4 517/70/4 516/4/4 515/98/4
f 517/97/5 520/70/5 513/4/5 516/98/5
f 519/97/6 518/70/6 515/4/6 514/98/6
usemtl instrument
f 521/52/1 522/69/1 523/46/1 524/4/1
f 525/4/2 526/46/2 527/69/2 528/52/2
f 528/69/3 527/52/3 522/4/3 521/46/3
f 526/69/4 525/52/4 524/4/4 523/46/4
f 525/69/5 528/52/5 521/4/5 524/46/5
f 527/69/6 526/52/6 523/4/6 522/46/6
f 529/52/1 530/69/1 531/46/1 532/4/1
f 533/4/2 534/46/2 535/69/2 536/52/2
f 536/69/3 535/52/3 530/4/3 529/46/3
f 534/69/4 533/52/4 532/4/4 531/46/4
f 533/69/5 536/52/5 529/4/5 532/46/5
f 535/69/6 534/52/6 531/4/6 530/46/6
f 537/52/1 538/69/1 539/46/1 540/4/1
f 541/4/2 542/46/2 543/69/2 544/52/2
f 544/69/3 543/52/3 538/4/3 537/46/3
f 542/69/4 541/52/4 540/4/4 539/46/4
f 541/69/5 544/52/5 537/4/5 540/46/5
f 543/69/6 542/52/6 539/4/6 538/46/6
f 545/52/1 546/69/1 547/46/1 548/4/1
f 549/4/2 550/46/2 551/69/2 552/52/2
f 552/69/3 551/52/3 546/4/3 545/46/3
f 550/69/4 549/52/4 548/4/4 547/46/4
f 549/69/5 552/52/5 545/4/5 548/46/5
f 551/69/6 550/52/6 547/4/6 546/46/6
f 553/52/1 554/69/1 555/46/1 556/4/1
f 557/4/2 558/46/2 559/69/2 560/52/2
f 560/69/3 559/52/3 554/4/3 553/46/3
f 558/69/4 557/52/4 556/4/4 555/46/4
f 557/69/5 560/52/5 553/4/5 556/46/5
f 559/69/6 558/52/6 555/4/6 554/46/6
o glands
usemtl gland
f 569/127/7 570/130/7 571/77/7 572/4/7
f 570/130/4 573/131/4 574/15/4 571/77/4
f 573/131/8 575/132/8 576/90/8 574/15/8
f 575/132/9 577/133/9 578/98/9 576/90/9
f 577/133/3 579/134/3 580/105/3 578/98/3
f 579/134/10 569/128/10 572/129/10 580/105/10
f 574/135/1 576/52/1 578/136/1 580/137/1
f 572/60/1 571/138/1 574/135/1 580/137/1
f 575/52/2 573/135/2 570/138/2 569/60/2
f 579/137/2 577/136/2 575/52/2 569/60/2
f 581/127/7 582/130/7 583/77/7 584/4/7
f 582/130/4 585/131/4 586/15/4 583/77/4
f 585/131/8 587/132/8 588/90/8 586/15/8
f 587/132/9 589/133/9 590/98/9 588/90/9
f 589/133/3 591/134/3 592/105/3 590/98/3
f 591/134/10 581/128/10 584/129/10 592/105/10
f 586/135/1 588/52/1 590/136/1 592/137/1
f 584/60/1 583/138/1 586/135/1 592/137/1
f 587/52/2 585/135/2 582/138/2 581/60/2
f 591/137/2 589/136/2 587/52/2 581/60/2
f 593/127/7 594/130/7 595/77/7 596/4/7
f 594/130/4 597/131/4 598/15/4 595/77/4
f 597/131/8 599/132/8 600/90/8 598/15/8
f 599/132/9 601/133/9 602/98/9 600/90/9
f 601/133/3 603/134/3 604/105/3 602/98/3
f 603/134/10 593/128/10 596/129/10 604/105/10
f 598/135/1 600/52/1 602/136/1 604/137/1
f 596/60/1 595/138/1 598/135/1 604/137/1
f 599/52/2 597/135/2 594/138/2 593/60/2
f 603/137/2 601/136/2 599/52/2 593/60/2
f 605/127/7 606/130/7 607/77/7 608/4/7
f 606/130/4 609/131/4 610/15/4 607/77/4
f 609/131/8 611/132/8 612/90/8 610/15/8
f 611/132/9 613/133/9 614/98/9 612/90/9
f 613/133/3 615/134/3 616/105/3 614/98/3
f 615/134/10 605/128/10 608/129/10 616/105/10
f 610/135/1 612/52/1 614/136/1 616/137/1
f 608/60/1 607/138/1 610/135/1 616/137/1
f 611/52/2 609/135/2 606/138/2 605/60/2
f 615/137/2 613/136/2 611/52/2 605/60/2
usemtl plate
f 561/52/1 562/69/1 563/46/1 564/4/1
f 565/4/2 566/46/2 567/69/2 568/52/2
f 568/69/3 567/52/3 562/4/3 561/46/3
f 566/69/4 565/52/4 564/4/4 563/46/4
f 565/69/5 568/52/5 561/4/5 564/46/5
f 567/69/6 566/52/6 563/4/6 562/46/6
o antenna
usemtl steel
f 617/70/1 618/97/1 619/98/1 620/4/1
f 621/4/2 622/98/2 623/97/2 624/70/2
f 624/97/3 623/70/3 618/4/3 617/98/3
f 622/97/4 621/70/4 620/4/4 619/98/4
f 621/97/5 624/70/5 617/4/5 620/98/5
f 623/97/6 622/70/6 619/4/6 618/98/6
f 625/70/1 626/97/1 627/98/1 628/4/1
f 629/4/2 630/98/2 631/97/2 632/70/2
f 632/97/3 631/70/3 626/4/3 625/98/3
f 630/97/4 629/70/4 628/4/4 627/98/4
f 629/97/5 632/70/5 625/4/5 628/98/5
f 631/97/6 630/70/6 627/4/6 626/98/6
f 665/163/79 666/164/79 667/165/79 668/4/79
f 666/164/80 669/166/80 670/167/80 667/165/80
f 669/166/81 671/168/81 672/21/81 670/167/81
f 671/168/82 673/169/82 674/7/82 672/21/82
f 673/169/83 675/170/83 676/74/83 674/7/83
f 675/170/84 677/171/84 678/25/84 676/74/84
f 677/171/85 679/172/85 680/173/85 678/25/85
f 679/172/86 681/174/86 682/9/86 680/173/86
f 681/174/87 683/175/87 684/29/87 682/9/87
f 683/175/88 685/176/88 686/77/88 684/29/88
f 685/176/89 687/177/89 688/178/89 686/77/89
f 687/177/90 689/179/90 690/11/90 688/178/90
f 689/179/91 691/180/91 692/181/91 690/11/91
f 691/180/92 693/182/92 694/183/92 692/181/92
f 693/182/93 695/184/93 696/35/93 694/183/93
f 695/184/94 697/185/94 698/13/94 696/35/94
f 697/185/95 699/186/95 700/187/95 698/13/95
f 699/186/96 701/188/96 702/39/96 700/187/96
f 701/188/97 703/189/97 704/190/97 702/39/97
f 703/189/98 705/191/98 706/15/98 704/190/98
f 705/191/99 707/192/99 708/43/99 706/15/99
f 707/192/100 709/193/100 710/194/100 708/43/100
f 709/193/101 711/195/101 712/196/101 710/194/101
f 711/195/102 713/197/102 714/17/102 712/196/102
f 713/197/103 715/198/103 716/86/103 714/17/103
f 715/198/104 717/199/104 718/200/104 716/86/104
f 717/199/105 719/201/105 720/202/105 718/200/105
f 719/201/106 721/203/106 722/204/106 720/202/106
f 721/203/107 723/205/107 724/206/107 722/204/107
f 723/205/108 725/207/108 726/90/108 724/206/108
f 725/207/109 727/208/109 728/209/109 726/90/109
f 727/208/110 729/210/110 730/211/110 728/209/110
f 729/210/111 731/212/111 732/213/111 730/211/111
f 731/212/112 733/214/112 734/215/112 732/213/112
f 733/214/113 735/216/113 736/94/113 734/215/113
f 735/216/114 737/217/114 738/218/114 736/94/114
f 737/217/115 739/219/115 740/220/115 738/218/115
f 739/219/116 741/221/116 742/222/116 740/220/116
f 741/221/117 743/223/117 744/224/117 742/222/117
f 743/223/118 745/225/118 746/98/118 744/224/118
f 745/225/119 747/226/119 748/227/119 746/98/119
f 747/226/120 749/228/120 750/229/120 748/227/120
f 749/228/121 751/230/121 752/231/121 750/229/121
f 751/230/122 753/232/122 754/233/122 752/231/122
f 753/232/123 755/234/123 756/156/123 754/233/123
f 755/234/124 757/235/124 758/236/124 756/156/124
f 757/235/125 759/237/125 760/238/125 758/236/125
f 759/237/126 761/239/126 762/240/126 760/238/126
f 761/239/127 763/241/127 764/242/127 762/240/127
f 763/241/128 765/243/128 766/105/128 764/242/128
f 765/243/129 767/244/129 768/245/129 766/105/129
f 767/244/130 769/246/130 770/247/130 768/245/130
f 769/246/131 771/248/131 772/249/131 770/247/131
f 771/248/132 773/250/132 774/251/132 772/249/132
f 773/250/133 775/252/133 776/253/133 774/251/133
f 775/252/134 777/254/134 778/255/134 776/253/134
f 777/254/135 779/256/135 780/257/135 778/255/135
f 779/256/136 781/258/136 782/259/136 780/257/136
f 781/258/137 783/260/137 784/261/137 782/259/137
f 783/260/138 785/262/138 786/129/138 784/261/138
f 785/262/139 787/263/139 788/264/139 786/129/139
f 787/263/140 789/265/140 790/266/140 788/264/140
f 789/265/141 791/267/141 792/268/141 790/266/141
f 791/267/142 793/269/142 794/270/142 792/268/142
f 793/269/143 795/271/143 796/272/143 794/270/143
f 795/271/144 797/273/144 798/274/144 796/272/144
f 797/273/145 799/275/145 800/276/145 798/274/145
f 799/275/146 801/277/146 802/278/146 800/276/146
f 801/277/147 803/279/147 804/280/147 802/278/147
f 803/279/148 805/281/148 806/282/148 804/280/148
f 805/281/149 807/283/149 808/284/149 806/282/149
f 807/283/150 809/285/150 810/286/150 808/284/150
f 809/285/151 811/287/151 812/288/151 810/286/151
f 811/287/152 813/289/152 814/290/152 812/288/152
f 813/289/153 815/291/153 816/109/153 814/290/153
f 815/291/154 817/292/154 818/293/154 816/109/154
f 817/292/155 819/294/155 820/295/155 818/293/155
f 819/294/156 821/296/156 822/297/156 820/295/156
f 821/296/157 823/298/157 824/299/157 822/297/157
f 823/298/158 665/300/158 668/301/158 824/299/158
f 671/302/2 669/303/2 666/304/2 665/60/2
f 675/61/2 673/305/2 671/302/2 665/60/2
f 679/306/2 677/307/2 675/61/2 665/60/2
f 683/308/2 681/309/2 679/306/2 665/60/2
f 687/310/2 685/58/2 683/308/2 665/60/2
f 691/311/2 689/312/2 687/310/2 665/60/2
f 695/59/2 693/313/2 691/311/2 665/60/2
f 699/314/2 697/315/2 695/59/2 665/60/2
f 703/316/2 701/317/2 699/314/2 665/60/2
f 707/318/2 705/56/2 703/316/2 665/60/2
f 711/319/2 709/320/2 707/318/2 665/60/2
f 715/57/2 713/321/2 711/319/2 665/60/2
f 719/322/2 717/323/2 715/57/2 665/60/2
f 723/324/2 721/325/2 719/322/2 665/60/2
f 727/326/2 725/54/2 723/324/2 665/60/2
f 731/327/2 729/328/2 727/326/2 665/60/2
f 735/55/2 733/329/2 731/327/2 665/60/2
f 739/330/2 737/331/2 735/55/2 665/60/2
f 743/332/2 741/333/2 739/330/2 665/60/2
f 747/334/2 745/52/2 743/332/2 665/60/2
f 751/335/2 749/336/2 747/334/2 665/60/2
f 755/53/2 753/337/2 751/335/2 665/60/2
f 759/338/2 757/339/2 755/53/2 665/60/2
f 763/340/2 761/341/2 759/338/2 665/60/2
f 767/342/2 765/50/2 763/340/2 665/60/2
f 771/343/2 769/344/2 767/342/2 665/60/2
f 775/51/2 773/345/2 771/343/2 665/60/2
f 779/346/2 777/347/2 775/51/2 665/60/2
f 783/348/2 781/349/2 779/346/2 665/60/2
f 787/350/2 785/46/2 783/348/2 665/60/2
f 791/351/2 789/352/2 787/350/2 665/60/2
f 795/47/2 793/353/2 791/351/2 665/60/2
f 799/354/2 797/355/2 795/47/2 665/60/2
f 803/356/2 801/357/2 799/354/2 665/60/2
f 807/358/2 805/48/2 803/356/2 665/60/2
f 811/359/2 809/360/2 807/358/2 665/60/2
f 815/49/2 813/361/2 811/359/2 665/60/2
f 819/362/2 817/363/2 815/49/2 665/60/2
f 823/364/2 821/365/2 819/362/2 665/60/2
usemtl instrument
f 633/127/63 634/139/63 635/140/63 636/4/63
f 634/139/64 637/141/64 638/27/64 635/140/64
f 637/141/65 639/142/65 640/143/65 638/27/65
f 639/142/66 641/144/66 642/35/66 640/143/66
f 641/144/67 643/145/67 644/146/67 642/35/67
f 643/145/68 645/147/68 646/45/68 644/146/68
f 645/147/69 647/148/69 648/149/69 646/45/69
f 647/148/70 649/132/70 650/90/70 648/149/70
f 649/132/71 651/150/71 652/151/71 650/90/71
f 651/150/72 653/152/72 654/96/72 652/151/72
f 653/152/73 655/153/73 656/154/73 654/96/73
f 655/153/74 657/155/74 658/156/74 656/154/74
f 657/155/75 659/157/75 660/158/75 658/156/75
f 659/157/76 661/159/76 662/160/76 660/158/76
f 661/159/77 663/161/77 664/162/77 662/160/77
f 663/161/78 633/128/78 636/129/78 664/162/78
f 658/46/1 660/47/1 662/48/1 664/49/1
f 654/50/1 656/51/1 658/46/1 664/49/1
f 650/52/1 652/53/1 654/50/1 664/49/1
f 646/54/1 648/55/1 650/52/1 664/49/1
f 642/56/1 644/57/1 646/54/1 664/49/1
f 638/58/1 640/59/1 642/56/1 664/49/1
f 636/60/1 635/61/1 638/58/1 664/49/1
f 639/59/2 637/58/2 634/61/2 633/60/2
f 643/57/2 641/56/2 639/59/2 633/60/2
f 647/55/2 645/54/2 643/57/2 633/60/2
f 651/53/2 649/52/2 647/55/2 633/60/2
f 655/51/2 653/50/2 651/53/2 633/60/2
f 659/47/2 657/46/2 655/51/2 633/60/2
f 663/49/2 661/48/2 659/47/2 633/60/2
