# generated by tools/gen_conductor_models.py - do not edit by hand
mtllib end.mtl
v 0.500000 0.064000 0.287500
v 0.487754 0.061564 0.287500
v 0.487754 0.060849 0.293536
v 0.500000 0.063226 0.293003
v 0.477373 0.054627 0.287500
v 0.477373 0.054080 0.295053
v 0.470436 0.044246 0.287500
v 0.470436 0.043950 0.297323
v 0.468000 0.032000 0.287500
v 0.468000 0.032000 0.300000
v 0.470436 0.019754 0.287500
v 0.470436 0.020050 0.302677
v 0.477373 0.009373 0.287500
v 0.477373 0.009920 0.304947
v 0.487754 0.002436 0.287500
v 0.487754 0.003151 0.306464
v 0.500000 0.000000 0.287500
v 0.500000 0.000774 0.306997
v 0.512246 0.002436 0.287500
v 0.512246 0.003151 0.306464
v 0.522627 0.009373 0.287500
v 0.522627 0.009920 0.304947
v 0.529564 0.019754 0.287500
v 0.529564 0.020050 0.302677
v 0.532000 0.032000 0.287500
v 0.532000 0.032000 0.300000
v 0.529564 0.044246 0.287500
v 0.529564 0.043950 0.297323
v 0.522627 0.054627 0.287500
v 0.522627 0.054080 0.295053
v 0.512246 0.061564 0.287500
v 0.512246 0.060849 0.293536
v 0.487754 0.125724 0.431036
v 0.500000 0.128101 0.430503
v 0.477373 0.118955 0.432553
v 0.470436 0.108825 0.434823
v 0.468000 0.096875 0.437500
v 0.470436 0.084925 0.440177
v 0.477373 0.074795 0.442447
v 0.487754 0.068026 0.443964
v 0.500000 0.065649 0.444497
v 0.512246 0.068026 0.443964
v 0.522627 0.074795 0.442447
v 0.529564 0.084925 0.440177
v 0.532000 0.096875 0.437500
v 0.529564 0.108825 0.434823
v 0.522627 0.118955 0.432553
v 0.512246 0.125724 0.431036
v 0.487754 0.126439 0.512500
v 0.500000 0.128875 0.512500
v 0.477373 0.119502 0.512500
v 0.470436 0.109121 0.512500
v 0.468000 0.096875 0.512500
v 0.470436 0.084629 0.512500
v 0.477373 0.074248 0.512500
v 0.487754 0.067311 0.512500
v 0.500000 0.064875 0.512500
v 0.512246 0.067311 0.512500
v 0.522627 0.074248 0.512500
v 0.529564 0.084629 0.512500
v 0.532000 0.096875 0.512500
v 0.529564 0.109121 0.512500
v 0.522627 0.119502 0.512500
v 0.512246 0.126439 0.512500
v 0.596875 0.096875 0.512500
v 0.589501 0.133947 0.512500
v 0.589501 0.133947 0.593750
v 0.596875 0.096875 0.593750
v 0.568501 0.165376 0.512500
v 0.568501 0.165376 0.593750
v 0.537072 0.186376 0.512500
v 0.537072 0.186376 0.593750
v 0.500000 0.193750 0.512500
v 0.500000 0.193750 0.593750
v 0.462928 0.186376 0.512500
v 0.462928 0.186376 0.593750
v 0.431499 0.165376 0.512500
v 0.431499 0.165376 0.593750
v 0.410499 0.133947 0.512500
v 0.410499 0.133947 0.593750
v 0.403125 0.096875 0.512500
v 0.403125 0.096875 0.593750
v 0.410499 0.059803 0.512500
v 0.410499 0.059803 0.593750
v 0.431499 0.028374 0.512500
v 0.431499 0.028374 0.593750
v 0.462928 0.007374 0.512500
v 0.462928 0.007374 0.593750
v 0.500000 0.000000 0.512500
v 0.500000 0.000000 0.593750
v 0.537072 0.007374 0.512500
v 0.537072 0.007374 0.593750
v 0.568501 0.028374 0.512500
v 0.568501 0.028374 0.593750
v 0.589501 0.059803 0.512500
v 0.589501 0.059803 0.593750
v 0.565625 0.096875 0.593750
v 0.560630 0.121989 0.593750
v 0.560630 0.121989 0.628125
v 0.565625 0.096875 0.628125
v 0.546404 0.143279 0.593750
v 0.546404 0.143279 0.628125
v 0.525114 0.157505 0.593750
v 0.525114 0.157505 0.628125
v 0.500000 0.162500 0.593750
v 0.500000 0.162500 0.628125
v 0.474886 0.157505 0.593750
v 0.474886 0.157505 0.628125
v 0.453596 0.143279 0.593750
v 0.453596 0.143279 0.628125
v 0.439370 0.121989 0.593750
v 0.439370 0.121989 0.628125
v 0.434375 0.096875 0.593750
v 0.434375 0.096875 0.628125
v 0.439370 0.071761 0.593750
v 0.439370 0.071761 0.628125
v 0.453596 0.050471 0.593750
v 0.453596 0.050471 0.628125
v 0.474886 0.036245 0.593750
v 0.474886 0.036245 0.628125
v 0.500000 0.031250 0.593750
v 0.500000 0.031250 0.628125
v 0.525114 0.036245 0.593750
v 0.525114 0.036245 0.628125
v 0.546404 0.050471 0.593750
v 0.546404 0.050471 0.628125
v 0.560630 0.071761 0.593750
v 0.560630 0.071761 0.628125
v 0.556250 0.096875 0.628125
v 0.551968 0.118401 0.628125
v 0.551968 0.118401 0.715625
v 0.556250 0.096875 0.715625
v 0.539775 0.136650 0.628125
v 0.539775 0.136650 0.715625
v 0.521526 0.148843 0.628125
v 0.521526 0.148843 0.715625
v 0.500000 0.153125 0.628125
v 0.500000 0.153125 0.715625
v 0.478474 0.148843 0.628125
v 0.478474 0.148843 0.715625
v 0.460225 0.136650 0.628125
v 0.460225 0.136650 0.715625
v 0.448032 0.118401 0.628125
v 0.448032 0.118401 0.715625
v 0.443750 0.096875 0.628125
v 0.443750 0.096875 0.715625
v 0.448032 0.075349 0.628125
v 0.448032 0.075349 0.715625
v 0.460225 0.057100 0.628125
v 0.460225 0.057100 0.715625
v 0.478474 0.044907 0.628125
v 0.478474 0.044907 0.715625
v 0.500000 0.040625 0.628125
v 0.500000 0.040625 0.715625
v 0.521526 0.044907 0.628125
v 0.521526 0.044907 0.715625
v 0.539775 0.057100 0.628125
v 0.539775 0.057100 0.715625
v 0.551968 0.075349 0.628125
v 0.551968 0.075349 0.715625
vn -0.1913 0.9619 0.0000
vn -0.5449 0.8155 0.0000
vn -0.8155 0.5449 0.0000
vn -0.9619 0.1913 0.0000
vn -0.9619 -0.1913 0.0000
vn -0.8155 -0.5449 0.0000
vn -0.5449 -0.8155 0.0000
vn -0.1913 -0.9619 0.0000
vn 0.1913 -0.9619 0.0000
vn 0.5449 -0.8155 0.0000
vn 0.8155 -0.5449 0.0000
vn 0.9619 -0.1913 0.0000
vn 0.9619 0.1913 0.0000
vn 0.8155 0.5449 -0.0000
vn 0.5449 0.8155 -0.0000
vn 0.1913 0.9619 0.0000
vn -0.1913 0.9387 -0.2103
vn -0.5449 0.7958 -0.1783
vn -0.8155 0.5317 -0.1191
vn -0.9619 0.1867 -0.0418
vn -0.9619 -0.1867 0.0418
vn -0.8155 -0.5317 0.1191
vn -0.5449 -0.7958 0.1783
vn -0.1913 -0.9387 0.2103
vn 0.1913 -0.9387 0.2103
vn 0.5449 -0.7958 0.1783
vn 0.8155 -0.5317 0.1191
vn 0.9619 -0.1867 0.0418
vn 0.9619 0.1867 -0.0418
vn 0.8155 0.5317 -0.1191
vn 0.5449 0.7958 -0.1783
vn 0.1913 0.9387 -0.2103
vn -0.0000 -0.0000 -1.0000
vn 0.0000 0.0000 1.0000
vn 0.9808 0.1951 0.0000
vn 0.8315 0.5556 0.0000
vn 0.5556 0.8315 0.0000
vn 0.1951 0.9808 0.0000
vn -0.1951 0.9808 0.0000
vn -0.5556 0.8315 0.0000
vn -0.8315 0.5556 0.0000
vn -0.9808 0.1951 0.0000
vn -0.9808 -0.1951 0.0000
vn -0.8315 -0.5556 0.0000
vn -0.5556 -0.8315 0.0000
vn -0.1951 -0.9808 0.0000
vn 0.1951 -0.9808 0.0000
vn 0.5556 -0.8315 0.0000
vn 0.8315 -0.5556 0.0000
vn 0.9808 -0.1951 0.0000
vt 0.000000 0.000000
vt 0.062500 0.000000
vt 0.062500 0.052184
vt 0.000000 0.052184
vt 0.125000 0.000000
vt 0.125000 0.052184
vt 0.187500 0.000000
vt 0.187500 0.052184
vt 0.250000 0.000000
vt 0.250000 0.052184
vt 0.312500 0.000000
vt 0.312500 0.052184
vt 0.375000 0.000000
vt 0.375000 0.052184
vt 0.437500 0.000000
vt 0.437500 0.052184
vt 0.500000 0.000000
vt 0.500000 0.052184
vt 0.562500 0.000000
vt 0.562500 0.052184
vt 0.625000 0.000000
vt 0.625000 0.052184
vt 0.687500 0.000000
vt 0.687500 0.052184
vt 0.750000 0.000000
vt 0.750000 0.052184
vt 0.812500 0.000000
vt 0.812500 0.052184
vt 0.875000 0.000000
vt 0.875000 0.052184
vt 0.937500 0.000000
vt 0.937500 0.052184
vt 1.000000 0.000000
vt 1.000000 0.052184
vt 0.062500 0.686895
vt 0.000000 0.686895
vt 0.125000 0.686895
vt 0.187500 0.686895
vt 0.250000 0.686895
vt 0.312500 0.686895
vt 0.375000 0.686895
vt 0.437500 0.686895
vt 0.500000 0.686895
vt 0.562500 0.686895
vt 0.625000 0.686895
vt 0.687500 0.686895
vt 0.750000 0.686895
vt 0.812500 0.686895
vt 0.875000 0.686895
vt 0.937500 0.686895
vt 1.000000 0.686895
vt 0.062500 1.000000
vt 0.000000 1.000000
vt 0.125000 1.000000
vt 0.187500 1.000000
vt 0.250000 1.000000
vt 0.312500 1.000000
vt 0.375000 1.000000
vt 0.437500 1.000000
vt 0.500000 1.000000
vt 0.562500 1.000000
vt 0.625000 1.000000
vt 0.687500 1.000000
vt 0.750000 1.000000
vt 0.812500 1.000000
vt 0.875000 1.000000
vt 0.937500 1.000000
vt 1.000000 1.000000
vt 0.961940 0.308658
vt 0.853553 0.146447
vt 0.691342 0.038060
vt 0.308658 0.038060
vt 0.146447 0.146447
vt 0.038060 0.308658
vt 0.000000 0.500000
vt 0.038060 0.691342
vt 0.146447 0.853553
vt 0.308658 0.961940
vt 0.691342 0.961940
vt 0.853553 0.853553
vt 0.961940 0.691342
vt 1.000000 0.500000
o conductor
usemtl conductor
f 1/1/1 2/2/1 3/3/1 4/4/1
f 2/2/2 5/5/2 6/6/2 3/3/2
f 5/5/3 7/7/3 8/8/3 6/6/3
f 7/7/4 9/9/4 10/10/4 8/8/4
f 9/9/5 11/11/5 12/12/5 10/10/5
f 11/11/6 13/13/6 14/14/6 12/12/6
f 13/13/7 15/15/7 16/16/7 14/14/7
f 15/15/8 17/17/8 18/18/8 16/16/8
f 17/17/9 19/19/9 20/20/9 18/18/9
f 19/19/10 21/21/10 22/22/10 20/20/10
f 21/21/11 23/23/11 24/24/11 22/22/11
f 23/23/12 25/25/12 26/26/12 24/24/12
f 25/25/13 27/27/13 28/28/13 26/26/13
f 27/27/14 29/29/14 30/30/14 28/28/14
f 29/29/15 31/31/15 32/32/15 30/30/15
f 31/31/16 1/33/16 4/34/16 32/32/16
f 4/4/17 3/3/17 33/35/17 34/36/17
f 3/3/18 6/6/18 35/37/18 33/35/18
f 6/6/19 8/8/19 36/38/19 35/37/19
f 8/8/20 10/10/20 37/39/20 36/38/20
f 10/10/21 12/12/21 38/40/21 37/39/21
f 12/12/22 14/14/22 39/41/22 38/40/22
f 14/14/23 16/16/23 40/42/23 39/41/23
f 16/16/24 18/18/24 41/43/24 40/42/24
f 18/18/25 20/20/25 42/44/25 41/43/25
f 20/20/26 22/22/26 43/45/26 42/44/26
f 22/22/27 24/24/27 44/46/27 43/45/27
f 24/24/28 26/26/28 45/47/28 44/46/28
f 26/26/29 28/28/29 46/48/29 45/47/29
f 28/28/30 30/30/30 47/49/30 46/48/30
f 30/30/31 32/32/31 48/50/31 47/49/31
f 32/32/32 4/34/32 34/51/32 48/50/32
f 34/36/17 33/35/17 49/52/17 50/53/17
f 33/35/18 35/37/18 51/54/18 49/52/18
f 35/37/19 36/38/19 52/55/19 51/54/19
f 36/38/20 37/39/20 53/56/20 52/55/20
f 37/39/21 38/40/21 54/57/21 53/56/21
f 38/40/22 39/41/22 55/58/22 54/57/22
f 39/41/23 40/42/23 56/59/23 55/58/23
f 40/42/24 41/43/24 57/60/24 56/59/24
f 41/43/25 42/44/25 58/61/25 57/60/25
f 42/44/26 43/45/26 59/62/26 58/61/26
f 43/45/27 44/46/27 60/63/27 59/62/27
f 44/46/28 45/47/28 61/64/28 60/63/28
f 45/47/29 46/48/29 62/65/29 61/64/29
f 46/48/30 47/49/30 63/66/30 62/65/30
f 47/49/31 48/50/31 64/67/31 63/66/31
f 48/50/32 34/51/32 50/68/32 64/67/32
f 31/69/33 29/70/33 27/71/33 25/17/33 23/72/33 21/73/33 19/74/33 17/75/33 15/76/33 13/77/33 11/78/33 9/60/33 7/79/33 5/80/33 2/81/33 1/82/33
f 50/82/34 49/81/34 51/80/34 52/79/34 53/60/34 54/78/34 55/77/34 56/76/34 57/75/34 58/74/34 59/73/34 60/72/34 61/17/34 62/71/34 63/70/34 64/69/34
o clamp
usemtl fitting
f 65/1/35 66/2/35 67/52/35 68/53/35
f 66/2/36 69/5/36 70/54/36 67/52/36
f 69/5/37 71/7/37 72/55/37 70/54/37
f 71/7/38 73/9/38 74/56/38 72/55/38
f 73/9/39 75/11/39 76/57/39 74/56/39
f 75/11/40 77/13/40 78/58/40 76/57/40
f 77/13/41 79/15/41 80/59/41 78/58/41
f 79/15/42 81/17/42 82/60/42 80/59/42
f 81/17/43 83/19/43 84/61/43 82/60/43
f 83/19/44 85/21/44 86/62/44 84/61/44
f 85/21/45 87/23/45 88/63/45 86/62/45
f 87/23/46 89/25/46 90/64/46 88/63/46
f 89/25/47 91/27/47 92/65/47 90/64/47
f 91/27/48 93/29/48 94/66/48 92/65/48
f 93/29/49 95/31/49 96/67/49 94/66/49
f 95/31/50 65/33/50 68/68/50 96/67/50
f 97/1/35 98/2/35 99/52/35 100/53/35
f 98/2/36 101/5/36 102/54/36 99/52/36
f 101/5/37 103/7/37 104/55/37 102/54/37
f 103/7/38 105/9/38 106/56/38 104/55/38
f 105/9/39 107/11/39 108/57/39 106/56/39
f 107/11/40 109/13/40 110/58/40 108/57/40
f 109/13/41 111/15/41 112/59/41 110/58/41
f 111/15/42 113/17/42 114/60/42 112/59/42
f 113/17/43 115/19/43 116/61/43 114/60/43
f 115/19/44 117/21/44 118/62/44 116/61/44
f 117/21/45 119/23/45 120/63/45 118/62/45
f 119/23/46 121/25/46 122/64/46 120/63/46
f 121/25/47 123/27/47 124/65/47 122/64/47
f 123/27/48 125/29/48 126/66/48 124/65/48
f 125/29/49 127/31/49 128/67/49 126/66/49
f 127/31/50 97/33/50 100/68/50 128/67/50
f 129/1/35 130/2/35 131/52/35 132/53/35
f 130/2/36 133/5/36 134/54/36 131/52/36
f 133/5/37 135/7/37 136/55/37 134/54/37
f 135/7/38 137/9/38 138/56/38 136/55/38
f 137/9/39 139/11/39 140/57/39 138/56/39
f 139/11/40 141/13/40 142/58/40 140/57/40
f 141/13/41 143/15/41 144/59/41 142/58/41
f 143/15/42 145/17/42 146/60/42 144/59/42
f 145/17/43 147/19/43 148/61/43 146/60/43
f 147/19/44 149/21/44 150/62/44 148/61/44
f 149/21/45 151/23/45 152/63/45 150/62/45
f 151/23/46 153/25/46 154/64/46 152/63/46
f 153/25/47 155/27/47 156/65/47 154/64/47
f 155/27/48 157/29/48 158/66/48 156/65/48
f 157/29/49 159/31/49 160/67/49 158/66/49
f 159/31/50 129/33/50 132/68/50 160/67/50
f 132/82/34 131/81/34 134/80/34 136/79/34
f 132/82/34 136/79/34 138/60/34 140/78/34
f 132/82/34 140/78/34 142/77/34 144/76/34
f 132/82/34 144/76/34 146/75/34 148/74/34
f 132/82/34 148/74/34 150/73/34 152/72/34
f 132/82/34 152/72/34 154/17/34 156/71/34
f 132/82/34 156/71/34 158/70/34 160/69/34
