# generated by tools/gen_trunk_models.py - do not edit by hand
mtllib dc_trunk_cable_trench_loose.mtl
v 0.371875 0.674952 0.122117
v 0.338390 0.668296 0.122336
v 0.338390 0.677671 0.406711
v 0.371875 0.684327 0.406492
v 0.310003 0.649338 0.122961
v 0.310003 0.658713 0.407336
v 0.291036 0.620967 0.123897
v 0.291036 0.630342 0.408272
v 0.284375 0.587500 0.125000
v 0.284375 0.596875 0.409375
v 0.291036 0.554033 0.126103
v 0.291036 0.563408 0.410478
v 0.310003 0.525662 0.127039
v 0.310003 0.535037 0.411414
v 0.338390 0.506704 0.127664
v 0.338390 0.516079 0.412039
v 0.371875 0.500048 0.127883
v 0.371875 0.509423 0.412258
v 0.405360 0.506704 0.127664
v 0.405360 0.516079 0.412039
v 0.433747 0.525662 0.127039
v 0.433747 0.535037 0.411414
v 0.452714 0.554033 0.126103
v 0.452714 0.563408 0.410478
v 0.459375 0.587500 0.125000
v 0.459375 0.596875 0.409375
v 0.452714 0.620967 0.123897
v 0.452714 0.630342 0.408272
v 0.433747 0.649338 0.122961
v 0.433747 0.658713 0.407336
v 0.405360 0.668296 0.122336
v 0.405360 0.677671 0.406711
v 0.371875 0.693750 0.387500
v 0.334803 0.686376 0.387500
v 0.334803 0.686376 0.612500
v 0.371875 0.693750 0.612500
v 0.303374 0.665376 0.387500
v 0.303374 0.665376 0.612500
v 0.282374 0.633947 0.387500
v 0.282374 0.633947 0.612500
v 0.275000 0.596875 0.387500
v 0.275000 0.596875 0.612500
v 0.282374 0.559803 0.387500
v 0.282374 0.559803 0.612500
v 0.303374 0.528374 0.387500
v 0.303374 0.528374 0.612500
v 0.334803 0.507374 0.387500
v 0.334803 0.507374 0.612500
v 0.371875 0.500000 0.387500
v 0.371875 0.500000 0.612500
v 0.408947 0.507374 0.387500
v 0.408947 0.507374 0.612500
v 0.440376 0.528374 0.387500
v 0.440376 0.528374 0.612500
v 0.461376 0.559803 0.387500
v 0.461376 0.559803 0.612500
v 0.468750 0.596875 0.387500
v 0.468750 0.596875 0.612500
v 0.461376 0.633947 0.387500
v 0.461376 0.633947 0.612500
v 0.440376 0.665376 0.387500
v 0.440376 0.665376 0.612500
v 0.408947 0.686376 0.387500
v 0.408947 0.686376 0.612500
v 0.284375 0.577500 0.612500
v 0.459375 0.577500 0.612500
v 0.459375 0.577500 0.825000
v 0.284375 0.577500 0.825000
v 0.284375 0.616250 0.825000
v 0.459375 0.616250 0.825000
v 0.459375 0.616250 0.612500
v 0.284375 0.616250 0.612500
v 0.389063 0.635000 0.774020
v 0.354688 0.635000 0.774020
v 0.354688 0.558750 0.774020
v 0.389063 0.558750 0.774020
v 0.337500 0.635000 0.744250
v 0.337500 0.558750 0.744250
v 0.354687 0.635000 0.714480
v 0.354687 0.558750 0.714480
v 0.389062 0.635000 0.714480
v 0.389062 0.558750 0.714480
v 0.406250 0.635000 0.744250
v 0.406250 0.558750 0.744250
v 0.628125 0.674952 0.122117
v 0.594640 0.668296 0.122336
v 0.594640 0.677671 0.406711
v 0.628125 0.684327 0.406492
v 0.566253 0.649338 0.122961
v 0.566253 0.658713 0.407336
v 0.547286 0.620967 0.123897
v 0.547286 0.630342 0.408272
v 0.540625 0.587500 0.125000
v 0.540625 0.596875 0.409375
v 0.547286 0.554033 0.126103
v 0.547286 0.563408 0.410478
v 0.566253 0.525662 0.127039
v 0.566253 0.535037 0.411414
v 0.594640 0.506704 0.127664
v 0.594640 0.516079 0.412039
v 0.628125 0.500048 0.127883
v 0.628125 0.509423 0.412258
v 0.661610 0.506704 0.127664
v 0.661610 0.516079 0.412039
v 0.689997 0.525662 0.127039
v 0.689997 0.535037 0.411414
v 0.708964 0.554033 0.126103
v 0.708964 0.563408 0.410478
v 0.715625 0.587500 0.125000
v 0.715625 0.596875 0.409375
v 0.708964 0.620967 0.123897
v 0.708964 0.630342 0.408272
v 0.689997 0.649338 0.122961
v 0.689997 0.658713 0.407336
v 0.661610 0.668296 0.122336
v 0.661610 0.677671 0.406711
v 0.628125 0.693750 0.387500
v 0.591053 0.686376 0.387500
v 0.591053 0.686376 0.612500
v 0.628125 0.693750 0.612500
v 0.559624 0.665376 0.387500
v 0.559624 0.665376 0.612500
v 0.538624 0.633947 0.387500
v 0.538624 0.633947 0.612500
v 0.531250 0.596875 0.387500
v 0.531250 0.596875 0.612500
v 0.538624 0.559803 0.387500
v 0.538624 0.559803 0.612500
v 0.559624 0.528374 0.387500
v 0.559624 0.528374 0.612500
v 0.591053 0.507374 0.387500
v 0.591053 0.507374 0.612500
v 0.628125 0.500000 0.387500
v 0.628125 0.500000 0.612500
v 0.665197 0.507374 0.387500
v 0.665197 0.507374 0.612500
v 0.696626 0.528374 0.387500
v 0.696626 0.528374 0.612500
v 0.717626 0.559803 0.387500
v 0.717626 0.559803 0.612500
v 0.725000 0.596875 0.387500
v 0.725000 0.596875 0.612500
v 0.717626 0.633947 0.387500
v 0.717626 0.633947 0.612500
v 0.696626 0.665376 0.387500
v 0.696626 0.665376 0.612500
v 0.665197 0.686376 0.387500
v 0.665197 0.686376 0.612500
v 0.540625 0.577500 0.612500
v 0.715625 0.577500 0.612500
v 0.715625 0.577500 0.825000
v 0.540625 0.577500 0.825000
v 0.540625 0.616250 0.825000
v 0.715625 0.616250 0.825000
v 0.715625 0.616250 0.612500
v 0.540625 0.616250 0.612500
v 0.645313 0.635000 0.774020
v 0.610938 0.635000 0.774020
v 0.610938 0.558750 0.774020
v 0.645313 0.558750 0.774020
v 0.593750 0.635000 0.744250
v 0.593750 0.558750 0.744250
v 0.610938 0.635000 0.714480
v 0.610938 0.558750 0.714480
v 0.645313 0.635000 0.714480
v 0.645313 0.558750 0.714480
v 0.662500 0.635000 0.744250
v 0.662500 0.558750 0.744250
v 0.000000 0.000000 0.000000
v 1.000000 0.000000 0.000000
v 1.000000 0.000000 1.000000
v 0.000000 0.000000 1.000000
v 0.000000 0.500000 1.000000
v 1.000000 0.500000 1.000000
v 1.000000 0.500000 0.000000
v 0.000000 0.500000 0.000000
v 1.000000 0.500000 0.062500
v 0.000000 0.500000 0.062500
v 0.000000 1.000000 0.062500
v 1.000000 1.000000 0.062500
v 1.000000 1.000000 0.000000
v 0.000000 1.000000 0.000000
v 0.000000 0.500000 0.937500
v 1.000000 0.500000 0.937500
v 0.000000 1.000000 1.000000
v 1.000000 1.000000 1.000000
v 1.000000 1.000000 0.937500
v 0.000000 1.000000 0.937500
v 0.062500 0.500000 0.062500
v 0.062500 0.500000 0.937500
v 0.062500 1.000000 0.937500
v 0.062500 1.000000 0.062500
v 0.937500 0.500000 0.062500
v 0.937500 0.500000 0.937500
v 0.937500 1.000000 0.937500
v 0.937500 1.000000 0.062500
vn -0.1913 0.9614 -0.0317
vn -0.5449 0.8151 -0.0269
vn -0.8155 0.5446 -0.0180
vn -0.9619 0.1912 -0.0063
vn -0.9619 -0.1912 0.0063
vn -0.8155 -0.5446 0.0180
vn -0.5449 -0.8151 0.0269
vn -0.1913 -0.9614 0.0317
vn 0.1913 -0.9614 0.0317
vn 0.5449 -0.8151 0.0269
vn 0.8155 -0.5446 0.0180
vn 0.9619 -0.1912 0.0063
vn 0.9619 0.1912 -0.0063
vn 0.8155 0.5446 -0.0180
vn 0.5449 0.8151 -0.0269
vn 0.1913 0.9614 -0.0317
vn -0.0000 -0.0329 -0.9995
vn 0.0000 0.0329 0.9995
vn -0.1951 0.9808 0.0000
vn -0.5556 0.8315 0.0000
vn -0.8315 0.5556 0.0000
vn -0.9808 0.1951 0.0000
vn -0.9808 -0.1951 0.0000
vn -0.8315 -0.5556 0.0000
vn -0.5556 -0.8315 0.0000
vn -0.1951 -0.9808 0.0000
vn 0.1951 -0.9808 0.0000
vn 0.5556 -0.8315 0.0000
vn 0.8315 -0.5556 0.0000
vn 0.9808 -0.1951 0.0000
vn 0.9808 0.1951 0.0000
vn 0.8315 0.5556 0.0000
vn 0.5556 0.8315 0.0000
vn 0.1951 0.9808 0.0000
vn -0.0000 -0.0000 -1.0000
vn 0.0000 0.0000 1.0000
vn 0.0000 -1.0000 0.0000
vn 0.0000 1.0000 0.0000
vn -1.0000 0.0000 0.0000
vn 1.0000 0.0000 0.0000
vn -0.8660 0.0000 0.5000
vn -0.8660 0.0000 -0.5000
vn 0.8660 0.0000 -0.5000
vn 0.8660 0.0000 0.5000
vt 0.000000 0.000000
vt 0.062500 0.000000
vt 0.062500 1.000000
vt 0.000000 1.000000
vt 0.125000 0.000000
vt 0.125000 1.000000
vt 0.187500 0.000000
vt 0.187500 1.000000
vt 0.250000 0.000000
vt 0.250000 1.000000
vt 0.312500 0.000000
vt 0.312500 1.000000
vt 0.375000 0.000000
vt 0.375000 1.000000
vt 0.437500 0.000000
vt 0.437500 1.000000
vt 0.500000 0.000000
vt 0.500000 1.000000
vt 0.562500 0.000000
vt 0.562500 1.000000
vt 0.625000 0.000000
vt 0.625000 1.000000
vt 0.687500 0.000000
vt 0.687500 1.000000
vt 0.750000 0.000000
vt 0.750000 1.000000
vt 0.812500 0.000000
vt 0.812500 1.000000
vt 0.875000 0.000000
vt 0.875000 1.000000
vt 0.937500 0.000000
vt 0.937500 1.000000
vt 1.000000 0.000000
vt 1.000000 1.000000
vt 0.961940 0.308658
vt 0.853553 0.146447
vt 0.691342 0.038060
vt 0.308658 0.038060
vt 0.146447 0.146447
vt 0.038060 0.308658
vt 0.000000 0.500000
vt 0.038060 0.691342
vt 0.146447 0.853553
vt 0.308658 0.961940
vt 0.691342 0.961940
vt 0.853553 0.853553
vt 0.961940 0.691342
vt 1.000000 0.500000
vt 0.062500 0.720000
vt 0.000000 0.720000
vt 0.125000 0.720000
vt 0.187500 0.720000
vt 0.250000 0.720000
vt 0.312500 0.720000
vt 0.375000 0.720000
vt 0.437500 0.720000
vt 0.500000 0.720000
vt 0.562500 0.720000
vt 0.625000 0.720000
vt 0.687500 0.720000
vt 0.750000 0.720000
vt 0.812500 0.720000
vt 0.875000 0.720000
vt 0.937500 0.720000
vt 1.000000 0.720000
vt 0.595671 0.526298
vt 0.676777 0.487279
vt 0.730970 0.428883
vt 0.750000 0.360000
vt 0.730970 0.291117
vt 0.676777 0.232721
vt 0.595671 0.193702
vt 0.500000 0.180000
vt 0.404329 0.193702
vt 0.323223 0.232721
vt 0.269030 0.291117
vt 0.250000 0.360000
vt 0.269030 0.428883
vt 0.323223 0.487279
vt 0.404329 0.526298
vt 0.500000 0.540000
vt 1.000000 0.740000
vt 0.000000 0.740000
vt 0.000000 0.300000
vt 0.166667 0.300000
vt 0.166667 0.000000
vt 0.333333 0.300000
vt 0.333333 0.000000
vt 0.500000 0.300000
vt 0.666667 0.300000
vt 0.666667 0.000000
vt 0.833333 0.300000
vt 0.833333 0.000000
vt 1.000000 0.300000
vt 0.250000 0.150000
vt 0.375000 0.085048
vt 0.625000 0.085048
vt 0.750000 0.150000
vt 0.625000 0.214952
vt 0.375000 0.214952
vt 0.500000 0.500000
o cable
usemtl core
f 1/1/1 2/2/1 3/3/1 4/4/1
f 2/2/2 5/5/2 6/6/2 3/3/2
f 5/5/3 7/7/3 8/8/3 6/6/3
f 7/7/4 9/9/4 10/10/4 8/8/4
f 9/9/5 11/11/5 12/12/5 10/10/5
f 11/11/6 13/13/6 14/14/6 12/12/6
f 13/13/7 15/15/7 16/16/7 14/14/7
f 15/15/8 17/17/8 18/18/8 16/16/8
f 17/17/9 19/19/9 20/20/9 18/18/9
f 19/19/10 21/21/10 22/22/10 20/20/10
f 21/21/11 23/23/11 24/24/11 22/22/11
f 23/23/12 25/25/12 26/26/12 24/24/12
f 25/25/13 27/27/13 28/28/13 26/26/13
f 27/27/14 29/29/14 30/30/14 28/28/14
f 29/29/15 31/31/15 32/32/15 30/30/15
f 31/31/16 1/33/16 4/34/16 32/32/16
f 31/35/17 29/36/17 27/37/17 25/17/17 23/38/17 21/39/17 19/40/17 17/41/17 15/42/17 13/43/17 11/44/17 9/18/17 7/45/17 5/46/17 2/47/17 1/48/17
f 4/48/18 3/47/18 6/46/18 8/45/18 10/18/18 12/44/18 14/43/18 16/42/18 18/41/18 20/40/18 22/39/18 24/38/18 26/17/18 28/37/18 30/36/18 32/35/18
f 85/1/1 86/2/1 87/3/1 88/4/1
f 86/2/2 89/5/2 90/6/2 87/3/2
f 89/5/3 91/7/3 92/8/3 90/6/3
f 91/7/4 93/9/4 94/10/4 92/8/4
f 93/9/5 95/11/5 96/12/5 94/10/5
f 95/11/6 97/13/6 98/14/6 96/12/6
f 97/13/7 99/15/7 100/16/7 98/14/7
f 99/15/8 101/17/8 102/18/8 100/16/8
f 101/17/9 103/19/9 104/20/9 102/18/9
f 103/19/10 105/21/10 106/22/10 104/20/10
f 105/21/11 107/23/11 108/24/11 106/22/11
f 107/23/12 109/25/12 110/26/12 108/24/12
f 109/25/13 111/27/13 112/28/13 110/26/13
f 111/27/14 113/29/14 114/30/14 112/28/14
f 113/29/15 115/31/15 116/32/15 114/30/15
f 115/31/16 85/33/16 88/34/16 116/32/16
f 115/35/17 113/36/17 111/37/17 109/17/17 107/38/17 105/39/17 103/40/17 101/41/17 99/42/17 97/43/17 95/44/17 93/18/17 91/45/17 89/46/17 86/47/17 85/48/17
f 88/48/18 87/47/18 90/46/18 92/45/18 94/18/18 96/44/18 98/43/18 100/42/18 102/41/18 104/40/18 106/39/18 108/38/18 110/17/18 112/37/18 114/36/18 116/35/18
o lug_plus
usemtl lug
f 33/1/19 34/2/19 35/49/19 36/50/19
f 34/2/20 37/5/20 38/51/20 35/49/20
f 37/5/21 39/7/21 40/52/21 38/51/21
f 39/7/22 41/9/22 42/53/22 40/52/22
f 41/9/23 43/11/23 44/54/23 42/53/23
f 43/11/24 45/13/24 46/55/24 44/54/24
f 45/13/25 47/15/25 48/56/25 46/55/25
f 47/15/26 49/17/26 50/57/26 48/56/26
f 49/17/27 51/19/27 52/58/27 50/57/27
f 51/19/28 53/21/28 54/59/28 52/58/28
f 53/21/29 55/23/29 56/60/29 54/59/29
f 55/23/30 57/25/30 58/61/30 56/60/30
f 57/25/31 59/27/31 60/62/31 58/61/31
f 59/27/32 61/29/32 62/63/32 60/62/32
f 61/29/33 63/31/33 64/64/33 62/63/33
f 63/31/34 33/33/34 36/65/34 64/64/34
f 63/66/35 61/67/35 59/68/35 57/69/35
f 63/66/35 57/69/35 55/70/35 53/71/35
f 63/66/35 53/71/35 51/72/35 49/73/35
f 63/66/35 49/73/35 47/74/35 45/75/35
f 63/66/35 45/75/35 43/76/35 41/77/35
f 63/66/35 41/77/35 39/78/35 37/79/35
f 63/66/35 37/79/35 34/80/35 33/81/35
f 36/81/36 35/80/36 38/79/36 40/78/36
f 36/81/36 40/78/36 42/77/36 44/76/36
f 36/81/36 44/76/36 46/75/36 48/74/36
f 36/81/36 48/74/36 50/73/36 52/72/36
f 36/81/36 52/72/36 54/71/36 56/70/36
f 36/81/36 56/70/36 58/69/36 60/68/36
f 36/81/36 60/68/36 62/67/36 64/66/36
f 65/4/37 66/34/37 67/82/37 68/83/37
f 69/83/38 70/82/38 71/34/38 72/4/38
f 72/34/35 71/4/35 66/83/35 65/82/35
f 70/34/36 69/4/36 68/83/36 67/82/36
f 69/34/39 72/4/39 65/83/39 68/82/39
f 71/34/40 70/4/40 67/83/40 66/82/40
f 73/84/36 74/85/36 75/86/36 76/1/36
f 74/85/41 77/87/41 78/88/41 75/86/41
f 77/87/42 79/89/42 80/17/42 78/88/42
f 79/89/35 81/90/35 82/91/35 80/17/35
f 81/90/43 83/92/43 84/93/43 82/91/43
f 83/92/44 73/94/44 76/33/44 84/93/44
f 78/95/37 80/96/37 82/97/37 84/98/37
f 76/99/37 75/100/37 78/95/37 84/98/37
f 79/96/38 77/95/38 74/100/38 73/99/38
f 83/98/38 81/97/38 79/96/38 73/99/38
o lug_minus
usemtl lug
f 117/1/19 118/2/19 119/49/19 120/50/19
f 118/2/20 121/5/20 122/51/20 119/49/20
f 121/5/21 123/7/21 124/52/21 122/51/21
f 123/7/22 125/9/22 126/53/22 124/52/22
f 125/9/23 127/11/23 128/54/23 126/53/23
f 127/11/24 129/13/24 130/55/24 128/54/24
f 129/13/25 131/15/25 132/56/25 130/55/25
f 131/15/26 133/17/26 134/57/26 132/56/26
f 133/17/27 135/19/27 136/58/27 134/57/27
f 135/19/28 137/21/28 138/59/28 136/58/28
f 137/21/29 139/23/29 140/60/29 138/59/29
f 139/23/30 141/25/30 142/61/30 140/60/30
f 141/25/31 143/27/31 144/62/31 142/61/31
f 143/27/32 145/29/32 146/63/32 144/62/32
f 145/29/33 147/31/33 148/64/33 146/63/33
f 147/31/34 117/33/34 120/65/34 148/64/34
f 147/66/35 145/67/35 143/68/35 141/69/35
f 147/66/35 141/69/35 139/70/35 137/71/35
f 147/66/35 137/71/35 135/72/35 133/73/35
f 147/66/35 133/73/35 131/74/35 129/75/35
f 147/66/35 129/75/35 127/76/35 125/77/35
f 147/66/35 125/77/35 123/78/35 121/79/35
f 147/66/35 121/79/35 118/80/35 117/81/35
f 120/81/36 119/80/36 122/79/36 124/78/36
f 120/81/36 124/78/36 126/77/36 128/76/36
f 120/81/36 128/76/36 130/75/36 132/74/36
f 120/81/36 132/74/36 134/73/36 136/72/36
f 120/81/36 136/72/36 138/71/36 140/70/36
f 120/81/36 140/70/36 142/69/36 144/68/36
f 120/81/36 144/68/36 146/67/36 148/66/36
f 149/4/37 150/34/37 151/82/37 152/83/37
f 153/83/38 154/82/38 155/34/38 156/4/38
f 156/34/35 155/4/35 150/83/35 149/82/35
f 154/34/36 153/4/36 152/83/36 151/82/36
f 153/34/39 156/4/39 149/83/39 152/82/39
f 155/34/40 154/4/40 151/83/40 150/82/40
f 157/84/36 158/85/36 159/86/36 160/1/36
f 158/85/41 161/87/41 162/88/41 159/86/41
f 161/87/42 163/89/42 164/17/42 162/88/42
f 163/89/35 165/90/35 166/91/35 164/17/35
f 165/90/43 167/92/43 168/93/43 166/91/43
f 167/92/44 157/94/44 160/33/44 168/93/44
f 162/95/37 164/96/37 166/97/37 168/98/37
f 160/99/37 159/100/37 162/95/37 168/98/37
f 163/96/38 161/95/38 158/100/38 157/99/38
f 167/98/38 165/97/38 163/96/38 157/99/38
o bedding
usemtl trench
f 169/4/37 170/34/37 171/33/37 172/1/37
f 173/1/38 174/33/38 175/34/38 176/4/38
f 176/34/35 175/4/35 170/1/35 169/33/35
f 174/34/36 173/4/36 172/1/36 171/33/36
f 173/34/39 176/4/39 169/1/39 172/33/39
f 175/34/40 174/4/40 171/1/40 170/33/40
f 176/41/37 175/101/37 177/17/37 178/1/37
f 179/1/38 180/17/38 181/101/38 182/41/38
f 182/101/35 181/41/35 175/1/35 176/17/35
f 180/101/36 179/41/36 178/1/36 177/17/36
f 179/101/39 182/41/39 176/1/39 178/17/39
f 181/101/40 180/41/40 177/1/40 175/17/40
f 183/41/37 184/101/37 174/17/37 173/1/37
f 185/1/38 186/17/38 187/101/38 188/41/38
f 188/101/35 187/41/35 184/1/35 183/17/35
f 186/101/36 185/41/36 173/1/36 174/17/36
f 185/101/39 188/41/39 183/1/39 173/17/39
f 187/101/40 186/41/40 174/1/40 184/17/40
f 178/41/37 189/101/37 190/17/37 183/1/37
f 188/1/38 191/17/38 192/101/38 179/41/38
f 179/101/35 192/41/35 189/1/35 178/17/35
f 191/101/36 188/41/36 183/1/36 190/17/36
f 188/101/39 179/41/39 178/1/39 183/17/39
f 192/101/40 191/41/40 190/1/40 189/17/40
f 193/41/37 177/101/37 184/17/37 194/1/37
f 195/1/38 187/17/38 180/101/38 196/41/38
f 196/101/35 180/41/35 177/1/35 193/17/35
f 187/101/36 195/41/36 194/1/36 184/17/36
f 195/101/39 196/41/39 193/1/39 194/17/39
f 180/101/40 187/41/40 184/1/40 177/17/40
