# generated by tools/gen_trunk_models.py - do not edit by hand
mtllib dc_trunk_cable_loose.mtl
v 0.371875 0.174952 0.122117
v 0.354805 0.173272 0.122172
v 0.354805 0.182647 0.406547
v 0.371875 0.184327 0.406492
v 0.338390 0.168296 0.122336
v 0.338390 0.177671 0.406711
v 0.323263 0.160214 0.122603
v 0.323263 0.169589 0.406978
v 0.310003 0.149338 0.122961
v 0.310003 0.158713 0.407336
v 0.299121 0.136086 0.123398
v 0.299121 0.145461 0.407773
v 0.291036 0.120967 0.123897
v 0.291036 0.130342 0.408272
v 0.286056 0.104561 0.124438
v 0.286056 0.113936 0.408813
v 0.284375 0.087500 0.125000
v 0.284375 0.096875 0.409375
v 0.286056 0.070439 0.125562
v 0.286056 0.079814 0.409937
v 0.291036 0.054033 0.126103
v 0.291036 0.063408 0.410478
v 0.299121 0.038914 0.126602
v 0.299121 0.048289 0.410977
v 0.310003 0.025662 0.127039
v 0.310003 0.035037 0.411414
v 0.323263 0.014786 0.127397
v 0.323263 0.024161 0.411772
v 0.338390 0.006704 0.127664
v 0.338390 0.016079 0.412039
v 0.354805 0.001728 0.127828
v 0.354805 0.011103 0.412203
v 0.371875 0.000048 0.127883
v 0.371875 0.009423 0.412258
v 0.388945 0.001728 0.127828
v 0.388945 0.011103 0.412203
v 0.405360 0.006704 0.127664
v 0.405360 0.016079 0.412039
v 0.420487 0.014786 0.127397
v 0.420487 0.024161 0.411772
v 0.433747 0.025662 0.127039
v 0.433747 0.035037 0.411414
v 0.444629 0.038914 0.126602
v 0.444629 0.048289 0.410977
v 0.452714 0.054033 0.126103
v 0.452714 0.063408 0.410478
v 0.457694 0.070439 0.125562
v 0.457694 0.079814 0.409937
v 0.459375 0.087500 0.125000
v 0.459375 0.096875 0.409375
v 0.457694 0.104561 0.124438
v 0.457694 0.113936 0.408813
v 0.452714 0.120967 0.123897
v 0.452714 0.130342 0.408272
v 0.444629 0.136086 0.123398
v 0.444629 0.145461 0.407773
v 0.433747 0.149338 0.122961
v 0.433747 0.158713 0.407336
v 0.420487 0.160214 0.122603
v 0.420487 0.169589 0.406978
v 0.405360 0.168296 0.122336
v 0.405360 0.177671 0.406711
v 0.388945 0.173272 0.122172
v 0.388945 0.182647 0.406547
v 0.371875 0.193750 0.162500
v 0.352976 0.191889 0.162500
v 0.352976 0.191889 0.612500
v 0.371875 0.193750 0.612500
v 0.334803 0.186376 0.162500
v 0.334803 0.186376 0.612500
v 0.318054 0.177424 0.162500
v 0.318054 0.177424 0.612500
v 0.303374 0.165376 0.162500
v 0.303374 0.165376 0.612500
v 0.291326 0.150696 0.162500
v 0.291326 0.150696 0.612500
v 0.282374 0.133947 0.162500
v 0.282374 0.133947 0.612500
v 0.276861 0.115774 0.162500
v 0.276861 0.115774 0.612500
v 0.275000 0.096875 0.162500
v 0.275000 0.096875 0.612500
v 0.276861 0.077976 0.162500
v 0.276861 0.077976 0.612500
v 0.282374 0.059803 0.162500
v 0.282374 0.059803 0.612500
v 0.291326 0.043054 0.162500
v 0.291326 0.043054 0.612500
v 0.303374 0.028374 0.162500
v 0.303374 0.028374 0.612500
v 0.318054 0.016326 0.162500
v 0.318054 0.016326 0.612500
v 0.334803 0.007374 0.162500
v 0.334803 0.007374 0.612500
v 0.352976 0.001861 0.162500
v 0.352976 0.001861 0.612500
v 0.371875 0.000000 0.162500
v 0.371875 0.000000 0.612500
v 0.390774 0.001861 0.162500
v 0.390774 0.001861 0.612500
v 0.408947 0.007374 0.162500
v 0.408947 0.007374 0.612500
v 0.425696 0.016326 0.162500
v 0.425696 0.016326 0.612500
v 0.440376 0.028374 0.162500
v 0.440376 0.028374 0.612500
v 0.452424 0.043054 0.162500
v 0.452424 0.043054 0.612500
v 0.461376 0.059803 0.162500
v 0.461376 0.059803 0.612500
v 0.466889 0.077976 0.162500
v 0.466889 0.077976 0.612500
v 0.468750 0.096875 0.162500
v 0.468750 0.096875 0.612500
v 0.466889 0.115774 0.162500
v 0.466889 0.115774 0.612500
v 0.461376 0.133947 0.162500
v 0.461376 0.133947 0.612500
v 0.452424 0.150696 0.162500
v 0.452424 0.150696 0.612500
v 0.440376 0.165376 0.162500
v 0.440376 0.165376 0.612500
v 0.425696 0.177424 0.162500
v 0.425696 0.177424 0.612500
v 0.408947 0.186376 0.162500
v 0.408947 0.186376 0.612500
v 0.390774 0.191889 0.162500
v 0.390774 0.191889 0.612500
v 0.284375 0.077500 0.612500
v 0.459375 0.077500 0.612500
v 0.459375 0.077500 0.825000
v 0.284375 0.077500 0.825000
v 0.284375 0.116250 0.825000
v 0.459375 0.116250 0.825000
v 0.459375 0.116250 0.612500
v 0.284375 0.116250 0.612500
v 0.389063 0.135000 0.774020
v 0.354688 0.135000 0.774020
v 0.354688 -0.017500 0.774020
v 0.389063 -0.017500 0.774020
v 0.337500 0.135000 0.744250
v 0.337500 -0.017500 0.744250
v 0.354687 0.135000 0.714480
v 0.354687 -0.017500 0.714480
v 0.389062 0.135000 0.714480
v 0.389062 -0.017500 0.714480
v 0.406250 0.135000 0.744250
v 0.406250 -0.017500 0.744250
v 0.628125 0.174952 0.122117
v 0.611055 0.173272 0.122172
v 0.611055 0.182647 0.406547
v 0.628125 0.184327 0.406492
v 0.594640 0.168296 0.122336
v 0.594640 0.177671 0.406711
v 0.579513 0.160214 0.122603
v 0.579513 0.169589 0.406978
v 0.566253 0.149338 0.122961
v 0.566253 0.158713 0.407336
v 0.555371 0.136086 0.123398
v 0.555371 0.145461 0.407773
v 0.547286 0.120967 0.123897
v 0.547286 0.130342 0.408272
v 0.542306 0.104561 0.124438
v 0.542306 0.113936 0.408813
v 0.540625 0.087500 0.125000
v 0.540625 0.096875 0.409375
v 0.542306 0.070439 0.125562
v 0.542306 0.079814 0.409937
v 0.547286 0.054033 0.126103
v 0.547286 0.063408 0.410478
v 0.555371 0.038914 0.126602
v 0.555371 0.048289 0.410977
v 0.566253 0.025662 0.127039
v 0.566253 0.035037 0.411414
v 0.579513 0.014786 0.127397
v 0.579513 0.024161 0.411772
v 0.594640 0.006704 0.127664
v 0.594640 0.016079 0.412039
v 0.611055 0.001728 0.127828
v 0.611055 0.011103 0.412203
v 0.628125 0.000048 0.127883
v 0.628125 0.009423 0.412258
v 0.645195 0.001728 0.127828
v 0.645195 0.011103 0.412203
v 0.661610 0.006704 0.127664
v 0.661610 0.016079 0.412039
v 0.676737 0.014786 0.127397
v 0.676737 0.024161 0.411772
v 0.689997 0.025662 0.127039
v 0.689997 0.035037 0.411414
v 0.700879 0.038914 0.126602
v 0.700879 0.048289 0.410977
v 0.708964 0.054033 0.126103
v 0.708964 0.063408 0.410478
v 0.713944 0.070439 0.125562
v 0.713944 0.079814 0.409937
v 0.715625 0.087500 0.125000
v 0.715625 0.096875 0.409375
v 0.713944 0.104561 0.124438
v 0.713944 0.113936 0.408813
v 0.708964 0.120967 0.123897
v 0.708964 0.130342 0.408272
v 0.700879 0.136086 0.123398
v 0.700879 0.145461 0.407773
v 0.689997 0.149338 0.122961
v 0.689997 0.158713 0.407336
v 0.676737 0.160214 0.122603
v 0.676737 0.169589 0.406978
v 0.661610 0.168296 0.122336
v 0.661610 0.177671 0.406711
v 0.645195 0.173272 0.122172
v 0.645195 0.182647 0.406547
v 0.628125 0.193750 0.162500
v 0.609226 0.191889 0.162500
v 0.609226 0.191889 0.612500
v 0.628125 0.193750 0.612500
v 0.591053 0.186376 0.162500
v 0.591053 0.186376 0.612500
v 0.574304 0.177424 0.162500
v 0.574304 0.177424 0.612500
v 0.559624 0.165376 0.162500
v 0.559624 0.165376 0.612500
v 0.547576 0.150696 0.162500
v 0.547576 0.150696 0.612500
v 0.538624 0.133947 0.162500
v 0.538624 0.133947 0.612500
v 0.533111 0.115774 0.162500
v 0.533111 0.115774 0.612500
v 0.531250 0.096875 0.162500
v 0.531250 0.096875 0.612500
v 0.533111 0.077976 0.162500
v 0.533111 0.077976 0.612500
v 0.538624 0.059803 0.162500
v 0.538624 0.059803 0.612500
v 0.547576 0.043054 0.162500
v 0.547576 0.043054 0.612500
v 0.559624 0.028374 0.162500
v 0.559624 0.028374 0.612500
v 0.574304 0.016326 0.162500
v 0.574304 0.016326 0.612500
v 0.591053 0.007374 0.162500
v 0.591053 0.007374 0.612500
v 0.609226 0.001861 0.162500
v 0.609226 0.001861 0.612500
v 0.628125 0.000000 0.162500
v 0.628125 0.000000 0.612500
v 0.647024 0.001861 0.162500
v 0.647024 0.001861 0.612500
v 0.665197 0.007374 0.162500
v 0.665197 0.007374 0.612500
v 0.681946 0.016326 0.162500
v 0.681946 0.016326 0.612500
v 0.696626 0.028374 0.162500
v 0.696626 0.028374 0.612500
v 0.708674 0.043054 0.162500
v 0.708674 0.043054 0.612500
v 0.717626 0.059803 0.162500
v 0.717626 0.059803 0.612500
v 0.723139 0.077976 0.162500
v 0.723139 0.077976 0.612500
v 0.725000 0.096875 0.162500
v 0.725000 0.096875 0.612500
v 0.723139 0.115774 0.162500
v 0.723139 0.115774 0.612500
v 0.717626 0.133947 0.162500
v 0.717626 0.133947 0.612500
v 0.708674 0.150696 0.162500
v 0.708674 0.150696 0.612500
v 0.696626 0.165376 0.162500
v 0.696626 0.165376 0.612500
v 0.681946 0.177424 0.162500
v 0.681946 0.177424 0.612500
v 0.665197 0.186376 0.162500
v 0.665197 0.186376 0.612500
v 0.647024 0.191889 0.162500
v 0.647024 0.191889 0.612500
v 0.540625 0.077500 0.612500
v 0.715625 0.077500 0.612500
v 0.715625 0.077500 0.825000
v 0.540625 0.077500 0.825000
v 0.540625 0.116250 0.825000
v 0.715625 0.116250 0.825000
v 0.715625 0.116250 0.612500
v 0.540625 0.116250 0.612500
v 0.645313 0.135000 0.774020
v 0.610938 0.135000 0.774020
v 0.610938 -0.017500 0.774020
v 0.645313 -0.017500 0.774020
v 0.593750 0.135000 0.744250
v 0.593750 -0.017500 0.744250
v 0.610938 0.135000 0.714480
v 0.610938 -0.017500 0.714480
v 0.645313 0.135000 0.714480
v 0.645313 -0.017500 0.714480
v 0.662500 0.135000 0.744250
v 0.662500 -0.017500 0.744250
vn -0.0975 0.9899 -0.0326
vn -0.2889 0.9518 -0.0314
vn -0.4691 0.8772 -0.0289
vn -0.6313 0.7689 -0.0253
vn -0.7693 0.6310 -0.0208
vn -0.8777 0.4689 -0.0155
vn -0.9523 0.2887 -0.0095
vn -0.9904 0.0975 -0.0032
vn -0.9904 -0.0975 0.0032
vn -0.9523 -0.2887 0.0095
vn -0.8777 -0.4689 0.0155
vn -0.7693 -0.6310 0.0208
vn -0.6313 -0.7689 0.0253
vn -0.4691 -0.8772 0.0289
vn -0.2889 -0.9518 0.0314
vn -0.0975 -0.9899 0.0326
vn 0.0975 -0.9899 0.0326
vn 0.2889 -0.9518 0.0314
vn 0.4691 -0.8772 0.0289
vn 0.6313 -0.7689 0.0253
vn 0.7693 -0.6310 0.0208
vn 0.8777 -0.4689 0.0155
vn 0.9523 -0.2887 0.0095
vn 0.9904 -0.0975 0.0032
vn 0.9904 0.0975 -0.0032
vn 0.9523 0.2887 -0.0095
vn 0.8777 0.4689 -0.0155
vn 0.7693 0.6310 -0.0208
vn 0.6313 0.7689 -0.0253
vn 0.4691 0.8772 -0.0289
vn 0.2889 0.9518 -0.0314
vn 0.0975 0.9899 -0.0326
vn -0.0000 -0.0329 -0.9995
vn 0.0000 0.0329 0.9995
vn -0.0980 0.9952 0.0000
vn -0.2903 0.9569 0.0000
vn -0.4714 0.8819 0.0000
vn -0.6344 0.7730 0.0000
vn -0.7730 0.6344 0.0000
vn -0.8819 0.4714 0.0000
vn -0.9569 0.2903 0.0000
vn -0.9952 0.0980 0.0000
vn -0.9952 -0.0980 0.0000
vn -0.9569 -0.2903 0.0000
vn -0.8819 -0.4714 0.0000
vn -0.7730 -0.6344 0.0000
vn -0.6344 -0.7730 0.0000
vn -0.4714 -0.8819 0.0000
vn -0.2903 -0.9569 0.0000
vn -0.0980 -0.9952 0.0000
vn 0.0980 -0.9952 0.0000
vn 0.2903 -0.9569 0.0000
vn 0.4714 -0.8819 0.0000
vn 0.6344 -0.7730 0.0000
vn 0.7730 -0.6344 0.0000
vn 0.8819 -0.4714 0.0000
vn 0.9569 -0.2903 0.0000
vn 0.9952 -0.0980 0.0000
vn 0.9952 0.0980 0.0000
vn 0.9569 0.2903 0.0000
vn 0.8819 0.4714 0.0000
vn 0.7730 0.6344 0.0000
vn 0.6344 0.7730 0.0000
vn 0.4714 0.8819 0.0000
vn 0.2903 0.9569 0.0000
vn 0.0980 0.9952 0.0000
vn -0.0000 -0.0000 -1.0000
vn 0.0000 -1.0000 0.0000
vn 0.0000 1.0000 0.0000
vn 0.0000 0.0000 1.0000
vn -1.0000 0.0000 0.0000
vn 1.0000 0.0000 0.0000
vn -0.8660 0.0000 0.5000
vn -0.8660 0.0000 -0.5000
vn 0.8660 0.0000 -0.5000
vn 0.8660 0.0000 0.5000
vt 0.000000 0.000000
vt 0.031250 0.000000
vt 0.031250 1.000000
vt 0.000000 1.000000
vt 0.062500 0.000000
vt 0.062500 1.000000
vt 0.093750 0.000000
vt 0.093750 1.000000
vt 0.125000 0.000000
vt 0.125000 1.000000
vt 0.156250 0.000000
vt 0.156250 1.000000
vt 0.187500 0.000000
vt 0.187500 1.000000
vt 0.218750 0.000000
vt 0.218750 1.000000
vt 0.250000 0.000000
vt 0.250000 1.000000
vt 0.281250 0.000000
vt 0.281250 1.000000
vt 0.312500 0.000000
vt 0.312500 1.000000
vt 0.343750 0.000000
vt 0.343750 1.000000
vt 0.375000 0.000000
vt 0.375000 1.000000
vt 0.406250 0.000000
vt 0.406250 1.000000
vt 0.437500 0.000000
vt 0.437500 1.000000
vt 0.468750 0.000000
vt 0.468750 1.000000
vt 0.500000 0.000000
vt 0.500000 1.000000
vt 0.531250 0.000000
vt 0.531250 1.000000
vt 0.562500 0.000000
vt 0.562500 1.000000
vt 0.593750 0.000000
vt 0.593750 1.000000
vt 0.625000 0.000000
vt 0.625000 1.000000
vt 0.656250 0.000000
vt 0.656250 1.000000
vt 0.687500 0.000000
vt 0.687500 1.000000
vt 0.718750 0.000000
vt 0.718750 1.000000
vt 0.750000 0.000000
vt 0.750000 1.000000
vt 0.781250 0.000000
vt 0.781250 1.000000
vt 0.812500 0.000000
vt 0.812500 1.000000
vt 0.843750 0.000000
vt 0.843750 1.000000
vt 0.875000 0.000000
vt 0.875000 1.000000
vt 0.906250 0.000000
vt 0.906250 1.000000
vt 0.937500 0.000000
vt 0.937500 1.000000
vt 0.968750 0.000000
vt 0.968750 1.000000
vt 1.000000 0.000000
vt 1.000000 1.000000
vt 0.990393 0.402455
vt 0.961940 0.308658
vt 0.915735 0.222215
vt 0.853553 0.146447
vt 0.777785 0.084265
vt 0.691342 0.038060
vt 0.597545 0.009607
vt 0.402455 0.009607
vt 0.308658 0.038060
vt 0.222215 0.084265
vt 0.146447 0.146447
vt 0.084265 0.222215
vt 0.038060 0.308658
vt 0.009607 0.402455
vt 0.000000 0.500000
vt 0.009607 0.597545
vt 0.038060 0.691342
vt 0.084265 0.777785
vt 0.146447 0.853553
vt 0.222215 0.915735
vt 0.308658 0.961940
vt 0.402455 0.990393
vt 0.597545 0.990393
vt 0.691342 0.961940
vt 0.777785 0.915735
vt 0.853553 0.853553
vt 0.915735 0.777785
vt 0.961940 0.691342
vt 0.990393 0.597545
vt 1.000000 0.500000
vt 0.031250 0.720000
vt 0.000000 0.720000
vt 0.062500 0.720000
vt 0.093750 0.720000
vt 0.125000 0.720000
vt 0.156250 0.720000
vt 0.187500 0.720000
vt 0.218750 0.720000
vt 0.250000 0.720000
vt 0.281250 0.720000
vt 0.312500 0.720000
vt 0.343750 0.720000
vt 0.375000 0.720000
vt 0.406250 0.720000
vt 0.437500 0.720000
vt 0.468750 0.720000
vt 0.500000 0.720000
vt 0.531250 0.720000
vt 0.562500 0.720000
vt 0.593750 0.720000
vt 0.625000 0.720000
vt 0.656250 0.720000
vt 0.687500 0.720000
vt 0.718750 0.720000
vt 0.750000 0.720000
vt 0.781250 0.720000
vt 0.812500 0.720000
vt 0.843750 0.720000
vt 0.875000 0.720000
vt 0.906250 0.720000
vt 0.937500 0.720000
vt 0.968750 0.720000
vt 1.000000 0.720000
vt 0.548773 0.536541
vt 0.595671 0.526298
vt 0.638893 0.509665
vt 0.676777 0.487279
vt 0.707867 0.460003
vt 0.730970 0.428883
vt 0.745196 0.395116
vt 0.750000 0.360000
vt 0.745196 0.324884
vt 0.730970 0.291117
vt 0.707867 0.259997
vt 0.676777 0.232721
vt 0.638893 0.210335
vt 0.595671 0.193702
vt 0.548773 0.183459
vt 0.500000 0.180000
vt 0.451227 0.183459
vt 0.404329 0.193702
vt 0.361107 0.210335
vt 0.323223 0.232721
vt 0.292133 0.259997
vt 0.269030 0.291117
vt 0.254804 0.324884
vt 0.250000 0.360000
vt 0.254804 0.395116
vt 0.269030 0.428883
vt 0.292133 0.460003
vt 0.323223 0.487279
vt 0.361107 0.509665
vt 0.404329 0.526298
vt 0.451227 0.536541
vt 0.500000 0.540000
vt 1.000000 0.740000
vt 0.000000 0.740000
vt 0.000000 0.300000
vt 0.166667 0.300000
vt 0.166667 0.000000
vt 0.333333 0.300000
vt 0.333333 0.000000
vt 0.500000 0.300000
vt 0.666667 0.300000
vt 0.666667 0.000000
vt 0.833333 0.300000
vt 0.833333 0.000000
vt 1.000000 0.300000
vt 0.375000 0.085048
vt 0.250000 0.150000
vt 0.375000 0.214952
vt 0.625000 0.214952
vt 0.750000 0.150000
vt 0.625000 0.085048
o cable
usemtl core
f 1/1/1 2/2/1 3/3/1 4/4/1
f 2/2/2 5/5/2 6/6/2 3/3/2
f 5/5/3 7/7/3 8/8/3 6/6/3
f 7/7/4 9/9/4 10/10/4 8/8/4
f 9/9/5 11/11/5 12/12/5 10/10/5
f 11/11/6 13/13/6 14/14/6 12/12/6
f 13/13/7 15/15/7 16/16/7 14/14/7
f 15/15/8 17/17/8 18/18/8 16/16/8
f 17/17/9 19/19/9 20/20/9 18/18/9
f 19/19/10 21/21/10 22/22/10 20/20/10
f 21/21/11 23/23/11 24/24/11 22/22/11
f 23/23/12 25/25/12 26/26/12 24/24/12
f 25/25/13 27/27/13 28/28/13 26/26/13
f 27/27/14 29/29/14 30/30/14 28/28/14
f 29/29/15 31/31/15 32/32/15 30/30/15
f 31/31/16 33/33/16 34/34/16 32/32/16
f 33/33/17 35/35/17 36/36/17 34/34/17
f 35/35/18 37/37/18 38/38/18 36/36/18
f 37/37/19 39/39/19 40/40/19 38/38/19
f 39/39/20 41/41/20 42/42/20 40/40/20
f 41/41/21 43/43/21 44/44/21 42/42/21
f 43/43/22 45/45/22 46/46/22 44/44/22
f 45/45/23 47/47/23 48/48/23 46/46/23
f 47/47/24 49/49/24 50/50/24 48/48/24
f 49/49/25 51/51/25 52/52/25 50/50/25
f 51/51/26 53/53/26 54/54/26 52/52/26
f 53/53/27 55/55/27 56/56/27 54/54/27
f 55/55/28 57/57/28 58/58/28 56/56/28
f 57/57/29 59/59/29 60/60/29 58/58/29
f 59/59/30 61/61/30 62/62/30 60/60/30
f 61/61/31 63/63/31 64/64/31 62/62/31
f 63/63/32 1/65/32 4/66/32 64/64/32
f 63/67/33 61/68/33 59/69/33 57/70/33 55/71/33 53/72/33 51/73/33 49/33/33 47/74/33 45/75/33 43/76/33 41/77/33 39/78/33 37/79/33 35/80/33 33/81/33 31/82/33 29/83/33 27/84/33 25/85/33 23/86/33 21/87/33 19/88/33 17/34/33 15/89/33 13/90/33 11/91/33 9/92/33 7/93/33 5/94/33 2/95/33 1/96/33
f 4/96/34 3/95/34 6/94/34 8/93/34 10/92/34 12/91/34 14/90/34 16/89/34 18/34/34 20/88/34 22/87/34 24/86/34 26/85/34 28/84/34 30/83/34 32/82/34 34/81/34 36/80/34 38/79/34 40/78/34 42/77/34 44/76/34 46/75/34 48/74/34 50/33/34 52/73/34 54/72/34 56/71/34 58/70/34 60/69/34 62/68/34 64/67/34
f 149/1/1 150/2/1 151/3/1 152/4/1
f 150/2/2 153/5/2 154/6/2 151/3/2
f 153/5/3 155/7/3 156/8/3 154/6/3
f 155/7/4 157/9/4 158/10/4 156/8/4
f 157/9/5 159/11/5 160/12/5 158/10/5
f 159/11/6 161/13/6 162/14/6 160/12/6
f 161/13/7 163/15/7 164/16/7 162/14/7
f 163/15/8 165/17/8 166/18/8 164/16/8
f 165/17/9 167/19/9 168/20/9 166/18/9
f 167/19/10 169/21/10 170/22/10 168/20/10
f 169/21/11 171/23/11 172/24/11 170/22/11
f 171/23/12 173/25/12 174/26/12 172/24/12
f 173/25/13 175/27/13 176/28/13 174/26/13
f 175/27/14 177/29/14 178/30/14 176/28/14
f 177/29/15 179/31/15 180/32/15 178/30/15
f 179/31/16 181/33/16 182/34/16 180/32/16
f 181/33/17 183/35/17 184/36/17 182/34/17
f 183/35/18 185/37/18 186/38/18 184/36/18
f 185/37/19 187/39/19 188/40/19 186/38/19
f 187/39/20 189/41/20 190/42/20 188/40/20
f 189/41/21 191/43/21 192/44/21 190/42/21
f 191/43/22 193/45/22 194/46/22 192/44/22
f 193/45/23 195/47/23 196/48/23 194/46/23
f 195/47/24 197/49/24 198/50/24 196/48/24
f 197/49/25 199/51/25 200/52/25 198/50/25
f 199/51/26 201/53/26 202/54/26 200/52/26
f 201/53/27 203/55/27 204/56/27 202/54/27
f 203/55/28 205/57/28 206/58/28 204/56/28
f 205/57/29 207/59/29 208/60/29 206/58/29
f 207/59/30 209/61/30 210/62/30 208/60/30
f 209/61/31 211/63/31 212/64/31 210/62/31
f 211/63/32 149/65/32 152/66/32 212/64/32
f 211/67/33 209/68/33 207/69/33 205/70/33 203/71/33 201/72/33 199/73/33 197/33/33 195/74/33 193/75/33 191/76/33 189/77/33 187/78/33 185/79/33 183/80/33 181/81/33 179/82/33 177/83/33 175/84/33 173/85/33 171/86/33 169/87/33 167/88/33 165/34/33 163/89/33 161/90/33 159/91/33 157/92/33 155/93/33 153/94/33 150/95/33 149/96/33
f 152/96/34 151/95/34 154/94/34 156/93/34 158/92/34 160/91/34 162/90/34 164/89/34 166/34/34 168/88/34 170/87/34 172/86/34 174/85/34 176/84/34 178/83/34 180/82/34 182/81/34 184/80/34 186/79/34 188/78/34 190/77/34 192/76/34 194/75/34 196/74/34 198/33/34 200/73/34 202/72/34 204/71/34 206/70/34 208/69/34 210/68/34 212/67/34
o lug
usemtl lug
f 65/1/35 66/2/35 67/97/35 68/98/35
f 66/2/36 69/5/36 70/99/36 67/97/36
f 69/5/37 71/7/37 72/100/37 70/99/37
f 71/7/38 73/9/38 74/101/38 72/100/38
f 73/9/39 75/11/39 76/102/39 74/101/39
f 75/11/40 77/13/40 78/103/40 76/102/40
f 77/13/41 79/15/41 80/104/41 78/103/41
f 79/15/42 81/17/42 82/105/42 80/104/42
f 81/17/43 83/19/43 84/106/43 82/105/43
f 83/19/44 85/21/44 86/107/44 84/106/44
f 85/21/45 87/23/45 88/108/45 86/107/45
f 87/23/46 89/25/46 90/109/46 88/108/46
f 89/25/47 91/27/47 92/110/47 90/109/47
f 91/27/48 93/29/48 94/111/48 92/110/48
f 93/29/49 95/31/49 96/112/49 94/111/49
f 95/31/50 97/33/50 98/113/50 96/112/50
f 97/33/51 99/35/51 100/114/51 98/113/51
f 99/35/52 101/37/52 102/115/52 100/114/52
f 101/37/53 103/39/53 104/116/53 102/115/53
f 103/39/54 105/41/54 106/117/54 104/116/54
f 105/41/55 107/43/55 108/118/55 106/117/55
f 107/43/56 109/45/56 110/119/56 108/118/56
f 109/45/57 111/47/57 112/120/57 110/119/57
f 111/47/58 113/49/58 114/121/58 112/120/58
f 113/49/59 115/51/59 116/122/59 114/121/59
f 115/51/60 117/53/60 118/123/60 116/122/60
f 117/53/61 119/55/61 120/124/61 118/123/61
f 119/55/62 121/57/62 122/125/62 120/124/62
f 121/57/63 123/59/63 124/126/63 122/125/63
f 123/59/64 125/61/64 126/127/64 124/126/64
f 125/61/65 127/63/65 128/128/65 126/127/65
f 127/63/66 65/65/66 68/129/66 128/128/66
f 127/130/67 125/131/67 123/132/67 121/133/67
f 127/130/67 121/133/67 119/134/67 117/135/67
f 127/130/67 117/135/67 115/136/67 113/137/67
f 127/130/67 113/137/67 111/138/67 109/139/67
f 127/130/67 109/139/67 107/140/67 105/141/67
f 127/130/67 105/141/67 103/142/67 101/143/67
f 127/130/67 101/143/67 99/144/67 97/145/67
f 127/130/67 97/145/67 95/146/67 93/147/67
f 127/130/67 93/147/67 91/148/67 89/149/67
f 127/130/67 89/149/67 87/150/67 85/151/67
f 127/130/67 85/151/67 83/152/67 81/153/67
f 127/130/67 81/153/67 79/154/67 77/155/67
f 127/130/67 77/155/67 75/156/67 73/157/67
f 127/130/67 73/157/67 71/158/67 69/159/67
f 127/130/67 69/159/67 66/160/67 65/161/67
f 129/4/68 130/66/68 131/162/68 132/163/68
f 133/163/69 134/162/69 135/66/69 136/4/69
f 136/66/67 135/4/67 130/163/67 129/162/67
f 134/66/70 133/4/70 132/163/70 131/162/70
f 133/66/71 136/4/71 129/163/71 132/162/71
f 135/66/72 134/4/72 131/163/72 130/162/72
f 137/164/70 138/165/70 139/166/70 140/1/70
f 138/165/73 141/167/73 142/168/73 139/166/73
f 141/167/74 143/169/74 144/33/74 142/168/74
f 143/169/67 145/170/67 146/171/67 144/33/67
f 145/170/75 147/172/75 148/173/75 146/171/75
f 147/172/76 137/174/76 140/65/76 148/173/76
f 143/175/69 141/176/69 138/177/69 137/178/69
f 147/179/69 145/180/69 143/175/69 137/178/69
f 213/1/35 214/2/35 215/97/35 216/98/35
f 214/2/36 217/5/36 218/99/36 215/97/36
f 217/5/37 219/7/37 220/100/37 218/99/37
f 219/7/38 221/9/38 222/101/38 220/100/38
f 221/9/39 223/11/39 224/102/39 222/101/39
f 223/11/40 225/13/40 226/103/40 224/102/40
f 225/13/41 227/15/41 228/104/41 226/103/41
f 227/15/42 229/17/42 230/105/42 228/104/42
f 229/17/43 231/19/43 232/106/43 230/105/43
f 231/19/44 233/21/44 234/107/44 232/106/44
f 233/21/45 235/23/45 236/108/45 234/107/45
f 235/23/46 237/25/46 238/109/46 236/108/46
f 237/25/47 239/27/47 240/110/47 238/109/47
f 239/27/48 241/29/48 242/111/48 240/110/48
f 241/29/49 243/31/49 244/112/49 242/111/49
f 243/31/50 245/33/50 246/113/50 244/112/50
f 245/33/51 247/35/51 248/114/51 246/113/51
f 247/35/52 249/37/52 250/115/52 248/114/52
f 249/37/53 251/39/53 252/116/53 250/115/53
f 251/39/54 253/41/54 254/117/54 252/116/54
f 253/41/55 255/43/55 256/118/55 254/117/55
f 255/43/56 257/45/56 258/119/56 256/118/56
f 257/45/57 259/47/57 260/120/57 258/119/57
f 259/47/58 261/49/58 262/121/58 260/120/58
f 261/49/59 263/51/59 264/122/59 262/121/59
f 263/51/60 265/53/60 266/123/60 264/122/60
f 265/53/61 267/55/61 268/124/61 266/123/61
f 267/55/62 269/57/62 270/125/62 268/124/62
f 269/57/63 271/59/63 272/126/63 270/125/63
f 271/59/64 273/61/64 274/127/64 272/126/64
f 273/61/65 275/63/65 276/128/65 274/127/65
f 275/63/66 213/65/66 216/129/66 276/128/66
f 275/130/67 273/131/67 271/132/67 269/133/67
f 275/130/67 269/133/67 267/134/67 265/135/67
f 275/130/67 265/135/67 263/136/67 261/137/67
f 275/130/67 261/137/67 259/138/67 257/139/67
f 275/130/67 257/139/67 255/140/67 253/141/67
f 275/130/67 253/141/67 251/142/67 249/143/67
f 275/130/67 249/143/67 247/144/67 245/145/67
f 275/130/67 245/145/67 243/146/67 241/147/67
f 275/130/67 241/147/67 239/148/67 237/149/67
f 275/130/67 237/149/67 235/150/67 233/151/67
f 275/130/67 233/151/67 231/152/67 229/153/67
f 275/130/67 229/153/67 227/154/67 225/155/67
f 275/130/67 225/155/67 223/156/67 221/157/67
f 275/130/67 221/157/67 219/158/67 217/159/67
f 275/130/67 217/159/67 214/160/67 213/161/67
f 277/4/68 278/66/68 279/162/68 280/163/68
f 281/163/69 282/162/69 283/66/69 284/4/69
f 284/66/67 283/4/67 278/163/67 277/162/67
f 282/66/70 281/4/70 280/163/70 279/162/70
f 281/66/71 284/4/71 277/163/71 280/162/71
f 283/66/72 282/4/72 279/163/72 278/162/72
f 285/164/70 286/165/70 287/166/70 288/1/70
f 286/165/73 289/167/73 290/168/73 287/166/73
f 289/167/74 291/169/74 292/33/74 290/168/74
f 291/169/67 293/170/67 294/171/67 292/33/67
f 293/170/75 295/172/75 296/173/75 294/171/75
f 295/172/76 285/174/76 288/65/76 296/173/76
f 291/175/69 289/176/69 286/177/69 285/178/69
f 295/179/69 293/180/69 291/175/69 285/178/69
