# generated by tools/gen_trunk_models.py - do not edit by hand
mtllib dc_trunk_cable_trench_arm.mtl
v 0.371875 0.675000 0.062500
v 0.354805 0.673319 0.062500
v 0.354805 0.673319 0.175000
v 0.371875 0.675000 0.175000
v 0.338390 0.668339 0.062500
v 0.338390 0.668339 0.175000
v 0.323263 0.660254 0.062500
v 0.323263 0.660254 0.175000
v 0.310003 0.649372 0.062500
v 0.310003 0.649372 0.175000
v 0.299121 0.636112 0.062500
v 0.299121 0.636112 0.175000
v 0.291036 0.620985 0.062500
v 0.291036 0.620985 0.175000
v 0.286056 0.604570 0.062500
v 0.286056 0.604570 0.175000
v 0.284375 0.587500 0.062500
v 0.284375 0.587500 0.175000
v 0.286056 0.570430 0.062500
v 0.286056 0.570430 0.175000
v 0.291036 0.554015 0.062500
v 0.291036 0.554015 0.175000
v 0.299121 0.538888 0.062500
v 0.299121 0.538888 0.175000
v 0.310003 0.525628 0.062500
v 0.310003 0.525628 0.175000
v 0.323263 0.514746 0.062500
v 0.323263 0.514746 0.175000
v 0.338390 0.506661 0.062500
v 0.338390 0.506661 0.175000
v 0.354805 0.501681 0.062500
v 0.354805 0.501681 0.175000
v 0.371875 0.500000 0.062500
v 0.371875 0.500000 0.175000
v 0.388945 0.501681 0.062500
v 0.388945 0.501681 0.175000
v 0.405360 0.506661 0.062500
v 0.405360 0.506661 0.175000
v 0.420487 0.514746 0.062500
v 0.420487 0.514746 0.175000
v 0.433747 0.525628 0.062500
v 0.433747 0.525628 0.175000
v 0.444629 0.538888 0.062500
v 0.444629 0.538888 0.175000
v 0.452714 0.554015 0.062500
v 0.452714 0.554015 0.175000
v 0.457694 0.570430 0.062500
v 0.457694 0.570430 0.175000
v 0.459375 0.587500 0.062500
v 0.459375 0.587500 0.175000
v 0.457694 0.604570 0.062500
v 0.457694 0.604570 0.175000
v 0.452714 0.620985 0.062500
v 0.452714 0.620985 0.175000
v 0.444629 0.636112 0.062500
v 0.444629 0.636112 0.175000
v 0.433747 0.649372 0.062500
v 0.433747 0.649372 0.175000
v 0.420487 0.660254 0.062500
v 0.420487 0.660254 0.175000
v 0.405360 0.668339 0.062500
v 0.405360 0.668339 0.175000
v 0.388945 0.673319 0.062500
v 0.388945 0.673319 0.175000
v 0.628125 0.675000 0.062500
v 0.611055 0.673319 0.062500
v 0.611055 0.673319 0.175000
v 0.628125 0.675000 0.175000
v 0.594640 0.668339 0.062500
v 0.594640 0.668339 0.175000
v 0.579513 0.660254 0.062500
v 0.579513 0.660254 0.175000
v 0.566253 0.649372 0.062500
v 0.566253 0.649372 0.175000
v 0.555371 0.636112 0.062500
v 0.555371 0.636112 0.175000
v 0.547286 0.620985 0.062500
v 0.547286 0.620985 0.175000
v 0.542306 0.604570 0.062500
v 0.542306 0.604570 0.175000
v 0.540625 0.587500 0.062500
v 0.540625 0.587500 0.175000
v 0.542306 0.570430 0.062500
v 0.542306 0.570430 0.175000
v 0.547286 0.554015 0.062500
v 0.547286 0.554015 0.175000
v 0.555371 0.538888 0.062500
v 0.555371 0.538888 0.175000
v 0.566253 0.525628 0.062500
v 0.566253 0.525628 0.175000
v 0.579513 0.514746 0.062500
v 0.579513 0.514746 0.175000
v 0.594640 0.506661 0.062500
v 0.594640 0.506661 0.175000
v 0.611055 0.501681 0.062500
v 0.611055 0.501681 0.175000
v 0.628125 0.500000 0.062500
v 0.628125 0.500000 0.175000
v 0.645195 0.501681 0.062500
v 0.645195 0.501681 0.175000
v 0.661610 0.506661 0.062500
v 0.661610 0.506661 0.175000
v 0.676737 0.514746 0.062500
v 0.676737 0.514746 0.175000
v 0.689997 0.525628 0.062500
v 0.689997 0.525628 0.175000
v 0.700879 0.538888 0.062500
v 0.700879 0.538888 0.175000
v 0.708964 0.554015 0.062500
v 0.708964 0.554015 0.175000
v 0.713944 0.570430 0.062500
v 0.713944 0.570430 0.175000
v 0.715625 0.587500 0.062500
v 0.715625 0.587500 0.175000
v 0.713944 0.604570 0.062500
v 0.713944 0.604570 0.175000
v 0.708964 0.620985 0.062500
v 0.708964 0.620985 0.175000
v 0.700879 0.636112 0.062500
v 0.700879 0.636112 0.175000
v 0.689997 0.649372 0.062500
v 0.689997 0.649372 0.175000
v 0.676737 0.660254 0.062500
v 0.676737 0.660254 0.175000
v 0.661610 0.668339 0.062500
v 0.661610 0.668339 0.175000
v 0.645195 0.673319 0.062500
v 0.645195 0.673319 0.175000
v 0.000000 0.000000 0.000000
v 1.000000 0.000000 0.000000
v 1.000000 0.000000 1.000000
v 0.000000 0.000000 1.000000
v 0.000000 0.500000 1.000000
v 1.000000 0.500000 1.000000
v 1.000000 0.500000 0.000000
v 0.000000 0.500000 0.000000
v 1.000000 0.500000 0.062500
v 0.000000 0.500000 0.062500
v 0.000000 1.000000 0.062500
v 1.000000 1.000000 0.062500
v 1.000000 1.000000 0.000000
v 0.000000 1.000000 0.000000
v 0.000000 0.500000 0.937500
v 1.000000 0.500000 0.937500
v 0.000000 1.000000 1.000000
v 1.000000 1.000000 1.000000
v 1.000000 1.000000 0.937500
v 0.000000 1.000000 0.937500
v 0.062500 0.500000 0.062500
v 0.062500 0.500000 0.937500
v 0.062500 1.000000 0.937500
v 0.062500 1.000000 0.062500
v 0.937500 0.500000 0.062500
v 0.937500 0.500000 0.937500
v 0.937500 1.000000 0.937500
v 0.937500 1.000000 0.062500
vn -0.0975 0.9904 0.0000
vn -0.2889 0.9523 0.0000
vn -0.4691 0.8777 0.0000
vn -0.6313 0.7693 0.0000
vn -0.7693 0.6313 0.0000
vn -0.8777 0.4691 0.0000
vn -0.9523 0.2889 0.0000
vn -0.9904 0.0975 0.0000
vn -0.9904 -0.0975 0.0000
vn -0.9523 -0.2889 0.0000
vn -0.8777 -0.4691 0.0000
vn -0.7693 -0.6313 0.0000
vn -0.6313 -0.7693 0.0000
vn -0.4691 -0.8777 0.0000
vn -0.2889 -0.9523 0.0000
vn -0.0975 -0.9904 0.0000
vn 0.0975 -0.9904 0.0000
vn 0.2889 -0.9523 0.0000
vn 0.4691 -0.8777 0.0000
vn 0.6313 -0.7693 0.0000
vn 0.7693 -0.6313 0.0000
vn 0.8777 -0.4691 0.0000
vn 0.9523 -0.2889 0.0000
vn 0.9904 -0.0975 0.0000
vn 0.9904 0.0975 0.0000
vn 0.9523 0.2889 -0.0000
vn 0.8777 0.4691 -0.0000
vn 0.7693 0.6313 -0.0000
vn 0.6313 0.7693 -0.0000
vn 0.4691 0.8777 -0.0000
vn 0.2889 0.9523 -0.0000
vn 0.0975 0.9904 0.0000
vn 0.0000 -1.0000 0.0000
vn 0.0000 1.0000 0.0000
vn 0.0000 0.0000 -1.0000
vn 0.0000 0.0000 1.0000
vn -1.0000 0.0000 0.0000
vn 1.0000 0.0000 0.0000
vt 0.000000 0.000000
vt 0.031250 0.000000
vt 0.031250 1.000000
vt 0.000000 1.000000
vt 0.062500 0.000000
vt 0.062500 1.000000
vt 0.093750 0.000000
vt 0.093750 1.000000
vt 0.125000 0.000000
vt 0.125000 1.000000
vt 0.156250 0.000000
vt 0.156250 1.000000
vt 0.187500 0.000000
vt 0.187500 1.000000
vt 0.218750 0.000000
vt 0.218750 1.000000
vt 0.250000 0.000000
vt 0.250000 1.000000
vt 0.281250 0.000000
vt 0.281250 1.000000
vt 0.312500 0.000000
vt 0.312500 1.000000
vt 0.343750 0.000000
vt 0.343750 1.000000
vt 0.375000 0.000000
vt 0.375000 1.000000
vt 0.406250 0.000000
vt 0.406250 1.000000
vt 0.437500 0.000000
vt 0.437500 1.000000
vt 0.468750 0.000000
vt 0.468750 1.000000
vt 0.500000 0.000000
vt 0.500000 1.000000
vt 0.531250 0.000000
vt 0.531250 1.000000
vt 0.562500 0.000000
vt 0.562500 1.000000
vt 0.593750 0.000000
vt 0.593750 1.000000
vt 0.625000 0.000000
vt 0.625000 1.000000
vt 0.656250 0.000000
vt 0.656250 1.000000
vt 0.687500 0.000000
vt 0.687500 1.000000
vt 0.718750 0.000000
vt 0.718750 1.000000
vt 0.750000 0.000000
vt 0.750000 1.000000
vt 0.781250 0.000000
vt 0.781250 1.000000
vt 0.812500 0.000000
vt 0.812500 1.000000
vt 0.843750 0.000000
vt 0.843750 1.000000
vt 0.875000 0.000000
vt 0.875000 1.000000
vt 0.906250 0.000000
vt 0.906250 1.000000
vt 0.937500 0.000000
vt 0.937500 1.000000
vt 0.968750 0.000000
vt 0.968750 1.000000
vt 1.000000 0.000000
vt 1.000000 1.000000
vt 0.000000 0.500000
vt 0.500000 0.500000
o cable
usemtl core
f 1/1/1 2/2/1 3/3/1 4/4/1
f 2/2/2 5/5/2 6/6/2 3/3/2
f 5/5/3 7/7/3 8/8/3 6/6/3
f 7/7/4 9/9/4 10/10/4 8/8/4
f 9/9/5 11/11/5 12/12/5 10/10/5
f 11/11/6 13/13/6 14/14/6 12/12/6
f 13/13/7 15/15/7 16/16/7 14/14/7
f 15/15/8 17/17/8 18/18/8 16/16/8
f 17/17/9 19/19/9 20/20/9 18/18/9
f 19/19/10 21/21/10 22/22/10 20/20/10
f 21/21/11 23/23/11 24/24/11 22/22/11
f 23/23/12 25/25/12 26/26/12 24/24/12
f 25/25/13 27/27/13 28/28/13 26/26/13
f 27/27/14 29/29/14 30/30/14 28/28/14
f 29/29/15 31/31/15 32/32/15 30/30/15
f 31/31/16 33/33/16 34/34/16 32/32/16
f 33/33/17 35/35/17 36/36/17 34/34/17
f 35/35/18 37/37/18 38/38/18 36/36/18
f 37/37/19 39/39/19 40/40/19 38/38/19
f 39/39/20 41/41/20 42/42/20 40/40/20
f 41/41/21 43/43/21 44/44/21 42/42/21
f 43/43/22 45/45/22 46/46/22 44/44/22
f 45/45/23 47/47/23 48/48/23 46/46/23
f 47/47/24 49/49/24 50/50/24 48/48/24
f 49/49/25 51/51/25 52/52/25 50/50/25
f 51/51/26 53/53/26 54/54/26 52/52/26
f 53/53/27 55/55/27 56/56/27 54/54/27
f 55/55/28 57/57/28 58/58/28 56/56/28
f 57/57/29 59/59/29 60/60/29 58/58/29
f 59/59/30 61/61/30 62/62/30 60/60/30
f 61/61/31 63/63/31 64/64/31 62/62/31
f 63/63/32 1/65/32 4/66/32 64/64/32
f 65/1/1 66/2/1 67/3/1 68/4/1
f 66/2/2 69/5/2 70/6/2 67/3/2
f 69/5/3 71/7/3 72/8/3 70/6/3
f 71/7/4 73/9/4 74/10/4 72/8/4
f 73/9/5 75/11/5 76/12/5 74/10/5
f 75/11/6 77/13/6 78/14/6 76/12/6
f 77/13/7 79/15/7 80/16/7 78/14/7
f 79/15/8 81/17/8 82/18/8 80/16/8
f 81/17/9 83/19/9 84/20/9 82/18/9
f 83/19/10 85/21/10 86/22/10 84/20/10
f 85/21/11 87/23/11 88/24/11 86/22/11
f 87/23/12 89/25/12 90/26/12 88/24/12
f 89/25/13 91/27/13 92/28/13 90/26/13
f 91/27/14 93/29/14 94/30/14 92/28/14
f 93/29/15 95/31/15 96/32/15 94/30/15
f 95/31/16 97/33/16 98/34/16 96/32/16
f 97/33/17 99/35/17 100/36/17 98/34/17
f 99/35/18 101/37/18 102/38/18 100/36/18
f 101/37/19 103/39/19 104/40/19 102/38/19
f 103/39/20 105/41/20 106/42/20 104/40/20
f 105/41/21 107/43/21 108/44/21 106/42/21
f 107/43/22 109/45/22 110/46/22 108/44/22
f 109/45/23 111/47/23 112/48/23 110/46/23
f 111/47/24 113/49/24 114/50/24 112/48/24
f 113/49/25 115/51/25 116/52/25 114/50/25
f 115/51/26 117/53/26 118/54/26 116/52/26
f 117/53/27 119/55/27 120/56/27 118/54/27
f 119/55/28 121/57/28 122/58/28 120/56/28
f 121/57/29 123/59/29 124/60/29 122/58/29
f 123/59/30 125/61/30 126/62/30 124/60/30
f 125/61/31 127/63/31 128/64/31 126/62/31
f 127/63/32 65/65/32 68/66/32 128/64/32
o bedding
usemtl trench
f 129/4/33 130/66/33 131/65/33 132/1/33
f 133/1/34 134/65/34 135/66/34 136/4/34
f 136/66/35 135/4/35 130/1/35 129/65/35
f 134/66/36 133/4/36 132/1/36 131/65/36
f 133/66/37 136/4/37 129/1/37 132/65/37
f 135/66/38 134/4/38 131/1/38 130/65/38
f 136/67/33 135/68/33 137/33/33 138/1/33
f 139/1/34 140/33/34 141/68/34 142/67/34
f 142/68/35 141/67/35 135/1/35 136/33/35
f 140/68/36 139/67/36 138/1/36 137/33/36
f 139/68/37 142/67/37 136/1/37 138/33/37
f 141/68/38 140/67/38 137/1/38 135/33/38
f 143/67/33 144/68/33 134/33/33 133/1/33
f 145/1/34 146/33/34 147/68/34 148/67/34
f 148/68/35 147/67/35 144/1/35 143/33/35
f 146/68/36 145/67/36 133/1/36 134/33/36
f 145/68/37 148/67/37 143/1/37 133/33/37
f 147/68/38 146/67/38 134/1/38 144/33/38
f 138/67/33 149/68/33 150/33/33 143/1/33
f 148/1/34 151/33/34 152/68/34 139/67/34
f 139/68/35 152/67/35 149/1/35 138/33/35
f 151/68/36 148/67/36 143/1/36 150/33/36
f 148/68/37 139/67/37 138/1/37 143/33/37
f 152/68/38 151/67/38 150/1/38 149/33/38
f 153/67/33 137/68/33 144/33/33 154/1/33
f 155/1/34 147/33/34 140/68/34 156/67/34
f 156/68/35 140/67/35 137/1/35 153/33/35
f 147/68/36 155/67/36 154/1/36 144/33/36
f 155/68/37 156/67/37 153/1/37 154/33/37
f 140/68/38 147/67/38 144/1/38 137/33/38
