# generated by tools/gen_trunk_models.py - do not edit by hand
mtllib dc_trunk_cable_tee.mtl
v 0.175000 0.000000 0.175000
v 0.825000 0.000000 0.175000
v 0.825000 0.000000 0.825000
v 0.175000 0.000000 0.825000
v 0.175000 0.353750 0.825000
v 0.825000 0.353750 0.825000
v 0.825000 0.353750 0.175000
v 0.175000 0.353750 0.175000
v 0.153750 0.353750 0.153750
v 0.846250 0.353750 0.153750
v 0.846250 0.353750 0.846250
v 0.153750 0.353750 0.846250
v 0.153750 0.375000 0.846250
v 0.846250 0.375000 0.846250
v 0.846250 0.375000 0.153750
v 0.153750 0.375000 0.153750
v 0.432813 0.193047 0.146875
v 0.310938 0.193047 0.146875
v 0.310938 0.193047 0.175000
v 0.432813 0.193047 0.175000
v 0.250000 0.087500 0.146875
v 0.250000 0.087500 0.175000
v 0.310937 -0.018047 0.146875
v 0.310937 -0.018047 0.175000
v 0.432812 -0.018047 0.146875
v 0.432812 -0.018047 0.175000
v 0.493750 0.087500 0.146875
v 0.493750 0.087500 0.175000
v 0.371875 0.180000 0.081250
v 0.353829 0.178223 0.081250
v 0.349318 0.200903 0.146875
v 0.371875 0.203125 0.146875
v 0.336477 0.172959 0.081250
v 0.327627 0.194324 0.146875
v 0.320485 0.164411 0.081250
v 0.307637 0.183639 0.146875
v 0.306468 0.152907 0.081250
v 0.290116 0.169259 0.146875
v 0.294964 0.138890 0.081250
v 0.275736 0.151738 0.146875
v 0.286416 0.122898 0.081250
v 0.265051 0.131748 0.146875
v 0.281152 0.105546 0.081250
v 0.258472 0.110057 0.146875
v 0.279375 0.087500 0.081250
v 0.256250 0.087500 0.146875
v 0.281152 0.069454 0.081250
v 0.258472 0.064943 0.146875
v 0.286416 0.052102 0.081250
v 0.265051 0.043252 0.146875
v 0.294964 0.036110 0.081250
v 0.275736 0.023262 0.146875
v 0.306468 0.022093 0.081250
v 0.290116 0.005741 0.146875
v 0.320485 0.010589 0.081250
v 0.307637 -0.008639 0.146875
v 0.336477 0.002041 0.081250
v 0.327627 -0.019324 0.146875
v 0.353829 -0.003223 0.081250
v 0.349318 -0.025903 0.146875
v 0.371875 -0.005000 0.081250
v 0.371875 -0.028125 0.146875
v 0.389921 -0.003223 0.081250
v 0.394432 -0.025903 0.146875
v 0.407273 0.002041 0.081250
v 0.416123 -0.019324 0.146875
v 0.423265 0.010589 0.081250
v 0.436113 -0.008639 0.146875
v 0.437282 0.022093 0.081250
v 0.453634 0.005741 0.146875
v 0.448786 0.036110 0.081250
v 0.468014 0.023262 0.146875
v 0.457334 0.052102 0.081250
v 0.478699 0.043252 0.146875
v 0.462598 0.069454 0.081250
v 0.485278 0.064943 0.146875
v 0.464375 0.087500 0.081250
v 0.487500 0.087500 0.146875
v 0.462598 0.105546 0.081250
v 0.485278 0.110057 0.146875
v 0.457334 0.122898 0.081250
v 0.478699 0.131748 0.146875
v 0.448786 0.138890 0.081250
v 0.468014 0.151738 0.146875
v 0.437282 0.152907 0.081250
v 0.453634 0.169259 0.146875
v 0.423265 0.164411 0.081250
v 0.436113 0.183639 0.146875
v 0.407273 0.172959 0.081250
v 0.416123 0.194324 0.146875
v 0.389921 0.178223 0.081250
v 0.394432 0.200903 0.146875
v 0.689063 0.193047 0.146875
v 0.567188 0.193047 0.146875
v 0.567188 0.193047 0.175000
v 0.689063 0.193047 0.175000
v 0.506250 0.087500 0.146875
v 0.506250 0.087500 0.175000
v 0.567187 -0.018047 0.146875
v 0.567187 -0.018047 0.175000
v 0.689062 -0.018047 0.146875
v 0.689062 -0.018047 0.175000
v 0.750000 0.087500 0.146875
v 0.750000 0.087500 0.175000
v 0.628125 0.180000 0.081250
v 0.610079 0.178223 0.081250
v 0.605568 0.200903 0.146875
v 0.628125 0.203125 0.146875
v 0.592727 0.172959 0.081250
v 0.583877 0.194324 0.146875
v 0.576735 0.164411 0.081250
v 0.563887 0.183639 0.146875
v 0.562718 0.152907 0.081250
v 0.546366 0.169259 0.146875
v 0.551214 0.138890 0.081250
v 0.531986 0.151738 0.146875
v 0.542666 0.122898 0.081250
v 0.521301 0.131748 0.146875
v 0.537402 0.105546 0.081250
v 0.514722 0.110057 0.146875
v 0.535625 0.087500 0.081250
v 0.512500 0.087500 0.146875
v 0.537402 0.069454 0.081250
v 0.514722 0.064943 0.146875
v 0.542666 0.052102 0.081250
v 0.521301 0.043252 0.146875
v 0.551214 0.036110 0.081250
v 0.531986 0.023262 0.146875
v 0.562718 0.022093 0.081250
v 0.546366 0.005741 0.146875
v 0.576735 0.010589 0.081250
v 0.563887 -0.008639 0.146875
v 0.592727 0.002041 0.081250
v 0.583877 -0.019324 0.146875
v 0.610079 -0.003223 0.081250
v 0.605568 -0.025903 0.146875
v 0.628125 -0.005000 0.081250
v 0.628125 -0.028125 0.146875
v 0.646171 -0.003223 0.081250
v 0.650682 -0.025903 0.146875
v 0.663523 0.002041 0.081250
v 0.672373 -0.019324 0.146875
v 0.679515 0.010589 0.081250
v 0.692363 -0.008639 0.146875
v 0.693532 0.022093 0.081250
v 0.709884 0.005741 0.146875
v 0.705036 0.036110 0.081250
v 0.724264 0.023262 0.146875
v 0.713584 0.052102 0.081250
v 0.734949 0.043252 0.146875
v 0.718848 0.069454 0.081250
v 0.741528 0.064943 0.146875
v 0.720625 0.087500 0.081250
v 0.743750 0.087500 0.146875
v 0.718848 0.105546 0.081250
v 0.741528 0.110057 0.146875
v 0.713584 0.122898 0.081250
v 0.734949 0.131748 0.146875
v 0.705036 0.138890 0.081250
v 0.724264 0.151738 0.146875
v 0.693532 0.152907 0.081250
v 0.709884 0.169259 0.146875
v 0.679515 0.164411 0.081250
v 0.692363 0.183639 0.146875
v 0.663523 0.172959 0.081250
v 0.672373 0.194324 0.146875
v 0.646171 0.178223 0.081250
v 0.650682 0.200903 0.146875
v 0.825000 0.148438 0.477422
v 0.825000 0.026563 0.477422
v 0.853125 0.026563 0.477422
v 0.853125 0.148438 0.477422
v 0.825000 -0.034375 0.371875
v 0.853125 -0.034375 0.371875
v 0.825000 0.026562 0.266328
v 0.853125 0.026562 0.266328
v 0.825000 0.148437 0.266328
v 0.853125 0.148437 0.266328
v 0.825000 0.209375 0.371875
v 0.853125 0.209375 0.371875
v 0.853125 0.203125 0.371875
v 0.853125 0.200903 0.394432
v 0.918750 0.178223 0.389921
v 0.918750 0.180000 0.371875
v 0.853125 0.194324 0.416123
v 0.918750 0.172959 0.407273
v 0.853125 0.183639 0.436113
v 0.918750 0.164411 0.423265
v 0.853125 0.169259 0.453634
v 0.918750 0.152907 0.437282
v 0.853125 0.151738 0.468014
v 0.918750 0.138890 0.448786
v 0.853125 0.131748 0.478699
v 0.918750 0.122898 0.457334
v 0.853125 0.110057 0.485278
v 0.918750 0.105546 0.462598
v 0.853125 0.087500 0.487500
v 0.918750 0.087500 0.464375
v 0.853125 0.064943 0.485278
v 0.918750 0.069454 0.462598
v 0.853125 0.043252 0.478699
v 0.918750 0.052102 0.457334
v 0.853125 0.023262 0.468014
v 0.918750 0.036110 0.448786
v 0.853125 0.005741 0.453634
v 0.918750 0.022093 0.437282
v 0.853125 -0.008639 0.436113
v 0.918750 0.010589 0.423265
v 0.853125 -0.019324 0.416123
v 0.918750 0.002041 0.407273
v 0.853125 -0.025903 0.394432
v 0.918750 -0.003223 0.389921
v 0.853125 -0.028125 0.371875
v 0.918750 -0.005000 0.371875
v 0.853125 -0.025903 0.349318
v 0.918750 -0.003223 0.353829
v 0.853125 -0.019324 0.327627
v 0.918750 0.002041 0.336477
v 0.853125 -0.008639 0.307637
v 0.918750 0.010589 0.320485
v 0.853125 0.005741 0.290116
v 0.918750 0.022093 0.306468
v 0.853125 0.023262 0.275736
v 0.918750 0.036110 0.294964
v 0.853125 0.043252 0.265051
v 0.918750 0.052102 0.286416
v 0.853125 0.064943 0.258472
v 0.918750 0.069454 0.281152
v 0.853125 0.087500 0.256250
v 0.918750 0.087500 0.279375
v 0.853125 0.110057 0.258472
v 0.918750 0.105546 0.281152
v 0.853125 0.131748 0.265051
v 0.918750 0.122898 0.286416
v 0.853125 0.151738 0.275736
v 0.918750 0.138890 0.294964
v 0.853125 0.169259 0.290116
v 0.918750 0.152907 0.306468
v 0.853125 0.183639 0.307637
v 0.918750 0.164411 0.320485
v 0.853125 0.194324 0.327627
v 0.918750 0.172959 0.336477
v 0.853125 0.200903 0.349318
v 0.918750 0.178223 0.353829
v 0.825000 0.148438 0.733672
v 0.825000 0.026563 0.733672
v 0.853125 0.026563 0.733672
v 0.853125 0.148438 0.733672
v 0.825000 -0.034375 0.628125
v 0.853125 -0.034375 0.628125
v 0.825000 0.026562 0.522578
v 0.853125 0.026562 0.522578
v 0.825000 0.148437 0.522578
v 0.853125 0.148437 0.522578
v 0.825000 0.209375 0.628125
v 0.853125 0.209375 0.628125
v 0.853125 0.203125 0.628125
v 0.853125 0.200903 0.650682
v 0.918750 0.178223 0.646171
v 0.918750 0.180000 0.628125
v 0.853125 0.194324 0.672373
v 0.918750 0.172959 0.663523
v 0.853125 0.183639 0.692363
v 0.918750 0.164411 0.679515
v 0.853125 0.169259 0.709884
v 0.918750 0.152907 0.693532
v 0.853125 0.151738 0.724264
v 0.918750 0.138890 0.705036
v 0.853125 0.131748 0.734949
v 0.918750 0.122898 0.713584
v 0.853125 0.110057 0.741528
v 0.918750 0.105546 0.718848
v 0.853125 0.087500 0.743750
v 0.918750 0.087500 0.720625
v 0.853125 0.064943 0.741528
v 0.918750 0.069454 0.718848
v 0.853125 0.043252 0.734949
v 0.918750 0.052102 0.713584
v 0.853125 0.023262 0.724264
v 0.918750 0.036110 0.705036
v 0.853125 0.005741 0.709884
v 0.918750 0.022093 0.693532
v 0.853125 -0.008639 0.692363
v 0.918750 0.010589 0.679515
v 0.853125 -0.019324 0.672373
v 0.918750 0.002041 0.663523
v 0.853125 -0.025903 0.650682
v 0.918750 -0.003223 0.646171
v 0.853125 -0.028125 0.628125
v 0.918750 -0.005000 0.628125
v 0.853125 -0.025903 0.605568
v 0.918750 -0.003223 0.610079
v 0.853125 -0.019324 0.583877
v 0.918750 0.002041 0.592727
v 0.853125 -0.008639 0.563887
v 0.918750 0.010589 0.576735
v 0.853125 0.005741 0.546366
v 0.918750 0.022093 0.562718
v 0.853125 0.023262 0.531986
v 0.918750 0.036110 0.551214
v 0.853125 0.043252 0.521301
v 0.918750 0.052102 0.542666
v 0.853125 0.064943 0.514722
v 0.918750 0.069454 0.537402
v 0.853125 0.087500 0.512500
v 0.918750 0.087500 0.535625
v 0.853125 0.110057 0.514722
v 0.918750 0.105546 0.537402
v 0.853125 0.131748 0.521301
v 0.918750 0.122898 0.542666
v 0.853125 0.151738 0.531986
v 0.918750 0.138890 0.551214
v 0.853125 0.169259 0.546366
v 0.918750 0.152907 0.562718
v 0.853125 0.183639 0.563887
v 0.918750 0.164411 0.576735
v 0.853125 0.194324 0.583877
v 0.918750 0.172959 0.592727
v 0.853125 0.200903 0.605568
v 0.918750 0.178223 0.610079
v 0.432813 0.193047 0.825000
v 0.310938 0.193047 0.825000
v 0.310938 0.193047 0.853125
v 0.432813 0.193047 0.853125
v 0.250000 0.087500 0.825000
v 0.250000 0.087500 0.853125
v 0.310937 -0.018047 0.825000
v 0.310937 -0.018047 0.853125
v 0.432812 -0.018047 0.825000
v 0.432812 -0.018047 0.853125
v 0.493750 0.087500 0.825000
v 0.493750 0.087500 0.853125
v 0.371875 0.203125 0.853125
v 0.349318 0.200903 0.853125
v 0.353829 0.178223 0.918750
v 0.371875 0.180000 0.918750
v 0.327627 0.194324 0.853125
v 0.336477 0.172959 0.918750
v 0.307637 0.183639 0.853125
v 0.320485 0.164411 0.918750
v 0.290116 0.169259 0.853125
v 0.306468 0.152907 0.918750
v 0.275736 0.151738 0.853125
v 0.294964 0.138890 0.918750
v 0.265051 0.131748 0.853125
v 0.286416 0.122898 0.918750
v 0.258472 0.110057 0.853125
v 0.281152 0.105546 0.918750
v 0.256250 0.087500 0.853125
v 0.279375 0.087500 0.918750
v 0.258472 0.064943 0.853125
v 0.281152 0.069454 0.918750
v 0.265051 0.043252 0.853125
v 0.286416 0.052102 0.918750
v 0.275736 0.023262 0.853125
v 0.294964 0.036110 0.918750
v 0.290116 0.005741 0.853125
v 0.306468 0.022093 0.918750
v 0.307637 -0.008639 0.853125
v 0.320485 0.010589 0.918750
v 0.327627 -0.019324 0.853125
v 0.336477 0.002041 0.918750
v 0.349318 -0.025903 0.853125
v 0.353829 -0.003223 0.918750
v 0.371875 -0.028125 0.853125
v 0.371875 -0.005000 0.918750
v 0.394432 -0.025903 0.853125
v 0.389921 -0.003223 0.918750
v 0.416123 -0.019324 0.853125
v 0.407273 0.002041 0.918750
v 0.436113 -0.008639 0.853125
v 0.423265 0.010589 0.918750
v 0.453634 0.005741 0.853125
v 0.437282 0.022093 0.918750
v 0.468014 0.023262 0.853125
v 0.448786 0.036110 0.918750
v 0.478699 0.043252 0.853125
v 0.457334 0.052102 0.918750
v 0.485278 0.064943 0.853125
v 0.462598 0.069454 0.918750
v 0.487500 0.087500 0.853125
v 0.464375 0.087500 0.918750
v 0.485278 0.110057 0.853125
v 0.462598 0.105546 0.918750
v 0.478699 0.131748 0.853125
v 0.457334 0.122898 0.918750
v 0.468014 0.151738 0.853125
v 0.448786 0.138890 0.918750
v 0.453634 0.169259 0.853125
v 0.437282 0.152907 0.918750
v 0.436113 0.183639 0.853125
v 0.423265 0.164411 0.918750
v 0.416123 0.194324 0.853125
v 0.407273 0.172959 0.918750
v 0.394432 0.200903 0.853125
v 0.389921 0.178223 0.918750
v 0.689063 0.193047 0.825000
v 0.567188 0.193047 0.825000
v 0.567188 0.193047 0.853125
v 0.689063 0.193047 0.853125
v 0.506250 0.087500 0.825000
v 0.506250 0.087500 0.853125
v 0.567187 -0.018047 0.825000
v 0.567187 -0.018047 0.853125
v 0.689062 -0.018047 0.825000
v 0.689062 -0.018047 0.853125
v 0.750000 0.087500 0.825000
v 0.750000 0.087500 0.853125
v 0.628125 0.203125 0.853125
v 0.605568 0.200903 0.853125
v 0.610079 0.178223 0.918750
v 0.628125 0.180000 0.918750
v 0.583877 0.194324 0.853125
v 0.592727 0.172959 0.918750
v 0.563887 0.183639 0.853125
v 0.576735 0.164411 0.918750
v 0.546366 0.169259 0.853125
v 0.562718 0.152907 0.918750
v 0.531986 0.151738 0.853125
v 0.551214 0.138890 0.918750
v 0.521301 0.131748 0.853125
v 0.542666 0.122898 0.918750
v 0.514722 0.110057 0.853125
v 0.537402 0.105546 0.918750
v 0.512500 0.087500 0.853125
v 0.535625 0.087500 0.918750
v 0.514722 0.064943 0.853125
v 0.537402 0.069454 0.918750
v 0.521301 0.043252 0.853125
v 0.542666 0.052102 0.918750
v 0.531986 0.023262 0.853125
v 0.551214 0.036110 0.918750
v 0.546366 0.005741 0.853125
v 0.562718 0.022093 0.918750
v 0.563887 -0.008639 0.853125
v 0.576735 0.010589 0.918750
v 0.583877 -0.019324 0.853125
v 0.592727 0.002041 0.918750
v 0.605568 -0.025903 0.853125
v 0.610079 -0.003223 0.918750
v 0.628125 -0.028125 0.853125
v 0.628125 -0.005000 0.918750
v 0.650682 -0.025903 0.853125
v 0.646171 -0.003223 0.918750
v 0.672373 -0.019324 0.853125
v 0.663523 0.002041 0.918750
v 0.692363 -0.008639 0.853125
v 0.679515 0.010589 0.918750
v 0.709884 0.005741 0.853125
v 0.693532 0.022093 0.918750
v 0.724264 0.023262 0.853125
v 0.705036 0.036110 0.918750
v 0.734949 0.043252 0.853125
v 0.713584 0.052102 0.918750
v 0.741528 0.064943 0.853125
v 0.718848 0.069454 0.918750
v 0.743750 0.087500 0.853125
v 0.720625 0.087500 0.918750
v 0.741528 0.110057 0.853125
v 0.718848 0.105546 0.918750
v 0.734949 0.131748 0.853125
v 0.713584 0.122898 0.918750
v 0.724264 0.151738 0.853125
v 0.705036 0.138890 0.918750
v 0.709884 0.169259 0.853125
v 0.693532 0.152907 0.918750
v 0.692363 0.183639 0.853125
v 0.679515 0.164411 0.918750
v 0.672373 0.194324 0.853125
v 0.663523 0.172959 0.918750
v 0.650682 0.200903 0.853125
v 0.646171 0.178223 0.918750
vn 0.0000 -1.0000 0.0000
vn 0.0000 1.0000 0.0000
vn 0.0000 0.0000 -1.0000
vn 0.0000 0.0000 1.0000
vn -1.0000 0.0000 0.0000
vn 1.0000 0.0000 0.0000
vn -0.8660 0.5000 0.0000
vn -0.8660 -0.5000 0.0000
vn 0.8660 -0.5000 0.0000
vn 0.8660 0.5000 0.0000
vn -0.1089 0.9941 0.0000
vn -0.3007 0.9537 0.0000
vn -0.4810 0.8767 0.0000
vn -0.6428 0.7660 0.0000
vn -0.7799 0.6259 0.0000
vn -0.8870 0.4617 0.0000
vn -0.9601 0.2798 0.0000
vn -0.9962 0.0871 0.0000
vn -0.9941 -0.1089 0.0000
vn -0.9537 -0.3007 0.0000
vn -0.8767 -0.4810 0.0000
vn -0.7660 -0.6428 0.0000
vn -0.6259 -0.7799 0.0000
vn -0.4617 -0.8870 0.0000
vn -0.2798 -0.9601 0.0000
vn -0.0871 -0.9962 0.0000
vn 0.1089 -0.9941 0.0000
vn 0.3007 -0.9537 0.0000
vn 0.4810 -0.8767 0.0000
vn 0.6428 -0.7660 0.0000
vn 0.7799 -0.6259 0.0000
vn 0.8870 -0.4617 0.0000
vn 0.9601 -0.2798 0.0000
vn 0.9962 -0.0871 0.0000
vn 0.9941 0.1089 0.0000
vn 0.9537 0.3007 0.0000
vn 0.8767 0.4810 0.0000
vn 0.7660 0.6428 0.0000
vn 0.6259 0.7799 0.0000
vn 0.4617 0.8870 0.0000
vn 0.2798 0.9601 0.0000
vn 0.0871 0.9962 0.0000
vn 0.0000 -0.8660 0.5000
vn 0.0000 -0.8660 -0.5000
vn 0.0000 0.8660 -0.5000
vn 0.0000 0.8660 0.5000
vn 0.0000 0.9962 0.0871
vn 0.0000 0.9601 0.2798
vn 0.0000 0.8870 0.4617
vn 0.0000 0.7799 0.6259
vn 0.0000 0.6428 0.7660
vn 0.0000 0.4810 0.8767
vn 0.0000 0.3007 0.9537
vn 0.0000 0.1089 0.9941
vn 0.0000 -0.0871 0.9962
vn 0.0000 -0.2798 0.9601
vn 0.0000 -0.4617 0.8870
vn 0.0000 -0.6259 0.7799
vn 0.0000 -0.7660 0.6428
vn 0.0000 -0.8767 0.4810
vn 0.0000 -0.9537 0.3007
vn 0.0000 -0.9941 0.1089
vn 0.0000 -0.9962 -0.0871
vn 0.0000 -0.9601 -0.2798
vn 0.0000 -0.8870 -0.4617
vn 0.0000 -0.7799 -0.6259
vn 0.0000 -0.6428 -0.7660
vn 0.0000 -0.4810 -0.8767
vn 0.0000 -0.3007 -0.9537
vn 0.0000 -0.1089 -0.9941
vn 0.0000 0.0871 -0.9962
vn 0.0000 0.2798 -0.9601
vn 0.0000 0.4617 -0.8870
vn 0.0000 0.6259 -0.7799
vn 0.0000 0.7660 -0.6428
vn 0.0000 0.8767 -0.4810
vn 0.0000 0.9537 -0.3007
vn 0.0000 0.9941 -0.1089
vn -0.0871 0.9962 0.0000
vn -0.2798 0.9601 0.0000
vn -0.4617 0.8870 0.0000
vn -0.6259 0.7799 0.0000
vn -0.7660 0.6428 0.0000
vn -0.8767 0.4810 0.0000
vn -0.9537 0.3007 0.0000
vn -0.9941 0.1089 0.0000
vn -0.9962 -0.0871 0.0000
vn -0.9601 -0.2798 0.0000
vn -0.8870 -0.4617 0.0000
vn -0.7799 -0.6259 0.0000
vn -0.6428 -0.7660 0.0000
vn -0.4810 -0.8767 0.0000
vn -0.3007 -0.9537 0.0000
vn -0.1089 -0.9941 0.0000
vn 0.0871 -0.9962 0.0000
vn 0.2798 -0.9601 0.0000
vn 0.4617 -0.8870 0.0000
vn 0.6259 -0.7799 0.0000
vn 0.7660 -0.6428 0.0000
vn 0.8767 -0.4810 0.0000
vn 0.9537 -0.3007 0.0000
vn 0.9941 -0.1089 0.0000
vn 0.9962 0.0871 0.0000
vn 0.9601 0.2798 0.0000
vn 0.8870 0.4617 0.0000
vn 0.7799 0.6259 0.0000
vn 0.6428 0.7660 0.0000
vn 0.4810 0.8767 0.0000
vn 0.3007 0.9537 0.0000
vn 0.1089 0.9941 0.0000
vt 0.000000 1.000000
vt 1.000000 1.000000
vt 1.000000 0.000000
vt 0.000000 0.000000
vt 0.000000 0.055000
vt 1.000000 0.055000
vt 0.166667 0.000000
vt 0.166667 0.250000
vt 0.000000 0.250000
vt 0.333333 0.000000
vt 0.333333 0.250000
vt 0.500000 0.000000
vt 0.500000 0.250000
vt 0.666667 0.000000
vt 0.666667 0.250000
vt 0.833333 0.000000
vt 0.833333 0.250000
vt 1.000000 0.250000
vt 0.750000 0.125000
vt 0.625000 0.070873
vt 0.375000 0.070873
vt 0.250000 0.125000
vt 0.375000 0.179127
vt 0.625000 0.179127
vt 0.031250 0.250000
vt 0.031250 1.000000
vt 0.062500 0.250000
vt 0.062500 1.000000
vt 0.093750 0.250000
vt 0.093750 1.000000
vt 0.125000 0.250000
vt 0.125000 1.000000
vt 0.156250 0.250000
vt 0.156250 1.000000
vt 0.187500 0.250000
vt 0.187500 1.000000
vt 0.218750 0.250000
vt 0.218750 1.000000
vt 0.250000 0.250000
vt 0.250000 1.000000
vt 0.281250 0.250000
vt 0.281250 1.000000
vt 0.312500 0.250000
vt 0.312500 1.000000
vt 0.343750 0.250000
vt 0.343750 1.000000
vt 0.375000 0.250000
vt 0.375000 1.000000
vt 0.406250 0.250000
vt 0.406250 1.000000
vt 0.437500 0.250000
vt 0.437500 1.000000
vt 0.468750 0.250000
vt 0.468750 1.000000
vt 0.500000 1.000000
vt 0.531250 0.250000
vt 0.531250 1.000000
vt 0.562500 0.250000
vt 0.562500 1.000000
vt 0.593750 0.250000
vt 0.593750 1.000000
vt 0.625000 0.250000
vt 0.625000 1.000000
vt 0.656250 0.250000
vt 0.656250 1.000000
vt 0.687500 0.250000
vt 0.687500 1.000000
vt 0.718750 0.250000
vt 0.718750 1.000000
vt 0.750000 0.250000
vt 0.750000 1.000000
vt 0.781250 0.250000
vt 0.781250 1.000000
vt 0.812500 0.250000
vt 0.812500 1.000000
vt 0.843750 0.250000
vt 0.843750 1.000000
vt 0.875000 0.250000
vt 0.875000 1.000000
vt 0.906250 0.250000
vt 0.906250 1.000000
vt 0.937500 0.250000
vt 0.937500 1.000000
vt 0.968750 0.250000
vt 0.968750 1.000000
vt 0.548773 0.808897
vt 0.595671 0.798227
vt 0.638893 0.780901
vt 0.676777 0.757583
vt 0.707867 0.729169
vt 0.730970 0.696753
vt 0.745196 0.661579
vt 0.750000 0.625000
vt 0.745196 0.588421
vt 0.730970 0.553247
vt 0.707867 0.520831
vt 0.676777 0.492417
vt 0.638893 0.469099
vt 0.595671 0.451773
vt 0.548773 0.441103
vt 0.500000 0.437500
vt 0.451227 0.441103
vt 0.404329 0.451773
vt 0.361107 0.469099
vt 0.323223 0.492417
vt 0.292133 0.520831
vt 0.269030 0.553247
vt 0.254804 0.588421
vt 0.250000 0.625000
vt 0.254804 0.661579
vt 0.269030 0.696753
vt 0.292133 0.729169
vt 0.323223 0.757583
vt 0.361107 0.780901
vt 0.404329 0.798227
vt 0.451227 0.808897
vt 0.500000 0.812500
o jbox
usemtl jbox_side
f 1/1/1 2/2/1 3/3/1 4/4/1
f 5/4/2 6/3/2 7/2/2 8/1/2
f 8/2/3 7/1/3 2/4/3 1/3/3
f 6/2/4 5/1/4 4/4/4 3/3/4
f 5/2/5 8/1/5 1/4/5 4/3/5
f 7/2/6 6/1/6 3/4/6 2/3/6
f 9/5/1 10/6/1 11/3/1 12/4/1
f 16/6/3 15/5/3 10/4/3 9/3/3
f 14/6/4 13/5/4 12/4/4 11/3/4
f 13/6/5 16/5/5 9/4/5 12/3/5
f 15/6/6 14/5/6 11/4/6 10/3/6
usemtl jbox
f 13/4/2 14/3/2 15/2/2 16/1/2
o gland_north_plus
usemtl gland
f 17/4/2 18/7/2 19/8/2 20/9/2
f 18/7/7 21/10/7 22/11/7 19/8/7
f 21/10/8 23/12/8 24/13/8 22/11/8
f 23/12/1 25/14/1 26/15/1 24/13/1
f 25/14/9 27/16/9 28/17/9 26/15/9
f 27/16/10 17/3/10 20/18/10 28/17/10
f 27/19/3 25/20/3 23/21/3 21/22/3
f 27/19/3 21/22/3 18/23/3 17/24/3
f 29/9/11 30/25/11 31/26/11 32/1/11
f 30/25/12 33/27/12 34/28/12 31/26/12
f 33/27/13 35/29/13 36/30/13 34/28/13
f 35/29/14 37/31/14 38/32/14 36/30/14
f 37/31/15 39/33/15 40/34/15 38/32/15
f 39/33/16 41/35/16 42/36/16 40/34/16
f 41/35/17 43/37/17 44/38/17 42/36/17
f 43/37/18 45/39/18 46/40/18 44/38/18
f 45/39/19 47/41/19 48/42/19 46/40/19
f 47/41/20 49/43/20 50/44/20 48/42/20
f 49/43/21 51/45/21 52/46/21 50/44/21
f 51/45/22 53/47/22 54/48/22 52/46/22
f 53/47/23 55/49/23 56/50/23 54/48/23
f 55/49/24 57/51/24 58/52/24 56/50/24
f 57/51/25 59/53/25 60/54/25 58/52/25
f 59/53/26 61/13/26 62/55/26 60/54/26
f 61/13/27 63/56/27 64/57/27 62/55/27
f 63/56/28 65/58/28 66/59/28 64/57/28
f 65/58/29 67/60/29 68/61/29 66/59/29
f 67/60/30 69/62/30 70/63/30 68/61/30
f 69/62/31 71/64/31 72/65/31 70/63/31
f 71/64/32 73/66/32 74/67/32 72/65/32
f 73/66/33 75/68/33 76/69/33 74/67/33
f 75/68/34 77/70/34 78/71/34 76/69/34
f 77/70/35 79/72/35 80/73/35 78/71/35
f 79/72/36 81/74/36 82/75/36 80/73/36
f 81/74/37 83/76/37 84/77/37 82/75/37
f 83/76/38 85/78/38 86/79/38 84/77/38
f 85/78/39 87/80/39 88/81/39 86/79/39
f 87/80/40 89/82/40 90/83/40 88/81/40
f 89/82/41 91/84/41 92/85/41 90/83/41
f 91/84/42 29/18/42 32/2/42 92/85/42
f 91/86/3 89/87/3 87/88/3 85/89/3
f 91/86/3 85/89/3 83/90/3 81/91/3
f 91/86/3 81/91/3 79/92/3 77/93/3
f 91/86/3 77/93/3 75/94/3 73/95/3
f 91/86/3 73/95/3 71/96/3 69/97/3
f 91/86/3 69/97/3 67/98/3 65/99/3
f 91/86/3 65/99/3 63/100/3 61/101/3
f 91/86/3 61/101/3 59/102/3 57/103/3
f 91/86/3 57/103/3 55/104/3 53/105/3
f 91/86/3 53/105/3 51/106/3 49/107/3
f 91/86/3 49/107/3 47/108/3 45/109/3
f 91/86/3 45/109/3 43/110/3 41/111/3
f 91/86/3 41/111/3 39/112/3 37/113/3
f 91/86/3 37/113/3 35/114/3 33/115/3
f 91/86/3 33/115/3 30/116/3 29/117/3
o gland_north_minus
usemtl gland
f 93/4/2 94/7/2 95/8/2 96/9/2
f 94/7/7 97/10/7 98/11/7 95/8/7
f 97/10/8 99/12/8 100/13/8 98/11/8
f 99/12/1 101/14/1 102/15/1 100/13/1
f 101/14/9 103/16/9 104/17/9 102/15/9
f 103/16/10 93/3/10 96/18/10 104/17/10
f 103/19/3 101/20/3 99/21/3 97/22/3
f 103/19/3 97/22/3 94/23/3 93/24/3
f 105/9/11 106/25/11 107/26/11 108/1/11
f 106/25/12 109/27/12 110/28/12 107/26/12
f 109/27/13 111/29/13 112/30/13 110/28/13
f 111/29/14 113/31/14 114/32/14 112/30/14
f 113/31/15 115/33/15 116/34/15 114/32/15
f 115/33/16 117/35/16 118/36/16 116/34/16
f 117/35/17 119/37/17 120/38/17 118/36/17
f 119/37/18 121/39/18 122/40/18 120/38/18
f 121/39/19 123/41/19 124/42/19 122/40/19
f 123/41/20 125/43/20 126/44/20 124/42/20
f 125/43/21 127/45/21 128/46/21 126/44/21
f 127/45/22 129/47/22 130/48/22 128/46/22
f 129/47/23 131/49/23 132/50/23 130/48/23
f 131/49/24 133/51/24 134/52/24 132/50/24
f 133/51/25 135/53/25 136/54/25 134/52/25
f 135/53/26 137/13/26 138/55/26 136/54/26
f 137/13/27 139/56/27 140/57/27 138/55/27
f 139/56/28 141/58/28 142/59/28 140/57/28
f 141/58/29 143/60/29 144/61/29 142/59/29
f 143/60/30 145/62/30 146/63/30 144/61/30
f 145/62/31 147/64/31 148/65/31 146/63/31
f 147/64/32 149/66/32 150/67/32 148/65/32
f 149/66/33 151/68/33 152/69/33 150/67/33
f 151/68/34 153/70/34 154/71/34 152/69/34
f 153/70/35 155/72/35 156/73/35 154/71/35
f 155/72/36 157/74/36 158/75/36 156/73/36
f 157/74/37 159/76/37 160/77/37 158/75/37
f 159/76/38 161/78/38 162/79/38 160/77/38
f 161/78/39 163/80/39 164/81/39 162/79/39
f 163/80/40 165/82/40 166/83/40 164/81/40
f 165/82/41 167/84/41 168/85/41 166/83/41
f 167/84/42 105/18/42 108/2/42 168/85/42
f 167/86/3 165/87/3 163/88/3 161/89/3
f 167/86/3 161/89/3 159/90/3 157/91/3
f 167/86/3 157/91/3 155/92/3 153/93/3
f 167/86/3 153/93/3 151/94/3 149/95/3
f 167/86/3 149/95/3 147/96/3 145/97/3
f 167/86/3 145/97/3 143/98/3 141/99/3
f 167/86/3 141/99/3 139/100/3 137/101/3
f 167/86/3 137/101/3 135/102/3 133/103/3
f 167/86/3 133/103/3 131/104/3 129/105/3
f 167/86/3 129/105/3 127/106/3 125/107/3
f 167/86/3 125/107/3 123/108/3 121/109/3
f 167/86/3 121/109/3 119/110/3 117/111/3
f 167/86/3 117/111/3 115/112/3 113/113/3
f 167/86/3 113/113/3 111/114/3 109/115/3
f 167/86/3 109/115/3 106/116/3 105/117/3
o gland_east_plus
usemtl gland
f 169/4/4 170/7/4 171/8/4 172/9/4
f 170/7/43 173/10/43 174/11/43 171/8/43
f 173/10/44 175/12/44 176/13/44 174/11/44
f 175/12/3 177/14/3 178/15/3 176/13/3
f 177/14/45 179/16/45 180/17/45 178/15/45
f 179/16/46 169/3/46 172/18/46 180/17/46
f 172/24/6 171/23/6 174/22/6 176/21/6
f 172/24/6 176/21/6 178/20/6 180/19/6
f 181/9/47 182/25/47 183/26/47 184/1/47
f 182/25/48 185/27/48 186/28/48 183/26/48
f 185/27/49 187/29/49 188/30/49 186/28/49
f 187/29/50 189/31/50 190/32/50 188/30/50
f 189/31/51 191/33/51 192/34/51 190/32/51
f 191/33/52 193/35/52 194/36/52 192/34/52
f 193/35/53 195/37/53 196/38/53 194/36/53
f 195/37/54 197/39/54 198/40/54 196/38/54
f 197/39/55 199/41/55 200/42/55 198/40/55
f 199/41/56 201/43/56 202/44/56 200/42/56
f 201/43/57 203/45/57 204/46/57 202/44/57
f 203/45/58 205/47/58 206/48/58 204/46/58
f 205/47/59 207/49/59 208/50/59 206/48/59
f 207/49/60 209/51/60 210/52/60 208/50/60
f 209/51/61 211/53/61 212/54/61 210/52/61
f 211/53/62 213/13/62 214/55/62 212/54/62
f 213/13/63 215/56/63 216/57/63 214/55/63
f 215/56/64 217/58/64 218/59/64 216/57/64
f 217/58/65 219/60/65 220/61/65 218/59/65
f 219/60/66 221/62/66 222/63/66 220/61/66
f 221/62/67 223/64/67 224/65/67 222/63/67
f 223/64/68 225/66/68 226/67/68 224/65/68
f 225/66/69 227/68/69 228/69/69 226/67/69
f 227/68/70 229/70/70 230/71/70 228/69/70
f 229/70/71 231/72/71 232/73/71 230/71/71
f 231/72/72 233/74/72 234/75/72 232/73/72
f 233/74/73 235/76/73 236/77/73 234/75/73
f 235/76/74 237/78/74 238/79/74 236/77/74
f 237/78/75 239/80/75 240/81/75 238/79/75
f 239/80/76 241/82/76 242/83/76 240/81/76
f 241/82/77 243/84/77 244/85/77 242/83/77
f 243/84/78 181/18/78 184/2/78 244/85/78
f 184/93/6 183/92/6 186/91/6 188/90/6
f 184/93/6 188/90/6 190/89/6 192/88/6
f 184/93/6 192/88/6 194/87/6 196/86/6
f 184/93/6 196/86/6 198/117/6 200/116/6
f 184/93/6 200/116/6 202/115/6 204/114/6
f 184/93/6 204/114/6 206/113/6 208/112/6
f 184/93/6 208/112/6 210/111/6 212/110/6
f 184/93/6 212/110/6 214/109/6 216/108/6
f 184/93/6 216/108/6 218/107/6 220/106/6
f 184/93/6 220/106/6 222/105/6 224/104/6
f 184/93/6 224/104/6 226/103/6 228/102/6
f 184/93/6 228/102/6 230/101/6 232/100/6
f 184/93/6 232/100/6 234/99/6 236/98/6
f 184/93/6 236/98/6 238/97/6 240/96/6
f 184/93/6 240/96/6 242/95/6 244/94/6
o gland_east_minus
usemtl gland
f 245/4/4 246/7/4 247/8/4 248/9/4
f 246/7/43 249/10/43 250/11/43 247/8/43
f 249/10/44 251/12/44 252/13/44 250/11/44
f 251/12/3 253/14/3 254/15/3 252/13/3
f 253/14/45 255/16/45 256/17/45 254/15/45
f 255/16/46 245/3/46 248/18/46 256/17/46
f 248/24/6 247/23/6 250/22/6 252/21/6
f 248/24/6 252/21/6 254/20/6 256/19/6
f 257/9/47 258/25/47 259/26/47 260/1/47
f 258/25/48 261/27/48 262/28/48 259/26/48
f 261/27/49 263/29/49 264/30/49 262/28/49
f 263/29/50 265/31/50 266/32/50 264/30/50
f 265/31/51 267/33/51 268/34/51 266/32/51
f 267/33/52 269/35/52 270/36/52 268/34/52
f 269/35/53 271/37/53 272/38/53 270/36/53
f 271/37/54 273/39/54 274/40/54 272/38/54
f 273/39/55 275/41/55 276/42/55 274/40/55
f 275/41/56 277/43/56 278/44/56 276/42/56
f 277/43/57 279/45/57 280/46/57 278/44/57
f 279/45/58 281/47/58 282/48/58 280/46/58
f 281/47/59 283/49/59 284/50/59 282/48/59
f 283/49/60 285/51/60 286/52/60 284/50/60
f 285/51/61 287/53/61 288/54/61 286/52/61
f 287/53/62 289/13/62 290/55/62 288/54/62
f 289/13/63 291/56/63 292/57/63 290/55/63
f 291/56/64 293/58/64 294/59/64 292/57/64
f 293/58/65 295/60/65 296/61/65 294/59/65
f 295/60/66 297/62/66 298/63/66 296/61/66
f 297/62/67 299/64/67 300/65/67 298/63/67
f 299/64/68 301/66/68 302/67/68 300/65/68
f 301/66/69 303/68/69 304/69/69 302/67/69
f 303/68/70 305/70/70 306/71/70 304/69/70
f 305/70/71 307/72/71 308/73/71 306/71/71
f 307/72/72 309/74/72 310/75/72 308/73/72
f 309/74/73 311/76/73 312/77/73 310/75/73
f 311/76/74 313/78/74 314/79/74 312/77/74
f 313/78/75 315/80/75 316/81/75 314/79/75
f 315/80/76 317/82/76 318/83/76 316/81/76
f 317/82/77 319/84/77 320/85/77 318/83/77
f 319/84/78 257/18/78 260/2/78 320/85/78
f 260/93/6 259/92/6 262/91/6 264/90/6
f 260/93/6 264/90/6 266/89/6 268/88/6
f 260/93/6 268/88/6 270/87/6 272/86/6
f 260/93/6 272/86/6 274/117/6 276/116/6
f 260/93/6 276/116/6 278/115/6 280/114/6
f 260/93/6 280/114/6 282/113/6 284/112/6
f 260/93/6 284/112/6 286/111/6 288/110/6
f 260/93/6 288/110/6 290/109/6 292/108/6
f 260/93/6 292/108/6 294/107/6 296/106/6
f 260/93/6 296/106/6 298/105/6 300/104/6
f 260/93/6 300/104/6 302/103/6 304/102/6
f 260/93/6 304/102/6 306/101/6 308/100/6
f 260/93/6 308/100/6 310/99/6 312/98/6
f 260/93/6 312/98/6 314/97/6 316/96/6
f 260/93/6 316/96/6 318/95/6 320/94/6
o gland_south_plus
usemtl gland
f 321/4/2 322/7/2 323/8/2 324/9/2
f 322/7/7 325/10/7 326/11/7 323/8/7
f 325/10/8 327/12/8 328/13/8 326/11/8
f 327/12/1 329/14/1 330/15/1 328/13/1
f 329/14/9 331/16/9 332/17/9 330/15/9
f 331/16/10 321/3/10 324/18/10 332/17/10
f 324/24/4 323/23/4 326/22/4 328/21/4
f 324/24/4 328/21/4 330/20/4 332/19/4
f 333/9/79 334/25/79 335/26/79 336/1/79
f 334/25/80 337/27/80 338/28/80 335/26/80
f 337/27/81 339/29/81 340/30/81 338/28/81
f 339/29/82 341/31/82 342/32/82 340/30/82
f 341/31/83 343/33/83 344/34/83 342/32/83
f 343/33/84 345/35/84 346/36/84 344/34/84
f 345/35/85 347/37/85 348/38/85 346/36/85
f 347/37/86 349/39/86 350/40/86 348/38/86
f 349/39/87 351/41/87 352/42/87 350/40/87
f 351/41/88 353/43/88 354/44/88 352/42/88
f 353/43/89 355/45/89 356/46/89 354/44/89
f 355/45/90 357/47/90 358/48/90 356/46/90
f 357/47/91 359/49/91 360/50/91 358/48/91
f 359/49/92 361/51/92 362/52/92 360/50/92
f 361/51/93 363/53/93 364/54/93 362/52/93
f 363/53/94 365/13/94 366/55/94 364/54/94
f 365/13/95 367/56/95 368/57/95 366/55/95
f 367/56/96 369/58/96 370/59/96 368/57/96
f 369/58/97 371/60/97 372/61/97 370/59/97
f 371/60/98 373/62/98 374/63/98 372/61/98
f 373/62/99 375/64/99 376/65/99 374/63/99
f 375/64/100 377/66/100 378/67/100 376/65/100
f 377/66/101 379/68/101 380/69/101 378/67/101
f 379/68/102 381/70/102 382/71/102 380/69/102
f 381/70/103 383/72/103 384/73/103 382/71/103
f 383/72/104 385/74/104 386/75/104 384/73/104
f 385/74/105 387/76/105 388/77/105 386/75/105
f 387/76/106 389/78/106 390/79/106 388/77/106
f 389/78/107 391/80/107 392/81/107 390/79/107
f 391/80/108 393/82/108 394/83/108 392/81/108
f 393/82/109 395/84/109 396/85/109 394/83/109
f 395/84/110 333/18/110 336/2/110 396/85/110
f 336/117/4 335/116/4 338/115/4 340/114/4
f 336/117/4 340/114/4 342/113/4 344/112/4
f 336/117/4 344/112/4 346/111/4 348/110/4
f 336/117/4 348/110/4 350/109/4 352/108/4
f 336/117/4 352/108/4 354/107/4 356/106/4
f 336/117/4 356/106/4 358/105/4 360/104/4
f 336/117/4 360/104/4 362/103/4 364/102/4
f 336/117/4 364/102/4 366/101/4 368/100/4
f 336/117/4 368/100/4 370/99/4 372/98/4
f 336/117/4 372/98/4 374/97/4 376/96/4
f 336/117/4 376/96/4 378/95/4 380/94/4
f 336/117/4 380/94/4 382/93/4 384/92/4
f 336/117/4 384/92/4 386/91/4 388/90/4
f 336/117/4 388/90/4 390/89/4 392/88/4
f 336/117/4 392/88/4 394/87/4 396/86/4
o gland_south_minus
usemtl gland
f 397/4/2 398/7/2 399/8/2 400/9/2
f 398/7/7 401/10/7 402/11/7 399/8/7
f 401/10/8 403/12/8 404/13/8 402/11/8
f 403/12/1 405/14/1 406/15/1 404/13/1
f 405/14/9 407/16/9 408/17/9 406/15/9
f 407/16/10 397/3/10 400/18/10 408/17/10
f 400/24/4 399/23/4 402/22/4 404/21/4
f 400/24/4 404/21/4 406/20/4 408/19/4
f 409/9/79 410/25/79 411/26/79 412/1/79
f 410/25/80 413/27/80 414/28/80 411/26/80
f 413/27/81 415/29/81 416/30/81 414/28/81
f 415/29/82 417/31/82 418/32/82 416/30/82
f 417/31/83 419/33/83 420/34/83 418/32/83
f 419/33/84 421/35/84 422/36/84 420/34/84
f 421/35/85 423/37/85 424/38/85 422/36/85
f 423/37/86 425/39/86 426/40/86 424/38/86
f 425/39/87 427/41/87 428/42/87 426/40/87
f 427/41/88 429/43/88 430/44/88 428/42/88
f 429/43/89 431/45/89 432/46/89 430/44/89
f 431/45/90 433/47/90 434/48/90 432/46/90
f 433/47/91 435/49/91 436/50/91 434/48/91
f 435/49/92 437/51/92 438/52/92 436/50/92
f 437/51/93 439/53/93 440/54/93 438/52/93
f 439/53/94 441/13/94 442/55/94 440/54/94
f 441/13/95 443/56/95 444/57/95 442/55/95
f 443/56/96 445/58/96 446/59/96 444/57/96
f 445/58/97 447/60/97 448/61/97 446/59/97
f 447/60/98 449/62/98 450/63/98 448/61/98
f 449/62/99 451/64/99 452/65/99 450/63/99
f 451/64/100 453/66/100 454/67/100 452/65/100
f 453/66/101 455/68/101 456/69/101 454/67/101
f 455/68/102 457/70/102 458/71/102 456/69/102
f 457/70/103 459/72/103 460/73/103 458/71/103
f 459/72/104 461/74/104 462/75/104 460/73/104
f 461/74/105 463/76/105 464/77/105 462/75/105
f 463/76/106 465/78/106 466/79/106 464/77/106
f 465/78/107 467/80/107 468/81/107 466/79/107
f 467/80/108 469/82/108 470/83/108 468/81/108
f 469/82/109 471/84/109 472/85/109 470/83/109
f 471/84/110 409/18/110 412/2/110 472/85/110
f 412/117/4 411/116/4 414/115/4 416/114/4
f 412/117/4 416/114/4 418/113/4 420/112/4
f 412/117/4 420/112/4 422/111/4 424/110/4
f 412/117/4 424/110/4 426/109/4 428/108/4
f 412/117/4 428/108/4 430/107/4 432/106/4
f 412/117/4 432/106/4 434/105/4 436/104/4
f 412/117/4 436/104/4 438/103/4 440/102/4
f 412/117/4 440/102/4 442/101/4 444/100/4
f 412/117/4 444/100/4 446/99/4 448/98/4
f 412/117/4 448/98/4 450/97/4 452/96/4
f 412/117/4 452/96/4 454/95/4 456/94/4
f 412/117/4 456/94/4 458/93/4 460/92/4
f 412/117/4 460/92/4 462/91/4 464/90/4
f 412/117/4 464/90/4 466/89/4 468/88/4
f 412/117/4 468/88/4 470/87/4 472/86/4
