# generated by tools/gen_trunk_models.py - do not edit by hand
mtllib dc_trunk_cable_line.mtl
v 0.371875 0.225000 0.181250
v 0.354805 0.223319 0.181250
v 0.347481 0.260135 0.237500
v 0.371875 0.262537 0.237500
v 0.338390 0.218339 0.181250
v 0.324025 0.253020 0.237500
v 0.323263 0.210254 0.181250
v 0.302408 0.241465 0.237500
v 0.310003 0.199372 0.181250
v 0.283460 0.225915 0.237500
v 0.299121 0.186112 0.181250
v 0.267910 0.206967 0.237500
v 0.291036 0.170985 0.181250
v 0.256355 0.185350 0.237500
v 0.286056 0.154570 0.181250
v 0.249240 0.161894 0.237500
v 0.284375 0.137500 0.181250
v 0.246838 0.137500 0.237500
v 0.286056 0.120430 0.181250
v 0.249240 0.113106 0.237500
v 0.291036 0.104015 0.181250
v 0.256355 0.089650 0.237500
v 0.299121 0.088888 0.181250
v 0.267910 0.068033 0.237500
v 0.310003 0.075628 0.181250
v 0.283460 0.049085 0.237500
v 0.323263 0.064746 0.181250
v 0.302408 0.033535 0.237500
v 0.338390 0.056661 0.181250
v 0.324025 0.021980 0.237500
v 0.354805 0.051681 0.181250
v 0.347481 0.014865 0.237500
v 0.371875 0.050000 0.181250
v 0.371875 0.012463 0.237500
v 0.388945 0.051681 0.181250
v 0.396269 0.014865 0.237500
v 0.405360 0.056661 0.181250
v 0.419725 0.021980 0.237500
v 0.420487 0.064746 0.181250
v 0.441342 0.033535 0.237500
v 0.433747 0.075628 0.181250
v 0.460290 0.049085 0.237500
v 0.444629 0.088888 0.181250
v 0.475840 0.068033 0.237500
v 0.452714 0.104015 0.181250
v 0.487395 0.089650 0.237500
v 0.457694 0.120430 0.181250
v 0.494510 0.113106 0.237500
v 0.459375 0.137500 0.181250
v 0.496912 0.137500 0.237500
v 0.457694 0.154570 0.181250
v 0.494510 0.161894 0.237500
v 0.452714 0.170985 0.181250
v 0.487395 0.185350 0.237500
v 0.444629 0.186112 0.181250
v 0.475840 0.206967 0.237500
v 0.433747 0.199372 0.181250
v 0.460290 0.225915 0.237500
v 0.420487 0.210254 0.181250
v 0.441342 0.241465 0.237500
v 0.405360 0.218339 0.181250
v 0.419725 0.253020 0.237500
v 0.388945 0.223319 0.181250
v 0.396269 0.260135 0.237500
v 0.371875 0.265625 0.237500
v 0.346879 0.263163 0.237500
v 0.346879 0.263163 0.275000
v 0.371875 0.265625 0.275000
v 0.322844 0.255872 0.237500
v 0.322844 0.255872 0.275000
v 0.300693 0.244032 0.237500
v 0.300693 0.244032 0.275000
v 0.281277 0.228098 0.237500
v 0.281277 0.228098 0.275000
v 0.265343 0.208682 0.237500
v 0.265343 0.208682 0.275000
v 0.253503 0.186531 0.237500
v 0.253503 0.186531 0.275000
v 0.246212 0.162496 0.237500
v 0.246212 0.162496 0.275000
v 0.243750 0.137500 0.237500
v 0.243750 0.137500 0.275000
v 0.246212 0.112504 0.237500
v 0.246212 0.112504 0.275000
v 0.253503 0.088469 0.237500
v 0.253503 0.088469 0.275000
v 0.265343 0.066318 0.237500
v 0.265343 0.066318 0.275000
v 0.281277 0.046902 0.237500
v 0.281277 0.046902 0.275000
v 0.300693 0.030968 0.237500
v 0.300693 0.030968 0.275000
v 0.322844 0.019128 0.237500
v 0.322844 0.019128 0.275000
v 0.346879 0.011837 0.237500
v 0.346879 0.011837 0.275000
v 0.371875 0.009375 0.237500
v 0.371875 0.009375 0.275000
v 0.396871 0.011837 0.237500
v 0.396871 0.011837 0.275000
v 0.420906 0.019128 0.237500
v 0.420906 0.019128 0.275000
v 0.443057 0.030968 0.237500
v 0.443057 0.030968 0.275000
v 0.462473 0.046902 0.237500
v 0.462473 0.046902 0.275000
v 0.478407 0.066318 0.237500
v 0.478407 0.066318 0.275000
v 0.490247 0.088469 0.237500
v 0.490247 0.088469 0.275000
v 0.497538 0.112504 0.237500
v 0.497538 0.112504 0.275000
v 0.500000 0.137500 0.237500
v 0.500000 0.137500 0.275000
v 0.497538 0.162496 0.237500
v 0.497538 0.162496 0.275000
v 0.490247 0.186531 0.237500
v 0.490247 0.186531 0.275000
v 0.478407 0.208682 0.237500
v 0.478407 0.208682 0.275000
v 0.462473 0.228098 0.237500
v 0.462473 0.228098 0.275000
v 0.443057 0.244032 0.237500
v 0.443057 0.244032 0.275000
v 0.420906 0.255872 0.237500
v 0.420906 0.255872 0.275000
v 0.396871 0.263163 0.237500
v 0.396871 0.263163 0.275000
v 0.371875 0.275000 0.275000
v 0.345050 0.272358 0.275000
v 0.345050 0.272358 0.406250
v 0.371875 0.275000 0.406250
v 0.319256 0.264533 0.275000
v 0.319256 0.264533 0.406250
v 0.295484 0.251827 0.275000
v 0.295484 0.251827 0.406250
v 0.274648 0.234727 0.275000
v 0.274648 0.234727 0.406250
v 0.257548 0.213891 0.275000
v 0.257548 0.213891 0.406250
v 0.244842 0.190119 0.275000
v 0.244842 0.190119 0.406250
v 0.237017 0.164325 0.275000
v 0.237017 0.164325 0.406250
v 0.234375 0.137500 0.275000
v 0.234375 0.137500 0.406250
v 0.237017 0.110675 0.275000
v 0.237017 0.110675 0.406250
v 0.244842 0.084881 0.275000
v 0.244842 0.084881 0.406250
v 0.257548 0.061109 0.275000
v 0.257548 0.061109 0.406250
v 0.274648 0.040273 0.275000
v 0.274648 0.040273 0.406250
v 0.295484 0.023173 0.275000
v 0.295484 0.023173 0.406250
v 0.319256 0.010467 0.275000
v 0.319256 0.010467 0.406250
v 0.345050 0.002642 0.275000
v 0.345050 0.002642 0.406250
v 0.371875 0.000000 0.275000
v 0.371875 0.000000 0.406250
v 0.398700 0.002642 0.275000
v 0.398700 0.002642 0.406250
v 0.424494 0.010467 0.275000
v 0.424494 0.010467 0.406250
v 0.448266 0.023173 0.275000
v 0.448266 0.023173 0.406250
v 0.469102 0.040273 0.275000
v 0.469102 0.040273 0.406250
v 0.486202 0.061109 0.275000
v 0.486202 0.061109 0.406250
v 0.498908 0.084881 0.275000
v 0.498908 0.084881 0.406250
v 0.506733 0.110675 0.275000
v 0.506733 0.110675 0.406250
v 0.509375 0.137500 0.275000
v 0.509375 0.137500 0.406250
v 0.506733 0.164325 0.275000
v 0.506733 0.164325 0.406250
v 0.498908 0.190119 0.275000
v 0.498908 0.190119 0.406250
v 0.486202 0.213891 0.275000
v 0.486202 0.213891 0.406250
v 0.469102 0.234727 0.275000
v 0.469102 0.234727 0.406250
v 0.448266 0.251827 0.275000
v 0.448266 0.251827 0.406250
v 0.424494 0.264533 0.275000
v 0.424494 0.264533 0.406250
v 0.398700 0.272358 0.275000
v 0.398700 0.272358 0.406250
v 0.371875 0.265625 0.406250
v 0.346879 0.263163 0.406250
v 0.346879 0.263163 0.443750
v 0.371875 0.265625 0.443750
v 0.322844 0.255872 0.406250
v 0.322844 0.255872 0.443750
v 0.300693 0.244032 0.406250
v 0.300693 0.244032 0.443750
v 0.281277 0.228098 0.406250
v 0.281277 0.228098 0.443750
v 0.265343 0.208682 0.406250
v 0.265343 0.208682 0.443750
v 0.253503 0.186531 0.406250
v 0.253503 0.186531 0.443750
v 0.246212 0.162496 0.406250
v 0.246212 0.162496 0.443750
v 0.243750 0.137500 0.406250
v 0.243750 0.137500 0.443750
v 0.246212 0.112504 0.406250
v 0.246212 0.112504 0.443750
v 0.253503 0.088469 0.406250
v 0.253503 0.088469 0.443750
v 0.265343 0.066318 0.406250
v 0.265343 0.066318 0.443750
v 0.281277 0.046902 0.406250
v 0.281277 0.046902 0.443750
v 0.300693 0.030968 0.406250
v 0.300693 0.030968 0.443750
v 0.322844 0.019128 0.406250
v 0.322844 0.019128 0.443750
v 0.346879 0.011837 0.406250
v 0.346879 0.011837 0.443750
v 0.371875 0.009375 0.406250
v 0.371875 0.009375 0.443750
v 0.396871 0.011837 0.406250
v 0.396871 0.011837 0.443750
v 0.420906 0.019128 0.406250
v 0.420906 0.019128 0.443750
v 0.443057 0.030968 0.406250
v 0.443057 0.030968 0.443750
v 0.462473 0.046902 0.406250
v 0.462473 0.046902 0.443750
v 0.478407 0.066318 0.406250
v 0.478407 0.066318 0.443750
v 0.490247 0.088469 0.406250
v 0.490247 0.088469 0.443750
v 0.497538 0.112504 0.406250
v 0.497538 0.112504 0.443750
v 0.500000 0.137500 0.406250
v 0.500000 0.137500 0.443750
v 0.497538 0.162496 0.406250
v 0.497538 0.162496 0.443750
v 0.490247 0.186531 0.406250
v 0.490247 0.186531 0.443750
v 0.478407 0.208682 0.406250
v 0.478407 0.208682 0.443750
v 0.462473 0.228098 0.406250
v 0.462473 0.228098 0.443750
v 0.443057 0.244032 0.406250
v 0.443057 0.244032 0.443750
v 0.420906 0.255872 0.406250
v 0.420906 0.255872 0.443750
v 0.396871 0.263163 0.406250
v 0.396871 0.263163 0.443750
v 0.371875 0.262500 0.443750
v 0.347489 0.260098 0.443750
v 0.354805 0.223319 0.500000
v 0.371875 0.225000 0.500000
v 0.324040 0.252985 0.443750
v 0.338390 0.218339 0.500000
v 0.302429 0.241434 0.443750
v 0.323263 0.210254 0.500000
v 0.283487 0.225888 0.443750
v 0.310003 0.199372 0.500000
v 0.267941 0.206946 0.443750
v 0.299121 0.186112 0.500000
v 0.256390 0.185335 0.443750
v 0.291036 0.170985 0.500000
v 0.249277 0.161886 0.443750
v 0.286056 0.154570 0.500000
v 0.246875 0.137500 0.443750
v 0.284375 0.137500 0.500000
v 0.249277 0.113114 0.443750
v 0.286056 0.120430 0.500000
v 0.256390 0.089665 0.443750
v 0.291036 0.104015 0.500000
v 0.267941 0.068054 0.443750
v 0.299121 0.088888 0.500000
v 0.283487 0.049112 0.443750
v 0.310003 0.075628 0.500000
v 0.302429 0.033566 0.443750
v 0.323263 0.064746 0.500000
v 0.324040 0.022015 0.443750
v 0.338390 0.056661 0.500000
v 0.347489 0.014902 0.443750
v 0.354805 0.051681 0.500000
v 0.371875 0.012500 0.443750
v 0.371875 0.050000 0.500000
v 0.396261 0.014902 0.443750
v 0.388945 0.051681 0.500000
v 0.419710 0.022015 0.443750
v 0.405360 0.056661 0.500000
v 0.441321 0.033566 0.443750
v 0.420487 0.064746 0.500000
v 0.460263 0.049112 0.443750
v 0.433747 0.075628 0.500000
v 0.475809 0.068054 0.443750
v 0.444629 0.088888 0.500000
v 0.487360 0.089665 0.443750
v 0.452714 0.104015 0.500000
v 0.494473 0.113114 0.443750
v 0.457694 0.120430 0.500000
v 0.496875 0.137500 0.443750
v 0.459375 0.137500 0.500000
v 0.494473 0.161886 0.443750
v 0.457694 0.154570 0.500000
v 0.487360 0.185335 0.443750
v 0.452714 0.170985 0.500000
v 0.475809 0.206946 0.443750
v 0.444629 0.186112 0.500000
v 0.460263 0.225888 0.443750
v 0.433747 0.199372 0.500000
v 0.441321 0.241434 0.443750
v 0.420487 0.210254 0.500000
v 0.419710 0.252985 0.443750
v 0.405360 0.218339 0.500000
v 0.396261 0.260098 0.443750
v 0.388945 0.223319 0.500000
v 0.371875 0.130398 0.098737
v 0.354805 0.129574 0.100203
v 0.354805 0.179574 0.128328
v 0.371875 0.180398 0.126862
v 0.338390 0.127132 0.104542
v 0.338390 0.177132 0.132667
v 0.323263 0.123168 0.111590
v 0.323263 0.173168 0.139715
v 0.310003 0.117833 0.121074
v 0.310003 0.167833 0.149199
v 0.299121 0.111333 0.132631
v 0.299121 0.161333 0.160756
v 0.291036 0.103916 0.145815
v 0.291036 0.153916 0.173940
v 0.286056 0.095869 0.160122
v 0.286056 0.145869 0.188247
v 0.284375 0.087500 0.175000
v 0.284375 0.137500 0.203125
v 0.286056 0.079131 0.189878
v 0.286056 0.129131 0.218003
v 0.291036 0.071084 0.204185
v 0.291036 0.121084 0.232310
v 0.299121 0.063667 0.217369
v 0.299121 0.113667 0.245494
v 0.310003 0.057167 0.228926
v 0.310003 0.107167 0.257051
v 0.323263 0.051832 0.238410
v 0.323263 0.101832 0.266535
v 0.338390 0.047868 0.245458
v 0.338390 0.097868 0.273583
v 0.354805 0.045426 0.249797
v 0.354805 0.095426 0.277922
v 0.371875 0.044602 0.251263
v 0.371875 0.094602 0.279388
v 0.388945 0.045426 0.249797
v 0.388945 0.095426 0.277922
v 0.405360 0.047868 0.245458
v 0.405360 0.097868 0.273583
v 0.420487 0.051832 0.238410
v 0.420487 0.101832 0.266535
v 0.433747 0.057167 0.228926
v 0.433747 0.107167 0.257051
v 0.444629 0.063667 0.217369
v 0.444629 0.113667 0.245494
v 0.452714 0.071084 0.204185
v 0.452714 0.121084 0.232310
v 0.457694 0.079131 0.189878
v 0.457694 0.129131 0.218003
v 0.459375 0.087500 0.175000
v 0.459375 0.137500 0.203125
v 0.457694 0.095869 0.160122
v 0.457694 0.145869 0.188247
v 0.452714 0.103916 0.145815
v 0.452714 0.153916 0.173940
v 0.444629 0.111333 0.132631
v 0.444629 0.161333 0.160756
v 0.433747 0.117833 0.121074
v 0.433747 0.167833 0.149199
v 0.420487 0.123168 0.111590
v 0.420487 0.173168 0.139715
v 0.405360 0.127132 0.104542
v 0.405360 0.177132 0.132667
v 0.388945 0.129574 0.100203
v 0.388945 0.179574 0.128328
v 0.371875 0.224105 0.490609
v 0.354805 0.222441 0.490369
v 0.354805 0.172441 0.837244
v 0.371875 0.174105 0.837484
v 0.338390 0.217513 0.489658
v 0.338390 0.167513 0.836533
v 0.323263 0.209509 0.488505
v 0.323263 0.159509 0.835380
v 0.310003 0.198739 0.486952
v 0.310003 0.148739 0.833827
v 0.299121 0.185615 0.485061
v 0.299121 0.135615 0.831936
v 0.291036 0.170642 0.482902
v 0.291036 0.120642 0.829777
v 0.286056 0.154396 0.480560
v 0.286056 0.104396 0.827435
v 0.284375 0.137500 0.478125
v 0.284375 0.087500 0.825000
v 0.286056 0.120604 0.475690
v 0.286056 0.070604 0.822565
v 0.291036 0.104358 0.473348
v 0.291036 0.054358 0.820223
v 0.299121 0.089385 0.471189
v 0.299121 0.039385 0.818064
v 0.310003 0.076261 0.469298
v 0.310003 0.026261 0.816173
v 0.323263 0.065491 0.467745
v 0.323263 0.015491 0.814620
v 0.338390 0.057487 0.466592
v 0.338390 0.007487 0.813467
v 0.354805 0.052559 0.465881
v 0.354805 0.002559 0.812756
v 0.371875 0.050895 0.465641
v 0.371875 0.000895 0.812516
v 0.388945 0.052559 0.465881
v 0.388945 0.002559 0.812756
v 0.405360 0.057487 0.466592
v 0.405360 0.007487 0.813467
v 0.420487 0.065491 0.467745
v 0.420487 0.015491 0.814620
v 0.433747 0.076261 0.469298
v 0.433747 0.026261 0.816173
v 0.444629 0.089385 0.471189
v 0.444629 0.039385 0.818064
v 0.452714 0.104358 0.473348
v 0.452714 0.054358 0.820223
v 0.457694 0.120604 0.475690
v 0.457694 0.070604 0.822565
v 0.459375 0.137500 0.478125
v 0.459375 0.087500 0.825000
v 0.457694 0.154396 0.480560
v 0.457694 0.104396 0.827435
v 0.452714 0.170642 0.482902
v 0.452714 0.120642 0.829777
v 0.444629 0.185615 0.485061
v 0.444629 0.135615 0.831936
v 0.433747 0.198739 0.486952
v 0.433747 0.148739 0.833827
v 0.420487 0.209509 0.488505
v 0.420487 0.159509 0.835380
v 0.405360 0.217513 0.489658
v 0.405360 0.167513 0.836533
v 0.388945 0.222441 0.490369
v 0.388945 0.172441 0.837244
v 0.628125 0.225000 0.506250
v 0.611055 0.223319 0.506250
v 0.603731 0.260135 0.562500
v 0.628125 0.262537 0.562500
v 0.594640 0.218339 0.506250
v 0.580275 0.253020 0.562500
v 0.579513 0.210254 0.506250
v 0.558658 0.241465 0.562500
v 0.566253 0.199372 0.506250
v 0.539710 0.225915 0.562500
v 0.555371 0.186112 0.506250
v 0.524160 0.206967 0.562500
v 0.547286 0.170985 0.506250
v 0.512605 0.185350 0.562500
v 0.542306 0.154570 0.506250
v 0.505490 0.161894 0.562500
v 0.540625 0.137500 0.506250
v 0.503088 0.137500 0.562500
v 0.542306 0.120430 0.506250
v 0.505490 0.113106 0.562500
v 0.547286 0.104015 0.506250
v 0.512605 0.089650 0.562500
v 0.555371 0.088888 0.506250
v 0.524160 0.068033 0.562500
v 0.566253 0.075628 0.506250
v 0.539710 0.049085 0.562500
v 0.579513 0.064746 0.506250
v 0.558658 0.033535 0.562500
v 0.594640 0.056661 0.506250
v 0.580275 0.021980 0.562500
v 0.611055 0.051681 0.506250
v 0.603731 0.014865 0.562500
v 0.628125 0.050000 0.506250
v 0.628125 0.012463 0.562500
v 0.645195 0.051681 0.506250
v 0.652519 0.014865 0.562500
v 0.661610 0.056661 0.506250
v 0.675975 0.021980 0.562500
v 0.676737 0.064746 0.506250
v 0.697592 0.033535 0.562500
v 0.689997 0.075628 0.506250
v 0.716540 0.049085 0.562500
v 0.700879 0.088888 0.506250
v 0.732090 0.068033 0.562500
v 0.708964 0.104015 0.506250
v 0.743645 0.089650 0.562500
v 0.713944 0.120430 0.506250
v 0.750760 0.113106 0.562500
v 0.715625 0.137500 0.506250
v 0.753163 0.137500 0.562500
v 0.713944 0.154570 0.506250
v 0.750760 0.161894 0.562500
v 0.708964 0.170985 0.506250
v 0.743645 0.185350 0.562500
v 0.700879 0.186112 0.506250
v 0.732090 0.206967 0.562500
v 0.689997 0.199372 0.506250
v 0.716540 0.225915 0.562500
v 0.676737 0.210254 0.506250
v 0.697592 0.241465 0.562500
v 0.661610 0.218339 0.506250
v 0.675975 0.253020 0.562500
v 0.645195 0.223319 0.506250
v 0.652519 0.260135 0.562500
v 0.628125 0.265625 0.562500
v 0.603129 0.263163 0.562500
v 0.603129 0.263163 0.600000
v 0.628125 0.265625 0.600000
v 0.579094 0.255872 0.562500
v 0.579094 0.255872 0.600000
v 0.556943 0.244032 0.562500
v 0.556943 0.244032 0.600000
v 0.537527 0.228098 0.562500
v 0.537527 0.228098 0.600000
v 0.521593 0.208682 0.562500
v 0.521593 0.208682 0.600000
v 0.509753 0.186531 0.562500
v 0.509753 0.186531 0.600000
v 0.502462 0.162496 0.562500
v 0.502462 0.162496 0.600000
v 0.500000 0.137500 0.562500
v 0.500000 0.137500 0.600000
v 0.502462 0.112504 0.562500
v 0.502462 0.112504 0.600000
v 0.509753 0.088469 0.562500
v 0.509753 0.088469 0.600000
v 0.521593 0.066318 0.562500
v 0.521593 0.066318 0.600000
v 0.537527 0.046902 0.562500
v 0.537527 0.046902 0.600000
v 0.556943 0.030968 0.562500
v 0.556943 0.030968 0.600000
v 0.579094 0.019128 0.562500
v 0.579094 0.019128 0.600000
v 0.603129 0.011837 0.562500
v 0.603129 0.011837 0.600000
v 0.628125 0.009375 0.562500
v 0.628125 0.009375 0.600000
v 0.653121 0.011837 0.562500
v 0.653121 0.011837 0.600000
v 0.677156 0.019128 0.562500
v 0.677156 0.019128 0.600000
v 0.699307 0.030968 0.562500
v 0.699307 0.030968 0.600000
v 0.718723 0.046902 0.562500
v 0.718723 0.046902 0.600000
v 0.734657 0.066318 0.562500
v 0.734657 0.066318 0.600000
v 0.746497 0.088469 0.562500
v 0.746497 0.088469 0.600000
v 0.753788 0.112504 0.562500
v 0.753788 0.112504 0.600000
v 0.756250 0.137500 0.562500
v 0.756250 0.137500 0.600000
v 0.753788 0.162496 0.562500
v 0.753788 0.162496 0.600000
v 0.746497 0.186531 0.562500
v 0.746497 0.186531 0.600000
v 0.734657 0.208682 0.562500
v 0.734657 0.208682 0.600000
v 0.718723 0.228098 0.562500
v 0.718723 0.228098 0.600000
v 0.699307 0.244032 0.562500
v 0.699307 0.244032 0.600000
v 0.677156 0.255872 0.562500
v 0.677156 0.255872 0.600000
v 0.653121 0.263163 0.562500
v 0.653121 0.263163 0.600000
v 0.628125 0.275000 0.600000
v 0.601300 0.272358 0.600000
v 0.601300 0.272358 0.731250
v 0.628125 0.275000 0.731250
v 0.575506 0.264533 0.600000
v 0.575506 0.264533 0.731250
v 0.551734 0.251827 0.600000
v 0.551734 0.251827 0.731250
v 0.530898 0.234727 0.600000
v 0.530898 0.234727 0.731250
v 0.513798 0.213891 0.600000
v 0.513798 0.213891 0.731250
v 0.501092 0.190119 0.600000
v 0.501092 0.190119 0.731250
v 0.493267 0.164325 0.600000
v 0.493267 0.164325 0.731250
v 0.490625 0.137500 0.600000
v 0.490625 0.137500 0.731250
v 0.493267 0.110675 0.600000
v 0.493267 0.110675 0.731250
v 0.501092 0.084881 0.600000
v 0.501092 0.084881 0.731250
v 0.513798 0.061109 0.600000
v 0.513798 0.061109 0.731250
v 0.530898 0.040273 0.600000
v 0.530898 0.040273 0.731250
v 0.551734 0.023173 0.600000
v 0.551734 0.023173 0.731250
v 0.575506 0.010467 0.600000
v 0.575506 0.010467 0.731250
v 0.601300 0.002642 0.600000
v 0.601300 0.002642 0.731250
v 0.628125 0.000000 0.600000
v 0.628125 0.000000 0.731250
v 0.654950 0.002642 0.600000
v 0.654950 0.002642 0.731250
v 0.680744 0.010467 0.600000
v 0.680744 0.010467 0.731250
v 0.704516 0.023173 0.600000
v 0.704516 0.023173 0.731250
v 0.725352 0.040273 0.600000
v 0.725352 0.040273 0.731250
v 0.742452 0.061109 0.600000
v 0.742452 0.061109 0.731250
v 0.755158 0.084881 0.600000
v 0.755158 0.084881 0.731250
v 0.762983 0.110675 0.600000
v 0.762983 0.110675 0.731250
v 0.765625 0.137500 0.600000
v 0.765625 0.137500 0.731250
v 0.762983 0.164325 0.600000
v 0.762983 0.164325 0.731250
v 0.755158 0.190119 0.600000
v 0.755158 0.190119 0.731250
v 0.742452 0.213891 0.600000
v 0.742452 0.213891 0.731250
v 0.725352 0.234727 0.600000
v 0.725352 0.234727 0.731250
v 0.704516 0.251827 0.600000
v 0.704516 0.251827 0.731250
v 0.680744 0.264533 0.600000
v 0.680744 0.264533 0.731250
v 0.654950 0.272358 0.600000
v 0.654950 0.272358 0.731250
v 0.628125 0.265625 0.731250
v 0.603129 0.263163 0.731250
v 0.603129 0.263163 0.768750
v 0.628125 0.265625 0.768750
v 0.579094 0.255872 0.731250
v 0.579094 0.255872 0.768750
v 0.556943 0.244032 0.731250
v 0.556943 0.244032 0.768750
v 0.537527 0.228098 0.731250
v 0.537527 0.228098 0.768750
v 0.521593 0.208682 0.731250
v 0.521593 0.208682 0.768750
v 0.509753 0.186531 0.731250
v 0.509753 0.186531 0.768750
v 0.502462 0.162496 0.731250
v 0.502462 0.162496 0.768750
v 0.500000 0.137500 0.731250
v 0.500000 0.137500 0.768750
v 0.502462 0.112504 0.731250
v 0.502462 0.112504 0.768750
v 0.509753 0.088469 0.731250
v 0.509753 0.088469 0.768750
v 0.521593 0.066318 0.731250
v 0.521593 0.066318 0.768750
v 0.537527 0.046902 0.731250
v 0.537527 0.046902 0.768750
v 0.556943 0.030968 0.731250
v 0.556943 0.030968 0.768750
v 0.579094 0.019128 0.731250
v 0.579094 0.019128 0.768750
v 0.603129 0.011837 0.731250
v 0.603129 0.011837 0.768750
v 0.628125 0.009375 0.731250
v 0.628125 0.009375 0.768750
v 0.653121 0.011837 0.731250
v 0.653121 0.011837 0.768750
v 0.677156 0.019128 0.731250
v 0.677156 0.019128 0.768750
v 0.699307 0.030968 0.731250
v 0.699307 0.030968 0.768750
v 0.718723 0.046902 0.731250
v 0.718723 0.046902 0.768750
v 0.734657 0.066318 0.731250
v 0.734657 0.066318 0.768750
v 0.746497 0.088469 0.731250
v 0.746497 0.088469 0.768750
v 0.753788 0.112504 0.731250
v 0.753788 0.112504 0.768750
v 0.756250 0.137500 0.731250
v 0.756250 0.137500 0.768750
v 0.753788 0.162496 0.731250
v 0.753788 0.162496 0.768750
v 0.746497 0.186531 0.731250
v 0.746497 0.186531 0.768750
v 0.734657 0.208682 0.731250
v 0.734657 0.208682 0.768750
v 0.718723 0.228098 0.731250
v 0.718723 0.228098 0.768750
v 0.699307 0.244032 0.731250
v 0.699307 0.244032 0.768750
v 0.677156 0.255872 0.731250
v 0.677156 0.255872 0.768750
v 0.653121 0.263163 0.731250
v 0.653121 0.263163 0.768750
v 0.628125 0.262500 0.768750
v 0.603739 0.260098 0.768750
v 0.611055 0.223319 0.825000
v 0.628125 0.225000 0.825000
v 0.580290 0.252985 0.768750
v 0.594640 0.218339 0.825000
v 0.558679 0.241434 0.768750
v 0.579513 0.210254 0.825000
v 0.539737 0.225888 0.768750
v 0.566253 0.199372 0.825000
v 0.524191 0.206946 0.768750
v 0.555371 0.186112 0.825000
v 0.512640 0.185335 0.768750
v 0.547286 0.170985 0.825000
v 0.505527 0.161886 0.768750
v 0.542306 0.154570 0.825000
v 0.503125 0.137500 0.768750
v 0.540625 0.137500 0.825000
v 0.505527 0.113114 0.768750
v 0.542306 0.120430 0.825000
v 0.512640 0.089665 0.768750
v 0.547286 0.104015 0.825000
v 0.524191 0.068054 0.768750
v 0.555371 0.088888 0.825000
v 0.539737 0.049112 0.768750
v 0.566253 0.075628 0.825000
v 0.558679 0.033566 0.768750
v 0.579513 0.064746 0.825000
v 0.580290 0.022015 0.768750
v 0.594640 0.056661 0.825000
v 0.603739 0.014902 0.768750
v 0.611055 0.051681 0.825000
v 0.628125 0.012500 0.768750
v 0.628125 0.050000 0.825000
v 0.652511 0.014902 0.768750
v 0.645195 0.051681 0.825000
v 0.675960 0.022015 0.768750
v 0.661610 0.056661 0.825000
v 0.697571 0.033566 0.768750
v 0.676737 0.064746 0.825000
v 0.716513 0.049112 0.768750
v 0.689997 0.075628 0.825000
v 0.732059 0.068054 0.768750
v 0.700879 0.088888 0.825000
v 0.743610 0.089665 0.768750
v 0.708964 0.104015 0.825000
v 0.750723 0.113114 0.768750
v 0.713944 0.120430 0.825000
v 0.753125 0.137500 0.768750
v 0.715625 0.137500 0.825000
v 0.750723 0.161886 0.768750
v 0.713944 0.154570 0.825000
v 0.743610 0.185335 0.768750
v 0.708964 0.170985 0.825000
v 0.732059 0.206946 0.768750
v 0.700879 0.186112 0.825000
v 0.716513 0.225888 0.768750
v 0.689997 0.199372 0.825000
v 0.697571 0.241434 0.768750
v 0.676737 0.210254 0.825000
v 0.675960 0.252985 0.768750
v 0.661610 0.218339 0.825000
v 0.652511 0.260098 0.768750
v 0.645195 0.223319 0.825000
v 0.628125 0.174136 0.162733
v 0.611055 0.172471 0.162969
v 0.611055 0.222471 0.516094
v 0.628125 0.224136 0.515858
v 0.594640 0.167541 0.163667
v 0.594640 0.217541 0.516792
v 0.579513 0.159535 0.164800
v 0.579513 0.209535 0.517925
v 0.566253 0.148761 0.166326
v 0.566253 0.198761 0.519451
v 0.555371 0.135632 0.168185
v 0.555371 0.185632 0.521310
v 0.547286 0.120654 0.170306
v 0.547286 0.170654 0.523431
v 0.542306 0.104402 0.172607
v 0.542306 0.154402 0.525732
v 0.540625 0.087500 0.175000
v 0.540625 0.137500 0.528125
v 0.542306 0.070598 0.177393
v 0.542306 0.120598 0.530518
v 0.547286 0.054346 0.179694
v 0.547286 0.104346 0.532819
v 0.555371 0.039368 0.181815
v 0.555371 0.089368 0.534940
v 0.566253 0.026239 0.183674
v 0.566253 0.076239 0.536799
v 0.579513 0.015465 0.185200
v 0.579513 0.065465 0.538325
v 0.594640 0.007459 0.186333
v 0.594640 0.057459 0.539458
v 0.611055 0.002529 0.187031
v 0.611055 0.052529 0.540156
v 0.628125 0.000864 0.187267
v 0.628125 0.050864 0.540392
v 0.645195 0.002529 0.187031
v 0.645195 0.052529 0.540156
v 0.661610 0.007459 0.186333
v 0.661610 0.057459 0.539458
v 0.676737 0.015465 0.185200
v 0.676737 0.065465 0.538325
v 0.689997 0.026239 0.183674
v 0.689997 0.076239 0.536799
v 0.700879 0.039368 0.181815
v 0.700879 0.089368 0.534940
v 0.708964 0.054346 0.179694
v 0.708964 0.104346 0.532819
v 0.713944 0.070598 0.177393
v 0.713944 0.120598 0.530518
v 0.715625 0.087500 0.175000
v 0.715625 0.137500 0.528125
v 0.713944 0.104402 0.172607
v 0.713944 0.154402 0.525732
v 0.708964 0.120654 0.170306
v 0.708964 0.170654 0.523431
v 0.700879 0.135632 0.168185
v 0.700879 0.185632 0.521310
v 0.689997 0.148761 0.166326
v 0.689997 0.198761 0.519451
v 0.676737 0.159535 0.164800
v 0.676737 0.209535 0.517925
v 0.661610 0.167541 0.163667
v 0.661610 0.217541 0.516792
v 0.645195 0.172471 0.162969
v 0.645195 0.222471 0.516094
v 0.715625 0.137500 0.803125
v 0.713944 0.144342 0.818764
v 0.713944 0.094342 0.840639
v 0.715625 0.087500 0.825000
v 0.708964 0.150921 0.833802
v 0.708964 0.100921 0.855677
v 0.700879 0.156985 0.847662
v 0.700879 0.106985 0.869537
v 0.689997 0.162299 0.859809
v 0.689997 0.112299 0.881684
v 0.676737 0.166661 0.869779
v 0.676737 0.116661 0.891654
v 0.661610 0.169902 0.877187
v 0.661610 0.119902 0.899062
v 0.645195 0.171898 0.881748
v 0.645195 0.121898 0.903623
v 0.628125 0.172572 0.883289
v 0.628125 0.122572 0.905164
v 0.611055 0.171898 0.881748
v 0.611055 0.121898 0.903623
v 0.594640 0.169902 0.877187
v 0.594640 0.119902 0.899062
v 0.579513 0.166661 0.869779
v 0.579513 0.116661 0.891654
v 0.566253 0.162299 0.859809
v 0.566253 0.112299 0.881684
v 0.555371 0.156985 0.847662
v 0.555371 0.106985 0.869537
v 0.547286 0.150921 0.833802
v 0.547286 0.100921 0.855677
v 0.542306 0.144342 0.818764
v 0.542306 0.094342 0.840639
v 0.540625 0.137500 0.803125
v 0.540625 0.087500 0.825000
v 0.542306 0.130658 0.787486
v 0.542306 0.080658 0.809361
v 0.547286 0.124079 0.772448
v 0.547286 0.074079 0.794323
v 0.555371 0.118015 0.758588
v 0.555371 0.068015 0.780463
v 0.566253 0.112701 0.746441
v 0.566253 0.062701 0.768316
v 0.579513 0.108339 0.736471
v 0.579513 0.058339 0.758346
v 0.594640 0.105098 0.729063
v 0.594640 0.055098 0.750938
v 0.611055 0.103102 0.724502
v 0.611055 0.053102 0.746377
v 0.628125 0.102428 0.722961
v 0.628125 0.052428 0.744836
v 0.645195 0.103102 0.724502
v 0.645195 0.053102 0.746377
v 0.661610 0.105098 0.729063
v 0.661610 0.055098 0.750938
v 0.676737 0.108339 0.736471
v 0.676737 0.058339 0.758346
v 0.689997 0.112701 0.746441
v 0.689997 0.062701 0.768316
v 0.700879 0.118015 0.758588
v 0.700879 0.068015 0.780463
v 0.708964 0.124079 0.772448
v 0.708964 0.074079 0.794323
v 0.713944 0.130658 0.787486
v 0.713944 0.080658 0.809361
vn -0.1153 0.9933 0.0000
vn -0.3069 0.9517 0.0000
vn -0.4867 0.8736 0.0000
vn -0.6477 0.7619 0.0000
vn -0.7839 0.6209 0.0000
vn -0.8900 0.4560 0.0000
vn -0.9618 0.2736 0.0000
vn -0.9967 0.0807 0.0000
vn -0.9933 -0.1153 0.0000
vn -0.9517 -0.3069 0.0000
vn -0.8736 -0.4867 0.0000
vn -0.7619 -0.6477 0.0000
vn -0.6209 -0.7839 0.0000
vn -0.4560 -0.8900 0.0000
vn -0.2736 -0.9618 0.0000
vn -0.0807 -0.9967 0.0000
vn 0.1153 -0.9933 0.0000
vn 0.3069 -0.9517 0.0000
vn 0.4867 -0.8736 0.0000
vn 0.6477 -0.7619 0.0000
vn 0.7839 -0.6209 0.0000
vn 0.8900 -0.4560 0.0000
vn 0.9618 -0.2736 0.0000
vn 0.9967 -0.0807 0.0000
vn 0.9933 0.1153 0.0000
vn 0.9517 0.3069 0.0000
vn 0.8736 0.4867 0.0000
vn 0.7619 0.6477 0.0000
vn 0.6209 0.7839 0.0000
vn 0.4560 0.8900 0.0000
vn 0.2736 0.9618 0.0000
vn 0.0807 0.9967 0.0000
vn -0.0000 -0.0000 -1.0000
vn -0.0980 0.9952 0.0000
vn -0.2903 0.9569 0.0000
vn -0.4714 0.8819 0.0000
vn -0.6344 0.7730 0.0000
vn -0.7730 0.6344 0.0000
vn -0.8819 0.4714 0.0000
vn -0.9569 0.2903 0.0000
vn -0.9952 0.0980 0.0000
vn -0.9952 -0.0980 0.0000
vn -0.9569 -0.2903 0.0000
vn -0.8819 -0.4714 0.0000
vn -0.7730 -0.6344 0.0000
vn -0.6344 -0.7730 0.0000
vn -0.4714 -0.8819 0.0000
vn -0.2903 -0.9569 0.0000
vn -0.0980 -0.9952 0.0000
vn 0.0980 -0.9952 0.0000
vn 0.2903 -0.9569 0.0000
vn 0.4714 -0.8819 0.0000
vn 0.6344 -0.7730 0.0000
vn 0.7730 -0.6344 0.0000
vn 0.8819 -0.4714 0.0000
vn 0.9569 -0.2903 0.0000
vn 0.9952 -0.0980 0.0000
vn 0.9952 0.0980 0.0000
vn 0.9569 0.2903 0.0000
vn 0.8819 0.4714 0.0000
vn 0.7730 0.6344 0.0000
vn 0.6344 0.7730 0.0000
vn 0.4714 0.8819 0.0000
vn 0.2903 0.9569 0.0000
vn 0.0980 0.9952 0.0000
vn 0.0000 0.0000 1.0000
vn -0.0807 0.9967 0.0000
vn -0.2736 0.9618 0.0000
vn -0.4560 0.8900 0.0000
vn -0.6209 0.7839 0.0000
vn -0.7619 0.6477 0.0000
vn -0.8736 0.4867 0.0000
vn -0.9518 0.3069 0.0000
vn -0.9933 0.1153 0.0000
vn -0.9967 -0.0807 0.0000
vn -0.9618 -0.2736 0.0000
vn -0.8900 -0.4560 0.0000
vn -0.7839 -0.6209 0.0000
vn -0.6477 -0.7619 0.0000
vn -0.4867 -0.8736 0.0000
vn -0.3069 -0.9518 0.0000
vn -0.1153 -0.9933 0.0000
vn 0.0807 -0.9967 0.0000
vn 0.2736 -0.9618 0.0000
vn 0.4560 -0.8900 0.0000
vn 0.6209 -0.7839 0.0000
vn 0.7619 -0.6477 0.0000
vn 0.8736 -0.4867 0.0000
vn 0.9518 -0.3069 0.0000
vn 0.9933 -0.1153 0.0000
vn 0.9967 0.0807 0.0000
vn 0.9618 0.2736 0.0000
vn 0.8900 0.4560 0.0000
vn 0.7839 0.6209 0.0000
vn 0.6477 0.7619 0.0000
vn 0.4867 0.8736 0.0000
vn 0.3069 0.9518 0.0000
vn 0.1153 0.9933 0.0000
vn -0.0975 0.4856 -0.8632
vn -0.2889 0.4669 -0.8300
vn -0.4691 0.4303 -0.7650
vn -0.6313 0.3772 -0.6705
vn -0.7693 0.3095 -0.5503
vn -0.8777 0.2300 -0.4089
vn -0.9523 0.1416 -0.2518
vn -0.9904 0.0478 -0.0850
vn -0.9904 -0.0478 0.0850
vn -0.9523 -0.1416 0.2518
vn -0.8777 -0.2300 0.4089
vn -0.7693 -0.3095 0.5503
vn -0.6313 -0.3772 0.6705
vn -0.4691 -0.4303 0.7650
vn -0.2889 -0.4669 0.8300
vn -0.0975 -0.4856 0.8632
vn 0.0975 -0.4856 0.8632
vn 0.2889 -0.4669 0.8300
vn 0.4691 -0.4303 0.7650
vn 0.6313 -0.3772 0.6705
vn 0.7693 -0.3095 0.5503
vn 0.8777 -0.2300 0.4089
vn 0.9523 -0.1416 0.2518
vn 0.9904 -0.0478 0.0850
vn 0.9904 0.0478 -0.0850
vn 0.9523 0.1416 -0.2518
vn 0.8777 0.2300 -0.4089
vn 0.7693 0.3095 -0.5503
vn 0.6313 0.3772 -0.6705
vn 0.4691 0.4303 -0.7650
vn 0.2889 0.4669 -0.8300
vn 0.0975 0.4856 -0.8632
vn 0.0000 0.8716 0.4903
vn -0.0975 0.9803 0.1413
vn -0.2889 0.9426 0.1359
vn -0.4691 0.8687 0.1252
vn -0.6313 0.7614 0.1098
vn -0.7693 0.6249 0.0901
vn -0.8777 0.4643 0.0669
vn -0.9523 0.2859 0.0412
vn -0.9904 0.0965 0.0139
vn -0.9904 -0.0965 -0.0139
vn -0.9523 -0.2859 -0.0412
vn -0.8777 -0.4643 -0.0669
vn -0.7693 -0.6249 -0.0901
vn -0.6313 -0.7614 -0.1098
vn -0.4691 -0.8687 -0.1252
vn -0.2889 -0.9426 -0.1359
vn -0.0975 -0.9803 -0.1413
vn 0.0975 -0.9803 -0.1413
vn 0.2889 -0.9426 -0.1359
vn 0.4691 -0.8687 -0.1252
vn 0.6313 -0.7614 -0.1098
vn 0.7693 -0.6249 -0.0901
vn 0.8777 -0.4643 -0.0669
vn 0.9523 -0.2859 -0.0412
vn 0.9904 -0.0965 -0.0139
vn 0.9904 0.0965 0.0139
vn 0.9523 0.2859 0.0412
vn 0.8777 0.4643 0.0669
vn 0.7693 0.6249 0.0901
vn 0.6313 0.7614 0.1098
vn 0.4691 0.8687 0.1252
vn 0.2889 0.9426 0.1359
vn 0.0975 0.9803 0.1413
vn -0.0000 0.1427 -0.9898
vn -0.0975 0.9806 -0.1388
vn -0.2889 0.9429 -0.1335
vn -0.4691 0.8690 -0.1230
vn -0.6313 0.7617 -0.1079
vn -0.7693 0.6251 -0.0885
vn -0.8777 0.4645 -0.0658
vn -0.9523 0.2860 -0.0405
vn -0.9904 0.0966 -0.0137
vn -0.9904 -0.0966 0.0137
vn -0.9523 -0.2860 0.0405
vn -0.8777 -0.4645 0.0658
vn -0.7693 -0.6251 0.0885
vn -0.6313 -0.7617 0.1079
vn -0.4691 -0.8690 0.1230
vn -0.2889 -0.9429 0.1335
vn -0.0975 -0.9806 0.1388
vn 0.0975 -0.9806 0.1388
vn 0.2889 -0.9429 0.1335
vn 0.4691 -0.8690 0.1230
vn 0.6313 -0.7617 0.1079
vn 0.7693 -0.6251 0.0885
vn 0.8777 -0.4645 0.0658
vn 0.9523 -0.2860 0.0405
vn 0.9904 -0.0966 0.0137
vn 0.9904 0.0966 -0.0137
vn 0.9523 0.2860 -0.0405
vn 0.8777 0.4645 -0.0658
vn 0.7693 0.6251 -0.0885
vn 0.6313 0.7617 -0.1079
vn 0.4691 0.8690 -0.1230
vn 0.2889 0.9429 -0.1335
vn 0.0975 0.9806 -0.1388
vn 0.0000 0.1402 0.9901
vn 0.9904 0.0391 0.0894
vn 0.9523 0.1158 0.2647
vn 0.8777 0.1880 0.4298
vn 0.7693 0.2531 0.5784
vn 0.6313 0.3083 0.7048
vn 0.4691 0.3518 0.8041
vn 0.2889 0.3817 0.8725
vn 0.0975 0.3970 0.9074
vn -0.0975 0.3970 0.9074
vn -0.2889 0.3817 0.8725
vn -0.4691 0.3518 0.8041
vn -0.6313 0.3083 0.7048
vn -0.7693 0.2531 0.5784
vn -0.8777 0.1880 0.4298
vn -0.9523 0.1158 0.2647
vn -0.9904 0.0391 0.0894
vn -0.9904 -0.0391 -0.0894
vn -0.9523 -0.1158 -0.2647
vn -0.8777 -0.1880 -0.4298
vn -0.7693 -0.2531 -0.5784
vn -0.6313 -0.3083 -0.7048
vn -0.4691 -0.3518 -0.8041
vn -0.2889 -0.3817 -0.8725
vn -0.0975 -0.3970 -0.9074
vn 0.0975 -0.3970 -0.9074
vn 0.2889 -0.3817 -0.8725
vn 0.4691 -0.3518 -0.8041
vn 0.6313 -0.3083 -0.7048
vn 0.7693 -0.2531 -0.5784
vn 0.8777 -0.1880 -0.4298
vn 0.9523 -0.1158 -0.2647
vn 0.9904 -0.0391 -0.0894
vn -0.0000 0.9162 -0.4008
vt 0.000000 0.000000
vt 0.031250 0.000000
vt 0.031250 0.176500
vt 0.000000 0.176500
vt 0.062500 0.000000
vt 0.062500 0.176500
vt 0.093750 0.000000
vt 0.093750 0.176500
vt 0.125000 0.000000
vt 0.125000 0.176500
vt 0.156250 0.000000
vt 0.156250 0.176500
vt 0.187500 0.000000
vt 0.187500 0.176500
vt 0.218750 0.000000
vt 0.218750 0.176500
vt 0.250000 0.000000
vt 0.250000 0.176500
vt 0.281250 0.000000
vt 0.281250 0.176500
vt 0.312500 0.000000
vt 0.312500 0.176500
vt 0.343750 0.000000
vt 0.343750 0.176500
vt 0.375000 0.000000
vt 0.375000 0.176500
vt 0.406250 0.000000
vt 0.406250 0.176500
vt 0.437500 0.000000
vt 0.437500 0.176500
vt 0.468750 0.000000
vt 0.468750 0.176500
vt 0.500000 0.000000
vt 0.500000 0.176500
vt 0.531250 0.000000
vt 0.531250 0.176500
vt 0.562500 0.000000
vt 0.562500 0.176500
vt 0.593750 0.000000
vt 0.593750 0.176500
vt 0.625000 0.000000
vt 0.625000 0.176500
vt 0.656250 0.000000
vt 0.656250 0.176500
vt 0.687500 0.000000
vt 0.687500 0.176500
vt 0.718750 0.000000
vt 0.718750 0.176500
vt 0.750000 0.000000
vt 0.750000 0.176500
vt 0.781250 0.000000
vt 0.781250 0.176500
vt 0.812500 0.000000
vt 0.812500 0.176500
vt 0.843750 0.000000
vt 0.843750 0.176500
vt 0.875000 0.000000
vt 0.875000 0.176500
vt 0.906250 0.000000
vt 0.906250 0.176500
vt 0.937500 0.000000
vt 0.937500 0.176500
vt 0.968750 0.000000
vt 0.968750 0.176500
vt 1.000000 0.000000
vt 1.000000 0.176500
vt 0.548773 0.131527
vt 0.595671 0.129016
vt 0.638893 0.124939
vt 0.676777 0.119451
vt 0.707867 0.112765
vt 0.730970 0.105136
vt 0.745196 0.096858
vt 0.750000 0.088250
vt 0.745196 0.079642
vt 0.730970 0.071364
vt 0.707867 0.063735
vt 0.676777 0.057049
vt 0.638893 0.051561
vt 0.595671 0.047484
vt 0.548773 0.044973
vt 0.500000 0.044125
vt 0.451227 0.044973
vt 0.404329 0.047484
vt 0.361107 0.051561
vt 0.323223 0.057049
vt 0.292133 0.063735
vt 0.269030 0.071364
vt 0.254804 0.079642
vt 0.250000 0.088250
vt 0.254804 0.096858
vt 0.269030 0.105136
vt 0.292133 0.112765
vt 0.323223 0.119451
vt 0.361107 0.124939
vt 0.404329 0.129016
vt 0.451227 0.131527
vt 0.500000 0.132375
vt 0.031250 0.294100
vt 0.000000 0.294100
vt 0.062500 0.294100
vt 0.093750 0.294100
vt 0.125000 0.294100
vt 0.156250 0.294100
vt 0.187500 0.294100
vt 0.218750 0.294100
vt 0.250000 0.294100
vt 0.281250 0.294100
vt 0.312500 0.294100
vt 0.343750 0.294100
vt 0.375000 0.294100
vt 0.406250 0.294100
vt 0.437500 0.294100
vt 0.468750 0.294100
vt 0.500000 0.294100
vt 0.531250 0.294100
vt 0.562500 0.294100
vt 0.593750 0.294100
vt 0.625000 0.294100
vt 0.656250 0.294100
vt 0.687500 0.294100
vt 0.718750 0.294100
vt 0.750000 0.294100
vt 0.781250 0.294100
vt 0.812500 0.294100
vt 0.843750 0.294100
vt 0.875000 0.294100
vt 0.906250 0.294100
vt 0.937500 0.294100
vt 0.968750 0.294100
vt 1.000000 0.294100
vt 0.548773 0.264135
vt 0.595671 0.262462
vt 0.638893 0.259745
vt 0.676777 0.256089
vt 0.707867 0.251634
vt 0.730970 0.246551
vt 0.745196 0.241036
vt 0.750000 0.235300
vt 0.745196 0.229564
vt 0.730970 0.224049
vt 0.707867 0.218966
vt 0.676777 0.214511
vt 0.638893 0.210855
vt 0.595671 0.208138
vt 0.548773 0.206465
vt 0.500000 0.205900
vt 0.451227 0.206465
vt 0.404329 0.208138
vt 0.361107 0.210855
vt 0.323223 0.214511
vt 0.292133 0.218966
vt 0.269030 0.224049
vt 0.254804 0.229564
vt 0.250000 0.235300
vt 0.254804 0.241036
vt 0.269030 0.246551
vt 0.292133 0.251634
vt 0.323223 0.256089
vt 0.361107 0.259745
vt 0.404329 0.262462
vt 0.451227 0.264135
vt 0.500000 0.264700
vt 0.031250 0.705900
vt 0.000000 0.705900
vt 0.062500 0.705900
vt 0.093750 0.705900
vt 0.125000 0.705900
vt 0.156250 0.705900
vt 0.187500 0.705900
vt 0.218750 0.705900
vt 0.250000 0.705900
vt 0.281250 0.705900
vt 0.312500 0.705900
vt 0.343750 0.705900
vt 0.375000 0.705900
vt 0.406250 0.705900
vt 0.437500 0.705900
vt 0.468750 0.705900
vt 0.500000 0.705900
vt 0.531250 0.705900
vt 0.562500 0.705900
vt 0.593750 0.705900
vt 0.625000 0.705900
vt 0.656250 0.705900
vt 0.687500 0.705900
vt 0.718750 0.705900
vt 0.750000 0.705900
vt 0.781250 0.705900
vt 0.812500 0.705900
vt 0.843750 0.705900
vt 0.875000 0.705900
vt 0.906250 0.705900
vt 0.937500 0.705900
vt 0.968750 0.705900
vt 1.000000 0.705900
vt 0.548773 0.600972
vt 0.595671 0.595113
vt 0.638893 0.585600
vt 0.676777 0.572797
vt 0.707867 0.557196
vt 0.730970 0.539397
vt 0.745196 0.520085
vt 0.750000 0.500000
vt 0.745196 0.479915
vt 0.730970 0.460603
vt 0.707867 0.442804
vt 0.676777 0.427203
vt 0.638893 0.414400
vt 0.595671 0.404887
vt 0.548773 0.399028
vt 0.500000 0.397050
vt 0.451227 0.399028
vt 0.404329 0.404887
vt 0.361107 0.414400
vt 0.323223 0.427203
vt 0.292133 0.442804
vt 0.269030 0.460603
vt 0.254804 0.479915
vt 0.250000 0.500000
vt 0.254804 0.520085
vt 0.269030 0.539397
vt 0.292133 0.557196
vt 0.323223 0.572797
vt 0.361107 0.585600
vt 0.404329 0.595113
vt 0.451227 0.600972
vt 0.500000 0.602950
vt 0.031250 0.823500
vt 0.000000 0.823500
vt 0.062500 0.823500
vt 0.093750 0.823500
vt 0.125000 0.823500
vt 0.156250 0.823500
vt 0.187500 0.823500
vt 0.218750 0.823500
vt 0.250000 0.823500
vt 0.281250 0.823500
vt 0.312500 0.823500
vt 0.343750 0.823500
vt 0.375000 0.823500
vt 0.406250 0.823500
vt 0.437500 0.823500
vt 0.468750 0.823500
vt 0.500000 0.823500
vt 0.531250 0.823500
vt 0.562500 0.823500
vt 0.593750 0.823500
vt 0.625000 0.823500
vt 0.656250 0.823500
vt 0.687500 0.823500
vt 0.718750 0.823500
vt 0.750000 0.823500
vt 0.781250 0.823500
vt 0.812500 0.823500
vt 0.843750 0.823500
vt 0.875000 0.823500
vt 0.906250 0.823500
vt 0.937500 0.823500
vt 0.968750 0.823500
vt 1.000000 0.823500
vt 0.500000 0.794100
vt 0.451227 0.793535
vt 0.404329 0.791862
vt 0.361107 0.789145
vt 0.323223 0.785489
vt 0.292133 0.781034
vt 0.269030 0.775951
vt 0.254804 0.770436
vt 0.250000 0.764700
vt 0.254804 0.758964
vt 0.269030 0.753449
vt 0.292133 0.748366
vt 0.323223 0.743911
vt 0.361107 0.740255
vt 0.404329 0.737538
vt 0.451227 0.735865
vt 0.500000 0.735300
vt 0.548773 0.735865
vt 0.595671 0.737538
vt 0.638893 0.740255
vt 0.676777 0.743911
vt 0.707867 0.748366
vt 0.730970 0.753449
vt 0.745196 0.758964
vt 0.750000 0.764700
vt 0.745196 0.770436
vt 0.730970 0.775951
vt 0.707867 0.781034
vt 0.676777 0.785489
vt 0.638893 0.789145
vt 0.595671 0.791862
vt 0.548773 0.793535
vt 0.031250 1.000000
vt 0.000000 1.000000
vt 0.062500 1.000000
vt 0.093750 1.000000
vt 0.125000 1.000000
vt 0.156250 1.000000
vt 0.187500 1.000000
vt 0.218750 1.000000
vt 0.250000 1.000000
vt 0.281250 1.000000
vt 0.312500 1.000000
vt 0.343750 1.000000
vt 0.375000 1.000000
vt 0.406250 1.000000
vt 0.437500 1.000000
vt 0.468750 1.000000
vt 0.500000 1.000000
vt 0.531250 1.000000
vt 0.562500 1.000000
vt 0.593750 1.000000
vt 0.625000 1.000000
vt 0.656250 1.000000
vt 0.687500 1.000000
vt 0.718750 1.000000
vt 0.750000 1.000000
vt 0.781250 1.000000
vt 0.812500 1.000000
vt 0.843750 1.000000
vt 0.875000 1.000000
vt 0.906250 1.000000
vt 0.937500 1.000000
vt 0.968750 1.000000
vt 1.000000 1.000000
vt 0.500000 0.955875
vt 0.451227 0.955027
vt 0.404329 0.952516
vt 0.361107 0.948439
vt 0.323223 0.942951
vt 0.292133 0.936265
vt 0.269030 0.928636
vt 0.254804 0.920358
vt 0.250000 0.911750
vt 0.254804 0.903142
vt 0.269030 0.894864
vt 0.292133 0.887235
vt 0.323223 0.880549
vt 0.361107 0.875061
vt 0.404329 0.870984
vt 0.451227 0.868473
vt 0.500000 0.867625
vt 0.548773 0.868473
vt 0.595671 0.870984
vt 0.638893 0.875061
vt 0.676777 0.880549
vt 0.707867 0.887235
vt 0.730970 0.894864
vt 0.745196 0.903142
vt 0.750000 0.911750
vt 0.745196 0.920358
vt 0.730970 0.928636
vt 0.707867 0.936265
vt 0.676777 0.942951
vt 0.638893 0.948439
vt 0.595671 0.952516
vt 0.548773 0.955027
vt 1.000000 0.500000
vt 0.990393 0.597545
vt 0.961940 0.691342
vt 0.915735 0.777785
vt 0.853553 0.853553
vt 0.777785 0.915735
vt 0.691342 0.961940
vt 0.597545 0.990393
vt 0.402455 0.990393
vt 0.308658 0.961940
vt 0.222215 0.915735
vt 0.146447 0.853553
vt 0.084265 0.777785
vt 0.038060 0.691342
vt 0.009607 0.597545
vt 0.000000 0.500000
vt 0.009607 0.402455
vt 0.038060 0.308658
vt 0.084265 0.222215
vt 0.146447 0.146447
vt 0.222215 0.084265
vt 0.308658 0.038060
vt 0.402455 0.009607
vt 0.597545 0.009607
vt 0.691342 0.038060
vt 0.777785 0.084265
vt 0.853553 0.146447
vt 0.915735 0.222215
vt 0.961940 0.308658
vt 0.990393 0.402455
o shrink
usemtl shrink
f 1/1/1 2/2/1 3/3/1 4/4/1
f 2/2/2 5/5/2 6/6/2 3/3/2
f 5/5/3 7/7/3 8/8/3 6/6/3
f 7/7/4 9/9/4 10/10/4 8/8/4
f 9/9/5 11/11/5 12/12/5 10/10/5
f 11/11/6 13/13/6 14/14/6 12/12/6
f 13/13/7 15/15/7 16/16/7 14/14/7
f 15/15/8 17/17/8 18/18/8 16/16/8
f 17/17/9 19/19/9 20/20/9 18/18/9
f 19/19/10 21/21/10 22/22/10 20/20/10
f 21/21/11 23/23/11 24/24/11 22/22/11
f 23/23/12 25/25/12 26/26/12 24/24/12
f 25/25/13 27/27/13 28/28/13 26/26/13
f 27/27/14 29/29/14 30/30/14 28/28/14
f 29/29/15 31/31/15 32/32/15 30/30/15
f 31/31/16 33/33/16 34/34/16 32/32/16
f 33/33/17 35/35/17 36/36/17 34/34/17
f 35/35/18 37/37/18 38/38/18 36/36/18
f 37/37/19 39/39/19 40/40/19 38/38/19
f 39/39/20 41/41/20 42/42/20 40/40/20
f 41/41/21 43/43/21 44/44/21 42/42/21
f 43/43/22 45/45/22 46/46/22 44/44/22
f 45/45/23 47/47/23 48/48/23 46/46/23
f 47/47/24 49/49/24 50/50/24 48/48/24
f 49/49/25 51/51/25 52/52/25 50/50/25
f 51/51/26 53/53/26 54/54/26 52/52/26
f 53/53/27 55/55/27 56/56/27 54/54/27
f 55/55/28 57/57/28 58/58/28 56/56/28
f 57/57/29 59/59/29 60/60/29 58/58/29
f 59/59/30 61/61/30 62/62/30 60/60/30
f 61/61/31 63/63/31 64/64/31 62/62/31
f 63/63/32 1/65/32 4/66/32 64/64/32
f 63/67/33 61/68/33 59/69/33 57/70/33
f 63/67/33 57/70/33 55/71/33 53/72/33
f 63/67/33 53/72/33 51/73/33 49/74/33
f 63/67/33 49/74/33 47/75/33 45/76/33
f 63/67/33 45/76/33 43/77/33 41/78/33
f 63/67/33 41/78/33 39/79/33 37/80/33
f 63/67/33 37/80/33 35/81/33 33/82/33
f 63/67/33 33/82/33 31/83/33 29/84/33
f 63/67/33 29/84/33 27/85/33 25/86/33
f 63/67/33 25/86/33 23/87/33 21/88/33
f 63/67/33 21/88/33 19/89/33 17/90/33
f 63/67/33 17/90/33 15/91/33 13/92/33
f 63/67/33 13/92/33 11/93/33 9/94/33
f 63/67/33 9/94/33 7/95/33 5/96/33
f 63/67/33 5/96/33 2/97/33 1/98/33
f 65/4/34 66/3/34 67/99/34 68/100/34
f 66/3/35 69/6/35 70/101/35 67/99/35
f 69/6/36 71/8/36 72/102/36 70/101/36
f 71/8/37 73/10/37 74/103/37 72/102/37
f 73/10/38 75/12/38 76/104/38 74/103/38
f 75/12/39 77/14/39 78/105/39 76/104/39
f 77/14/40 79/16/40 80/106/40 78/105/40
f 79/16/41 81/18/41 82/107/41 80/106/41
f 81/18/42 83/20/42 84/108/42 82/107/42
f 83/20/43 85/22/43 86/109/43 84/108/43
f 85/22/44 87/24/44 88/110/44 86/109/44
f 87/24/45 89/26/45 90/111/45 88/110/45
f 89/26/46 91/28/46 92/112/46 90/111/46
f 91/28/47 93/30/47 94/113/47 92/112/47
f 93/30/48 95/32/48 96/114/48 94/113/48
f 95/32/49 97/34/49 98/115/49 96/114/49
f 97/34/50 99/36/50 100/116/50 98/115/50
f 99/36/51 101/38/51 102/117/51 100/116/51
f 101/38/52 103/40/52 104/118/52 102/117/52
f 103/40/53 105/42/53 106/119/53 104/118/53
f 105/42/54 107/44/54 108/120/54 106/119/54
f 107/44/55 109/46/55 110/121/55 108/120/55
f 109/46/56 111/48/56 112/122/56 110/121/56
f 111/48/57 113/50/57 114/123/57 112/122/57
f 113/50/58 115/52/58 116/124/58 114/123/58
f 115/52/59 117/54/59 118/125/59 116/124/59
f 117/54/60 119/56/60 120/126/60 118/125/60
f 119/56/61 121/58/61 122/127/61 120/126/61
f 121/58/62 123/60/62 124/128/62 122/127/62
f 123/60/63 125/62/63 126/129/63 124/128/63
f 125/62/64 127/64/64 128/130/64 126/129/64
f 127/64/65 65/66/65 68/131/65 128/130/65
f 127/132/33 125/133/33 123/134/33 121/135/33
f 127/132/33 121/135/33 119/136/33 117/137/33
f 127/132/33 117/137/33 115/138/33 113/139/33
f 127/132/33 113/139/33 111/140/33 109/141/33
f 127/132/33 109/141/33 107/142/33 105/143/33
f 127/132/33 105/143/33 103/144/33 101/145/33
f 127/132/33 101/145/33 99/146/33 97/147/33
f 127/132/33 97/147/33 95/148/33 93/149/33
f 127/132/33 93/149/33 91/150/33 89/151/33
f 127/132/33 89/151/33 87/152/33 85/153/33
f 127/132/33 85/153/33 83/154/33 81/155/33
f 127/132/33 81/155/33 79/156/33 77/157/33
f 127/132/33 77/157/33 75/158/33 73/159/33
f 127/132/33 73/159/33 71/160/33 69/161/33
f 127/132/33 69/161/33 66/162/33 65/163/33
f 129/100/34 130/99/34 131/164/34 132/165/34
f 130/99/35 133/101/35 134/166/35 131/164/35
f 133/101/36 135/102/36 136/167/36 134/166/36
f 135/102/37 137/103/37 138/168/37 136/167/37
f 137/103/38 139/104/38 140/169/38 138/168/38
f 139/104/39 141/105/39 142/170/39 140/169/39
f 141/105/40 143/106/40 144/171/40 142/170/40
f 143/106/41 145/107/41 146/172/41 144/171/41
f 145/107/42 147/108/42 148/173/42 146/172/42
f 147/108/43 149/109/43 150/174/43 148/173/43
f 149/109/44 151/110/44 152/175/44 150/174/44
f 151/110/45 153/111/45 154/176/45 152/175/45
f 153/111/46 155/112/46 156/177/46 154/176/46
f 155/112/47 157/113/47 158/178/47 156/177/47
f 157/113/48 159/114/48 160/179/48 158/178/48
f 159/114/49 161/115/49 162/180/49 160/179/49
f 161/115/50 163/116/50 164/181/50 162/180/50
f 163/116/51 165/117/51 166/182/51 164/181/51
f 165/117/52 167/118/52 168/183/52 166/182/52
f 167/118/53 169/119/53 170/184/53 168/183/53
f 169/119/54 171/120/54 172/185/54 170/184/54
f 171/120/55 173/121/55 174/186/55 172/185/55
f 173/121/56 175/122/56 176/187/56 174/186/56
f 175/122/57 177/123/57 178/188/57 176/187/57
f 177/123/58 179/124/58 180/189/58 178/188/58
f 179/124/59 181/125/59 182/190/59 180/189/59
f 181/125/60 183/126/60 184/191/60 182/190/60
f 183/126/61 185/127/61 186/192/61 184/191/61
f 185/127/62 187/128/62 188/193/62 186/192/62
f 187/128/63 189/129/63 190/194/63 188/193/63
f 189/129/64 191/130/64 192/195/64 190/194/64
f 191/130/65 129/131/65 132/196/65 192/195/65
f 191/197/33 189/198/33 187/199/33 185/200/33
f 191/197/33 185/200/33 183/201/33 181/202/33
f 191/197/33 181/202/33 179/203/33 177/204/33
f 191/197/33 177/204/33 175/205/33 173/206/33
f 191/197/33 173/206/33 171/207/33 169/208/33
f 191/197/33 169/208/33 167/209/33 165/210/33
f 191/197/33 165/210/33 163/211/33 161/212/33
f 191/197/33 161/212/33 159/213/33 157/214/33
f 191/197/33 157/214/33 155/215/33 153/216/33
f 191/197/33 153/216/33 151/217/33 149/218/33
f 191/197/33 149/218/33 147/219/33 145/220/33
f 191/197/33 145/220/33 143/221/33 141/222/33
f 191/197/33 141/222/33 139/223/33 137/224/33
f 191/197/33 137/224/33 135/225/33 133/226/33
f 191/197/33 133/226/33 130/227/33 129/228/33
f 132/228/66 131/227/66 134/226/66 136/225/66
f 132/228/66 136/225/66 138/224/66 140/223/66
f 132/228/66 140/223/66 142/222/66 144/221/66
f 132/228/66 144/221/66 146/220/66 148/219/66
f 132/228/66 148/219/66 150/218/66 152/217/66
f 132/228/66 152/217/66 154/216/66 156/215/66
f 132/228/66 156/215/66 158/214/66 160/213/66
f 132/228/66 160/213/66 162/212/66 164/211/66
f 132/228/66 164/211/66 166/210/66 168/209/66
f 132/228/66 168/209/66 170/208/66 172/207/66
f 132/228/66 172/207/66 174/206/66 176/205/66
f 132/228/66 176/205/66 178/204/66 180/203/66
f 132/228/66 180/203/66 182/202/66 184/201/66
f 132/228/66 184/201/66 186/200/66 188/199/66
f 132/228/66 188/199/66 190/198/66 192/197/66
f 193/165/34 194/164/34 195/229/34 196/230/34
f 194/164/35 197/166/35 198/231/35 195/229/35
f 197/166/36 199/167/36 200/232/36 198/231/36
f 199/167/37 201/168/37 202/233/37 200/232/37
f 201/168/38 203/169/38 204/234/38 202/233/38
f 203/169/39 205/170/39 206/235/39 204/234/39
f 205/170/40 207/171/40 208/236/40 206/235/40
f 207/171/41 209/172/41 210/237/41 208/236/41
f 209/172/42 211/173/42 212/238/42 210/237/42
f 211/173/43 213/174/43 214/239/43 212/238/43
f 213/174/44 215/175/44 216/240/44 214/239/44
f 215/175/45 217/176/45 218/241/45 216/240/45
f 217/176/46 219/177/46 220/242/46 218/241/46
f 219/177/47 221/178/47 222/243/47 220/242/47
f 221/178/48 223/179/48 224/244/48 222/243/48
f 223/179/49 225/180/49 226/245/49 224/244/49
f 225/180/50 227/181/50 228/246/50 226/245/50
f 227/181/51 229/182/51 230/247/51 228/246/51
f 229/182/52 231/183/52 232/248/52 230/247/52
f 231/183/53 233/184/53 234/249/53 232/248/53
f 233/184/54 235/185/54 236/250/54 234/249/54
f 235/185/55 237/186/55 238/251/55 236/250/55
f 237/186/56 239/187/56 240/252/56 238/251/56
f 239/187/57 241/188/57 242/253/57 240/252/57
f 241/188/58 243/189/58 244/254/58 242/253/58
f 243/189/59 245/190/59 246/255/59 244/254/59
f 245/190/60 247/191/60 248/256/60 246/255/60
f 247/191/61 249/192/61 250/257/61 248/256/61
f 249/192/62 251/193/62 252/258/62 250/257/62
f 251/193/63 253/194/63 254/259/63 252/258/63
f 253/194/64 255/195/64 256/260/64 254/259/64
f 255/195/65 193/196/65 196/261/65 256/260/65
f 196/262/66 195/263/66 198/264/66 200/265/66
f 196/262/66 200/265/66 202/266/66 204/267/66
f 196/262/66 204/267/66 206/268/66 208/269/66
f 196/262/66 208/269/66 210/270/66 212/271/66
f 196/262/66 212/271/66 214/272/66 216/273/66
f 196/262/66 216/273/66 218/274/66 220/275/66
f 196/262/66 220/275/66 222/276/66 224/277/66
f 196/262/66 224/277/66 226/278/66 228/279/66
f 196/262/66 228/279/66 230/280/66 232/281/66
f 196/262/66 232/281/66 234/282/66 236/283/66
f 196/262/66 236/283/66 238/284/66 240/285/66
f 196/262/66 240/285/66 242/286/66 244/287/66
f 196/262/66 244/287/66 246/288/66 248/289/66
f 196/262/66 248/289/66 250/290/66 252/291/66
f 196/262/66 252/291/66 254/292/66 256/293/66
f 257/230/67 258/229/67 259/294/67 260/295/67
f 258/229/68 261/231/68 262/296/68 259/294/68
f 261/231/69 263/232/69 264/297/69 262/296/69
f 263/232/70 265/233/70 266/298/70 264/297/70
f 265/233/71 267/234/71 268/299/71 266/298/71
f 267/234/72 269/235/72 270/300/72 268/299/72
f 269/235/73 271/236/73 272/301/73 270/300/73
f 271/236/74 273/237/74 274/302/74 272/301/74
f 273/237/75 275/238/75 276/303/75 274/302/75
f 275/238/76 277/239/76 278/304/76 276/303/76
f 277/239/77 279/240/77 280/305/77 278/304/77
f 279/240/78 281/241/78 282/306/78 280/305/78
f 281/241/79 283/242/79 284/307/79 282/306/79
f 283/242/80 285/243/80 286/308/80 284/307/80
f 285/243/81 287/244/81 288/309/81 286/308/81
f 287/244/82 289/245/82 290/310/82 288/309/82
f 289/245/83 291/246/83 292/311/83 290/310/83
f 291/246/84 293/247/84 294/312/84 292/311/84
f 293/247/85 295/248/85 296/313/85 294/312/85
f 295/248/86 297/249/86 298/314/86 296/313/86
f 297/249/87 299/250/87 300/315/87 298/314/87
f 299/250/88 301/251/88 302/316/88 300/315/88
f 301/251/89 303/252/89 304/317/89 302/316/89
f 303/252/90 305/253/90 306/318/90 304/317/90
f 305/253/91 307/254/91 308/319/91 306/318/91
f 307/254/92 309/255/92 310/320/92 308/319/92
f 309/255/93 311/256/93 312/321/93 310/320/93
f 311/256/94 313/257/94 314/322/94 312/321/94
f 313/257/95 315/258/95 316/323/95 314/322/95
f 315/258/96 317/259/96 318/324/96 316/323/96
f 317/259/97 319/260/97 320/325/97 318/324/97
f 319/260/98 257/261/98 260/326/98 320/325/98
f 260/327/66 259/328/66 262/329/66 264/330/66
f 260/327/66 264/330/66 266/331/66 268/332/66
f 260/327/66 268/332/66 270/333/66 272/334/66
f 260/327/66 272/334/66 274/335/66 276/336/66
f 260/327/66 276/336/66 278/337/66 280/338/66
f 260/327/66 280/338/66 282/339/66 284/340/66
f 260/327/66 284/340/66 286/341/66 288/342/66
f 260/327/66 288/342/66 290/343/66 292/344/66
f 260/327/66 292/344/66 294/345/66 296/346/66
f 260/327/66 296/346/66 298/347/66 300/348/66
f 260/327/66 300/348/66 302/349/66 304/350/66
f 260/327/66 304/350/66 306/351/66 308/352/66
f 260/327/66 308/352/66 310/353/66 312/354/66
f 260/327/66 312/354/66 314/355/66 316/356/66
f 260/327/66 316/356/66 318/357/66 320/358/66
f 449/1/1 450/2/1 451/3/1 452/4/1
f 450/2/2 453/5/2 454/6/2 451/3/2
f 453/5/3 455/7/3 456/8/3 454/6/3
f 455/7/4 457/9/4 458/10/4 456/8/4
f 457/9/5 459/11/5 460/12/5 458/10/5
f 459/11/6 461/13/6 462/14/6 460/12/6
f 461/13/7 463/15/7 464/16/7 462/14/7
f 463/15/8 465/17/8 466/18/8 464/16/8
f 465/17/9 467/19/9 468/20/9 466/18/9
f 467/19/10 469/21/10 470/22/10 468/20/10
f 469/21/11 471/23/11 472/24/11 470/22/11
f 471/23/12 473/25/12 474/26/12 472/24/12
f 473/25/13 475/27/13 476/28/13 474/26/13
f 475/27/14 477/29/14 478/30/14 476/28/14
f 477/29/15 479/31/15 480/32/15 478/30/15
f 479/31/16 481/33/16 482/34/16 480/32/16
f 481/33/17 483/35/17 484/36/17 482/34/17
f 483/35/18 485/37/18 486/38/18 484/36/18
f 485/37/19 487/39/19 488/40/19 486/38/19
f 487/39/20 489/41/20 490/42/20 488/40/20
f 489/41/21 491/43/21 492/44/21 490/42/21
f 491/43/22 493/45/22 494/46/22 492/44/22
f 493/45/23 495/47/23 496/48/23 494/46/23
f 495/47/24 497/49/24 498/50/24 496/48/24
f 497/49/25 499/51/25 500/52/25 498/50/25
f 499/51/26 501/53/26 502/54/26 500/52/26
f 501/53/27 503/55/27 504/56/27 502/54/27
f 503/55/28 505/57/28 506/58/28 504/56/28
f 505/57/29 507/59/29 508/60/29 506/58/29
f 507/59/30 509/61/30 510/62/30 508/60/30
f 509/61/31 511/63/31 512/64/31 510/62/31
f 511/63/32 449/65/32 452/66/32 512/64/32
f 511/67/33 509/68/33 507/69/33 505/70/33
f 511/67/33 505/70/33 503/71/33 501/72/33
f 511/67/33 501/72/33 499/73/33 497/74/33
f 511/67/33 497/74/33 495/75/33 493/76/33
f 511/67/33 493/76/33 491/77/33 489/78/33
f 511/67/33 489/78/33 487/79/33 485/80/33
f 511/67/33 485/80/33 483/81/33 481/82/33
f 511/67/33 481/82/33 479/83/33 477/84/33
f 511/67/33 477/84/33 475/85/33 473/86/33
f 511/67/33 473/86/33 471/87/33 469/88/33
f 511/67/33 469/88/33 467/89/33 465/90/33
f 511/67/33 465/90/33 463/91/33 461/92/33
f 511/67/33 461/92/33 459/93/33 457/94/33
f 511/67/33 457/94/33 455/95/33 453/96/33
f 511/67/33 453/96/33 450/97/33 449/98/33
f 513/4/34 514/3/34 515/99/34 516/100/34
f 514/3/35 517/6/35 518/101/35 515/99/35
f 517/6/36 519/8/36 520/102/36 518/101/36
f 519/8/37 521/10/37 522/103/37 520/102/37
f 521/10/38 523/12/38 524/104/38 522/103/38
f 523/12/39 525/14/39 526/105/39 524/104/39
f 525/14/40 527/16/40 528/106/40 526/105/40
f 527/16/41 529/18/41 530/107/41 528/106/41
f 529/18/42 531/20/42 532/108/42 530/107/42
f 531/20/43 533/22/43 534/109/43 532/108/43
f 533/22/44 535/24/44 536/110/44 534/109/44
f 535/24/45 537/26/45 538/111/45 536/110/45
f 537/26/46 539/28/46 540/112/46 538/111/46
f 539/28/47 541/30/47 542/113/47 540/112/47
f 541/30/48 543/32/48 544/114/48 542/113/48
f 543/32/49 545/34/49 546/115/49 544/114/49
f 545/34/50 547/36/50 548/116/50 546/115/50
f 547/36/51 549/38/51 550/117/51 548/116/51
f 549/38/52 551/40/52 552/118/52 550/117/52
f 551/40/53 553/42/53 554/119/53 552/118/53
f 553/42/54 555/44/54 556/120/54 554/119/54
f 555/44/55 557/46/55 558/121/55 556/120/55
f 557/46/56 559/48/56 560/122/56 558/121/56
f 559/48/57 561/50/57 562/123/57 560/122/57
f 561/50/58 563/52/58 564/124/58 562/123/58
f 563/52/59 565/54/59 566/125/59 564/124/59
f 565/54/60 567/56/60 568/126/60 566/125/60
f 567/56/61 569/58/61 570/127/61 568/126/61
f 569/58/62 571/60/62 572/128/62 570/127/62
f 571/60/63 573/62/63 574/129/63 572/128/63
f 573/62/64 575/64/64 576/130/64 574/129/64
f 575/64/65 513/66/65 516/131/65 576/130/65
f 575/132/33 573/133/33 571/134/33 569/135/33
f 575/132/33 569/135/33 567/136/33 565/137/33
f 575/132/33 565/137/33 563/138/33 561/139/33
f 575/132/33 561/139/33 559/140/33 557/141/33
f 575/132/33 557/141/33 555/142/33 553/143/33
f 575/132/33 553/143/33 551/144/33 549/145/33
f 575/132/33 549/145/33 547/146/33 545/147/33
f 575/132/33 545/147/33 543/148/33 541/149/33
f 575/132/33 541/149/33 539/150/33 537/151/33
f 575/132/33 537/151/33 535/152/33 533/153/33
f 575/132/33 533/153/33 531/154/33 529/155/33
f 575/132/33 529/155/33 527/156/33 525/157/33
f 575/132/33 525/157/33 523/158/33 521/159/33
f 575/132/33 521/159/33 519/160/33 517/161/33
f 575/132/33 517/161/33 514/162/33 513/163/33
f 577/100/34 578/99/34 579/164/34 580/165/34
f 578/99/35 581/101/35 582/166/35 579/164/35
f 581/101/36 583/102/36 584/167/36 582/166/36
f 583/102/37 585/103/37 586/168/37 584/167/37
f 585/103/38 587/104/38 588/169/38 586/168/38
f 587/104/39 589/105/39 590/170/39 588/169/39
f 589/105/40 591/106/40 592/171/40 590/170/40
f 591/106/41 593/107/41 594/172/41 592/171/41
f 593/107/42 595/108/42 596/173/42 594/172/42
f 595/108/43 597/109/43 598/174/43 596/173/43
f 597/109/44 599/110/44 600/175/44 598/174/44
f 599/110/45 601/111/45 602/176/45 600/175/45
f 601/111/46 603/112/46 604/177/46 602/176/46
f 603/112/47 605/113/47 606/178/47 604/177/47
f 605/113/48 607/114/48 608/179/48 606/178/48
f 607/114/49 609/115/49 610/180/49 608/179/49
f 609/115/50 611/116/50 612/181/50 610/180/50
f 611/116/51 613/117/51 614/182/51 612/181/51
f 613/117/52 615/118/52 616/183/52 614/182/52
f 615/118/53 617/119/53 618/184/53 616/183/53
f 617/119/54 619/120/54 620/185/54 618/184/54
f 619/120/55 621/121/55 622/186/55 620/185/55
f 621/121/56 623/122/56 624/187/56 622/186/56
f 623/122/57 625/123/57 626/188/57 624/187/57
f 625/123/58 627/124/58 628/189/58 626/188/58
f 627/124/59 629/125/59 630/190/59 628/189/59
f 629/125/60 631/126/60 632/191/60 630/190/60
f 631/126/61 633/127/61 634/192/61 632/191/61
f 633/127/62 635/128/62 636/193/62 634/192/62
f 635/128/63 637/129/63 638/194/63 636/193/63
f 637/129/64 639/130/64 640/195/64 638/194/64
f 639/130/65 577/131/65 580/196/65 640/195/65
f 639/197/33 637/198/33 635/199/33 633/200/33
f 639/197/33 633/200/33 631/201/33 629/202/33
f 639/197/33 629/202/33 627/203/33 625/204/33
f 639/197/33 625/204/33 623/205/33 621/206/33
f 639/197/33 621/206/33 619/207/33 617/208/33
f 639/197/33 617/208/33 615/209/33 613/210/33
f 639/197/33 613/210/33 611/211/33 609/212/33
f 639/197/33 609/212/33 607/213/33 605/214/33
f 639/197/33 605/214/33 603/215/33 601/216/33
f 639/197/33 601/216/33 599/217/33 597/218/33
f 639/197/33 597/218/33 595/219/33 593/220/33
f 639/197/33 593/220/33 591/221/33 589/222/33
f 639/197/33 589/222/33 587/223/33 585/224/33
f 639/197/33 585/224/33 583/225/33 581/226/33
f 639/197/33 581/226/33 578/227/33 577/228/33
f 580/228/66 579/227/66 582/226/66 584/225/66
f 580/228/66 584/225/66 586/224/66 588/223/66
f 580/228/66 588/223/66 590/222/66 592/221/66
f 580/228/66 592/221/66 594/220/66 596/219/66
f 580/228/66 596/219/66 598/218/66 600/217/66
f 580/228/66 600/217/66 602/216/66 604/215/66
f 580/228/66 604/215/66 606/214/66 608/213/66
f 580/228/66 608/213/66 610/212/66 612/211/66
f 580/228/66 612/211/66 614/210/66 616/209/66
f 580/228/66 616/209/66 618/208/66 620/207/66
f 580/228/66 620/207/66 622/206/66 624/205/66
f 580/228/66 624/205/66 626/204/66 628/203/66
f 580/228/66 628/203/66 630/202/66 632/201/66
f 580/228/66 632/201/66 634/200/66 636/199/66
f 580/228/66 636/199/66 638/198/66 640/197/66
f 641/165/34 642/164/34 643/229/34 644/230/34
f 642/164/35 645/166/35 646/231/35 643/229/35
f 645/166/36 647/167/36 648/232/36 646/231/36
f 647/167/37 649/168/37 650/233/37 648/232/37
f 649/168/38 651/169/38 652/234/38 650/233/38
f 651/169/39 653/170/39 654/235/39 652/234/39
f 653/170/40 655/171/40 656/236/40 654/235/40
f 655/171/41 657/172/41 658/237/41 656/236/41
f 657/172/42 659/173/42 660/238/42 658/237/42
f 659/173/43 661/174/43 662/239/43 660/238/43
f 661/174/44 663/175/44 664/240/44 662/239/44
f 663/175/45 665/176/45 666/241/45 664/240/45
f 665/176/46 667/177/46 668/242/46 666/241/46
f 667/177/47 669/178/47 670/243/47 668/242/47
f 669/178/48 671/179/48 672/244/48 670/243/48
f 671/179/49 673/180/49 674/245/49 672/244/49
f 673/180/50 675/181/50 676/246/50 674/245/50
f 675/181/51 677/182/51 678/247/51 676/246/51
f 677/182/52 679/183/52 680/248/52 678/247/52
f 679/183/53 681/184/53 682/249/53 680/248/53
f 681/184/54 683/185/54 684/250/54 682/249/54
f 683/185/55 685/186/55 686/251/55 684/250/55
f 685/186/56 687/187/56 688/252/56 686/251/56
f 687/187/57 689/188/57 690/253/57 688/252/57
f 689/188/58 691/189/58 692/254/58 690/253/58
f 691/189/59 693/190/59 694/255/59 692/254/59
f 693/190/60 695/191/60 696/256/60 694/255/60
f 695/191/61 697/192/61 698/257/61 696/256/61
f 697/192/62 699/193/62 700/258/62 698/257/62
f 699/193/63 701/194/63 702/259/63 700/258/63
f 701/194/64 703/195/64 704/260/64 702/259/64
f 703/195/65 641/196/65 644/261/65 704/260/65
f 644/262/66 643/263/66 646/264/66 648/265/66
f 644/262/66 648/265/66 650/266/66 652/267/66
f 644/262/66 652/267/66 654/268/66 656/269/66
f 644/262/66 656/269/66 658/270/66 660/271/66
f 644/262/66 660/271/66 662/272/66 664/273/66
f 644/262/66 664/273/66 666/274/66 668/275/66
f 644/262/66 668/275/66 670/276/66 672/277/66
f 644/262/66 672/277/66 674/278/66 676/279/66
f 644/262/66 676/279/66 678/280/66 680/281/66
f 644/262/66 680/281/66 682/282/66 684/283/66
f 644/262/66 684/283/66 686/284/66 688/285/66
f 644/262/66 688/285/66 690/286/66 692/287/66
f 644/262/66 692/287/66 694/288/66 696/289/66
f 644/262/66 696/289/66 698/290/66 700/291/66
f 644/262/66 700/291/66 702/292/66 704/293/66
f 705/230/67 706/229/67 707/294/67 708/295/67
f 706/229/68 709/231/68 710/296/68 707/294/68
f 709/231/69 711/232/69 712/297/69 710/296/69
f 711/232/70 713/233/70 714/298/70 712/297/70
f 713/233/71 715/234/71 716/299/71 714/298/71
f 715/234/72 717/235/72 718/300/72 716/299/72
f 717/235/73 719/236/73 720/301/73 718/300/73
f 719/236/74 721/237/74 722/302/74 720/301/74
f 721/237/75 723/238/75 724/303/75 722/302/75
f 723/238/76 725/239/76 726/304/76 724/303/76
f 725/239/77 727/240/77 728/305/77 726/304/77
f 727/240/78 729/241/78 730/306/78 728/305/78
f 729/241/79 731/242/79 732/307/79 730/306/79
f 731/242/80 733/243/80 734/308/80 732/307/80
f 733/243/81 735/244/81 736/309/81 734/308/81
f 735/244/82 737/245/82 738/310/82 736/309/82
f 737/245/83 739/246/83 740/311/83 738/310/83
f 739/246/84 741/247/84 742/312/84 740/311/84
f 741/247/85 743/248/85 744/313/85 742/312/85
f 743/248/86 745/249/86 746/314/86 744/313/86
f 745/249/87 747/250/87 748/315/87 746/314/87
f 747/250/88 749/251/88 750/316/88 748/315/88
f 749/251/89 751/252/89 752/317/89 750/316/89
f 751/252/90 753/253/90 754/318/90 752/317/90
f 753/253/91 755/254/91 756/319/91 754/318/91
f 755/254/92 757/255/92 758/320/92 756/319/92
f 757/255/93 759/256/93 760/321/93 758/320/93
f 759/256/94 761/257/94 762/322/94 760/321/94
f 761/257/95 763/258/95 764/323/95 762/322/95
f 763/258/96 765/259/96 766/324/96 764/323/96
f 765/259/97 767/260/97 768/325/97 766/324/97
f 767/260/98 705/261/98 708/326/98 768/325/98
f 708/327/66 707/328/66 710/329/66 712/330/66
f 708/327/66 712/330/66 714/331/66 716/332/66
f 708/327/66 716/332/66 718/333/66 720/334/66
f 708/327/66 720/334/66 722/335/66 724/336/66
f 708/327/66 724/336/66 726/337/66 728/338/66
f 708/327/66 728/338/66 730/339/66 732/340/66
f 708/327/66 732/340/66 734/341/66 736/342/66
f 708/327/66 736/342/66 738/343/66 740/344/66
f 708/327/66 740/344/66 742/345/66 744/346/66
f 708/327/66 744/346/66 746/347/66 748/348/66
f 708/327/66 748/348/66 750/349/66 752/350/66
f 708/327/66 752/350/66 754/351/66 756/352/66
f 708/327/66 756/352/66 758/353/66 760/354/66
f 708/327/66 760/354/66 762/355/66 764/356/66
f 708/327/66 764/356/66 766/357/66 768/358/66
o cable
usemtl core
f 321/1/99 322/2/99 323/294/99 324/295/99
f 322/2/100 325/5/100 326/296/100 323/294/100
f 325/5/101 327/7/101 328/297/101 326/296/101
f 327/7/102 329/9/102 330/298/102 328/297/102
f 329/9/103 331/11/103 332/299/103 330/298/103
f 331/11/104 333/13/104 334/300/104 332/299/104
f 333/13/105 335/15/105 336/301/105 334/300/105
f 335/15/106 337/17/106 338/302/106 336/301/106
f 337/17/107 339/19/107 340/303/107 338/302/107
f 339/19/108 341/21/108 342/304/108 340/303/108
f 341/21/109 343/23/109 344/305/109 342/304/109
f 343/23/110 345/25/110 346/306/110 344/305/110
f 345/25/111 347/27/111 348/307/111 346/306/111
f 347/27/112 349/29/112 350/308/112 348/307/112
f 349/29/113 351/31/113 352/309/113 350/308/113
f 351/31/114 353/33/114 354/310/114 352/309/114
f 353/33/115 355/35/115 356/311/115 354/310/115
f 355/35/116 357/37/116 358/312/116 356/311/116
f 357/37/117 359/39/117 360/313/117 358/312/117
f 359/39/118 361/41/118 362/314/118 360/313/118
f 361/41/119 363/43/119 364/315/119 362/314/119
f 363/43/120 365/45/120 366/316/120 364/315/120
f 365/45/121 367/47/121 368/317/121 366/316/121
f 367/47/122 369/49/122 370/318/122 368/317/122
f 369/49/123 371/51/123 372/319/123 370/318/123
f 371/51/124 373/53/124 374/320/124 372/319/124
f 373/53/125 375/55/125 376/321/125 374/320/125
f 375/55/126 377/57/126 378/322/126 376/321/126
f 377/57/127 379/59/127 380/323/127 378/322/127
f 379/59/128 381/61/128 382/324/128 380/323/128
f 381/61/129 383/63/129 384/325/129 382/324/129
f 383/63/130 321/65/130 324/326/130 384/325/130
f 324/359/131 323/360/131 326/361/131 328/362/131 330/363/131 332/364/131 334/365/131 336/366/131 338/310/131 340/367/131 342/368/131 344/369/131 346/370/131 348/371/131 350/372/131 352/373/131 354/374/131 356/375/131 358/376/131 360/377/131 362/378/131 364/379/131 366/380/131 368/381/131 370/33/131 372/382/131 374/383/131 376/384/131 378/385/131 380/386/131 382/387/131 384/388/131
f 385/1/132 386/2/132 387/294/132 388/295/132
f 386/2/133 389/5/133 390/296/133 387/294/133
f 389/5/134 391/7/134 392/297/134 390/296/134
f 391/7/135 393/9/135 394/298/135 392/297/135
f 393/9/136 395/11/136 396/299/136 394/298/136
f 395/11/137 397/13/137 398/300/137 396/299/137
f 397/13/138 399/15/138 400/301/138 398/300/138
f 399/15/139 401/17/139 402/302/139 400/301/139
f 401/17/140 403/19/140 404/303/140 402/302/140
f 403/19/141 405/21/141 406/304/141 404/303/141
f 405/21/142 407/23/142 408/305/142 406/304/142
f 407/23/143 409/25/143 410/306/143 408/305/143
f 409/25/144 411/27/144 412/307/144 410/306/144
f 411/27/145 413/29/145 414/308/145 412/307/145
f 413/29/146 415/31/146 416/309/146 414/308/146
f 415/31/147 417/33/147 418/310/147 416/309/147
f 417/33/148 419/35/148 420/311/148 418/310/148
f 419/35/149 421/37/149 422/312/149 420/311/149
f 421/37/150 423/39/150 424/313/150 422/312/150
f 423/39/151 425/41/151 426/314/151 424/313/151
f 425/41/152 427/43/152 428/315/152 426/314/152
f 427/43/153 429/45/153 430/316/153 428/315/153
f 429/45/154 431/47/154 432/317/154 430/316/154
f 431/47/155 433/49/155 434/318/155 432/317/155
f 433/49/156 435/51/156 436/319/156 434/318/156
f 435/51/157 437/53/157 438/320/157 436/319/157
f 437/53/158 439/55/158 440/321/158 438/320/158
f 439/55/159 441/57/159 442/322/159 440/321/159
f 441/57/160 443/59/160 444/323/160 442/322/160
f 443/59/161 445/61/161 446/324/161 444/323/161
f 445/61/162 447/63/162 448/325/162 446/324/162
f 447/63/163 385/65/163 388/326/163 448/325/163
f 447/388/164 445/387/164 443/386/164 441/385/164 439/384/164 437/383/164 435/382/164 433/33/164 431/381/164 429/380/164 427/379/164 425/378/164 423/377/164 421/376/164 419/375/164 417/374/164 415/373/164 413/372/164 411/371/164 409/370/164 407/369/164 405/368/164 403/367/164 401/310/164 399/366/164 397/365/164 395/364/164 393/363/164 391/362/164 389/361/164 386/360/164 385/359/164
f 769/1/165 770/2/165 771/294/165 772/295/165
f 770/2/166 773/5/166 774/296/166 771/294/166
f 773/5/167 775/7/167 776/297/167 774/296/167
f 775/7/168 777/9/168 778/298/168 776/297/168
f 777/9/169 779/11/169 780/299/169 778/298/169
f 779/11/170 781/13/170 782/300/170 780/299/170
f 781/13/171 783/15/171 784/301/171 782/300/171
f 783/15/172 785/17/172 786/302/172 784/301/172
f 785/17/173 787/19/173 788/303/173 786/302/173
f 787/19/174 789/21/174 790/304/174 788/303/174
f 789/21/175 791/23/175 792/305/175 790/304/175
f 791/23/176 793/25/176 794/306/176 792/305/176
f 793/25/177 795/27/177 796/307/177 794/306/177
f 795/27/178 797/29/178 798/308/178 796/307/178
f 797/29/179 799/31/179 800/309/179 798/308/179
f 799/31/180 801/33/180 802/310/180 800/309/180
f 801/33/181 803/35/181 804/311/181 802/310/181
f 803/35/182 805/37/182 806/312/182 804/311/182
f 805/37/183 807/39/183 808/313/183 806/312/183
f 807/39/184 809/41/184 810/314/184 808/313/184
f 809/41/185 811/43/185 812/315/185 810/314/185
f 811/43/186 813/45/186 814/316/186 812/315/186
f 813/45/187 815/47/187 816/317/187 814/316/187
f 815/47/188 817/49/188 818/318/188 816/317/188
f 817/49/189 819/51/189 820/319/189 818/318/189
f 819/51/190 821/53/190 822/320/190 820/319/190
f 821/53/191 823/55/191 824/321/191 822/320/191
f 823/55/192 825/57/192 826/322/192 824/321/192
f 825/57/193 827/59/193 828/323/193 826/322/193
f 827/59/194 829/61/194 830/324/194 828/323/194
f 829/61/195 831/63/195 832/325/195 830/324/195
f 831/63/196 769/65/196 772/326/196 832/325/196
f 772/359/197 771/360/197 774/361/197 776/362/197 778/363/197 780/364/197 782/365/197 784/366/197 786/310/197 788/367/197 790/368/197 792/369/197 794/370/197 796/371/197 798/372/197 800/373/197 802/374/197 804/375/197 806/376/197 808/377/197 810/378/197 812/379/197 814/380/197 816/381/197 818/33/197 820/382/197 822/383/197 824/384/197 826/385/197 828/386/197 830/387/197 832/388/197
f 833/1/198 834/2/198 835/294/198 836/295/198
f 834/2/199 837/5/199 838/296/199 835/294/199
f 837/5/200 839/7/200 840/297/200 838/296/200
f 839/7/201 841/9/201 842/298/201 840/297/201
f 841/9/202 843/11/202 844/299/202 842/298/202
f 843/11/203 845/13/203 846/300/203 844/299/203
f 845/13/204 847/15/204 848/301/204 846/300/204
f 847/15/205 849/17/205 850/302/205 848/301/205
f 849/17/206 851/19/206 852/303/206 850/302/206
f 851/19/207 853/21/207 854/304/207 852/303/207
f 853/21/208 855/23/208 856/305/208 854/304/208
f 855/23/209 857/25/209 858/306/209 856/305/209
f 857/25/210 859/27/210 860/307/210 858/306/210
f 859/27/211 861/29/211 862/308/211 860/307/211
f 861/29/212 863/31/212 864/309/212 862/308/212
f 863/31/213 865/33/213 866/310/213 864/309/213
f 865/33/214 867/35/214 868/311/214 866/310/214
f 867/35/215 869/37/215 870/312/215 868/311/215
f 869/37/216 871/39/216 872/313/216 870/312/216
f 871/39/217 873/41/217 874/314/217 872/313/217
f 873/41/218 875/43/218 876/315/218 874/314/218
f 875/43/219 877/45/219 878/316/219 876/315/219
f 877/45/220 879/47/220 880/317/220 878/316/220
f 879/47/221 881/49/221 882/318/221 880/317/221
f 881/49/222 883/51/222 884/319/222 882/318/222
f 883/51/223 885/53/223 886/320/223 884/319/223
f 885/53/224 887/55/224 888/321/224 886/320/224
f 887/55/225 889/57/225 890/322/225 888/321/225
f 889/57/226 891/59/226 892/323/226 890/322/226
f 891/59/227 893/61/227 894/324/227 892/323/227
f 893/61/228 895/63/228 896/325/228 894/324/228
f 895/63/229 833/65/229 836/326/229 896/325/229
f 895/388/230 893/387/230 891/386/230 889/385/230 887/384/230 885/383/230 883/382/230 881/33/230 879/381/230 877/380/230 875/379/230 873/378/230 871/377/230 869/376/230 867/375/230 865/374/230 863/373/230 861/372/230 859/371/230 857/370/230 855/369/230 853/368/230 851/367/230 849/310/230 847/366/230 845/365/230 843/364/230 841/363/230 839/362/230 837/361/230 834/360/230 833/359/230
