# generated by tools/gen_trunk_models.py - do not edit by hand
mtllib dc_trunk_cable_trench_line.mtl
v 0.371875 0.725000 0.181250
v 0.354805 0.723319 0.181250
v 0.347481 0.760135 0.237500
v 0.371875 0.762537 0.237500
v 0.338390 0.718339 0.181250
v 0.324025 0.753020 0.237500
v 0.323263 0.710254 0.181250
v 0.302408 0.741465 0.237500
v 0.310003 0.699372 0.181250
v 0.283460 0.725915 0.237500
v 0.299121 0.686112 0.181250
v 0.267910 0.706967 0.237500
v 0.291036 0.670985 0.181250
v 0.256355 0.685350 0.237500
v 0.286056 0.654570 0.181250
v 0.249240 0.661894 0.237500
v 0.284375 0.637500 0.181250
v 0.246838 0.637500 0.237500
v 0.286056 0.620430 0.181250
v 0.249240 0.613106 0.237500
v 0.291036 0.604015 0.181250
v 0.256355 0.589650 0.237500
v 0.299121 0.588888 0.181250
v 0.267910 0.568033 0.237500
v 0.310003 0.575628 0.181250
v 0.283460 0.549085 0.237500
v 0.323263 0.564746 0.181250
v 0.302408 0.533535 0.237500
v 0.338390 0.556661 0.181250
v 0.324025 0.521980 0.237500
v 0.354805 0.551681 0.181250
v 0.347481 0.514865 0.237500
v 0.371875 0.550000 0.181250
v 0.371875 0.512462 0.237500
v 0.388945 0.551681 0.181250
v 0.396269 0.514865 0.237500
v 0.405360 0.556661 0.181250
v 0.419725 0.521980 0.237500
v 0.420487 0.564746 0.181250
v 0.441342 0.533535 0.237500
v 0.433747 0.575628 0.181250
v 0.460290 0.549085 0.237500
v 0.444629 0.588888 0.181250
v 0.475840 0.568033 0.237500
v 0.452714 0.604015 0.181250
v 0.487395 0.589650 0.237500
v 0.457694 0.620430 0.181250
v 0.494510 0.613106 0.237500
v 0.459375 0.637500 0.181250
v 0.496912 0.637500 0.237500
v 0.457694 0.654570 0.181250
v 0.494510 0.661894 0.237500
v 0.452714 0.670985 0.181250
v 0.487395 0.685350 0.237500
v 0.444629 0.686112 0.181250
v 0.475840 0.706967 0.237500
v 0.433747 0.699372 0.181250
v 0.460290 0.725915 0.237500
v 0.420487 0.710254 0.181250
v 0.441342 0.741465 0.237500
v 0.405360 0.718339 0.181250
v 0.419725 0.753020 0.237500
v 0.388945 0.723319 0.181250
v 0.396269 0.760135 0.237500
v 0.371875 0.765625 0.237500
v 0.346879 0.763163 0.237500
v 0.346879 0.763163 0.275000
v 0.371875 0.765625 0.275000
v 0.322844 0.755872 0.237500
v 0.322844 0.755872 0.275000
v 0.300693 0.744032 0.237500
v 0.300693 0.744032 0.275000
v 0.281277 0.728098 0.237500
v 0.281277 0.728098 0.275000
v 0.265343 0.708682 0.237500
v 0.265343 0.708682 0.275000
v 0.253503 0.686531 0.237500
v 0.253503 0.686531 0.275000
v 0.246212 0.662496 0.237500
v 0.246212 0.662496 0.275000
v 0.243750 0.637500 0.237500
v 0.243750 0.637500 0.275000
v 0.246212 0.612504 0.237500
v 0.246212 0.612504 0.275000
v 0.253503 0.588469 0.237500
v 0.253503 0.588469 0.275000
v 0.265343 0.566318 0.237500
v 0.265343 0.566318 0.275000
v 0.281277 0.546902 0.237500
v 0.281277 0.546902 0.275000
v 0.300693 0.530968 0.237500
v 0.300693 0.530968 0.275000
v 0.322844 0.519128 0.237500
v 0.322844 0.519128 0.275000
v 0.346879 0.511837 0.237500
v 0.346879 0.511837 0.275000
v 0.371875 0.509375 0.237500
v 0.371875 0.509375 0.275000
v 0.396871 0.511837 0.237500
v 0.396871 0.511837 0.275000
v 0.420906 0.519128 0.237500
v 0.420906 0.519128 0.275000
v 0.443057 0.530968 0.237500
v 0.443057 0.530968 0.275000
v 0.462473 0.546902 0.237500
v 0.462473 0.546902 0.275000
v 0.478407 0.566318 0.237500
v 0.478407 0.566318 0.275000
v 0.490247 0.588469 0.237500
v 0.490247 0.588469 0.275000
v 0.497538 0.612504 0.237500
v 0.497538 0.612504 0.275000
v 0.500000 0.637500 0.237500
v 0.500000 0.637500 0.275000
v 0.497538 0.662496 0.237500
v 0.497538 0.662496 0.275000
v 0.490247 0.686531 0.237500
v 0.490247 0.686531 0.275000
v 0.478407 0.708682 0.237500
v 0.478407 0.708682 0.275000
v 0.462473 0.728098 0.237500
v 0.462473 0.728098 0.275000
v 0.443057 0.744032 0.237500
v 0.443057 0.744032 0.275000
v 0.420906 0.755872 0.237500
v 0.420906 0.755872 0.275000
v 0.396871 0.763163 0.237500
v 0.396871 0.763163 0.275000
v 0.371875 0.775000 0.275000
v 0.345050 0.772358 0.275000
v 0.345050 0.772358 0.406250
v 0.371875 0.775000 0.406250
v 0.319256 0.764533 0.275000
v 0.319256 0.764533 0.406250
v 0.295484 0.751827 0.275000
v 0.295484 0.751827 0.406250
v 0.274648 0.734727 0.275000
v 0.274648 0.734727 0.406250
v 0.257548 0.713891 0.275000
v 0.257548 0.713891 0.406250
v 0.244842 0.690119 0.275000
v 0.244842 0.690119 0.406250
v 0.237017 0.664325 0.275000
v 0.237017 0.664325 0.406250
v 0.234375 0.637500 0.275000
v 0.234375 0.637500 0.406250
v 0.237017 0.610675 0.275000
v 0.237017 0.610675 0.406250
v 0.244842 0.584881 0.275000
v 0.244842 0.584881 0.406250
v 0.257548 0.561109 0.275000
v 0.257548 0.561109 0.406250
v 0.274648 0.540273 0.275000
v 0.274648 0.540273 0.406250
v 0.295484 0.523173 0.275000
v 0.295484 0.523173 0.406250
v 0.319256 0.510467 0.275000
v 0.319256 0.510467 0.406250
v 0.345050 0.502642 0.275000
v 0.345050 0.502642 0.406250
v 0.371875 0.500000 0.275000
v 0.371875 0.500000 0.406250
v 0.398700 0.502642 0.275000
v 0.398700 0.502642 0.406250
v 0.424494 0.510467 0.275000
v 0.424494 0.510467 0.406250
v 0.448266 0.523173 0.275000
v 0.448266 0.523173 0.406250
v 0.469102 0.540273 0.275000
v 0.469102 0.540273 0.406250
v 0.486202 0.561109 0.275000
v 0.486202 0.561109 0.406250
v 0.498908 0.584881 0.275000
v 0.498908 0.584881 0.406250
v 0.506733 0.610675 0.275000
v 0.506733 0.610675 0.406250
v 0.509375 0.637500 0.275000
v 0.509375 0.637500 0.406250
v 0.506733 0.664325 0.275000
v 0.506733 0.664325 0.406250
v 0.498908 0.690119 0.275000
v 0.498908 0.690119 0.406250
v 0.486202 0.713891 0.275000
v 0.486202 0.713891 0.406250
v 0.469102 0.734727 0.275000
v 0.469102 0.734727 0.406250
v 0.448266 0.751827 0.275000
v 0.448266 0.751827 0.406250
v 0.424494 0.764533 0.275000
v 0.424494 0.764533 0.406250
v 0.398700 0.772358 0.275000
v 0.398700 0.772358 0.406250
v 0.371875 0.765625 0.406250
v 0.346879 0.763163 0.406250
v 0.346879 0.763163 0.443750
v 0.371875 0.765625 0.443750
v 0.322844 0.755872 0.406250
v 0.322844 0.755872 0.443750
v 0.300693 0.744032 0.406250
v 0.300693 0.744032 0.443750
v 0.281277 0.728098 0.406250
v 0.281277 0.728098 0.443750
v 0.265343 0.708682 0.406250
v 0.265343 0.708682 0.443750
v 0.253503 0.686531 0.406250
v 0.253503 0.686531 0.443750
v 0.246212 0.662496 0.406250
v 0.246212 0.662496 0.443750
v 0.243750 0.637500 0.406250
v 0.243750 0.637500 0.443750
v 0.246212 0.612504 0.406250
v 0.246212 0.612504 0.443750
v 0.253503 0.588469 0.406250
v 0.253503 0.588469 0.443750
v 0.265343 0.566318 0.406250
v 0.265343 0.566318 0.443750
v 0.281277 0.546902 0.406250
v 0.281277 0.546902 0.443750
v 0.300693 0.530968 0.406250
v 0.300693 0.530968 0.443750
v 0.322844 0.519128 0.406250
v 0.322844 0.519128 0.443750
v 0.346879 0.511837 0.406250
v 0.346879 0.511837 0.443750
v 0.371875 0.509375 0.406250
v 0.371875 0.509375 0.443750
v 0.396871 0.511837 0.406250
v 0.396871 0.511837 0.443750
v 0.420906 0.519128 0.406250
v 0.420906 0.519128 0.443750
v 0.443057 0.530968 0.406250
v 0.443057 0.530968 0.443750
v 0.462473 0.546902 0.406250
v 0.462473 0.546902 0.443750
v 0.478407 0.566318 0.406250
v 0.478407 0.566318 0.443750
v 0.490247 0.588469 0.406250
v 0.490247 0.588469 0.443750
v 0.497538 0.612504 0.406250
v 0.497538 0.612504 0.443750
v 0.500000 0.637500 0.406250
v 0.500000 0.637500 0.443750
v 0.497538 0.662496 0.406250
v 0.497538 0.662496 0.443750
v 0.490247 0.686531 0.406250
v 0.490247 0.686531 0.443750
v 0.478407 0.708682 0.406250
v 0.478407 0.708682 0.443750
v 0.462473 0.728098 0.406250
v 0.462473 0.728098 0.443750
v 0.443057 0.744032 0.406250
v 0.443057 0.744032 0.443750
v 0.420906 0.755872 0.406250
v 0.420906 0.755872 0.443750
v 0.396871 0.763163 0.406250
v 0.396871 0.763163 0.443750
v 0.371875 0.762500 0.443750
v 0.347489 0.760098 0.443750
v 0.354805 0.723319 0.500000
v 0.371875 0.725000 0.500000
v 0.324040 0.752985 0.443750
v 0.338390 0.718339 0.500000
v 0.302429 0.741434 0.443750
v 0.323263 0.710254 0.500000
v 0.283487 0.725888 0.443750
v 0.310003 0.699372 0.500000
v 0.267941 0.706946 0.443750
v 0.299121 0.686112 0.500000
v 0.256390 0.685335 0.443750
v 0.291036 0.670985 0.500000
v 0.249277 0.661886 0.443750
v 0.286056 0.654570 0.500000
v 0.246875 0.637500 0.443750
v 0.284375 0.637500 0.500000
v 0.249277 0.613114 0.443750
v 0.286056 0.620430 0.500000
v 0.256390 0.589665 0.443750
v 0.291036 0.604015 0.500000
v 0.267941 0.568054 0.443750
v 0.299121 0.588888 0.500000
v 0.283487 0.549112 0.443750
v 0.310003 0.575628 0.500000
v 0.302429 0.533566 0.443750
v 0.323263 0.564746 0.500000
v 0.324040 0.522015 0.443750
v 0.338390 0.556661 0.500000
v 0.347489 0.514902 0.443750
v 0.354805 0.551681 0.500000
v 0.371875 0.512500 0.443750
v 0.371875 0.550000 0.500000
v 0.396261 0.514902 0.443750
v 0.388945 0.551681 0.500000
v 0.419710 0.522015 0.443750
v 0.405360 0.556661 0.500000
v 0.441321 0.533566 0.443750
v 0.420487 0.564746 0.500000
v 0.460263 0.549112 0.443750
v 0.433747 0.575628 0.500000
v 0.475809 0.568054 0.443750
v 0.444629 0.588888 0.500000
v 0.487360 0.589665 0.443750
v 0.452714 0.604015 0.500000
v 0.494473 0.613114 0.443750
v 0.457694 0.620430 0.500000
v 0.496875 0.637500 0.443750
v 0.459375 0.637500 0.500000
v 0.494473 0.661886 0.443750
v 0.457694 0.654570 0.500000
v 0.487360 0.685335 0.443750
v 0.452714 0.670985 0.500000
v 0.475809 0.706946 0.443750
v 0.444629 0.686112 0.500000
v 0.460263 0.725888 0.443750
v 0.433747 0.699372 0.500000
v 0.441321 0.741434 0.443750
v 0.420487 0.710254 0.500000
v 0.419710 0.752985 0.443750
v 0.405360 0.718339 0.500000
v 0.396261 0.760098 0.443750
v 0.388945 0.723319 0.500000
v 0.459375 0.587500 0.175000
v 0.457694 0.587500 0.157930
v 0.457694 0.606780 0.158850
v 0.459375 0.601250 0.175000
v 0.452714 0.587500 0.141515
v 0.452714 0.612098 0.143321
v 0.444629 0.587500 0.126388
v 0.444629 0.616999 0.129009
v 0.433747 0.587500 0.113128
v 0.433747 0.621295 0.116465
v 0.420487 0.587500 0.102246
v 0.420487 0.624820 0.106170
v 0.405360 0.587500 0.094161
v 0.405360 0.627440 0.098520
v 0.388945 0.587500 0.089181
v 0.388945 0.629053 0.093810
v 0.371875 0.587500 0.087500
v 0.371875 0.629597 0.092219
v 0.354805 0.587500 0.089181
v 0.354805 0.629053 0.093810
v 0.338390 0.587500 0.094161
v 0.338390 0.627440 0.098520
v 0.323263 0.587500 0.102246
v 0.323263 0.624820 0.106170
v 0.310003 0.587500 0.113128
v 0.310003 0.621295 0.116465
v 0.299121 0.587500 0.126388
v 0.299121 0.616999 0.129009
v 0.291036 0.587500 0.141515
v 0.291036 0.612098 0.143321
v 0.286056 0.587500 0.157930
v 0.286056 0.606780 0.158850
v 0.284375 0.587500 0.175000
v 0.284375 0.601250 0.175000
v 0.286056 0.587500 0.192070
v 0.286056 0.595720 0.191150
v 0.291036 0.587500 0.208485
v 0.291036 0.590402 0.206679
v 0.299121 0.585501 0.220991
v 0.299121 0.587500 0.223612
v 0.310003 0.581205 0.233535
v 0.310003 0.587500 0.236872
v 0.323263 0.577680 0.243830
v 0.323263 0.587500 0.247754
v 0.338390 0.575060 0.251480
v 0.338390 0.587500 0.255839
v 0.354805 0.573447 0.256190
v 0.354805 0.587500 0.260819
v 0.371875 0.572903 0.257781
v 0.371875 0.587500 0.262500
v 0.388945 0.573447 0.256190
v 0.388945 0.587500 0.260819
v 0.405360 0.575060 0.251480
v 0.405360 0.587500 0.255839
v 0.420487 0.577680 0.243830
v 0.420487 0.587500 0.247754
v 0.433747 0.581205 0.233535
v 0.433747 0.587500 0.236872
v 0.444629 0.585501 0.220991
v 0.444629 0.587500 0.223612
v 0.452714 0.587500 0.208485
v 0.452714 0.590402 0.206679
v 0.457694 0.587500 0.192070
v 0.457694 0.595720 0.191150
v 0.457694 0.647964 0.189638
v 0.459375 0.637500 0.203125
v 0.452714 0.658026 0.176669
v 0.444629 0.667299 0.164717
v 0.433747 0.675427 0.154241
v 0.420487 0.682098 0.145643
v 0.405360 0.687054 0.139255
v 0.388945 0.690107 0.135321
v 0.371875 0.691137 0.133993
v 0.354805 0.690107 0.135321
v 0.338390 0.687054 0.139255
v 0.323263 0.682098 0.145643
v 0.310003 0.675427 0.154241
v 0.299121 0.667299 0.164717
v 0.291036 0.658026 0.176669
v 0.286056 0.647964 0.189638
v 0.284375 0.637500 0.203125
v 0.286056 0.627036 0.216612
v 0.291036 0.616974 0.229581
v 0.299121 0.607701 0.241533
v 0.310003 0.599573 0.252009
v 0.323263 0.592902 0.260607
v 0.338390 0.587946 0.266995
v 0.354805 0.584893 0.270929
v 0.371875 0.583863 0.272257
v 0.388945 0.584893 0.270929
v 0.405360 0.587946 0.266995
v 0.420487 0.592902 0.260607
v 0.433747 0.599573 0.252009
v 0.444629 0.607701 0.241533
v 0.452714 0.616974 0.229581
v 0.457694 0.627036 0.216612
v 0.371875 0.724031 0.491113
v 0.354805 0.722368 0.490863
v 0.354805 0.673081 0.817637
v 0.371875 0.674757 0.817762
v 0.338390 0.717444 0.490124
v 0.338390 0.668115 0.817266
v 0.323263 0.709448 0.488924
v 0.323263 0.660052 0.816664
v 0.310003 0.698686 0.487309
v 0.310003 0.649200 0.815855
v 0.299121 0.685574 0.485341
v 0.299121 0.635978 0.814868
v 0.291036 0.670614 0.483095
v 0.291036 0.620892 0.813742
v 0.286056 0.654381 0.480659
v 0.286056 0.604523 0.812520
v 0.284375 0.637500 0.478125
v 0.284375 0.587500 0.811250
v 0.286056 0.620619 0.475591
v 0.286056 0.570477 0.809980
v 0.291036 0.604386 0.473155
v 0.291036 0.554108 0.808758
v 0.299121 0.589426 0.470909
v 0.299121 0.539022 0.807632
v 0.310003 0.576314 0.468941
v 0.310003 0.525800 0.806645
v 0.323263 0.565552 0.467326
v 0.323263 0.514948 0.805836
v 0.338390 0.557556 0.466126
v 0.338390 0.506885 0.805234
v 0.354805 0.552632 0.465387
v 0.354805 0.501919 0.804863
v 0.371875 0.550969 0.465137
v 0.371875 0.500243 0.804738
v 0.388945 0.552632 0.465387
v 0.388945 0.501919 0.804863
v 0.405360 0.557556 0.466126
v 0.405360 0.506885 0.805234
v 0.420487 0.565552 0.467326
v 0.420487 0.514948 0.805836
v 0.433747 0.576314 0.468941
v 0.433747 0.525800 0.806645
v 0.444629 0.589426 0.470909
v 0.444629 0.539022 0.807632
v 0.452714 0.604386 0.473155
v 0.452714 0.554108 0.808758
v 0.457694 0.620619 0.475591
v 0.457694 0.570477 0.809980
v 0.459375 0.637500 0.478125
v 0.459375 0.587500 0.811250
v 0.457694 0.654381 0.480659
v 0.457694 0.604523 0.812520
v 0.452714 0.670614 0.483095
v 0.452714 0.620892 0.813742
v 0.444629 0.685574 0.485341
v 0.444629 0.635978 0.814868
v 0.433747 0.698686 0.487309
v 0.433747 0.649200 0.815855
v 0.420487 0.709448 0.488924
v 0.420487 0.660052 0.816664
v 0.405360 0.717444 0.490124
v 0.405360 0.668115 0.817266
v 0.388945 0.722368 0.490863
v 0.388945 0.673081 0.817637
v 0.354805 0.673319 0.825000
v 0.371875 0.675000 0.825000
v 0.338390 0.668339 0.825000
v 0.323263 0.660254 0.825000
v 0.310003 0.649372 0.825000
v 0.299121 0.636112 0.825000
v 0.291036 0.620985 0.825000
v 0.286056 0.604570 0.825000
v 0.284375 0.587500 0.825000
v 0.286056 0.570430 0.825000
v 0.291036 0.554015 0.825000
v 0.299121 0.538888 0.825000
v 0.310003 0.525628 0.825000
v 0.323263 0.514746 0.825000
v 0.338390 0.506661 0.825000
v 0.354805 0.501681 0.825000
v 0.371875 0.500000 0.825000
v 0.388945 0.501681 0.825000
v 0.405360 0.506661 0.825000
v 0.420487 0.514746 0.825000
v 0.433747 0.525628 0.825000
v 0.444629 0.538888 0.825000
v 0.452714 0.554015 0.825000
v 0.457694 0.570430 0.825000
v 0.459375 0.587500 0.825000
v 0.457694 0.604570 0.825000
v 0.452714 0.620985 0.825000
v 0.444629 0.636112 0.825000
v 0.433747 0.649372 0.825000
v 0.420487 0.660254 0.825000
v 0.405360 0.668339 0.825000
v 0.388945 0.673319 0.825000
v 0.628125 0.725000 0.506250
v 0.611055 0.723319 0.506250
v 0.603731 0.760135 0.562500
v 0.628125 0.762537 0.562500
v 0.594640 0.718339 0.506250
v 0.580275 0.753020 0.562500
v 0.579513 0.710254 0.506250
v 0.558658 0.741465 0.562500
v 0.566253 0.699372 0.506250
v 0.539710 0.725915 0.562500
v 0.555371 0.686112 0.506250
v 0.524160 0.706967 0.562500
v 0.547286 0.670985 0.506250
v 0.512605 0.685350 0.562500
v 0.542306 0.654570 0.506250
v 0.505490 0.661894 0.562500
v 0.540625 0.637500 0.506250
v 0.503088 0.637500 0.562500
v 0.542306 0.620430 0.506250
v 0.505490 0.613106 0.562500
v 0.547286 0.604015 0.506250
v 0.512605 0.589650 0.562500
v 0.555371 0.588888 0.506250
v 0.524160 0.568033 0.562500
v 0.566253 0.575628 0.506250
v 0.539710 0.549085 0.562500
v 0.579513 0.564746 0.506250
v 0.558658 0.533535 0.562500
v 0.594640 0.556661 0.506250
v 0.580275 0.521980 0.562500
v 0.611055 0.551681 0.506250
v 0.603731 0.514865 0.562500
v 0.628125 0.550000 0.506250
v 0.628125 0.512462 0.562500
v 0.645195 0.551681 0.506250
v 0.652519 0.514865 0.562500
v 0.661610 0.556661 0.506250
v 0.675975 0.521980 0.562500
v 0.676737 0.564746 0.506250
v 0.697592 0.533535 0.562500
v 0.689997 0.575628 0.506250
v 0.716540 0.549085 0.562500
v 0.700879 0.588888 0.506250
v 0.732090 0.568033 0.562500
v 0.708964 0.604015 0.506250
v 0.743645 0.589650 0.562500
v 0.713944 0.620430 0.506250
v 0.750760 0.613106 0.562500
v 0.715625 0.637500 0.506250
v 0.753163 0.637500 0.562500
v 0.713944 0.654570 0.506250
v 0.750760 0.661894 0.562500
v 0.708964 0.670985 0.506250
v 0.743645 0.685350 0.562500
v 0.700879 0.686112 0.506250
v 0.732090 0.706967 0.562500
v 0.689997 0.699372 0.506250
v 0.716540 0.725915 0.562500
v 0.676737 0.710254 0.506250
v 0.697592 0.741465 0.562500
v 0.661610 0.718339 0.506250
v 0.675975 0.753020 0.562500
v 0.645195 0.723319 0.506250
v 0.652519 0.760135 0.562500
v 0.628125 0.765625 0.562500
v 0.603129 0.763163 0.562500
v 0.603129 0.763163 0.600000
v 0.628125 0.765625 0.600000
v 0.579094 0.755872 0.562500
v 0.579094 0.755872 0.600000
v 0.556943 0.744032 0.562500
v 0.556943 0.744032 0.600000
v 0.537527 0.728098 0.562500
v 0.537527 0.728098 0.600000
v 0.521593 0.708682 0.562500
v 0.521593 0.708682 0.600000
v 0.509753 0.686531 0.562500
v 0.509753 0.686531 0.600000
v 0.502462 0.662496 0.562500
v 0.502462 0.662496 0.600000
v 0.500000 0.637500 0.562500
v 0.500000 0.637500 0.600000
v 0.502462 0.612504 0.562500
v 0.502462 0.612504 0.600000
v 0.509753 0.588469 0.562500
v 0.509753 0.588469 0.600000
v 0.521593 0.566318 0.562500
v 0.521593 0.566318 0.600000
v 0.537527 0.546902 0.562500
v 0.537527 0.546902 0.600000
v 0.556943 0.530968 0.562500
v 0.556943 0.530968 0.600000
v 0.579094 0.519128 0.562500
v 0.579094 0.519128 0.600000
v 0.603129 0.511837 0.562500
v 0.603129 0.511837 0.600000
v 0.628125 0.509375 0.562500
v 0.628125 0.509375 0.600000
v 0.653121 0.511837 0.562500
v 0.653121 0.511837 0.600000
v 0.677156 0.519128 0.562500
v 0.677156 0.519128 0.600000
v 0.699307 0.530968 0.562500
v 0.699307 0.530968 0.600000
v 0.718723 0.546902 0.562500
v 0.718723 0.546902 0.600000
v 0.734657 0.566318 0.562500
v 0.734657 0.566318 0.600000
v 0.746497 0.588469 0.562500
v 0.746497 0.588469 0.600000
v 0.753788 0.612504 0.562500
v 0.753788 0.612504 0.600000
v 0.756250 0.637500 0.562500
v 0.756250 0.637500 0.600000
v 0.753788 0.662496 0.562500
v 0.753788 0.662496 0.600000
v 0.746497 0.686531 0.562500
v 0.746497 0.686531 0.600000
v 0.734657 0.708682 0.562500
v 0.734657 0.708682 0.600000
v 0.718723 0.728098 0.562500
v 0.718723 0.728098 0.600000
v 0.699307 0.744032 0.562500
v 0.699307 0.744032 0.600000
v 0.677156 0.755872 0.562500
v 0.677156 0.755872 0.600000
v 0.653121 0.763163 0.562500
v 0.653121 0.763163 0.600000
v 0.628125 0.775000 0.600000
v 0.601300 0.772358 0.600000
v 0.601300 0.772358 0.731250
v 0.628125 0.775000 0.731250
v 0.575506 0.764533 0.600000
v 0.575506 0.764533 0.731250
v 0.551734 0.751827 0.600000
v 0.551734 0.751827 0.731250
v 0.530898 0.734727 0.600000
v 0.530898 0.734727 0.731250
v 0.513798 0.713891 0.600000
v 0.513798 0.713891 0.731250
v 0.501092 0.690119 0.600000
v 0.501092 0.690119 0.731250
v 0.493267 0.664325 0.600000
v 0.493267 0.664325 0.731250
v 0.490625 0.637500 0.600000
v 0.490625 0.637500 0.731250
v 0.493267 0.610675 0.600000
v 0.493267 0.610675 0.731250
v 0.501092 0.584881 0.600000
v 0.501092 0.584881 0.731250
v 0.513798 0.561109 0.600000
v 0.513798 0.561109 0.731250
v 0.530898 0.540273 0.600000
v 0.530898 0.540273 0.731250
v 0.551734 0.523173 0.600000
v 0.551734 0.523173 0.731250
v 0.575506 0.510467 0.600000
v 0.575506 0.510467 0.731250
v 0.601300 0.502642 0.600000
v 0.601300 0.502642 0.731250
v 0.628125 0.500000 0.600000
v 0.628125 0.500000 0.731250
v 0.654950 0.502642 0.600000
v 0.654950 0.502642 0.731250
v 0.680744 0.510467 0.600000
v 0.680744 0.510467 0.731250
v 0.704516 0.523173 0.600000
v 0.704516 0.523173 0.731250
v 0.725352 0.540273 0.600000
v 0.725352 0.540273 0.731250
v 0.742452 0.561109 0.600000
v 0.742452 0.561109 0.731250
v 0.755158 0.584881 0.600000
v 0.755158 0.584881 0.731250
v 0.762983 0.610675 0.600000
v 0.762983 0.610675 0.731250
v 0.765625 0.637500 0.600000
v 0.765625 0.637500 0.731250
v 0.762983 0.664325 0.600000
v 0.762983 0.664325 0.731250
v 0.755158 0.690119 0.600000
v 0.755158 0.690119 0.731250
v 0.742452 0.713891 0.600000
v 0.742452 0.713891 0.731250
v 0.725352 0.734727 0.600000
v 0.725352 0.734727 0.731250
v 0.704516 0.751827 0.600000
v 0.704516 0.751827 0.731250
v 0.680744 0.764533 0.600000
v 0.680744 0.764533 0.731250
v 0.654950 0.772358 0.600000
v 0.654950 0.772358 0.731250
v 0.628125 0.765625 0.731250
v 0.603129 0.763163 0.731250
v 0.603129 0.763163 0.768750
v 0.628125 0.765625 0.768750
v 0.579094 0.755872 0.731250
v 0.579094 0.755872 0.768750
v 0.556943 0.744032 0.731250
v 0.556943 0.744032 0.768750
v 0.537527 0.728098 0.731250
v 0.537527 0.728098 0.768750
v 0.521593 0.708682 0.731250
v 0.521593 0.708682 0.768750
v 0.509753 0.686531 0.731250
v 0.509753 0.686531 0.768750
v 0.502462 0.662496 0.731250
v 0.502462 0.662496 0.768750
v 0.500000 0.637500 0.731250
v 0.500000 0.637500 0.768750
v 0.502462 0.612504 0.731250
v 0.502462 0.612504 0.768750
v 0.509753 0.588469 0.731250
v 0.509753 0.588469 0.768750
v 0.521593 0.566318 0.731250
v 0.521593 0.566318 0.768750
v 0.537527 0.546902 0.731250
v 0.537527 0.546902 0.768750
v 0.556943 0.530968 0.731250
v 0.556943 0.530968 0.768750
v 0.579094 0.519128 0.731250
v 0.579094 0.519128 0.768750
v 0.603129 0.511837 0.731250
v 0.603129 0.511837 0.768750
v 0.628125 0.509375 0.731250
v 0.628125 0.509375 0.768750
v 0.653121 0.511837 0.731250
v 0.653121 0.511837 0.768750
v 0.677156 0.519128 0.731250
v 0.677156 0.519128 0.768750
v 0.699307 0.530968 0.731250
v 0.699307 0.530968 0.768750
v 0.718723 0.546902 0.731250
v 0.718723 0.546902 0.768750
v 0.734657 0.566318 0.731250
v 0.734657 0.566318 0.768750
v 0.746497 0.588469 0.731250
v 0.746497 0.588469 0.768750
v 0.753788 0.612504 0.731250
v 0.753788 0.612504 0.768750
v 0.756250 0.637500 0.731250
v 0.756250 0.637500 0.768750
v 0.753788 0.662496 0.731250
v 0.753788 0.662496 0.768750
v 0.746497 0.686531 0.731250
v 0.746497 0.686531 0.768750
v 0.734657 0.708682 0.731250
v 0.734657 0.708682 0.768750
v 0.718723 0.728098 0.731250
v 0.718723 0.728098 0.768750
v 0.699307 0.744032 0.731250
v 0.699307 0.744032 0.768750
v 0.677156 0.755872 0.731250
v 0.677156 0.755872 0.768750
v 0.653121 0.763163 0.731250
v 0.653121 0.763163 0.768750
v 0.628125 0.762500 0.768750
v 0.603739 0.760098 0.768750
v 0.611055 0.723319 0.825000
v 0.628125 0.725000 0.825000
v 0.580290 0.752985 0.768750
v 0.594640 0.718339 0.825000
v 0.558679 0.741434 0.768750
v 0.579513 0.710254 0.825000
v 0.539737 0.725888 0.768750
v 0.566253 0.699372 0.825000
v 0.524191 0.706946 0.768750
v 0.555371 0.686112 0.825000
v 0.512640 0.685335 0.768750
v 0.547286 0.670985 0.825000
v 0.505527 0.661886 0.768750
v 0.542306 0.654570 0.825000
v 0.503125 0.637500 0.768750
v 0.540625 0.637500 0.825000
v 0.505527 0.613114 0.768750
v 0.542306 0.620430 0.825000
v 0.512640 0.589665 0.768750
v 0.547286 0.604015 0.825000
v 0.524191 0.568054 0.768750
v 0.555371 0.588888 0.825000
v 0.539737 0.549112 0.768750
v 0.566253 0.575628 0.825000
v 0.558679 0.533566 0.768750
v 0.579513 0.564746 0.825000
v 0.580290 0.522015 0.768750
v 0.594640 0.556661 0.825000
v 0.603739 0.514902 0.768750
v 0.611055 0.551681 0.825000
v 0.628125 0.512500 0.768750
v 0.628125 0.550000 0.825000
v 0.652511 0.514902 0.768750
v 0.645195 0.551681 0.825000
v 0.675960 0.522015 0.768750
v 0.661610 0.556661 0.825000
v 0.697571 0.533566 0.768750
v 0.676737 0.564746 0.825000
v 0.716513 0.549112 0.768750
v 0.689997 0.575628 0.825000
v 0.732059 0.568054 0.768750
v 0.700879 0.588888 0.825000
v 0.743610 0.589665 0.768750
v 0.708964 0.604015 0.825000
v 0.750723 0.613114 0.768750
v 0.713944 0.620430 0.825000
v 0.753125 0.637500 0.768750
v 0.715625 0.637500 0.825000
v 0.750723 0.661886 0.768750
v 0.713944 0.654570 0.825000
v 0.743610 0.685335 0.768750
v 0.708964 0.670985 0.825000
v 0.732059 0.706946 0.768750
v 0.700879 0.686112 0.825000
v 0.716513 0.725888 0.768750
v 0.689997 0.699372 0.825000
v 0.697571 0.741434 0.768750
v 0.676737 0.710254 0.825000
v 0.675960 0.752985 0.768750
v 0.661610 0.718339 0.825000
v 0.652511 0.760098 0.768750
v 0.645195 0.723319 0.825000
v 0.628125 0.675000 0.175000
v 0.611055 0.673319 0.175000
v 0.611055 0.673089 0.182479
v 0.628125 0.674766 0.182356
v 0.594640 0.668339 0.175000
v 0.594640 0.668123 0.182843
v 0.579513 0.660254 0.175000
v 0.579513 0.660059 0.183434
v 0.566253 0.649372 0.175000
v 0.566253 0.649206 0.184229
v 0.555371 0.636112 0.175000
v 0.555371 0.635982 0.185198
v 0.547286 0.620985 0.175000
v 0.547286 0.620895 0.186303
v 0.542306 0.604570 0.175000
v 0.542306 0.604525 0.187503
v 0.540625 0.587500 0.175000
v 0.540625 0.587500 0.188750
v 0.542306 0.570430 0.175000
v 0.542306 0.570475 0.189997
v 0.547286 0.554015 0.175000
v 0.547286 0.554105 0.191197
v 0.555371 0.538888 0.175000
v 0.555371 0.539018 0.192302
v 0.566253 0.525628 0.175000
v 0.566253 0.525794 0.193271
v 0.579513 0.514746 0.175000
v 0.579513 0.514941 0.194066
v 0.594640 0.506661 0.175000
v 0.594640 0.506877 0.194657
v 0.611055 0.501681 0.175000
v 0.611055 0.501911 0.195021
v 0.628125 0.500000 0.175000
v 0.628125 0.500234 0.195144
v 0.645195 0.501681 0.175000
v 0.645195 0.501911 0.195021
v 0.661610 0.506661 0.175000
v 0.661610 0.506877 0.194657
v 0.676737 0.514746 0.175000
v 0.676737 0.514941 0.194066
v 0.689997 0.525628 0.175000
v 0.689997 0.525794 0.193271
v 0.700879 0.538888 0.175000
v 0.700879 0.539018 0.192302
v 0.708964 0.554015 0.175000
v 0.708964 0.554105 0.191197
v 0.713944 0.570430 0.175000
v 0.713944 0.570475 0.189997
v 0.715625 0.587500 0.175000
v 0.715625 0.587500 0.188750
v 0.713944 0.604570 0.175000
v 0.713944 0.604525 0.187503
v 0.708964 0.620985 0.175000
v 0.708964 0.620895 0.186303
v 0.700879 0.636112 0.175000
v 0.700879 0.635982 0.185198
v 0.689997 0.649372 0.175000
v 0.689997 0.649206 0.184229
v 0.676737 0.660254 0.175000
v 0.676737 0.660059 0.183434
v 0.661610 0.668339 0.175000
v 0.661610 0.668123 0.182843
v 0.645195 0.673319 0.175000
v 0.645195 0.673089 0.182479
v 0.611055 0.722402 0.515616
v 0.628125 0.724066 0.515371
v 0.594640 0.717476 0.516342
v 0.579513 0.709477 0.517521
v 0.566253 0.698711 0.519107
v 0.555371 0.685593 0.521039
v 0.547286 0.670627 0.523244
v 0.542306 0.654388 0.525637
v 0.540625 0.637500 0.528125
v 0.542306 0.620612 0.530613
v 0.547286 0.604373 0.533006
v 0.555371 0.589407 0.535211
v 0.566253 0.576289 0.537143
v 0.579513 0.565523 0.538729
v 0.594640 0.557524 0.539908
v 0.611055 0.552598 0.540634
v 0.628125 0.550934 0.540879
v 0.645195 0.552598 0.540634
v 0.661610 0.557524 0.539908
v 0.676737 0.565523 0.538729
v 0.689997 0.576289 0.537143
v 0.700879 0.589407 0.535211
v 0.708964 0.604373 0.533006
v 0.713944 0.620612 0.530613
v 0.715625 0.637500 0.528125
v 0.713944 0.654388 0.525637
v 0.708964 0.670627 0.523244
v 0.700879 0.685593 0.521039
v 0.689997 0.698711 0.519107
v 0.676737 0.709477 0.517521
v 0.661610 0.717476 0.516342
v 0.645195 0.722402 0.515616
v 0.628125 0.682708 0.878041
v 0.611055 0.681840 0.876602
v 0.611055 0.624263 0.907676
v 0.628125 0.624713 0.909295
v 0.594640 0.679267 0.872339
v 0.594640 0.622927 0.902879
v 0.579513 0.675089 0.865416
v 0.579513 0.620759 0.895089
v 0.566253 0.669467 0.856099
v 0.566253 0.617841 0.884606
v 0.555371 0.662616 0.844746
v 0.555371 0.614286 0.871832
v 0.547286 0.654800 0.831794
v 0.547286 0.610229 0.857258
v 0.542306 0.646320 0.817740
v 0.542306 0.605827 0.841445
v 0.540625 0.637500 0.803125
v 0.540625 0.601250 0.825000
v 0.542306 0.628680 0.788510
v 0.542306 0.596673 0.808555
v 0.547286 0.620200 0.774456
v 0.547286 0.592271 0.792742
v 0.555371 0.612384 0.761504
v 0.555371 0.588214 0.778168
v 0.566253 0.605533 0.750151
v 0.566253 0.584659 0.765394
v 0.579513 0.599911 0.740834
v 0.579513 0.581741 0.754911
v 0.594640 0.595733 0.733911
v 0.594640 0.579573 0.747121
v 0.611055 0.593160 0.729648
v 0.611055 0.578237 0.742324
v 0.628125 0.592292 0.728209
v 0.628125 0.577787 0.740705
v 0.645195 0.593160 0.729648
v 0.645195 0.578237 0.742324
v 0.661610 0.595733 0.733911
v 0.661610 0.579573 0.747121
v 0.676737 0.599911 0.740834
v 0.676737 0.581741 0.754911
v 0.689997 0.605533 0.750151
v 0.689997 0.584659 0.765394
v 0.700879 0.612384 0.761504
v 0.700879 0.588214 0.778168
v 0.708964 0.620200 0.774456
v 0.708964 0.592271 0.792742
v 0.713944 0.628680 0.788510
v 0.713944 0.596673 0.808555
v 0.715625 0.637500 0.803125
v 0.715625 0.601250 0.825000
v 0.713944 0.646320 0.817740
v 0.713944 0.605827 0.841445
v 0.708964 0.654800 0.831794
v 0.708964 0.610229 0.857258
v 0.700879 0.662616 0.844746
v 0.700879 0.614286 0.871832
v 0.689997 0.669467 0.856099
v 0.689997 0.617841 0.884606
v 0.676737 0.675089 0.865416
v 0.676737 0.620759 0.895089
v 0.661610 0.679267 0.872339
v 0.661610 0.622927 0.902879
v 0.645195 0.681840 0.876602
v 0.645195 0.624263 0.907676
v 0.611055 0.587500 0.910819
v 0.628125 0.587500 0.912500
v 0.594640 0.587500 0.905839
v 0.579513 0.587500 0.897754
v 0.566253 0.587500 0.886872
v 0.555371 0.587500 0.873612
v 0.547286 0.587500 0.858485
v 0.542306 0.587500 0.842070
v 0.540625 0.587500 0.825000
v 0.542306 0.587500 0.807930
v 0.547286 0.587500 0.791515
v 0.555371 0.587500 0.776388
v 0.566253 0.587500 0.763128
v 0.579513 0.587500 0.752246
v 0.594640 0.587500 0.744161
v 0.611055 0.587500 0.739181
v 0.628125 0.587500 0.737500
v 0.645195 0.587500 0.739181
v 0.661610 0.587500 0.744161
v 0.676737 0.587500 0.752246
v 0.689997 0.587500 0.763128
v 0.700879 0.587500 0.776388
v 0.708964 0.587500 0.791515
v 0.713944 0.587500 0.807930
v 0.715625 0.587500 0.825000
v 0.713944 0.587500 0.842070
v 0.708964 0.587500 0.858485
v 0.700879 0.587500 0.873612
v 0.689997 0.587500 0.886872
v 0.676737 0.587500 0.897754
v 0.661610 0.587500 0.905839
v 0.645195 0.587500 0.910819
v 0.000000 0.000000 0.000000
v 1.000000 0.000000 0.000000
v 1.000000 0.000000 1.000000
v 0.000000 0.000000 1.000000
v 0.000000 0.500000 1.000000
v 1.000000 0.500000 1.000000
v 1.000000 0.500000 0.000000
v 0.000000 0.500000 0.000000
v 1.000000 0.500000 0.062500
v 0.000000 0.500000 0.062500
v 0.000000 1.000000 0.062500
v 1.000000 1.000000 0.062500
v 1.000000 1.000000 0.000000
v 0.000000 1.000000 0.000000
v 0.000000 0.500000 0.937500
v 1.000000 0.500000 0.937500
v 0.000000 1.000000 1.000000
v 1.000000 1.000000 1.000000
v 1.000000 1.000000 0.937500
v 0.000000 1.000000 0.937500
v 0.062500 0.500000 0.062500
v 0.062500 0.500000 0.937500
v 0.062500 1.000000 0.937500
v 0.062500 1.000000 0.062500
v 0.937500 0.500000 0.062500
v 0.937500 0.500000 0.937500
v 0.937500 1.000000 0.937500
v 0.937500 1.000000 0.062500
vn -0.1153 0.9933 0.0000
vn -0.3069 0.9517 0.0000
vn -0.4867 0.8736 0.0000
vn -0.6477 0.7619 0.0000
vn -0.7839 0.6209 0.0000
vn -0.8900 0.4560 0.0000
vn -0.9618 0.2736 0.0000
vn -0.9967 0.0807 0.0000
vn -0.9933 -0.1153 0.0000
vn -0.9517 -0.3069 0.0000
vn -0.8736 -0.4867 0.0000
vn -0.7619 -0.6477 0.0000
vn -0.6209 -0.7839 0.0000
vn -0.4560 -0.8900 0.0000
vn -0.2736 -0.9618 0.0000
vn -0.0807 -0.9967 0.0000
vn 0.1153 -0.9933 0.0000
vn 0.3069 -0.9517 0.0000
vn 0.4867 -0.8736 0.0000
vn 0.6477 -0.7619 0.0000
vn 0.7839 -0.6209 0.0000
vn 0.8900 -0.4560 0.0000
vn 0.9618 -0.2736 0.0000
vn 0.9967 -0.0807 0.0000
vn 0.9933 0.1153 0.0000
vn 0.9517 0.3069 0.0000
vn 0.8736 0.4867 0.0000
vn 0.7619 0.6477 0.0000
vn 0.6209 0.7839 0.0000
vn 0.4560 0.8900 0.0000
vn 0.2736 0.9618 0.0000
vn 0.0807 0.9967 0.0000
vn -0.0000 -0.0000 -1.0000
vn -0.0980 0.9952 0.0000
vn -0.2903 0.9569 0.0000
vn -0.4714 0.8819 0.0000
vn -0.6344 0.7730 0.0000
vn -0.7730 0.6344 0.0000
vn -0.8819 0.4714 0.0000
vn -0.9569 0.2903 0.0000
vn -0.9952 0.0980 0.0000
vn -0.9952 -0.0980 0.0000
vn -0.9569 -0.2903 0.0000
vn -0.8819 -0.4714 0.0000
vn -0.7730 -0.6344 0.0000
vn -0.6344 -0.7730 0.0000
vn -0.4714 -0.8819 0.0000
vn -0.2903 -0.9569 0.0000
vn -0.0980 -0.9952 0.0000
vn 0.0980 -0.9952 0.0000
vn 0.2903 -0.9569 0.0000
vn 0.4714 -0.8819 0.0000
vn 0.6344 -0.7730 0.0000
vn 0.7730 -0.6344 0.0000
vn 0.8819 -0.4714 0.0000
vn 0.9569 -0.2903 0.0000
vn 0.9952 -0.0980 0.0000
vn 0.9952 0.0980 0.0000
vn 0.9569 0.2903 0.0000
vn 0.8819 0.4714 0.0000
vn 0.7730 0.6344 0.0000
vn 0.6344 0.7730 0.0000
vn 0.4714 0.8819 0.0000
vn 0.2903 0.9569 0.0000
vn 0.0980 0.9952 0.0000
vn 0.0000 0.0000 1.0000
vn -0.0807 0.9967 0.0000
vn -0.2736 0.9618 0.0000
vn -0.4560 0.8900 0.0000
vn -0.6209 0.7839 0.0000
vn -0.7619 0.6477 0.0000
vn -0.8736 0.4867 0.0000
vn -0.9518 0.3069 0.0000
vn -0.9933 0.1153 0.0000
vn -0.9967 -0.0807 0.0000
vn -0.9618 -0.2736 0.0000
vn -0.8900 -0.4560 0.0000
vn -0.7839 -0.6209 0.0000
vn -0.6477 -0.7619 0.0000
vn -0.4867 -0.8736 0.0000
vn -0.3069 -0.9518 0.0000
vn -0.1153 -0.9933 0.0000
vn 0.0807 -0.9967 0.0000
vn 0.2736 -0.9618 0.0000
vn 0.4560 -0.8900 0.0000
vn 0.6209 -0.7839 0.0000
vn 0.7619 -0.6477 0.0000
vn 0.8736 -0.4867 0.0000
vn 0.9518 -0.3069 0.0000
vn 0.9933 -0.1153 0.0000
vn 0.9967 0.0807 0.0000
vn 0.9618 0.2736 0.0000
vn 0.8900 0.4560 0.0000
vn 0.7839 0.6209 0.0000
vn 0.6477 0.7619 0.0000
vn 0.4867 0.8736 0.0000
vn 0.3069 0.9518 0.0000
vn 0.1153 0.9933 0.0000
vn 0.9904 0.0000 -0.0975
vn 0.9523 0.0000 -0.2889
vn 0.8777 0.0000 -0.4691
vn 0.7693 0.0000 -0.6313
vn 0.6313 0.0000 -0.7693
vn 0.4691 0.0000 -0.8777
vn 0.2889 0.0000 -0.9523
vn 0.0975 0.0000 -0.9904
vn -0.0975 0.0000 -0.9904
vn -0.2889 0.0000 -0.9523
vn -0.4691 0.0000 -0.8777
vn -0.6313 0.0000 -0.7693
vn -0.7693 0.0000 -0.6313
vn -0.8777 0.0000 -0.4691
vn -0.9523 0.0000 -0.2889
vn -0.9904 0.0000 -0.0975
vn -0.9904 0.0000 0.0975
vn -0.9523 0.0000 0.2889
vn -0.8777 0.0000 0.4691
vn -0.7693 0.0000 0.6313
vn -0.6313 0.0000 0.7693
vn -0.4691 0.0000 0.8777
vn -0.2889 0.0000 0.9523
vn -0.0975 0.0000 0.9904
vn 0.0975 0.0000 0.9904
vn 0.2889 -0.0000 0.9523
vn 0.4691 -0.0000 0.8777
vn 0.6313 -0.0000 0.7693
vn 0.7693 -0.0000 0.6313
vn 0.8777 -0.0000 0.4691
vn 0.9523 -0.0000 0.2889
vn 0.9904 0.0000 0.0975
vn 0.9904 0.0316 -0.0923
vn 0.9523 0.0936 -0.2733
vn 0.8777 0.1520 -0.4438
vn 0.7693 0.2045 -0.5973
vn 0.6313 0.2492 -0.7278
vn 0.4691 0.2843 -0.8303
vn 0.2889 0.3085 -0.9010
vn 0.0975 0.3209 -0.9370
vn -0.0975 0.3209 -0.9370
vn -0.2889 0.3085 -0.9010
vn -0.4691 0.2843 -0.8303
vn -0.6313 0.2492 -0.7278
vn -0.7693 0.2045 -0.5973
vn -0.8777 0.1520 -0.4438
vn -0.9523 0.0936 -0.2733
vn -0.9904 0.0316 -0.0923
vn -0.9904 -0.0316 0.0923
vn -0.9523 -0.0936 0.2733
vn -0.8777 -0.1520 0.4438
vn -0.7693 -0.2045 0.5973
vn -0.6313 -0.2492 0.7278
vn -0.4691 -0.2843 0.8303
vn -0.2889 -0.3085 0.9010
vn -0.0975 -0.3209 0.9370
vn 0.0975 -0.3209 0.9370
vn 0.2889 -0.3085 0.9010
vn 0.4691 -0.2843 0.8303
vn 0.6313 -0.2492 0.7278
vn 0.7693 -0.2045 0.5973
vn 0.8777 -0.1520 0.4438
vn 0.9523 -0.0936 0.2733
vn 0.9904 -0.0316 0.0923
vn 0.0000 0.7901 0.6130
vn -0.0975 0.9794 0.1470
vn -0.2889 0.9418 0.1414
vn -0.4691 0.8680 0.1303
vn -0.6313 0.7608 0.1142
vn -0.7693 0.6243 0.0937
vn -0.8777 0.4639 0.0696
vn -0.9523 0.2857 0.0429
vn -0.9904 0.0965 0.0145
vn -0.9904 -0.0965 -0.0145
vn -0.9523 -0.2857 -0.0429
vn -0.8777 -0.4639 -0.0696
vn -0.7693 -0.6243 -0.0937
vn -0.6313 -0.7608 -0.1142
vn -0.4691 -0.8680 -0.1303
vn -0.2889 -0.9418 -0.1414
vn -0.0975 -0.9794 -0.1470
vn 0.0975 -0.9794 -0.1470
vn 0.2889 -0.9418 -0.1414
vn 0.4691 -0.8680 -0.1303
vn 0.6313 -0.7608 -0.1142
vn 0.7693 -0.6243 -0.0937
vn 0.8777 -0.4639 -0.0696
vn 0.9523 -0.2857 -0.0429
vn 0.9904 -0.0965 -0.0145
vn 0.9904 0.0965 0.0145
vn 0.9523 0.2857 0.0429
vn 0.8777 0.4639 0.0696
vn 0.7693 0.6243 0.0937
vn 0.6313 0.7608 0.1142
vn 0.4691 0.8680 0.1303
vn 0.2889 0.9418 0.1414
vn 0.0975 0.9794 0.1470
vn -0.0975 0.9876 0.0737
vn -0.2889 0.9497 0.0709
vn -0.4691 0.8752 0.0653
vn -0.6313 0.7672 0.0573
vn -0.7693 0.6296 0.0470
vn -0.8777 0.4678 0.0349
vn -0.9523 0.2881 0.0215
vn -0.9904 0.0973 0.0073
vn -0.9904 -0.0973 -0.0073
vn -0.9523 -0.2881 -0.0215
vn -0.8777 -0.4678 -0.0349
vn -0.7693 -0.6296 -0.0470
vn -0.6313 -0.7672 -0.0573
vn -0.4691 -0.8752 -0.0653
vn -0.2889 -0.9497 -0.0709
vn -0.0975 -0.9876 -0.0737
vn 0.0975 -0.9876 -0.0737
vn 0.2889 -0.9497 -0.0709
vn 0.4691 -0.8752 -0.0653
vn 0.6313 -0.7672 -0.0573
vn 0.7693 -0.6296 -0.0470
vn 0.8777 -0.4678 -0.0349
vn 0.9523 -0.2881 -0.0215
vn 0.9904 -0.0973 -0.0073
vn 0.9904 0.0973 0.0073
vn 0.9523 0.2881 0.0215
vn 0.8777 0.4678 0.0349
vn 0.7693 0.6296 0.0470
vn 0.6313 0.7672 0.0573
vn 0.4691 0.8752 0.0653
vn 0.2889 0.9497 0.0709
vn 0.0975 0.9876 0.0737
vn -0.0000 0.1484 -0.9889
vn -0.0975 0.9904 0.0000
vn -0.2889 0.9523 0.0000
vn -0.4691 0.8777 0.0000
vn -0.6313 0.7693 0.0000
vn -0.7693 0.6313 0.0000
vn -0.8777 0.4691 0.0000
vn -0.9523 0.2889 0.0000
vn -0.9904 0.0975 0.0000
vn -0.9904 -0.0975 0.0000
vn -0.9523 -0.2889 0.0000
vn -0.8777 -0.4691 0.0000
vn -0.7693 -0.6313 0.0000
vn -0.6313 -0.7693 0.0000
vn -0.4691 -0.8777 0.0000
vn -0.2889 -0.9523 0.0000
vn -0.0975 -0.9904 0.0000
vn 0.0975 -0.9904 0.0000
vn 0.2889 -0.9523 0.0000
vn 0.4691 -0.8777 0.0000
vn 0.6313 -0.7693 0.0000
vn 0.7693 -0.6313 0.0000
vn 0.8777 -0.4691 0.0000
vn 0.9523 -0.2889 0.0000
vn 0.9904 -0.0975 0.0000
vn 0.9904 0.0975 0.0000
vn 0.9523 0.2889 -0.0000
vn 0.8777 0.4691 -0.0000
vn 0.7693 0.6313 -0.0000
vn 0.6313 0.7693 -0.0000
vn 0.4691 0.8777 -0.0000
vn 0.2889 0.9523 -0.0000
vn 0.0975 0.9904 0.0000
vn -0.0975 0.9877 -0.0724
vn -0.2889 0.9498 -0.0696
vn -0.4691 0.8753 -0.0641
vn -0.6313 0.7672 -0.0562
vn -0.7693 0.6297 -0.0461
vn -0.8777 0.4679 -0.0343
vn -0.9523 0.2881 -0.0211
vn -0.9904 0.0973 -0.0071
vn -0.9904 -0.0973 0.0071
vn -0.9523 -0.2881 0.0211
vn -0.8777 -0.4679 0.0343
vn -0.7693 -0.6297 0.0461
vn -0.6313 -0.7672 0.0562
vn -0.4691 -0.8753 0.0641
vn -0.2889 -0.9498 0.0696
vn -0.0975 -0.9877 0.0724
vn 0.0975 -0.9877 0.0724
vn 0.2889 -0.9498 0.0696
vn 0.4691 -0.8753 0.0641
vn 0.6313 -0.7672 0.0562
vn 0.7693 -0.6297 0.0461
vn 0.8777 -0.4679 0.0343
vn 0.9523 -0.2881 0.0211
vn 0.9904 -0.0973 0.0071
vn 0.9904 0.0973 -0.0071
vn 0.9523 0.2881 -0.0211
vn 0.8777 0.4679 -0.0343
vn 0.7693 0.6297 -0.0461
vn 0.6313 0.7672 -0.0562
vn 0.4691 0.8753 -0.0641
vn 0.2889 0.9498 -0.0696
vn 0.0975 0.9877 -0.0724
vn 0.0000 0.1458 0.9893
vn -0.0975 0.5117 0.8480
vn -0.2889 0.4920 0.8154
vn -0.4691 0.4535 0.7515
vn -0.6313 0.3975 0.6587
vn -0.7693 0.3262 0.5405
vn -0.8777 0.2424 0.4017
vn -0.9523 0.1493 0.2473
vn -0.9904 0.0504 0.0835
vn -0.9904 -0.0504 -0.0835
vn -0.9523 -0.1493 -0.2473
vn -0.8777 -0.2424 -0.4017
vn -0.7693 -0.3262 -0.5405
vn -0.6313 -0.3975 -0.6587
vn -0.4691 -0.4535 -0.7515
vn -0.2889 -0.4920 -0.8154
vn -0.0975 -0.5117 -0.8480
vn 0.0975 -0.5117 -0.8480
vn 0.2889 -0.4920 -0.8154
vn 0.4691 -0.4535 -0.7515
vn 0.6313 -0.3975 -0.6587
vn 0.7693 -0.3262 -0.5405
vn 0.8777 -0.2424 -0.4017
vn 0.9523 -0.1493 -0.2473
vn 0.9904 -0.0504 -0.0835
vn 0.9904 0.0504 0.0835
vn 0.9523 0.1493 0.2473
vn 0.8777 0.2424 0.4017
vn 0.7693 0.3262 0.5405
vn 0.6313 0.3975 0.6587
vn 0.4691 0.4535 0.7515
vn 0.2889 0.4920 0.8154
vn 0.0975 0.5117 0.8480
vn -0.0975 0.2656 0.9541
vn -0.2889 0.2554 0.9175
vn -0.4691 0.2354 0.8455
vn -0.6313 0.2063 0.7411
vn -0.7693 0.1693 0.6082
vn -0.8777 0.1258 0.4519
vn -0.9523 0.0775 0.2783
vn -0.9904 0.0262 0.0940
vn -0.9904 -0.0262 -0.0940
vn -0.9523 -0.0775 -0.2783
vn -0.8777 -0.1258 -0.4519
vn -0.7693 -0.1693 -0.6082
vn -0.6313 -0.2063 -0.7411
vn -0.4691 -0.2354 -0.8455
vn -0.2889 -0.2554 -0.9175
vn -0.0975 -0.2656 -0.9541
vn 0.0975 -0.2656 -0.9541
vn 0.2889 -0.2554 -0.9175
vn 0.4691 -0.2354 -0.8455
vn 0.6313 -0.2063 -0.7411
vn 0.7693 -0.1693 -0.6082
vn 0.8777 -0.1258 -0.4519
vn 0.9523 -0.0775 -0.2783
vn 0.9904 -0.0262 -0.0940
vn 0.9904 0.0262 0.0940
vn 0.9523 0.0775 0.2783
vn 0.8777 0.1258 0.4519
vn 0.7693 0.1693 0.6082
vn 0.6313 0.2063 0.7411
vn 0.4691 0.2354 0.8455
vn 0.2889 0.2554 0.9175
vn 0.0975 0.2656 0.9541
vn -0.0000 0.8562 -0.5167
vn 0.0000 -1.0000 0.0000
vn 0.0000 1.0000 0.0000
vn -1.0000 0.0000 0.0000
vn 1.0000 0.0000 0.0000
vt 0.000000 0.000000
vt 0.031250 0.000000
vt 0.031250 0.176500
vt 0.000000 0.176500
vt 0.062500 0.000000
vt 0.062500 0.176500
vt 0.093750 0.000000
vt 0.093750 0.176500
vt 0.125000 0.000000
vt 0.125000 0.176500
vt 0.156250 0.000000
vt 0.156250 0.176500
vt 0.187500 0.000000
vt 0.187500 0.176500
vt 0.218750 0.000000
vt 0.218750 0.176500
vt 0.250000 0.000000
vt 0.250000 0.176500
vt 0.281250 0.000000
vt 0.281250 0.176500
vt 0.312500 0.000000
vt 0.312500 0.176500
vt 0.343750 0.000000
vt 0.343750 0.176500
vt 0.375000 0.000000
vt 0.375000 0.176500
vt 0.406250 0.000000
vt 0.406250 0.176500
vt 0.437500 0.000000
vt 0.437500 0.176500
vt 0.468750 0.000000
vt 0.468750 0.176500
vt 0.500000 0.000000
vt 0.500000 0.176500
vt 0.531250 0.000000
vt 0.531250 0.176500
vt 0.562500 0.000000
vt 0.562500 0.176500
vt 0.593750 0.000000
vt 0.593750 0.176500
vt 0.625000 0.000000
vt 0.625000 0.176500
vt 0.656250 0.000000
vt 0.656250 0.176500
vt 0.687500 0.000000
vt 0.687500 0.176500
vt 0.718750 0.000000
vt 0.718750 0.176500
vt 0.750000 0.000000
vt 0.750000 0.176500
vt 0.781250 0.000000
vt 0.781250 0.176500
vt 0.812500 0.000000
vt 0.812500 0.176500
vt 0.843750 0.000000
vt 0.843750 0.176500
vt 0.875000 0.000000
vt 0.875000 0.176500
vt 0.906250 0.000000
vt 0.906250 0.176500
vt 0.937500 0.000000
vt 0.937500 0.176500
vt 0.968750 0.000000
vt 0.968750 0.176500
vt 1.000000 0.000000
vt 1.000000 0.176500
vt 0.548773 0.131527
vt 0.595671 0.129016
vt 0.638893 0.124939
vt 0.676777 0.119451
vt 0.707867 0.112765
vt 0.730970 0.105136
vt 0.745196 0.096858
vt 0.750000 0.088250
vt 0.745196 0.079642
vt 0.730970 0.071364
vt 0.707867 0.063735
vt 0.676777 0.057049
vt 0.638893 0.051561
vt 0.595671 0.047484
vt 0.548773 0.044973
vt 0.500000 0.044125
vt 0.451227 0.044973
vt 0.404329 0.047484
vt 0.361107 0.051561
vt 0.323223 0.057049
vt 0.292133 0.063735
vt 0.269030 0.071364
vt 0.254804 0.079642
vt 0.250000 0.088250
vt 0.254804 0.096858
vt 0.269030 0.105136
vt 0.292133 0.112765
vt 0.323223 0.119451
vt 0.361107 0.124939
vt 0.404329 0.129016
vt 0.451227 0.131527
vt 0.500000 0.132375
vt 0.031250 0.294100
vt 0.000000 0.294100
vt 0.062500 0.294100
vt 0.093750 0.294100
vt 0.125000 0.294100
vt 0.156250 0.294100
vt 0.187500 0.294100
vt 0.218750 0.294100
vt 0.250000 0.294100
vt 0.281250 0.294100
vt 0.312500 0.294100
vt 0.343750 0.294100
vt 0.375000 0.294100
vt 0.406250 0.294100
vt 0.437500 0.294100
vt 0.468750 0.294100
vt 0.500000 0.294100
vt 0.531250 0.294100
vt 0.562500 0.294100
vt 0.593750 0.294100
vt 0.625000 0.294100
vt 0.656250 0.294100
vt 0.687500 0.294100
vt 0.718750 0.294100
vt 0.750000 0.294100
vt 0.781250 0.294100
vt 0.812500 0.294100
vt 0.843750 0.294100
vt 0.875000 0.294100
vt 0.906250 0.294100
vt 0.937500 0.294100
vt 0.968750 0.294100
vt 1.000000 0.294100
vt 0.548773 0.264135
vt 0.595671 0.262462
vt 0.638893 0.259745
vt 0.676777 0.256089
vt 0.707867 0.251634
vt 0.730970 0.246551
vt 0.745196 0.241036
vt 0.750000 0.235300
vt 0.745196 0.229564
vt 0.730970 0.224049
vt 0.707867 0.218966
vt 0.676777 0.214511
vt 0.638893 0.210855
vt 0.595671 0.208138
vt 0.548773 0.206465
vt 0.500000 0.205900
vt 0.451227 0.206465
vt 0.404329 0.208138
vt 0.361107 0.210855
vt 0.323223 0.214511
vt 0.292133 0.218966
vt 0.269030 0.224049
vt 0.254804 0.229564
vt 0.250000 0.235300
vt 0.254804 0.241036
vt 0.269030 0.246551
vt 0.292133 0.251634
vt 0.323223 0.256089
vt 0.361107 0.259745
vt 0.404329 0.262462
vt 0.451227 0.264135
vt 0.500000 0.264700
vt 0.031250 0.705900
vt 0.000000 0.705900
vt 0.062500 0.705900
vt 0.093750 0.705900
vt 0.125000 0.705900
vt 0.156250 0.705900
vt 0.187500 0.705900
vt 0.218750 0.705900
vt 0.250000 0.705900
vt 0.281250 0.705900
vt 0.312500 0.705900
vt 0.343750 0.705900
vt 0.375000 0.705900
vt 0.406250 0.705900
vt 0.437500 0.705900
vt 0.468750 0.705900
vt 0.500000 0.705900
vt 0.531250 0.705900
vt 0.562500 0.705900
vt 0.593750 0.705900
vt 0.625000 0.705900
vt 0.656250 0.705900
vt 0.687500 0.705900
vt 0.718750 0.705900
vt 0.750000 0.705900
vt 0.781250 0.705900
vt 0.812500 0.705900
vt 0.843750 0.705900
vt 0.875000 0.705900
vt 0.906250 0.705900
vt 0.937500 0.705900
vt 0.968750 0.705900
vt 1.000000 0.705900
vt 0.548773 0.600972
vt 0.595671 0.595113
vt 0.638893 0.585600
vt 0.676777 0.572797
vt 0.707867 0.557196
vt 0.730970 0.539397
vt 0.745196 0.520085
vt 0.750000 0.500000
vt 0.745196 0.479915
vt 0.730970 0.460603
vt 0.707867 0.442804
vt 0.676777 0.427203
vt 0.638893 0.414400
vt 0.595671 0.404887
vt 0.548773 0.399028
vt 0.500000 0.397050
vt 0.451227 0.399028
vt 0.404329 0.404887
vt 0.361107 0.414400
vt 0.323223 0.427203
vt 0.292133 0.442804
vt 0.269030 0.460603
vt 0.254804 0.479915
vt 0.250000 0.500000
vt 0.254804 0.520085
vt 0.269030 0.539397
vt 0.292133 0.557196
vt 0.323223 0.572797
vt 0.361107 0.585600
vt 0.404329 0.595113
vt 0.451227 0.600972
vt 0.500000 0.602950
vt 0.031250 0.823500
vt 0.000000 0.823500
vt 0.062500 0.823500
vt 0.093750 0.823500
vt 0.125000 0.823500
vt 0.156250 0.823500
vt 0.187500 0.823500
vt 0.218750 0.823500
vt 0.250000 0.823500
vt 0.281250 0.823500
vt 0.312500 0.823500
vt 0.343750 0.823500
vt 0.375000 0.823500
vt 0.406250 0.823500
vt 0.437500 0.823500
vt 0.468750 0.823500
vt 0.500000 0.823500
vt 0.531250 0.823500
vt 0.562500 0.823500
vt 0.593750 0.823500
vt 0.625000 0.823500
vt 0.656250 0.823500
vt 0.687500 0.823500
vt 0.718750 0.823500
vt 0.750000 0.823500
vt 0.781250 0.823500
vt 0.812500 0.823500
vt 0.843750 0.823500
vt 0.875000 0.823500
vt 0.906250 0.823500
vt 0.937500 0.823500
vt 0.968750 0.823500
vt 1.000000 0.823500
vt 0.500000 0.794100
vt 0.451227 0.793535
vt 0.404329 0.791862
vt 0.361107 0.789145
vt 0.323223 0.785489
vt 0.292133 0.781034
vt 0.269030 0.775951
vt 0.254804 0.770436
vt 0.250000 0.764700
vt 0.254804 0.758964
vt 0.269030 0.753449
vt 0.292133 0.748366
vt 0.323223 0.743911
vt 0.361107 0.740255
vt 0.404329 0.737538
vt 0.451227 0.735865
vt 0.500000 0.735300
vt 0.548773 0.735865
vt 0.595671 0.737538
vt 0.638893 0.740255
vt 0.676777 0.743911
vt 0.707867 0.748366
vt 0.730970 0.753449
vt 0.745196 0.758964
vt 0.750000 0.764700
vt 0.745196 0.770436
vt 0.730970 0.775951
vt 0.707867 0.781034
vt 0.676777 0.785489
vt 0.638893 0.789145
vt 0.595671 0.791862
vt 0.548773 0.793535
vt 0.031250 1.000000
vt 0.000000 1.000000
vt 0.062500 1.000000
vt 0.093750 1.000000
vt 0.125000 1.000000
vt 0.156250 1.000000
vt 0.187500 1.000000
vt 0.218750 1.000000
vt 0.250000 1.000000
vt 0.281250 1.000000
vt 0.312500 1.000000
vt 0.343750 1.000000
vt 0.375000 1.000000
vt 0.406250 1.000000
vt 0.437500 1.000000
vt 0.468750 1.000000
vt 0.500000 1.000000
vt 0.531250 1.000000
vt 0.562500 1.000000
vt 0.593750 1.000000
vt 0.625000 1.000000
vt 0.656250 1.000000
vt 0.687500 1.000000
vt 0.718750 1.000000
vt 0.750000 1.000000
vt 0.781250 1.000000
vt 0.812500 1.000000
vt 0.843750 1.000000
vt 0.875000 1.000000
vt 0.906250 1.000000
vt 0.937500 1.000000
vt 0.968750 1.000000
vt 1.000000 1.000000
vt 0.500000 0.955875
vt 0.451227 0.955027
vt 0.404329 0.952516
vt 0.361107 0.948439
vt 0.323223 0.942951
vt 0.292133 0.936265
vt 0.269030 0.928636
vt 0.254804 0.920358
vt 0.250000 0.911750
vt 0.254804 0.903142
vt 0.269030 0.894864
vt 0.292133 0.887235
vt 0.323223 0.880549
vt 0.361107 0.875061
vt 0.404329 0.870984
vt 0.451227 0.868473
vt 0.500000 0.867625
vt 0.548773 0.868473
vt 0.595671 0.870984
vt 0.638893 0.875061
vt 0.676777 0.880549
vt 0.707867 0.887235
vt 0.730970 0.894864
vt 0.745196 0.903142
vt 0.750000 0.911750
vt 0.745196 0.920358
vt 0.730970 0.928636
vt 0.707867 0.936265
vt 0.676777 0.942951
vt 0.638893 0.948439
vt 0.595671 0.952516
vt 0.548773 0.955027
vt 0.031250 0.230584
vt 0.000000 0.230584
vt 0.062500 0.230584
vt 0.093750 0.230584
vt 0.125000 0.230584
vt 0.156250 0.230584
vt 0.187500 0.230584
vt 0.218750 0.230584
vt 0.250000 0.230584
vt 0.281250 0.230584
vt 0.312500 0.230584
vt 0.343750 0.230584
vt 0.375000 0.230584
vt 0.406250 0.230584
vt 0.437500 0.230584
vt 0.468750 0.230584
vt 0.500000 0.230584
vt 0.531250 0.230584
vt 0.562500 0.230584
vt 0.593750 0.230584
vt 0.625000 0.230584
vt 0.656250 0.230584
vt 0.687500 0.230584
vt 0.718750 0.230584
vt 0.750000 0.230584
vt 0.781250 0.230584
vt 0.812500 0.230584
vt 0.843750 0.230584
vt 0.875000 0.230584
vt 0.906250 0.230584
vt 0.937500 0.230584
vt 0.968750 0.230584
vt 1.000000 0.230584
vt 1.000000 0.500000
vt 0.990393 0.597545
vt 0.961940 0.691342
vt 0.915735 0.777785
vt 0.853553 0.853553
vt 0.777785 0.915735
vt 0.691342 0.961940
vt 0.597545 0.990393
vt 0.402455 0.990393
vt 0.308658 0.961940
vt 0.222215 0.915735
vt 0.146447 0.853553
vt 0.084265 0.777785
vt 0.038060 0.691342
vt 0.009607 0.597545
vt 0.000000 0.500000
vt 0.009607 0.402455
vt 0.038060 0.308658
vt 0.084265 0.222215
vt 0.146447 0.146447
vt 0.222215 0.084265
vt 0.308658 0.038060
vt 0.402455 0.009607
vt 0.597545 0.009607
vt 0.691342 0.038060
vt 0.777785 0.084265
vt 0.853553 0.146447
vt 0.915735 0.222215
vt 0.961940 0.308658
vt 0.990393 0.402455
vt 0.031250 0.960782
vt 0.000000 0.960782
vt 0.062500 0.960782
vt 0.093750 0.960782
vt 0.125000 0.960782
vt 0.156250 0.960782
vt 0.187500 0.960782
vt 0.218750 0.960782
vt 0.250000 0.960782
vt 0.281250 0.960782
vt 0.312500 0.960782
vt 0.343750 0.960782
vt 0.375000 0.960782
vt 0.406250 0.960782
vt 0.437500 0.960782
vt 0.468750 0.960782
vt 0.500000 0.960782
vt 0.531250 0.960782
vt 0.562500 0.960782
vt 0.593750 0.960782
vt 0.625000 0.960782
vt 0.656250 0.960782
vt 0.687500 0.960782
vt 0.718750 0.960782
vt 0.750000 0.960782
vt 0.781250 0.960782
vt 0.812500 0.960782
vt 0.843750 0.960782
vt 0.875000 0.960782
vt 0.906250 0.960782
vt 0.937500 0.960782
vt 0.968750 0.960782
vt 1.000000 0.960782
vt 0.031250 0.038538
vt 0.000000 0.038538
vt 0.062500 0.038538
vt 0.093750 0.038538
vt 0.125000 0.038538
vt 0.156250 0.038538
vt 0.187500 0.038538
vt 0.218750 0.038538
vt 0.250000 0.038538
vt 0.281250 0.038538
vt 0.312500 0.038538
vt 0.343750 0.038538
vt 0.375000 0.038538
vt 0.406250 0.038538
vt 0.437500 0.038538
vt 0.468750 0.038538
vt 0.500000 0.038538
vt 0.531250 0.038538
vt 0.562500 0.038538
vt 0.593750 0.038538
vt 0.625000 0.038538
vt 0.656250 0.038538
vt 0.687500 0.038538
vt 0.718750 0.038538
vt 0.750000 0.038538
vt 0.781250 0.038538
vt 0.812500 0.038538
vt 0.843750 0.038538
vt 0.875000 0.038538
vt 0.906250 0.038538
vt 0.937500 0.038538
vt 0.968750 0.038538
vt 1.000000 0.038538
vt 0.031250 0.754853
vt 0.000000 0.754853
vt 0.062500 0.754853
vt 0.093750 0.754853
vt 0.125000 0.754853
vt 0.156250 0.754853
vt 0.187500 0.754853
vt 0.218750 0.754853
vt 0.250000 0.754853
vt 0.281250 0.754853
vt 0.312500 0.754853
vt 0.343750 0.754853
vt 0.375000 0.754853
vt 0.406250 0.754853
vt 0.437500 0.754853
vt 0.468750 0.754853
vt 0.500000 0.754853
vt 0.531250 0.754853
vt 0.562500 0.754853
vt 0.593750 0.754853
vt 0.625000 0.754853
vt 0.656250 0.754853
vt 0.687500 0.754853
vt 0.718750 0.754853
vt 0.750000 0.754853
vt 0.781250 0.754853
vt 0.812500 0.754853
vt 0.843750 0.754853
vt 0.875000 0.754853
vt 0.906250 0.754853
vt 0.937500 0.754853
vt 0.968750 0.754853
vt 1.000000 0.754853
vt 0.500000 0.500000
o shrink_plus
usemtl shrink
f 1/1/1 2/2/1 3/3/1 4/4/1
f 2/2/2 5/5/2 6/6/2 3/3/2
f 5/5/3 7/7/3 8/8/3 6/6/3
f 7/7/4 9/9/4 10/10/4 8/8/4
f 9/9/5 11/11/5 12/12/5 10/10/5
f 11/11/6 13/13/6 14/14/6 12/12/6
f 13/13/7 15/15/7 16/16/7 14/14/7
f 15/15/8 17/17/8 18/18/8 16/16/8
f 17/17/9 19/19/9 20/20/9 18/18/9
f 19/19/10 21/21/10 22/22/10 20/20/10
f 21/21/11 23/23/11 24/24/11 22/22/11
f 23/23/12 25/25/12 26/26/12 24/24/12
f 25/25/13 27/27/13 28/28/13 26/26/13
f 27/27/14 29/29/14 30/30/14 28/28/14
f 29/29/15 31/31/15 32/32/15 30/30/15
f 31/31/16 33/33/16 34/34/16 32/32/16
f 33/33/17 35/35/17 36/36/17 34/34/17
f 35/35/18 37/37/18 38/38/18 36/36/18
f 37/37/19 39/39/19 40/40/19 38/38/19
f 39/39/20 41/41/20 42/42/20 40/40/20
f 41/41/21 43/43/21 44/44/21 42/42/21
f 43/43/22 45/45/22 46/46/22 44/44/22
f 45/45/23 47/47/23 48/48/23 46/46/23
f 47/47/24 49/49/24 50/50/24 48/48/24
f 49/49/25 51/51/25 52/52/25 50/50/25
f 51/51/26 53/53/26 54/54/26 52/52/26
f 53/53/27 55/55/27 56/56/27 54/54/27
f 55/55/28 57/57/28 58/58/28 56/56/28
f 57/57/29 59/59/29 60/60/29 58/58/29
f 59/59/30 61/61/30 62/62/30 60/60/30
f 61/61/31 63/63/31 64/64/31 62/62/31
f 63/63/32 1/65/32 4/66/32 64/64/32
f 63/67/33 61/68/33 59/69/33 57/70/33
f 63/67/33 57/70/33 55/71/33 53/72/33
f 63/67/33 53/72/33 51/73/33 49/74/33
f 63/67/33 49/74/33 47/75/33 45/76/33
f 63/67/33 45/76/33 43/77/33 41/78/33
f 63/67/33 41/78/33 39/79/33 37/80/33
f 63/67/33 37/80/33 35/81/33 33/82/33
f 63/67/33 33/82/33 31/83/33 29/84/33
f 63/67/33 29/84/33 27/85/33 25/86/33
f 63/67/33 25/86/33 23/87/33 21/88/33
f 63/67/33 21/88/33 19/89/33 17/90/33
f 63/67/33 17/90/33 15/91/33 13/92/33
f 63/67/33 13/92/33 11/93/33 9/94/33
f 63/67/33 9/94/33 7/95/33 5/96/33
f 63/67/33 5/96/33 2/97/33 1/98/33
f 65/4/34 66/3/34 67/99/34 68/100/34
f 66/3/35 69/6/35 70/101/35 67/99/35
f 69/6/36 71/8/36 72/102/36 70/101/36
f 71/8/37 73/10/37 74/103/37 72/102/37
f 73/10/38 75/12/38 76/104/38 74/103/38
f 75/12/39 77/14/39 78/105/39 76/104/39
f 77/14/40 79/16/40 80/106/40 78/105/40
f 79/16/41 81/18/41 82/107/41 80/106/41
f 81/18/42 83/20/42 84/108/42 82/107/42
f 83/20/43 85/22/43 86/109/43 84/108/43
f 85/22/44 87/24/44 88/110/44 86/109/44
f 87/24/45 89/26/45 90/111/45 88/110/45
f 89/26/46 91/28/46 92/112/46 90/111/46
f 91/28/47 93/30/47 94/113/47 92/112/47
f 93/30/48 95/32/48 96/114/48 94/113/48
f 95/32/49 97/34/49 98/115/49 96/114/49
f 97/34/50 99/36/50 100/116/50 98/115/50
f 99/36/51 101/38/51 102/117/51 100/116/51
f 101/38/52 103/40/52 104/118/52 102/117/52
f 103/40/53 105/42/53 106/119/53 104/118/53
f 105/42/54 107/44/54 108/120/54 106/119/54
f 107/44/55 109/46/55 110/121/55 108/120/55
f 109/46/56 111/48/56 112/122/56 110/121/56
f 111/48/57 113/50/57 114/123/57 112/122/57
f 113/50/58 115/52/58 116/124/58 114/123/58
f 115/52/59 117/54/59 118/125/59 116/124/59
f 117/54/60 119/56/60 120/126/60 118/125/60
f 119/56/61 121/58/61 122/127/61 120/126/61
f 121/58/62 123/60/62 124/128/62 122/127/62
f 123/60/63 125/62/63 126/129/63 124/128/63
f 125/62/64 127/64/64 128/130/64 126/129/64
f 127/64/65 65/66/65 68/131/65 128/130/65
f 127/132/33 125/133/33 123/134/33 121/135/33
f 127/132/33 121/135/33 119/136/33 117/137/33
f 127/132/33 117/137/33 115/138/33 113/139/33
f 127/132/33 113/139/33 111/140/33 109/141/33
f 127/132/33 109/141/33 107/142/33 105/143/33
f 127/132/33 105/143/33 103/144/33 101/145/33
f 127/132/33 101/145/33 99/146/33 97/147/33
f 127/132/33 97/147/33 95/148/33 93/149/33
f 127/132/33 93/149/33 91/150/33 89/151/33
f 127/132/33 89/151/33 87/152/33 85/153/33
f 127/132/33 85/153/33 83/154/33 81/155/33
f 127/132/33 81/155/33 79/156/33 77/157/33
f 127/132/33 77/157/33 75/158/33 73/159/33
f 127/132/33 73/159/33 71/160/33 69/161/33
f 127/132/33 69/161/33 66/162/33 65/163/33
f 129/100/34 130/99/34 131/164/34 132/165/34
f 130/99/35 133/101/35 134/166/35 131/164/35
f 133/101/36 135/102/36 136/167/36 134/166/36
f 135/102/37 137/103/37 138/168/37 136/167/37
f 137/103/38 139/104/38 140/169/38 138/168/38
f 139/104/39 141/105/39 142/170/39 140/169/39
f 141/105/40 143/106/40 144/171/40 142/170/40
f 143/106/41 145/107/41 146/172/41 144/171/41
f 145/107/42 147/108/42 148/173/42 146/172/42
f 147/108/43 149/109/43 150/174/43 148/173/43
f 149/109/44 151/110/44 152/175/44 150/174/44
f 151/110/45 153/111/45 154/176/45 152/175/45
f 153/111/46 155/112/46 156/177/46 154/176/46
f 155/112/47 157/113/47 158/178/47 156/177/47
f 157/113/48 159/114/48 160/179/48 158/178/48
f 159/114/49 161/115/49 162/180/49 160/179/49
f 161/115/50 163/116/50 164/181/50 162/180/50
f 163/116/51 165/117/51 166/182/51 164/181/51
f 165/117/52 167/118/52 168/183/52 166/182/52
f 167/118/53 169/119/53 170/184/53 168/183/53
f 169/119/54 171/120/54 172/185/54 170/184/54
f 171/120/55 173/121/55 174/186/55 172/185/55
f 173/121/56 175/122/56 176/187/56 174/186/56
f 175/122/57 177/123/57 178/188/57 176/187/57
f 177/123/58 179/124/58 180/189/58 178/188/58
f 179/124/59 181/125/59 182/190/59 180/189/59
f 181/125/60 183/126/60 184/191/60 182/190/60
f 183/126/61 185/127/61 186/192/61 184/191/61
f 185/127/62 187/128/62 188/193/62 186/192/62
f 187/128/63 189/129/63 190/194/63 188/193/63
f 189/129/64 191/130/64 192/195/64 190/194/64
f 191/130/65 129/131/65 132/196/65 192/195/65
f 191/197/33 189/198/33 187/199/33 185/200/33
f 191/197/33 185/200/33 183/201/33 181/202/33
f 191/197/33 181/202/33 179/203/33 177/204/33
f 191/197/33 177/204/33 175/205/33 173/206/33
f 191/197/33 173/206/33 171/207/33 169/208/33
f 191/197/33 169/208/33 167/209/33 165/210/33
f 191/197/33 165/210/33 163/211/33 161/212/33
f 191/197/33 161/212/33 159/213/33 157/214/33
f 191/197/33 157/214/33 155/215/33 153/216/33
f 191/197/33 153/216/33 151/217/33 149/218/33
f 191/197/33 149/218/33 147/219/33 145/220/33
f 191/197/33 145/220/33 143/221/33 141/222/33
f 191/197/33 141/222/33 139/223/33 137/224/33
f 191/197/33 137/224/33 135/225/33 133/226/33
f 191/197/33 133/226/33 130/227/33 129/228/33
f 132/228/66 131/227/66 134/226/66 136/225/66
f 132/228/66 136/225/66 138/224/66 140/223/66
f 132/228/66 140/223/66 142/222/66 144/221/66
f 132/228/66 144/221/66 146/220/66 148/219/66
f 132/228/66 148/219/66 150/218/66 152/217/66
f 132/228/66 152/217/66 154/216/66 156/215/66
f 132/228/66 156/215/66 158/214/66 160/213/66
f 132/228/66 160/213/66 162/212/66 164/211/66
f 132/228/66 164/211/66 166/210/66 168/209/66
f 132/228/66 168/209/66 170/208/66 172/207/66
f 132/228/66 172/207/66 174/206/66 176/205/66
f 132/228/66 176/205/66 178/204/66 180/203/66
f 132/228/66 180/203/66 182/202/66 184/201/66
f 132/228/66 184/201/66 186/200/66 188/199/66
f 132/228/66 188/199/66 190/198/66 192/197/66
f 193/165/34 194/164/34 195/229/34 196/230/34
f 194/164/35 197/166/35 198/231/35 195/229/35
f 197/166/36 199/167/36 200/232/36 198/231/36
f 199/167/37 201/168/37 202/233/37 200/232/37
f 201/168/38 203/169/38 204/234/38 202/233/38
f 203/169/39 205/170/39 206/235/39 204/234/39
f 205/170/40 207/171/40 208/236/40 206/235/40
f 207/171/41 209/172/41 210/237/41 208/236/41
f 209/172/42 211/173/42 212/238/42 210/237/42
f 211/173/43 213/174/43 214/239/43 212/238/43
f 213/174/44 215/175/44 216/240/44 214/239/44
f 215/175/45 217/176/45 218/241/45 216/240/45
f 217/176/46 219/177/46 220/242/46 218/241/46
f 219/177/47 221/178/47 222/243/47 220/242/47
f 221/178/48 223/179/48 224/244/48 222/243/48
f 223/179/49 225/180/49 226/245/49 224/244/49
f 225/180/50 227/181/50 228/246/50 226/245/50
f 227/181/51 229/182/51 230/247/51 228/246/51
f 229/182/52 231/183/52 232/248/52 230/247/52
f 231/183/53 233/184/53 234/249/53 232/248/53
f 233/184/54 235/185/54 236/250/54 234/249/54
f 235/185/55 237/186/55 238/251/55 236/250/55
f 237/186/56 239/187/56 240/252/56 238/251/56
f 239/187/57 241/188/57 242/253/57 240/252/57
f 241/188/58 243/189/58 244/254/58 242/253/58
f 243/189/59 245/190/59 246/255/59 244/254/59
f 245/190/60 247/191/60 248/256/60 246/255/60
f 247/191/61 249/192/61 250/257/61 248/256/61
f 249/192/62 251/193/62 252/258/62 250/257/62
f 251/193/63 253/194/63 254/259/63 252/258/63
f 253/194/64 255/195/64 256/260/64 254/259/64
f 255/195/65 193/196/65 196/261/65 256/260/65
f 196/262/66 195/263/66 198/264/66 200/265/66
f 196/262/66 200/265/66 202/266/66 204/267/66
f 196/262/66 204/267/66 206/268/66 208/269/66
f 196/262/66 208/269/66 210/270/66 212/271/66
f 196/262/66 212/271/66 214/272/66 216/273/66
f 196/262/66 216/273/66 218/274/66 220/275/66
f 196/262/66 220/275/66 222/276/66 224/277/66
f 196/262/66 224/277/66 226/278/66 228/279/66
f 196/262/66 228/279/66 230/280/66 232/281/66
f 196/262/66 232/281/66 234/282/66 236/283/66
f 196/262/66 236/283/66 238/284/66 240/285/66
f 196/262/66 240/285/66 242/286/66 244/287/66
f 196/262/66 244/287/66 246/288/66 248/289/66
f 196/262/66 248/289/66 250/290/66 252/291/66
f 196/262/66 252/291/66 254/292/66 256/293/66
f 257/230/67 258/229/67 259/294/67 260/295/67
f 258/229/68 261/231/68 262/296/68 259/294/68
f 261/231/69 263/232/69 264/297/69 262/296/69
f 263/232/70 265/233/70 266/298/70 264/297/70
f 265/233/71 267/234/71 268/299/71 266/298/71
f 267/234/72 269/235/72 270/300/72 268/299/72
f 269/235/73 271/236/73 272/301/73 270/300/73
f 271/236/74 273/237/74 274/302/74 272/301/74
f 273/237/75 275/238/75 276/303/75 274/302/75
f 275/238/76 277/239/76 278/304/76 276/303/76
f 277/239/77 279/240/77 280/305/77 278/304/77
f 279/240/78 281/241/78 282/306/78 280/305/78
f 281/241/79 283/242/79 284/307/79 282/306/79
f 283/242/80 285/243/80 286/308/80 284/307/80
f 285/243/81 287/244/81 288/309/81 286/308/81
f 287/244/82 289/245/82 290/310/82 288/309/82
f 289/245/83 291/246/83 292/311/83 290/310/83
f 291/246/84 293/247/84 294/312/84 292/311/84
f 293/247/85 295/248/85 296/313/85 294/312/85
f 295/248/86 297/249/86 298/314/86 296/313/86
f 297/249/87 299/250/87 300/315/87 298/314/87
f 299/250/88 301/251/88 302/316/88 300/315/88
f 301/251/89 303/252/89 304/317/89 302/316/89
f 303/252/90 305/253/90 306/318/90 304/317/90
f 305/253/91 307/254/91 308/319/91 306/318/91
f 307/254/92 309/255/92 310/320/92 308/319/92
f 309/255/93 311/256/93 312/321/93 310/320/93
f 311/256/94 313/257/94 314/322/94 312/321/94
f 313/257/95 315/258/95 316/323/95 314/322/95
f 315/258/96 317/259/96 318/324/96 316/323/96
f 317/259/97 319/260/97 320/325/97 318/324/97
f 319/260/98 257/261/98 260/326/98 320/325/98
f 260/327/66 259/328/66 262/329/66 264/330/66
f 260/327/66 264/330/66 266/331/66 268/332/66
f 260/327/66 268/332/66 270/333/66 272/334/66
f 260/327/66 272/334/66 274/335/66 276/336/66
f 260/327/66 276/336/66 278/337/66 280/338/66
f 260/327/66 280/338/66 282/339/66 284/340/66
f 260/327/66 284/340/66 286/341/66 288/342/66
f 260/327/66 288/342/66 290/343/66 292/344/66
f 260/327/66 292/344/66 294/345/66 296/346/66
f 260/327/66 296/346/66 298/347/66 300/348/66
f 260/327/66 300/348/66 302/349/66 304/350/66
f 260/327/66 304/350/66 306/351/66 308/352/66
f 260/327/66 308/352/66 310/353/66 312/354/66
f 260/327/66 312/354/66 314/355/66 316/356/66
f 260/327/66 316/356/66 318/357/66 320/358/66
o cable
usemtl core
f 321/1/99 322/2/99 323/359/99 324/360/99
f 322/2/100 325/5/100 326/361/100 323/359/100
f 325/5/101 327/7/101 328/362/101 326/361/101
f 327/7/102 329/9/102 330/363/102 328/362/102
f 329/9/103 331/11/103 332/364/103 330/363/103
f 331/11/104 333/13/104 334/365/104 332/364/104
f 333/13/105 335/15/105 336/366/105 334/365/105
f 335/15/106 337/17/106 338/367/106 336/366/106
f 337/17/107 339/19/107 340/368/107 338/367/107
f 339/19/108 341/21/108 342/369/108 340/368/108
f 341/21/109 343/23/109 344/370/109 342/369/109
f 343/23/110 345/25/110 346/371/110 344/370/110
f 345/25/111 347/27/111 348/372/111 346/371/111
f 347/27/112 349/29/112 350/373/112 348/372/112
f 349/29/113 351/31/113 352/374/113 350/373/113
f 351/31/114 353/33/114 354/375/114 352/374/114
f 353/33/115 355/35/115 356/376/115 354/375/115
f 355/35/116 357/37/116 358/377/116 356/376/116
f 358/377/117 359/378/117 360/39/117 357/37/117
f 359/378/118 361/379/118 362/41/118 360/39/118
f 361/379/119 363/380/119 364/43/119 362/41/119
f 363/380/120 365/381/120 366/45/120 364/43/120
f 365/381/121 367/382/121 368/47/121 366/45/121
f 367/382/122 369/383/122 370/49/122 368/47/122
f 369/383/123 371/384/123 372/51/123 370/49/123
f 371/384/124 373/385/124 374/53/124 372/51/124
f 373/385/125 375/386/125 376/55/125 374/53/125
f 375/386/126 377/387/126 378/57/126 376/55/126
f 377/387/127 379/388/127 380/59/127 378/57/127
f 380/59/128 381/61/128 382/389/128 379/388/128
f 381/61/129 383/63/129 384/390/129 382/389/129
f 383/63/130 321/65/130 324/391/130 384/390/130
f 324/360/131 323/359/131 385/294/131 386/295/131
f 323/359/132 326/361/132 387/296/132 385/294/132
f 326/361/133 328/362/133 388/297/133 387/296/133
f 328/362/134 330/363/134 389/298/134 388/297/134
f 330/363/135 332/364/135 390/299/135 389/298/135
f 332/364/136 334/365/136 391/300/136 390/299/136
f 334/365/137 336/366/137 392/301/137 391/300/137
f 336/366/138 338/367/138 393/302/138 392/301/138
f 338/367/139 340/368/139 394/303/139 393/302/139
f 340/368/140 342/369/140 395/304/140 394/303/140
f 342/369/141 344/370/141 396/305/141 395/304/141
f 344/370/142 346/371/142 397/306/142 396/305/142
f 346/371/143 348/372/143 398/307/143 397/306/143
f 348/372/144 350/373/144 399/308/144 398/307/144
f 350/373/145 352/374/145 400/309/145 399/308/145
f 352/374/146 354/375/146 401/310/146 400/309/146
f 354/375/147 356/376/147 402/311/147 401/310/147
f 356/376/148 358/377/148 403/312/148 402/311/148
f 358/377/149 359/378/149 404/313/149 403/312/149
f 359/378/150 361/379/150 405/314/150 404/313/150
f 361/379/151 363/380/151 406/315/151 405/314/151
f 363/380/152 365/381/152 407/316/152 406/315/152
f 365/381/153 367/382/153 408/317/153 407/316/153
f 367/382/154 369/383/154 409/318/154 408/317/154
f 369/383/155 371/384/155 410/319/155 409/318/155
f 371/384/156 373/385/156 411/320/156 410/319/156
f 373/385/157 375/386/157 412/321/157 411/320/157
f 375/386/158 377/387/158 413/322/158 412/321/158
f 377/387/159 379/388/159 414/323/159 413/322/159
f 379/388/160 382/389/160 415/324/160 414/323/160
f 382/389/161 384/390/161 416/325/161 415/324/161
f 384/390/162 324/391/162 386/326/162 416/325/162
f 386/392/163 385/393/163 387/394/163 388/395/163 389/396/163 390/397/163 391/398/163 392/399/163 393/310/163 394/400/163 395/401/163 396/402/163 397/403/163 398/404/163 399/405/163 400/406/163 401/407/163 402/408/163 403/409/163 404/410/163 405/411/163 406/412/163 407/413/163 408/414/163 409/33/163 410/415/163 411/416/163 412/417/163 413/418/163 414/419/163 415/420/163 416/421/163
f 417/1/164 418/2/164 419/422/164 420/423/164
f 418/2/165 421/5/165 422/424/165 419/422/165
f 421/5/166 423/7/166 424/425/166 422/424/166
f 423/7/167 425/9/167 426/426/167 424/425/167
f 425/9/168 427/11/168 428/427/168 426/426/168
f 427/11/169 429/13/169 430/428/169 428/427/169
f 429/13/170 431/15/170 432/429/170 430/428/170
f 431/15/171 433/17/171 434/430/171 432/429/171
f 433/17/172 435/19/172 436/431/172 434/430/172
f 435/19/173 437/21/173 438/432/173 436/431/173
f 437/21/174 439/23/174 440/433/174 438/432/174
f 439/23/175 441/25/175 442/434/175 440/433/175
f 441/25/176 443/27/176 444/435/176 442/434/176
f 443/27/177 445/29/177 446/436/177 444/435/177
f 445/29/178 447/31/178 448/437/178 446/436/178
f 447/31/179 449/33/179 450/438/179 448/437/179
f 449/33/180 451/35/180 452/439/180 450/438/180
f 451/35/181 453/37/181 454/440/181 452/439/181
f 453/37/182 455/39/182 456/441/182 454/440/182
f 455/39/183 457/41/183 458/442/183 456/441/183
f 457/41/184 459/43/184 460/443/184 458/442/184
f 459/43/185 461/45/185 462/444/185 460/443/185
f 461/45/186 463/47/186 464/445/186 462/444/186
f 463/47/187 465/49/187 466/446/187 464/445/187
f 465/49/188 467/51/188 468/447/188 466/446/188
f 467/51/189 469/53/189 470/448/189 468/447/189
f 469/53/190 471/55/190 472/449/190 470/448/190
f 471/55/191 473/57/191 474/450/191 472/449/191
f 473/57/192 475/59/192 476/451/192 474/450/192
f 475/59/193 477/61/193 478/452/193 476/451/193
f 477/61/194 479/63/194 480/453/194 478/452/194
f 479/63/195 417/65/195 420/454/195 480/453/195
f 420/423/196 419/422/196 481/294/196 482/295/196
f 419/422/197 422/424/197 483/296/197 481/294/197
f 422/424/198 424/425/198 484/297/198 483/296/198
f 424/425/199 426/426/199 485/298/199 484/297/199
f 426/426/200 428/427/200 486/299/200 485/298/200
f 428/427/201 430/428/201 487/300/201 486/299/201
f 430/428/202 432/429/202 488/301/202 487/300/202
f 432/429/203 434/430/203 489/302/203 488/301/203
f 434/430/204 436/431/204 490/303/204 489/302/204
f 436/431/205 438/432/205 491/304/205 490/303/205
f 438/432/206 440/433/206 492/305/206 491/304/206
f 440/433/207 442/434/207 493/306/207 492/305/207
f 442/434/208 444/435/208 494/307/208 493/306/208
f 444/435/209 446/436/209 495/308/209 494/307/209
f 446/436/210 448/437/210 496/309/210 495/308/210
f 448/437/211 450/438/211 497/310/211 496/309/211
f 450/438/212 452/439/212 498/311/212 497/310/212
f 452/439/213 454/440/213 499/312/213 498/311/213
f 454/440/214 456/441/214 500/313/214 499/312/214
f 456/441/215 458/442/215 501/314/215 500/313/215
f 458/442/216 460/443/216 502/315/216 501/314/216
f 460/443/217 462/444/217 503/316/217 502/315/217
f 462/444/218 464/445/218 504/317/218 503/316/218
f 464/445/219 466/446/219 505/318/219 504/317/219
f 466/446/220 468/447/220 506/319/220 505/318/220
f 468/447/221 470/448/221 507/320/221 506/319/221
f 470/448/222 472/449/222 508/321/222 507/320/222
f 472/449/223 474/450/223 509/322/223 508/321/223
f 474/450/224 476/451/224 510/323/224 509/322/224
f 476/451/225 478/452/225 511/324/225 510/323/225
f 478/452/226 480/453/226 512/325/226 511/324/226
f 480/453/227 420/454/227 482/326/227 512/325/227
f 479/421/228 477/420/228 475/419/228 473/418/228 471/417/228 469/416/228 467/415/228 465/33/228 463/414/228 461/413/228 459/412/228 457/411/228 455/410/228 453/409/228 451/408/228 449/407/228 447/406/228 445/405/228 443/404/228 441/403/228 439/402/228 437/401/228 435/400/228 433/310/228 431/399/228 429/398/228 427/397/228 425/396/228 423/395/228 421/394/228 418/393/228 417/392/228
f 833/1/229 834/2/229 835/455/229 836/456/229
f 834/2/230 837/5/230 838/457/230 835/455/230
f 837/5/231 839/7/231 840/458/231 838/457/231
f 839/7/232 841/9/232 842/459/232 840/458/232
f 841/9/233 843/11/233 844/460/233 842/459/233
f 843/11/234 845/13/234 846/461/234 844/460/234
f 845/13/235 847/15/235 848/462/235 846/461/235
f 847/15/236 849/17/236 850/463/236 848/462/236
f 849/17/237 851/19/237 852/464/237 850/463/237
f 851/19/238 853/21/238 854/465/238 852/464/238
f 853/21/239 855/23/239 856/466/239 854/465/239
f 855/23/240 857/25/240 858/467/240 856/466/240
f 857/25/241 859/27/241 860/468/241 858/467/241
f 859/27/242 861/29/242 862/469/242 860/468/242
f 861/29/243 863/31/243 864/470/243 862/469/243
f 863/31/244 865/33/244 866/471/244 864/470/244
f 865/33/245 867/35/245 868/472/245 866/471/245
f 867/35/246 869/37/246 870/473/246 868/472/246
f 869/37/247 871/39/247 872/474/247 870/473/247
f 871/39/248 873/41/248 874/475/248 872/474/248
f 873/41/249 875/43/249 876/476/249 874/475/249
f 875/43/250 877/45/250 878/477/250 876/476/250
f 877/45/251 879/47/251 880/478/251 878/477/251
f 879/47/252 881/49/252 882/479/252 880/478/252
f 881/49/253 883/51/253 884/480/253 882/479/253
f 883/51/254 885/53/254 886/481/254 884/480/254
f 885/53/255 887/55/255 888/482/255 886/481/255
f 887/55/256 889/57/256 890/483/256 888/482/256
f 889/57/257 891/59/257 892/484/257 890/483/257
f 891/59/258 893/61/258 894/485/258 892/484/258
f 893/61/259 895/63/259 896/486/259 894/485/259
f 895/63/260 833/65/260 836/487/260 896/486/260
f 836/456/261 835/455/261 897/294/261 898/295/261
f 835/455/262 838/457/262 899/296/262 897/294/262
f 838/457/263 840/458/263 900/297/263 899/296/263
f 840/458/264 842/459/264 901/298/264 900/297/264
f 842/459/265 844/460/265 902/299/265 901/298/265
f 844/460/266 846/461/266 903/300/266 902/299/266
f 846/461/267 848/462/267 904/301/267 903/300/267
f 848/462/268 850/463/268 905/302/268 904/301/268
f 850/463/269 852/464/269 906/303/269 905/302/269
f 852/464/270 854/465/270 907/304/270 906/303/270
f 854/465/271 856/466/271 908/305/271 907/304/271
f 856/466/272 858/467/272 909/306/272 908/305/272
f 858/467/273 860/468/273 910/307/273 909/306/273
f 860/468/274 862/469/274 911/308/274 910/307/274
f 862/469/275 864/470/275 912/309/275 911/308/275
f 864/470/276 866/471/276 913/310/276 912/309/276
f 866/471/277 868/472/277 914/311/277 913/310/277
f 868/472/278 870/473/278 915/312/278 914/311/278
f 870/473/279 872/474/279 916/313/279 915/312/279
f 872/474/280 874/475/280 917/314/280 916/313/280
f 874/475/281 876/476/281 918/315/281 917/314/281
f 876/476/282 878/477/282 919/316/282 918/315/282
f 878/477/283 880/478/283 920/317/283 919/316/283
f 880/478/284 882/479/284 921/318/284 920/317/284
f 882/479/285 884/480/285 922/319/285 921/318/285
f 884/480/286 886/481/286 923/320/286 922/319/286
f 886/481/287 888/482/287 924/321/287 923/320/287
f 888/482/288 890/483/288 925/322/288 924/321/288
f 890/483/289 892/484/289 926/323/289 925/322/289
f 892/484/290 894/485/290 927/324/290 926/323/290
f 894/485/291 896/486/291 928/325/291 927/324/291
f 896/486/292 836/487/292 898/326/292 928/325/292
f 898/392/293 897/393/293 899/394/293 900/395/293 901/396/293 902/397/293 903/398/293 904/399/293 905/310/293 906/400/293 907/401/293 908/402/293 909/403/293 910/404/293 911/405/293 912/406/293 913/407/293 914/408/293 915/409/293 916/410/293 917/411/293 918/412/293 919/413/293 920/414/293 921/33/293 922/415/293 923/416/293 924/417/293 925/418/293 926/419/293 927/420/293 928/421/293
f 929/1/294 930/2/294 931/488/294 932/489/294
f 930/2/295 933/5/295 934/490/295 931/488/295
f 933/5/296 935/7/296 936/491/296 934/490/296
f 935/7/297 937/9/297 938/492/297 936/491/297
f 937/9/298 939/11/298 940/493/298 938/492/298
f 939/11/299 941/13/299 942/494/299 940/493/299
f 941/13/300 943/15/300 944/495/300 942/494/300
f 943/15/301 945/17/301 946/496/301 944/495/301
f 945/17/302 947/19/302 948/497/302 946/496/302
f 947/19/303 949/21/303 950/498/303 948/497/303
f 949/21/304 951/23/304 952/499/304 950/498/304
f 951/23/305 953/25/305 954/500/305 952/499/305
f 953/25/306 955/27/306 956/501/306 954/500/306
f 955/27/307 957/29/307 958/502/307 956/501/307
f 957/29/308 959/31/308 960/503/308 958/502/308
f 959/31/309 961/33/309 962/504/309 960/503/309
f 961/33/310 963/35/310 964/505/310 962/504/310
f 963/35/311 965/37/311 966/506/311 964/505/311
f 965/37/312 967/39/312 968/507/312 966/506/312
f 967/39/313 969/41/313 970/508/313 968/507/313
f 969/41/314 971/43/314 972/509/314 970/508/314
f 971/43/315 973/45/315 974/510/315 972/509/315
f 973/45/316 975/47/316 976/511/316 974/510/316
f 975/47/317 977/49/317 978/512/317 976/511/317
f 977/49/318 979/51/318 980/513/318 978/512/318
f 979/51/319 981/53/319 982/514/319 980/513/319
f 981/53/320 983/55/320 984/515/320 982/514/320
f 983/55/321 985/57/321 986/516/321 984/515/321
f 985/57/322 987/59/322 988/517/322 986/516/322
f 987/59/323 989/61/323 990/518/323 988/517/323
f 989/61/324 991/63/324 992/519/324 990/518/324
f 991/63/325 929/65/325 932/520/325 992/519/325
f 932/489/326 931/488/326 993/294/326 994/295/326
f 931/488/327 934/490/327 995/296/327 993/294/327
f 934/490/328 936/491/328 996/297/328 995/296/328
f 936/491/329 938/492/329 997/298/329 996/297/329
f 938/492/330 940/493/330 998/299/330 997/298/330
f 940/493/331 942/494/331 999/300/331 998/299/331
f 942/494/332 944/495/332 1000/301/332 999/300/332
f 944/495/333 946/496/333 1001/302/333 1000/301/333
f 946/496/334 948/497/334 1002/303/334 1001/302/334
f 948/497/335 950/498/335 1003/304/335 1002/303/335
f 950/498/336 952/499/336 1004/305/336 1003/304/336
f 1004/305/337 1005/306/337 954/500/337 952/499/337
f 1005/306/338 1006/307/338 956/501/338 954/500/338
f 1006/307/339 1007/308/339 958/502/339 956/501/339
f 1007/308/340 1008/309/340 960/503/340 958/502/340
f 1008/309/341 1009/310/341 962/504/341 960/503/341
f 1009/310/342 1010/311/342 964/505/342 962/504/342
f 1010/311/343 1011/312/343 966/506/343 964/505/343
f 1011/312/344 1012/313/344 968/507/344 966/506/344
f 1012/313/345 1013/314/345 970/508/345 968/507/345
f 970/508/346 972/509/346 1014/315/346 1013/314/346
f 972/509/347 974/510/347 1015/316/347 1014/315/347
f 974/510/348 976/511/348 1016/317/348 1015/316/348
f 976/511/349 978/512/349 1017/318/349 1016/317/349
f 978/512/350 980/513/350 1018/319/350 1017/318/350
f 980/513/351 982/514/351 1019/320/351 1018/319/351
f 982/514/352 984/515/352 1020/321/352 1019/320/352
f 984/515/353 986/516/353 1021/322/353 1020/321/353
f 986/516/354 988/517/354 1022/323/354 1021/322/354
f 988/517/355 990/518/355 1023/324/355 1022/323/355
f 990/518/356 992/519/356 1024/325/356 1023/324/356
f 992/519/357 932/520/357 994/326/357 1024/325/357
f 991/421/358 989/420/358 987/419/358 985/418/358 983/417/358 981/416/358 979/415/358 977/33/358 975/414/358 973/413/358 971/412/358 969/411/358 967/410/358 965/409/358 963/408/358 961/407/358 959/406/358 957/405/358 955/404/358 953/403/358 951/402/358 949/401/358 947/400/358 945/310/358 943/399/358 941/398/358 939/397/358 937/396/358 935/395/358 933/394/358 930/393/358 929/392/358
o shrink_minus
usemtl shrink
f 513/1/1 514/2/1 515/3/1 516/4/1
f 514/2/2 517/5/2 518/6/2 515/3/2
f 517/5/3 519/7/3 520/8/3 518/6/3
f 519/7/4 521/9/4 522/10/4 520/8/4
f 521/9/5 523/11/5 524/12/5 522/10/5
f 523/11/6 525/13/6 526/14/6 524/12/6
f 525/13/7 527/15/7 528/16/7 526/14/7
f 527/15/8 529/17/8 530/18/8 528/16/8
f 529/17/9 531/19/9 532/20/9 530/18/9
f 531/19/10 533/21/10 534/22/10 532/20/10
f 533/21/11 535/23/11 536/24/11 534/22/11
f 535/23/12 537/25/12 538/26/12 536/24/12
f 537/25/13 539/27/13 540/28/13 538/26/13
f 539/27/14 541/29/14 542/30/14 540/28/14
f 541/29/15 543/31/15 544/32/15 542/30/15
f 543/31/16 545/33/16 546/34/16 544/32/16
f 545/33/17 547/35/17 548/36/17 546/34/17
f 547/35/18 549/37/18 550/38/18 548/36/18
f 549/37/19 551/39/19 552/40/19 550/38/19
f 551/39/20 553/41/20 554/42/20 552/40/20
f 553/41/21 555/43/21 556/44/21 554/42/21
f 555/43/22 557/45/22 558/46/22 556/44/22
f 557/45/23 559/47/23 560/48/23 558/46/23
f 559/47/24 561/49/24 562/50/24 560/48/24
f 561/49/25 563/51/25 564/52/25 562/50/25
f 563/51/26 565/53/26 566/54/26 564/52/26
f 565/53/27 567/55/27 568/56/27 566/54/27
f 567/55/28 569/57/28 570/58/28 568/56/28
f 569/57/29 571/59/29 572/60/29 570/58/29
f 571/59/30 573/61/30 574/62/30 572/60/30
f 573/61/31 575/63/31 576/64/31 574/62/31
f 575/63/32 513/65/32 516/66/32 576/64/32
f 575/67/33 573/68/33 571/69/33 569/70/33
f 575/67/33 569/70/33 567/71/33 565/72/33
f 575/67/33 565/72/33 563/73/33 561/74/33
f 575/67/33 561/74/33 559/75/33 557/76/33
f 575/67/33 557/76/33 555/77/33 553/78/33
f 575/67/33 553/78/33 551/79/33 549/80/33
f 575/67/33 549/80/33 547/81/33 545/82/33
f 575/67/33 545/82/33 543/83/33 541/84/33
f 575/67/33 541/84/33 539/85/33 537/86/33
f 575/67/33 537/86/33 535/87/33 533/88/33
f 575/67/33 533/88/33 531/89/33 529/90/33
f 575/67/33 529/90/33 527/91/33 525/92/33
f 575/67/33 525/92/33 523/93/33 521/94/33
f 575/67/33 521/94/33 519/95/33 517/96/33
f 575/67/33 517/96/33 514/97/33 513/98/33
f 577/4/34 578/3/34 579/99/34 580/100/34
f 578/3/35 581/6/35 582/101/35 579/99/35
f 581/6/36 583/8/36 584/102/36 582/101/36
f 583/8/37 585/10/37 586/103/37 584/102/37
f 585/10/38 587/12/38 588/104/38 586/103/38
f 587/12/39 589/14/39 590/105/39 588/104/39
f 589/14/40 591/16/40 592/106/40 590/105/40
f 591/16/41 593/18/41 594/107/41 592/106/41
f 593/18/42 595/20/42 596/108/42 594/107/42
f 595/20/43 597/22/43 598/109/43 596/108/43
f 597/22/44 599/24/44 600/110/44 598/109/44
f 599/24/45 601/26/45 602/111/45 600/110/45
f 601/26/46 603/28/46 604/112/46 602/111/46
f 603/28/47 605/30/47 606/113/47 604/112/47
f 605/30/48 607/32/48 608/114/48 606/113/48
f 607/32/49 609/34/49 610/115/49 608/114/49
f 609/34/50 611/36/50 612/116/50 610/115/50
f 611/36/51 613/38/51 614/117/51 612/116/51
f 613/38/52 615/40/52 616/118/52 614/117/52
f 615/40/53 617/42/53 618/119/53 616/118/53
f 617/42/54 619/44/54 620/120/54 618/119/54
f 619/44/55 621/46/55 622/121/55 620/120/55
f 621/46/56 623/48/56 624/122/56 622/121/56
f 623/48/57 625/50/57 626/123/57 624/122/57
f 625/50/58 627/52/58 628/124/58 626/123/58
f 627/52/59 629/54/59 630/125/59 628/124/59
f 629/54/60 631/56/60 632/126/60 630/125/60
f 631/56/61 633/58/61 634/127/61 632/126/61
f 633/58/62 635/60/62 636/128/62 634/127/62
f 635/60/63 637/62/63 638/129/63 636/128/63
f 637/62/64 639/64/64 640/130/64 638/129/64
f 639/64/65 577/66/65 580/131/65 640/130/65
f 639/132/33 637/133/33 635/134/33 633/135/33
f 639/132/33 633/135/33 631/136/33 629/137/33
f 639/132/33 629/137/33 627/138/33 625/139/33
f 639/132/33 625/139/33 623/140/33 621/141/33
f 639/132/33 621/141/33 619/142/33 617/143/33
f 639/132/33 617/143/33 615/144/33 613/145/33
f 639/132/33 613/145/33 611/146/33 609/147/33
f 639/132/33 609/147/33 607/148/33 605/149/33
f 639/132/33 605/149/33 603/150/33 601/151/33
f 639/132/33 601/151/33 599/152/33 597/153/33
f 639/132/33 597/153/33 595/154/33 593/155/33
f 639/132/33 593/155/33 591/156/33 589/157/33
f 639/132/33 589/157/33 587/158/33 585/159/33
f 639/132/33 585/159/33 583/160/33 581/161/33
f 639/132/33 581/161/33 578/162/33 577/163/33
f 641/100/34 642/99/34 643/164/34 644/165/34
f 642/99/35 645/101/35 646/166/35 643/164/35
f 645/101/36 647/102/36 648/167/36 646/166/36
f 647/102/37 649/103/37 650/168/37 648/167/37
f 649/103/38 651/104/38 652/169/38 650/168/38
f 651/104/39 653/105/39 654/170/39 652/169/39
f 653/105/40 655/106/40 656/171/40 654/170/40
f 655/106/41 657/107/41 658/172/41 656/171/41
f 657/107/42 659/108/42 660/173/42 658/172/42
f 659/108/43 661/109/43 662/174/43 660/173/43
f 661/109/44 663/110/44 664/175/44 662/174/44
f 663/110/45 665/111/45 666/176/45 664/175/45
f 665/111/46 667/112/46 668/177/46 666/176/46
f 667/112/47 669/113/47 670/178/47 668/177/47
f 669/113/48 671/114/48 672/179/48 670/178/48
f 671/114/49 673/115/49 674/180/49 672/179/49
f 673/115/50 675/116/50 676/181/50 674/180/50
f 675/116/51 677/117/51 678/182/51 676/181/51
f 677/117/52 679/118/52 680/183/52 678/182/52
f 679/118/53 681/119/53 682/184/53 680/183/53
f 681/119/54 683/120/54 684/185/54 682/184/54
f 683/120/55 685/121/55 686/186/55 684/185/55
f 685/121/56 687/122/56 688/187/56 686/186/56
f 687/122/57 689/123/57 690/188/57 688/187/57
f 689/123/58 691/124/58 692/189/58 690/188/58
f 691/124/59 693/125/59 694/190/59 692/189/59
f 693/125/60 695/126/60 696/191/60 694/190/60
f 695/126/61 697/127/61 698/192/61 696/191/61
f 697/127/62 699/128/62 700/193/62 698/192/62
f 699/128/63 701/129/63 702/194/63 700/193/63
f 701/129/64 703/130/64 704/195/64 702/194/64
f 703/130/65 641/131/65 644/196/65 704/195/65
f 703/197/33 701/198/33 699/199/33 697/200/33
f 703/197/33 697/200/33 695/201/33 693/202/33
f 703/197/33 693/202/33 691/203/33 689/204/33
f 703/197/33 689/204/33 687/205/33 685/206/33
f 703/197/33 685/206/33 683/207/33 681/208/33
f 703/197/33 681/208/33 679/209/33 677/210/33
f 703/197/33 677/210/33 675/211/33 673/212/33
f 703/197/33 673/212/33 671/213/33 669/214/33
f 703/197/33 669/214/33 667/215/33 665/216/33
f 703/197/33 665/216/33 663/217/33 661/218/33
f 703/197/33 661/218/33 659/219/33 657/220/33
f 703/197/33 657/220/33 655/221/33 653/222/33
f 703/197/33 653/222/33 651/223/33 649/224/33
f 703/197/33 649/224/33 647/225/33 645/226/33
f 703/197/33 645/226/33 642/227/33 641/228/33
f 644/228/66 643/227/66 646/226/66 648/225/66
f 644/228/66 648/225/66 650/224/66 652/223/66
f 644/228/66 652/223/66 654/222/66 656/221/66
f 644/228/66 656/221/66 658/220/66 660/219/66
f 644/228/66 660/219/66 662/218/66 664/217/66
f 644/228/66 664/217/66 666/216/66 668/215/66
f 644/228/66 668/215/66 670/214/66 672/213/66
f 644/228/66 672/213/66 674/212/66 676/211/66
f 644/228/66 676/211/66 678/210/66 680/209/66
f 644/228/66 680/209/66 682/208/66 684/207/66
f 644/228/66 684/207/66 686/206/66 688/205/66
f 644/228/66 688/205/66 690/204/66 692/203/66
f 644/228/66 692/203/66 694/202/66 696/201/66
f 644/228/66 696/201/66 698/200/66 700/199/66
f 644/228/66 700/199/66 702/198/66 704/197/66
f 705/165/34 706/164/34 707/229/34 708/230/34
f 706/164/35 709/166/35 710/231/35 707/229/35
f 709/166/36 711/167/36 712/232/36 710/231/36
f 711/167/37 713/168/37 714/233/37 712/232/37
f 713/168/38 715/169/38 716/234/38 714/233/38
f 715/169/39 717/170/39 718/235/39 716/234/39
f 717/170/40 719/171/40 720/236/40 718/235/40
f 719/171/41 721/172/41 722/237/41 720/236/41
f 721/172/42 723/173/42 724/238/42 722/237/42
f 723/173/43 725/174/43 726/239/43 724/238/43
f 725/174/44 727/175/44 728/240/44 726/239/44
f 727/175/45 729/176/45 730/241/45 728/240/45
f 729/176/46 731/177/46 732/242/46 730/241/46
f 731/177/47 733/178/47 734/243/47 732/242/47
f 733/178/48 735/179/48 736/244/48 734/243/48
f 735/179/49 737/180/49 738/245/49 736/244/49
f 737/180/50 739/181/50 740/246/50 738/245/50
f 739/181/51 741/182/51 742/247/51 740/246/51
f 741/182/52 743/183/52 744/248/52 742/247/52
f 743/183/53 745/184/53 746/249/53 744/248/53
f 745/184/54 747/185/54 748/250/54 746/249/54
f 747/185/55 749/186/55 750/251/55 748/250/55
f 749/186/56 751/187/56 752/252/56 750/251/56
f 751/187/57 753/188/57 754/253/57 752/252/57
f 753/188/58 755/189/58 756/254/58 754/253/58
f 755/189/59 757/190/59 758/255/59 756/254/59
f 757/190/60 759/191/60 760/256/60 758/255/60
f 759/191/61 761/192/61 762/257/61 760/256/61
f 761/192/62 763/193/62 764/258/62 762/257/62
f 763/193/63 765/194/63 766/259/63 764/258/63
f 765/194/64 767/195/64 768/260/64 766/259/64
f 767/195/65 705/196/65 708/261/65 768/260/65
f 708/262/66 707/263/66 710/264/66 712/265/66
f 708/262/66 712/265/66 714/266/66 716/267/66
f 708/262/66 716/267/66 718/268/66 720/269/66
f 708/262/66 720/269/66 722/270/66 724/271/66
f 708/262/66 724/271/66 726/272/66 728/273/66
f 708/262/66 728/273/66 730/274/66 732/275/66
f 708/262/66 732/275/66 734/276/66 736/277/66
f 708/262/66 736/277/66 738/278/66 740/279/66
f 708/262/66 740/279/66 742/280/66 744/281/66
f 708/262/66 744/281/66 746/282/66 748/283/66
f 708/262/66 748/283/66 750/284/66 752/285/66
f 708/262/66 752/285/66 754/286/66 756/287/66
f 708/262/66 756/287/66 758/288/66 760/289/66
f 708/262/66 760/289/66 762/290/66 764/291/66
f 708/262/66 764/291/66 766/292/66 768/293/66
f 769/230/67 770/229/67 771/294/67 772/295/67
f 770/229/68 773/231/68 774/296/68 771/294/68
f 773/231/69 775/232/69 776/297/69 774/296/69
f 775/232/70 777/233/70 778/298/70 776/297/70
f 777/233/71 779/234/71 780/299/71 778/298/71
f 779/234/72 781/235/72 782/300/72 780/299/72
f 781/235/73 783/236/73 784/301/73 782/300/73
f 783/236/74 785/237/74 786/302/74 784/301/74
f 785/237/75 787/238/75 788/303/75 786/302/75
f 787/238/76 789/239/76 790/304/76 788/303/76
f 789/239/77 791/240/77 792/305/77 790/304/77
f 791/240/78 793/241/78 794/306/78 792/305/78
f 793/241/79 795/242/79 796/307/79 794/306/79
f 795/242/80 797/243/80 798/308/80 796/307/80
f 797/243/81 799/244/81 800/309/81 798/308/81
f 799/244/82 801/245/82 802/310/82 800/309/82
f 801/245/83 803/246/83 804/311/83 802/310/83
f 803/246/84 805/247/84 806/312/84 804/311/84
f 805/247/85 807/248/85 808/313/85 806/312/85
f 807/248/86 809/249/86 810/314/86 808/313/86
f 809/249/87 811/250/87 812/315/87 810/314/87
f 811/250/88 813/251/88 814/316/88 812/315/88
f 813/251/89 815/252/89 816/317/89 814/316/89
f 815/252/90 817/253/90 818/318/90 816/317/90
f 817/253/91 819/254/91 820/319/91 818/318/91
f 819/254/92 821/255/92 822/320/92 820/319/92
f 821/255/93 823/256/93 824/321/93 822/320/93
f 823/256/94 825/257/94 826/322/94 824/321/94
f 825/257/95 827/258/95 828/323/95 826/322/95
f 827/258/96 829/259/96 830/324/96 828/323/96
f 829/259/97 831/260/97 832/325/97 830/324/97
f 831/260/98 769/261/98 772/326/98 832/325/98
f 772/327/66 771/328/66 774/329/66 776/330/66
f 772/327/66 776/330/66 778/331/66 780/332/66
f 772/327/66 780/332/66 782/333/66 784/334/66
f 772/327/66 784/334/66 786/335/66 788/336/66
f 772/327/66 788/336/66 790/337/66 792/338/66
f 772/327/66 792/338/66 794/339/66 796/340/66
f 772/327/66 796/340/66 798/341/66 800/342/66
f 772/327/66 800/342/66 802/343/66 804/344/66
f 772/327/66 804/344/66 806/345/66 808/346/66
f 772/327/66 808/346/66 810/347/66 812/348/66
f 772/327/66 812/348/66 814/349/66 816/350/66
f 772/327/66 816/350/66 818/351/66 820/352/66
f 772/327/66 820/352/66 822/353/66 824/354/66
f 772/327/66 824/354/66 826/355/66 828/356/66
f 772/327/66 828/356/66 830/357/66 832/358/66
o bedding
usemtl trench
f 1025/295/359 1026/326/359 1027/65/359 1028/1/359
f 1029/1/360 1030/65/360 1031/326/360 1032/295/360
f 1032/326/33 1031/295/33 1026/1/33 1025/65/33
f 1030/326/66 1029/295/66 1028/1/66 1027/65/66
f 1029/326/361 1032/295/361 1025/1/361 1028/65/361
f 1031/326/362 1030/295/362 1027/1/362 1026/65/362
f 1032/407/359 1031/521/359 1033/33/359 1034/1/359
f 1035/1/360 1036/33/360 1037/521/360 1038/407/360
f 1038/521/33 1037/407/33 1031/1/33 1032/33/33
f 1036/521/66 1035/407/66 1034/1/66 1033/33/66
f 1035/521/361 1038/407/361 1032/1/361 1034/33/361
f 1037/521/362 1036/407/362 1033/1/362 1031/33/362
f 1039/407/359 1040/521/359 1030/33/359 1029/1/359
f 1041/1/360 1042/33/360 1043/521/360 1044/407/360
f 1044/521/33 1043/407/33 1040/1/33 1039/33/33
f 1042/521/66 1041/407/66 1029/1/66 1030/33/66
f 1041/521/361 1044/407/361 1039/1/361 1029/33/361
f 1043/521/362 1042/407/362 1030/1/362 1040/33/362
f 1034/407/359 1045/521/359 1046/33/359 1039/1/359
f 1044/1/360 1047/33/360 1048/521/360 1035/407/360
f 1035/521/33 1048/407/33 1045/1/33 1034/33/33
f 1047/521/66 1044/407/66 1039/1/66 1046/33/66
f 1044/521/361 1035/407/361 1034/1/361 1039/33/361
f 1048/521/362 1047/407/362 1046/1/362 1045/33/362
f 1049/407/359 1033/521/359 1040/33/359 1050/1/359
f 1051/1/360 1043/33/360 1036/521/360 1052/407/360
f 1052/521/33 1036/407/33 1033/1/33 1049/33/33
f 1043/521/66 1051/407/66 1050/1/66 1040/33/66
f 1051/521/361 1052/407/361 1049/1/361 1050/33/361
f 1036/521/362 1043/407/362 1040/1/362 1033/33/362
