# generated by tools/gen_trunk_models.py - do not edit by hand
mtllib dc_trunk_cable_trench_end.mtl
v 0.371875 0.674930 0.171503
v 0.354805 0.673250 0.171570
v 0.354805 0.682625 0.405945
v 0.371875 0.684305 0.405878
v 0.338390 0.668275 0.171769
v 0.338390 0.677650 0.406144
v 0.323263 0.660195 0.172092
v 0.323263 0.669570 0.406467
v 0.310003 0.649322 0.172527
v 0.310003 0.658697 0.406902
v 0.299121 0.636074 0.173057
v 0.299121 0.645449 0.407432
v 0.291036 0.620958 0.173662
v 0.291036 0.630333 0.408037
v 0.286056 0.604557 0.174318
v 0.286056 0.613932 0.408693
v 0.284375 0.587500 0.175000
v 0.284375 0.596875 0.409375
v 0.286056 0.570443 0.175682
v 0.286056 0.579818 0.410057
v 0.291036 0.554042 0.176338
v 0.291036 0.563417 0.410713
v 0.299121 0.538926 0.176943
v 0.299121 0.548301 0.411318
v 0.310003 0.525678 0.177473
v 0.310003 0.535053 0.411848
v 0.323263 0.514805 0.177908
v 0.323263 0.524180 0.412283
v 0.338390 0.506725 0.178231
v 0.338390 0.516100 0.412606
v 0.354805 0.501750 0.178430
v 0.354805 0.511125 0.412805
v 0.371875 0.500070 0.178497
v 0.371875 0.509445 0.412872
v 0.388945 0.501750 0.178430
v 0.388945 0.511125 0.412805
v 0.405360 0.506725 0.178231
v 0.405360 0.516100 0.412606
v 0.420487 0.514805 0.177908
v 0.420487 0.524180 0.412283
v 0.433747 0.525678 0.177473
v 0.433747 0.535053 0.411848
v 0.444629 0.538926 0.176943
v 0.444629 0.548301 0.411318
v 0.452714 0.554042 0.176338
v 0.452714 0.563417 0.410713
v 0.457694 0.570443 0.175682
v 0.457694 0.579818 0.410057
v 0.459375 0.587500 0.175000
v 0.459375 0.596875 0.409375
v 0.457694 0.604557 0.174318
v 0.457694 0.613932 0.408693
v 0.452714 0.620958 0.173662
v 0.452714 0.630333 0.408037
v 0.444629 0.636074 0.173057
v 0.444629 0.645449 0.407432
v 0.433747 0.649322 0.172527
v 0.433747 0.658697 0.406902
v 0.420487 0.660195 0.172092
v 0.420487 0.669570 0.406467
v 0.405360 0.668275 0.171769
v 0.405360 0.677650 0.406144
v 0.388945 0.673250 0.171570
v 0.388945 0.682625 0.405945
v 0.371875 0.693750 0.162500
v 0.352976 0.691889 0.162500
v 0.352976 0.691889 0.612500
v 0.371875 0.693750 0.612500
v 0.334803 0.686376 0.162500
v 0.334803 0.686376 0.612500
v 0.318054 0.677424 0.162500
v 0.318054 0.677424 0.612500
v 0.303374 0.665376 0.162500
v 0.303374 0.665376 0.612500
v 0.291326 0.650696 0.162500
v 0.291326 0.650696 0.612500
v 0.282374 0.633947 0.162500
v 0.282374 0.633947 0.612500
v 0.276861 0.615774 0.162500
v 0.276861 0.615774 0.612500
v 0.275000 0.596875 0.162500
v 0.275000 0.596875 0.612500
v 0.276861 0.577976 0.162500
v 0.276861 0.577976 0.612500
v 0.282374 0.559803 0.162500
v 0.282374 0.559803 0.612500
v 0.291326 0.543054 0.162500
v 0.291326 0.543054 0.612500
v 0.303374 0.528374 0.162500
v 0.303374 0.528374 0.612500
v 0.318054 0.516326 0.162500
v 0.318054 0.516326 0.612500
v 0.334803 0.507374 0.162500
v 0.334803 0.507374 0.612500
v 0.352976 0.501861 0.162500
v 0.352976 0.501861 0.612500
v 0.371875 0.500000 0.162500
v 0.371875 0.500000 0.612500
v 0.390774 0.501861 0.162500
v 0.390774 0.501861 0.612500
v 0.408947 0.507374 0.162500
v 0.408947 0.507374 0.612500
v 0.425696 0.516326 0.162500
v 0.425696 0.516326 0.612500
v 0.440376 0.528374 0.162500
v 0.440376 0.528374 0.612500
v 0.452424 0.543054 0.162500
v 0.452424 0.543054 0.612500
v 0.461376 0.559803 0.162500
v 0.461376 0.559803 0.612500
v 0.466889 0.577976 0.162500
v 0.466889 0.577976 0.612500
v 0.468750 0.596875 0.162500
v 0.468750 0.596875 0.612500
v 0.466889 0.615774 0.162500
v 0.466889 0.615774 0.612500
v 0.461376 0.633947 0.162500
v 0.461376 0.633947 0.612500
v 0.452424 0.650696 0.162500
v 0.452424 0.650696 0.612500
v 0.440376 0.665376 0.162500
v 0.440376 0.665376 0.612500
v 0.425696 0.677424 0.162500
v 0.425696 0.677424 0.612500
v 0.408947 0.686376 0.162500
v 0.408947 0.686376 0.612500
v 0.390774 0.691889 0.162500
v 0.390774 0.691889 0.612500
v 0.284375 0.577500 0.612500
v 0.459375 0.577500 0.612500
v 0.459375 0.577500 0.825000
v 0.284375 0.577500 0.825000
v 0.284375 0.616250 0.825000
v 0.459375 0.616250 0.825000
v 0.459375 0.616250 0.612500
v 0.284375 0.616250 0.612500
v 0.389063 0.635000 0.774020
v 0.354688 0.635000 0.774020
v 0.354688 0.482500 0.774020
v 0.389063 0.482500 0.774020
v 0.337500 0.635000 0.744250
v 0.337500 0.482500 0.744250
v 0.354687 0.635000 0.714480
v 0.354687 0.482500 0.714480
v 0.389062 0.635000 0.714480
v 0.389062 0.482500 0.714480
v 0.406250 0.635000 0.744250
v 0.406250 0.482500 0.744250
v 0.628125 0.674930 0.171503
v 0.611055 0.673250 0.171570
v 0.611055 0.682625 0.405945
v 0.628125 0.684305 0.405878
v 0.594640 0.668275 0.171769
v 0.594640 0.677650 0.406144
v 0.579513 0.660195 0.172092
v 0.579513 0.669570 0.406467
v 0.566253 0.649322 0.172527
v 0.566253 0.658697 0.406902
v 0.555371 0.636074 0.173057
v 0.555371 0.645449 0.407432
v 0.547286 0.620958 0.173662
v 0.547286 0.630333 0.408037
v 0.542306 0.604557 0.174318
v 0.542306 0.613932 0.408693
v 0.540625 0.587500 0.175000
v 0.540625 0.596875 0.409375
v 0.542306 0.570443 0.175682
v 0.542306 0.579818 0.410057
v 0.547286 0.554042 0.176338
v 0.547286 0.563417 0.410713
v 0.555371 0.538926 0.176943
v 0.555371 0.548301 0.411318
v 0.566253 0.525678 0.177473
v 0.566253 0.535053 0.411848
v 0.579513 0.514805 0.177908
v 0.579513 0.524180 0.412283
v 0.594640 0.506725 0.178231
v 0.594640 0.516100 0.412606
v 0.611055 0.501750 0.178430
v 0.611055 0.511125 0.412805
v 0.628125 0.500070 0.178497
v 0.628125 0.509445 0.412872
v 0.645195 0.501750 0.178430
v 0.645195 0.511125 0.412805
v 0.661610 0.506725 0.178231
v 0.661610 0.516100 0.412606
v 0.676737 0.514805 0.177908
v 0.676737 0.524180 0.412283
v 0.689997 0.525678 0.177473
v 0.689997 0.535053 0.411848
v 0.700879 0.538926 0.176943
v 0.700879 0.548301 0.411318
v 0.708964 0.554042 0.176338
v 0.708964 0.563417 0.410713
v 0.713944 0.570443 0.175682
v 0.713944 0.579818 0.410057
v 0.715625 0.587500 0.175000
v 0.715625 0.596875 0.409375
v 0.713944 0.604557 0.174318
v 0.713944 0.613932 0.408693
v 0.708964 0.620958 0.173662
v 0.708964 0.630333 0.408037
v 0.700879 0.636074 0.173057
v 0.700879 0.645449 0.407432
v 0.689997 0.649322 0.172527
v 0.689997 0.658697 0.406902
v 0.676737 0.660195 0.172092
v 0.676737 0.669570 0.406467
v 0.661610 0.668275 0.171769
v 0.661610 0.677650 0.406144
v 0.645195 0.673250 0.171570
v 0.645195 0.682625 0.405945
v 0.628125 0.693750 0.162500
v 0.609226 0.691889 0.162500
v 0.609226 0.691889 0.612500
v 0.628125 0.693750 0.612500
v 0.591053 0.686376 0.162500
v 0.591053 0.686376 0.612500
v 0.574304 0.677424 0.162500
v 0.574304 0.677424 0.612500
v 0.559624 0.665376 0.162500
v 0.559624 0.665376 0.612500
v 0.547576 0.650696 0.162500
v 0.547576 0.650696 0.612500
v 0.538624 0.633947 0.162500
v 0.538624 0.633947 0.612500
v 0.533111 0.615774 0.162500
v 0.533111 0.615774 0.612500
v 0.531250 0.596875 0.162500
v 0.531250 0.596875 0.612500
v 0.533111 0.577976 0.162500
v 0.533111 0.577976 0.612500
v 0.538624 0.559803 0.162500
v 0.538624 0.559803 0.612500
v 0.547576 0.543054 0.162500
v 0.547576 0.543054 0.612500
v 0.559624 0.528374 0.162500
v 0.559624 0.528374 0.612500
v 0.574304 0.516326 0.162500
v 0.574304 0.516326 0.612500
v 0.591053 0.507374 0.162500
v 0.591053 0.507374 0.612500
v 0.609226 0.501861 0.162500
v 0.609226 0.501861 0.612500
v 0.628125 0.500000 0.162500
v 0.628125 0.500000 0.612500
v 0.647024 0.501861 0.162500
v 0.647024 0.501861 0.612500
v 0.665197 0.507374 0.162500
v 0.665197 0.507374 0.612500
v 0.681946 0.516326 0.162500
v 0.681946 0.516326 0.612500
v 0.696626 0.528374 0.162500
v 0.696626 0.528374 0.612500
v 0.708674 0.543054 0.162500
v 0.708674 0.543054 0.612500
v 0.717626 0.559803 0.162500
v 0.717626 0.559803 0.612500
v 0.723139 0.577976 0.162500
v 0.723139 0.577976 0.612500
v 0.725000 0.596875 0.162500
v 0.725000 0.596875 0.612500
v 0.723139 0.615774 0.162500
v 0.723139 0.615774 0.612500
v 0.717626 0.633947 0.162500
v 0.717626 0.633947 0.612500
v 0.708674 0.650696 0.162500
v 0.708674 0.650696 0.612500
v 0.696626 0.665376 0.162500
v 0.696626 0.665376 0.612500
v 0.681946 0.677424 0.162500
v 0.681946 0.677424 0.612500
v 0.665197 0.686376 0.162500
v 0.665197 0.686376 0.612500
v 0.647024 0.691889 0.162500
v 0.647024 0.691889 0.612500
v 0.540625 0.577500 0.612500
v 0.715625 0.577500 0.612500
v 0.715625 0.577500 0.825000
v 0.540625 0.577500 0.825000
v 0.540625 0.616250 0.825000
v 0.715625 0.616250 0.825000
v 0.715625 0.616250 0.612500
v 0.540625 0.616250 0.612500
v 0.645313 0.635000 0.774020
v 0.610938 0.635000 0.774020
v 0.610938 0.482500 0.774020
v 0.645313 0.482500 0.774020
v 0.593750 0.635000 0.744250
v 0.593750 0.482500 0.744250
v 0.610938 0.635000 0.714480
v 0.610938 0.482500 0.714480
v 0.645313 0.635000 0.714480
v 0.645313 0.482500 0.714480
v 0.662500 0.635000 0.744250
v 0.662500 0.482500 0.744250
v 0.000000 0.000000 0.000000
v 1.000000 0.000000 0.000000
v 1.000000 0.000000 1.000000
v 0.000000 0.000000 1.000000
v 0.000000 0.500000 1.000000
v 1.000000 0.500000 1.000000
v 1.000000 0.500000 0.000000
v 0.000000 0.500000 0.000000
v 1.000000 0.500000 0.062500
v 0.000000 0.500000 0.062500
v 0.000000 1.000000 0.062500
v 1.000000 1.000000 0.062500
v 1.000000 1.000000 0.000000
v 0.000000 1.000000 0.000000
v 0.000000 0.500000 0.937500
v 1.000000 0.500000 0.937500
v 0.000000 1.000000 1.000000
v 1.000000 1.000000 1.000000
v 1.000000 1.000000 0.937500
v 0.000000 1.000000 0.937500
v 0.062500 0.500000 0.062500
v 0.062500 0.500000 0.937500
v 0.062500 1.000000 0.937500
v 0.062500 1.000000 0.062500
v 0.937500 0.500000 0.062500
v 0.937500 0.500000 0.937500
v 0.937500 1.000000 0.937500
v 0.937500 1.000000 0.062500
vn -0.0975 0.9896 -0.0396
vn -0.2889 0.9516 -0.0381
vn -0.4691 0.8770 -0.0351
vn -0.6313 0.7687 -0.0307
vn -0.7693 0.6308 -0.0252
vn -0.8777 0.4688 -0.0187
vn -0.9523 0.2887 -0.0115
vn -0.9904 0.0975 -0.0039
vn -0.9904 -0.0975 0.0039
vn -0.9523 -0.2887 0.0115
vn -0.8777 -0.4688 0.0187
vn -0.7693 -0.6308 0.0252
vn -0.6313 -0.7687 0.0307
vn -0.4691 -0.8770 0.0351
vn -0.2889 -0.9516 0.0381
vn -0.0975 -0.9896 0.0396
vn 0.0975 -0.9896 0.0396
vn 0.2889 -0.9516 0.0381
vn 0.4691 -0.8770 0.0351
vn 0.6313 -0.7687 0.0307
vn 0.7693 -0.6308 0.0252
vn 0.8777 -0.4688 0.0187
vn 0.9523 -0.2887 0.0115
vn 0.9904 -0.0975 0.0039
vn 0.9904 0.0975 -0.0039
vn 0.9523 0.2887 -0.0115
vn 0.8777 0.4688 -0.0187
vn 0.7693 0.6308 -0.0252
vn 0.6313 0.7687 -0.0307
vn 0.4691 0.8770 -0.0351
vn 0.2889 0.9516 -0.0381
vn 0.0975 0.9896 -0.0396
vn 0.0000 0.0400 0.9992
vn -0.0980 0.9952 0.0000
vn -0.2903 0.9569 0.0000
vn -0.4714 0.8819 0.0000
vn -0.6344 0.7730 0.0000
vn -0.7730 0.6344 0.0000
vn -0.8819 0.4714 0.0000
vn -0.9569 0.2903 0.0000
vn -0.9952 0.0980 0.0000
vn -0.9952 -0.0980 0.0000
vn -0.9569 -0.2903 0.0000
vn -0.8819 -0.4714 0.0000
vn -0.7730 -0.6344 0.0000
vn -0.6344 -0.7730 0.0000
vn -0.4714 -0.8819 0.0000
vn -0.2903 -0.9569 0.0000
vn -0.0980 -0.9952 0.0000
vn 0.0980 -0.9952 0.0000
vn 0.2903 -0.9569 0.0000
vn 0.4714 -0.8819 0.0000
vn 0.6344 -0.7730 0.0000
vn 0.7730 -0.6344 0.0000
vn 0.8819 -0.4714 0.0000
vn 0.9569 -0.2903 0.0000
vn 0.9952 -0.0980 0.0000
vn 0.9952 0.0980 0.0000
vn 0.9569 0.2903 0.0000
vn 0.8819 0.4714 0.0000
vn 0.7730 0.6344 0.0000
vn 0.6344 0.7730 0.0000
vn 0.4714 0.8819 0.0000
vn 0.2903 0.9569 0.0000
vn 0.0980 0.9952 0.0000
vn -0.0000 -0.0000 -1.0000
vn 0.0000 -1.0000 0.0000
vn 0.0000 1.0000 0.0000
vn 0.0000 0.0000 1.0000
vn -1.0000 0.0000 0.0000
vn 1.0000 0.0000 0.0000
vn -0.8660 0.0000 0.5000
vn -0.8660 0.0000 -0.5000
vn 0.8660 0.0000 -0.5000
vn 0.8660 0.0000 0.5000
vt 0.000000 0.000000
vt 0.031250 0.000000
vt 0.031250 1.000000
vt 0.000000 1.000000
vt 0.062500 0.000000
vt 0.062500 1.000000
vt 0.093750 0.000000
vt 0.093750 1.000000
vt 0.125000 0.000000
vt 0.125000 1.000000
vt 0.156250 0.000000
vt 0.156250 1.000000
vt 0.187500 0.000000
vt 0.187500 1.000000
vt 0.218750 0.000000
vt 0.218750 1.000000
vt 0.250000 0.000000
vt 0.250000 1.000000
vt 0.281250 0.000000
vt 0.281250 1.000000
vt 0.312500 0.000000
vt 0.312500 1.000000
vt 0.343750 0.000000
vt 0.343750 1.000000
vt 0.375000 0.000000
vt 0.375000 1.000000
vt 0.406250 0.000000
vt 0.406250 1.000000
vt 0.437500 0.000000
vt 0.437500 1.000000
vt 0.468750 0.000000
vt 0.468750 1.000000
vt 0.500000 0.000000
vt 0.500000 1.000000
vt 0.531250 0.000000
vt 0.531250 1.000000
vt 0.562500 0.000000
vt 0.562500 1.000000
vt 0.593750 0.000000
vt 0.593750 1.000000
vt 0.625000 0.000000
vt 0.625000 1.000000
vt 0.656250 0.000000
vt 0.656250 1.000000
vt 0.687500 0.000000
vt 0.687500 1.000000
vt 0.718750 0.000000
vt 0.718750 1.000000
vt 0.750000 0.000000
vt 0.750000 1.000000
vt 0.781250 0.000000
vt 0.781250 1.000000
vt 0.812500 0.000000
vt 0.812500 1.000000
vt 0.843750 0.000000
vt 0.843750 1.000000
vt 0.875000 0.000000
vt 0.875000 1.000000
vt 0.906250 0.000000
vt 0.906250 1.000000
vt 0.937500 0.000000
vt 0.937500 1.000000
vt 0.968750 0.000000
vt 0.968750 1.000000
vt 1.000000 0.000000
vt 1.000000 1.000000
vt 1.000000 0.500000
vt 0.990393 0.597545
vt 0.961940 0.691342
vt 0.915735 0.777785
vt 0.853553 0.853553
vt 0.777785 0.915735
vt 0.691342 0.961940
vt 0.597545 0.990393
vt 0.402455 0.990393
vt 0.308658 0.961940
vt 0.222215 0.915735
vt 0.146447 0.853553
vt 0.084265 0.777785
vt 0.038060 0.691342
vt 0.009607 0.597545
vt 0.000000 0.500000
vt 0.009607 0.402455
vt 0.038060 0.308658
vt 0.084265 0.222215
vt 0.146447 0.146447
vt 0.222215 0.084265
vt 0.308658 0.038060
vt 0.402455 0.009607
vt 0.597545 0.009607
vt 0.691342 0.038060
vt 0.777785 0.084265
vt 0.853553 0.146447
vt 0.915735 0.222215
vt 0.961940 0.308658
vt 0.990393 0.402455
vt 0.031250 0.720000
vt 0.000000 0.720000
vt 0.062500 0.720000
vt 0.093750 0.720000
vt 0.125000 0.720000
vt 0.156250 0.720000
vt 0.187500 0.720000
vt 0.218750 0.720000
vt 0.250000 0.720000
vt 0.281250 0.720000
vt 0.312500 0.720000
vt 0.343750 0.720000
vt 0.375000 0.720000
vt 0.406250 0.720000
vt 0.437500 0.720000
vt 0.468750 0.720000
vt 0.500000 0.720000
vt 0.531250 0.720000
vt 0.562500 0.720000
vt 0.593750 0.720000
vt 0.625000 0.720000
vt 0.656250 0.720000
vt 0.687500 0.720000
vt 0.718750 0.720000
vt 0.750000 0.720000
vt 0.781250 0.720000
vt 0.812500 0.720000
vt 0.843750 0.720000
vt 0.875000 0.720000
vt 0.906250 0.720000
vt 0.937500 0.720000
vt 0.968750 0.720000
vt 1.000000 0.720000
vt 0.548773 0.536541
vt 0.595671 0.526298
vt 0.638893 0.509665
vt 0.676777 0.487279
vt 0.707867 0.460003
vt 0.730970 0.428883
vt 0.745196 0.395116
vt 0.750000 0.360000
vt 0.745196 0.324884
vt 0.730970 0.291117
vt 0.707867 0.259997
vt 0.676777 0.232721
vt 0.638893 0.210335
vt 0.595671 0.193702
vt 0.548773 0.183459
vt 0.500000 0.180000
vt 0.451227 0.183459
vt 0.404329 0.193702
vt 0.361107 0.210335
vt 0.323223 0.232721
vt 0.292133 0.259997
vt 0.269030 0.291117
vt 0.254804 0.324884
vt 0.250000 0.360000
vt 0.254804 0.395116
vt 0.269030 0.428883
vt 0.292133 0.460003
vt 0.323223 0.487279
vt 0.361107 0.509665
vt 0.404329 0.526298
vt 0.451227 0.536541
vt 0.500000 0.540000
vt 1.000000 0.740000
vt 0.000000 0.740000
vt 0.000000 0.300000
vt 0.166667 0.300000
vt 0.166667 0.000000
vt 0.333333 0.300000
vt 0.333333 0.000000
vt 0.500000 0.300000
vt 0.666667 0.300000
vt 0.666667 0.000000
vt 0.833333 0.300000
vt 0.833333 0.000000
vt 1.000000 0.300000
vt 0.375000 0.085048
vt 0.250000 0.150000
vt 0.375000 0.214952
vt 0.625000 0.214952
vt 0.750000 0.150000
vt 0.625000 0.085048
vt 0.500000 0.500000
o cable
usemtl core
f 1/1/1 2/2/1 3/3/1 4/4/1
f 2/2/2 5/5/2 6/6/2 3/3/2
f 5/5/3 7/7/3 8/8/3 6/6/3
f 7/7/4 9/9/4 10/10/4 8/8/4
f 9/9/5 11/11/5 12/12/5 10/10/5
f 11/11/6 13/13/6 14/14/6 12/12/6
f 13/13/7 15/15/7 16/16/7 14/14/7
f 15/15/8 17/17/8 18/18/8 16/16/8
f 17/17/9 19/19/9 20/20/9 18/18/9
f 19/19/10 21/21/10 22/22/10 20/20/10
f 21/21/11 23/23/11 24/24/11 22/22/11
f 23/23/12 25/25/12 26/26/12 24/24/12
f 25/25/13 27/27/13 28/28/13 26/26/13
f 27/27/14 29/29/14 30/30/14 28/28/14
f 29/29/15 31/31/15 32/32/15 30/30/15
f 31/31/16 33/33/16 34/34/16 32/32/16
f 33/33/17 35/35/17 36/36/17 34/34/17
f 35/35/18 37/37/18 38/38/18 36/36/18
f 37/37/19 39/39/19 40/40/19 38/38/19
f 39/39/20 41/41/20 42/42/20 40/40/20
f 41/41/21 43/43/21 44/44/21 42/42/21
f 43/43/22 45/45/22 46/46/22 44/44/22
f 45/45/23 47/47/23 48/48/23 46/46/23
f 47/47/24 49/49/24 50/50/24 48/48/24
f 49/49/25 51/51/25 52/52/25 50/50/25
f 51/51/26 53/53/26 54/54/26 52/52/26
f 53/53/27 55/55/27 56/56/27 54/54/27
f 55/55/28 57/57/28 58/58/28 56/56/28
f 57/57/29 59/59/29 60/60/29 58/58/29
f 59/59/30 61/61/30 62/62/30 60/60/30
f 61/61/31 63/63/31 64/64/31 62/62/31
f 63/63/32 1/65/32 4/66/32 64/64/32
f 4/67/33 3/68/33 6/69/33 8/70/33 10/71/33 12/72/33 14/73/33 16/74/33 18/34/33 20/75/33 22/76/33 24/77/33 26/78/33 28/79/33 30/80/33 32/81/33 34/82/33 36/83/33 38/84/33 40/85/33 42/86/33 44/87/33 46/88/33 48/89/33 50/33/33 52/90/33 54/91/33 56/92/33 58/93/33 60/94/33 62/95/33 64/96/33
f 149/1/1 150/2/1 151/3/1 152/4/1
f 150/2/2 153/5/2 154/6/2 151/3/2
f 153/5/3 155/7/3 156/8/3 154/6/3
f 155/7/4 157/9/4 158/10/4 156/8/4
f 157/9/5 159/11/5 160/12/5 158/10/5
f 159/11/6 161/13/6 162/14/6 160/12/6
f 161/13/7 163/15/7 164/16/7 162/14/7
f 163/15/8 165/17/8 166/18/8 164/16/8
f 165/17/9 167/19/9 168/20/9 166/18/9
f 167/19/10 169/21/10 170/22/10 168/20/10
f 169/21/11 171/23/11 172/24/11 170/22/11
f 171/23/12 173/25/12 174/26/12 172/24/12
f 173/25/13 175/27/13 176/28/13 174/26/13
f 175/27/14 177/29/14 178/30/14 176/28/14
f 177/29/15 179/31/15 180/32/15 178/30/15
f 179/31/16 181/33/16 182/34/16 180/32/16
f 181/33/17 183/35/17 184/36/17 182/34/17
f 183/35/18 185/37/18 186/38/18 184/36/18
f 185/37/19 187/39/19 188/40/19 186/38/19
f 187/39/20 189/41/20 190/42/20 188/40/20
f 189/41/21 191/43/21 192/44/21 190/42/21
f 191/43/22 193/45/22 194/46/22 192/44/22
f 193/45/23 195/47/23 196/48/23 194/46/23
f 195/47/24 197/49/24 198/50/24 196/48/24
f 197/49/25 199/51/25 200/52/25 198/50/25
f 199/51/26 201/53/26 202/54/26 200/52/26
f 201/53/27 203/55/27 204/56/27 202/54/27
f 203/55/28 205/57/28 206/58/28 204/56/28
f 205/57/29 207/59/29 208/60/29 206/58/29
f 207/59/30 209/61/30 210/62/30 208/60/30
f 209/61/31 211/63/31 212/64/31 210/62/31
f 211/63/32 149/65/32 152/66/32 212/64/32
f 152/67/33 151/68/33 154/69/33 156/70/33 158/71/33 160/72/33 162/73/33 164/74/33 166/34/33 168/75/33 170/76/33 172/77/33 174/78/33 176/79/33 178/80/33 180/81/33 182/82/33 184/83/33 186/84/33 188/85/33 190/86/33 192/87/33 194/88/33 196/89/33 198/33/33 200/90/33 202/91/33 204/92/33 206/93/33 208/94/33 210/95/33 212/96/33
o lug
usemtl lug
f 65/1/34 66/2/34 67/97/34 68/98/34
f 66/2/35 69/5/35 70/99/35 67/97/35
f 69/5/36 71/7/36 72/100/36 70/99/36
f 71/7/37 73/9/37 74/101/37 72/100/37
f 73/9/38 75/11/38 76/102/38 74/101/38
f 75/11/39 77/13/39 78/103/39 76/102/39
f 77/13/40 79/15/40 80/104/40 78/103/40
f 79/15/41 81/17/41 82/105/41 80/104/41
f 81/17/42 83/19/42 84/106/42 82/105/42
f 83/19/43 85/21/43 86/107/43 84/106/43
f 85/21/44 87/23/44 88/108/44 86/107/44
f 87/23/45 89/25/45 90/109/45 88/108/45
f 89/25/46 91/27/46 92/110/46 90/109/46
f 91/27/47 93/29/47 94/111/47 92/110/47
f 93/29/48 95/31/48 96/112/48 94/111/48
f 95/31/49 97/33/49 98/113/49 96/112/49
f 97/33/50 99/35/50 100/114/50 98/113/50
f 99/35/51 101/37/51 102/115/51 100/114/51
f 101/37/52 103/39/52 104/116/52 102/115/52
f 103/39/53 105/41/53 106/117/53 104/116/53
f 105/41/54 107/43/54 108/118/54 106/117/54
f 107/43/55 109/45/55 110/119/55 108/118/55
f 109/45/56 111/47/56 112/120/56 110/119/56
f 111/47/57 113/49/57 114/121/57 112/120/57
f 113/49/58 115/51/58 116/122/58 114/121/58
f 115/51/59 117/53/59 118/123/59 116/122/59
f 117/53/60 119/55/60 120/124/60 118/123/60
f 119/55/61 121/57/61 122/125/61 120/124/61
f 121/57/62 123/59/62 124/126/62 122/125/62
f 123/59/63 125/61/63 126/127/63 124/126/63
f 125/61/64 127/63/64 128/128/64 126/127/64
f 127/63/65 65/65/65 68/129/65 128/128/65
f 127/130/66 125/131/66 123/132/66 121/133/66
f 127/130/66 121/133/66 119/134/66 117/135/66
f 127/130/66 117/135/66 115/136/66 113/137/66
f 127/130/66 113/137/66 111/138/66 109/139/66
f 127/130/66 109/139/66 107/140/66 105/141/66
f 127/130/66 105/141/66 103/142/66 101/143/66
f 127/130/66 101/143/66 99/144/66 97/145/66
f 127/130/66 97/145/66 95/146/66 93/147/66
f 127/130/66 93/147/66 91/148/66 89/149/66
f 127/130/66 89/149/66 87/150/66 85/151/66
f 127/130/66 85/151/66 83/152/66 81/153/66
f 127/130/66 81/153/66 79/154/66 77/155/66
f 127/130/66 77/155/66 75/156/66 73/157/66
f 127/130/66 73/157/66 71/158/66 69/159/66
f 127/130/66 69/159/66 66/160/66 65/161/66
f 129/4/67 130/66/67 131/162/67 132/163/67
f 133/163/68 134/162/68 135/66/68 136/4/68
f 136/66/66 135/4/66 130/163/66 129/162/66
f 134/66/69 133/4/69 132/163/69 131/162/69
f 133/66/70 136/4/70 129/163/70 132/162/70
f 135/66/71 134/4/71 131/163/71 130/162/71
f 137/164/69 138/165/69 139/166/69 140/1/69
f 138/165/72 141/167/72 142/168/72 139/166/72
f 141/167/73 143/169/73 144/33/73 142/168/73
f 143/169/66 145/170/66 146/171/66 144/33/66
f 145/170/74 147/172/74 148/173/74 146/171/74
f 147/172/75 137/174/75 140/65/75 148/173/75
f 143/175/68 141/176/68 138/177/68 137/178/68
f 147/179/68 145/180/68 143/175/68 137/178/68
f 213/1/34 214/2/34 215/97/34 216/98/34
f 214/2/35 217/5/35 218/99/35 215/97/35
f 217/5/36 219/7/36 220/100/36 218/99/36
f 219/7/37 221/9/37 222/101/37 220/100/37
f 221/9/38 223/11/38 224/102/38 222/101/38
f 223/11/39 225/13/39 226/103/39 224/102/39
f 225/13/40 227/15/40 228/104/40 226/103/40
f 227/15/41 229/17/41 230/105/41 228/104/41
f 229/17/42 231/19/42 232/106/42 230/105/42
f 231/19/43 233/21/43 234/107/43 232/106/43
f 233/21/44 235/23/44 236/108/44 234/107/44
f 235/23/45 237/25/45 238/109/45 236/108/45
f 237/25/46 239/27/46 240/110/46 238/109/46
f 239/27/47 241/29/47 242/111/47 240/110/47
f 241/29/48 243/31/48 244/112/48 242/111/48
f 243/31/49 245/33/49 246/113/49 244/112/49
f 245/33/50 247/35/50 248/114/50 246/113/50
f 247/35/51 249/37/51 250/115/51 248/114/51
f 249/37/52 251/39/52 252/116/52 250/115/52
f 251/39/53 253/41/53 254/117/53 252/116/53
f 253/41/54 255/43/54 256/118/54 254/117/54
f 255/43/55 257/45/55 258/119/55 256/118/55
f 257/45/56 259/47/56 260/120/56 258/119/56
f 259/47/57 261/49/57 262/121/57 260/120/57
f 261/49/58 263/51/58 264/122/58 262/121/58
f 263/51/59 265/53/59 266/123/59 264/122/59
f 265/53/60 267/55/60 268/124/60 266/123/60
f 267/55/61 269/57/61 270/125/61 268/124/61
f 269/57/62 271/59/62 272/126/62 270/125/62
f 271/59/63 273/61/63 274/127/63 272/126/63
f 273/61/64 275/63/64 276/128/64 274/127/64
f 275/63/65 213/65/65 216/129/65 276/128/65
f 275/130/66 273/131/66 271/132/66 269/133/66
f 275/130/66 269/133/66 267/134/66 265/135/66
f 275/130/66 265/135/66 263/136/66 261/137/66
f 275/130/66 261/137/66 259/138/66 257/139/66
f 275/130/66 257/139/66 255/140/66 253/141/66
f 275/130/66 253/141/66 251/142/66 249/143/66
f 275/130/66 249/143/66 247/144/66 245/145/66
f 275/130/66 245/145/66 243/146/66 241/147/66
f 275/130/66 241/147/66 239/148/66 237/149/66
f 275/130/66 237/149/66 235/150/66 233/151/66
f 275/130/66 233/151/66 231/152/66 229/153/66
f 275/130/66 229/153/66 227/154/66 225/155/66
f 275/130/66 225/155/66 223/156/66 221/157/66
f 275/130/66 221/157/66 219/158/66 217/159/66
f 275/130/66 217/159/66 214/160/66 213/161/66
f 277/4/67 278/66/67 279/162/67 280/163/67
f 281/163/68 282/162/68 283/66/68 284/4/68
f 284/66/66 283/4/66 278/163/66 277/162/66
f 282/66/69 281/4/69 280/163/69 279/162/69
f 281/66/70 284/4/70 277/163/70 280/162/70
f 283/66/71 282/4/71 279/163/71 278/162/71
f 285/164/69 286/165/69 287/166/69 288/1/69
f 286/165/72 289/167/72 290/168/72 287/166/72
f 289/167/73 291/169/73 292/33/73 290/168/73
f 291/169/66 293/170/66 294/171/66 292/33/66
f 293/170/74 295/172/74 296/173/74 294/171/74
f 295/172/75 285/174/75 288/65/75 296/173/75
f 291/175/68 289/176/68 286/177/68 285/178/68
f 295/179/68 293/180/68 291/175/68 285/178/68
o bedding
usemtl trench
f 297/4/67 298/66/67 299/65/67 300/1/67
f 301/1/68 302/65/68 303/66/68 304/4/68
f 304/66/66 303/4/66 298/1/66 297/65/66
f 302/66/69 301/4/69 300/1/69 299/65/69
f 301/66/70 304/4/70 297/1/70 300/65/70
f 303/66/71 302/4/71 299/1/71 298/65/71
f 304/82/67 303/181/67 305/33/67 306/1/67
f 307/1/68 308/33/68 309/181/68 310/82/68
f 310/181/66 309/82/66 303/1/66 304/33/66
f 308/181/69 307/82/69 306/1/69 305/33/69
f 307/181/70 310/82/70 304/1/70 306/33/70
f 309/181/71 308/82/71 305/1/71 303/33/71
f 311/82/67 312/181/67 302/33/67 301/1/67
f 313/1/68 314/33/68 315/181/68 316/82/68
f 316/181/66 315/82/66 312/1/66 311/33/66
f 314/181/69 313/82/69 301/1/69 302/33/69
f 313/181/70 316/82/70 311/1/70 301/33/70
f 315/181/71 314/82/71 302/1/71 312/33/71
f 306/82/67 317/181/67 318/33/67 311/1/67
f 316/1/68 319/33/68 320/181/68 307/82/68
f 307/181/66 320/82/66 317/1/66 306/33/66
f 319/181/69 316/82/69 311/1/69 318/33/69
f 316/181/70 307/82/70 306/1/70 311/33/70
f 320/181/71 319/82/71 318/1/71 317/33/71
f 321/82/67 305/181/67 312/33/67 322/1/67
f 323/1/68 315/33/68 308/181/68 324/82/68
f 324/181/66 308/82/66 305/1/66 321/33/66
f 315/181/69 323/82/69 322/1/69 312/33/69
f 323/181/70 324/82/70 321/1/70 322/33/70
f 308/181/71 315/82/71 312/1/71 305/33/71
