# generated by tools/gen_trunk_models.py - do not edit by hand
mtllib dc_trunk_cable_bend.mtl
v 0.628125 0.175000 0.175000
v 0.611055 0.173319 0.175000
v 0.611104 0.173319 0.190048
v 0.628125 0.175000 0.188750
v 0.594640 0.168339 0.175000
v 0.594737 0.168339 0.191296
v 0.579513 0.160254 0.175000
v 0.579653 0.160254 0.192446
v 0.566253 0.149372 0.175000
v 0.566432 0.149372 0.193455
v 0.555371 0.136112 0.175000
v 0.555582 0.136112 0.194282
v 0.547286 0.120985 0.175000
v 0.547520 0.120985 0.194897
v 0.542306 0.104570 0.175000
v 0.542555 0.104570 0.195276
v 0.540625 0.087500 0.175000
v 0.540878 0.087500 0.195403
v 0.542306 0.070430 0.175000
v 0.542555 0.070430 0.195276
v 0.547286 0.054015 0.175000
v 0.547520 0.054015 0.194897
v 0.555371 0.038888 0.175000
v 0.555582 0.038888 0.194282
v 0.566253 0.025628 0.175000
v 0.566432 0.025628 0.193455
v 0.579513 0.014746 0.175000
v 0.579653 0.014746 0.192446
v 0.594640 0.006661 0.175000
v 0.594737 0.006661 0.191296
v 0.611055 0.001681 0.175000
v 0.611104 0.001681 0.190048
v 0.628125 0.000000 0.175000
v 0.628125 0.000000 0.188750
v 0.645195 0.001681 0.175000
v 0.645146 0.001681 0.187452
v 0.661610 0.006661 0.175000
v 0.661513 0.006661 0.186204
v 0.676737 0.014746 0.175000
v 0.676597 0.014746 0.185054
v 0.689997 0.025628 0.175000
v 0.689818 0.025628 0.184045
v 0.700879 0.038888 0.175000
v 0.700668 0.038888 0.183218
v 0.708964 0.054015 0.175000
v 0.708730 0.054015 0.182603
v 0.713944 0.070430 0.175000
v 0.713695 0.070430 0.182224
v 0.715625 0.087500 0.175000
v 0.715372 0.087500 0.182097
v 0.713944 0.104570 0.175000
v 0.713695 0.104570 0.182224
v 0.708964 0.120985 0.175000
v 0.708730 0.120985 0.182603
v 0.700879 0.136112 0.175000
v 0.700668 0.136112 0.183218
v 0.689997 0.149372 0.175000
v 0.689818 0.149372 0.184045
v 0.676737 0.160254 0.175000
v 0.676597 0.160254 0.185054
v 0.661610 0.168339 0.175000
v 0.661513 0.168339 0.186204
v 0.645195 0.173319 0.175000
v 0.645146 0.173319 0.187452
v 0.615262 0.173319 0.217190
v 0.631908 0.175000 0.213408
v 0.599255 0.168339 0.220826
v 0.584503 0.160254 0.224177
v 0.571573 0.149372 0.227114
v 0.560962 0.136112 0.229525
v 0.553077 0.120985 0.231316
v 0.548221 0.104570 0.232419
v 0.546582 0.087500 0.232792
v 0.548221 0.070430 0.232419
v 0.553077 0.054015 0.231316
v 0.560962 0.038888 0.229525
v 0.571573 0.025628 0.227114
v 0.584503 0.014746 0.224177
v 0.599255 0.006661 0.220826
v 0.615262 0.001681 0.217190
v 0.631908 0.000000 0.213408
v 0.648554 0.001681 0.209627
v 0.664561 0.006661 0.205991
v 0.679313 0.014746 0.202640
v 0.692243 0.025628 0.199702
v 0.702854 0.038888 0.197292
v 0.710739 0.054015 0.195501
v 0.715594 0.070430 0.194398
v 0.717234 0.087500 0.194025
v 0.715594 0.104570 0.194398
v 0.710739 0.120985 0.195501
v 0.702854 0.136112 0.197292
v 0.692243 0.149372 0.199702
v 0.679313 0.160254 0.202640
v 0.664561 0.168339 0.205991
v 0.648554 0.173319 0.209627
v 0.627340 0.173319 0.256873
v 0.643111 0.175000 0.250341
v 0.612175 0.168339 0.263155
v 0.598199 0.160254 0.268944
v 0.585949 0.149372 0.274018
v 0.575896 0.136112 0.278182
v 0.568425 0.120985 0.281277
v 0.563825 0.104570 0.283182
v 0.562272 0.087500 0.283826
v 0.563825 0.070430 0.283182
v 0.568425 0.054015 0.281277
v 0.575896 0.038888 0.278182
v 0.585949 0.025628 0.274018
v 0.598199 0.014746 0.268944
v 0.612175 0.006661 0.263155
v 0.627340 0.001681 0.256873
v 0.643111 0.000000 0.250341
v 0.658882 0.001681 0.243808
v 0.674047 0.006661 0.237527
v 0.688023 0.014746 0.231738
v 0.700273 0.025628 0.226663
v 0.710327 0.038888 0.222499
v 0.717797 0.054015 0.219405
v 0.722397 0.070430 0.217499
v 0.723951 0.087500 0.216856
v 0.722397 0.104570 0.217499
v 0.717797 0.120985 0.219405
v 0.710327 0.136112 0.222499
v 0.700273 0.149372 0.226663
v 0.688023 0.160254 0.231738
v 0.674047 0.168339 0.237527
v 0.658882 0.173319 0.243808
v 0.647111 0.173319 0.293862
v 0.661304 0.175000 0.284378
v 0.633463 0.168339 0.302981
v 0.620885 0.160254 0.311385
v 0.609860 0.149372 0.318752
v 0.600812 0.136112 0.324798
v 0.594089 0.120985 0.329290
v 0.589949 0.104570 0.332056
v 0.588551 0.087500 0.332990
v 0.589949 0.070430 0.332056
v 0.594089 0.054015 0.329290
v 0.600812 0.038888 0.324798
v 0.609860 0.025628 0.318752
v 0.620885 0.014746 0.311385
v 0.633463 0.006661 0.302981
v 0.647111 0.001681 0.293862
v 0.661304 0.000000 0.284378
v 0.675498 0.001681 0.274894
v 0.689146 0.006661 0.265775
v 0.701724 0.014746 0.257370
v 0.712749 0.025628 0.250004
v 0.721797 0.038888 0.243958
v 0.728520 0.054015 0.239466
v 0.732660 0.070430 0.236700
v 0.734058 0.087500 0.235765
v 0.732660 0.104570 0.236700
v 0.728520 0.120985 0.239466
v 0.721797 0.136112 0.243958
v 0.712749 0.149372 0.250004
v 0.701724 0.160254 0.257370
v 0.689146 0.168339 0.265775
v 0.675498 0.173319 0.274894
v 0.673718 0.173319 0.326282
v 0.685788 0.175000 0.314212
v 0.662111 0.168339 0.337889
v 0.651414 0.160254 0.348586
v 0.642038 0.149372 0.357962
v 0.634344 0.136112 0.365656
v 0.628626 0.120985 0.371374
v 0.625105 0.104570 0.374895
v 0.623917 0.087500 0.376083
v 0.625105 0.070430 0.374895
v 0.628626 0.054015 0.371374
v 0.634344 0.038888 0.365656
v 0.642038 0.025628 0.357962
v 0.651414 0.014746 0.348586
v 0.662111 0.006661 0.337889
v 0.673718 0.001681 0.326282
v 0.685788 0.000000 0.314212
v 0.697859 0.001681 0.302141
v 0.709466 0.006661 0.290534
v 0.720163 0.014746 0.279837
v 0.729538 0.025628 0.270462
v 0.737233 0.038888 0.262767
v 0.742950 0.054015 0.257050
v 0.746471 0.070430 0.253529
v 0.747660 0.087500 0.252340
v 0.746471 0.104570 0.253529
v 0.742950 0.120985 0.257050
v 0.737233 0.136112 0.262767
v 0.729538 0.149372 0.270462
v 0.720163 0.160254 0.279837
v 0.709466 0.168339 0.290534
v 0.697859 0.173319 0.302141
v 0.706138 0.173319 0.352889
v 0.715622 0.175000 0.338696
v 0.697019 0.168339 0.366537
v 0.688615 0.160254 0.379115
v 0.681248 0.149372 0.390140
v 0.675202 0.136112 0.399188
v 0.670710 0.120985 0.405911
v 0.667944 0.104570 0.410051
v 0.667010 0.087500 0.411449
v 0.667944 0.070430 0.410051
v 0.670710 0.054015 0.405911
v 0.675202 0.038888 0.399188
v 0.681248 0.025628 0.390140
v 0.688615 0.014746 0.379115
v 0.697019 0.006661 0.366537
v 0.706138 0.001681 0.352889
v 0.715622 0.000000 0.338696
v 0.725106 0.001681 0.324502
v 0.734225 0.006661 0.310854
v 0.742630 0.014746 0.298276
v 0.749996 0.025628 0.287251
v 0.756042 0.038888 0.278203
v 0.760534 0.054015 0.271480
v 0.763300 0.070430 0.267340
v 0.764235 0.087500 0.265942
v 0.763300 0.104570 0.267340
v 0.760534 0.120985 0.271480
v 0.756042 0.136112 0.278203
v 0.749996 0.149372 0.287251
v 0.742630 0.160254 0.298276
v 0.734225 0.168339 0.310854
v 0.725106 0.173319 0.324502
v 0.743127 0.173319 0.372660
v 0.749659 0.175000 0.356889
v 0.736845 0.168339 0.387825
v 0.731056 0.160254 0.401801
v 0.725982 0.149372 0.414051
v 0.721818 0.136112 0.424104
v 0.718723 0.120985 0.431575
v 0.716818 0.104570 0.436175
v 0.716174 0.087500 0.437728
v 0.716818 0.070430 0.436175
v 0.718723 0.054015 0.431575
v 0.721818 0.038888 0.424104
v 0.725982 0.025628 0.414051
v 0.731056 0.014746 0.401801
v 0.736845 0.006661 0.387825
v 0.743127 0.001681 0.372660
v 0.749659 0.000000 0.356889
v 0.756192 0.001681 0.341118
v 0.762473 0.006661 0.325953
v 0.768262 0.014746 0.311977
v 0.773337 0.025628 0.299727
v 0.777501 0.038888 0.289673
v 0.780595 0.054015 0.282203
v 0.782501 0.070430 0.277603
v 0.783144 0.087500 0.276049
v 0.782501 0.104570 0.277603
v 0.780595 0.120985 0.282203
v 0.777501 0.136112 0.289673
v 0.773337 0.149372 0.299727
v 0.768262 0.160254 0.311977
v 0.762473 0.168339 0.325953
v 0.756192 0.173319 0.341118
v 0.782810 0.173319 0.384738
v 0.786592 0.175000 0.368092
v 0.779174 0.168339 0.400745
v 0.775823 0.160254 0.415497
v 0.772886 0.149372 0.428427
v 0.770475 0.136112 0.439038
v 0.768684 0.120985 0.446923
v 0.767581 0.104570 0.451779
v 0.767208 0.087500 0.453418
v 0.767581 0.070430 0.451779
v 0.768684 0.054015 0.446923
v 0.770475 0.038888 0.439038
v 0.772886 0.025628 0.428427
v 0.775823 0.014746 0.415497
v 0.779174 0.006661 0.400745
v 0.782810 0.001681 0.384738
v 0.786592 0.000000 0.368092
v 0.790373 0.001681 0.351446
v 0.794009 0.006661 0.335439
v 0.797360 0.014746 0.320687
v 0.800298 0.025628 0.307757
v 0.802708 0.038888 0.297146
v 0.804499 0.054015 0.289261
v 0.805602 0.070430 0.284406
v 0.805975 0.087500 0.282766
v 0.805602 0.104570 0.284406
v 0.804499 0.120985 0.289261
v 0.802708 0.136112 0.297146
v 0.800298 0.149372 0.307757
v 0.797360 0.160254 0.320687
v 0.794009 0.168339 0.335439
v 0.790373 0.173319 0.351446
v 0.809952 0.173319 0.388896
v 0.811250 0.175000 0.371875
v 0.808704 0.168339 0.405263
v 0.807554 0.160254 0.420347
v 0.806545 0.149372 0.433568
v 0.805718 0.136112 0.444418
v 0.805103 0.120985 0.452480
v 0.804724 0.104570 0.457445
v 0.804597 0.087500 0.459122
v 0.804724 0.070430 0.457445
v 0.805103 0.054015 0.452480
v 0.805718 0.038888 0.444418
v 0.806545 0.025628 0.433568
v 0.807554 0.014746 0.420347
v 0.808704 0.006661 0.405263
v 0.809952 0.001681 0.388896
v 0.811250 0.000000 0.371875
v 0.812548 0.001681 0.354854
v 0.813796 0.006661 0.338487
v 0.814946 0.014746 0.323403
v 0.815955 0.025628 0.310182
v 0.816782 0.038888 0.299332
v 0.817397 0.054015 0.291270
v 0.817776 0.070430 0.286305
v 0.817903 0.087500 0.284628
v 0.817776 0.104570 0.286305
v 0.817397 0.120985 0.291270
v 0.816782 0.136112 0.299332
v 0.815955 0.149372 0.310182
v 0.814946 0.160254 0.323403
v 0.813796 0.168339 0.338487
v 0.812548 0.173319 0.354854
v 0.825000 0.173319 0.388945
v 0.825000 0.175000 0.371875
v 0.825000 0.168339 0.405360
v 0.825000 0.160254 0.420487
v 0.825000 0.149372 0.433747
v 0.825000 0.136112 0.444629
v 0.825000 0.120985 0.452714
v 0.825000 0.104570 0.457694
v 0.825000 0.087500 0.459375
v 0.825000 0.070430 0.457694
v 0.825000 0.054015 0.452714
v 0.825000 0.038888 0.444629
v 0.825000 0.025628 0.433747
v 0.825000 0.014746 0.420487
v 0.825000 0.006661 0.405360
v 0.825000 0.001681 0.388945
v 0.825000 0.000000 0.371875
v 0.825000 0.001681 0.354805
v 0.825000 0.006661 0.338390
v 0.825000 0.014746 0.323263
v 0.825000 0.025628 0.310003
v 0.825000 0.038888 0.299121
v 0.825000 0.054015 0.291036
v 0.825000 0.070430 0.286056
v 0.825000 0.087500 0.284375
v 0.825000 0.104570 0.286056
v 0.825000 0.120985 0.291036
v 0.825000 0.136112 0.299121
v 0.825000 0.149372 0.310003
v 0.825000 0.160254 0.323263
v 0.825000 0.168339 0.338390
v 0.825000 0.173319 0.354805
v 0.371875 0.175000 0.175000
v 0.354805 0.173319 0.175000
v 0.354833 0.173319 0.189740
v 0.371875 0.175000 0.188750
v 0.338390 0.168339 0.175000
v 0.338447 0.168339 0.190693
v 0.323263 0.160254 0.175000
v 0.323345 0.160254 0.191571
v 0.310003 0.149372 0.175000
v 0.310107 0.149372 0.192340
v 0.299121 0.136112 0.175000
v 0.299244 0.136112 0.192971
v 0.291036 0.120985 0.175000
v 0.291172 0.120985 0.193440
v 0.286056 0.104570 0.175000
v 0.286201 0.104570 0.193729
v 0.284375 0.087500 0.175000
v 0.284522 0.087500 0.193827
v 0.286056 0.070430 0.175000
v 0.286201 0.070430 0.193729
v 0.291036 0.054015 0.175000
v 0.291172 0.054015 0.193440
v 0.299121 0.038888 0.175000
v 0.299244 0.038888 0.192971
v 0.310003 0.025628 0.175000
v 0.310107 0.025628 0.192340
v 0.323263 0.014746 0.175000
v 0.323345 0.014746 0.191571
v 0.338390 0.006661 0.175000
v 0.338447 0.006661 0.190693
v 0.354805 0.001681 0.175000
v 0.354833 0.001681 0.189740
v 0.371875 0.000000 0.175000
v 0.371875 0.000000 0.188750
v 0.388945 0.001681 0.175000
v 0.388917 0.001681 0.187760
v 0.405360 0.006661 0.175000
v 0.405303 0.006661 0.186807
v 0.420487 0.014746 0.175000
v 0.420405 0.014746 0.185929
v 0.433747 0.025628 0.175000
v 0.433643 0.025628 0.185160
v 0.444629 0.038888 0.175000
v 0.444506 0.038888 0.184529
v 0.452714 0.054015 0.175000
v 0.452578 0.054015 0.184060
v 0.457694 0.070430 0.175000
v 0.457549 0.070430 0.183771
v 0.459375 0.087500 0.175000
v 0.459228 0.087500 0.183673
v 0.457694 0.104570 0.175000
v 0.457549 0.104570 0.183771
v 0.452714 0.120985 0.175000
v 0.452578 0.120985 0.184060
v 0.444629 0.136112 0.175000
v 0.444506 0.136112 0.184529
v 0.433747 0.149372 0.175000
v 0.433643 0.149372 0.185160
v 0.420487 0.160254 0.175000
v 0.420405 0.160254 0.185929
v 0.405360 0.168339 0.175000
v 0.405303 0.168339 0.186807
v 0.388945 0.173319 0.175000
v 0.388917 0.173319 0.187760
v 0.363870 0.173319 0.266881
v 0.380582 0.175000 0.263400
v 0.347800 0.168339 0.270227
v 0.332990 0.160254 0.273311
v 0.320009 0.149372 0.276015
v 0.309356 0.136112 0.278233
v 0.301440 0.120985 0.279882
v 0.296565 0.104570 0.280897
v 0.294919 0.087500 0.281240
v 0.296565 0.070430 0.280897
v 0.301440 0.054015 0.279882
v 0.309356 0.038888 0.278233
v 0.320009 0.025628 0.276015
v 0.332990 0.014746 0.273311
v 0.347800 0.006661 0.270227
v 0.363870 0.001681 0.266881
v 0.380582 0.000000 0.263400
v 0.397294 0.001681 0.259920
v 0.413363 0.006661 0.256574
v 0.428173 0.014746 0.253489
v 0.441154 0.025628 0.250786
v 0.451807 0.038888 0.248568
v 0.459723 0.054015 0.246919
v 0.464598 0.070430 0.245904
v 0.466244 0.087500 0.245561
v 0.464598 0.104570 0.245904
v 0.459723 0.120985 0.246919
v 0.451807 0.136112 0.248568
v 0.441154 0.149372 0.250786
v 0.428173 0.160254 0.253489
v 0.413363 0.168339 0.256574
v 0.397294 0.173319 0.259920
v 0.390596 0.173319 0.354936
v 0.406367 0.175000 0.348403
v 0.375431 0.168339 0.361218
v 0.361455 0.160254 0.367007
v 0.349205 0.149372 0.372081
v 0.339152 0.136112 0.376245
v 0.331681 0.120985 0.379339
v 0.327081 0.104570 0.381245
v 0.325528 0.087500 0.381888
v 0.327081 0.070430 0.381245
v 0.331681 0.054015 0.379339
v 0.339152 0.038888 0.376245
v 0.349205 0.025628 0.372081
v 0.361455 0.014746 0.367007
v 0.375431 0.006661 0.361218
v 0.390596 0.001681 0.354936
v 0.406367 0.000000 0.348403
v 0.422138 0.001681 0.341871
v 0.437303 0.006661 0.335589
v 0.451279 0.014746 0.329800
v 0.463529 0.025628 0.324726
v 0.473583 0.038888 0.320562
v 0.481053 0.054015 0.317468
v 0.485653 0.070430 0.315562
v 0.487207 0.087500 0.314919
v 0.485653 0.104570 0.315562
v 0.481053 0.120985 0.317468
v 0.473583 0.136112 0.320562
v 0.463529 0.149372 0.324726
v 0.451279 0.160254 0.329800
v 0.437303 0.168339 0.335589
v 0.422138 0.173319 0.341871
v 0.434047 0.173319 0.436227
v 0.448240 0.175000 0.426743
v 0.420399 0.168339 0.445346
v 0.407821 0.160254 0.453750
v 0.396796 0.149372 0.461117
v 0.387748 0.136112 0.467162
v 0.381025 0.120985 0.471655
v 0.376885 0.104570 0.474421
v 0.375487 0.087500 0.475355
v 0.376885 0.070430 0.474421
v 0.381025 0.054015 0.471655
v 0.387748 0.038888 0.467162
v 0.396796 0.025628 0.461117
v 0.407821 0.014746 0.453750
v 0.420399 0.006661 0.445346
v 0.434047 0.001681 0.436227
v 0.448240 0.000000 0.426743
v 0.462434 0.001681 0.417259
v 0.476082 0.006661 0.408140
v 0.488660 0.014746 0.399735
v 0.499685 0.025628 0.392369
v 0.508733 0.038888 0.386323
v 0.515456 0.054015 0.381831
v 0.519596 0.070430 0.379064
v 0.520994 0.087500 0.378130
v 0.519596 0.104570 0.379064
v 0.515456 0.120985 0.381831
v 0.508733 0.136112 0.386323
v 0.499685 0.149372 0.392369
v 0.488660 0.160254 0.399735
v 0.476082 0.168339 0.408140
v 0.462434 0.173319 0.417259
v 0.492522 0.173319 0.507478
v 0.504592 0.175000 0.495408
v 0.480915 0.168339 0.519085
v 0.470218 0.160254 0.529782
v 0.460842 0.149372 0.539158
v 0.453148 0.136112 0.546852
v 0.447430 0.120985 0.552570
v 0.443909 0.104570 0.556091
v 0.442720 0.087500 0.557280
v 0.443909 0.070430 0.556091
v 0.447430 0.054015 0.552570
v 0.453148 0.038888 0.546852
v 0.460842 0.025628 0.539158
v 0.470218 0.014746 0.529782
v 0.480915 0.006661 0.519085
v 0.492522 0.001681 0.507478
v 0.504592 0.000000 0.495408
v 0.516663 0.001681 0.483337
v 0.528270 0.006661 0.471730
v 0.538966 0.014746 0.461034
v 0.548342 0.025628 0.451658
v 0.556037 0.038888 0.443963
v 0.561754 0.054015 0.438246
v 0.565275 0.070430 0.434725
v 0.566464 0.087500 0.433536
v 0.565275 0.104570 0.434725
v 0.561754 0.120985 0.438246
v 0.556037 0.136112 0.443963
v 0.548342 0.149372 0.451658
v 0.538966 0.160254 0.461034
v 0.528270 0.168339 0.471730
v 0.516663 0.173319 0.483337
v 0.563773 0.173319 0.565953
v 0.573257 0.175000 0.551760
v 0.554654 0.168339 0.579601
v 0.546250 0.160254 0.592179
v 0.538883 0.149372 0.603204
v 0.532838 0.136112 0.612252
v 0.528345 0.120985 0.618975
v 0.525579 0.104570 0.623115
v 0.524645 0.087500 0.624513
v 0.525579 0.070430 0.623115
v 0.528345 0.054015 0.618975
v 0.532838 0.038888 0.612252
v 0.538883 0.025628 0.603204
v 0.546250 0.014746 0.592179
v 0.554654 0.006661 0.579601
v 0.563773 0.001681 0.565953
v 0.573257 0.000000 0.551760
v 0.582741 0.001681 0.537566
v 0.591860 0.006661 0.523918
v 0.600265 0.014746 0.511340
v 0.607631 0.025628 0.500315
v 0.613677 0.038888 0.491267
v 0.618169 0.054015 0.484544
v 0.620936 0.070430 0.480404
v 0.621870 0.087500 0.479006
v 0.620936 0.104570 0.480404
v 0.618169 0.120985 0.484544
v 0.613677 0.136112 0.491267
v 0.607631 0.149372 0.500315
v 0.600265 0.160254 0.511340
v 0.591860 0.168339 0.523918
v 0.582741 0.173319 0.537566
v 0.645064 0.173319 0.609404
v 0.651597 0.175000 0.593633
v 0.638782 0.168339 0.624569
v 0.632993 0.160254 0.638545
v 0.627919 0.149372 0.650795
v 0.623755 0.136112 0.660848
v 0.620661 0.120985 0.668319
v 0.618755 0.104570 0.672919
v 0.618112 0.087500 0.674472
v 0.618755 0.070430 0.672919
v 0.620661 0.054015 0.668319
v 0.623755 0.038888 0.660848
v 0.627919 0.025628 0.650795
v 0.632993 0.014746 0.638545
v 0.638782 0.006661 0.624569
v 0.645064 0.001681 0.609404
v 0.651597 0.000000 0.593633
v 0.658129 0.001681 0.577862
v 0.664411 0.006661 0.562697
v 0.670200 0.014746 0.548721
v 0.675274 0.025628 0.536471
v 0.679438 0.038888 0.526417
v 0.682532 0.054015 0.518947
v 0.684438 0.070430 0.514347
v 0.685081 0.087500 0.512793
v 0.684438 0.104570 0.514347
v 0.682532 0.120985 0.518947
v 0.679438 0.136112 0.526417
v 0.675274 0.149372 0.536471
v 0.670200 0.160254 0.548721
v 0.664411 0.168339 0.562697
v 0.658129 0.173319 0.577862
v 0.733119 0.173319 0.636130
v 0.736600 0.175000 0.619418
v 0.729773 0.168339 0.652200
v 0.726689 0.160254 0.667010
v 0.723985 0.149372 0.679991
v 0.721767 0.136112 0.690644
v 0.720118 0.120985 0.698560
v 0.719103 0.104570 0.703435
v 0.718760 0.087500 0.705081
v 0.719103 0.070430 0.703435
v 0.720118 0.054015 0.698560
v 0.721767 0.038888 0.690644
v 0.723985 0.025628 0.679991
v 0.726689 0.014746 0.667010
v 0.729773 0.006661 0.652200
v 0.733119 0.001681 0.636130
v 0.736600 0.000000 0.619418
v 0.740080 0.001681 0.602706
v 0.743426 0.006661 0.586637
v 0.746511 0.014746 0.571827
v 0.749214 0.025628 0.558846
v 0.751432 0.038888 0.548193
v 0.753081 0.054015 0.540277
v 0.754096 0.070430 0.535402
v 0.754439 0.087500 0.533756
v 0.754096 0.104570 0.535402
v 0.753081 0.120985 0.540277
v 0.751432 0.136112 0.548193
v 0.749214 0.149372 0.558846
v 0.746511 0.160254 0.571827
v 0.743426 0.168339 0.586637
v 0.740080 0.173319 0.602706
v 0.810260 0.173319 0.645167
v 0.811250 0.175000 0.628125
v 0.809307 0.168339 0.661553
v 0.808429 0.160254 0.676655
v 0.807660 0.149372 0.689893
v 0.807029 0.136112 0.700756
v 0.806560 0.120985 0.708828
v 0.806271 0.104570 0.713799
v 0.806173 0.087500 0.715478
v 0.806271 0.070430 0.713799
v 0.806560 0.054015 0.708828
v 0.807029 0.038888 0.700756
v 0.807660 0.025628 0.689893
v 0.808429 0.014746 0.676655
v 0.809307 0.006661 0.661553
v 0.810260 0.001681 0.645167
v 0.811250 0.000000 0.628125
v 0.812240 0.001681 0.611083
v 0.813193 0.006661 0.594697
v 0.814071 0.014746 0.579595
v 0.814840 0.025628 0.566357
v 0.815471 0.038888 0.555494
v 0.815940 0.054015 0.547422
v 0.816229 0.070430 0.542451
v 0.816327 0.087500 0.540772
v 0.816229 0.104570 0.542451
v 0.815940 0.120985 0.547422
v 0.815471 0.136112 0.555494
v 0.814840 0.149372 0.566357
v 0.814071 0.160254 0.579595
v 0.813193 0.168339 0.594697
v 0.812240 0.173319 0.611083
v 0.825000 0.173319 0.645195
v 0.825000 0.175000 0.628125
v 0.825000 0.168339 0.661610
v 0.825000 0.160254 0.676737
v 0.825000 0.149372 0.689997
v 0.825000 0.136112 0.700879
v 0.825000 0.120985 0.708964
v 0.825000 0.104570 0.713944
v 0.825000 0.087500 0.715625
v 0.825000 0.070430 0.713944
v 0.825000 0.054015 0.708964
v 0.825000 0.038888 0.700879
v 0.825000 0.025628 0.689997
v 0.825000 0.014746 0.676737
v 0.825000 0.006661 0.661610
v 0.825000 0.001681 0.645195
v 0.825000 0.000000 0.628125
v 0.825000 0.001681 0.611055
v 0.825000 0.006661 0.594640
v 0.825000 0.014746 0.579513
v 0.825000 0.025628 0.566253
v 0.825000 0.038888 0.555371
v 0.825000 0.054015 0.547286
v 0.825000 0.070430 0.542306
v 0.825000 0.087500 0.540625
v 0.825000 0.104570 0.542306
v 0.825000 0.120985 0.547286
v 0.825000 0.136112 0.555371
v 0.825000 0.149372 0.566253
v 0.825000 0.160254 0.579513
v 0.825000 0.168339 0.594640
v 0.825000 0.173319 0.611055
vn -0.0975 0.9904 0.0000
vn -0.2889 0.9523 0.0000
vn -0.4691 0.8777 0.0000
vn -0.6313 0.7693 0.0000
vn -0.7693 0.6313 0.0000
vn -0.8777 0.4691 0.0000
vn -0.9523 0.2889 0.0000
vn -0.9904 0.0975 0.0000
vn -0.9904 -0.0975 0.0000
vn -0.9523 -0.2889 0.0000
vn -0.8777 -0.4691 0.0000
vn -0.7693 -0.6313 0.0000
vn -0.6313 -0.7693 0.0000
vn -0.4691 -0.8777 0.0000
vn -0.2889 -0.9523 0.0000
vn -0.0975 -0.9904 0.0000
vn 0.0975 -0.9904 0.0000
vn 0.2889 -0.9523 0.0000
vn 0.4691 -0.8777 0.0000
vn 0.6313 -0.7693 0.0000
vn 0.7693 -0.6313 0.0000
vn 0.8777 -0.4691 0.0000
vn 0.9523 -0.2889 0.0000
vn 0.9904 -0.0975 0.0000
vn 0.9904 0.0975 0.0000
vn 0.9523 0.2889 -0.0000
vn 0.8777 0.4691 -0.0000
vn 0.7693 0.6313 -0.0000
vn 0.6313 0.7693 -0.0000
vn 0.4691 0.8777 -0.0000
vn 0.2889 0.9523 -0.0000
vn 0.0975 0.9904 0.0000
vn -0.0973 0.9904 0.0074
vn -0.2881 0.9523 0.0220
vn -0.4678 0.8777 0.0357
vn -0.6295 0.7693 0.0480
vn -0.7671 0.6313 0.0585
vn -0.8751 0.4691 0.0667
vn -0.9496 0.2889 0.0724
vn -0.9875 0.0975 0.0753
vn -0.9875 -0.0975 0.0753
vn -0.9496 -0.2889 0.0724
vn -0.8751 -0.4691 0.0667
vn -0.7671 -0.6313 0.0585
vn -0.6295 -0.7693 0.0480
vn -0.4678 -0.8777 0.0357
vn -0.2881 -0.9523 0.0220
vn -0.0973 -0.9904 0.0074
vn 0.0973 -0.9904 -0.0074
vn 0.2881 -0.9523 -0.0220
vn 0.4678 -0.8777 -0.0357
vn 0.6295 -0.7693 -0.0480
vn 0.7671 -0.6313 -0.0585
vn 0.8751 -0.4691 -0.0667
vn 0.9496 -0.2889 -0.0724
vn 0.9875 -0.0975 -0.0753
vn 0.9875 0.0975 -0.0753
vn 0.9496 0.2889 -0.0724
vn 0.8751 0.4691 -0.0667
vn 0.7671 0.6313 -0.0585
vn 0.6295 0.7693 -0.0480
vn 0.4678 0.8777 -0.0357
vn 0.2881 0.9523 -0.0220
vn 0.0973 0.9904 -0.0074
vn -0.0951 0.9904 0.0216
vn -0.2817 0.9523 0.0640
vn -0.4575 0.8777 0.1039
vn -0.6157 0.7693 0.1399
vn -0.7502 0.6313 0.1704
vn -0.8559 0.4691 0.1944
vn -0.9287 0.2889 0.2110
vn -0.9658 0.0975 0.2194
vn -0.9658 -0.0975 0.2194
vn -0.9287 -0.2889 0.2110
vn -0.8559 -0.4691 0.1944
vn -0.7502 -0.6313 0.1704
vn -0.6157 -0.7693 0.1399
vn -0.4575 -0.8777 0.1039
vn -0.2817 -0.9523 0.0640
vn -0.0951 -0.9904 0.0216
vn 0.0951 -0.9904 -0.0216
vn 0.2817 -0.9523 -0.0640
vn 0.4575 -0.8777 -0.1039
vn 0.6157 -0.7693 -0.1399
vn 0.7502 -0.6313 -0.1704
vn 0.8559 -0.4691 -0.1944
vn 0.9287 -0.2889 -0.2110
vn 0.9658 -0.0975 -0.2194
vn 0.9658 0.0975 -0.2194
vn 0.9287 0.2889 -0.2110
vn 0.8559 0.4691 -0.1944
vn 0.7502 0.6313 -0.1704
vn 0.6157 0.7693 -0.1399
vn 0.4575 0.8777 -0.1039
vn 0.2817 0.9523 -0.0640
vn 0.0951 0.9904 -0.0216
vn -0.0901 0.9904 0.0373
vn -0.2669 0.9523 0.1106
vn -0.4334 0.8777 0.1795
vn -0.5833 0.7693 0.2416
vn -0.7107 0.6313 0.2944
vn -0.8109 0.4691 0.3359
vn -0.8798 0.2889 0.3644
vn -0.9150 0.0975 0.3790
vn -0.9150 -0.0975 0.3790
vn -0.8798 -0.2889 0.3644
vn -0.8109 -0.4691 0.3359
vn -0.7107 -0.6313 0.2944
vn -0.5833 -0.7693 0.2416
vn -0.4334 -0.8777 0.1795
vn -0.2669 -0.9523 0.1106
vn -0.0901 -0.9904 0.0373
vn 0.0901 -0.9904 -0.0373
vn 0.2669 -0.9523 -0.1106
vn 0.4334 -0.8777 -0.1795
vn 0.5833 -0.7693 -0.2416
vn 0.7107 -0.6313 -0.2944
vn 0.8109 -0.4691 -0.3359
vn 0.8798 -0.2889 -0.3644
vn 0.9150 -0.0975 -0.3790
vn 0.9150 0.0975 -0.3790
vn 0.8798 0.2889 -0.3644
vn 0.8109 0.4691 -0.3359
vn 0.7107 0.6313 -0.2944
vn 0.5833 0.7693 -0.2416
vn 0.4334 0.8777 -0.1795
vn 0.2669 0.9523 -0.1106
vn 0.0901 0.9904 -0.0373
vn -0.0811 0.9904 0.0542
vn -0.2402 0.9523 0.1605
vn -0.3901 0.8777 0.2606
vn -0.5249 0.7693 0.3508
vn -0.6396 0.6313 0.4274
vn -0.7298 0.4691 0.4876
vn -0.7918 0.2889 0.5291
vn -0.8235 0.0975 0.5502
vn -0.8235 -0.0975 0.5502
vn -0.7918 -0.2889 0.5291
vn -0.7298 -0.4691 0.4876
vn -0.6396 -0.6313 0.4274
vn -0.5249 -0.7693 0.3508
vn -0.3901 -0.8777 0.2606
vn -0.2402 -0.9523 0.1605
vn -0.0811 -0.9904 0.0542
vn 0.0811 -0.9904 -0.0542
vn 0.2402 -0.9523 -0.1605
vn 0.3901 -0.8777 -0.2606
vn 0.5249 -0.7693 -0.3508
vn 0.6396 -0.6313 -0.4274
vn 0.7298 -0.4691 -0.4876
vn 0.7918 -0.2889 -0.5291
vn 0.8235 -0.0975 -0.5502
vn 0.8235 0.0975 -0.5502
vn 0.7918 0.2889 -0.5291
vn 0.7298 0.4691 -0.4876
vn 0.6396 0.6313 -0.4274
vn 0.5249 0.7693 -0.3508
vn 0.3901 0.8777 -0.2606
vn 0.2402 0.9523 -0.1605
vn 0.0811 0.9904 -0.0542
vn -0.0690 0.9904 0.0690
vn -0.2043 0.9523 0.2043
vn -0.3317 0.8777 0.3317
vn -0.4464 0.7693 0.4464
vn -0.5440 0.6313 0.5440
vn -0.6206 0.4691 0.6206
vn -0.6734 0.2889 0.6734
vn -0.7003 0.0975 0.7003
vn -0.7003 -0.0975 0.7003
vn -0.6734 -0.2889 0.6734
vn -0.6206 -0.4691 0.6206
vn -0.5440 -0.6313 0.5440
vn -0.4464 -0.7693 0.4464
vn -0.3317 -0.8777 0.3317
vn -0.2043 -0.9523 0.2043
vn -0.0690 -0.9904 0.0690
vn 0.0690 -0.9904 -0.0690
vn 0.2043 -0.9523 -0.2043
vn 0.3317 -0.8777 -0.3317
vn 0.4464 -0.7693 -0.4464
vn 0.5440 -0.6313 -0.5440
vn 0.6206 -0.4691 -0.6206
vn 0.6734 -0.2889 -0.6734
vn 0.7003 -0.0975 -0.7003
vn 0.7003 0.0975 -0.7003
vn 0.6734 0.2889 -0.6734
vn 0.6206 0.4691 -0.6206
vn 0.5440 0.6313 -0.5440
vn 0.4464 0.7693 -0.4464
vn 0.3317 0.8777 -0.3317
vn 0.2043 0.9523 -0.2043
vn 0.0690 0.9904 -0.0690
vn -0.0542 0.9904 0.0811
vn -0.1605 0.9523 0.2402
vn -0.2606 0.8777 0.3901
vn -0.3508 0.7693 0.5249
vn -0.4274 0.6313 0.6396
vn -0.4876 0.4691 0.7298
vn -0.5291 0.2889 0.7918
vn -0.5502 0.0975 0.8235
vn -0.5502 -0.0975 0.8235
vn -0.5291 -0.2889 0.7918
vn -0.4876 -0.4691 0.7298
vn -0.4274 -0.6313 0.6396
vn -0.3508 -0.7693 0.5249
vn -0.2606 -0.8777 0.3901
vn -0.1605 -0.9523 0.2402
vn -0.0542 -0.9904 0.0811
vn 0.0542 -0.9904 -0.0811
vn 0.1605 -0.9523 -0.2402
vn 0.2606 -0.8777 -0.3901
vn 0.3508 -0.7693 -0.5249
vn 0.4274 -0.6313 -0.6396
vn 0.4876 -0.4691 -0.7298
vn 0.5291 -0.2889 -0.7918
vn 0.5502 -0.0975 -0.8235
vn 0.5502 0.0975 -0.8235
vn 0.5291 0.2889 -0.7918
vn 0.4876 0.4691 -0.7298
vn 0.4274 0.6313 -0.6396
vn 0.3508 0.7693 -0.5249
vn 0.2606 0.8777 -0.3901
vn 0.1605 0.9523 -0.2402
vn 0.0542 0.9904 -0.0811
vn -0.0373 0.9904 0.0901
vn -0.1106 0.9523 0.2669
vn -0.1795 0.8777 0.4334
vn -0.2416 0.7693 0.5833
vn -0.2944 0.6313 0.7107
vn -0.3359 0.4691 0.8109
vn -0.3644 0.2889 0.8798
vn -0.3790 0.0975 0.9150
vn -0.3790 -0.0975 0.9150
vn -0.3644 -0.2889 0.8798
vn -0.3359 -0.4691 0.8109
vn -0.2944 -0.6313 0.7107
vn -0.2416 -0.7693 0.5833
vn -0.1795 -0.8777 0.4334
vn -0.1106 -0.9523 0.2669
vn -0.0373 -0.9904 0.0901
vn 0.0373 -0.9904 -0.0901
vn 0.1106 -0.9523 -0.2669
vn 0.1795 -0.8777 -0.4334
vn 0.2416 -0.7693 -0.5833
vn 0.2944 -0.6313 -0.7107
vn 0.3359 -0.4691 -0.8109
vn 0.3644 -0.2889 -0.8798
vn 0.3790 -0.0975 -0.9150
vn 0.3790 0.0975 -0.9150
vn 0.3644 0.2889 -0.8798
vn 0.3359 0.4691 -0.8109
vn 0.2944 0.6313 -0.7107
vn 0.2416 0.7693 -0.5833
vn 0.1795 0.8777 -0.4334
vn 0.1106 0.9523 -0.2669
vn 0.0373 0.9904 -0.0901
vn -0.0216 0.9904 0.0951
vn -0.0640 0.9523 0.2817
vn -0.1039 0.8777 0.4575
vn -0.1399 0.7693 0.6157
vn -0.1704 0.6313 0.7502
vn -0.1944 0.4691 0.8559
vn -0.2110 0.2889 0.9287
vn -0.2194 0.0975 0.9658
vn -0.2194 -0.0975 0.9658
vn -0.2110 -0.2889 0.9287
vn -0.1944 -0.4691 0.8559
vn -0.1704 -0.6313 0.7502
vn -0.1399 -0.7693 0.6157
vn -0.1039 -0.8777 0.4575
vn -0.0640 -0.9523 0.2817
vn -0.0216 -0.9904 0.0951
vn 0.0216 -0.9904 -0.0951
vn 0.0640 -0.9523 -0.2817
vn 0.1039 -0.8777 -0.4575
vn 0.1399 -0.7693 -0.6157
vn 0.1704 -0.6313 -0.7502
vn 0.1944 -0.4691 -0.8559
vn 0.2110 -0.2889 -0.9287
vn 0.2194 -0.0975 -0.9658
vn 0.2194 0.0975 -0.9658
vn 0.2110 0.2889 -0.9287
vn 0.1944 0.4691 -0.8559
vn 0.1704 0.6313 -0.7502
vn 0.1399 0.7693 -0.6157
vn 0.1039 0.8777 -0.4575
vn 0.0640 0.9523 -0.2817
vn 0.0216 0.9904 -0.0951
vn -0.0074 0.9904 0.0973
vn -0.0220 0.9523 0.2881
vn -0.0357 0.8777 0.4678
vn -0.0480 0.7693 0.6295
vn -0.0585 0.6313 0.7671
vn -0.0667 0.4691 0.8751
vn -0.0724 0.2889 0.9496
vn -0.0753 0.0975 0.9875
vn -0.0753 -0.0975 0.9875
vn -0.0724 -0.2889 0.9496
vn -0.0667 -0.4691 0.8751
vn -0.0585 -0.6313 0.7671
vn -0.0480 -0.7693 0.6295
vn -0.0357 -0.8777 0.4678
vn -0.0220 -0.9523 0.2881
vn -0.0074 -0.9904 0.0973
vn 0.0074 -0.9904 -0.0973
vn 0.0220 -0.9523 -0.2881
vn 0.0357 -0.8777 -0.4678
vn 0.0480 -0.7693 -0.6295
vn 0.0585 -0.6313 -0.7671
vn 0.0667 -0.4691 -0.8751
vn 0.0724 -0.2889 -0.9496
vn 0.0753 -0.0975 -0.9875
vn 0.0753 0.0975 -0.9875
vn 0.0724 0.2889 -0.9496
vn 0.0667 0.4691 -0.8751
vn 0.0585 0.6313 -0.7671
vn 0.0480 0.7693 -0.6295
vn 0.0357 0.8777 -0.4678
vn 0.0220 0.9523 -0.2881
vn 0.0074 0.9904 -0.0973
vn -0.0974 0.9904 0.0057
vn -0.2884 0.9523 0.0168
vn -0.4683 0.8777 0.0272
vn -0.6303 0.7693 0.0366
vn -0.7680 0.6313 0.0446
vn -0.8762 0.4691 0.0509
vn -0.9507 0.2889 0.0553
vn -0.9887 0.0975 0.0575
vn -0.9887 -0.0975 0.0575
vn -0.9507 -0.2889 0.0553
vn -0.8762 -0.4691 0.0509
vn -0.7680 -0.6313 0.0446
vn -0.6303 -0.7693 0.0366
vn -0.4683 -0.8777 0.0272
vn -0.2884 -0.9523 0.0168
vn -0.0974 -0.9904 0.0057
vn 0.0974 -0.9904 -0.0057
vn 0.2884 -0.9523 -0.0168
vn 0.4683 -0.8777 -0.0272
vn 0.6303 -0.7693 -0.0366
vn 0.7680 -0.6313 -0.0446
vn 0.8762 -0.4691 -0.0509
vn 0.9507 -0.2889 -0.0553
vn 0.9887 -0.0975 -0.0575
vn 0.9887 0.0975 -0.0575
vn 0.9507 0.2889 -0.0553
vn 0.8762 0.4691 -0.0509
vn 0.7680 0.6313 -0.0446
vn 0.6303 0.7693 -0.0366
vn 0.4683 0.8777 -0.0272
vn 0.2884 0.9523 -0.0168
vn 0.0974 0.9904 -0.0057
vn -0.0955 0.9904 0.0199
vn -0.2828 0.9523 0.0589
vn -0.4593 0.8777 0.0956
vn -0.6181 0.7693 0.1287
vn -0.7531 0.6313 0.1568
vn -0.8592 0.4691 0.1789
vn -0.9323 0.2889 0.1942
vn -0.9696 0.0975 0.2019
vn -0.9696 -0.0975 0.2019
vn -0.9323 -0.2889 0.1942
vn -0.8592 -0.4691 0.1789
vn -0.7531 -0.6313 0.1568
vn -0.6181 -0.7693 0.1287
vn -0.4593 -0.8777 0.0956
vn -0.2828 -0.9523 0.0589
vn -0.0955 -0.9904 0.0199
vn 0.0955 -0.9904 -0.0199
vn 0.2828 -0.9523 -0.0589
vn 0.4593 -0.8777 -0.0956
vn 0.6181 -0.7693 -0.1287
vn 0.7531 -0.6313 -0.1568
vn 0.8592 -0.4691 -0.1789
vn 0.9323 -0.2889 -0.1942
vn 0.9696 -0.0975 -0.2019
vn 0.9696 0.0975 -0.2019
vn 0.9323 0.2889 -0.1942
vn 0.8592 0.4691 -0.1789
vn 0.7531 0.6313 -0.1568
vn 0.6181 0.7693 -0.1287
vn 0.4593 0.8777 -0.0956
vn 0.2828 0.9523 -0.0589
vn 0.0955 0.9904 -0.0199
vn -0.0199 0.9904 0.0955
vn -0.0589 0.9523 0.2828
vn -0.0956 0.8777 0.4593
vn -0.1287 0.7693 0.6181
vn -0.1568 0.6313 0.7531
vn -0.1789 0.4691 0.8592
vn -0.1942 0.2889 0.9323
vn -0.2019 0.0975 0.9696
vn -0.2019 -0.0975 0.9696
vn -0.1942 -0.2889 0.9323
vn -0.1789 -0.4691 0.8592
vn -0.1568 -0.6313 0.7531
vn -0.1287 -0.7693 0.6181
vn -0.0956 -0.8777 0.4593
vn -0.0589 -0.9523 0.2828
vn -0.0199 -0.9904 0.0955
vn 0.0199 -0.9904 -0.0955
vn 0.0589 -0.9523 -0.2828
vn 0.0956 -0.8777 -0.4593
vn 0.1287 -0.7693 -0.6181
vn 0.1568 -0.6313 -0.7531
vn 0.1789 -0.4691 -0.8592
vn 0.1942 -0.2889 -0.9323
vn 0.2019 -0.0975 -0.9696
vn 0.2019 0.0975 -0.9696
vn 0.1942 0.2889 -0.9323
vn 0.1789 0.4691 -0.8592
vn 0.1568 0.6313 -0.7531
vn 0.1287 0.7693 -0.6181
vn 0.0956 0.8777 -0.4593
vn 0.0589 0.9523 -0.2828
vn 0.0199 0.9904 -0.0955
vn -0.0057 0.9904 0.0974
vn -0.0168 0.9523 0.2884
vn -0.0272 0.8777 0.4683
vn -0.0366 0.7693 0.6303
vn -0.0446 0.6313 0.7680
vn -0.0509 0.4691 0.8762
vn -0.0553 0.2889 0.9507
vn -0.0575 0.0975 0.9887
vn -0.0575 -0.0975 0.9887
vn -0.0553 -0.2889 0.9507
vn -0.0509 -0.4691 0.8762
vn -0.0446 -0.6313 0.7680
vn -0.0366 -0.7693 0.6303
vn -0.0272 -0.8777 0.4683
vn -0.0168 -0.9523 0.2884
vn -0.0057 -0.9904 0.0974
vn 0.0057 -0.9904 -0.0974
vn 0.0168 -0.9523 -0.2884
vn 0.0272 -0.8777 -0.4683
vn 0.0366 -0.7693 -0.6303
vn 0.0446 -0.6313 -0.7680
vn 0.0509 -0.4691 -0.8762
vn 0.0553 -0.2889 -0.9507
vn 0.0575 -0.0975 -0.9887
vn 0.0575 0.0975 -0.9887
vn 0.0553 0.2889 -0.9507
vn 0.0509 0.4691 -0.8762
vn 0.0446 0.6313 -0.7680
vn 0.0366 0.7693 -0.6303
vn 0.0272 0.8777 -0.4683
vn 0.0168 0.9523 -0.2884
vn 0.0057 0.9904 -0.0974
vt 0.000000 0.000000
vt 0.031250 0.000000
vt 0.031250 0.044504
vt 0.000000 0.044504
vt 0.062500 0.000000
vt 0.062500 0.044504
vt 0.093750 0.000000
vt 0.093750 0.044504
vt 0.125000 0.000000
vt 0.125000 0.044504
vt 0.156250 0.000000
vt 0.156250 0.044504
vt 0.187500 0.000000
vt 0.187500 0.044504
vt 0.218750 0.000000
vt 0.218750 0.044504
vt 0.250000 0.000000
vt 0.250000 0.044504
vt 0.281250 0.000000
vt 0.281250 0.044504
vt 0.312500 0.000000
vt 0.312500 0.044504
vt 0.343750 0.000000
vt 0.343750 0.044504
vt 0.375000 0.000000
vt 0.375000 0.044504
vt 0.406250 0.000000
vt 0.406250 0.044504
vt 0.437500 0.000000
vt 0.437500 0.044504
vt 0.468750 0.000000
vt 0.468750 0.044504
vt 0.500000 0.000000
vt 0.500000 0.044504
vt 0.531250 0.000000
vt 0.531250 0.044504
vt 0.562500 0.000000
vt 0.562500 0.044504
vt 0.593750 0.000000
vt 0.593750 0.044504
vt 0.625000 0.000000
vt 0.625000 0.044504
vt 0.656250 0.000000
vt 0.656250 0.044504
vt 0.687500 0.000000
vt 0.687500 0.044504
vt 0.718750 0.000000
vt 0.718750 0.044504
vt 0.750000 0.000000
vt 0.750000 0.044504
vt 0.781250 0.000000
vt 0.781250 0.044504
vt 0.812500 0.000000
vt 0.812500 0.044504
vt 0.843750 0.000000
vt 0.843750 0.044504
vt 0.875000 0.000000
vt 0.875000 0.044504
vt 0.906250 0.000000
vt 0.906250 0.044504
vt 0.937500 0.000000
vt 0.937500 0.044504
vt 0.968750 0.000000
vt 0.968750 0.044504
vt 1.000000 0.000000
vt 1.000000 0.044504
vt 0.031250 0.125249
vt 0.000000 0.125249
vt 0.062500 0.125249
vt 0.093750 0.125249
vt 0.125000 0.125249
vt 0.156250 0.125249
vt 0.187500 0.125249
vt 0.218750 0.125249
vt 0.250000 0.125249
vt 0.281250 0.125249
vt 0.312500 0.125249
vt 0.343750 0.125249
vt 0.375000 0.125249
vt 0.406250 0.125249
vt 0.437500 0.125249
vt 0.468750 0.125249
vt 0.500000 0.125249
vt 0.531250 0.125249
vt 0.562500 0.125249
vt 0.593750 0.125249
vt 0.625000 0.125249
vt 0.656250 0.125249
vt 0.687500 0.125249
vt 0.718750 0.125249
vt 0.750000 0.125249
vt 0.781250 0.125249
vt 0.812500 0.125249
vt 0.843750 0.125249
vt 0.875000 0.125249
vt 0.906250 0.125249
vt 0.937500 0.125249
vt 0.968750 0.125249
vt 1.000000 0.125249
vt 0.031250 0.250166
vt 0.000000 0.250166
vt 0.062500 0.250166
vt 0.093750 0.250166
vt 0.125000 0.250166
vt 0.156250 0.250166
vt 0.187500 0.250166
vt 0.218750 0.250166
vt 0.250000 0.250166
vt 0.281250 0.250166
vt 0.312500 0.250166
vt 0.343750 0.250166
vt 0.375000 0.250166
vt 0.406250 0.250166
vt 0.437500 0.250166
vt 0.468750 0.250166
vt 0.500000 0.250166
vt 0.531250 0.250166
vt 0.562500 0.250166
vt 0.593750 0.250166
vt 0.625000 0.250166
vt 0.656250 0.250166
vt 0.687500 0.250166
vt 0.718750 0.250166
vt 0.750000 0.250166
vt 0.781250 0.250166
vt 0.812500 0.250166
vt 0.843750 0.250166
vt 0.875000 0.250166
vt 0.906250 0.250166
vt 0.937500 0.250166
vt 0.968750 0.250166
vt 1.000000 0.250166
vt 0.031250 0.375083
vt 0.000000 0.375083
vt 0.062500 0.375083
vt 0.093750 0.375083
vt 0.125000 0.375083
vt 0.156250 0.375083
vt 0.187500 0.375083
vt 0.218750 0.375083
vt 0.250000 0.375083
vt 0.281250 0.375083
vt 0.312500 0.375083
vt 0.343750 0.375083
vt 0.375000 0.375083
vt 0.406250 0.375083
vt 0.437500 0.375083
vt 0.468750 0.375083
vt 0.500000 0.375083
vt 0.531250 0.375083
vt 0.562500 0.375083
vt 0.593750 0.375083
vt 0.625000 0.375083
vt 0.656250 0.375083
vt 0.687500 0.375083
vt 0.718750 0.375083
vt 0.750000 0.375083
vt 0.781250 0.375083
vt 0.812500 0.375083
vt 0.843750 0.375083
vt 0.875000 0.375083
vt 0.906250 0.375083
vt 0.937500 0.375083
vt 0.968750 0.375083
vt 1.000000 0.375083
vt 0.031250 0.500000
vt 0.000000 0.500000
vt 0.062500 0.500000
vt 0.093750 0.500000
vt 0.125000 0.500000
vt 0.156250 0.500000
vt 0.187500 0.500000
vt 0.218750 0.500000
vt 0.250000 0.500000
vt 0.281250 0.500000
vt 0.312500 0.500000
vt 0.343750 0.500000
vt 0.375000 0.500000
vt 0.406250 0.500000
vt 0.437500 0.500000
vt 0.468750 0.500000
vt 0.500000 0.500000
vt 0.531250 0.500000
vt 0.562500 0.500000
vt 0.593750 0.500000
vt 0.625000 0.500000
vt 0.656250 0.500000
vt 0.687500 0.500000
vt 0.718750 0.500000
vt 0.750000 0.500000
vt 0.781250 0.500000
vt 0.812500 0.500000
vt 0.843750 0.500000
vt 0.875000 0.500000
vt 0.906250 0.500000
vt 0.937500 0.500000
vt 0.968750 0.500000
vt 1.000000 0.500000
vt 0.031250 0.624917
vt 0.000000 0.624917
vt 0.062500 0.624917
vt 0.093750 0.624917
vt 0.125000 0.624917
vt 0.156250 0.624917
vt 0.187500 0.624917
vt 0.218750 0.624917
vt 0.250000 0.624917
vt 0.281250 0.624917
vt 0.312500 0.624917
vt 0.343750 0.624917
vt 0.375000 0.624917
vt 0.406250 0.624917
vt 0.437500 0.624917
vt 0.468750 0.624917
vt 0.500000 0.624917
vt 0.531250 0.624917
vt 0.562500 0.624917
vt 0.593750 0.624917
vt 0.625000 0.624917
vt 0.656250 0.624917
vt 0.687500 0.624917
vt 0.718750 0.624917
vt 0.750000 0.624917
vt 0.781250 0.624917
vt 0.812500 0.624917
vt 0.843750 0.624917
vt 0.875000 0.624917
vt 0.906250 0.624917
vt 0.937500 0.624917
vt 0.968750 0.624917
vt 1.000000 0.624917
vt 0.031250 0.749834
vt 0.000000 0.749834
vt 0.062500 0.749834
vt 0.093750 0.749834
vt 0.125000 0.749834
vt 0.156250 0.749834
vt 0.187500 0.749834
vt 0.218750 0.749834
vt 0.250000 0.749834
vt 0.281250 0.749834
vt 0.312500 0.749834
vt 0.343750 0.749834
vt 0.375000 0.749834
vt 0.406250 0.749834
vt 0.437500 0.749834
vt 0.468750 0.749834
vt 0.500000 0.749834
vt 0.531250 0.749834
vt 0.562500 0.749834
vt 0.593750 0.749834
vt 0.625000 0.749834
vt 0.656250 0.749834
vt 0.687500 0.749834
vt 0.718750 0.749834
vt 0.750000 0.749834
vt 0.781250 0.749834
vt 0.812500 0.749834
vt 0.843750 0.749834
vt 0.875000 0.749834
vt 0.906250 0.749834
vt 0.937500 0.749834
vt 0.968750 0.749834
vt 1.000000 0.749834
vt 0.031250 0.874751
vt 0.000000 0.874751
vt 0.062500 0.874751
vt 0.093750 0.874751
vt 0.125000 0.874751
vt 0.156250 0.874751
vt 0.187500 0.874751
vt 0.218750 0.874751
vt 0.250000 0.874751
vt 0.281250 0.874751
vt 0.312500 0.874751
vt 0.343750 0.874751
vt 0.375000 0.874751
vt 0.406250 0.874751
vt 0.437500 0.874751
vt 0.468750 0.874751
vt 0.500000 0.874751
vt 0.531250 0.874751
vt 0.562500 0.874751
vt 0.593750 0.874751
vt 0.625000 0.874751
vt 0.656250 0.874751
vt 0.687500 0.874751
vt 0.718750 0.874751
vt 0.750000 0.874751
vt 0.781250 0.874751
vt 0.812500 0.874751
vt 0.843750 0.874751
vt 0.875000 0.874751
vt 0.906250 0.874751
vt 0.937500 0.874751
vt 0.968750 0.874751
vt 1.000000 0.874751
vt 0.031250 0.955496
vt 0.000000 0.955496
vt 0.062500 0.955496
vt 0.093750 0.955496
vt 0.125000 0.955496
vt 0.156250 0.955496
vt 0.187500 0.955496
vt 0.218750 0.955496
vt 0.250000 0.955496
vt 0.281250 0.955496
vt 0.312500 0.955496
vt 0.343750 0.955496
vt 0.375000 0.955496
vt 0.406250 0.955496
vt 0.437500 0.955496
vt 0.468750 0.955496
vt 0.500000 0.955496
vt 0.531250 0.955496
vt 0.562500 0.955496
vt 0.593750 0.955496
vt 0.625000 0.955496
vt 0.656250 0.955496
vt 0.687500 0.955496
vt 0.718750 0.955496
vt 0.750000 0.955496
vt 0.781250 0.955496
vt 0.812500 0.955496
vt 0.843750 0.955496
vt 0.875000 0.955496
vt 0.906250 0.955496
vt 0.937500 0.955496
vt 0.968750 0.955496
vt 1.000000 0.955496
vt 0.031250 1.000000
vt 0.000000 1.000000
vt 0.062500 1.000000
vt 0.093750 1.000000
vt 0.125000 1.000000
vt 0.156250 1.000000
vt 0.187500 1.000000
vt 0.218750 1.000000
vt 0.250000 1.000000
vt 0.281250 1.000000
vt 0.312500 1.000000
vt 0.343750 1.000000
vt 0.375000 1.000000
vt 0.406250 1.000000
vt 0.437500 1.000000
vt 0.468750 1.000000
vt 0.500000 1.000000
vt 0.531250 1.000000
vt 0.562500 1.000000
vt 0.593750 1.000000
vt 0.625000 1.000000
vt 0.656250 1.000000
vt 0.687500 1.000000
vt 0.718750 1.000000
vt 0.750000 1.000000
vt 0.781250 1.000000
vt 0.812500 1.000000
vt 0.843750 1.000000
vt 0.875000 1.000000
vt 0.906250 1.000000
vt 0.937500 1.000000
vt 0.968750 1.000000
vt 1.000000 1.000000
vt 0.031250 0.019345
vt 0.000000 0.019345
vt 0.062500 0.019345
vt 0.093750 0.019345
vt 0.125000 0.019345
vt 0.156250 0.019345
vt 0.187500 0.019345
vt 0.218750 0.019345
vt 0.250000 0.019345
vt 0.281250 0.019345
vt 0.312500 0.019345
vt 0.343750 0.019345
vt 0.375000 0.019345
vt 0.406250 0.019345
vt 0.437500 0.019345
vt 0.468750 0.019345
vt 0.500000 0.019345
vt 0.531250 0.019345
vt 0.562500 0.019345
vt 0.593750 0.019345
vt 0.625000 0.019345
vt 0.656250 0.019345
vt 0.687500 0.019345
vt 0.718750 0.019345
vt 0.750000 0.019345
vt 0.781250 0.019345
vt 0.812500 0.019345
vt 0.843750 0.019345
vt 0.875000 0.019345
vt 0.906250 0.019345
vt 0.937500 0.019345
vt 0.968750 0.019345
vt 1.000000 0.019345
vt 0.031250 0.125083
vt 0.000000 0.125083
vt 0.062500 0.125083
vt 0.093750 0.125083
vt 0.125000 0.125083
vt 0.156250 0.125083
vt 0.187500 0.125083
vt 0.218750 0.125083
vt 0.250000 0.125083
vt 0.281250 0.125083
vt 0.312500 0.125083
vt 0.343750 0.125083
vt 0.375000 0.125083
vt 0.406250 0.125083
vt 0.437500 0.125083
vt 0.468750 0.125083
vt 0.500000 0.125083
vt 0.531250 0.125083
vt 0.562500 0.125083
vt 0.593750 0.125083
vt 0.625000 0.125083
vt 0.656250 0.125083
vt 0.687500 0.125083
vt 0.718750 0.125083
vt 0.750000 0.125083
vt 0.781250 0.125083
vt 0.812500 0.125083
vt 0.843750 0.125083
vt 0.875000 0.125083
vt 0.906250 0.125083
vt 0.937500 0.125083
vt 0.968750 0.125083
vt 1.000000 0.125083
vt 0.031250 0.250055
vt 0.000000 0.250055
vt 0.062500 0.250055
vt 0.093750 0.250055
vt 0.125000 0.250055
vt 0.156250 0.250055
vt 0.187500 0.250055
vt 0.218750 0.250055
vt 0.250000 0.250055
vt 0.281250 0.250055
vt 0.312500 0.250055
vt 0.343750 0.250055
vt 0.375000 0.250055
vt 0.406250 0.250055
vt 0.437500 0.250055
vt 0.468750 0.250055
vt 0.500000 0.250055
vt 0.531250 0.250055
vt 0.562500 0.250055
vt 0.593750 0.250055
vt 0.625000 0.250055
vt 0.656250 0.250055
vt 0.687500 0.250055
vt 0.718750 0.250055
vt 0.750000 0.250055
vt 0.781250 0.250055
vt 0.812500 0.250055
vt 0.843750 0.250055
vt 0.875000 0.250055
vt 0.906250 0.250055
vt 0.937500 0.250055
vt 0.968750 0.250055
vt 1.000000 0.250055
vt 0.031250 0.375028
vt 0.000000 0.375028
vt 0.062500 0.375028
vt 0.093750 0.375028
vt 0.125000 0.375028
vt 0.156250 0.375028
vt 0.187500 0.375028
vt 0.218750 0.375028
vt 0.250000 0.375028
vt 0.281250 0.375028
vt 0.312500 0.375028
vt 0.343750 0.375028
vt 0.375000 0.375028
vt 0.406250 0.375028
vt 0.437500 0.375028
vt 0.468750 0.375028
vt 0.500000 0.375028
vt 0.531250 0.375028
vt 0.562500 0.375028
vt 0.593750 0.375028
vt 0.625000 0.375028
vt 0.656250 0.375028
vt 0.687500 0.375028
vt 0.718750 0.375028
vt 0.750000 0.375028
vt 0.781250 0.375028
vt 0.812500 0.375028
vt 0.843750 0.375028
vt 0.875000 0.375028
vt 0.906250 0.375028
vt 0.937500 0.375028
vt 0.968750 0.375028
vt 1.000000 0.375028
vt 0.031250 0.624972
vt 0.000000 0.624972
vt 0.062500 0.624972
vt 0.093750 0.624972
vt 0.125000 0.624972
vt 0.156250 0.624972
vt 0.187500 0.624972
vt 0.218750 0.624972
vt 0.250000 0.624972
vt 0.281250 0.624972
vt 0.312500 0.624972
vt 0.343750 0.624972
vt 0.375000 0.624972
vt 0.406250 0.624972
vt 0.437500 0.624972
vt 0.468750 0.624972
vt 0.500000 0.624972
vt 0.531250 0.624972
vt 0.562500 0.624972
vt 0.593750 0.624972
vt 0.625000 0.624972
vt 0.656250 0.624972
vt 0.687500 0.624972
vt 0.718750 0.624972
vt 0.750000 0.624972
vt 0.781250 0.624972
vt 0.812500 0.624972
vt 0.843750 0.624972
vt 0.875000 0.624972
vt 0.906250 0.624972
vt 0.937500 0.624972
vt 0.968750 0.624972
vt 1.000000 0.624972
vt 0.031250 0.749945
vt 0.000000 0.749945
vt 0.062500 0.749945
vt 0.093750 0.749945
vt 0.125000 0.749945
vt 0.156250 0.749945
vt 0.187500 0.749945
vt 0.218750 0.749945
vt 0.250000 0.749945
vt 0.281250 0.749945
vt 0.312500 0.749945
vt 0.343750 0.749945
vt 0.375000 0.749945
vt 0.406250 0.749945
vt 0.437500 0.749945
vt 0.468750 0.749945
vt 0.500000 0.749945
vt 0.531250 0.749945
vt 0.562500 0.749945
vt 0.593750 0.749945
vt 0.625000 0.749945
vt 0.656250 0.749945
vt 0.687500 0.749945
vt 0.718750 0.749945
vt 0.750000 0.749945
vt 0.781250 0.749945
vt 0.812500 0.749945
vt 0.843750 0.749945
vt 0.875000 0.749945
vt 0.906250 0.749945
vt 0.937500 0.749945
vt 0.968750 0.749945
vt 1.000000 0.749945
vt 0.031250 0.874917
vt 0.000000 0.874917
vt 0.062500 0.874917
vt 0.093750 0.874917
vt 0.125000 0.874917
vt 0.156250 0.874917
vt 0.187500 0.874917
vt 0.218750 0.874917
vt 0.250000 0.874917
vt 0.281250 0.874917
vt 0.312500 0.874917
vt 0.343750 0.874917
vt 0.375000 0.874917
vt 0.406250 0.874917
vt 0.437500 0.874917
vt 0.468750 0.874917
vt 0.500000 0.874917
vt 0.531250 0.874917
vt 0.562500 0.874917
vt 0.593750 0.874917
vt 0.625000 0.874917
vt 0.656250 0.874917
vt 0.687500 0.874917
vt 0.718750 0.874917
vt 0.750000 0.874917
vt 0.781250 0.874917
vt 0.812500 0.874917
vt 0.843750 0.874917
vt 0.875000 0.874917
vt 0.906250 0.874917
vt 0.937500 0.874917
vt 0.968750 0.874917
vt 1.000000 0.874917
vt 0.031250 0.980655
vt 0.000000 0.980655
vt 0.062500 0.980655
vt 0.093750 0.980655
vt 0.125000 0.980655
vt 0.156250 0.980655
vt 0.187500 0.980655
vt 0.218750 0.980655
vt 0.250000 0.980655
vt 0.281250 0.980655
vt 0.312500 0.980655
vt 0.343750 0.980655
vt 0.375000 0.980655
vt 0.406250 0.980655
vt 0.437500 0.980655
vt 0.468750 0.980655
vt 0.500000 0.980655
vt 0.531250 0.980655
vt 0.562500 0.980655
vt 0.593750 0.980655
vt 0.625000 0.980655
vt 0.656250 0.980655
vt 0.687500 0.980655
vt 0.718750 0.980655
vt 0.750000 0.980655
vt 0.781250 0.980655
vt 0.812500 0.980655
vt 0.843750 0.980655
vt 0.875000 0.980655
vt 0.906250 0.980655
vt 0.937500 0.980655
vt 0.968750 0.980655
vt 1.000000 0.980655
o cable
usemtl core
f 1/1/1 2/2/1 3/3/1 4/4/1
f 2/2/2 5/5/2 6/6/2 3/3/2
f 5/5/3 7/7/3 8/8/3 6/6/3
f 7/7/4 9/9/4 10/10/4 8/8/4
f 9/9/5 11/11/5 12/12/5 10/10/5
f 11/11/6 13/13/6 14/14/6 12/12/6
f 13/13/7 15/15/7 16/16/7 14/14/7
f 15/15/8 17/17/8 18/18/8 16/16/8
f 17/17/9 19/19/9 20/20/9 18/18/9
f 19/19/10 21/21/10 22/22/10 20/20/10
f 21/21/11 23/23/11 24/24/11 22/22/11
f 23/23/12 25/25/12 26/26/12 24/24/12
f 25/25/13 27/27/13 28/28/13 26/26/13
f 27/27/14 29/29/14 30/30/14 28/28/14
f 29/29/15 31/31/15 32/32/15 30/30/15
f 31/31/16 33/33/16 34/34/16 32/32/16
f 33/33/17 35/35/17 36/36/17 34/34/17
f 35/35/18 37/37/18 38/38/18 36/36/18
f 37/37/19 39/39/19 40/40/19 38/38/19
f 39/39/20 41/41/20 42/42/20 40/40/20
f 41/41/21 43/43/21 44/44/21 42/42/21
f 43/43/22 45/45/22 46/46/22 44/44/22
f 45/45/23 47/47/23 48/48/23 46/46/23
f 47/47/24 49/49/24 50/50/24 48/48/24
f 49/49/25 51/51/25 52/52/25 50/50/25
f 51/51/26 53/53/26 54/54/26 52/52/26
f 53/53/27 55/55/27 56/56/27 54/54/27
f 55/55/28 57/57/28 58/58/28 56/56/28
f 57/57/29 59/59/29 60/60/29 58/58/29
f 59/59/30 61/61/30 62/62/30 60/60/30
f 61/61/31 63/63/31 64/64/31 62/62/31
f 63/63/32 1/65/32 4/66/32 64/64/32
f 4/4/33 3/3/33 65/67/33 66/68/33
f 3/3/34 6/6/34 67/69/34 65/67/34
f 6/6/35 8/8/35 68/70/35 67/69/35
f 8/8/36 10/10/36 69/71/36 68/70/36
f 10/10/37 12/12/37 70/72/37 69/71/37
f 12/12/38 14/14/38 71/73/38 70/72/38
f 14/14/39 16/16/39 72/74/39 71/73/39
f 16/16/40 18/18/40 73/75/40 72/74/40
f 18/18/41 20/20/41 74/76/41 73/75/41
f 20/20/42 22/22/42 75/77/42 74/76/42
f 22/22/43 24/24/43 76/78/43 75/77/43
f 24/24/44 26/26/44 77/79/44 76/78/44
f 26/26/45 28/28/45 78/80/45 77/79/45
f 28/28/46 30/30/46 79/81/46 78/80/46
f 30/30/47 32/32/47 80/82/47 79/81/47
f 32/32/48 34/34/48 81/83/48 80/82/48
f 34/34/49 36/36/49 82/84/49 81/83/49
f 36/36/50 38/38/50 83/85/50 82/84/50
f 38/38/51 40/40/51 84/86/51 83/85/51
f 40/40/52 42/42/52 85/87/52 84/86/52
f 42/42/53 44/44/53 86/88/53 85/87/53
f 44/44/54 46/46/54 87/89/54 86/88/54
f 46/46/55 48/48/55 88/90/55 87/89/55
f 48/48/56 50/50/56 89/91/56 88/90/56
f 50/50/57 52/52/57 90/92/57 89/91/57
f 52/52/58 54/54/58 91/93/58 90/92/58
f 54/54/59 56/56/59 92/94/59 91/93/59
f 56/56/60 58/58/60 93/95/60 92/94/60
f 58/58/61 60/60/61 94/96/61 93/95/61
f 60/60/62 62/62/62 95/97/62 94/96/62
f 62/62/63 64/64/63 96/98/63 95/97/63
f 64/64/64 4/66/64 66/99/64 96/98/64
f 66/68/65 65/67/65 97/100/65 98/101/65
f 65/67/66 67/69/66 99/102/66 97/100/66
f 67/69/67 68/70/67 100/103/67 99/102/67
f 68/70/68 69/71/68 101/104/68 100/103/68
f 69/71/69 70/72/69 102/105/69 101/104/69
f 70/72/70 71/73/70 103/106/70 102/105/70
f 71/73/71 72/74/71 104/107/71 103/106/71
f 72/74/72 73/75/72 105/108/72 104/107/72
f 73/75/73 74/76/73 106/109/73 105/108/73
f 74/76/74 75/77/74 107/110/74 106/109/74
f 75/77/75 76/78/75 108/111/75 107/110/75
f 76/78/76 77/79/76 109/112/76 108/111/76
f 77/79/77 78/80/77 110/113/77 109/112/77
f 78/80/78 79/81/78 111/114/78 110/113/78
f 79/81/79 80/82/79 112/115/79 111/114/79
f 80/82/80 81/83/80 113/116/80 112/115/80
f 81/83/81 82/84/81 114/117/81 113/116/81
f 82/84/82 83/85/82 115/118/82 114/117/82
f 83/85/83 84/86/83 116/119/83 115/118/83
f 84/86/84 85/87/84 117/120/84 116/119/84
f 85/87/85 86/88/85 118/121/85 117/120/85
f 86/88/86 87/89/86 119/122/86 118/121/86
f 87/89/87 88/90/87 120/123/87 119/122/87
f 88/90/88 89/91/88 121/124/88 120/123/88
f 89/91/89 90/92/89 122/125/89 121/124/89
f 90/92/90 91/93/90 123/126/90 122/125/90
f 91/93/91 92/94/91 124/127/91 123/126/91
f 92/94/92 93/95/92 125/128/92 124/127/92
f 93/95/93 94/96/93 126/129/93 125/128/93
f 94/96/94 95/97/94 127/130/94 126/129/94
f 95/97/95 96/98/95 128/131/95 127/130/95
f 96/98/96 66/99/96 98/132/96 128/131/96
f 98/101/97 97/100/97 129/133/97 130/134/97
f 97/100/98 99/102/98 131/135/98 129/133/98
f 99/102/99 100/103/99 132/136/99 131/135/99
f 100/103/100 101/104/100 133/137/100 132/136/100
f 101/104/101 102/105/101 134/138/101 133/137/101
f 102/105/102 103/106/102 135/139/102 134/138/102
f 103/106/103 104/107/103 136/140/103 135/139/103
f 104/107/104 105/108/104 137/141/104 136/140/104
f 105/108/105 106/109/105 138/142/105 137/141/105
f 106/109/106 107/110/106 139/143/106 138/142/106
f 107/110/107 108/111/107 140/144/107 139/143/107
f 108/111/108 109/112/108 141/145/108 140/144/108
f 109/112/109 110/113/109 142/146/109 141/145/109
f 110/113/110 111/114/110 143/147/110 142/146/110
f 111/114/111 112/115/111 144/148/111 143/147/111
f 112/115/112 113/116/112 145/149/112 144/148/112
f 113/116/113 114/117/113 146/150/113 145/149/113
f 114/117/114 115/118/114 147/151/114 146/150/114
f 115/118/115 116/119/115 148/152/115 147/151/115
f 116/119/116 117/120/116 149/153/116 148/152/116
f 117/120/117 118/121/117 150/154/117 149/153/117
f 118/121/118 119/122/118 151/155/118 150/154/118
f 119/122/119 120/123/119 152/156/119 151/155/119
f 120/123/120 121/124/120 153/157/120 152/156/120
f 121/124/121 122/125/121 154/158/121 153/157/121
f 122/125/122 123/126/122 155/159/122 154/158/122
f 123/126/123 124/127/123 156/160/123 155/159/123
f 124/127/124 125/128/124 157/161/124 156/160/124
f 125/128/125 126/129/125 158/162/125 157/161/125
f 126/129/126 127/130/126 159/163/126 158/162/126
f 127/130/127 128/131/127 160/164/127 159/163/127
f 128/131/128 98/132/128 130/165/128 160/164/128
f 130/134/129 129/133/129 161/166/129 162/167/129
f 129/133/130 131/135/130 163/168/130 161/166/130
f 131/135/131 132/136/131 164/169/131 163/168/131
f 132/136/132 133/137/132 165/170/132 164/169/132
f 133/137/133 134/138/133 166/171/133 165/170/133
f 134/138/134 135/139/134 167/172/134 166/171/134
f 135/139/135 136/140/135 168/173/135 167/172/135
f 136/140/136 137/141/136 169/174/136 168/173/136
f 137/141/137 138/142/137 170/175/137 169/174/137
f 138/142/138 139/143/138 171/176/138 170/175/138
f 139/143/139 140/144/139 172/177/139 171/176/139
f 140/144/140 141/145/140 173/178/140 172/177/140
f 141/145/141 142/146/141 174/179/141 173/178/141
f 142/146/142 143/147/142 175/180/142 174/179/142
f 143/147/143 144/148/143 176/181/143 175/180/143
f 144/148/144 145/149/144 177/182/144 176/181/144
f 145/149/145 146/150/145 178/183/145 177/182/145
f 146/150/146 147/151/146 179/184/146 178/183/146
f 147/151/147 148/152/147 180/185/147 179/184/147
f 148/152/148 149/153/148 181/186/148 180/185/148
f 149/153/149 150/154/149 182/187/149 181/186/149
f 150/154/150 151/155/150 183/188/150 182/187/150
f 151/155/151 152/156/151 184/189/151 183/188/151
f 152/156/152 153/157/152 185/190/152 184/189/152
f 153/157/153 154/158/153 186/191/153 185/190/153
f 154/158/154 155/159/154 187/192/154 186/191/154
f 155/159/155 156/160/155 188/193/155 187/192/155
f 156/160/156 157/161/156 189/194/156 188/193/156
f 157/161/157 158/162/157 190/195/157 189/194/157
f 158/162/158 159/163/158 191/196/158 190/195/158
f 159/163/159 160/164/159 192/197/159 191/196/159
f 160/164/160 130/165/160 162/198/160 192/197/160
f 162/167/161 161/166/161 193/199/161 194/200/161
f 161/166/162 163/168/162 195/201/162 193/199/162
f 163/168/163 164/169/163 196/202/163 195/201/163
f 164/169/164 165/170/164 197/203/164 196/202/164
f 165/170/165 166/171/165 198/204/165 197/203/165
f 166/171/166 167/172/166 199/205/166 198/204/166
f 167/172/167 168/173/167 200/206/167 199/205/167
f 168/173/168 169/174/168 201/207/168 200/206/168
f 169/174/169 170/175/169 202/208/169 201/207/169
f 170/175/170 171/176/170 203/209/170 202/208/170
f 171/176/171 172/177/171 204/210/171 203/209/171
f 172/177/172 173/178/172 205/211/172 204/210/172
f 173/178/173 174/179/173 206/212/173 205/211/173
f 174/179/174 175/180/174 207/213/174 206/212/174
f 175/180/175 176/181/175 208/214/175 207/213/175
f 176/181/176 177/182/176 209/215/176 208/214/176
f 177/182/177 178/183/177 210/216/177 209/215/177
f 178/183/178 179/184/178 211/217/178 210/216/178
f 179/184/179 180/185/179 212/218/179 211/217/179
f 180/185/180 181/186/180 213/219/180 212/218/180
f 181/186/181 182/187/181 214/220/181 213/219/181
f 182/187/182 183/188/182 215/221/182 214/220/182
f 183/188/183 184/189/183 216/222/183 215/221/183
f 184/189/184 185/190/184 217/223/184 216/222/184
f 185/190/185 186/191/185 218/224/185 217/223/185
f 186/191/186 187/192/186 219/225/186 218/224/186
f 187/192/187 188/193/187 220/226/187 219/225/187
f 188/193/188 189/194/188 221/227/188 220/226/188
f 189/194/189 190/195/189 222/228/189 221/227/189
f 190/195/190 191/196/190 223/229/190 222/228/190
f 191/196/191 192/197/191 224/230/191 223/229/191
f 192/197/192 162/198/192 194/231/192 224/230/192
f 194/200/193 193/199/193 225/232/193 226/233/193
f 193/199/194 195/201/194 227/234/194 225/232/194
f 195/201/195 196/202/195 228/235/195 227/234/195
f 196/202/196 197/203/196 229/236/196 228/235/196
f 197/203/197 198/204/197 230/237/197 229/236/197
f 198/204/198 199/205/198 231/238/198 230/237/198
f 199/205/199 200/206/199 232/239/199 231/238/199
f 200/206/200 201/207/200 233/240/200 232/239/200
f 201/207/201 202/208/201 234/241/201 233/240/201
f 202/208/202 203/209/202 235/242/202 234/241/202
f 203/209/203 204/210/203 236/243/203 235/242/203
f 204/210/204 205/211/204 237/244/204 236/243/204
f 205/211/205 206/212/205 238/245/205 237/244/205
f 206/212/206 207/213/206 239/246/206 238/245/206
f 207/213/207 208/214/207 240/247/207 239/246/207
f 208/214/208 209/215/208 241/248/208 240/247/208
f 209/215/209 210/216/209 242/249/209 241/248/209
f 210/216/210 211/217/210 243/250/210 242/249/210
f 211/217/211 212/218/211 244/251/211 243/250/211
f 212/218/212 213/219/212 245/252/212 244/251/212
f 213/219/213 214/220/213 246/253/213 245/252/213
f 214/220/214 215/221/214 247/254/214 246/253/214
f 215/221/215 216/222/215 248/255/215 247/254/215
f 216/222/216 217/223/216 249/256/216 248/255/216
f 217/223/217 218/224/217 250/257/217 249/256/217
f 218/224/218 219/225/218 251/258/218 250/257/218
f 219/225/219 220/226/219 252/259/219 251/258/219
f 220/226/220 221/227/220 253/260/220 252/259/220
f 221/227/221 222/228/221 254/261/221 253/260/221
f 222/228/222 223/229/222 255/262/222 254/261/222
f 223/229/223 224/230/223 256/263/223 255/262/223
f 224/230/224 194/231/224 226/264/224 256/263/224
f 226/233/225 225/232/225 257/265/225 258/266/225
f 225/232/226 227/234/226 259/267/226 257/265/226
f 227/234/227 228/235/227 260/268/227 259/267/227
f 228/235/228 229/236/228 261/269/228 260/268/228
f 229/236/229 230/237/229 262/270/229 261/269/229
f 230/237/230 231/238/230 263/271/230 262/270/230
f 231/238/231 232/239/231 264/272/231 263/271/231
f 232/239/232 233/240/232 265/273/232 264/272/232
f 233/240/233 234/241/233 266/274/233 265/273/233
f 234/241/234 235/242/234 267/275/234 266/274/234
f 235/242/235 236/243/235 268/276/235 267/275/235
f 236/243/236 237/244/236 269/277/236 268/276/236
f 237/244/237 238/245/237 270/278/237 269/277/237
f 238/245/238 239/246/238 271/279/238 270/278/238
f 239/246/239 240/247/239 272/280/239 271/279/239
f 240/247/240 241/248/240 273/281/240 272/280/240
f 241/248/241 242/249/241 274/282/241 273/281/241
f 242/249/242 243/250/242 275/283/242 274/282/242
f 243/250/243 244/251/243 276/284/243 275/283/243
f 244/251/244 245/252/244 277/285/244 276/284/244
f 245/252/245 246/253/245 278/286/245 277/285/245
f 246/253/246 247/254/246 279/287/246 278/286/246
f 247/254/247 248/255/247 280/288/247 279/287/247
f 248/255/248 249/256/248 281/289/248 280/288/248
f 249/256/249 250/257/249 282/290/249 281/289/249
f 250/257/250 251/258/250 283/291/250 282/290/250
f 251/258/251 252/259/251 284/292/251 283/291/251
f 252/259/252 253/260/252 285/293/252 284/292/252
f 253/260/253 254/261/253 286/294/253 285/293/253
f 254/261/254 255/262/254 287/295/254 286/294/254
f 255/262/255 256/263/255 288/296/255 287/295/255
f 256/263/256 226/264/256 258/297/256 288/296/256
f 258/266/257 257/265/257 289/298/257 290/299/257
f 257/265/258 259/267/258 291/300/258 289/298/258
f 259/267/259 260/268/259 292/301/259 291/300/259
f 260/268/260 261/269/260 293/302/260 292/301/260
f 261/269/261 262/270/261 294/303/261 293/302/261
f 262/270/262 263/271/262 295/304/262 294/303/262
f 263/271/263 264/272/263 296/305/263 295/304/263
f 264/272/264 265/273/264 297/306/264 296/305/264
f 265/273/265 266/274/265 298/307/265 297/306/265
f 266/274/266 267/275/266 299/308/266 298/307/266
f 267/275/267 268/276/267 300/309/267 299/308/267
f 268/276/268 269/277/268 301/310/268 300/309/268
f 269/277/269 270/278/269 302/311/269 301/310/269
f 270/278/270 271/279/270 303/312/270 302/311/270
f 271/279/271 272/280/271 304/313/271 303/312/271
f 272/280/272 273/281/272 305/314/272 304/313/272
f 273/281/273 274/282/273 306/315/273 305/314/273
f 274/282/274 275/283/274 307/316/274 306/315/274
f 275/283/275 276/284/275 308/317/275 307/316/275
f 276/284/276 277/285/276 309/318/276 308/317/276
f 277/285/277 278/286/277 310/319/277 309/318/277
f 278/286/278 279/287/278 311/320/278 310/319/278
f 279/287/279 280/288/279 312/321/279 311/320/279
f 280/288/280 281/289/280 313/322/280 312/321/280
f 281/289/281 282/290/281 314/323/281 313/322/281
f 282/290/282 283/291/282 315/324/282 314/323/282
f 283/291/283 284/292/283 316/325/283 315/324/283
f 284/292/284 285/293/284 317/326/284 316/325/284
f 285/293/285 286/294/285 318/327/285 317/326/285
f 286/294/286 287/295/286 319/328/286 318/327/286
f 287/295/287 288/296/287 320/329/287 319/328/287
f 288/296/288 258/297/288 290/330/288 320/329/288
f 290/299/289 289/298/289 321/331/289 322/332/289
f 289/298/290 291/300/290 323/333/290 321/331/290
f 291/300/291 292/301/291 324/334/291 323/333/291
f 292/301/292 293/302/292 325/335/292 324/334/292
f 293/302/293 294/303/293 326/336/293 325/335/293
f 294/303/294 295/304/294 327/337/294 326/336/294
f 295/304/295 296/305/295 328/338/295 327/337/295
f 296/305/296 297/306/296 329/339/296 328/338/296
f 297/306/297 298/307/297 330/340/297 329/339/297
f 298/307/298 299/308/298 331/341/298 330/340/298
f 299/308/299 300/309/299 332/342/299 331/341/299
f 300/309/300 301/310/300 333/343/300 332/342/300
f 301/310/301 302/311/301 334/344/301 333/343/301
f 302/311/302 303/312/302 335/345/302 334/344/302
f 303/312/303 304/313/303 336/346/303 335/345/303
f 304/313/304 305/314/304 337/347/304 336/346/304
f 305/314/305 306/315/305 338/348/305 337/347/305
f 306/315/306 307/316/306 339/349/306 338/348/306
f 307/316/307 308/317/307 340/350/307 339/349/307
f 308/317/308 309/318/308 341/351/308 340/350/308
f 309/318/309 310/319/309 342/352/309 341/351/309
f 310/319/310 311/320/310 343/353/310 342/352/310
f 311/320/311 312/321/311 344/354/311 343/353/311
f 312/321/312 313/322/312 345/355/312 344/354/312
f 313/322/313 314/323/313 346/356/313 345/355/313
f 314/323/314 315/324/314 347/357/314 346/356/314
f 315/324/315 316/325/315 348/358/315 347/357/315
f 316/325/316 317/326/316 349/359/316 348/358/316
f 317/326/317 318/327/317 350/360/317 349/359/317
f 318/327/318 319/328/318 351/361/318 350/360/318
f 319/328/319 320/329/319 352/362/319 351/361/319
f 320/329/320 290/330/320 322/363/320 352/362/320
f 353/1/1 354/2/1 355/364/1 356/365/1
f 354/2/2 357/5/2 358/366/2 355/364/2
f 357/5/3 359/7/3 360/367/3 358/366/3
f 359/7/4 361/9/4 362/368/4 360/367/4
f 361/9/5 363/11/5 364/369/5 362/368/5
f 363/11/6 365/13/6 366/370/6 364/369/6
f 365/13/7 367/15/7 368/371/7 366/370/7
f 367/15/8 369/17/8 370/372/8 368/371/8
f 369/17/9 371/19/9 372/373/9 370/372/9
f 371/19/10 373/21/10 374/374/10 372/373/10
f 373/21/11 375/23/11 376/375/11 374/374/11
f 375/23/12 377/25/12 378/376/12 376/375/12
f 377/25/13 379/27/13 380/377/13 378/376/13
f 379/27/14 381/29/14 382/378/14 380/377/14
f 381/29/15 383/31/15 384/379/15 382/378/15
f 383/31/16 385/33/16 386/380/16 384/379/16
f 385/33/17 387/35/17 388/381/17 386/380/17
f 387/35/18 389/37/18 390/382/18 388/381/18
f 389/37/19 391/39/19 392/383/19 390/382/19
f 391/39/20 393/41/20 394/384/20 392/383/20
f 393/41/21 395/43/21 396/385/21 394/384/21
f 395/43/22 397/45/22 398/386/22 396/385/22
f 397/45/23 399/47/23 400/387/23 398/386/23
f 399/47/24 401/49/24 402/388/24 400/387/24
f 401/49/25 403/51/25 404/389/25 402/388/25
f 403/51/26 405/53/26 406/390/26 404/389/26
f 405/53/27 407/55/27 408/391/27 406/390/27
f 407/55/28 409/57/28 410/392/28 408/391/28
f 409/57/29 411/59/29 412/393/29 410/392/29
f 411/59/30 413/61/30 414/394/30 412/393/30
f 413/61/31 415/63/31 416/395/31 414/394/31
f 415/63/32 353/65/32 356/396/32 416/395/32
f 356/365/321 355/364/321 417/397/321 418/398/321
f 355/364/322 358/366/322 419/399/322 417/397/322
f 358/366/323 360/367/323 420/400/323 419/399/323
f 360/367/324 362/368/324 421/401/324 420/400/324
f 362/368/325 364/369/325 422/402/325 421/401/325
f 364/369/326 366/370/326 423/403/326 422/402/326
f 366/370/327 368/371/327 424/404/327 423/403/327
f 368/371/328 370/372/328 425/405/328 424/404/328
f 370/372/329 372/373/329 426/406/329 425/405/329
f 372/373/330 374/374/330 427/407/330 426/406/330
f 374/374/331 376/375/331 428/408/331 427/407/331
f 376/375/332 378/376/332 429/409/332 428/408/332
f 378/376/333 380/377/333 430/410/333 429/409/333
f 380/377/334 382/378/334 431/411/334 430/410/334
f 382/378/335 384/379/335 432/412/335 431/411/335
f 384/379/336 386/380/336 433/413/336 432/412/336
f 386/380/337 388/381/337 434/414/337 433/413/337
f 388/381/338 390/382/338 435/415/338 434/414/338
f 390/382/339 392/383/339 436/416/339 435/415/339
f 392/383/340 394/384/340 437/417/340 436/416/340
f 394/384/341 396/385/341 438/418/341 437/417/341
f 396/385/342 398/386/342 439/419/342 438/418/342
f 398/386/343 400/387/343 440/420/343 439/419/343
f 400/387/344 402/388/344 441/421/344 440/420/344
f 402/388/345 404/389/345 442/422/345 441/421/345
f 404/389/346 406/390/346 443/423/346 442/422/346
f 406/390/347 408/391/347 444/424/347 443/423/347
f 408/391/348 410/392/348 445/425/348 444/424/348
f 410/392/349 412/393/349 446/426/349 445/425/349
f 412/393/350 414/394/350 447/427/350 446/426/350
f 414/394/351 416/395/351 448/428/351 447/427/351
f 416/395/352 356/396/352 418/429/352 448/428/352
f 418/398/353 417/397/353 449/430/353 450/431/353
f 417/397/354 419/399/354 451/432/354 449/430/354
f 419/399/355 420/400/355 452/433/355 451/432/355
f 420/400/356 421/401/356 453/434/356 452/433/356
f 421/401/357 422/402/357 454/435/357 453/434/357
f 422/402/358 423/403/358 455/436/358 454/435/358
f 423/403/359 424/404/359 456/437/359 455/436/359
f 424/404/360 425/405/360 457/438/360 456/437/360
f 425/405/361 426/406/361 458/439/361 457/438/361
f 426/406/362 427/407/362 459/440/362 458/439/362
f 427/407/363 428/408/363 460/441/363 459/440/363
f 428/408/364 429/409/364 461/442/364 460/441/364
f 429/409/365 430/410/365 462/443/365 461/442/365
f 430/410/366 431/411/366 463/444/366 462/443/366
f 431/411/367 432/412/367 464/445/367 463/444/367
f 432/412/368 433/413/368 465/446/368 464/445/368
f 433/413/369 434/414/369 466/447/369 465/446/369
f 434/414/370 435/415/370 467/448/370 466/447/370
f 435/415/371 436/416/371 468/449/371 467/448/371
f 436/416/372 437/417/372 469/450/372 468/449/372
f 437/417/373 438/418/373 470/451/373 469/450/373
f 438/418/374 439/419/374 471/452/374 470/451/374
f 439/419/375 440/420/375 472/453/375 471/452/375
f 440/420/376 441/421/376 473/454/376 472/453/376
f 441/421/377 442/422/377 474/455/377 473/454/377
f 442/422/378 443/423/378 475/456/378 474/455/378
f 443/423/379 444/424/379 476/457/379 475/456/379
f 444/424/380 445/425/380 477/458/380 476/457/380
f 445/425/381 446/426/381 478/459/381 477/458/381
f 446/426/382 447/427/382 479/460/382 478/459/382
f 447/427/383 448/428/383 480/461/383 479/460/383
f 448/428/384 418/429/384 450/462/384 480/461/384
f 450/431/97 449/430/97 481/463/97 482/464/97
f 449/430/98 451/432/98 483/465/98 481/463/98
f 451/432/99 452/433/99 484/466/99 483/465/99
f 452/433/100 453/434/100 485/467/100 484/466/100
f 453/434/101 454/435/101 486/468/101 485/467/101
f 454/435/102 455/436/102 487/469/102 486/468/102
f 455/436/103 456/437/103 488/470/103 487/469/103
f 456/437/104 457/438/104 489/471/104 488/470/104
f 457/438/105 458/439/105 490/472/105 489/471/105
f 458/439/106 459/440/106 491/473/106 490/472/106
f 459/440/107 460/441/107 492/474/107 491/473/107
f 460/441/108 461/442/108 493/475/108 492/474/108
f 461/442/109 462/443/109 494/476/109 493/475/109
f 462/443/110 463/444/110 495/477/110 494/476/110
f 463/444/111 464/445/111 496/478/111 495/477/111
f 464/445/112 465/446/112 497/479/112 496/478/112
f 465/446/113 466/447/113 498/480/113 497/479/113
f 466/447/114 467/448/114 499/481/114 498/480/114
f 467/448/115 468/449/115 500/482/115 499/481/115
f 468/449/116 469/450/116 501/483/116 500/482/116
f 469/450/117 470/451/117 502/484/117 501/483/117
f 470/451/118 471/452/118 503/485/118 502/484/118
f 471/452/119 472/453/119 504/486/119 503/485/119
f 472/453/120 473/454/120 505/487/120 504/486/120
f 473/454/121 474/455/121 506/488/121 505/487/121
f 474/455/122 475/456/122 507/489/122 506/488/122
f 475/456/123 476/457/123 508/490/123 507/489/123
f 476/457/124 477/458/124 509/491/124 508/490/124
f 477/458/125 478/459/125 510/492/125 509/491/125
f 478/459/126 479/460/126 511/493/126 510/492/126
f 479/460/127 480/461/127 512/494/127 511/493/127
f 480/461/128 450/462/128 482/495/128 512/494/128
f 482/464/129 481/463/129 513/166/129 514/167/129
f 481/463/130 483/465/130 515/168/130 513/166/130
f 483/465/131 484/466/131 516/169/131 515/168/131
f 484/466/132 485/467/132 517/170/132 516/169/132
f 485/467/133 486/468/133 518/171/133 517/170/133
f 486/468/134 487/469/134 519/172/134 518/171/134
f 487/469/135 488/470/135 520/173/135 519/172/135
f 488/470/136 489/471/136 521/174/136 520/173/136
f 489/471/137 490/472/137 522/175/137 521/174/137
f 490/472/138 491/473/138 523/176/138 522/175/138
f 491/473/139 492/474/139 524/177/139 523/176/139
f 492/474/140 493/475/140 525/178/140 524/177/140
f 493/475/141 494/476/141 526/179/141 525/178/141
f 494/476/142 495/477/142 527/180/142 526/179/142
f 495/477/143 496/478/143 528/181/143 527/180/143
f 496/478/144 497/479/144 529/182/144 528/181/144
f 497/479/145 498/480/145 530/183/145 529/182/145
f 498/480/146 499/481/146 531/184/146 530/183/146
f 499/481/147 500/482/147 532/185/147 531/184/147
f 500/482/148 501/483/148 533/186/148 532/185/148
f 501/483/149 502/484/149 534/187/149 533/186/149
f 502/484/150 503/485/150 535/188/150 534/187/150
f 503/485/151 504/486/151 536/189/151 535/188/151
f 504/486/152 505/487/152 537/190/152 536/189/152
f 505/487/153 506/488/153 538/191/153 537/190/153
f 506/488/154 507/489/154 539/192/154 538/191/154
f 507/489/155 508/490/155 540/193/155 539/192/155
f 508/490/156 509/491/156 541/194/156 540/193/156
f 509/491/157 510/492/157 542/195/157 541/194/157
f 510/492/158 511/493/158 543/196/158 542/195/158
f 511/493/159 512/494/159 544/197/159 543/196/159
f 512/494/160 482/495/160 514/198/160 544/197/160
f 514/167/161 513/166/161 545/496/161 546/497/161
f 513/166/162 515/168/162 547/498/162 545/496/162
f 515/168/163 516/169/163 548/499/163 547/498/163
f 516/169/164 517/170/164 549/500/164 548/499/164
f 517/170/165 518/171/165 550/501/165 549/500/165
f 518/171/166 519/172/166 551/502/166 550/501/166
f 519/172/167 520/173/167 552/503/167 551/502/167
f 520/173/168 521/174/168 553/504/168 552/503/168
f 521/174/169 522/175/169 554/505/169 553/504/169
f 522/175/170 523/176/170 555/506/170 554/505/170
f 523/176/171 524/177/171 556/507/171 555/506/171
f 524/177/172 525/178/172 557/508/172 556/507/172
f 525/178/173 526/179/173 558/509/173 557/508/173
f 526/179/174 527/180/174 559/510/174 558/509/174
f 527/180/175 528/181/175 560/511/175 559/510/175
f 528/181/176 529/182/176 561/512/176 560/511/176
f 529/182/177 530/183/177 562/513/177 561/512/177
f 530/183/178 531/184/178 563/514/178 562/513/178
f 531/184/179 532/185/179 564/515/179 563/514/179
f 532/185/180 533/186/180 565/516/180 564/515/180
f 533/186/181 534/187/181 566/517/181 565/516/181
f 534/187/182 535/188/182 567/518/182 566/517/182
f 535/188/183 536/189/183 568/519/183 567/518/183
f 536/189/184 537/190/184 569/520/184 568/519/184
f 537/190/185 538/191/185 570/521/185 569/520/185
f 538/191/186 539/192/186 571/522/186 570/521/186
f 539/192/187 540/193/187 572/523/187 571/522/187
f 540/193/188 541/194/188 573/524/188 572/523/188
f 541/194/189 542/195/189 574/525/189 573/524/189
f 542/195/190 543/196/190 575/526/190 574/525/190
f 543/196/191 544/197/191 576/527/191 575/526/191
f 544/197/192 514/198/192 546/528/192 576/527/192
f 546/497/193 545/496/193 577/529/193 578/530/193
f 545/496/194 547/498/194 579/531/194 577/529/194
f 547/498/195 548/499/195 580/532/195 579/531/195
f 548/499/196 549/500/196 581/533/196 580/532/196
f 549/500/197 550/501/197 582/534/197 581/533/197
f 550/501/198 551/502/198 583/535/198 582/534/198
f 551/502/199 552/503/199 584/536/199 583/535/199
f 552/503/200 553/504/200 585/537/200 584/536/200
f 553/504/201 554/505/201 586/538/201 585/537/201
f 554/505/202 555/506/202 587/539/202 586/538/202
f 555/506/203 556/507/203 588/540/203 587/539/203
f 556/507/204 557/508/204 589/541/204 588/540/204
f 557/508/205 558/509/205 590/542/205 589/541/205
f 558/509/206 559/510/206 591/543/206 590/542/206
f 559/510/207 560/511/207 592/544/207 591/543/207
f 560/511/208 561/512/208 593/545/208 592/544/208
f 561/512/209 562/513/209 594/546/209 593/545/209
f 562/513/210 563/514/210 595/547/210 594/546/210
f 563/514/211 564/515/211 596/548/211 595/547/211
f 564/515/212 565/516/212 597/549/212 596/548/212
f 565/516/213 566/517/213 598/550/213 597/549/213
f 566/517/214 567/518/214 599/551/214 598/550/214
f 567/518/215 568/519/215 600/552/215 599/551/215
f 568/519/216 569/520/216 601/553/216 600/552/216
f 569/520/217 570/521/217 602/554/217 601/553/217
f 570/521/218 571/522/218 603/555/218 602/554/218
f 571/522/219 572/523/219 604/556/219 603/555/219
f 572/523/220 573/524/220 605/557/220 604/556/220
f 573/524/221 574/525/221 606/558/221 605/557/221
f 574/525/222 575/526/222 607/559/222 606/558/222
f 575/526/223 576/527/223 608/560/223 607/559/223
f 576/527/224 546/528/224 578/561/224 608/560/224
f 578/530/225 577/529/225 609/562/225 610/563/225
f 577/529/226 579/531/226 611/564/226 609/562/226
f 579/531/227 580/532/227 612/565/227 611/564/227
f 580/532/228 581/533/228 613/566/228 612/565/228
f 581/533/229 582/534/229 614/567/229 613/566/229
f 582/534/230 583/535/230 615/568/230 614/567/230
f 583/535/231 584/536/231 616/569/231 615/568/231
f 584/536/232 585/537/232 617/570/232 616/569/232
f 585/537/233 586/538/233 618/571/233 617/570/233
f 586/538/234 587/539/234 619/572/234 618/571/234
f 587/539/235 588/540/235 620/573/235 619/572/235
f 588/540/236 589/541/236 621/574/236 620/573/236
f 589/541/237 590/542/237 622/575/237 621/574/237
f 590/542/238 591/543/238 623/576/238 622/575/238
f 591/543/239 592/544/239 624/577/239 623/576/239
f 592/544/240 593/545/240 625/578/240 624/577/240
f 593/545/241 594/546/241 626/579/241 625/578/241
f 594/546/242 595/547/242 627/580/242 626/579/242
f 595/547/243 596/548/243 628/581/243 627/580/243
f 596/548/244 597/549/244 629/582/244 628/581/244
f 597/549/245 598/550/245 630/583/245 629/582/245
f 598/550/246 599/551/246 631/584/246 630/583/246
f 599/551/247 600/552/247 632/585/247 631/584/247
f 600/552/248 601/553/248 633/586/248 632/585/248
f 601/553/249 602/554/249 634/587/249 633/586/249
f 602/554/250 603/555/250 635/588/250 634/587/250
f 603/555/251 604/556/251 636/589/251 635/588/251
f 604/556/252 605/557/252 637/590/252 636/589/252
f 605/557/253 606/558/253 638/591/253 637/590/253
f 606/558/254 607/559/254 639/592/254 638/591/254
f 607/559/255 608/560/255 640/593/255 639/592/255
f 608/560/256 578/561/256 610/594/256 640/593/256
f 610/563/385 609/562/385 641/595/385 642/596/385
f 609/562/386 611/564/386 643/597/386 641/595/386
f 611/564/387 612/565/387 644/598/387 643/597/387
f 612/565/388 613/566/388 645/599/388 644/598/388
f 613/566/389 614/567/389 646/600/389 645/599/389
f 614/567/390 615/568/390 647/601/390 646/600/390
f 615/568/391 616/569/391 648/602/391 647/601/391
f 616/569/392 617/570/392 649/603/392 648/602/392
f 617/570/393 618/571/393 650/604/393 649/603/393
f 618/571/394 619/572/394 651/605/394 650/604/394
f 619/572/395 620/573/395 652/606/395 651/605/395
f 620/573/396 621/574/396 653/607/396 652/606/396
f 621/574/397 622/575/397 654/608/397 653/607/397
f 622/575/398 623/576/398 655/609/398 654/608/398
f 623/576/399 624/577/399 656/610/399 655/609/399
f 624/577/400 625/578/400 657/611/400 656/610/400
f 625/578/401 626/579/401 658/612/401 657/611/401
f 626/579/402 627/580/402 659/613/402 658/612/402
f 627/580/403 628/581/403 660/614/403 659/613/403
f 628/581/404 629/582/404 661/615/404 660/614/404
f 629/582/405 630/583/405 662/616/405 661/615/405
f 630/583/406 631/584/406 663/617/406 662/616/406
f 631/584/407 632/585/407 664/618/407 663/617/407
f 632/585/408 633/586/408 665/619/408 664/618/408
f 633/586/409 634/587/409 666/620/409 665/619/409
f 634/587/410 635/588/410 667/621/410 666/620/410
f 635/588/411 636/589/411 668/622/411 667/621/411
f 636/589/412 637/590/412 669/623/412 668/622/412
f 637/590/413 638/591/413 670/624/413 669/623/413
f 638/591/414 639/592/414 671/625/414 670/624/414
f 639/592/415 640/593/415 672/626/415 671/625/415
f 640/593/416 610/594/416 642/627/416 672/626/416
f 642/596/417 641/595/417 673/331/417 674/332/417
f 641/595/418 643/597/418 675/333/418 673/331/418
f 643/597/419 644/598/419 676/334/419 675/333/419
f 644/598/420 645/599/420 677/335/420 676/334/420
f 645/599/421 646/600/421 678/336/421 677/335/421
f 646/600/422 647/601/422 679/337/422 678/336/422
f 647/601/423 648/602/423 680/338/423 679/337/423
f 648/602/424 649/603/424 681/339/424 680/338/424
f 649/603/425 650/604/425 682/340/425 681/339/425
f 650/604/426 651/605/426 683/341/426 682/340/426
f 651/605/427 652/606/427 684/342/427 683/341/427
f 652/606/428 653/607/428 685/343/428 684/342/428
f 653/607/429 654/608/429 686/344/429 685/343/429
f 654/608/430 655/609/430 687/345/430 686/344/430
f 655/609/431 656/610/431 688/346/431 687/345/431
f 656/610/432 657/611/432 689/347/432 688/346/432
f 657/611/433 658/612/433 690/348/433 689/347/433
f 658/612/434 659/613/434 691/349/434 690/348/434
f 659/613/435 660/614/435 692/350/435 691/349/435
f 660/614/436 661/615/436 693/351/436 692/350/436
f 661/615/437 662/616/437 694/352/437 693/351/437
f 662/616/438 663/617/438 695/353/438 694/352/438
f 663/617/439 664/618/439 696/354/439 695/353/439
f 664/618/440 665/619/440 697/355/440 696/354/440
f 665/619/441 666/620/441 698/356/441 697/355/441
f 666/620/442 667/621/442 699/357/442 698/356/442
f 667/621/443 668/622/443 700/358/443 699/357/443
f 668/622/444 669/623/444 701/359/444 700/358/444
f 669/623/445 670/624/445 702/360/445 701/359/445
f 670/624/446 671/625/446 703/361/446 702/360/446
f 671/625/447 672/626/447 704/362/447 703/361/447
f 672/626/448 642/627/448 674/363/448 704/362/448
