# generated by tools/gen_trunk_models.py - do not edit by hand
mtllib dc_trunk_cable_cross.mtl
v 0.175000 0.000000 0.175000
v 0.825000 0.000000 0.175000
v 0.825000 0.000000 0.825000
v 0.175000 0.000000 0.825000
v 0.175000 0.353750 0.825000
v 0.825000 0.353750 0.825000
v 0.825000 0.353750 0.175000
v 0.175000 0.353750 0.175000
v 0.153750 0.353750 0.153750
v 0.846250 0.353750 0.153750
v 0.846250 0.353750 0.846250
v 0.153750 0.353750 0.846250
v 0.153750 0.375000 0.846250
v 0.846250 0.375000 0.846250
v 0.846250 0.375000 0.153750
v 0.153750 0.375000 0.153750
v 0.432813 0.193047 0.146875
v 0.310938 0.193047 0.146875
v 0.310938 0.193047 0.175000
v 0.432813 0.193047 0.175000
v 0.250000 0.087500 0.146875
v 0.250000 0.087500 0.175000
v 0.310937 -0.018047 0.146875
v 0.310937 -0.018047 0.175000
v 0.432812 -0.018047 0.146875
v 0.432812 -0.018047 0.175000
v 0.493750 0.087500 0.146875
v 0.493750 0.087500 0.175000
v 0.371875 0.180000 0.081250
v 0.336477 0.172959 0.081250
v 0.327627 0.194324 0.146875
v 0.371875 0.203125 0.146875
v 0.306468 0.152907 0.081250
v 0.290116 0.169259 0.146875
v 0.286416 0.122898 0.081250
v 0.265051 0.131748 0.146875
v 0.279375 0.087500 0.081250
v 0.256250 0.087500 0.146875
v 0.286416 0.052102 0.081250
v 0.265051 0.043252 0.146875
v 0.306468 0.022093 0.081250
v 0.290116 0.005741 0.146875
v 0.336477 0.002041 0.081250
v 0.327627 -0.019324 0.146875
v 0.371875 -0.005000 0.081250
v 0.371875 -0.028125 0.146875
v 0.407273 0.002041 0.081250
v 0.416123 -0.019324 0.146875
v 0.437282 0.022093 0.081250
v 0.453634 0.005741 0.146875
v 0.457334 0.052102 0.081250
v 0.478699 0.043252 0.146875
v 0.464375 0.087500 0.081250
v 0.487500 0.087500 0.146875
v 0.457334 0.122898 0.081250
v 0.478699 0.131748 0.146875
v 0.437282 0.152907 0.081250
v 0.453634 0.169259 0.146875
v 0.407273 0.172959 0.081250
v 0.416123 0.194324 0.146875
v 0.689063 0.193047 0.146875
v 0.567188 0.193047 0.146875
v 0.567188 0.193047 0.175000
v 0.689063 0.193047 0.175000
v 0.506250 0.087500 0.146875
v 0.506250 0.087500 0.175000
v 0.567187 -0.018047 0.146875
v 0.567187 -0.018047 0.175000
v 0.689062 -0.018047 0.146875
v 0.689062 -0.018047 0.175000
v 0.750000 0.087500 0.146875
v 0.750000 0.087500 0.175000
v 0.628125 0.180000 0.081250
v 0.592727 0.172959 0.081250
v 0.583877 0.194324 0.146875
v 0.628125 0.203125 0.146875
v 0.562718 0.152907 0.081250
v 0.546366 0.169259 0.146875
v 0.542666 0.122898 0.081250
v 0.521301 0.131748 0.146875
v 0.535625 0.087500 0.081250
v 0.512500 0.087500 0.146875
v 0.542666 0.052102 0.081250
v 0.521301 0.043252 0.146875
v 0.562718 0.022093 0.081250
v 0.546366 0.005741 0.146875
v 0.592727 0.002041 0.081250
v 0.583877 -0.019324 0.146875
v 0.628125 -0.005000 0.081250
v 0.628125 -0.028125 0.146875
v 0.663523 0.002041 0.081250
v 0.672373 -0.019324 0.146875
v 0.693532 0.022093 0.081250
v 0.709884 0.005741 0.146875
v 0.713584 0.052102 0.081250
v 0.734949 0.043252 0.146875
v 0.720625 0.087500 0.081250
v 0.743750 0.087500 0.146875
v 0.713584 0.122898 0.081250
v 0.734949 0.131748 0.146875
v 0.693532 0.152907 0.081250
v 0.709884 0.169259 0.146875
v 0.663523 0.172959 0.081250
v 0.672373 0.194324 0.146875
v 0.825000 0.148438 0.477422
v 0.825000 0.026563 0.477422
v 0.853125 0.026563 0.477422
v 0.853125 0.148438 0.477422
v 0.825000 -0.034375 0.371875
v 0.853125 -0.034375 0.371875
v 0.825000 0.026562 0.266328
v 0.853125 0.026562 0.266328
v 0.825000 0.148437 0.266328
v 0.853125 0.148437 0.266328
v 0.825000 0.209375 0.371875
v 0.853125 0.209375 0.371875
v 0.853125 0.203125 0.371875
v 0.853125 0.194324 0.416123
v 0.918750 0.172959 0.407273
v 0.918750 0.180000 0.371875
v 0.853125 0.169259 0.453634
v 0.918750 0.152907 0.437282
v 0.853125 0.131748 0.478699
v 0.918750 0.122898 0.457334
v 0.853125 0.087500 0.487500
v 0.918750 0.087500 0.464375
v 0.853125 0.043252 0.478699
v 0.918750 0.052102 0.457334
v 0.853125 0.005741 0.453634
v 0.918750 0.022093 0.437282
v 0.853125 -0.019324 0.416123
v 0.918750 0.002041 0.407273
v 0.853125 -0.028125 0.371875
v 0.918750 -0.005000 0.371875
v 0.853125 -0.019324 0.327627
v 0.918750 0.002041 0.336477
v 0.853125 0.005741 0.290116
v 0.918750 0.022093 0.306468
v 0.853125 0.043252 0.265051
v 0.918750 0.052102 0.286416
v 0.853125 0.087500 0.256250
v 0.918750 0.087500 0.279375
v 0.853125 0.131748 0.265051
v 0.918750 0.122898 0.286416
v 0.853125 0.169259 0.290116
v 0.918750 0.152907 0.306468
v 0.853125 0.194324 0.327627
v 0.918750 0.172959 0.336477
v 0.825000 0.148438 0.733672
v 0.825000 0.026563 0.733672
v 0.853125 0.026563 0.733672
v 0.853125 0.148438 0.733672
v 0.825000 -0.034375 0.628125
v 0.853125 -0.034375 0.628125
v 0.825000 0.026562 0.522578
v 0.853125 0.026562 0.522578
v 0.825000 0.148437 0.522578
v 0.853125 0.148437 0.522578
v 0.825000 0.209375 0.628125
v 0.853125 0.209375 0.628125
v 0.853125 0.203125 0.628125
v 0.853125 0.194324 0.672373
v 0.918750 0.172959 0.663523
v 0.918750 0.180000 0.628125
v 0.853125 0.169259 0.709884
v 0.918750 0.152907 0.693532
v 0.853125 0.131748 0.734949
v 0.918750 0.122898 0.713584
v 0.853125 0.087500 0.743750
v 0.918750 0.087500 0.720625
v 0.853125 0.043252 0.734949
v 0.918750 0.052102 0.713584
v 0.853125 0.005741 0.709884
v 0.918750 0.022093 0.693532
v 0.853125 -0.019324 0.672373
v 0.918750 0.002041 0.663523
v 0.853125 -0.028125 0.628125
v 0.918750 -0.005000 0.628125
v 0.853125 -0.019324 0.583877
v 0.918750 0.002041 0.592727
v 0.853125 0.005741 0.546366
v 0.918750 0.022093 0.562718
v 0.853125 0.043252 0.521301
v 0.918750 0.052102 0.542666
v 0.853125 0.087500 0.512500
v 0.918750 0.087500 0.535625
v 0.853125 0.131748 0.521301
v 0.918750 0.122898 0.542666
v 0.853125 0.169259 0.546366
v 0.918750 0.152907 0.562718
v 0.853125 0.194324 0.583877
v 0.918750 0.172959 0.592727
v 0.432813 0.193047 0.825000
v 0.310938 0.193047 0.825000
v 0.310938 0.193047 0.853125
v 0.432813 0.193047 0.853125
v 0.250000 0.087500 0.825000
v 0.250000 0.087500 0.853125
v 0.310937 -0.018047 0.825000
v 0.310937 -0.018047 0.853125
v 0.432812 -0.018047 0.825000
v 0.432812 -0.018047 0.853125
v 0.493750 0.087500 0.825000
v 0.493750 0.087500 0.853125
v 0.371875 0.203125 0.853125
v 0.327627 0.194324 0.853125
v 0.336477 0.172959 0.918750
v 0.371875 0.180000 0.918750
v 0.290116 0.169259 0.853125
v 0.306468 0.152907 0.918750
v 0.265051 0.131748 0.853125
v 0.286416 0.122898 0.918750
v 0.256250 0.087500 0.853125
v 0.279375 0.087500 0.918750
v 0.265051 0.043252 0.853125
v 0.286416 0.052102 0.918750
v 0.290116 0.005741 0.853125
v 0.306468 0.022093 0.918750
v 0.327627 -0.019324 0.853125
v 0.336477 0.002041 0.918750
v 0.371875 -0.028125 0.853125
v 0.371875 -0.005000 0.918750
v 0.416123 -0.019324 0.853125
v 0.407273 0.002041 0.918750
v 0.453634 0.005741 0.853125
v 0.437282 0.022093 0.918750
v 0.478699 0.043252 0.853125
v 0.457334 0.052102 0.918750
v 0.487500 0.087500 0.853125
v 0.464375 0.087500 0.918750
v 0.478699 0.131748 0.853125
v 0.457334 0.122898 0.918750
v 0.453634 0.169259 0.853125
v 0.437282 0.152907 0.918750
v 0.416123 0.194324 0.853125
v 0.407273 0.172959 0.918750
v 0.689063 0.193047 0.825000
v 0.567188 0.193047 0.825000
v 0.567188 0.193047 0.853125
v 0.689063 0.193047 0.853125
v 0.506250 0.087500 0.825000
v 0.506250 0.087500 0.853125
v 0.567187 -0.018047 0.825000
v 0.567187 -0.018047 0.853125
v 0.689062 -0.018047 0.825000
v 0.689062 -0.018047 0.853125
v 0.750000 0.087500 0.825000
v 0.750000 0.087500 0.853125
v 0.628125 0.203125 0.853125
v 0.583877 0.194324 0.853125
v 0.592727 0.172959 0.918750
v 0.628125 0.180000 0.918750
v 0.546366 0.169259 0.853125
v 0.562718 0.152907 0.918750
v 0.521301 0.131748 0.853125
v 0.542666 0.122898 0.918750
v 0.512500 0.087500 0.853125
v 0.535625 0.087500 0.918750
v 0.521301 0.043252 0.853125
v 0.542666 0.052102 0.918750
v 0.546366 0.005741 0.853125
v 0.562718 0.022093 0.918750
v 0.583877 -0.019324 0.853125
v 0.592727 0.002041 0.918750
v 0.628125 -0.028125 0.853125
v 0.628125 -0.005000 0.918750
v 0.672373 -0.019324 0.853125
v 0.663523 0.002041 0.918750
v 0.709884 0.005741 0.853125
v 0.693532 0.022093 0.918750
v 0.734949 0.043252 0.853125
v 0.713584 0.052102 0.918750
v 0.743750 0.087500 0.853125
v 0.720625 0.087500 0.918750
v 0.734949 0.131748 0.853125
v 0.713584 0.122898 0.918750
v 0.709884 0.169259 0.853125
v 0.693532 0.152907 0.918750
v 0.672373 0.194324 0.853125
v 0.663523 0.172959 0.918750
v 0.146875 0.148438 0.477422
v 0.146875 0.026563 0.477422
v 0.175000 0.026563 0.477422
v 0.175000 0.148438 0.477422
v 0.146875 -0.034375 0.371875
v 0.175000 -0.034375 0.371875
v 0.146875 0.026562 0.266328
v 0.175000 0.026562 0.266328
v 0.146875 0.148437 0.266328
v 0.175000 0.148437 0.266328
v 0.146875 0.209375 0.371875
v 0.175000 0.209375 0.371875
v 0.081250 0.180000 0.371875
v 0.081250 0.172959 0.407273
v 0.146875 0.194324 0.416123
v 0.146875 0.203125 0.371875
v 0.081250 0.152907 0.437282
v 0.146875 0.169259 0.453634
v 0.081250 0.122898 0.457334
v 0.146875 0.131748 0.478699
v 0.081250 0.087500 0.464375
v 0.146875 0.087500 0.487500
v 0.081250 0.052102 0.457334
v 0.146875 0.043252 0.478699
v 0.081250 0.022093 0.437282
v 0.146875 0.005741 0.453634
v 0.081250 0.002041 0.407273
v 0.146875 -0.019324 0.416123
v 0.081250 -0.005000 0.371875
v 0.146875 -0.028125 0.371875
v 0.081250 0.002041 0.336477
v 0.146875 -0.019324 0.327627
v 0.081250 0.022093 0.306468
v 0.146875 0.005741 0.290116
v 0.081250 0.052102 0.286416
v 0.146875 0.043252 0.265051
v 0.081250 0.087500 0.279375
v 0.146875 0.087500 0.256250
v 0.081250 0.122898 0.286416
v 0.146875 0.131748 0.265051
v 0.081250 0.152907 0.306468
v 0.146875 0.169259 0.290116
v 0.081250 0.172959 0.336477
v 0.146875 0.194324 0.327627
v 0.146875 0.148438 0.733672
v 0.146875 0.026563 0.733672
v 0.175000 0.026563 0.733672
v 0.175000 0.148438 0.733672
v 0.146875 -0.034375 0.628125
v 0.175000 -0.034375 0.628125
v 0.146875 0.026562 0.522578
v 0.175000 0.026562 0.522578
v 0.146875 0.148437 0.522578
v 0.175000 0.148437 0.522578
v 0.146875 0.209375 0.628125
v 0.175000 0.209375 0.628125
v 0.081250 0.180000 0.628125
v 0.081250 0.172959 0.663523
v 0.146875 0.194324 0.672373
v 0.146875 0.203125 0.628125
v 0.081250 0.152907 0.693532
v 0.146875 0.169259 0.709884
v 0.081250 0.122898 0.713584
v 0.146875 0.131748 0.734949
v 0.081250 0.087500 0.720625
v 0.146875 0.087500 0.743750
v 0.081250 0.052102 0.713584
v 0.146875 0.043252 0.734949
v 0.081250 0.022093 0.693532
v 0.146875 0.005741 0.709884
v 0.081250 0.002041 0.663523
v 0.146875 -0.019324 0.672373
v 0.081250 -0.005000 0.628125
v 0.146875 -0.028125 0.628125
v 0.081250 0.002041 0.592727
v 0.146875 -0.019324 0.583877
v 0.081250 0.022093 0.562718
v 0.146875 0.005741 0.546366
v 0.081250 0.052102 0.542666
v 0.146875 0.043252 0.521301
v 0.081250 0.087500 0.535625
v 0.146875 0.087500 0.512500
v 0.081250 0.122898 0.542666
v 0.146875 0.131748 0.521301
v 0.081250 0.152907 0.562718
v 0.146875 0.169259 0.546366
v 0.081250 0.172959 0.592727
v 0.146875 0.194324 0.583877
vn 0.0000 -1.0000 0.0000
vn 0.0000 1.0000 0.0000
vn 0.0000 0.0000 -1.0000
vn 0.0000 0.0000 1.0000
vn -1.0000 0.0000 0.0000
vn 1.0000 0.0000 0.0000
vn -0.8660 0.5000 0.0000
vn -0.8660 -0.5000 0.0000
vn 0.8660 -0.5000 0.0000
vn 0.8660 0.5000 0.0000
vn -0.2167 0.9762 0.0000
vn -0.5738 0.8190 0.0000
vn -0.8435 0.5371 0.0000
vn -0.9849 0.1734 0.0000
vn -0.9762 -0.2167 0.0000
vn -0.8190 -0.5738 0.0000
vn -0.5371 -0.8435 0.0000
vn -0.1734 -0.9849 0.0000
vn 0.2167 -0.9762 0.0000
vn 0.5738 -0.8190 0.0000
vn 0.8435 -0.5371 0.0000
vn 0.9849 -0.1734 0.0000
vn 0.9762 0.2167 0.0000
vn 0.8190 0.5738 0.0000
vn 0.5371 0.8435 0.0000
vn 0.1734 0.9849 0.0000
vn 0.0000 -0.8660 0.5000
vn 0.0000 -0.8660 -0.5000
vn 0.0000 0.8660 -0.5000
vn 0.0000 0.8660 0.5000
vn 0.0000 0.9849 0.1734
vn 0.0000 0.8435 0.5371
vn 0.0000 0.5738 0.8190
vn 0.0000 0.2167 0.9762
vn 0.0000 -0.1734 0.9849
vn 0.0000 -0.5371 0.8435
vn 0.0000 -0.8190 0.5738
vn 0.0000 -0.9762 0.2167
vn 0.0000 -0.9849 -0.1734
vn 0.0000 -0.8435 -0.5371
vn 0.0000 -0.5738 -0.8190
vn 0.0000 -0.2167 -0.9762
vn 0.0000 0.1734 -0.9849
vn 0.0000 0.5371 -0.8435
vn 0.0000 0.8190 -0.5738
vn 0.0000 0.9762 -0.2167
vn -0.1734 0.9849 0.0000
vn -0.5371 0.8435 0.0000
vn -0.8190 0.5738 0.0000
vn -0.9762 0.2167 0.0000
vn -0.9849 -0.1734 0.0000
vn -0.8435 -0.5371 0.0000
vn -0.5738 -0.8190 0.0000
vn -0.2167 -0.9762 0.0000
vn 0.1734 -0.9849 0.0000
vn 0.5371 -0.8435 0.0000
vn 0.8190 -0.5738 0.0000
vn 0.9762 -0.2167 0.0000
vn 0.9849 0.1734 0.0000
vn 0.8435 0.5371 0.0000
vn 0.5738 0.8190 0.0000
vn 0.2167 0.9762 0.0000
vn 0.0000 0.9762 0.2167
vn 0.0000 0.8190 0.5738
vn 0.0000 0.5371 0.8435
vn 0.0000 0.1734 0.9849
vn 0.0000 -0.2167 0.9762
vn 0.0000 -0.5738 0.8190
vn 0.0000 -0.8435 0.5371
vn 0.0000 -0.9849 0.1734
vn 0.0000 -0.9762 -0.2167
vn 0.0000 -0.8190 -0.5738
vn 0.0000 -0.5371 -0.8435
vn 0.0000 -0.1734 -0.9849
vn 0.0000 0.2167 -0.9762
vn 0.0000 0.5738 -0.8190
vn 0.0000 0.8435 -0.5371
vn 0.0000 0.9849 -0.1734
vt 0.000000 1.000000
vt 1.000000 1.000000
vt 1.000000 0.000000
vt 0.000000 0.000000
vt 0.000000 0.055000
vt 1.000000 0.055000
vt 0.166667 0.000000
vt 0.166667 0.250000
vt 0.000000 0.250000
vt 0.333333 0.000000
vt 0.333333 0.250000
vt 0.500000 0.000000
vt 0.500000 0.250000
vt 0.666667 0.000000
vt 0.666667 0.250000
vt 0.833333 0.000000
vt 0.833333 0.250000
vt 1.000000 0.250000
vt 0.750000 0.125000
vt 0.625000 0.070873
vt 0.375000 0.070873
vt 0.250000 0.125000
vt 0.375000 0.179127
vt 0.625000 0.179127
vt 0.062500 0.250000
vt 0.062500 1.000000
vt 0.125000 0.250000
vt 0.125000 1.000000
vt 0.187500 0.250000
vt 0.187500 1.000000
vt 0.250000 0.250000
vt 0.250000 1.000000
vt 0.312500 0.250000
vt 0.312500 1.000000
vt 0.375000 0.250000
vt 0.375000 1.000000
vt 0.437500 0.250000
vt 0.437500 1.000000
vt 0.500000 1.000000
vt 0.562500 0.250000
vt 0.562500 1.000000
vt 0.625000 0.250000
vt 0.625000 1.000000
vt 0.687500 0.250000
vt 0.687500 1.000000
vt 0.750000 0.250000
vt 0.750000 1.000000
vt 0.812500 0.250000
vt 0.812500 1.000000
vt 0.875000 0.250000
vt 0.875000 1.000000
vt 0.937500 0.250000
vt 0.937500 1.000000
vt 0.595671 0.798227
vt 0.676777 0.757583
vt 0.730970 0.696753
vt 0.750000 0.625000
vt 0.730970 0.553247
vt 0.676777 0.492417
vt 0.595671 0.451773
vt 0.500000 0.437500
vt 0.404329 0.451773
vt 0.323223 0.492417
vt 0.269030 0.553247
vt 0.250000 0.625000
vt 0.269030 0.696753
vt 0.323223 0.757583
vt 0.404329 0.798227
vt 0.500000 0.812500
o jbox
usemtl jbox_side
f 1/1/1 2/2/1 3/3/1 4/4/1
f 5/4/2 6/3/2 7/2/2 8/1/2
f 8/2/3 7/1/3 2/4/3 1/3/3
f 6/2/4 5/1/4 4/4/4 3/3/4
f 5/2/5 8/1/5 1/4/5 4/3/5
f 7/2/6 6/1/6 3/4/6 2/3/6
f 9/5/1 10/6/1 11/3/1 12/4/1
f 16/6/3 15/5/3 10/4/3 9/3/3
f 14/6/4 13/5/4 12/4/4 11/3/4
f 13/6/5 16/5/5 9/4/5 12/3/5
f 15/6/6 14/5/6 11/4/6 10/3/6
usemtl jbox
f 13/4/2 14/3/2 15/2/2 16/1/2
o gland_north_plus
usemtl gland
f 17/4/2 18/7/2 19/8/2 20/9/2
f 18/7/7 21/10/7 22/11/7 19/8/7
f 21/10/8 23/12/8 24/13/8 22/11/8
f 23/12/1 25/14/1 26/15/1 24/13/1
f 25/14/9 27/16/9 28/17/9 26/15/9
f 27/16/10 17/3/10 20/18/10 28/17/10
f 27/19/3 25/20/3 23/21/3 21/22/3
f 27/19/3 21/22/3 18/23/3 17/24/3
f 29/9/11 30/25/11 31/26/11 32/1/11
f 30/25/12 33/27/12 34/28/12 31/26/12
f 33/27/13 35/29/13 36/30/13 34/28/13
f 35/29/14 37/31/14 38/32/14 36/30/14
f 37/31/15 39/33/15 40/34/15 38/32/15
f 39/33/16 41/35/16 42/36/16 40/34/16
f 41/35/17 43/37/17 44/38/17 42/36/17
f 43/37/18 45/13/18 46/39/18 44/38/18
f 45/13/19 47/40/19 48/41/19 46/39/19
f 47/40/20 49/42/20 50/43/20 48/41/20
f 49/42/21 51/44/21 52/45/21 50/43/21
f 51/44/22 53/46/22 54/47/22 52/45/22
f 53/46/23 55/48/23 56/49/23 54/47/23
f 55/48/24 57/50/24 58/51/24 56/49/24
f 57/50/25 59/52/25 60/53/25 58/51/25
f 59/52/26 29/18/26 32/2/26 60/53/26
f 59/54/3 57/55/3 55/56/3 53/57/3
f 59/54/3 53/57/3 51/58/3 49/59/3
f 59/54/3 49/59/3 47/60/3 45/61/3
f 59/54/3 45/61/3 43/62/3 41/63/3
f 59/54/3 41/63/3 39/64/3 37/65/3
f 59/54/3 37/65/3 35/66/3 33/67/3
f 59/54/3 33/67/3 30/68/3 29/69/3
o gland_north_minus
usemtl gland
f 61/4/2 62/7/2 63/8/2 64/9/2
f 62/7/7 65/10/7 66/11/7 63/8/7
f 65/10/8 67/12/8 68/13/8 66/11/8
f 67/12/1 69/14/1 70/15/1 68/13/1
f 69/14/9 71/16/9 72/17/9 70/15/9
f 71/16/10 61/3/10 64/18/10 72/17/10
f 71/19/3 69/20/3 67/21/3 65/22/3
f 71/19/3 65/22/3 62/23/3 61/24/3
f 73/9/11 74/25/11 75/26/11 76/1/11
f 74/25/12 77/27/12 78/28/12 75/26/12
f 77/27/13 79/29/13 80/30/13 78/28/13
f 79/29/14 81/31/14 82/32/14 80/30/14
f 81/31/15 83/33/15 84/34/15 82/32/15
f 83/33/16 85/35/16 86/36/16 84/34/16
f 85/35/17 87/37/17 88/38/17 86/36/17
f 87/37/18 89/13/18 90/39/18 88/38/18
f 89/13/19 91/40/19 92/41/19 90/39/19
f 91/40/20 93/42/20 94/43/20 92/41/20
f 93/42/21 95/44/21 96/45/21 94/43/21
f 95/44/22 97/46/22 98/47/22 96/45/22
f 97/46/23 99/48/23 100/49/23 98/47/23
f 99/48/24 101/50/24 102/51/24 100/49/24
f 101/50/25 103/52/25 104/53/25 102/51/25
f 103/52/26 73/18/26 76/2/26 104/53/26
f 103/54/3 101/55/3 99/56/3 97/57/3
f 103/54/3 97/57/3 95/58/3 93/59/3
f 103/54/3 93/59/3 91/60/3 89/61/3
f 103/54/3 89/61/3 87/62/3 85/63/3
f 103/54/3 85/63/3 83/64/3 81/65/3
f 103/54/3 81/65/3 79/66/3 77/67/3
f 103/54/3 77/67/3 74/68/3 73/69/3
o gland_east_plus
usemtl gland
f 105/4/4 106/7/4 107/8/4 108/9/4
f 106/7/27 109/10/27 110/11/27 107/8/27
f 109/10/28 111/12/28 112/13/28 110/11/28
f 111/12/3 113/14/3 114/15/3 112/13/3
f 113/14/29 115/16/29 116/17/29 114/15/29
f 115/16/30 105/3/30 108/18/30 116/17/30
f 108/24/6 107/23/6 110/22/6 112/21/6
f 108/24/6 112/21/6 114/20/6 116/19/6
f 117/9/31 118/25/31 119/26/31 120/1/31
f 118/25/32 121/27/32 122/28/32 119/26/32
f 121/27/33 123/29/33 124/30/33 122/28/33
f 123/29/34 125/31/34 126/32/34 124/30/34
f 125/31/35 127/33/35 128/34/35 126/32/35
f 127/33/36 129/35/36 130/36/36 128/34/36
f 129/35/37 131/37/37 132/38/37 130/36/37
f 131/37/38 133/13/38 134/39/38 132/38/38
f 133/13/39 135/40/39 136/41/39 134/39/39
f 135/40/40 137/42/40 138/43/40 136/41/40
f 137/42/41 139/44/41 140/45/41 138/43/41
f 139/44/42 141/46/42 142/47/42 140/45/42
f 141/46/43 143/48/43 144/49/43 142/47/43
f 143/48/44 145/50/44 146/51/44 144/49/44
f 145/50/45 147/52/45 148/53/45 146/51/45
f 147/52/46 117/18/46 120/2/46 148/53/46
f 120/57/6 119/56/6 122/55/6 124/54/6
f 120/57/6 124/54/6 126/69/6 128/68/6
f 120/57/6 128/68/6 130/67/6 132/66/6
f 120/57/6 132/66/6 134/65/6 136/64/6
f 120/57/6 136/64/6 138/63/6 140/62/6
f 120/57/6 140/62/6 142/61/6 144/60/6
f 120/57/6 144/60/6 146/59/6 148/58/6
o gland_east_minus
usemtl gland
f 149/4/4 150/7/4 151/8/4 152/9/4
f 150/7/27 153/10/27 154/11/27 151/8/27
f 153/10/28 155/12/28 156/13/28 154/11/28
f 155/12/3 157/14/3 158/15/3 156/13/3
f 157/14/29 159/16/29 160/17/29 158/15/29
f 159/16/30 149/3/30 152/18/30 160/17/30
f 152/24/6 151/23/6 154/22/6 156/21/6
f 152/24/6 156/21/6 158/20/6 160/19/6
f 161/9/31 162/25/31 163/26/31 164/1/31
f 162/25/32 165/27/32 166/28/32 163/26/32
f 165/27/33 167/29/33 168/30/33 166/28/33
f 167/29/34 169/31/34 170/32/34 168/30/34
f 169/31/35 171/33/35 172/34/35 170/32/35
f 171/33/36 173/35/36 174/36/36 172/34/36
f 173/35/37 175/37/37 176/38/37 174/36/37
f 175/37/38 177/13/38 178/39/38 176/38/38
f 177/13/39 179/40/39 180/41/39 178/39/39
f 179/40/40 181/42/40 182/43/40 180/41/40
f 181/42/41 183/44/41 184/45/41 182/43/41
f 183/44/42 185/46/42 186/47/42 184/45/42
f 185/46/43 187/48/43 188/49/43 186/47/43
f 187/48/44 189/50/44 190/51/44 188/49/44
f 189/50/45 191/52/45 192/53/45 190/51/45
f 191/52/46 161/18/46 164/2/46 192/53/46
f 164/57/6 163/56/6 166/55/6 168/54/6
f 164/57/6 168/54/6 170/69/6 172/68/6
f 164/57/6 172/68/6 174/67/6 176/66/6
f 164/57/6 176/66/6 178/65/6 180/64/6
f 164/57/6 180/64/6 182/63/6 184/62/6
f 164/57/6 184/62/6 186/61/6 188/60/6
f 164/57/6 188/60/6 190/59/6 192/58/6
o gland_south_plus
usemtl gland
f 193/4/2 194/7/2 195/8/2 196/9/2
f 194/7/7 197/10/7 198/11/7 195/8/7
f 197/10/8 199/12/8 200/13/8 198/11/8
f 199/12/1 201/14/1 202/15/1 200/13/1
f 201/14/9 203/16/9 204/17/9 202/15/9
f 203/16/10 193/3/10 196/18/10 204/17/10
f 196/24/4 195/23/4 198/22/4 200/21/4
f 196/24/4 200/21/4 202/20/4 204/19/4
f 205/9/47 206/25/47 207/26/47 208/1/47
f 206/25/48 209/27/48 210/28/48 207/26/48
f 209/27/49 211/29/49 212/30/49 210/28/49
f 211/29/50 213/31/50 214/32/50 212/30/50
f 213/31/51 215/33/51 216/34/51 214/32/51
f 215/33/52 217/35/52 218/36/52 216/34/52
f 217/35/53 219/37/53 220/38/53 218/36/53
f 219/37/54 221/13/54 222/39/54 220/38/54
f 221/13/55 223/40/55 224/41/55 222/39/55
f 223/40/56 225/42/56 226/43/56 224/41/56
f 225/42/57 227/44/57 228/45/57 226/43/57
f 227/44/58 229/46/58 230/47/58 228/45/58
f 229/46/59 231/48/59 232/49/59 230/47/59
f 231/48/60 233/50/60 234/51/60 232/49/60
f 233/50/61 235/52/61 236/53/61 234/51/61
f 235/52/62 205/18/62 208/2/62 236/53/62
f 208/69/4 207/68/4 210/67/4 212/66/4
f 208/69/4 212/66/4 214/65/4 216/64/4
f 208/69/4 216/64/4 218/63/4 220/62/4
f 208/69/4 220/62/4 222/61/4 224/60/4
f 208/69/4 224/60/4 226/59/4 228/58/4
f 208/69/4 228/58/4 230/57/4 232/56/4
f 208/69/4 232/56/4 234/55/4 236/54/4
o gland_south_minus
usemtl gland
f 237/4/2 238/7/2 239/8/2 240/9/2
f 238/7/7 241/10/7 242/11/7 239/8/7
f 241/10/8 243/12/8 244/13/8 242/11/8
f 243/12/1 245/14/1 246/15/1 244/13/1
f 245/14/9 247/16/9 248/17/9 246/15/9
f 247/16/10 237/3/10 240/18/10 248/17/10
f 240/24/4 239/23/4 242/22/4 244/21/4
f 240/24/4 244/21/4 246/20/4 248/19/4
f 249/9/47 250/25/47 251/26/47 252/1/47
f 250/25/48 253/27/48 254/28/48 251/26/48
f 253/27/49 255/29/49 256/30/49 254/28/49
f 255/29/50 257/31/50 258/32/50 256/30/50
f 257/31/51 259/33/51 260/34/51 258/32/51
f 259/33/52 261/35/52 262/36/52 260/34/52
f 261/35/53 263/37/53 264/38/53 262/36/53
f 263/37/54 265/13/54 266/39/54 264/38/54
f 265/13/55 267/40/55 268/41/55 266/39/55
f 267/40/56 269/42/56 270/43/56 268/41/56
f 269/42/57 271/44/57 272/45/57 270/43/57
f 271/44/58 273/46/58 274/47/58 272/45/58
f 273/46/59 275/48/59 276/49/59 274/47/59
f 275/48/60 277/50/60 278/51/60 276/49/60
f 277/50/61 279/52/61 280/53/61 278/51/61
f 279/52/62 249/18/62 252/2/62 280/53/62
f 252/69/4 251/68/4 254/67/4 256/66/4
f 252/69/4 256/66/4 258/65/4 260/64/4
f 252/69/4 260/64/4 262/63/4 264/62/4
f 252/69/4 264/62/4 266/61/4 268/60/4
f 252/69/4 268/60/4 270/59/4 272/58/4
f 252/69/4 272/58/4 274/57/4 276/56/4
f 252/69/4 276/56/4 278/55/4 280/54/4
o gland_west_plus
usemtl gland
f 281/4/4 282/7/4 283/8/4 284/9/4
f 282/7/27 285/10/27 286/11/27 283/8/27
f 285/10/28 287/12/28 288/13/28 286/11/28
f 287/12/3 289/14/3 290/15/3 288/13/3
f 289/14/29 291/16/29 292/17/29 290/15/29
f 291/16/30 281/3/30 284/18/30 292/17/30
f 291/19/5 289/20/5 287/21/5 285/22/5
f 291/19/5 285/22/5 282/23/5 281/24/5
f 293/9/63 294/25/63 295/26/63 296/1/63
f 294/25/64 297/27/64 298/28/64 295/26/64
f 297/27/65 299/29/65 300/30/65 298/28/65
f 299/29/66 301/31/66 302/32/66 300/30/66
f 301/31/67 303/33/67 304/34/67 302/32/67
f 303/33/68 305/35/68 306/36/68 304/34/68
f 305/35/69 307/37/69 308/38/69 306/36/69
f 307/37/70 309/13/70 310/39/70 308/38/70
f 309/13/71 311/40/71 312/41/71 310/39/71
f 311/40/72 313/42/72 314/43/72 312/41/72
f 313/42/73 315/44/73 316/45/73 314/43/73
f 315/44/74 317/46/74 318/47/74 316/45/74
f 317/46/75 319/48/75 320/49/75 318/47/75
f 319/48/76 321/50/76 322/51/76 320/49/76
f 321/50/77 323/52/77 324/53/77 322/51/77
f 323/52/78 293/18/78 296/2/78 324/53/78
f 323/58/5 321/59/5 319/60/5 317/61/5
f 323/58/5 317/61/5 315/62/5 313/63/5
f 323/58/5 313/63/5 311/64/5 309/65/5
f 323/58/5 309/65/5 307/66/5 305/67/5
f 323/58/5 305/67/5 303/68/5 301/69/5
f 323/58/5 301/69/5 299/54/5 297/55/5
f 323/58/5 297/55/5 294/56/5 293/57/5
o gland_west_minus
usemtl gland
f 325/4/4 326/7/4 327/8/4 328/9/4
f 326/7/27 329/10/27 330/11/27 327/8/27
f 329/10/28 331/12/28 332/13/28 330/11/28
f 331/12/3 333/14/3 334/15/3 332/13/3
f 333/14/29 335/16/29 336/17/29 334/15/29
f 335/16/30 325/3/30 328/18/30 336/17/30
f 335/19/5 333/20/5 331/21/5 329/22/5
f 335/19/5 329/22/5 326/23/5 325/24/5
f 337/9/63 338/25/63 339/26/63 340/1/63
f 338/25/64 341/27/64 342/28/64 339/26/64
f 341/27/65 343/29/65 344/30/65 342/28/65
f 343/29/66 345/31/66 346/32/66 344/30/66
f 345/31/67 347/33/67 348/34/67 346/32/67
f 347/33/68 349/35/68 350/36/68 348/34/68
f 349/35/69 351/37/69 352/38/69 350/36/69
f 351/37/70 353/13/70 354/39/70 352/38/70
f 353/13/71 355/40/71 356/41/71 354/39/71
f 355/40/72 357/42/72 358/43/72 356/41/72
f 357/42/73 359/44/73 360/45/73 358/43/73
f 359/44/74 361/46/74 362/47/74 360/45/74
f 361/46/75 363/48/75 364/49/75 362/47/75
f 363/48/76 365/50/76 366/51/76 364/49/76
f 365/50/77 367/52/77 368/53/77 366/51/77
f 367/52/78 337/18/78 340/2/78 368/53/78
f 367/58/5 365/59/5 363/60/5 361/61/5
f 367/58/5 361/61/5 359/62/5 357/63/5
f 367/58/5 357/63/5 355/64/5 353/65/5
f 367/58/5 353/65/5 351/66/5 349/67/5
f 367/58/5 349/67/5 347/68/5 345/69/5
f 367/58/5 345/69/5 343/54/5 341/55/5
f 367/58/5 341/55/5 338/56/5 337/57/5
