# generated by tools/gen_trunk_models.py - do not edit by hand
mtllib dc_trunk_cable_arm.mtl
v 0.371875 0.175000 0.000000
v 0.338390 0.168339 0.000000
v 0.338390 0.168339 0.175000
v 0.371875 0.175000 0.175000
v 0.310003 0.149372 0.000000
v 0.310003 0.149372 0.175000
v 0.291036 0.120985 0.000000
v 0.291036 0.120985 0.175000
v 0.284375 0.087500 0.000000
v 0.284375 0.087500 0.175000
v 0.291036 0.054015 0.000000
v 0.291036 0.054015 0.175000
v 0.310003 0.025628 0.000000
v 0.310003 0.025628 0.175000
v 0.338390 0.006661 0.000000
v 0.338390 0.006661 0.175000
v 0.371875 0.000000 0.000000
v 0.371875 0.000000 0.175000
v 0.405360 0.006661 0.000000
v 0.405360 0.006661 0.175000
v 0.433747 0.025628 0.000000
v 0.433747 0.025628 0.175000
v 0.452714 0.054015 0.000000
v 0.452714 0.054015 0.175000
v 0.459375 0.087500 0.000000
v 0.459375 0.087500 0.175000
v 0.452714 0.120985 0.000000
v 0.452714 0.120985 0.175000
v 0.433747 0.149372 0.000000
v 0.433747 0.149372 0.175000
v 0.405360 0.168339 0.000000
v 0.405360 0.168339 0.175000
v 0.628125 0.175000 0.000000
v 0.594640 0.168339 0.000000
v 0.594640 0.168339 0.175000
v 0.628125 0.175000 0.175000
v 0.566253 0.149372 0.000000
v 0.566253 0.149372 0.175000
v 0.547286 0.120985 0.000000
v 0.547286 0.120985 0.175000
v 0.540625 0.087500 0.000000
v 0.540625 0.087500 0.175000
v 0.547286 0.054015 0.000000
v 0.547286 0.054015 0.175000
v 0.566253 0.025628 0.000000
v 0.566253 0.025628 0.175000
v 0.594640 0.006661 0.000000
v 0.594640 0.006661 0.175000
v 0.628125 0.000000 0.000000
v 0.628125 0.000000 0.175000
v 0.661610 0.006661 0.000000
v 0.661610 0.006661 0.175000
v 0.689997 0.025628 0.000000
v 0.689997 0.025628 0.175000
v 0.708964 0.054015 0.000000
v 0.708964 0.054015 0.175000
v 0.715625 0.087500 0.000000
v 0.715625 0.087500 0.175000
v 0.708964 0.120985 0.000000
v 0.708964 0.120985 0.175000
v 0.689997 0.149372 0.000000
v 0.689997 0.149372 0.175000
v 0.661610 0.168339 0.000000
v 0.661610 0.168339 0.175000
v 0.256250 0.175000 0.003125
v 0.743750 0.175000 0.003125
v 0.743750 0.175000 0.071875
v 0.256250 0.175000 0.071875
v 0.256250 0.200000 0.071875
v 0.743750 0.200000 0.071875
v 0.743750 0.200000 0.003125
v 0.256250 0.200000 0.003125
v 0.256250 0.000000 0.003125
v 0.281250 0.000000 0.003125
v 0.281250 0.000000 0.071875
v 0.256250 0.000000 0.071875
v 0.281250 0.175000 0.071875
v 0.281250 0.175000 0.003125
v 0.718750 0.000000 0.003125
v 0.743750 0.000000 0.003125
v 0.743750 0.000000 0.071875
v 0.718750 0.000000 0.071875
v 0.718750 0.175000 0.071875
v 0.718750 0.175000 0.003125
v 0.475000 0.000000 0.003125
v 0.525000 0.000000 0.003125
v 0.525000 0.000000 0.071875
v 0.475000 0.000000 0.071875
v 0.475000 0.175000 0.071875
v 0.525000 0.175000 0.071875
v 0.525000 0.175000 0.003125
v 0.475000 0.175000 0.003125
v 0.281875 0.223750 0.060233
v 0.255625 0.223750 0.060233
v 0.255625 0.200000 0.060233
v 0.281875 0.200000 0.060233
v 0.242500 0.223750 0.037500
v 0.242500 0.200000 0.037500
v 0.255625 0.223750 0.014767
v 0.255625 0.200000 0.014767
v 0.281875 0.223750 0.014767
v 0.281875 0.200000 0.014767
v 0.295000 0.223750 0.037500
v 0.295000 0.200000 0.037500
v 0.744375 0.223750 0.060233
v 0.718125 0.223750 0.060233
v 0.718125 0.200000 0.060233
v 0.744375 0.200000 0.060233
v 0.705000 0.223750 0.037500
v 0.705000 0.200000 0.037500
v 0.718125 0.223750 0.014767
v 0.718125 0.200000 0.014767
v 0.744375 0.223750 0.014767
v 0.744375 0.200000 0.014767
v 0.757500 0.223750 0.037500
v 0.757500 0.200000 0.037500
vn -0.1913 0.9619 0.0000
vn -0.5449 0.8155 0.0000
vn -0.8155 0.5449 0.0000
vn -0.9619 0.1913 0.0000
vn -0.9619 -0.1913 0.0000
vn -0.8155 -0.5449 0.0000
vn -0.5449 -0.8155 0.0000
vn -0.1913 -0.9619 0.0000
vn 0.1913 -0.9619 0.0000
vn 0.5449 -0.8155 0.0000
vn 0.8155 -0.5449 0.0000
vn 0.9619 -0.1913 0.0000
vn 0.9619 0.1913 0.0000
vn 0.8155 0.5449 -0.0000
vn 0.5449 0.8155 -0.0000
vn 0.1913 0.9619 0.0000
vn 0.0000 -1.0000 0.0000
vn 0.0000 1.0000 0.0000
vn 0.0000 0.0000 -1.0000
vn 0.0000 0.0000 1.0000
vn -1.0000 0.0000 0.0000
vn 1.0000 0.0000 0.0000
vn -0.8660 0.0000 0.5000
vn -0.8660 0.0000 -0.5000
vn 0.8660 0.0000 -0.5000
vn 0.8660 0.0000 0.5000
vt 0.000000 0.000000
vt 0.062500 0.000000
vt 0.062500 1.000000
vt 0.000000 1.000000
vt 0.125000 0.000000
vt 0.125000 1.000000
vt 0.187500 0.000000
vt 0.187500 1.000000
vt 0.250000 0.000000
vt 0.250000 1.000000
vt 0.312500 0.000000
vt 0.312500 1.000000
vt 0.375000 0.000000
vt 0.375000 1.000000
vt 0.437500 0.000000
vt 0.437500 1.000000
vt 0.500000 0.000000
vt 0.500000 1.000000
vt 0.562500 0.000000
vt 0.562500 1.000000
vt 0.625000 0.000000
vt 0.625000 1.000000
vt 0.687500 0.000000
vt 0.687500 1.000000
vt 0.750000 0.000000
vt 0.750000 1.000000
vt 0.812500 0.000000
vt 0.812500 1.000000
vt 0.875000 0.000000
vt 0.875000 1.000000
vt 0.937500 0.000000
vt 0.937500 1.000000
vt 1.000000 0.000000
vt 1.000000 1.000000
vt 0.000000 0.480000
vt 1.000000 0.480000
vt 1.000000 0.020000
vt 0.000000 0.020000
vt 0.000000 0.980000
vt 1.000000 0.980000
vt 1.000000 0.520000
vt 0.000000 0.520000
vt 0.166667 0.480000
vt 0.166667 0.020000
vt 0.333333 0.480000
vt 0.333333 0.020000
vt 0.500000 0.480000
vt 0.500000 0.020000
vt 0.666667 0.480000
vt 0.666667 0.020000
vt 0.833333 0.480000
vt 0.833333 0.020000
vt 0.375000 0.150407
vt 0.250000 0.250000
vt 0.375000 0.349593
vt 0.625000 0.349593
vt 0.750000 0.250000
vt 0.625000 0.150407
o cable
usemtl core
f 1/1/1 2/2/1 3/3/1 4/4/1
f 2/2/2 5/5/2 6/6/2 3/3/2
f 5/5/3 7/7/3 8/8/3 6/6/3
f 7/7/4 9/9/4 10/10/4 8/8/4
f 9/9/5 11/11/5 12/12/5 10/10/5
f 11/11/6 13/13/6 14/14/6 12/12/6
f 13/13/7 15/15/7 16/16/7 14/14/7
f 15/15/8 17/17/8 18/18/8 16/16/8
f 17/17/9 19/19/9 20/20/9 18/18/9
f 19/19/10 21/21/10 22/22/10 20/20/10
f 21/21/11 23/23/11 24/24/11 22/22/11
f 23/23/12 25/25/12 26/26/12 24/24/12
f 25/25/13 27/27/13 28/28/13 26/26/13
f 27/27/14 29/29/14 30/30/14 28/28/14
f 29/29/15 31/31/15 32/32/15 30/30/15
f 31/31/16 1/33/16 4/34/16 32/32/16
f 33/1/1 34/2/1 35/3/1 36/4/1
f 34/2/2 37/5/2 38/6/2 35/3/2
f 37/5/3 39/7/3 40/8/3 38/6/3
f 39/7/4 41/9/4 42/10/4 40/8/4
f 41/9/5 43/11/5 44/12/5 42/10/5
f 43/11/6 45/13/6 46/14/6 44/12/6
f 45/13/7 47/15/7 48/16/7 46/14/7
f 47/15/8 49/17/8 50/18/8 48/16/8
f 49/17/9 51/19/9 52/20/9 50/18/9
f 51/19/10 53/21/10 54/22/10 52/20/10
f 53/21/11 55/23/11 56/24/11 54/22/11
f 55/23/12 57/25/12 58/26/12 56/24/12
f 57/25/13 59/27/13 60/28/13 58/26/13
f 59/27/14 61/29/14 62/30/14 60/28/14
f 61/29/15 63/31/15 64/32/15 62/30/15
f 63/31/16 33/33/16 36/34/16 64/32/16
o cleat
usemtl cleat
f 65/35/17 66/36/17 67/37/17 68/38/17
f 69/38/18 70/37/18 71/36/18 72/35/18
f 72/36/19 71/35/19 66/38/19 65/37/19
f 70/36/20 69/35/20 68/38/20 67/37/20
f 69/36/21 72/35/21 65/38/21 68/37/21
f 71/36/22 70/35/22 67/38/22 66/37/22
f 73/39/17 74/40/17 75/41/17 76/42/17
f 68/42/18 77/41/18 78/40/18 65/39/18
f 65/40/19 78/39/19 74/42/19 73/41/19
f 77/40/20 68/39/20 76/42/20 75/41/20
f 68/40/21 65/39/21 73/42/21 76/41/21
f 78/40/22 77/39/22 75/42/22 74/41/22
f 79/39/17 80/40/17 81/41/17 82/42/17
f 83/42/18 67/41/18 66/40/18 84/39/18
f 84/40/19 66/39/19 80/42/19 79/41/19
f 67/40/20 83/39/20 82/42/20 81/41/20
f 83/40/21 84/39/21 79/42/21 82/41/21
f 66/40/22 67/39/22 81/42/22 80/41/22
f 85/39/17 86/40/17 87/41/17 88/42/17
f 89/42/18 90/41/18 91/40/18 92/39/18
f 92/40/19 91/39/19 86/42/19 85/41/19
f 90/40/20 89/39/20 88/42/20 87/41/20
f 89/40/21 92/39/21 85/42/21 88/41/21
f 91/40/22 90/39/22 87/42/22 86/41/22
f 93/35/20 94/43/20 95/44/20 96/38/20
f 94/43/23 97/45/23 98/46/23 95/44/23
f 97/45/24 99/47/24 100/48/24 98/46/24
f 99/47/19 101/49/19 102/50/19 100/48/19
f 101/49/25 103/51/25 104/52/25 102/50/25
f 103/51/26 93/36/26 96/37/26 104/52/26
f 99/53/18 97/54/18 94/55/18 93/56/18
f 103/57/18 101/58/18 99/53/18 93/56/18
f 105/35/20 106/43/20 107/44/20 108/38/20
f 106/43/23 109/45/23 110/46/23 107/44/23
f 109/45/24 111/47/24 112/48/24 110/46/24
f 111/47/19 113/49/19 114/50/19 112/48/19
f 113/49/25 115/51/25 116/52/25 114/50/25
f 115/51/26 105/36/26 108/37/26 116/52/26
f 111/53/18 109/54/18 106/55/18 105/56/18
f 115/57/18 113/58/18 111/53/18 105/56/18
