# generated by tools/gen_grid_models.py - do not edit by hand
mtllib power_box.mtl
v -0.340000 0.000000 0.200000
v 0.340000 0.000000 0.200000
v 0.340000 0.000000 -0.200000
v -0.340000 0.000000 -0.200000
v -0.340000 0.055000 -0.200000
v 0.340000 0.055000 -0.200000
v 0.340000 0.055000 0.200000
v -0.340000 0.055000 0.200000
v -0.310000 0.055000 0.170000
v 0.310000 0.055000 0.170000
v 0.310000 0.055000 -0.170000
v -0.310000 0.055000 -0.170000
v -0.310000 0.700000 -0.170000
v 0.310000 0.700000 -0.170000
v 0.310000 0.700000 0.170000
v -0.310000 0.700000 0.170000
v -0.318000 0.055000 -0.170000
v -0.310000 0.055000 -0.178000
v -0.318000 0.055000 -0.178000
v -0.318000 0.700000 -0.178000
v -0.310000 0.700000 -0.178000
v -0.318000 0.700000 -0.170000
v -0.318000 0.055000 0.178000
v -0.310000 0.055000 0.178000
v -0.318000 0.055000 0.170000
v -0.318000 0.700000 0.170000
v -0.310000 0.700000 0.178000
v -0.318000 0.700000 0.178000
v 0.318000 0.055000 -0.170000
v 0.318000 0.055000 -0.178000
v 0.310000 0.055000 -0.178000
v 0.310000 0.700000 -0.178000
v 0.318000 0.700000 -0.178000
v 0.318000 0.700000 -0.170000
v 0.310000 0.055000 0.178000
v 0.318000 0.055000 0.178000
v 0.318000 0.055000 0.170000
v 0.318000 0.700000 0.170000
v 0.318000 0.700000 0.178000
v 0.310000 0.700000 0.178000
v -0.342000 0.700000 0.202000
v 0.342000 0.700000 0.202000
v 0.342000 0.700000 -0.202000
v -0.342000 0.700000 -0.202000
v -0.342000 0.738000 -0.202000
v 0.342000 0.738000 -0.202000
v 0.342000 0.738000 0.202000
v -0.342000 0.738000 0.202000
v -0.342000 0.684000 -0.190000
v 0.342000 0.684000 -0.190000
v 0.342000 0.684000 -0.202000
v -0.342000 0.684000 -0.202000
v -0.342000 0.706000 -0.202000
v 0.342000 0.706000 -0.202000
v 0.342000 0.706000 -0.190000
v -0.342000 0.706000 -0.190000
v -0.285000 0.085000 -0.170000
v -0.008000 0.085000 -0.170000
v -0.008000 0.085000 -0.192000
v -0.285000 0.085000 -0.192000
v -0.285000 0.670000 -0.192000
v -0.008000 0.670000 -0.192000
v -0.008000 0.670000 -0.170000
v -0.285000 0.670000 -0.170000
v -0.053000 0.340000 -0.192000
v -0.033000 0.340000 -0.192000
v -0.033000 0.340000 -0.212000
v -0.053000 0.340000 -0.212000
v -0.053000 0.440000 -0.212000
v -0.033000 0.440000 -0.212000
v -0.033000 0.440000 -0.192000
v -0.053000 0.440000 -0.192000
v -0.285000 0.130000 -0.192000
v -0.275000 0.130000 -0.192000
v -0.275000 0.130000 -0.202000
v -0.285000 0.130000 -0.202000
v -0.285000 0.175000 -0.202000
v -0.275000 0.175000 -0.202000
v -0.275000 0.175000 -0.192000
v -0.285000 0.175000 -0.192000
v -0.285000 0.595000 -0.192000
v -0.275000 0.595000 -0.192000
v -0.275000 0.595000 -0.202000
v -0.285000 0.595000 -0.202000
v -0.285000 0.640000 -0.202000
v -0.275000 0.640000 -0.202000
v -0.275000 0.640000 -0.192000
v -0.285000 0.640000 -0.192000
v 0.008000 0.085000 -0.170000
v 0.285000 0.085000 -0.170000
v 0.285000 0.085000 -0.192000
v 0.008000 0.085000 -0.192000
v 0.008000 0.670000 -0.192000
v 0.285000 0.670000 -0.192000
v 0.285000 0.670000 -0.170000
v 0.008000 0.670000 -0.170000
v 0.033000 0.340000 -0.192000
v 0.053000 0.340000 -0.192000
v 0.053000 0.340000 -0.212000
v 0.033000 0.340000 -0.212000
v 0.033000 0.440000 -0.212000
v 0.053000 0.440000 -0.212000
v 0.053000 0.440000 -0.192000
v 0.033000 0.440000 -0.192000
v 0.275000 0.130000 -0.192000
v 0.285000 0.130000 -0.192000
v 0.285000 0.130000 -0.202000
v 0.275000 0.130000 -0.202000
v 0.275000 0.175000 -0.202000
v 0.285000 0.175000 -0.202000
v 0.285000 0.175000 -0.192000
v 0.275000 0.175000 -0.192000
v 0.275000 0.595000 -0.192000
v 0.285000 0.595000 -0.192000
v 0.285000 0.595000 -0.202000
v 0.275000 0.595000 -0.202000
v 0.275000 0.640000 -0.202000
v 0.285000 0.640000 -0.202000
v 0.285000 0.640000 -0.192000
v 0.275000 0.640000 -0.192000
v -0.010000 0.085000 -0.188000
v 0.010000 0.085000 -0.188000
v 0.010000 0.085000 -0.194000
v -0.010000 0.085000 -0.194000
v -0.010000 0.670000 -0.194000
v 0.010000 0.670000 -0.194000
v 0.010000 0.670000 -0.188000
v -0.010000 0.670000 -0.188000
v 0.310000 0.200000 0.115000
v 0.313000 0.200000 0.115000
v 0.313000 0.200000 -0.115000
v 0.310000 0.200000 -0.115000
v 0.310000 0.580000 -0.115000
v 0.313000 0.580000 -0.115000
v 0.313000 0.580000 0.115000
v 0.310000 0.580000 0.115000
v -0.313000 0.200000 0.115000
v -0.310000 0.200000 0.115000
v -0.310000 0.200000 -0.115000
v -0.313000 0.200000 -0.115000
v -0.313000 0.580000 -0.115000
v -0.310000 0.580000 -0.115000
v -0.310000 0.580000 0.115000
v -0.313000 0.580000 0.115000
v 0.060000 0.724000 0.000000
v 0.058847 0.724000 0.011705
v 0.058847 0.752000 0.011705
v 0.060000 0.752000 0.000000
v 0.055433 0.724000 0.022961
v 0.055433 0.752000 0.022961
v 0.049888 0.724000 0.033334
v 0.049888 0.752000 0.033334
v 0.042426 0.724000 0.042426
v 0.042426 0.752000 0.042426
v 0.033334 0.724000 0.049888
v 0.033334 0.752000 0.049888
v 0.022961 0.724000 0.055433
v 0.022961 0.752000 0.055433
v 0.011705 0.724000 0.058847
v 0.011705 0.752000 0.058847
v 0.000000 0.724000 0.060000
v 0.000000 0.752000 0.060000
v -0.011705 0.724000 0.058847
v -0.011705 0.752000 0.058847
v -0.022961 0.724000 0.055433
v -0.022961 0.752000 0.055433
v -0.033334 0.724000 0.049888
v -0.033334 0.752000 0.049888
v -0.042426 0.724000 0.042426
v -0.042426 0.752000 0.042426
v -0.049888 0.724000 0.033334
v -0.049888 0.752000 0.033334
v -0.055433 0.724000 0.022961
v -0.055433 0.752000 0.022961
v -0.058847 0.724000 0.011705
v -0.058847 0.752000 0.011705
v -0.060000 0.724000 0.000000
v -0.060000 0.752000 0.000000
v -0.058847 0.724000 -0.011705
v -0.058847 0.752000 -0.011705
v -0.055433 0.724000 -0.022961
v -0.055433 0.752000 -0.022961
v -0.049888 0.724000 -0.033334
v -0.049888 0.752000 -0.033334
v -0.042426 0.724000 -0.042426
v -0.042426 0.752000 -0.042426
v -0.033334 0.724000 -0.049888
v -0.033334 0.752000 -0.049888
v -0.022961 0.724000 -0.055433
v -0.022961 0.752000 -0.055433
v -0.011705 0.724000 -0.058847
v -0.011705 0.752000 -0.058847
v -0.000000 0.724000 -0.060000
v -0.000000 0.752000 -0.060000
v 0.011705 0.724000 -0.058847
v 0.011705 0.752000 -0.058847
v 0.022961 0.724000 -0.055433
v 0.022961 0.752000 -0.055433
v 0.033334 0.724000 -0.049888
v 0.033334 0.752000 -0.049888
v 0.042426 0.724000 -0.042426
v 0.042426 0.752000 -0.042426
v 0.049888 0.724000 -0.033334
v 0.049888 0.752000 -0.033334
v 0.055433 0.724000 -0.022961
v 0.055433 0.752000 -0.022961
v 0.058847 0.724000 -0.011705
v 0.058847 0.752000 -0.011705
v 0.072000 0.752000 0.000000
v 0.070617 0.752000 0.014047
v 0.038839 0.782000 0.007726
v 0.039600 0.782000 0.000000
v 0.066519 0.752000 0.027553
v 0.036586 0.782000 0.015154
v 0.059866 0.752000 0.040001
v 0.032926 0.782000 0.022001
v 0.050912 0.752000 0.050912
v 0.028001 0.782000 0.028001
v 0.040001 0.752000 0.059866
v 0.022001 0.782000 0.032926
v 0.027553 0.752000 0.066519
v 0.015154 0.782000 0.036586
v 0.014047 0.752000 0.070617
v 0.007726 0.782000 0.038839
v 0.000000 0.752000 0.072000
v 0.000000 0.782000 0.039600
v -0.014047 0.752000 0.070617
v -0.007726 0.782000 0.038839
v -0.027553 0.752000 0.066519
v -0.015154 0.782000 0.036586
v -0.040001 0.752000 0.059866
v -0.022001 0.782000 0.032926
v -0.050912 0.752000 0.050912
v -0.028001 0.782000 0.028001
v -0.059866 0.752000 0.040001
v -0.032926 0.782000 0.022001
v -0.066519 0.752000 0.027553
v -0.036586 0.782000 0.015154
v -0.070617 0.752000 0.014047
v -0.038839 0.782000 0.007726
v -0.072000 0.752000 0.000000
v -0.039600 0.782000 0.000000
v -0.070617 0.752000 -0.014047
v -0.038839 0.782000 -0.007726
v -0.066519 0.752000 -0.027553
v -0.036586 0.782000 -0.015154
v -0.059866 0.752000 -0.040001
v -0.032926 0.782000 -0.022001
v -0.050912 0.752000 -0.050912
v -0.028001 0.782000 -0.028001
v -0.040001 0.752000 -0.059866
v -0.022001 0.782000 -0.032926
v -0.027553 0.752000 -0.066519
v -0.015154 0.782000 -0.036586
v -0.014047 0.752000 -0.070617
v -0.007726 0.782000 -0.038839
v -0.000000 0.752000 -0.072000
v -0.000000 0.782000 -0.039600
v 0.014047 0.752000 -0.070617
v 0.007726 0.782000 -0.038839
v 0.027553 0.752000 -0.066519
v 0.015154 0.782000 -0.036586
v 0.040001 0.752000 -0.059866
v 0.022001 0.782000 -0.032926
v 0.050912 0.752000 -0.050912
v 0.028001 0.782000 -0.028001
v 0.059866 0.752000 -0.040001
v 0.032926 0.782000 -0.022001
v 0.066519 0.752000 -0.027553
v 0.036586 0.782000 -0.015154
v 0.070617 0.752000 -0.014047
v 0.038839 0.782000 -0.007726
v 0.070617 0.756000 0.014047
v 0.072000 0.756000 0.000000
v 0.066519 0.756000 0.027553
v 0.059866 0.756000 0.040001
v 0.050912 0.756000 0.050912
v 0.040001 0.756000 0.059866
v 0.027553 0.756000 0.066519
v 0.014047 0.756000 0.070617
v 0.000000 0.756000 0.072000
v -0.014047 0.756000 0.070617
v -0.027553 0.756000 0.066519
v -0.040001 0.756000 0.059866
v -0.050912 0.756000 0.050912
v -0.059866 0.756000 0.040001
v -0.066519 0.756000 0.027553
v -0.070617 0.756000 0.014047
v -0.072000 0.756000 0.000000
v -0.070617 0.756000 -0.014047
v -0.066519 0.756000 -0.027553
v -0.059866 0.756000 -0.040001
v -0.050912 0.756000 -0.050912
v -0.040001 0.756000 -0.059866
v -0.027553 0.756000 -0.066519
v -0.014047 0.756000 -0.070617
v -0.000000 0.756000 -0.072000
v 0.014047 0.756000 -0.070617
v 0.027553 0.756000 -0.066519
v 0.040001 0.756000 -0.059866
v 0.050912 0.756000 -0.050912
v 0.059866 0.756000 -0.040001
v 0.066519 0.756000 -0.027553
v 0.070617 0.756000 -0.014047
v 0.037440 0.779500 0.000000
v 0.036721 0.779500 0.007304
v 0.036721 0.799500 0.007304
v 0.037440 0.799500 0.000000
v 0.034590 0.779500 0.014328
v 0.034590 0.799500 0.014328
v 0.031130 0.779500 0.020801
v 0.031130 0.799500 0.020801
v 0.026474 0.779500 0.026474
v 0.026474 0.799500 0.026474
v 0.020801 0.779500 0.031130
v 0.020801 0.799500 0.031130
v 0.014328 0.779500 0.034590
v 0.014328 0.799500 0.034590
v 0.007304 0.779500 0.036721
v 0.007304 0.799500 0.036721
v 0.000000 0.779500 0.037440
v 0.000000 0.799500 0.037440
v -0.007304 0.779500 0.036721
v -0.007304 0.799500 0.036721
v -0.014328 0.779500 0.034590
v -0.014328 0.799500 0.034590
v -0.020801 0.779500 0.031130
v -0.020801 0.799500 0.031130
v -0.026474 0.779500 0.026474
v -0.026474 0.799500 0.026474
v -0.031130 0.779500 0.020801
v -0.031130 0.799500 0.020801
v -0.034590 0.779500 0.014328
v -0.034590 0.799500 0.014328
v -0.036721 0.779500 0.007304
v -0.036721 0.799500 0.007304
v -0.037440 0.779500 0.000000
v -0.037440 0.799500 0.000000
v -0.036721 0.779500 -0.007304
v -0.036721 0.799500 -0.007304
v -0.034590 0.779500 -0.014328
v -0.034590 0.799500 -0.014328
v -0.031130 0.779500 -0.020801
v -0.031130 0.799500 -0.020801
v -0.026474 0.779500 -0.026474
v -0.026474 0.799500 -0.026474
v -0.020801 0.779500 -0.031130
v -0.020801 0.799500 -0.031130
v -0.014328 0.779500 -0.034590
v -0.014328 0.799500 -0.034590
v -0.007304 0.779500 -0.036721
v -0.007304 0.799500 -0.036721
v -0.000000 0.779500 -0.037440
v -0.000000 0.799500 -0.037440
v 0.007304 0.779500 -0.036721
v 0.007304 0.799500 -0.036721
v 0.014328 0.779500 -0.034590
v 0.014328 0.799500 -0.034590
v 0.020801 0.779500 -0.031130
v 0.020801 0.799500 -0.031130
v 0.026474 0.779500 -0.026474
v 0.026474 0.799500 -0.026474
v 0.031130 0.779500 -0.020801
v 0.031130 0.799500 -0.020801
v 0.034590 0.779500 -0.014328
v 0.034590 0.799500 -0.014328
v 0.036721 0.779500 -0.007304
v 0.036721 0.799500 -0.007304
v 0.065280 0.802000 0.000000
v 0.064026 0.802000 0.012735
v 0.035214 0.832000 0.007005
v 0.035904 0.832000 0.000000
v 0.060311 0.802000 0.024982
v 0.033171 0.832000 0.013740
v 0.054278 0.802000 0.036268
v 0.029853 0.832000 0.019947
v 0.046160 0.802000 0.046160
v 0.025388 0.832000 0.025388
v 0.036268 0.802000 0.054278
v 0.019947 0.832000 0.029853
v 0.024982 0.802000 0.060311
v 0.013740 0.832000 0.033171
v 0.012735 0.802000 0.064026
v 0.007005 0.832000 0.035214
v 0.000000 0.802000 0.065280
v 0.000000 0.832000 0.035904
v -0.012735 0.802000 0.064026
v -0.007005 0.832000 0.035214
v -0.024982 0.802000 0.060311
v -0.013740 0.832000 0.033171
v -0.036268 0.802000 0.054278
v -0.019947 0.832000 0.029853
v -0.046160 0.802000 0.046160
v -0.025388 0.832000 0.025388
v -0.054278 0.802000 0.036268
v -0.029853 0.832000 0.019947
v -0.060311 0.802000 0.024982
v -0.033171 0.832000 0.013740
v -0.064026 0.802000 0.012735
v -0.035214 0.832000 0.007005
v -0.065280 0.802000 0.000000
v -0.035904 0.832000 0.000000
v -0.064026 0.802000 -0.012735
v -0.035214 0.832000 -0.007005
v -0.060311 0.802000 -0.024982
v -0.033171 0.832000 -0.013740
v -0.054278 0.802000 -0.036268
v -0.029853 0.832000 -0.019947
v -0.046160 0.802000 -0.046160
v -0.025388 0.832000 -0.025388
v -0.036268 0.802000 -0.054278
v -0.019947 0.832000 -0.029853
v -0.024982 0.802000 -0.060311
v -0.013740 0.832000 -0.033171
v -0.012735 0.802000 -0.064026
v -0.007005 0.832000 -0.035214
v -0.000000 0.802000 -0.065280
v -0.000000 0.832000 -0.035904
v 0.012735 0.802000 -0.064026
v 0.007005 0.832000 -0.035214
v 0.024982 0.802000 -0.060311
v 0.013740 0.832000 -0.033171
v 0.036268 0.802000 -0.054278
v 0.019947 0.832000 -0.029853
v 0.046160 0.802000 -0.046160
v 0.025388 0.832000 -0.025388
v 0.054278 0.802000 -0.036268
v 0.029853 0.832000 -0.019947
v 0.060311 0.802000 -0.024982
v 0.033171 0.832000 -0.013740
v 0.064026 0.802000 -0.012735
v 0.035214 0.832000 -0.007005
v 0.064026 0.806000 0.012735
v 0.065280 0.806000 0.000000
v 0.060311 0.806000 0.024982
v 0.054278 0.806000 0.036268
v 0.046160 0.806000 0.046160
v 0.036268 0.806000 0.054278
v 0.024982 0.806000 0.060311
v 0.012735 0.806000 0.064026
v 0.000000 0.806000 0.065280
v -0.012735 0.806000 0.064026
v -0.024982 0.806000 0.060311
v -0.036268 0.806000 0.054278
v -0.046160 0.806000 0.046160
v -0.054278 0.806000 0.036268
v -0.060311 0.806000 0.024982
v -0.064026 0.806000 0.012735
v -0.065280 0.806000 0.000000
v -0.064026 0.806000 -0.012735
v -0.060311 0.806000 -0.024982
v -0.054278 0.806000 -0.036268
v -0.046160 0.806000 -0.046160
v -0.036268 0.806000 -0.054278
v -0.024982 0.806000 -0.060311
v -0.012735 0.806000 -0.064026
v -0.000000 0.806000 -0.065280
v 0.012735 0.806000 -0.064026
v 0.024982 0.806000 -0.060311
v 0.036268 0.806000 -0.054278
v 0.046160 0.806000 -0.046160
v 0.054278 0.806000 -0.036268
v 0.060311 0.806000 -0.024982
v 0.064026 0.806000 -0.012735
v 0.033946 0.829500 0.000000
v 0.033293 0.829500 0.006622
v 0.033293 0.849500 0.006622
v 0.033946 0.849500 0.000000
v 0.031362 0.829500 0.012990
v 0.031362 0.849500 0.012990
v 0.028225 0.829500 0.018859
v 0.028225 0.849500 0.018859
v 0.024003 0.829500 0.024003
v 0.024003 0.849500 0.024003
v 0.018859 0.829500 0.028225
v 0.018859 0.849500 0.028225
v 0.012990 0.829500 0.031362
v 0.012990 0.849500 0.031362
v 0.006622 0.829500 0.033293
v 0.006622 0.849500 0.033293
v 0.000000 0.829500 0.033946
v 0.000000 0.849500 0.033946
v -0.006622 0.829500 0.033293
v -0.006622 0.849500 0.033293
v -0.012990 0.829500 0.031362
v -0.012990 0.849500 0.031362
v -0.018859 0.829500 0.028225
v -0.018859 0.849500 0.028225
v -0.024003 0.829500 0.024003
v -0.024003 0.849500 0.024003
v -0.028225 0.829500 0.018859
v -0.028225 0.849500 0.018859
v -0.031362 0.829500 0.012990
v -0.031362 0.849500 0.012990
v -0.033293 0.829500 0.006622
v -0.033293 0.849500 0.006622
v -0.033946 0.829500 0.000000
v -0.033946 0.849500 0.000000
v -0.033293 0.829500 -0.006622
v -0.033293 0.849500 -0.006622
v -0.031362 0.829500 -0.012990
v -0.031362 0.849500 -0.012990
v -0.028225 0.829500 -0.018859
v -0.028225 0.849500 -0.018859
v -0.024003 0.829500 -0.024003
v -0.024003 0.849500 -0.024003
v -0.018859 0.829500 -0.028225
v -0.018859 0.849500 -0.028225
v -0.012990 0.829500 -0.031362
v -0.012990 0.849500 -0.031362
v -0.006622 0.829500 -0.033293
v -0.006622 0.849500 -0.033293
v -0.000000 0.829500 -0.033946
v -0.000000 0.849500 -0.033946
v 0.006622 0.829500 -0.033293
v 0.006622 0.849500 -0.033293
v 0.012990 0.829500 -0.031362
v 0.012990 0.849500 -0.031362
v 0.018859 0.829500 -0.028225
v 0.018859 0.849500 -0.028225
v 0.024003 0.829500 -0.024003
v 0.024003 0.849500 -0.024003
v 0.028225 0.829500 -0.018859
v 0.028225 0.849500 -0.018859
v 0.031362 0.829500 -0.012990
v 0.031362 0.849500 -0.012990
v 0.033293 0.829500 -0.006622
v 0.033293 0.849500 -0.006622
v 0.058560 0.852000 0.000000
v 0.057435 0.852000 0.011424
v 0.031589 0.882000 0.006283
v 0.032208 0.882000 0.000000
v 0.054102 0.852000 0.022410
v 0.029756 0.882000 0.012325
v 0.048691 0.852000 0.032534
v 0.026780 0.882000 0.017894
v 0.041408 0.852000 0.041408
v 0.022774 0.882000 0.022774
v 0.032534 0.852000 0.048691
v 0.017894 0.882000 0.026780
v 0.022410 0.852000 0.054102
v 0.012325 0.882000 0.029756
v 0.011424 0.852000 0.057435
v 0.006283 0.882000 0.031589
v 0.000000 0.852000 0.058560
v 0.000000 0.882000 0.032208
v -0.011424 0.852000 0.057435
v -0.006283 0.882000 0.031589
v -0.022410 0.852000 0.054102
v -0.012325 0.882000 0.029756
v -0.032534 0.852000 0.048691
v -0.017894 0.882000 0.026780
v -0.041408 0.852000 0.041408
v -0.022774 0.882000 0.022774
v -0.048691 0.852000 0.032534
v -0.026780 0.882000 0.017894
v -0.054102 0.852000 0.022410
v -0.029756 0.882000 0.012325
v -0.057435 0.852000 0.011424
v -0.031589 0.882000 0.006283
v -0.058560 0.852000 0.000000
v -0.032208 0.882000 0.000000
v -0.057435 0.852000 -0.011424
v -0.031589 0.882000 -0.006283
v -0.054102 0.852000 -0.022410
v -0.029756 0.882000 -0.012325
v -0.048691 0.852000 -0.032534
v -0.026780 0.882000 -0.017894
v -0.041408 0.852000 -0.041408
v -0.022774 0.882000 -0.022774
v -0.032534 0.852000 -0.048691
v -0.017894 0.882000 -0.026780
v -0.022410 0.852000 -0.054102
v -0.012325 0.882000 -0.029756
v -0.011424 0.852000 -0.057435
v -0.006283 0.882000 -0.031589
v -0.000000 0.852000 -0.058560
v -0.000000 0.882000 -0.032208
v 0.011424 0.852000 -0.057435
v 0.006283 0.882000 -0.031589
v 0.022410 0.852000 -0.054102
v 0.012325 0.882000 -0.029756
v 0.032534 0.852000 -0.048691
v 0.017894 0.882000 -0.026780
v 0.041408 0.852000 -0.041408
v 0.022774 0.882000 -0.022774
v 0.048691 0.852000 -0.032534
v 0.026780 0.882000 -0.017894
v 0.054102 0.852000 -0.022410
v 0.029756 0.882000 -0.012325
v 0.057435 0.852000 -0.011424
v 0.031589 0.882000 -0.006283
v 0.057435 0.856000 0.011424
v 0.058560 0.856000 0.000000
v 0.054102 0.856000 0.022410
v 0.048691 0.856000 0.032534
v 0.041408 0.856000 0.041408
v 0.032534 0.856000 0.048691
v 0.022410 0.856000 0.054102
v 0.011424 0.856000 0.057435
v 0.000000 0.856000 0.058560
v -0.011424 0.856000 0.057435
v -0.022410 0.856000 0.054102
v -0.032534 0.856000 0.048691
v -0.041408 0.856000 0.041408
v -0.048691 0.856000 0.032534
v -0.054102 0.856000 0.022410
v -0.057435 0.856000 0.011424
v -0.058560 0.856000 0.000000
v -0.057435 0.856000 -0.011424
v -0.054102 0.856000 -0.022410
v -0.048691 0.856000 -0.032534
v -0.041408 0.856000 -0.041408
v -0.032534 0.856000 -0.048691
v -0.022410 0.856000 -0.054102
v -0.011424 0.856000 -0.057435
v -0.000000 0.856000 -0.058560
v 0.011424 0.856000 -0.057435
v 0.022410 0.856000 -0.054102
v 0.032534 0.856000 -0.048691
v 0.041408 0.856000 -0.041408
v 0.048691 0.856000 -0.032534
v 0.054102 0.856000 -0.022410
v 0.057435 0.856000 -0.011424
v 0.030451 0.879500 0.000000
v 0.029866 0.879500 0.005941
v 0.029866 0.899500 0.005941
v 0.030451 0.899500 0.000000
v 0.028133 0.879500 0.011653
v 0.028133 0.899500 0.011653
v 0.025319 0.879500 0.016918
v 0.025319 0.899500 0.016918
v 0.021532 0.879500 0.021532
v 0.021532 0.899500 0.021532
v 0.016918 0.879500 0.025319
v 0.016918 0.899500 0.025319
v 0.011653 0.879500 0.028133
v 0.011653 0.899500 0.028133
v 0.005941 0.879500 0.029866
v 0.005941 0.899500 0.029866
v 0.000000 0.879500 0.030451
v 0.000000 0.899500 0.030451
v -0.005941 0.879500 0.029866
v -0.005941 0.899500 0.029866
v -0.011653 0.879500 0.028133
v -0.011653 0.899500 0.028133
v -0.016918 0.879500 0.025319
v -0.016918 0.899500 0.025319
v -0.021532 0.879500 0.021532
v -0.021532 0.899500 0.021532
v -0.025319 0.879500 0.016918
v -0.025319 0.899500 0.016918
v -0.028133 0.879500 0.011653
v -0.028133 0.899500 0.011653
v -0.029866 0.879500 0.005941
v -0.029866 0.899500 0.005941
v -0.030451 0.879500 0.000000
v -0.030451 0.899500 0.000000
v -0.029866 0.879500 -0.005941
v -0.029866 0.899500 -0.005941
v -0.028133 0.879500 -0.011653
v -0.028133 0.899500 -0.011653
v -0.025319 0.879500 -0.016918
v -0.025319 0.899500 -0.016918
v -0.021532 0.879500 -0.021532
v -0.021532 0.899500 -0.021532
v -0.016918 0.879500 -0.025319
v -0.016918 0.899500 -0.025319
v -0.011653 0.879500 -0.028133
v -0.011653 0.899500 -0.028133
v -0.005941 0.879500 -0.029866
v -0.005941 0.899500 -0.029866
v -0.000000 0.879500 -0.030451
v -0.000000 0.899500 -0.030451
v 0.005941 0.879500 -0.029866
v 0.005941 0.899500 -0.029866
v 0.011653 0.879500 -0.028133
v 0.011653 0.899500 -0.028133
v 0.016918 0.879500 -0.025319
v 0.016918 0.899500 -0.025319
v 0.021532 0.879500 -0.021532
v 0.021532 0.899500 -0.021532
v 0.025319 0.879500 -0.016918
v 0.025319 0.899500 -0.016918
v 0.028133 0.879500 -0.011653
v 0.028133 0.899500 -0.011653
v 0.029866 0.879500 -0.005941
v 0.029866 0.899500 -0.005941
v 0.032141 0.897000 0.000000
v 0.031523 0.897000 0.006270
v 0.031523 0.907000 0.006270
v 0.032141 0.907000 0.000000
v 0.029694 0.897000 0.012300
v 0.029694 0.907000 0.012300
v 0.026724 0.897000 0.017856
v 0.026724 0.907000 0.017856
v 0.022727 0.897000 0.022727
v 0.022727 0.907000 0.022727
v 0.017856 0.897000 0.026724
v 0.017856 0.907000 0.026724
v 0.012300 0.897000 0.029694
v 0.012300 0.907000 0.029694
v 0.006270 0.897000 0.031523
v 0.006270 0.907000 0.031523
v 0.000000 0.897000 0.032141
v 0.000000 0.907000 0.032141
v -0.006270 0.897000 0.031523
v -0.006270 0.907000 0.031523
v -0.012300 0.897000 0.029694
v -0.012300 0.907000 0.029694
v -0.017856 0.897000 0.026724
v -0.017856 0.907000 0.026724
v -0.022727 0.897000 0.022727
v -0.022727 0.907000 0.022727
v -0.026724 0.897000 0.017856
v -0.026724 0.907000 0.017856
v -0.029694 0.897000 0.012300
v -0.029694 0.907000 0.012300
v -0.031523 0.897000 0.006270
v -0.031523 0.907000 0.006270
v -0.032141 0.897000 0.000000
v -0.032141 0.907000 0.000000
v -0.031523 0.897000 -0.006270
v -0.031523 0.907000 -0.006270
v -0.029694 0.897000 -0.012300
v -0.029694 0.907000 -0.012300
v -0.026724 0.897000 -0.017856
v -0.026724 0.907000 -0.017856
v -0.022727 0.897000 -0.022727
v -0.022727 0.907000 -0.022727
v -0.017856 0.897000 -0.026724
v -0.017856 0.907000 -0.026724
v -0.012300 0.897000 -0.029694
v -0.012300 0.907000 -0.029694
v -0.006270 0.897000 -0.031523
v -0.006270 0.907000 -0.031523
v -0.000000 0.897000 -0.032141
v -0.000000 0.907000 -0.032141
v 0.006270 0.897000 -0.031523
v 0.006270 0.907000 -0.031523
v 0.012300 0.897000 -0.029694
v 0.012300 0.907000 -0.029694
v 0.017856 0.897000 -0.026724
v 0.017856 0.907000 -0.026724
v 0.022727 0.897000 -0.022727
v 0.022727 0.907000 -0.022727
v 0.026724 0.897000 -0.017856
v 0.026724 0.907000 -0.017856
v 0.029694 0.897000 -0.012300
v 0.029694 0.907000 -0.012300
v 0.031523 0.897000 -0.006270
v 0.031523 0.907000 -0.006270
v 0.026000 0.889000 0.000000
v 0.025500 0.889000 0.005072
v 0.025500 0.921000 0.005072
v 0.026000 0.921000 0.000000
v 0.024021 0.889000 0.009950
v 0.024021 0.921000 0.009950
v 0.021618 0.889000 0.014445
v 0.021618 0.921000 0.014445
v 0.018385 0.889000 0.018385
v 0.018385 0.921000 0.018385
v 0.014445 0.889000 0.021618
v 0.014445 0.921000 0.021618
v 0.009950 0.889000 0.024021
v 0.009950 0.921000 0.024021
v 0.005072 0.889000 0.025500
v 0.005072 0.921000 0.025500
v 0.000000 0.889000 0.026000
v 0.000000 0.921000 0.026000
v -0.005072 0.889000 0.025500
v -0.005072 0.921000 0.025500
v -0.009950 0.889000 0.024021
v -0.009950 0.921000 0.024021
v -0.014445 0.889000 0.021618
v -0.014445 0.921000 0.021618
v -0.018385 0.889000 0.018385
v -0.018385 0.921000 0.018385
v -0.021618 0.889000 0.014445
v -0.021618 0.921000 0.014445
v -0.024021 0.889000 0.009950
v -0.024021 0.921000 0.009950
v -0.025500 0.889000 0.005072
v -0.025500 0.921000 0.005072
v -0.026000 0.889000 0.000000
v -0.026000 0.921000 0.000000
v -0.025500 0.889000 -0.005072
v -0.025500 0.921000 -0.005072
v -0.024021 0.889000 -0.009950
v -0.024021 0.921000 -0.009950
v -0.021618 0.889000 -0.014445
v -0.021618 0.921000 -0.014445
v -0.018385 0.889000 -0.018385
v -0.018385 0.921000 -0.018385
v -0.014445 0.889000 -0.021618
v -0.014445 0.921000 -0.021618
v -0.009950 0.889000 -0.024021
v -0.009950 0.921000 -0.024021
v -0.005072 0.889000 -0.025500
v -0.005072 0.921000 -0.025500
v -0.000000 0.889000 -0.026000
v -0.000000 0.921000 -0.026000
v 0.005072 0.889000 -0.025500
v 0.005072 0.921000 -0.025500
v 0.009950 0.889000 -0.024021
v 0.009950 0.921000 -0.024021
v 0.014445 0.889000 -0.021618
v 0.014445 0.921000 -0.021618
v 0.018385 0.889000 -0.018385
v 0.018385 0.921000 -0.018385
v 0.021618 0.889000 -0.014445
v 0.021618 0.921000 -0.014445
v 0.024021 0.889000 -0.009950
v 0.024021 0.921000 -0.009950
v 0.025500 0.889000 -0.005072
v 0.025500 0.921000 -0.005072
v 0.190000 0.000000 0.190000
v 0.189424 0.000000 0.195853
v 0.189424 0.060000 0.195853
v 0.190000 0.060000 0.190000
v 0.187716 0.000000 0.201481
v 0.187716 0.060000 0.201481
v 0.184944 0.000000 0.206667
v 0.184944 0.060000 0.206667
v 0.181213 0.000000 0.211213
v 0.181213 0.060000 0.211213
v 0.176667 0.000000 0.214944
v 0.176667 0.060000 0.214944
v 0.171481 0.000000 0.217716
v 0.171481 0.060000 0.217716
v 0.165853 0.000000 0.219424
v 0.165853 0.060000 0.219424
v 0.160000 0.000000 0.220000
v 0.160000 0.060000 0.220000
v 0.154147 0.000000 0.219424
v 0.154147 0.060000 0.219424
v 0.148519 0.000000 0.217716
v 0.148519 0.060000 0.217716
v 0.143333 0.000000 0.214944
v 0.143333 0.060000 0.214944
v 0.138787 0.000000 0.211213
v 0.138787 0.060000 0.211213
v 0.135056 0.000000 0.206667
v 0.135056 0.060000 0.206667
v 0.132284 0.000000 0.201481
v 0.132284 0.060000 0.201481
v 0.130576 0.000000 0.195853
v 0.130576 0.060000 0.195853
v 0.130000 0.000000 0.190000
v 0.130000 0.060000 0.190000
v 0.130576 0.000000 0.184147
v 0.130576 0.060000 0.184147
v 0.132284 0.000000 0.178519
v 0.132284 0.060000 0.178519
v 0.135056 0.000000 0.173333
v 0.135056 0.060000 0.173333
v 0.138787 0.000000 0.168787
v 0.138787 0.060000 0.168787
v 0.143333 0.000000 0.165056
v 0.143333 0.060000 0.165056
v 0.148519 0.000000 0.162284
v 0.148519 0.060000 0.162284
v 0.154147 0.000000 0.160576
v 0.154147 0.060000 0.160576
v 0.160000 0.000000 0.160000
v 0.160000 0.060000 0.160000
v 0.165853 0.000000 0.160576
v 0.165853 0.060000 0.160576
v 0.171481 0.000000 0.162284
v 0.171481 0.060000 0.162284
v 0.176667 0.000000 0.165056
v 0.176667 0.060000 0.165056
v 0.181213 0.000000 0.168787
v 0.181213 0.060000 0.168787
v 0.184944 0.000000 0.173333
v 0.184944 0.060000 0.173333
v 0.187716 0.000000 0.178519
v 0.187716 0.060000 0.178519
v 0.189424 0.000000 0.184147
v 0.189424 0.060000 0.184147
v 0.182000 0.030000 0.190000
v 0.181577 0.030000 0.194292
v 0.181577 0.120000 0.194292
v 0.182000 0.120000 0.190000
v 0.180325 0.030000 0.198419
v 0.180325 0.120000 0.198419
v 0.178292 0.030000 0.202223
v 0.178292 0.120000 0.202223
v 0.175556 0.030000 0.205556
v 0.175556 0.120000 0.205556
v 0.172223 0.030000 0.208292
v 0.172223 0.120000 0.208292
v 0.168419 0.030000 0.210325
v 0.168419 0.120000 0.210325
v 0.164292 0.030000 0.211577
v 0.164292 0.120000 0.211577
v 0.160000 0.030000 0.212000
v 0.160000 0.120000 0.212000
v 0.155708 0.030000 0.211577
v 0.155708 0.120000 0.211577
v 0.151581 0.030000 0.210325
v 0.151581 0.120000 0.210325
v 0.147777 0.030000 0.208292
v 0.147777 0.120000 0.208292
v 0.144444 0.030000 0.205556
v 0.144444 0.120000 0.205556
v 0.141708 0.030000 0.202223
v 0.141708 0.120000 0.202223
v 0.139675 0.030000 0.198419
v 0.139675 0.120000 0.198419
v 0.138423 0.030000 0.194292
v 0.138423 0.120000 0.194292
v 0.138000 0.030000 0.190000
v 0.138000 0.120000 0.190000
v 0.138423 0.030000 0.185708
v 0.138423 0.120000 0.185708
v 0.139675 0.030000 0.181581
v 0.139675 0.120000 0.181581
v 0.141708 0.030000 0.177777
v 0.141708 0.120000 0.177777
v 0.144444 0.030000 0.174444
v 0.144444 0.120000 0.174444
v 0.147777 0.030000 0.171708
v 0.147777 0.120000 0.171708
v 0.151581 0.030000 0.169675
v 0.151581 0.120000 0.169675
v 0.155708 0.030000 0.168423
v 0.155708 0.120000 0.168423
v 0.160000 0.030000 0.168000
v 0.160000 0.120000 0.168000
v 0.164292 0.030000 0.168423
v 0.164292 0.120000 0.168423
v 0.168419 0.030000 0.169675
v 0.168419 0.120000 0.169675
v 0.172223 0.030000 0.171708
v 0.172223 0.120000 0.171708
v 0.175556 0.030000 0.174444
v 0.175556 0.120000 0.174444
v 0.178292 0.030000 0.177777
v 0.178292 0.120000 0.177777
v 0.180325 0.030000 0.181581
v 0.180325 0.120000 0.181581
v 0.181577 0.030000 0.185708
v 0.181577 0.120000 0.185708
vn 0.0000 -1.0000 0.0000
vn 0.0000 1.0000 0.0000
vn 0.0000 0.0000 -1.0000
vn 0.0000 0.0000 1.0000
vn -1.0000 0.0000 0.0000
vn 1.0000 0.0000 0.0000
vn 0.9952 0.0000 0.0980
vn 0.9569 0.0000 0.2903
vn 0.8819 0.0000 0.4714
vn 0.7730 0.0000 0.6344
vn 0.6344 0.0000 0.7730
vn 0.4714 0.0000 0.8819
vn 0.2903 0.0000 0.9569
vn 0.0980 0.0000 0.9952
vn -0.0980 0.0000 0.9952
vn -0.2903 0.0000 0.9569
vn -0.4714 0.0000 0.8819
vn -0.6344 0.0000 0.7730
vn -0.7730 0.0000 0.6344
vn -0.8819 0.0000 0.4714
vn -0.9569 0.0000 0.2903
vn -0.9952 0.0000 0.0980
vn -0.9952 0.0000 -0.0980
vn -0.9569 0.0000 -0.2903
vn -0.8819 0.0000 -0.4714
vn -0.7730 0.0000 -0.6344
vn -0.6344 0.0000 -0.7730
vn -0.4714 0.0000 -0.8819
vn -0.2903 0.0000 -0.9569
vn -0.0980 0.0000 -0.9952
vn 0.0980 0.0000 -0.9952
vn 0.2903 0.0000 -0.9569
vn 0.4714 0.0000 -0.8819
vn 0.6344 0.0000 -0.7730
vn 0.7730 0.0000 -0.6344
vn 0.8819 0.0000 -0.4714
vn 0.9569 0.0000 -0.2903
vn 0.9952 0.0000 -0.0980
vn 0.9976 0.0000 0.0695
vn 0.9648 0.0000 0.2628
vn 0.8950 0.0000 0.4460
vn 0.7908 0.0000 0.6120
vn 0.6562 0.0000 0.7546
vn 0.4964 0.0000 0.8681
vn 0.3175 0.0000 0.9483
vn 0.1264 0.0000 0.9920
vn -0.0695 0.0000 0.9976
vn -0.2628 0.0000 0.9648
vn -0.4460 0.0000 0.8950
vn -0.6120 0.0000 0.7908
vn -0.7546 0.0000 0.6562
vn -0.8681 0.0000 0.4964
vn -0.9483 0.0000 0.3175
vn -0.9920 0.0000 0.1264
vn -0.9976 0.0000 -0.0695
vn -0.9648 0.0000 -0.2628
vn -0.8950 0.0000 -0.4460
vn -0.7908 0.0000 -0.6120
vn -0.6562 0.0000 -0.7546
vn -0.4964 0.0000 -0.8681
vn -0.3175 0.0000 -0.9483
vn -0.1264 0.0000 -0.9920
vn 0.0695 0.0000 -0.9976
vn 0.2628 0.0000 -0.9648
vn 0.4460 0.0000 -0.8950
vn 0.6120 0.0000 -0.7908
vn 0.7546 0.0000 -0.6562
vn 0.8681 0.0000 -0.4964
vn 0.9483 0.0000 -0.3175
vn 0.9920 0.0000 -0.1264
vt 0.000000 0.000000
vt 0.800000 0.000000
vt 0.800000 0.800000
vt 0.000000 0.800000
vt 1.000000 0.000000
vt 1.000000 1.000000
vt 0.000000 1.000000
vt 0.100000 0.000000
vt 0.100000 0.100000
vt 0.000000 0.100000
vt 0.700000 0.000000
vt 0.700000 0.700000
vt 0.000000 0.700000
vt 0.300000 0.000000
vt 0.300000 0.300000
vt 0.000000 0.300000
vt 0.120000 0.000000
vt 0.120000 0.120000
vt 0.000000 0.120000
vt 0.009375 0.000000
vt 0.009375 0.300000
vt 0.018750 0.000000
vt 0.018750 0.300000
vt 0.028125 0.000000
vt 0.028125 0.300000
vt 0.037500 0.000000
vt 0.037500 0.300000
vt 0.046875 0.000000
vt 0.046875 0.300000
vt 0.056250 0.000000
vt 0.056250 0.300000
vt 0.065625 0.000000
vt 0.065625 0.300000
vt 0.075000 0.000000
vt 0.075000 0.300000
vt 0.084375 0.000000
vt 0.084375 0.300000
vt 0.093750 0.000000
vt 0.093750 0.300000
vt 0.103125 0.000000
vt 0.103125 0.300000
vt 0.112500 0.000000
vt 0.112500 0.300000
vt 0.121875 0.000000
vt 0.121875 0.300000
vt 0.131250 0.000000
vt 0.131250 0.300000
vt 0.140625 0.000000
vt 0.140625 0.300000
vt 0.150000 0.000000
vt 0.150000 0.300000
vt 0.159375 0.000000
vt 0.159375 0.300000
vt 0.168750 0.000000
vt 0.168750 0.300000
vt 0.178125 0.000000
vt 0.178125 0.300000
vt 0.187500 0.000000
vt 0.187500 0.300000
vt 0.196875 0.000000
vt 0.196875 0.300000
vt 0.206250 0.000000
vt 0.206250 0.300000
vt 0.215625 0.000000
vt 0.215625 0.300000
vt 0.225000 0.000000
vt 0.225000 0.300000
vt 0.234375 0.000000
vt 0.234375 0.300000
vt 0.243750 0.000000
vt 0.243750 0.300000
vt 0.253125 0.000000
vt 0.253125 0.300000
vt 0.262500 0.000000
vt 0.262500 0.300000
vt 0.271875 0.000000
vt 0.271875 0.300000
vt 0.281250 0.000000
vt 0.281250 0.300000
vt 0.290625 0.000000
vt 0.290625 0.300000
vt 0.990393 0.402455
vt 0.961940 0.308658
vt 0.915735 0.222215
vt 0.853553 0.146447
vt 0.777785 0.084265
vt 0.691342 0.038060
vt 0.597545 0.009607
vt 0.500000 0.000000
vt 0.402455 0.009607
vt 0.308658 0.038060
vt 0.222215 0.084265
vt 0.146447 0.146447
vt 0.084265 0.222215
vt 0.038060 0.308658
vt 0.009607 0.402455
vt 0.000000 0.500000
vt 0.009607 0.597545
vt 0.038060 0.691342
vt 0.084265 0.777785
vt 0.146447 0.853553
vt 0.222215 0.915735
vt 0.308658 0.961940
vt 0.402455 0.990393
vt 0.500000 1.000000
vt 0.597545 0.990393
vt 0.691342 0.961940
vt 0.777785 0.915735
vt 0.853553 0.853553
vt 0.915735 0.777785
vt 0.961940 0.691342
vt 0.990393 0.597545
vt 1.000000 0.500000
vt 0.015625 0.000000
vt 0.015625 0.500000
vt 0.031250 0.000000
vt 0.031250 0.500000
vt 0.046875 0.500000
vt 0.062500 0.000000
vt 0.062500 0.500000
vt 0.078125 0.000000
vt 0.078125 0.500000
vt 0.093750 0.500000
vt 0.109375 0.000000
vt 0.109375 0.500000
vt 0.125000 0.000000
vt 0.125000 0.500000
vt 0.140625 0.500000
vt 0.156250 0.000000
vt 0.156250 0.500000
vt 0.171875 0.000000
vt 0.171875 0.500000
vt 0.187500 0.500000
vt 0.203125 0.000000
vt 0.203125 0.500000
vt 0.218750 0.000000
vt 0.218750 0.500000
vt 0.234375 0.500000
vt 0.250000 0.000000
vt 0.250000 0.500000
vt 0.265625 0.000000
vt 0.265625 0.500000
vt 0.281250 0.500000
vt 0.296875 0.000000
vt 0.296875 0.500000
vt 0.312500 0.000000
vt 0.312500 0.500000
vt 0.328125 0.000000
vt 0.328125 0.500000
vt 0.343750 0.000000
vt 0.343750 0.500000
vt 0.359375 0.000000
vt 0.359375 0.500000
vt 0.375000 0.000000
vt 0.375000 0.500000
vt 0.390625 0.000000
vt 0.390625 0.500000
vt 0.406250 0.000000
vt 0.406250 0.500000
vt 0.421875 0.000000
vt 0.421875 0.500000
vt 0.437500 0.000000
vt 0.437500 0.500000
vt 0.453125 0.000000
vt 0.453125 0.500000
vt 0.468750 0.000000
vt 0.468750 0.500000
vt 0.484375 0.000000
vt 0.484375 0.500000
vt 0.500000 0.500000
vt 0.006250 0.000000
vt 0.006250 0.200000
vt 0.000000 0.200000
vt 0.012500 0.000000
vt 0.012500 0.200000
vt 0.018750 0.200000
vt 0.025000 0.000000
vt 0.025000 0.200000
vt 0.031250 0.200000
vt 0.037500 0.200000
vt 0.043750 0.000000
vt 0.043750 0.200000
vt 0.050000 0.000000
vt 0.050000 0.200000
vt 0.056250 0.200000
vt 0.062500 0.200000
vt 0.068750 0.000000
vt 0.068750 0.200000
vt 0.075000 0.200000
vt 0.081250 0.000000
vt 0.081250 0.200000
vt 0.087500 0.000000
vt 0.087500 0.200000
vt 0.093750 0.200000
vt 0.100000 0.200000
vt 0.106250 0.000000
vt 0.106250 0.200000
vt 0.112500 0.200000
vt 0.118750 0.000000
vt 0.118750 0.200000
vt 0.125000 0.200000
vt 0.131250 0.200000
vt 0.137500 0.000000
vt 0.137500 0.200000
vt 0.143750 0.000000
vt 0.143750 0.200000
vt 0.150000 0.200000
vt 0.156250 0.200000
vt 0.162500 0.000000
vt 0.162500 0.200000
vt 0.168750 0.200000
vt 0.175000 0.000000
vt 0.175000 0.200000
vt 0.181250 0.000000
vt 0.181250 0.200000
vt 0.187500 0.200000
vt 0.193750 0.000000
vt 0.193750 0.200000
vt 0.200000 0.000000
vt 0.200000 0.200000
vt 0.007812 0.000000
vt 0.007812 0.250000
vt 0.000000 0.250000
vt 0.015625 0.250000
vt 0.023438 0.000000
vt 0.023438 0.250000
vt 0.031250 0.250000
vt 0.039062 0.000000
vt 0.039062 0.250000
vt 0.046875 0.250000
vt 0.054688 0.000000
vt 0.054688 0.250000
vt 0.062500 0.250000
vt 0.070312 0.000000
vt 0.070312 0.250000
vt 0.078125 0.250000
vt 0.085938 0.000000
vt 0.085938 0.250000
vt 0.093750 0.250000
vt 0.101562 0.000000
vt 0.101562 0.250000
vt 0.109375 0.250000
vt 0.117188 0.000000
vt 0.117188 0.250000
vt 0.125000 0.250000
vt 0.132812 0.000000
vt 0.132812 0.250000
vt 0.140625 0.250000
vt 0.148438 0.000000
vt 0.148438 0.250000
vt 0.156250 0.250000
vt 0.164062 0.000000
vt 0.164062 0.250000
vt 0.171875 0.250000
vt 0.179688 0.000000
vt 0.179688 0.250000
vt 0.187500 0.250000
vt 0.195312 0.000000
vt 0.195312 0.250000
vt 0.203125 0.250000
vt 0.210938 0.000000
vt 0.210938 0.250000
vt 0.218750 0.250000
vt 0.226562 0.000000
vt 0.226562 0.250000
vt 0.234375 0.250000
vt 0.242188 0.000000
vt 0.242188 0.250000
vt 0.250000 0.250000
o plinth
usemtl plinth
f 1/1/1 2/2/1 3/3/1 4/4/1
f 4/2/3 3/1/3 6/4/3 5/3/3
f 2/2/4 1/1/4 8/4/4 7/3/4
f 1/2/5 4/1/5 5/4/5 8/3/5
f 3/2/6 2/1/6 7/4/6 6/3/6
o plinth
usemtl plate
f 5/4/2 6/3/2 7/2/2 8/1/2
o body
usemtl cabinet
f 9/1/1 10/5/1 11/6/1 12/7/1
f 12/5/3 11/1/3 14/7/3 13/6/3
f 10/5/4 9/1/4 16/7/4 15/6/4
f 9/5/5 12/1/5 13/7/5 16/6/5
f 11/5/6 10/1/6 15/7/6 14/6/6
o body
usemtl cabinet_top
f 13/7/2 14/6/2 15/5/2 16/1/2
o body
usemtl frame
f 17/1/1 12/8/1 18/9/1 19/10/1
f 20/10/2 21/9/2 13/8/2 22/1/2
f 19/8/3 18/1/3 21/10/3 20/9/3
f 12/8/4 17/1/4 22/10/4 13/9/4
f 17/8/5 19/1/5 20/10/5 22/9/5
f 18/8/6 12/1/6 13/10/6 21/9/6
f 23/1/1 24/8/1 9/9/1 25/10/1
f 26/10/2 16/9/2 27/8/2 28/1/2
f 25/8/3 9/1/3 16/10/3 26/9/3
f 24/8/4 23/1/4 28/10/4 27/9/4
f 23/8/5 25/1/5 26/10/5 28/9/5
f 9/8/6 24/1/6 27/10/6 16/9/6
f 11/1/1 29/8/1 30/9/1 31/10/1
f 32/10/2 33/9/2 34/8/2 14/1/2
f 31/8/3 30/1/3 33/10/3 32/9/3
f 29/8/4 11/1/4 14/10/4 34/9/4
f 11/8/5 31/1/5 32/10/5 14/9/5
f 30/8/6 29/1/6 34/10/6 33/9/6
f 35/1/1 36/8/1 37/9/1 10/10/1
f 15/10/2 38/9/2 39/8/2 40/1/2
f 10/8/3 37/1/3 38/10/3 15/9/3
f 36/8/4 35/1/4 40/10/4 39/9/4
f 35/8/5 10/1/5 15/10/5 40/9/5
f 37/8/6 36/1/6 39/10/6 38/9/6
f 121/1/1 122/8/1 123/9/1 124/10/1
f 125/10/2 126/9/2 127/8/2 128/1/2
f 124/8/3 123/1/3 126/10/3 125/9/3
f 122/8/4 121/1/4 128/10/4 127/9/4
f 121/8/5 124/1/5 125/10/5 128/9/5
f 123/8/6 122/1/6 127/10/6 126/9/6
o hood
usemtl cabinet
f 41/1/1 42/11/1 43/12/1 44/13/1
f 44/11/3 43/1/3 46/13/3 45/12/3
f 42/11/4 41/1/4 48/13/4 47/12/4
f 41/11/5 44/1/5 45/13/5 48/12/5
f 43/11/6 42/1/6 47/13/6 46/12/6
f 49/1/1 50/14/1 51/15/1 52/16/1
f 53/16/2 54/15/2 55/14/2 56/1/2
f 52/14/3 51/1/3 54/16/3 53/15/3
f 50/14/4 49/1/4 56/16/4 55/15/4
f 49/14/5 52/1/5 53/16/5 56/15/5
f 51/14/6 50/1/6 55/16/6 54/15/6
o hood
usemtl cabinet_top
f 45/13/2 46/12/2 47/11/2 48/1/2
o door
usemtl sheet
f 57/1/1 58/5/1 59/6/1 60/7/1
f 61/7/2 62/6/2 63/5/2 64/1/2
f 58/5/4 57/1/4 64/7/4 63/6/4
f 57/5/5 60/1/5 61/7/5 64/6/5
f 59/5/6 58/1/6 63/7/6 62/6/6
f 89/1/1 90/5/1 91/6/1 92/7/1
f 93/7/2 94/6/2 95/5/2 96/1/2
f 90/5/4 89/1/4 96/7/4 95/6/4
f 89/5/5 92/1/5 93/7/5 96/6/5
f 91/5/6 90/1/6 95/7/6 94/6/6
o door
usemtl door
f 60/5/3 59/1/3 62/7/3 61/6/3
o door
usemtl frame
f 65/1/1 66/17/1 67/18/1 68/19/1
f 69/19/2 70/18/2 71/17/2 72/1/2
f 68/17/3 67/1/3 70/19/3 69/18/3
f 66/17/4 65/1/4 72/19/4 71/18/4
f 65/17/5 68/1/5 69/19/5 72/18/5
f 67/17/6 66/1/6 71/19/6 70/18/6
f 97/1/1 98/17/1 99/18/1 100/19/1
f 101/19/2 102/18/2 103/17/2 104/1/2
f 100/17/3 99/1/3 102/19/3 101/18/3
f 98/17/4 97/1/4 104/19/4 103/18/4
f 97/17/5 100/1/5 101/19/5 104/18/5
f 99/17/6 98/1/6 103/19/6 102/18/6
o door
usemtl steel
f 73/1/1 74/8/1 75/9/1 76/10/1
f 77/10/2 78/9/2 79/8/2 80/1/2
f 76/8/3 75/1/3 78/10/3 77/9/3
f 74/8/4 73/1/4 80/10/4 79/9/4
f 73/8/5 76/1/5 77/10/5 80/9/5
f 75/8/6 74/1/6 79/10/6 78/9/6
f 81/1/1 82/8/1 83/9/1 84/10/1
f 85/10/2 86/9/2 87/8/2 88/1/2
f 84/8/3 83/1/3 86/10/3 85/9/3
f 82/8/4 81/1/4 88/10/4 87/9/4
f 81/8/5 84/1/5 85/10/5 88/9/5
f 83/8/6 82/1/6 87/10/6 86/9/6
f 105/1/1 106/8/1 107/9/1 108/10/1
f 109/10/2 110/9/2 111/8/2 112/1/2
f 108/8/3 107/1/3 110/10/3 109/9/3
f 106/8/4 105/1/4 112/10/4 111/9/4
f 105/8/5 108/1/5 109/10/5 112/9/5
f 107/8/6 106/1/6 111/10/6 110/9/6
f 113/1/1 114/8/1 115/9/1 116/10/1
f 117/10/2 118/9/2 119/8/2 120/1/2
f 116/8/3 115/1/3 118/10/3 117/9/3
f 114/8/4 113/1/4 120/10/4 119/9/4
f 113/8/5 116/1/5 117/10/5 120/9/5
f 115/8/6 114/1/6 119/10/6 118/9/6
o door
usemtl leaf
f 92/5/3 91/1/3 94/7/3 93/6/3
o vent
usemtl cabinet
f 129/1/1 130/5/1 131/6/1 132/7/1
f 133/7/2 134/6/2 135/5/2 136/1/2
f 132/5/3 131/1/3 134/7/3 133/6/3
f 130/5/4 129/1/4 136/7/4 135/6/4
f 129/5/5 132/1/5 133/7/5 136/6/5
f 137/1/1 138/5/1 139/6/1 140/7/1
f 141/7/2 142/6/2 143/5/2 144/1/2
f 140/5/3 139/1/3 142/7/3 141/6/3
f 138/5/4 137/1/4 144/7/4 143/6/4
f 139/5/6 138/1/6 143/7/6 142/6/6
o vent
usemtl vent
f 131/5/6 130/1/6 135/7/6 134/6/6
f 137/5/5 140/1/5 141/7/5 144/6/5
o insulator
usemtl porcelain
f 209/1/39 210/114/39 211/115/39 212/97/39
f 210/114/40 213/116/40 214/117/40 211/115/40
f 213/116/41 215/28/41 216/118/41 214/117/41
f 215/28/42 217/119/42 218/120/42 216/118/42
f 217/119/43 219/121/43 220/122/43 218/120/43
f 219/121/44 221/38/44 222/123/44 220/122/44
f 221/38/45 223/124/45 224/125/45 222/123/45
f 223/124/46 225/126/46 226/127/46 224/125/46
f 225/126/47 227/48/47 228/128/47 226/127/47
f 227/48/48 229/129/48 230/130/48 228/128/48
f 229/129/49 231/131/49 232/132/49 230/130/49
f 231/131/50 233/58/50 234/133/50 232/132/50
f 233/58/51 235/134/51 236/135/51 234/133/51
f 235/134/52 237/136/52 238/137/52 236/135/52
f 237/136/53 239/68/53 240/138/53 238/137/53
f 239/68/54 241/139/54 242/140/54 240/138/54
f 241/139/55 243/141/55 244/142/55 242/140/55
f 243/141/56 245/78/56 246/143/56 244/142/56
f 245/78/57 247/144/57 248/145/57 246/143/57
f 247/144/58 249/146/58 250/147/58 248/145/58
f 249/146/59 251/148/59 252/149/59 250/147/59
f 251/148/60 253/150/60 254/151/60 252/149/60
f 253/150/61 255/152/61 256/153/61 254/151/61
f 255/152/62 257/154/62 258/155/62 256/153/62
f 257/154/63 259/156/63 260/157/63 258/155/63
f 259/156/64 261/158/64 262/159/64 260/157/64
f 261/158/65 263/160/65 264/161/65 262/159/65
f 263/160/66 265/162/66 266/163/66 264/161/66
f 265/162/67 267/164/67 268/165/67 266/163/67
f 267/164/68 269/166/68 270/167/68 268/165/68
f 269/166/69 271/168/69 272/169/69 270/167/69
f 271/168/70 209/89/70 212/170/70 272/169/70
f 209/1/7 210/114/7 273/115/7 274/97/7
f 210/114/8 213/116/8 275/117/8 273/115/8
f 213/116/9 215/28/9 276/118/9 275/117/9
f 215/28/10 217/119/10 277/120/10 276/118/10
f 217/119/11 219/121/11 278/122/11 277/120/11
f 219/121/12 221/38/12 279/123/12 278/122/12
f 221/38/13 223/124/13 280/125/13 279/123/13
f 223/124/14 225/126/14 281/127/14 280/125/14
f 225/126/15 227/48/15 282/128/15 281/127/15
f 227/48/16 229/129/16 283/130/16 282/128/16
f 229/129/17 231/131/17 284/132/17 283/130/17
f 231/131/18 233/58/18 285/133/18 284/132/18
f 233/58/19 235/134/19 286/135/19 285/133/19
f 235/134/20 237/136/20 287/137/20 286/135/20
f 237/136/21 239/68/21 288/138/21 287/137/21
f 239/68/22 241/139/22 289/140/22 288/138/22
f 241/139/23 243/141/23 290/142/23 289/140/23
f 243/141/24 245/78/24 291/143/24 290/142/24
f 245/78/25 247/144/25 292/145/25 291/143/25
f 247/144/26 249/146/26 293/147/26 292/145/26
f 249/146/27 251/148/27 294/149/27 293/147/27
f 251/148/28 253/150/28 295/151/28 294/149/28
f 253/150/29 255/152/29 296/153/29 295/151/29
f 255/152/30 257/154/30 297/155/30 296/153/30
f 257/154/31 259/156/31 298/157/31 297/155/31
f 259/156/32 261/158/32 299/159/32 298/157/32
f 261/158/33 263/160/33 300/161/33 299/159/33
f 263/160/34 265/162/34 301/163/34 300/161/34
f 265/162/35 267/164/35 302/165/35 301/163/35
f 267/164/36 269/166/36 303/167/36 302/165/36
f 269/166/37 271/168/37 304/169/37 303/167/37
f 271/168/38 209/89/38 274/170/38 304/169/38
f 271/82/1 269/83/1 267/84/1 265/85/1
f 271/82/1 265/85/1 263/86/1 261/87/1
f 271/82/1 261/87/1 259/88/1 257/89/1
f 271/82/1 257/89/1 255/90/1 253/91/1
f 271/82/1 253/91/1 251/92/1 249/93/1
f 271/82/1 249/93/1 247/94/1 245/95/1
f 271/82/1 245/95/1 243/96/1 241/97/1
f 271/82/1 241/97/1 239/98/1 237/99/1
f 271/82/1 237/99/1 235/100/1 233/101/1
f 271/82/1 233/101/1 231/102/1 229/103/1
f 271/82/1 229/103/1 227/104/1 225/105/1
f 271/82/1 225/105/1 223/106/1 221/107/1
f 271/82/1 221/107/1 219/108/1 217/109/1
f 271/82/1 217/109/1 215/110/1 213/111/1
f 271/82/1 213/111/1 210/112/1 209/113/1
f 274/113/2 273/112/2 275/111/2 276/110/2
f 274/113/2 276/110/2 277/109/2 278/108/2
f 274/113/2 278/108/2 279/107/2 280/106/2
f 274/113/2 280/106/2 281/105/2 282/104/2
f 274/113/2 282/104/2 283/103/2 284/102/2
f 274/113/2 284/102/2 285/101/2 286/100/2
f 274/113/2 286/100/2 287/99/2 288/98/2
f 274/113/2 288/98/2 289/97/2 290/96/2
f 274/113/2 290/96/2 291/95/2 292/94/2
f 274/113/2 292/94/2 293/93/2 294/92/2
f 274/113/2 294/92/2 295/91/2 296/90/2
f 274/113/2 296/90/2 297/89/2 298/88/2
f 274/113/2 298/88/2 299/87/2 300/86/2
f 274/113/2 300/86/2 301/85/2 302/84/2
f 274/113/2 302/84/2 303/83/2 304/82/2
f 305/1/7 306/114/7 307/115/7 308/97/7
f 306/114/8 309/116/8 310/117/8 307/115/8
f 309/116/9 311/28/9 312/118/9 310/117/9
f 311/28/10 313/119/10 314/120/10 312/118/10
f 313/119/11 315/121/11 316/122/11 314/120/11
f 315/121/12 317/38/12 318/123/12 316/122/12
f 317/38/13 319/124/13 320/125/13 318/123/13
f 319/124/14 321/126/14 322/127/14 320/125/14
f 321/126/15 323/48/15 324/128/15 322/127/15
f 323/48/16 325/129/16 326/130/16 324/128/16
f 325/129/17 327/131/17 328/132/17 326/130/17
f 327/131/18 329/58/18 330/133/18 328/132/18
f 329/58/19 331/134/19 332/135/19 330/133/19
f 331/134/20 333/136/20 334/137/20 332/135/20
f 333/136/21 335/68/21 336/138/21 334/137/21
f 335/68/22 337/139/22 338/140/22 336/138/22
f 337/139/23 339/141/23 340/142/23 338/140/23
f 339/141/24 341/78/24 342/143/24 340/142/24
f 341/78/25 343/144/25 344/145/25 342/143/25
f 343/144/26 345/146/26 346/147/26 344/145/26
f 345/146/27 347/148/27 348/149/27 346/147/27
f 347/148/28 349/150/28 350/151/28 348/149/28
f 349/150/29 351/152/29 352/153/29 350/151/29
f 351/152/30 353/154/30 354/155/30 352/153/30
f 353/154/31 355/156/31 356/157/31 354/155/31
f 355/156/32 357/158/32 358/159/32 356/157/32
f 357/158/33 359/160/33 360/161/33 358/159/33
f 359/160/34 361/162/34 362/163/34 360/161/34
f 361/162/35 363/164/35 364/165/35 362/163/35
f 363/164/36 365/166/36 366/167/36 364/165/36
f 365/166/37 367/168/37 368/169/37 366/167/37
f 367/168/38 305/89/38 308/170/38 368/169/38
f 369/1/39 370/114/39 371/115/39 372/97/39
f 370/114/40 373/116/40 374/117/40 371/115/40
f 373/116/41 375/28/41 376/118/41 374/117/41
f 375/28/42 377/119/42 378/120/42 376/118/42
f 377/119/43 379/121/43 380/122/43 378/120/43
f 379/121/44 381/38/44 382/123/44 380/122/44
f 381/38/45 383/124/45 384/125/45 382/123/45
f 383/124/46 385/126/46 386/127/46 384/125/46
f 385/126/47 387/48/47 388/128/47 386/127/47
f 387/48/48 389/129/48 390/130/48 388/128/48
f 389/129/49 391/131/49 392/132/49 390/130/49
f 391/131/50 393/58/50 394/133/50 392/132/50
f 393/58/51 395/134/51 396/135/51 394/133/51
f 395/134/52 397/136/52 398/137/52 396/135/52
f 397/136/53 399/68/53 400/138/53 398/137/53
f 399/68/54 401/139/54 402/140/54 400/138/54
f 401/139/55 403/141/55 404/142/55 402/140/55
f 403/141/56 405/78/56 406/143/56 404/142/56
f 405/78/57 407/144/57 408/145/57 406/143/57
f 407/144/58 409/146/58 410/147/58 408/145/58
f 409/146/59 411/148/59 412/149/59 410/147/59
f 411/148/60 413/150/60 414/151/60 412/149/60
f 413/150/61 415/152/61 416/153/61 414/151/61
f 415/152/62 417/154/62 418/155/62 416/153/62
f 417/154/63 419/156/63 420/157/63 418/155/63
f 419/156/64 421/158/64 422/159/64 420/157/64
f 421/158/65 423/160/65 424/161/65 422/159/65
f 423/160/66 425/162/66 426/163/66 424/161/66
f 425/162/67 427/164/67 428/165/67 426/163/67
f 427/164/68 429/166/68 430/167/68 428/165/68
f 429/166/69 431/168/69 432/169/69 430/167/69
f 431/168/70 369/89/70 372/170/70 432/169/70
f 369/1/7 370/114/7 433/115/7 434/97/7
f 370/114/8 373/116/8 435/117/8 433/115/8
f 373/116/9 375/28/9 436/118/9 435/117/9
f 375/28/10 377/119/10 437/120/10 436/118/10
f 377/119/11 379/121/11 438/122/11 437/120/11
f 379/121/12 381/38/12 439/123/12 438/122/12
f 381/38/13 383/124/13 440/125/13 439/123/13
f 383/124/14 385/126/14 441/127/14 440/125/14
f 385/126/15 387/48/15 442/128/15 441/127/15
f 387/48/16 389/129/16 443/130/16 442/128/16
f 389/129/17 391/131/17 444/132/17 443/130/17
f 391/131/18 393/58/18 445/133/18 444/132/18
f 393/58/19 395/134/19 446/135/19 445/133/19
f 395/134/20 397/136/20 447/137/20 446/135/20
f 397/136/21 399/68/21 448/138/21 447/137/21
f 399/68/22 401/139/22 449/140/22 448/138/22
f 401/139/23 403/141/23 450/142/23 449/140/23
f 403/141/24 405/78/24 451/143/24 450/142/24
f 405/78/25 407/144/25 452/145/25 451/143/25
f 407/144/26 409/146/26 453/147/26 452/145/26
f 409/146/27 411/148/27 454/149/27 453/147/27
f 411/148/28 413/150/28 455/151/28 454/149/28
f 413/150/29 415/152/29 456/153/29 455/151/29
f 415/152/30 417/154/30 457/155/30 456/153/30
f 417/154/31 419/156/31 458/157/31 457/155/31
f 419/156/32 421/158/32 459/159/32 458/157/32
f 421/158/33 423/160/33 460/161/33 459/159/33
f 423/160/34 425/162/34 461/163/34 460/161/34
f 425/162/35 427/164/35 462/165/35 461/163/35
f 427/164/36 429/166/36 463/167/36 462/165/36
f 429/166/37 431/168/37 464/169/37 463/167/37
f 431/168/38 369/89/38 434/170/38 464/169/38
f 431/82/1 429/83/1 427/84/1 425/85/1
f 431/82/1 425/85/1 423/86/1 421/87/1
f 431/82/1 421/87/1 419/88/1 417/89/1
f 431/82/1 417/89/1 415/90/1 413/91/1
f 431/82/1 413/91/1 411/92/1 409/93/1
f 431/82/1 409/93/1 407/94/1 405/95/1
f 431/82/1 405/95/1 403/96/1 401/97/1
f 431/82/1 401/97/1 399/98/1 397/99/1
f 431/82/1 397/99/1 395/100/1 393/101/1
f 431/82/1 393/101/1 391/102/1 389/103/1
f 431/82/1 389/103/1 387/104/1 385/105/1
f 431/82/1 385/105/1 383/106/1 381/107/1
f 431/82/1 381/107/1 379/108/1 377/109/1
f 431/82/1 377/109/1 375/110/1 373/111/1
f 431/82/1 373/111/1 370/112/1 369/113/1
f 434/113/2 433/112/2 435/111/2 436/110/2
f 434/113/2 436/110/2 437/109/2 438/108/2
f 434/113/2 438/108/2 439/107/2 440/106/2
f 434/113/2 440/106/2 441/105/2 442/104/2
f 434/113/2 442/104/2 443/103/2 444/102/2
f 434/113/2 444/102/2 445/101/2 446/100/2
f 434/113/2 446/100/2 447/99/2 448/98/2
f 434/113/2 448/98/2 449/97/2 450/96/2
f 434/113/2 450/96/2 451/95/2 452/94/2
f 434/113/2 452/94/2 453/93/2 454/92/2
f 434/113/2 454/92/2 455/91/2 456/90/2
f 434/113/2 456/90/2 457/89/2 458/88/2
f 434/113/2 458/88/2 459/87/2 460/86/2
f 434/113/2 460/86/2 461/85/2 462/84/2
f 434/113/2 462/84/2 463/83/2 464/82/2
f 465/1/7 466/114/7 467/115/7 468/97/7
f 466/114/8 469/116/8 470/117/8 467/115/8
f 469/116/9 471/28/9 472/118/9 470/117/9
f 471/28/10 473/119/10 474/120/10 472/118/10
f 473/119/11 475/121/11 476/122/11 474/120/11
f 475/121/12 477/38/12 478/123/12 476/122/12
f 477/38/13 479/124/13 480/125/13 478/123/13
f 479/124/14 481/126/14 482/127/14 480/125/14
f 481/126/15 483/48/15 484/128/15 482/127/15
f 483/48/16 485/129/16 486/130/16 484/128/16
f 485/129/17 487/131/17 488/132/17 486/130/17
f 487/131/18 489/58/18 490/133/18 488/132/18
f 489/58/19 491/134/19 492/135/19 490/133/19
f 491/134/20 493/136/20 494/137/20 492/135/20
f 493/136/21 495/68/21 496/138/21 494/137/21
f 495/68/22 497/139/22 498/140/22 496/138/22
f 497/139/23 499/141/23 500/142/23 498/140/23
f 499/141/24 501/78/24 502/143/24 500/142/24
f 501/78/25 503/144/25 504/145/25 502/143/25
f 503/144/26 505/146/26 506/147/26 504/145/26
f 505/146/27 507/148/27 508/149/27 506/147/27
f 507/148/28 509/150/28 510/151/28 508/149/28
f 509/150/29 511/152/29 512/153/29 510/151/29
f 511/152/30 513/154/30 514/155/30 512/153/30
f 513/154/31 515/156/31 516/157/31 514/155/31
f 515/156/32 517/158/32 518/159/32 516/157/32
f 517/158/33 519/160/33 520/161/33 518/159/33
f 519/160/34 521/162/34 522/163/34 520/161/34
f 521/162/35 523/164/35 524/165/35 522/163/35
f 523/164/36 525/166/36 526/167/36 524/165/36
f 525/166/37 527/168/37 528/169/37 526/167/37
f 527/168/38 465/89/38 468/170/38 528/169/38
f 529/1/39 530/114/39 531/115/39 532/97/39
f 530/114/40 533/116/40 534/117/40 531/115/40
f 533/116/41 535/28/41 536/118/41 534/117/41
f 535/28/42 537/119/42 538/120/42 536/118/42
f 537/119/43 539/121/43 540/122/43 538/120/43
f 539/121/44 541/38/44 542/123/44 540/122/44
f 541/38/45 543/124/45 544/125/45 542/123/45
f 543/124/46 545/126/46 546/127/46 544/125/46
f 545/126/47 547/48/47 548/128/47 546/127/47
f 547/48/48 549/129/48 550/130/48 548/128/48
f 549/129/49 551/131/49 552/132/49 550/130/49
f 551/131/50 553/58/50 554/133/50 552/132/50
f 553/58/51 555/134/51 556/135/51 554/133/51
f 555/134/52 557/136/52 558/137/52 556/135/52
f 557/136/53 559/68/53 560/138/53 558/137/53
f 559/68/54 561/139/54 562/140/54 560/138/54
f 561/139/55 563/141/55 564/142/55 562/140/55
f 563/141/56 565/78/56 566/143/56 564/142/56
f 565/78/57 567/144/57 568/145/57 566/143/57
f 567/144/58 569/146/58 570/147/58 568/145/58
f 569/146/59 571/148/59 572/149/59 570/147/59
f 571/148/60 573/150/60 574/151/60 572/149/60
f 573/150/61 575/152/61 576/153/61 574/151/61
f 575/152/62 577/154/62 578/155/62 576/153/62
f 577/154/63 579/156/63 580/157/63 578/155/63
f 579/156/64 581/158/64 582/159/64 580/157/64
f 581/158/65 583/160/65 584/161/65 582/159/65
f 583/160/66 585/162/66 586/163/66 584/161/66
f 585/162/67 587/164/67 588/165/67 586/163/67
f 587/164/68 589/166/68 590/167/68 588/165/68
f 589/166/69 591/168/69 592/169/69 590/167/69
f 591/168/70 529/89/70 532/170/70 592/169/70
f 529/1/7 530/114/7 593/115/7 594/97/7
f 530/114/8 533/116/8 595/117/8 593/115/8
f 533/116/9 535/28/9 596/118/9 595/117/9
f 535/28/10 537/119/10 597/120/10 596/118/10
f 537/119/11 539/121/11 598/122/11 597/120/11
f 539/121/12 541/38/12 599/123/12 598/122/12
f 541/38/13 543/124/13 600/125/13 599/123/13
f 543/124/14 545/126/14 601/127/14 600/125/14
f 545/126/15 547/48/15 602/128/15 601/127/15
f 547/48/16 549/129/16 603/130/16 602/128/16
f 549/129/17 551/131/17 604/132/17 603/130/17
f 551/131/18 553/58/18 605/133/18 604/132/18
f 553/58/19 555/134/19 606/135/19 605/133/19
f 555/134/20 557/136/20 607/137/20 606/135/20
f 557/136/21 559/68/21 608/138/21 607/137/21
f 559/68/22 561/139/22 609/140/22 608/138/22
f 561/139/23 563/141/23 610/142/23 609/140/23
f 563/141/24 565/78/24 611/143/24 610/142/24
f 565/78/25 567/144/25 612/145/25 611/143/25
f 567/144/26 569/146/26 613/147/26 612/145/26
f 569/146/27 571/148/27 614/149/27 613/147/27
f 571/148/28 573/150/28 615/151/28 614/149/28
f 573/150/29 575/152/29 616/153/29 615/151/29
f 575/152/30 577/154/30 617/155/30 616/153/30
f 577/154/31 579/156/31 618/157/31 617/155/31
f 579/156/32 581/158/32 619/159/32 618/157/32
f 581/158/33 583/160/33 620/161/33 619/159/33
f 583/160/34 585/162/34 621/163/34 620/161/34
f 585/162/35 587/164/35 622/165/35 621/163/35
f 587/164/36 589/166/36 623/167/36 622/165/36
f 589/166/37 591/168/37 624/169/37 623/167/37
f 591/168/38 529/89/38 594/170/38 624/169/38
f 591/82/1 589/83/1 587/84/1 585/85/1
f 591/82/1 585/85/1 583/86/1 581/87/1
f 591/82/1 581/87/1 579/88/1 577/89/1
f 591/82/1 577/89/1 575/90/1 573/91/1
f 591/82/1 573/91/1 571/92/1 569/93/1
f 591/82/1 569/93/1 567/94/1 565/95/1
f 591/82/1 565/95/1 563/96/1 561/97/1
f 591/82/1 561/97/1 559/98/1 557/99/1
f 591/82/1 557/99/1 555/100/1 553/101/1
f 591/82/1 553/101/1 551/102/1 549/103/1
f 591/82/1 549/103/1 547/104/1 545/105/1
f 591/82/1 545/105/1 543/106/1 541/107/1
f 591/82/1 541/107/1 539/108/1 537/109/1
f 591/82/1 537/109/1 535/110/1 533/111/1
f 591/82/1 533/111/1 530/112/1 529/113/1
f 594/113/2 593/112/2 595/111/2 596/110/2
f 594/113/2 596/110/2 597/109/2 598/108/2
f 594/113/2 598/108/2 599/107/2 600/106/2
f 594/113/2 600/106/2 601/105/2 602/104/2
f 594/113/2 602/104/2 603/103/2 604/102/2
f 594/113/2 604/102/2 605/101/2 606/100/2
f 594/113/2 606/100/2 607/99/2 608/98/2
f 594/113/2 608/98/2 609/97/2 610/96/2
f 594/113/2 610/96/2 611/95/2 612/94/2
f 594/113/2 612/94/2 613/93/2 614/92/2
f 594/113/2 614/92/2 615/91/2 616/90/2
f 594/113/2 616/90/2 617/89/2 618/88/2
f 594/113/2 618/88/2 619/87/2 620/86/2
f 594/113/2 620/86/2 621/85/2 622/84/2
f 594/113/2 622/84/2 623/83/2 624/82/2
f 625/1/7 626/114/7 627/115/7 628/97/7
f 626/114/8 629/116/8 630/117/8 627/115/8
f 629/116/9 631/28/9 632/118/9 630/117/9
f 631/28/10 633/119/10 634/120/10 632/118/10
f 633/119/11 635/121/11 636/122/11 634/120/11
f 635/121/12 637/38/12 638/123/12 636/122/12
f 637/38/13 639/124/13 640/125/13 638/123/13
f 639/124/14 641/126/14 642/127/14 640/125/14
f 641/126/15 643/48/15 644/128/15 642/127/15
f 643/48/16 645/129/16 646/130/16 644/128/16
f 645/129/17 647/131/17 648/132/17 646/130/17
f 647/131/18 649/58/18 650/133/18 648/132/18
f 649/58/19 651/134/19 652/135/19 650/133/19
f 651/134/20 653/136/20 654/137/20 652/135/20
f 653/136/21 655/68/21 656/138/21 654/137/21
f 655/68/22 657/139/22 658/140/22 656/138/22
f 657/139/23 659/141/23 660/142/23 658/140/23
f 659/141/24 661/78/24 662/143/24 660/142/24
f 661/78/25 663/144/25 664/145/25 662/143/25
f 663/144/26 665/146/26 666/147/26 664/145/26
f 665/146/27 667/148/27 668/149/27 666/147/27
f 667/148/28 669/150/28 670/151/28 668/149/28
f 669/150/29 671/152/29 672/153/29 670/151/29
f 671/152/30 673/154/30 674/155/30 672/153/30
f 673/154/31 675/156/31 676/157/31 674/155/31
f 675/156/32 677/158/32 678/159/32 676/157/32
f 677/158/33 679/160/33 680/161/33 678/159/33
f 679/160/34 681/162/34 682/163/34 680/161/34
f 681/162/35 683/164/35 684/165/35 682/163/35
f 683/164/36 685/166/36 686/167/36 684/165/36
f 685/166/37 687/168/37 688/169/37 686/167/37
f 687/168/38 625/89/38 628/170/38 688/169/38
f 689/1/7 690/114/7 691/115/7 692/97/7
f 690/114/8 693/116/8 694/117/8 691/115/8
f 693/116/9 695/28/9 696/118/9 694/117/9
f 695/28/10 697/119/10 698/120/10 696/118/10
f 697/119/11 699/121/11 700/122/11 698/120/11
f 699/121/12 701/38/12 702/123/12 700/122/12
f 701/38/13 703/124/13 704/125/13 702/123/13
f 703/124/14 705/126/14 706/127/14 704/125/14
f 705/126/15 707/48/15 708/128/15 706/127/15
f 707/48/16 709/129/16 710/130/16 708/128/16
f 709/129/17 711/131/17 712/132/17 710/130/17
f 711/131/18 713/58/18 714/133/18 712/132/18
f 713/58/19 715/134/19 716/135/19 714/133/19
f 715/134/20 717/136/20 718/137/20 716/135/20
f 717/136/21 719/68/21 720/138/21 718/137/21
f 719/68/22 721/139/22 722/140/22 720/138/22
f 721/139/23 723/141/23 724/142/23 722/140/23
f 723/141/24 725/78/24 726/143/24 724/142/24
f 725/78/25 727/144/25 728/145/25 726/143/25
f 727/144/26 729/146/26 730/147/26 728/145/26
f 729/146/27 731/148/27 732/149/27 730/147/27
f 731/148/28 733/150/28 734/151/28 732/149/28
f 733/150/29 735/152/29 736/153/29 734/151/29
f 735/152/30 737/154/30 738/155/30 736/153/30
f 737/154/31 739/156/31 740/157/31 738/155/31
f 739/156/32 741/158/32 742/159/32 740/157/32
f 741/158/33 743/160/33 744/161/33 742/159/33
f 743/160/34 745/162/34 746/163/34 744/161/34
f 745/162/35 747/164/35 748/165/35 746/163/35
f 747/164/36 749/166/36 750/167/36 748/165/36
f 749/166/37 751/168/37 752/169/37 750/167/37
f 751/168/38 689/89/38 692/170/38 752/169/38
f 751/82/1 749/83/1 747/84/1 745/85/1
f 751/82/1 745/85/1 743/86/1 741/87/1
f 751/82/1 741/87/1 739/88/1 737/89/1
f 751/82/1 737/89/1 735/90/1 733/91/1
f 751/82/1 733/91/1 731/92/1 729/93/1
f 751/82/1 729/93/1 727/94/1 725/95/1
f 751/82/1 725/95/1 723/96/1 721/97/1
f 751/82/1 721/97/1 719/98/1 717/99/1
f 751/82/1 717/99/1 715/100/1 713/101/1
f 751/82/1 713/101/1 711/102/1 709/103/1
f 751/82/1 709/103/1 707/104/1 705/105/1
f 751/82/1 705/105/1 703/106/1 701/107/1
f 751/82/1 701/107/1 699/108/1 697/109/1
f 751/82/1 697/109/1 695/110/1 693/111/1
f 751/82/1 693/111/1 690/112/1 689/113/1
f 692/113/2 691/112/2 694/111/2 696/110/2
f 692/113/2 696/110/2 698/109/2 700/108/2
f 692/113/2 700/108/2 702/107/2 704/106/2
f 692/113/2 704/106/2 706/105/2 708/104/2
f 692/113/2 708/104/2 710/103/2 712/102/2
f 692/113/2 712/102/2 714/101/2 716/100/2
f 692/113/2 716/100/2 718/99/2 720/98/2
f 692/113/2 720/98/2 722/97/2 724/96/2
f 692/113/2 724/96/2 726/95/2 728/94/2
f 692/113/2 728/94/2 730/93/2 732/92/2
f 692/113/2 732/92/2 734/91/2 736/90/2
f 692/113/2 736/90/2 738/89/2 740/88/2
f 692/113/2 740/88/2 742/87/2 744/86/2
f 692/113/2 744/86/2 746/85/2 748/84/2
f 692/113/2 748/84/2 750/83/2 752/82/2
o hardware
usemtl steel
f 145/1/7 146/20/7 147/21/7 148/16/7
f 146/20/8 149/22/8 150/23/8 147/21/8
f 149/22/9 151/24/9 152/25/9 150/23/9
f 151/24/10 153/26/10 154/27/10 152/25/10
f 153/26/11 155/28/11 156/29/11 154/27/11
f 155/28/12 157/30/12 158/31/12 156/29/12
f 157/30/13 159/32/13 160/33/13 158/31/13
f 159/32/14 161/34/14 162/35/14 160/33/14
f 161/34/15 163/36/15 164/37/15 162/35/15
f 163/36/16 165/38/16 166/39/16 164/37/16
f 165/38/17 167/40/17 168/41/17 166/39/17
f 167/40/18 169/42/18 170/43/18 168/41/18
f 169/42/19 171/44/19 172/45/19 170/43/19
f 171/44/20 173/46/20 174/47/20 172/45/20
f 173/46/21 175/48/21 176/49/21 174/47/21
f 175/48/22 177/50/22 178/51/22 176/49/22
f 177/50/23 179/52/23 180/53/23 178/51/23
f 179/52/24 181/54/24 182/55/24 180/53/24
f 181/54/25 183/56/25 184/57/25 182/55/25
f 183/56/26 185/58/26 186/59/26 184/57/26
f 185/58/27 187/60/27 188/61/27 186/59/27
f 187/60/28 189/62/28 190/63/28 188/61/28
f 189/62/29 191/64/29 192/65/29 190/63/29
f 191/64/30 193/66/30 194/67/30 192/65/30
f 193/66/31 195/68/31 196/69/31 194/67/31
f 195/68/32 197/70/32 198/71/32 196/69/32
f 197/70/33 199/72/33 200/73/33 198/71/33
f 199/72/34 201/74/34 202/75/34 200/73/34
f 201/74/35 203/76/35 204/77/35 202/75/35
f 203/76/36 205/78/36 206/79/36 204/77/36
f 205/78/37 207/80/37 208/81/37 206/79/37
f 207/80/38 145/14/38 148/15/38 208/81/38
f 207/82/1 205/83/1 203/84/1 201/85/1
f 207/82/1 201/85/1 199/86/1 197/87/1
f 207/82/1 197/87/1 195/88/1 193/89/1
f 207/82/1 193/89/1 191/90/1 189/91/1
f 207/82/1 189/91/1 187/92/1 185/93/1
f 207/82/1 185/93/1 183/94/1 181/95/1
f 207/82/1 181/95/1 179/96/1 177/97/1
f 207/82/1 177/97/1 175/98/1 173/99/1
f 207/82/1 173/99/1 171/100/1 169/101/1
f 207/82/1 169/101/1 167/102/1 165/103/1
f 207/82/1 165/103/1 163/104/1 161/105/1
f 207/82/1 161/105/1 159/106/1 157/107/1
f 207/82/1 157/107/1 155/108/1 153/109/1
f 207/82/1 153/109/1 151/110/1 149/111/1
f 207/82/1 149/111/1 146/112/1 145/113/1
f 148/113/2 147/112/2 150/111/2 152/110/2
f 148/113/2 152/110/2 154/109/2 156/108/2
f 148/113/2 156/108/2 158/107/2 160/106/2
f 148/113/2 160/106/2 162/105/2 164/104/2
f 148/113/2 164/104/2 166/103/2 168/102/2
f 148/113/2 168/102/2 170/101/2 172/100/2
f 148/113/2 172/100/2 174/99/2 176/98/2
f 148/113/2 176/98/2 178/97/2 180/96/2
f 148/113/2 180/96/2 182/95/2 184/94/2
f 148/113/2 184/94/2 186/93/2 188/92/2
f 148/113/2 188/92/2 190/91/2 192/90/2
f 148/113/2 192/90/2 194/89/2 196/88/2
f 148/113/2 196/88/2 198/87/2 200/86/2
f 148/113/2 200/86/2 202/85/2 204/84/2
f 148/113/2 204/84/2 206/83/2 208/82/2
f 753/1/7 754/171/7 755/172/7 756/173/7
f 754/171/8 757/174/8 758/175/8 755/172/8
f 757/174/9 759/22/9 760/176/9 758/175/9
f 759/22/10 761/177/10 762/178/10 760/176/10
f 761/177/11 763/116/11 764/179/11 762/178/11
f 763/116/12 765/26/12 766/180/12 764/179/12
f 765/26/13 767/181/13 768/182/13 766/180/13
f 767/181/14 769/183/14 770/184/14 768/182/14
f 769/183/15 771/30/15 772/185/15 770/184/15
f 771/30/16 773/119/16 774/186/16 772/185/16
f 773/119/17 775/187/17 776/188/17 774/186/17
f 775/187/18 777/34/18 778/189/18 776/188/18
f 777/34/19 779/190/19 780/191/19 778/189/19
f 779/190/20 781/192/20 782/193/20 780/191/20
f 781/192/21 783/38/21 784/194/21 782/193/21
f 783/38/22 785/8/22 786/195/22 784/194/22
f 785/8/23 787/196/23 788/197/23 786/195/23
f 787/196/24 789/42/24 790/198/24 788/197/24
f 789/42/25 791/199/25 792/200/25 790/198/25
f 791/199/26 793/126/26 794/201/26 792/200/26
f 793/126/27 795/46/27 796/202/27 794/201/27
f 795/46/28 797/203/28 798/204/28 796/202/28
f 797/203/29 799/205/29 800/206/29 798/204/29
f 799/205/30 801/50/30 802/207/30 800/206/30
f 801/50/31 803/129/31 804/208/31 802/207/31
f 803/129/32 805/209/32 806/210/32 804/208/32
f 805/209/33 807/54/33 808/211/33 806/210/33
f 807/54/34 809/212/34 810/213/34 808/211/34
f 809/212/35 811/214/35 812/215/35 810/213/35
f 811/214/36 813/58/36 814/216/36 812/215/36
f 813/58/37 815/217/37 816/218/37 814/216/37
f 815/217/38 753/219/38 756/220/38 816/218/38
f 815/82/1 813/83/1 811/84/1 809/85/1
f 815/82/1 809/85/1 807/86/1 805/87/1
f 815/82/1 805/87/1 803/88/1 801/89/1
f 815/82/1 801/89/1 799/90/1 797/91/1
f 815/82/1 797/91/1 795/92/1 793/93/1
f 815/82/1 793/93/1 791/94/1 789/95/1
f 815/82/1 789/95/1 787/96/1 785/97/1
f 815/82/1 785/97/1 783/98/1 781/99/1
f 815/82/1 781/99/1 779/100/1 777/101/1
f 815/82/1 777/101/1 775/102/1 773/103/1
f 815/82/1 773/103/1 771/104/1 769/105/1
f 815/82/1 769/105/1 767/106/1 765/107/1
f 815/82/1 765/107/1 763/108/1 761/109/1
f 815/82/1 761/109/1 759/110/1 757/111/1
f 815/82/1 757/111/1 754/112/1 753/113/1
f 756/113/2 755/112/2 758/111/2 760/110/2
f 756/113/2 760/110/2 762/109/2 764/108/2
f 756/113/2 764/108/2 766/107/2 768/106/2
f 756/113/2 768/106/2 770/105/2 772/104/2
f 756/113/2 772/104/2 774/103/2 776/102/2
f 756/113/2 776/102/2 778/101/2 780/100/2
f 756/113/2 780/100/2 782/99/2 784/98/2
f 756/113/2 784/98/2 786/97/2 788/96/2
f 756/113/2 788/96/2 790/95/2 792/94/2
f 756/113/2 792/94/2 794/93/2 796/92/2
f 756/113/2 796/92/2 798/91/2 800/90/2
f 756/113/2 800/90/2 802/89/2 804/88/2
f 756/113/2 804/88/2 806/87/2 808/86/2
f 756/113/2 808/86/2 810/85/2 812/84/2
f 756/113/2 812/84/2 814/83/2 816/82/2
o conduit
usemtl steel
f 817/1/7 818/221/7 819/222/7 820/223/7
f 818/221/8 821/114/8 822/224/8 819/222/8
f 821/114/9 823/225/9 824/226/9 822/224/9
f 823/225/10 825/116/10 826/227/10 824/226/10
f 825/116/11 827/228/11 828/229/11 826/227/11
f 827/228/12 829/28/12 830/230/12 828/229/12
f 829/28/13 831/231/13 832/232/13 830/230/13
f 831/231/14 833/119/14 834/233/14 832/232/14
f 833/119/15 835/234/15 836/235/15 834/233/15
f 835/234/16 837/121/16 838/236/16 836/235/16
f 837/121/17 839/237/17 840/238/17 838/236/17
f 839/237/18 841/38/18 842/239/18 840/238/18
f 841/38/19 843/240/19 844/241/19 842/239/19
f 843/240/20 845/124/20 846/242/20 844/241/20
f 845/124/21 847/243/21 848/244/21 846/242/21
f 847/243/22 849/126/22 850/245/22 848/244/22
f 849/126/23 851/246/23 852/247/23 850/245/23
f 851/246/24 853/48/24 854/248/24 852/247/24
f 853/48/25 855/249/25 856/250/25 854/248/25
f 855/249/26 857/129/26 858/251/26 856/250/26
f 857/129/27 859/252/27 860/253/27 858/251/27
f 859/252/28 861/131/28 862/254/28 860/253/28
f 861/131/29 863/255/29 864/256/29 862/254/29
f 863/255/30 865/58/30 866/257/30 864/256/30
f 865/58/31 867/258/31 868/259/31 866/257/31
f 867/258/32 869/134/32 870/260/32 868/259/32
f 869/134/33 871/261/33 872/262/33 870/260/33
f 871/261/34 873/136/34 874/263/34 872/262/34
f 873/136/35 875/264/35 876/265/35 874/263/35
f 875/264/36 877/68/36 878/266/36 876/265/36
f 877/68/37 879/267/37 880/268/37 878/266/37
f 879/267/38 817/139/38 820/269/38 880/268/38
f 879/82/1 877/83/1 875/84/1 873/85/1
f 879/82/1 873/85/1 871/86/1 869/87/1
f 879/82/1 869/87/1 867/88/1 865/89/1
f 879/82/1 865/89/1 863/90/1 861/91/1
f 879/82/1 861/91/1 859/92/1 857/93/1
f 879/82/1 857/93/1 855/94/1 853/95/1
f 879/82/1 853/95/1 851/96/1 849/97/1
f 879/82/1 849/97/1 847/98/1 845/99/1
f 879/82/1 845/99/1 843/100/1 841/101/1
f 879/82/1 841/101/1 839/102/1 837/103/1
f 879/82/1 837/103/1 835/104/1 833/105/1
f 879/82/1 833/105/1 831/106/1 829/107/1
f 879/82/1 829/107/1 827/108/1 825/109/1
f 879/82/1 825/109/1 823/110/1 821/111/1
f 879/82/1 821/111/1 818/112/1 817/113/1
f 820/113/2 819/112/2 822/111/2 824/110/2
f 820/113/2 824/110/2 826/109/2 828/108/2
f 820/113/2 828/108/2 830/107/2 832/106/2
f 820/113/2 832/106/2 834/105/2 836/104/2
f 820/113/2 836/104/2 838/103/2 840/102/2
f 820/113/2 840/102/2 842/101/2 844/100/2
f 820/113/2 844/100/2 846/99/2 848/98/2
f 820/113/2 848/98/2 850/97/2 852/96/2
f 820/113/2 852/96/2 854/95/2 856/94/2
f 820/113/2 856/94/2 858/93/2 860/92/2
f 820/113/2 860/92/2 862/91/2 864/90/2
f 820/113/2 864/90/2 866/89/2 868/88/2
f 820/113/2 868/88/2 870/87/2 872/86/2
f 820/113/2 872/86/2 874/85/2 876/84/2
f 820/113/2 876/84/2 878/83/2 880/82/2
f 881/1/7 882/221/7 883/222/7 884/223/7
f 882/221/8 885/114/8 886/224/8 883/222/8
f 885/114/9 887/225/9 888/226/9 886/224/9
f 887/225/10 889/116/10 890/227/10 888/226/10
f 889/116/11 891/228/11 892/229/11 890/227/11
f 891/228/12 893/28/12 894/230/12 892/229/12
f 893/28/13 895/231/13 896/232/13 894/230/13
f 895/231/14 897/119/14 898/233/14 896/232/14
f 897/119/15 899/234/15 900/235/15 898/233/15
f 899/234/16 901/121/16 902/236/16 900/235/16
f 901/121/17 903/237/17 904/238/17 902/236/17
f 903/237/18 905/38/18 906/239/18 904/238/18
f 905/38/19 907/240/19 908/241/19 906/239/19
f 907/240/20 909/124/20 910/242/20 908/241/20
f 909/124/21 911/243/21 912/244/21 910/242/21
f 911/243/22 913/126/22 914/245/22 912/244/22
f 913/126/23 915/246/23 916/247/23 914/245/23
f 915/246/24 917/48/24 918/248/24 916/247/24
f 917/48/25 919/249/25 920/250/25 918/248/25
f 919/249/26 921/129/26 922/251/26 920/250/26
f 921/129/27 923/252/27 924/253/27 922/251/27
f 923/252/28 925/131/28 926/254/28 924/253/28
f 925/131/29 927/255/29 928/256/29 926/254/29
f 927/255/30 929/58/30 930/257/30 928/256/30
f 929/58/31 931/258/31 932/259/31 930/257/31
f 931/258/32 933/134/32 934/260/32 932/259/32
f 933/134/33 935/261/33 936/262/33 934/260/33
f 935/261/34 937/136/34 938/263/34 936/262/34
f 937/136/35 939/264/35 940/265/35 938/263/35
f 939/264/36 941/68/36 942/266/36 940/265/36
f 941/68/37 943/267/37 944/268/37 942/266/37
f 943/267/38 881/139/38 884/269/38 944/268/38
f 943/82/1 941/83/1 939/84/1 937/85/1
f 943/82/1 937/85/1 935/86/1 933/87/1
f 943/82/1 933/87/1 931/88/1 929/89/1
f 943/82/1 929/89/1 927/90/1 925/91/1
f 943/82/1 925/91/1 923/92/1 921/93/1
f 943/82/1 921/93/1 919/94/1 917/95/1
f 943/82/1 917/95/1 915/96/1 913/97/1
f 943/82/1 913/97/1 911/98/1 909/99/1
f 943/82/1 909/99/1 907/100/1 905/101/1
f 943/82/1 905/101/1 903/102/1 901/103/1
f 943/82/1 901/103/1 899/104/1 897/105/1
f 943/82/1 897/105/1 895/106/1 893/107/1
f 943/82/1 893/107/1 891/108/1 889/109/1
f 943/82/1 889/109/1 887/110/1 885/111/1
f 943/82/1 885/111/1 882/112/1 881/113/1
f 884/113/2 883/112/2 886/111/2 888/110/2
f 884/113/2 888/110/2 890/109/2 892/108/2
f 884/113/2 892/108/2 894/107/2 896/106/2
f 884/113/2 896/106/2 898/105/2 900/104/2
f 884/113/2 900/104/2 902/103/2 904/102/2
f 884/113/2 904/102/2 906/101/2 908/100/2
f 884/113/2 908/100/2 910/99/2 912/98/2
f 884/113/2 912/98/2 914/97/2 916/96/2
f 884/113/2 916/96/2 918/95/2 920/94/2
f 884/113/2 920/94/2 922/93/2 924/92/2
f 884/113/2 924/92/2 926/91/2 928/90/2
f 884/113/2 928/90/2 930/89/2 932/88/2
f 884/113/2 932/88/2 934/87/2 936/86/2
f 884/113/2 936/86/2 938/85/2 940/84/2
f 884/113/2 940/84/2 942/83/2 944/82/2
