# generated by tools/gen_pv_models.py - do not edit by hand
mtllib pv_flat.mtl
v -0.440000 0.000000 -0.440000
v -0.300000 0.000000 -0.440000
v -0.300000 0.000000 -0.300000
v -0.440000 0.000000 -0.300000
v -0.440000 0.045000 -0.300000
v -0.300000 0.045000 -0.300000
v -0.300000 0.045000 -0.440000
v -0.440000 0.045000 -0.440000
v -0.440000 0.000000 0.300000
v -0.300000 0.000000 0.300000
v -0.300000 0.000000 0.440000
v -0.440000 0.000000 0.440000
v -0.440000 0.045000 0.440000
v -0.300000 0.045000 0.440000
v -0.300000 0.045000 0.300000
v -0.440000 0.045000 0.300000
v 0.300000 0.000000 -0.440000
v 0.440000 0.000000 -0.440000
v 0.440000 0.000000 -0.300000
v 0.300000 0.000000 -0.300000
v 0.300000 0.045000 -0.300000
v 0.440000 0.045000 -0.300000
v 0.440000 0.045000 -0.440000
v 0.300000 0.045000 -0.440000
v 0.300000 0.000000 0.300000
v 0.440000 0.000000 0.300000
v 0.440000 0.000000 0.440000
v 0.300000 0.000000 0.440000
v 0.300000 0.045000 0.440000
v 0.440000 0.045000 0.440000
v 0.440000 0.045000 0.300000
v 0.300000 0.045000 0.300000
v -0.470000 0.074600 -0.470000
v 0.470000 0.074600 -0.470000
v 0.470000 0.074600 -0.410000
v -0.470000 0.074600 -0.410000
v -0.470000 0.085000 -0.410000
v 0.470000 0.085000 -0.410000
v 0.470000 0.085000 -0.470000
v -0.470000 0.085000 -0.470000
v -0.470000 0.045000 -0.470000
v 0.470000 0.045000 -0.470000
v 0.470000 0.045000 -0.454400
v -0.470000 0.045000 -0.454400
v -0.470000 0.085000 -0.454400
v 0.470000 0.085000 -0.454400
v -0.470000 0.045000 -0.425600
v 0.470000 0.045000 -0.425600
v 0.470000 0.045000 -0.410000
v -0.470000 0.045000 -0.410000
v 0.470000 0.085000 -0.425600
v -0.470000 0.085000 -0.425600
v -0.470000 0.074600 0.410000
v 0.470000 0.074600 0.410000
v 0.470000 0.074600 0.470000
v -0.470000 0.074600 0.470000
v -0.470000 0.085000 0.470000
v 0.470000 0.085000 0.470000
v 0.470000 0.085000 0.410000
v -0.470000 0.085000 0.410000
v -0.470000 0.045000 0.410000
v 0.470000 0.045000 0.410000
v 0.470000 0.045000 0.425600
v -0.470000 0.045000 0.425600
v -0.470000 0.085000 0.425600
v 0.470000 0.085000 0.425600
v -0.470000 0.045000 0.454400
v 0.470000 0.045000 0.454400
v 0.470000 0.045000 0.470000
v -0.470000 0.045000 0.470000
v 0.470000 0.085000 0.454400
v -0.470000 0.085000 0.454400
v -0.410000 0.074600 -0.410000
v -0.410000 0.074600 0.410000
v -0.410000 0.085000 0.410000
v -0.410000 0.085000 -0.410000
v -0.454400 0.045000 -0.410000
v -0.454400 0.045000 0.410000
v -0.454400 0.085000 0.410000
v -0.454400 0.085000 -0.410000
v -0.425600 0.045000 -0.410000
v -0.410000 0.045000 -0.410000
v -0.410000 0.045000 0.410000
v -0.425600 0.045000 0.410000
v -0.425600 0.085000 0.410000
v -0.425600 0.085000 -0.410000
v 0.410000 0.074600 -0.410000
v 0.410000 0.074600 0.410000
v 0.410000 0.085000 0.410000
v 0.410000 0.085000 -0.410000
v 0.410000 0.045000 -0.410000
v 0.425600 0.045000 -0.410000
v 0.425600 0.045000 0.410000
v 0.410000 0.045000 0.410000
v 0.425600 0.085000 0.410000
v 0.425600 0.085000 -0.410000
v 0.454400 0.045000 -0.410000
v 0.454400 0.045000 0.410000
v 0.454400 0.085000 0.410000
v 0.454400 0.085000 -0.410000
v -0.440000 0.085000 -0.280000
v 0.440000 0.085000 -0.280000
v 0.440000 0.085000 -0.220000
v -0.440000 0.085000 -0.220000
v -0.440000 0.105000 -0.220000
v 0.440000 0.105000 -0.220000
v 0.440000 0.105000 -0.280000
v -0.440000 0.105000 -0.280000
v -0.440000 0.085000 0.220000
v 0.440000 0.085000 0.220000
v 0.440000 0.085000 0.280000
v -0.440000 0.085000 0.280000
v -0.440000 0.105000 0.280000
v 0.440000 0.105000 0.280000
v 0.440000 0.105000 0.220000
v -0.440000 0.105000 0.220000
v -0.440000 0.105000 -0.470000
v -0.020000 0.105000 -0.470000
v -0.020000 0.105000 0.470000
v -0.440000 0.105000 0.470000
v -0.440000 0.135000 0.470000
v -0.020000 0.135000 0.470000
v -0.020000 0.135000 -0.470000
v -0.440000 0.135000 -0.470000
v 0.020000 0.105000 -0.470000
v 0.440000 0.105000 -0.470000
v 0.440000 0.105000 0.470000
v 0.020000 0.105000 0.470000
v 0.020000 0.135000 0.470000
v 0.440000 0.135000 0.470000
v 0.440000 0.135000 -0.470000
v 0.020000 0.135000 -0.470000
v -0.025000 0.101000 -0.265000
v 0.025000 0.101000 -0.265000
v 0.025000 0.101000 -0.235000
v -0.025000 0.101000 -0.235000
v -0.025000 0.139000 -0.235000
v 0.025000 0.139000 -0.235000
v 0.025000 0.139000 -0.265000
v -0.025000 0.139000 -0.265000
v 0.007000 0.153000 -0.250000
v 0.003500 0.153000 -0.243938
v 0.003500 0.139000 -0.243938
v 0.007000 0.139000 -0.250000
v -0.003500 0.153000 -0.243938
v -0.003500 0.139000 -0.243938
v -0.007000 0.153000 -0.250000
v -0.007000 0.139000 -0.250000
v -0.003500 0.153000 -0.256062
v -0.003500 0.139000 -0.256062
v 0.003500 0.153000 -0.256062
v 0.003500 0.139000 -0.256062
v 0.013685 0.139840 -0.250000
v 0.012643 0.139840 -0.244763
v 0.012643 0.138160 -0.244763
v 0.013685 0.138160 -0.250000
v 0.009677 0.139840 -0.240323
v 0.009677 0.138160 -0.240323
v 0.005237 0.139840 -0.237357
v 0.005237 0.138160 -0.237357
v 0.000000 0.139840 -0.236315
v 0.000000 0.138160 -0.236315
v -0.005237 0.139840 -0.237357
v -0.005237 0.138160 -0.237357
v -0.009677 0.139840 -0.240323
v -0.009677 0.138160 -0.240323
v -0.012643 0.139840 -0.244763
v -0.012643 0.138160 -0.244763
v -0.013685 0.139840 -0.250000
v -0.013685 0.138160 -0.250000
v -0.012643 0.139840 -0.255237
v -0.012643 0.138160 -0.255237
v -0.009677 0.139840 -0.259677
v -0.009677 0.138160 -0.259677
v -0.005237 0.139840 -0.262643
v -0.005237 0.138160 -0.262643
v -0.000000 0.139840 -0.263685
v -0.000000 0.138160 -0.263685
v 0.005237 0.139840 -0.262643
v 0.005237 0.138160 -0.262643
v 0.009677 0.139840 -0.259677
v 0.009677 0.138160 -0.259677
v 0.012643 0.139840 -0.255237
v 0.012643 0.138160 -0.255237
v 0.010306 0.141800 -0.244050
v 0.000000 0.141800 -0.238100
v 0.000000 0.139000 -0.238100
v 0.010306 0.139000 -0.244050
v -0.010306 0.141800 -0.244050
v -0.010306 0.139000 -0.244050
v -0.010306 0.141800 -0.255950
v -0.010306 0.139000 -0.255950
v -0.000000 0.141800 -0.261900
v -0.000000 0.139000 -0.261900
v 0.010306 0.141800 -0.255950
v 0.010306 0.139000 -0.255950
v -0.455000 0.101000 -0.265000
v -0.435000 0.101000 -0.265000
v -0.435000 0.101000 -0.235000
v -0.455000 0.101000 -0.235000
v -0.455000 0.139000 -0.235000
v -0.435000 0.139000 -0.235000
v -0.435000 0.139000 -0.265000
v -0.455000 0.139000 -0.265000
v 0.435000 0.101000 -0.265000
v 0.455000 0.101000 -0.265000
v 0.455000 0.101000 -0.235000
v 0.435000 0.101000 -0.235000
v 0.435000 0.139000 -0.235000
v 0.455000 0.139000 -0.235000
v 0.455000 0.139000 -0.265000
v 0.435000 0.139000 -0.265000
v -0.025000 0.101000 0.235000
v 0.025000 0.101000 0.235000
v 0.025000 0.101000 0.265000
v -0.025000 0.101000 0.265000
v -0.025000 0.139000 0.265000
v 0.025000 0.139000 0.265000
v 0.025000 0.139000 0.235000
v -0.025000 0.139000 0.235000
v 0.007000 0.153000 0.250000
v 0.003500 0.153000 0.256062
v 0.003500 0.139000 0.256062
v 0.007000 0.139000 0.250000
v -0.003500 0.153000 0.256062
v -0.003500 0.139000 0.256062
v -0.007000 0.153000 0.250000
v -0.007000 0.139000 0.250000
v -0.003500 0.153000 0.243938
v -0.003500 0.139000 0.243938
v 0.003500 0.153000 0.243938
v 0.003500 0.139000 0.243938
v 0.013685 0.139840 0.250000
v 0.012643 0.139840 0.255237
v 0.012643 0.138160 0.255237
v 0.013685 0.138160 0.250000
v 0.009677 0.139840 0.259677
v 0.009677 0.138160 0.259677
v 0.005237 0.139840 0.262643
v 0.005237 0.138160 0.262643
v 0.000000 0.139840 0.263685
v 0.000000 0.138160 0.263685
v -0.005237 0.139840 0.262643
v -0.005237 0.138160 0.262643
v -0.009677 0.139840 0.259677
v -0.009677 0.138160 0.259677
v -0.012643 0.139840 0.255237
v -0.012643 0.138160 0.255237
v -0.013685 0.139840 0.250000
v -0.013685 0.138160 0.250000
v -0.012643 0.139840 0.244763
v -0.012643 0.138160 0.244763
v -0.009677 0.139840 0.240323
v -0.009677 0.138160 0.240323
v -0.005237 0.139840 0.237357
v -0.005237 0.138160 0.237357
v -0.000000 0.139840 0.236315
v -0.000000 0.138160 0.236315
v 0.005237 0.139840 0.237357
v 0.005237 0.138160 0.237357
v 0.009677 0.139840 0.240323
v 0.009677 0.138160 0.240323
v 0.012643 0.139840 0.244763
v 0.012643 0.138160 0.244763
v 0.010306 0.141800 0.255950
v 0.000000 0.141800 0.261900
v 0.000000 0.139000 0.261900
v 0.010306 0.139000 0.255950
v -0.010306 0.141800 0.255950
v -0.010306 0.139000 0.255950
v -0.010306 0.141800 0.244050
v -0.010306 0.139000 0.244050
v -0.000000 0.141800 0.238100
v -0.000000 0.139000 0.238100
v 0.010306 0.141800 0.244050
v 0.010306 0.139000 0.244050
v -0.455000 0.101000 0.235000
v -0.435000 0.101000 0.235000
v -0.435000 0.101000 0.265000
v -0.455000 0.101000 0.265000
v -0.455000 0.139000 0.265000
v -0.435000 0.139000 0.265000
v -0.435000 0.139000 0.235000
v -0.455000 0.139000 0.235000
v 0.435000 0.101000 0.235000
v 0.455000 0.101000 0.235000
v 0.455000 0.101000 0.265000
v 0.435000 0.101000 0.265000
v 0.435000 0.139000 0.265000
v 0.455000 0.139000 0.265000
v 0.455000 0.139000 0.235000
v 0.435000 0.139000 0.235000
v 0.306250 0.081250 -0.100000
v 0.290703 0.078158 -0.100000
v 0.290703 0.078158 0.500000
v 0.306250 0.081250 0.500000
v 0.277524 0.069351 -0.100000
v 0.277524 0.069351 0.500000
v 0.268717 0.056172 -0.100000
v 0.268717 0.056172 0.500000
v 0.265625 0.040625 -0.100000
v 0.265625 0.040625 0.500000
v 0.268717 0.025078 -0.100000
v 0.268717 0.025078 0.500000
v 0.277524 0.011899 -0.100000
v 0.277524 0.011899 0.500000
v 0.290703 0.003092 -0.100000
v 0.290703 0.003092 0.500000
v 0.306250 0.000000 -0.100000
v 0.306250 0.000000 0.500000
v 0.321797 0.003092 -0.100000
v 0.321797 0.003092 0.500000
v 0.334976 0.011899 -0.100000
v 0.334976 0.011899 0.500000
v 0.343783 0.025078 -0.100000
v 0.343783 0.025078 0.500000
v 0.346875 0.040625 -0.100000
v 0.346875 0.040625 0.500000
v 0.343783 0.056172 -0.100000
v 0.343783 0.056172 0.500000
v 0.334976 0.069351 -0.100000
v 0.334976 0.069351 0.500000
v 0.321797 0.078158 -0.100000
v 0.321797 0.078158 0.500000
v 0.437500 0.081250 -0.100000
v 0.421953 0.078158 -0.100000
v 0.421953 0.078158 0.500000
v 0.437500 0.081250 0.500000
v 0.408774 0.069351 -0.100000
v 0.408774 0.069351 0.500000
v 0.399967 0.056172 -0.100000
v 0.399967 0.056172 0.500000
v 0.396875 0.040625 -0.100000
v 0.396875 0.040625 0.500000
v 0.399967 0.025078 -0.100000
v 0.399967 0.025078 0.500000
v 0.408774 0.011899 -0.100000
v 0.408774 0.011899 0.500000
v 0.421953 0.003092 -0.100000
v 0.421953 0.003092 0.500000
v 0.437500 0.000000 -0.100000
v 0.437500 0.000000 0.500000
v 0.453047 0.003092 -0.100000
v 0.453047 0.003092 0.500000
v 0.466226 0.011899 -0.100000
v 0.466226 0.011899 0.500000
v 0.475033 0.025078 -0.100000
v 0.475033 0.025078 0.500000
v 0.478125 0.040625 -0.100000
v 0.478125 0.040625 0.500000
v 0.475033 0.056172 -0.100000
v 0.475033 0.056172 0.500000
v 0.466226 0.069351 -0.100000
v 0.466226 0.069351 0.500000
v 0.453047 0.078158 -0.100000
v 0.453047 0.078158 0.500000
v 0.306250 0.081250 -0.080000
v 0.321797 0.078158 -0.080000
v 0.322313 0.077522 -0.334432
v 0.306867 0.080562 -0.332578
v 0.334976 0.069351 -0.080000
v 0.335314 0.068864 -0.337133
v 0.343783 0.056172 -0.080000
v 0.343890 0.055908 -0.340271
v 0.346875 0.040625 -0.080000
v 0.346735 0.040625 -0.343367
v 0.343783 0.025078 -0.080000
v 0.343417 0.025342 -0.345951
v 0.334976 0.011899 -0.080000
v 0.334441 0.012386 -0.347629
v 0.321797 0.003092 -0.080000
v 0.321173 0.003728 -0.348145
v 0.306250 0.000000 -0.080000
v 0.305633 0.000688 -0.347422
v 0.290703 0.003092 -0.080000
v 0.290187 0.003728 -0.345568
v 0.277524 0.011899 -0.080000
v 0.277186 0.012386 -0.342867
v 0.268717 0.025078 -0.080000
v 0.268610 0.025342 -0.339729
v 0.265625 0.040625 -0.080000
v 0.265765 0.040625 -0.336633
v 0.268717 0.056172 -0.080000
v 0.269083 0.055908 -0.334049
v 0.277524 0.069351 -0.080000
v 0.278059 0.068864 -0.332371
v 0.290703 0.078158 -0.080000
v 0.291327 0.077522 -0.331855
v 0.309813 0.105647 -0.406432
v 0.294367 0.108687 -0.404578
v 0.322814 0.096989 -0.409133
v 0.331390 0.084033 -0.412271
v 0.334235 0.068750 -0.415367
v 0.330917 0.053467 -0.417951
v 0.321941 0.040511 -0.419629
v 0.308673 0.031853 -0.420145
v 0.293133 0.028813 -0.419422
v 0.277687 0.031853 -0.417568
v 0.264686 0.040511 -0.414867
v 0.256110 0.053467 -0.411729
v 0.253265 0.068750 -0.408633
v 0.256583 0.084033 -0.406049
v 0.265559 0.096989 -0.404371
v 0.278827 0.105647 -0.403855
v 0.309875 0.106038 -0.461875
v 0.294378 0.109370 -0.461875
v 0.322917 0.097029 -0.461875
v 0.331518 0.083715 -0.461875
v 0.334370 0.068122 -0.461875
v 0.331038 0.052625 -0.461875
v 0.322029 0.039583 -0.461875
v 0.308715 0.030982 -0.461875
v 0.293122 0.028130 -0.461875
v 0.277625 0.031462 -0.461875
v 0.264583 0.040471 -0.461875
v 0.255982 0.053785 -0.461875
v 0.253130 0.069378 -0.461875
v 0.256462 0.084875 -0.461875
v 0.265471 0.097917 -0.461875
v 0.278785 0.106518 -0.461875
v 0.437500 0.081250 -0.080000
v 0.453047 0.078158 -0.080000
v 0.452423 0.077522 -0.331855
v 0.436883 0.080562 -0.332578
v 0.466226 0.069351 -0.080000
v 0.465691 0.068864 -0.332371
v 0.475033 0.056172 -0.080000
v 0.474667 0.055908 -0.334049
v 0.478125 0.040625 -0.080000
v 0.477985 0.040625 -0.336633
v 0.475033 0.025078 -0.080000
v 0.475140 0.025342 -0.339729
v 0.466226 0.011899 -0.080000
v 0.466564 0.012386 -0.342867
v 0.453047 0.003092 -0.080000
v 0.453563 0.003728 -0.345568
v 0.437500 0.000000 -0.080000
v 0.438117 0.000688 -0.347422
v 0.421953 0.003092 -0.080000
v 0.422577 0.003728 -0.348145
v 0.408774 0.011899 -0.080000
v 0.409309 0.012386 -0.347629
v 0.399967 0.025078 -0.080000
v 0.400333 0.025342 -0.345951
v 0.396875 0.040625 -0.080000
v 0.397015 0.040625 -0.343367
v 0.399967 0.056172 -0.080000
v 0.399860 0.055908 -0.340271
v 0.408774 0.069351 -0.080000
v 0.408436 0.068864 -0.337133
v 0.421953 0.078158 -0.080000
v 0.421437 0.077522 -0.334432
v 0.464923 0.105647 -0.403855
v 0.449383 0.108687 -0.404578
v 0.478191 0.096989 -0.404371
v 0.487167 0.084033 -0.406049
v 0.490485 0.068750 -0.408633
v 0.487640 0.053467 -0.411729
v 0.479064 0.040511 -0.414867
v 0.466063 0.031853 -0.417568
v 0.450617 0.028813 -0.419422
v 0.435077 0.031853 -0.420145
v 0.421809 0.040511 -0.419629
v 0.412833 0.053467 -0.417951
v 0.409515 0.068750 -0.415367
v 0.412360 0.084033 -0.412271
v 0.420936 0.096989 -0.409133
v 0.433937 0.105647 -0.406432
v 0.464965 0.106518 -0.461875
v 0.449372 0.109370 -0.461875
v 0.478279 0.097917 -0.461875
v 0.487288 0.084875 -0.461875
v 0.490620 0.069378 -0.461875
v 0.487768 0.053785 -0.461875
v 0.479167 0.040471 -0.461875
v 0.466125 0.031462 -0.461875
v 0.450628 0.028130 -0.461875
v 0.435035 0.030982 -0.461875
v 0.421721 0.039583 -0.461875
v 0.412712 0.052625 -0.461875
v 0.409380 0.068122 -0.461875
v 0.412232 0.083715 -0.461875
v 0.420833 0.097029 -0.461875
v 0.433875 0.106038 -0.461875
v 0.293750 0.120005 -0.474375
v 0.274136 0.116103 -0.474375
v 0.277486 0.108015 -0.440000
v 0.293750 0.111250 -0.440000
v 0.257507 0.104993 -0.474375
v 0.263698 0.098802 -0.440000
v 0.246397 0.088364 -0.474375
v 0.254485 0.085014 -0.440000
v 0.242495 0.068750 -0.474375
v 0.251250 0.068750 -0.440000
v 0.246397 0.049136 -0.474375
v 0.254485 0.052486 -0.440000
v 0.257507 0.032507 -0.474375
v 0.263698 0.038698 -0.440000
v 0.274136 0.021397 -0.474375
v 0.277486 0.029485 -0.440000
v 0.293750 0.017495 -0.474375
v 0.293750 0.026250 -0.440000
v 0.313364 0.021397 -0.474375
v 0.310014 0.029485 -0.440000
v 0.329993 0.032507 -0.474375
v 0.323802 0.038698 -0.440000
v 0.341103 0.049136 -0.474375
v 0.333015 0.052486 -0.440000
v 0.345005 0.068750 -0.474375
v 0.336250 0.068750 -0.440000
v 0.341103 0.088364 -0.474375
v 0.333015 0.085014 -0.440000
v 0.329993 0.104993 -0.474375
v 0.323802 0.098802 -0.440000
v 0.313364 0.116103 -0.474375
v 0.310014 0.108015 -0.440000
v 0.293750 0.128125 -0.524375
v 0.271028 0.123605 -0.524375
v 0.271028 0.123605 -0.474375
v 0.293750 0.128125 -0.474375
v 0.251766 0.110734 -0.524375
v 0.251766 0.110734 -0.474375
v 0.238895 0.091472 -0.524375
v 0.238895 0.091472 -0.474375
v 0.234375 0.068750 -0.524375
v 0.234375 0.068750 -0.474375
v 0.238895 0.046028 -0.524375
v 0.238895 0.046028 -0.474375
v 0.251766 0.026766 -0.524375
v 0.251766 0.026766 -0.474375
v 0.271028 0.013895 -0.524375
v 0.271028 0.013895 -0.474375
v 0.293750 0.009375 -0.524375
v 0.293750 0.009375 -0.474375
v 0.316472 0.013895 -0.524375
v 0.316472 0.013895 -0.474375
v 0.335734 0.026766 -0.524375
v 0.335734 0.026766 -0.474375
v 0.348605 0.046028 -0.524375
v 0.348605 0.046028 -0.474375
v 0.353125 0.068750 -0.524375
v 0.353125 0.068750 -0.474375
v 0.348605 0.091472 -0.524375
v 0.348605 0.091472 -0.474375
v 0.335734 0.110734 -0.524375
v 0.335734 0.110734 -0.474375
v 0.316472 0.123605 -0.524375
v 0.316472 0.123605 -0.474375
v 0.293750 0.118750 -0.608750
v 0.274616 0.114944 -0.608750
v 0.274616 0.114944 -0.524375
v 0.293750 0.118750 -0.524375
v 0.258395 0.104105 -0.608750
v 0.258395 0.104105 -0.524375
v 0.247556 0.087884 -0.608750
v 0.247556 0.087884 -0.524375
v 0.243750 0.068750 -0.608750
v 0.243750 0.068750 -0.524375
v 0.247556 0.049616 -0.608750
v 0.247556 0.049616 -0.524375
v 0.258395 0.033395 -0.608750
v 0.258395 0.033395 -0.524375
v 0.274616 0.022556 -0.608750
v 0.274616 0.022556 -0.524375
v 0.293750 0.018750 -0.608750
v 0.293750 0.018750 -0.524375
v 0.312884 0.022556 -0.608750
v 0.312884 0.022556 -0.524375
v 0.329105 0.033395 -0.608750
v 0.329105 0.033395 -0.524375
v 0.339944 0.049616 -0.608750
v 0.339944 0.049616 -0.524375
v 0.343750 0.068750 -0.608750
v 0.343750 0.068750 -0.524375
v 0.339944 0.087884 -0.608750
v 0.339944 0.087884 -0.524375
v 0.329105 0.104105 -0.608750
v 0.329105 0.104105 -0.524375
v 0.312884 0.114944 -0.608750
v 0.312884 0.114944 -0.524375
v 0.293750 0.137500 -0.680625
v 0.267441 0.132267 -0.680625
v 0.267441 0.132267 -0.608750
v 0.293750 0.137500 -0.608750
v 0.245136 0.117364 -0.680625
v 0.245136 0.117364 -0.608750
v 0.230233 0.095059 -0.680625
v 0.230233 0.095059 -0.608750
v 0.225000 0.068750 -0.680625
v 0.225000 0.068750 -0.608750
v 0.230233 0.042441 -0.680625
v 0.230233 0.042441 -0.608750
v 0.245136 0.020136 -0.680625
v 0.245136 0.020136 -0.608750
v 0.267441 0.005233 -0.680625
v 0.267441 0.005233 -0.608750
v 0.293750 0.000000 -0.680625
v 0.293750 0.000000 -0.608750
v 0.320059 0.005233 -0.680625
v 0.320059 0.005233 -0.608750
v 0.342364 0.020136 -0.680625
v 0.342364 0.020136 -0.608750
v 0.357267 0.042441 -0.680625
v 0.357267 0.042441 -0.608750
v 0.362500 0.068750 -0.680625
v 0.362500 0.068750 -0.608750
v 0.357267 0.095059 -0.680625
v 0.357267 0.095059 -0.608750
v 0.342364 0.117364 -0.680625
v 0.342364 0.117364 -0.608750
v 0.320059 0.132267 -0.680625
v 0.320059 0.132267 -0.608750
v 0.293750 0.128150 -0.715000
v 0.271019 0.123628 -0.715000
v 0.251748 0.110752 -0.715000
v 0.238872 0.091481 -0.715000
v 0.234350 0.068750 -0.715000
v 0.238872 0.046019 -0.715000
v 0.251748 0.026748 -0.715000
v 0.271019 0.013872 -0.715000
v 0.293750 0.009350 -0.715000
v 0.316481 0.013872 -0.715000
v 0.335752 0.026748 -0.715000
v 0.348628 0.046019 -0.715000
v 0.353150 0.068750 -0.715000
v 0.348628 0.091481 -0.715000
v 0.335752 0.110752 -0.715000
v 0.316481 0.123628 -0.715000
v 0.293750 0.082500 -0.728750
v 0.288488 0.081453 -0.728750
v 0.288488 0.081453 -0.715000
v 0.293750 0.082500 -0.715000
v 0.284027 0.078473 -0.728750
v 0.284027 0.078473 -0.715000
v 0.281047 0.074012 -0.728750
v 0.281047 0.074012 -0.715000
v 0.280000 0.068750 -0.728750
v 0.280000 0.068750 -0.715000
v 0.281047 0.063488 -0.728750
v 0.281047 0.063488 -0.715000
v 0.284027 0.059027 -0.728750
v 0.284027 0.059027 -0.715000
v 0.288488 0.056047 -0.728750
v 0.288488 0.056047 -0.715000
v 0.293750 0.055000 -0.728750
v 0.293750 0.055000 -0.715000
v 0.299012 0.056047 -0.728750
v 0.299012 0.056047 -0.715000
v 0.303473 0.059027 -0.728750
v 0.303473 0.059027 -0.715000
v 0.306453 0.063488 -0.728750
v 0.306453 0.063488 -0.715000
v 0.307500 0.068750 -0.728750
v 0.307500 0.068750 -0.715000
v 0.306453 0.074012 -0.728750
v 0.306453 0.074012 -0.715000
v 0.303473 0.078473 -0.728750
v 0.303473 0.078473 -0.715000
v 0.299012 0.081453 -0.728750
v 0.299012 0.081453 -0.715000
v 0.450000 0.120005 -0.474375
v 0.430386 0.116103 -0.474375
v 0.433736 0.108015 -0.440000
v 0.450000 0.111250 -0.440000
v 0.413757 0.104993 -0.474375
v 0.419948 0.098802 -0.440000
v 0.402647 0.088364 -0.474375
v 0.410735 0.085014 -0.440000
v 0.398745 0.068750 -0.474375
v 0.407500 0.068750 -0.440000
v 0.402647 0.049136 -0.474375
v 0.410735 0.052486 -0.440000
v 0.413757 0.032507 -0.474375
v 0.419948 0.038698 -0.440000
v 0.430386 0.021397 -0.474375
v 0.433736 0.029485 -0.440000
v 0.450000 0.017495 -0.474375
v 0.450000 0.026250 -0.440000
v 0.469614 0.021397 -0.474375
v 0.466264 0.029485 -0.440000
v 0.486243 0.032507 -0.474375
v 0.480052 0.038698 -0.440000
v 0.497353 0.049136 -0.474375
v 0.489265 0.052486 -0.440000
v 0.501255 0.068750 -0.474375
v 0.492500 0.068750 -0.440000
v 0.497353 0.088364 -0.474375
v 0.489265 0.085014 -0.440000
v 0.486243 0.104993 -0.474375
v 0.480052 0.098802 -0.440000
v 0.469614 0.116103 -0.474375
v 0.466264 0.108015 -0.440000
v 0.450000 0.128125 -0.524375
v 0.427278 0.123605 -0.524375
v 0.427278 0.123605 -0.474375
v 0.450000 0.128125 -0.474375
v 0.408016 0.110734 -0.524375
v 0.408016 0.110734 -0.474375
v 0.395145 0.091472 -0.524375
v 0.395145 0.091472 -0.474375
v 0.390625 0.068750 -0.524375
v 0.390625 0.068750 -0.474375
v 0.395145 0.046028 -0.524375
v 0.395145 0.046028 -0.474375
v 0.408016 0.026766 -0.524375
v 0.408016 0.026766 -0.474375
v 0.427278 0.013895 -0.524375
v 0.427278 0.013895 -0.474375
v 0.450000 0.009375 -0.524375
v 0.450000 0.009375 -0.474375
v 0.472722 0.013895 -0.524375
v 0.472722 0.013895 -0.474375
v 0.491984 0.026766 -0.524375
v 0.491984 0.026766 -0.474375
v 0.504855 0.046028 -0.524375
v 0.504855 0.046028 -0.474375
v 0.509375 0.068750 -0.524375
v 0.509375 0.068750 -0.474375
v 0.504855 0.091472 -0.524375
v 0.504855 0.091472 -0.474375
v 0.491984 0.110734 -0.524375
v 0.491984 0.110734 -0.474375
v 0.472722 0.123605 -0.524375
v 0.472722 0.123605 -0.474375
v 0.450000 0.118750 -0.608750
v 0.430866 0.114944 -0.608750
v 0.430866 0.114944 -0.524375
v 0.450000 0.118750 -0.524375
v 0.414645 0.104105 -0.608750
v 0.414645 0.104105 -0.524375
v 0.403806 0.087884 -0.608750
v 0.403806 0.087884 -0.524375
v 0.400000 0.068750 -0.608750
v 0.400000 0.068750 -0.524375
v 0.403806 0.049616 -0.608750
v 0.403806 0.049616 -0.524375
v 0.414645 0.033395 -0.608750
v 0.414645 0.033395 -0.524375
v 0.430866 0.022556 -0.608750
v 0.430866 0.022556 -0.524375
v 0.450000 0.018750 -0.608750
v 0.450000 0.018750 -0.524375
v 0.469134 0.022556 -0.608750
v 0.469134 0.022556 -0.524375
v 0.485355 0.033395 -0.608750
v 0.485355 0.033395 -0.524375
v 0.496194 0.049616 -0.608750
v 0.496194 0.049616 -0.524375
v 0.500000 0.068750 -0.608750
v 0.500000 0.068750 -0.524375
v 0.496194 0.087884 -0.608750
v 0.496194 0.087884 -0.524375
v 0.485355 0.104105 -0.608750
v 0.485355 0.104105 -0.524375
v 0.469134 0.114944 -0.608750
v 0.469134 0.114944 -0.524375
v 0.450000 0.137500 -0.680625
v 0.423691 0.132267 -0.680625
v 0.423691 0.132267 -0.608750
v 0.450000 0.137500 -0.608750
v 0.401386 0.117364 -0.680625
v 0.401386 0.117364 -0.608750
v 0.386483 0.095059 -0.680625
v 0.386483 0.095059 -0.608750
v 0.381250 0.068750 -0.680625
v 0.381250 0.068750 -0.608750
v 0.386483 0.042441 -0.680625
v 0.386483 0.042441 -0.608750
v 0.401386 0.020136 -0.680625
v 0.401386 0.020136 -0.608750
v 0.423691 0.005233 -0.680625
v 0.423691 0.005233 -0.608750
v 0.450000 0.000000 -0.680625
v 0.450000 0.000000 -0.608750
v 0.476309 0.005233 -0.680625
v 0.476309 0.005233 -0.608750
v 0.498614 0.020136 -0.680625
v 0.498614 0.020136 -0.608750
v 0.513517 0.042441 -0.680625
v 0.513517 0.042441 -0.608750
v 0.518750 0.068750 -0.680625
v 0.518750 0.068750 -0.608750
v 0.513517 0.095059 -0.680625
v 0.513517 0.095059 -0.608750
v 0.498614 0.117364 -0.680625
v 0.498614 0.117364 -0.608750
v 0.476309 0.132267 -0.680625
v 0.476309 0.132267 -0.608750
v 0.450000 0.128150 -0.715000
v 0.427269 0.123628 -0.715000
v 0.407998 0.110752 -0.715000
v 0.395122 0.091481 -0.715000
v 0.390600 0.068750 -0.715000
v 0.395122 0.046019 -0.715000
v 0.407998 0.026748 -0.715000
v 0.427269 0.013872 -0.715000
v 0.450000 0.009350 -0.715000
v 0.472731 0.013872 -0.715000
v 0.492002 0.026748 -0.715000
v 0.504878 0.046019 -0.715000
v 0.509400 0.068750 -0.715000
v 0.504878 0.091481 -0.715000
v 0.492002 0.110752 -0.715000
v 0.472731 0.123628 -0.715000
v -0.065625 0.081250 -0.500000
v -0.081172 0.078158 -0.500000
v -0.076618 0.078158 -0.089007
v -0.065625 0.081250 -0.100000
v -0.094351 0.069351 -0.500000
v -0.085938 0.069351 -0.079688
v -0.103158 0.056172 -0.500000
v -0.092165 0.056172 -0.073460
v -0.106250 0.040625 -0.500000
v -0.094351 0.040625 -0.071274
v -0.103158 0.025078 -0.500000
v -0.092165 0.025078 -0.073460
v -0.094351 0.011899 -0.500000
v -0.085938 0.011899 -0.079687
v -0.081172 0.003092 -0.500000
v -0.076618 0.003092 -0.089007
v -0.065625 0.000000 -0.500000
v -0.065625 0.000000 -0.100000
v -0.050078 0.003092 -0.500000
v -0.054632 0.003092 -0.110993
v -0.036899 0.011899 -0.500000
v -0.045313 0.011899 -0.120313
v -0.028092 0.025078 -0.500000
v -0.039085 0.025078 -0.126540
v -0.025000 0.040625 -0.500000
v -0.036899 0.040625 -0.128726
v -0.028092 0.056172 -0.500000
v -0.039085 0.056172 -0.126540
v -0.036899 0.069351 -0.500000
v -0.045312 0.069351 -0.120313
v -0.050078 0.078158 -0.500000
v -0.054632 0.078158 -0.110993
v 0.306250 0.078158 -0.084453
v 0.306250 0.069351 -0.071274
v 0.306250 0.056172 -0.062467
v 0.306250 0.040625 -0.059375
v 0.306250 0.025078 -0.062467
v 0.306250 0.011899 -0.071274
v 0.306250 0.003092 -0.084453
v 0.306250 0.003092 -0.115547
v 0.306250 0.011899 -0.128726
v 0.306250 0.025078 -0.137533
v 0.306250 0.040625 -0.140625
v 0.306250 0.056172 -0.137533
v 0.306250 0.069351 -0.128726
v 0.306250 0.078158 -0.115547
v 0.065625 0.081250 -0.500000
v 0.050078 0.078158 -0.500000
v 0.054632 0.078158 -0.189007
v 0.065625 0.081250 -0.200000
v 0.036899 0.069351 -0.500000
v 0.045313 0.069351 -0.179688
v 0.028092 0.056172 -0.500000
v 0.039085 0.056172 -0.173460
v 0.025000 0.040625 -0.500000
v 0.036899 0.040625 -0.171274
v 0.028092 0.025078 -0.500000
v 0.039085 0.025078 -0.173460
v 0.036899 0.011899 -0.500000
v 0.045312 0.011899 -0.179688
v 0.050078 0.003092 -0.500000
v 0.054632 0.003092 -0.189007
v 0.065625 0.000000 -0.500000
v 0.065625 0.000000 -0.200000
v 0.081172 0.003092 -0.500000
v 0.076618 0.003092 -0.210993
v 0.094351 0.011899 -0.500000
v 0.085938 0.011899 -0.220313
v 0.103158 0.025078 -0.500000
v 0.092165 0.025078 -0.226540
v 0.106250 0.040625 -0.500000
v 0.094351 0.040625 -0.228726
v 0.103158 0.056172 -0.500000
v 0.092165 0.056172 -0.226540
v 0.094351 0.069351 -0.500000
v 0.085938 0.069351 -0.220313
v 0.081172 0.078158 -0.500000
v 0.076618 0.078158 -0.210993
v 0.426507 0.078158 -0.189007
v 0.437500 0.081250 -0.200000
v 0.417187 0.069351 -0.179688
v 0.410960 0.056172 -0.173460
v 0.408774 0.040625 -0.171274
v 0.410960 0.025078 -0.173460
v 0.417187 0.011899 -0.179688
v 0.426507 0.003092 -0.189007
v 0.437500 0.000000 -0.200000
v 0.448493 0.003092 -0.210993
v 0.457813 0.011899 -0.220313
v 0.464040 0.025078 -0.226540
v 0.466226 0.040625 -0.228726
v 0.464040 0.056172 -0.226540
v 0.457813 0.069351 -0.220313
v 0.448493 0.078158 -0.210993
v -0.065625 0.081250 0.500000
v -0.050078 0.078158 0.500000
v -0.054632 0.078158 0.390993
v -0.065625 0.081250 0.380000
v -0.036899 0.069351 0.500000
v -0.045313 0.069351 0.400313
v -0.028092 0.056172 0.500000
v -0.039085 0.056172 0.406540
v -0.025000 0.040625 0.500000
v -0.036899 0.040625 0.408726
v -0.028092 0.025078 0.500000
v -0.039085 0.025078 0.406540
v -0.036899 0.011899 0.500000
v -0.045312 0.011899 0.400313
v -0.050078 0.003092 0.500000
v -0.054632 0.003092 0.390993
v -0.065625 0.000000 0.500000
v -0.065625 0.000000 0.380000
v -0.081172 0.003092 0.500000
v -0.076618 0.003092 0.369007
v -0.094351 0.011899 0.500000
v -0.085938 0.011899 0.359687
v -0.103158 0.025078 0.500000
v -0.092165 0.025078 0.353460
v -0.106250 0.040625 0.500000
v -0.094351 0.040625 0.351274
v -0.103158 0.056172 0.500000
v -0.092165 0.056172 0.353460
v -0.094351 0.069351 0.500000
v -0.085938 0.069351 0.359687
v -0.081172 0.078158 0.500000
v -0.076618 0.078158 0.369007
v 0.306250 0.078158 0.395547
v 0.306250 0.081250 0.380000
v 0.306250 0.069351 0.408726
v 0.306250 0.056172 0.417533
v 0.306250 0.040625 0.420625
v 0.306250 0.025078 0.417533
v 0.306250 0.011899 0.408726
v 0.306250 0.003092 0.395547
v 0.306250 0.000000 0.380000
v 0.306250 0.003092 0.364453
v 0.306250 0.011899 0.351274
v 0.306250 0.025078 0.342467
v 0.306250 0.040625 0.339375
v 0.306250 0.056172 0.342467
v 0.306250 0.069351 0.351274
v 0.306250 0.078158 0.364453
v 0.065625 0.081250 0.500000
v 0.081172 0.078158 0.500000
v 0.076618 0.078158 0.470993
v 0.065625 0.081250 0.460000
v 0.094351 0.069351 0.500000
v 0.085938 0.069351 0.480313
v 0.103158 0.056172 0.500000
v 0.092165 0.056172 0.486540
v 0.106250 0.040625 0.500000
v 0.094351 0.040625 0.488726
v 0.103158 0.025078 0.500000
v 0.092165 0.025078 0.486540
v 0.094351 0.011899 0.500000
v 0.085938 0.011899 0.480313
v 0.081172 0.003092 0.500000
v 0.076618 0.003092 0.470993
v 0.065625 0.000000 0.500000
v 0.065625 0.000000 0.460000
v 0.050078 0.003092 0.500000
v 0.054632 0.003092 0.449007
v 0.036899 0.011899 0.500000
v 0.045313 0.011899 0.439688
v 0.028092 0.025078 0.500000
v 0.039085 0.025078 0.433460
v 0.025000 0.040625 0.500000
v 0.036899 0.040625 0.431274
v 0.028092 0.056172 0.500000
v 0.039085 0.056172 0.433460
v 0.036899 0.069351 0.500000
v 0.045312 0.069351 0.439688
v 0.050078 0.078158 0.500000
v 0.054632 0.078158 0.449007
v 0.437500 0.078158 0.475547
v 0.437500 0.081250 0.460000
v 0.437500 0.069351 0.488726
v 0.437500 0.056172 0.497533
v 0.437500 0.040625 0.500625
v 0.437500 0.025078 0.497533
v 0.437500 0.011899 0.488726
v 0.437500 0.003092 0.475547
v 0.437500 0.000000 0.460000
v 0.437500 0.003092 0.444453
v 0.437500 0.011899 0.431274
v 0.437500 0.025078 0.422467
v 0.437500 0.040625 0.419375
v 0.437500 0.056172 0.422467
v 0.437500 0.069351 0.431274
v 0.437500 0.078158 0.444453
vn 0.0000 -1.0000 0.0000
vn 0.0000 1.0000 0.0000
vn 0.0000 0.0000 -1.0000
vn 0.0000 0.0000 1.0000
vn -1.0000 0.0000 0.0000
vn 1.0000 0.0000 0.0000
vn 0.8660 0.0000 0.5000
vn -0.8660 0.0000 0.5000
vn -0.8660 0.0000 -0.5000
vn 0.8660 0.0000 -0.5000
vn 0.9808 0.0000 0.1951
vn 0.8315 0.0000 0.5556
vn 0.5556 0.0000 0.8315
vn 0.1951 0.0000 0.9808
vn -0.1951 0.0000 0.9808
vn -0.5556 0.0000 0.8315
vn -0.8315 0.0000 0.5556
vn -0.9808 0.0000 0.1951
vn -0.9808 0.0000 -0.1951
vn -0.8315 0.0000 -0.5556
vn -0.5556 0.0000 -0.8315
vn -0.1951 0.0000 -0.9808
vn 0.1951 0.0000 -0.9808
vn 0.5556 0.0000 -0.8315
vn 0.8315 0.0000 -0.5556
vn 0.9808 0.0000 -0.1951
vn 0.5000 0.0000 0.8660
vn -0.5000 0.0000 0.8660
vn -0.5000 0.0000 -0.8660
vn 0.5000 0.0000 -0.8660
vn -0.1913 0.9619 0.0000
vn -0.5449 0.8155 0.0000
vn -0.8155 0.5449 0.0000
vn -0.9619 0.1913 0.0000
vn -0.9619 -0.1913 0.0000
vn -0.8155 -0.5449 0.0000
vn -0.5449 -0.8155 0.0000
vn -0.1913 -0.9619 0.0000
vn 0.1913 -0.9619 0.0000
vn 0.5449 -0.8155 0.0000
vn 0.8155 -0.5449 0.0000
vn 0.9619 -0.1913 0.0000
vn 0.9619 0.1913 0.0000
vn 0.8155 0.5449 -0.0000
vn 0.5449 0.8155 -0.0000
vn 0.1913 0.9619 0.0000
vn 0.2053 0.9456 0.1599
vn 0.5554 0.8017 0.1038
vn 0.8210 0.5357 0.0320
vn 0.9615 0.1881 -0.0448
vn 0.9557 -0.1881 -0.1147
vn 0.8044 -0.5357 -0.1671
vn 0.5306 -0.8017 -0.1941
vn 0.1761 -0.9456 -0.1916
vn -0.2053 -0.9456 -0.1599
vn -0.5554 -0.8017 -0.1038
vn -0.8210 -0.5357 -0.0320
vn -0.9615 -0.1881 0.0448
vn -0.9557 0.1881 0.1147
vn -0.8044 0.5357 0.1671
vn -0.5306 0.8017 0.1941
vn -0.1761 0.9456 0.1916
vn 0.1761 0.9456 0.1916
vn 0.5306 0.8017 0.1941
vn 0.8044 0.5357 0.1671
vn 0.9557 0.1881 0.1147
vn 0.9615 -0.1881 0.0448
vn 0.8210 -0.5357 -0.0320
vn 0.5554 -0.8017 -0.1038
vn 0.2053 -0.9456 -0.1599
vn -0.1761 -0.9456 -0.1916
vn -0.5306 -0.8017 -0.1941
vn -0.8044 -0.5357 -0.1671
vn -0.9557 -0.1881 -0.1147
vn -0.9615 0.1881 -0.0448
vn -0.8210 0.5357 0.0320
vn -0.5554 0.8017 0.1038
vn -0.2053 0.9456 0.1599
vn -0.1768 0.9842 0.0000
vn -0.5400 0.8416 0.0000
vn -0.8210 0.5709 0.0000
vn -0.9770 0.2133 0.0000
vn -0.9842 -0.1768 0.0000
vn -0.8416 -0.5400 0.0000
vn -0.5709 -0.8210 0.0000
vn -0.2133 -0.9770 0.0000
vn 0.1768 -0.9842 0.0000
vn 0.5400 -0.8416 0.0000
vn 0.8210 -0.5709 0.0000
vn 0.9770 -0.2133 0.0000
vn 0.9842 0.1768 0.0000
vn 0.8416 0.5400 0.0000
vn 0.5709 0.8210 0.0000
vn 0.2133 0.9770 0.0000
vn -0.1951 0.9808 0.0000
vn -0.5556 0.8315 0.0000
vn -0.8315 0.5556 0.0000
vn -0.9808 0.1951 0.0000
vn -0.9808 -0.1951 0.0000
vn -0.8315 -0.5556 0.0000
vn -0.5556 -0.8315 0.0000
vn -0.1951 -0.9808 0.0000
vn 0.1951 -0.9808 0.0000
vn 0.5556 -0.8315 0.0000
vn 0.8315 -0.5556 0.0000
vn 0.9808 -0.1951 0.0000
vn 0.9808 0.1951 0.0000
vn 0.8315 0.5556 0.0000
vn 0.5556 0.8315 0.0000
vn 0.1951 0.9808 0.0000
vn -0.2093 0.9779 0.0000
vn -0.5676 0.8233 0.0000
vn -0.8394 0.5434 0.0000
vn -0.9835 0.1808 0.0000
vn -0.9779 -0.2093 0.0000
vn -0.8233 -0.5676 0.0000
vn -0.5434 -0.8394 0.0000
vn -0.1808 -0.9835 0.0000
vn 0.2093 -0.9779 0.0000
vn 0.5676 -0.8233 0.0000
vn 0.8394 -0.5434 0.0000
vn 0.9835 -0.1808 0.0000
vn 0.9779 0.2093 0.0000
vn 0.8233 0.5676 0.0000
vn 0.5434 0.8394 0.0000
vn 0.1808 0.9835 0.0000
vn -0.1353 0.9619 0.1353
vn -0.3853 0.8155 0.3853
vn -0.5766 0.5449 0.5766
vn -0.6802 0.1913 0.6802
vn -0.6802 -0.1913 0.6802
vn -0.5766 -0.5449 0.5766
vn -0.3853 -0.8155 0.3853
vn -0.1353 -0.9619 0.1353
vn 0.1353 -0.9619 -0.1353
vn 0.3853 -0.8155 -0.3853
vn 0.5766 -0.5449 -0.5766
vn 0.6802 -0.1913 -0.6802
vn 0.6802 0.1913 -0.6802
vn 0.5766 0.5449 -0.5766
vn 0.3853 0.8155 -0.3853
vn 0.1353 0.9619 -0.1353
vn 0.1353 0.9619 0.1353
vn 0.3853 0.8155 0.3853
vn 0.5766 0.5449 0.5766
vn 0.6802 0.1913 0.6802
vn 0.6802 -0.1913 0.6802
vn 0.5766 -0.5449 0.5766
vn 0.3853 -0.8155 0.3853
vn 0.1353 -0.9619 0.1353
vn -0.1353 -0.9619 -0.1353
vn -0.3853 -0.8155 -0.3853
vn -0.5766 -0.5449 -0.5766
vn -0.6802 -0.1913 -0.6802
vn -0.6802 0.1913 -0.6802
vn -0.5766 0.5449 -0.5766
vn -0.3853 0.8155 -0.3853
vn -0.1353 0.9619 -0.1353
vt 0.000000 0.600000
vt 0.600000 0.600000
vt 0.600000 0.000000
vt 0.000000 0.000000
vt 0.000000 0.350000
vt 0.350000 0.350000
vt 0.350000 0.000000
vt 0.000000 0.300000
vt 0.300000 0.300000
vt 0.300000 0.000000
vt 0.000000 1.000000
vt 1.000000 1.000000
vt 1.000000 0.000000
vt 0.000000 0.120000
vt 0.120000 0.120000
vt 0.120000 0.000000
vt 0.000000 0.100000
vt 0.016667 0.100000
vt 0.016667 0.000000
vt 0.033333 0.100000
vt 0.033333 0.000000
vt 0.050000 0.100000
vt 0.050000 0.000000
vt 0.066667 0.100000
vt 0.066667 0.000000
vt 0.083333 0.100000
vt 0.083333 0.000000
vt 0.100000 0.100000
vt 0.100000 0.000000
vt 0.006250 0.100000
vt 0.006250 0.000000
vt 0.012500 0.100000
vt 0.012500 0.000000
vt 0.018750 0.100000
vt 0.018750 0.000000
vt 0.025000 0.100000
vt 0.025000 0.000000
vt 0.031250 0.100000
vt 0.031250 0.000000
vt 0.037500 0.100000
vt 0.037500 0.000000
vt 0.043750 0.100000
vt 0.043750 0.000000
vt 0.056250 0.100000
vt 0.056250 0.000000
vt 0.062500 0.100000
vt 0.062500 0.000000
vt 0.068750 0.100000
vt 0.068750 0.000000
vt 0.075000 0.100000
vt 0.075000 0.000000
vt 0.081250 0.100000
vt 0.081250 0.000000
vt 0.087500 0.100000
vt 0.087500 0.000000
vt 0.093750 0.100000
vt 0.093750 0.000000
vt 0.500000 0.000000
vt 0.691342 0.038060
vt 0.853553 0.146447
vt 0.961940 0.308658
vt 0.146447 0.146447
vt 0.308658 0.038060
vt 0.000000 0.500000
vt 0.038060 0.308658
vt 0.146447 0.853553
vt 0.038060 0.691342
vt 0.500000 1.000000
vt 0.308658 0.961940
vt 0.853553 0.853553
vt 0.691342 0.961940
vt 1.000000 0.500000
vt 0.961940 0.691342
vt 0.066987 0.750000
vt 0.066987 0.250000
vt 0.933013 0.250000
vt 0.933013 0.750000
vt 0.062500 1.000000
vt 0.125000 0.000000
vt 0.125000 1.000000
vt 0.187500 0.000000
vt 0.187500 1.000000
vt 0.250000 0.000000
vt 0.250000 1.000000
vt 0.312500 0.000000
vt 0.312500 1.000000
vt 0.375000 0.000000
vt 0.375000 1.000000
vt 0.437500 0.000000
vt 0.437500 1.000000
vt 0.562500 0.000000
vt 0.562500 1.000000
vt 0.625000 0.000000
vt 0.625000 1.000000
vt 0.687500 0.000000
vt 0.687500 1.000000
vt 0.750000 0.000000
vt 0.750000 1.000000
vt 0.812500 0.000000
vt 0.812500 1.000000
vt 0.875000 0.000000
vt 0.875000 1.000000
vt 0.937500 0.000000
vt 0.937500 1.000000
vt 0.062500 0.669797
vt 0.000000 0.669797
vt 0.125000 0.669797
vt 0.187500 0.669797
vt 0.250000 0.669797
vt 0.312500 0.669797
vt 0.375000 0.669797
vt 0.437500 0.669797
vt 0.500000 0.669797
vt 0.562500 0.669797
vt 0.625000 0.669797
vt 0.687500 0.669797
vt 0.750000 0.669797
vt 0.812500 0.669797
vt 0.875000 0.669797
vt 0.937500 0.669797
vt 1.000000 0.669797
vt 0.062500 0.871515
vt 0.000000 0.871515
vt 0.125000 0.871515
vt 0.187500 0.871515
vt 0.250000 0.871515
vt 0.312500 0.871515
vt 0.375000 0.871515
vt 0.437500 0.871515
vt 0.500000 0.871515
vt 0.562500 0.871515
vt 0.625000 0.871515
vt 0.687500 0.871515
vt 0.750000 0.871515
vt 0.812500 0.871515
vt 0.875000 0.871515
vt 0.937500 0.871515
vt 1.000000 0.871515
vt 0.000000 0.875000
vt 0.062500 0.875000
vt 0.125000 0.875000
vt 0.187500 0.875000
vt 0.250000 0.875000
vt 0.312500 0.875000
vt 0.375000 0.875000
vt 0.437500 0.875000
vt 0.500000 0.875000
vt 0.562500 0.875000
vt 0.625000 0.875000
vt 0.687500 0.875000
vt 0.750000 0.875000
vt 0.812500 0.875000
vt 0.875000 0.875000
vt 0.937500 0.875000
vt 1.000000 0.875000
vt 0.500000 0.968750
vt 0.404329 0.966371
vt 0.323223 0.959597
vt 0.269030 0.949459
vt 0.250000 0.937500
vt 0.269030 0.925541
vt 0.323223 0.915403
vt 0.404329 0.908629
vt 0.500000 0.906250
vt 0.595671 0.908629
vt 0.676777 0.915403
vt 0.730970 0.925541
vt 0.750000 0.937500
vt 0.730970 0.949459
vt 0.676777 0.959597
vt 0.595671 0.966371
vt 0.000000 0.693200
vt 0.062500 0.693200
vt 0.125000 0.693200
vt 0.187500 0.693200
vt 0.250000 0.693200
vt 0.312500 0.693200
vt 0.375000 0.693200
vt 0.437500 0.693200
vt 0.500000 0.693200
vt 0.562500 0.693200
vt 0.625000 0.693200
vt 0.687500 0.693200
vt 0.750000 0.693200
vt 0.812500 0.693200
vt 0.875000 0.693200
vt 0.937500 0.693200
vt 1.000000 0.693200
vt 0.500000 0.829550
vt 0.404329 0.826090
vt 0.323223 0.816238
vt 0.269030 0.801493
vt 0.250000 0.784100
vt 0.269030 0.766707
vt 0.323223 0.751962
vt 0.404329 0.742110
vt 0.500000 0.738650
vt 0.595671 0.742110
vt 0.676777 0.751962
vt 0.730970 0.766707
vt 0.750000 0.784100
vt 0.730970 0.801493
vt 0.676777 0.816238
vt 0.595671 0.826090
vt 0.000000 0.386400
vt 0.062500 0.386400
vt 0.125000 0.386400
vt 0.187500 0.386400
vt 0.250000 0.386400
vt 0.312500 0.386400
vt 0.375000 0.386400
vt 0.437500 0.386400
vt 0.500000 0.386400
vt 0.562500 0.386400
vt 0.625000 0.386400
vt 0.687500 0.386400
vt 0.750000 0.386400
vt 0.812500 0.386400
vt 0.875000 0.386400
vt 0.937500 0.386400
vt 1.000000 0.386400
vt 0.000000 0.125000
vt 0.062500 0.125000
vt 0.125000 0.125000
vt 0.187500 0.125000
vt 0.250000 0.125000
vt 0.312500 0.125000
vt 0.375000 0.125000
vt 0.437500 0.125000
vt 0.500000 0.125000
vt 0.562500 0.125000
vt 0.625000 0.125000
vt 0.687500 0.125000
vt 0.750000 0.125000
vt 0.812500 0.125000
vt 0.875000 0.125000
vt 0.937500 0.125000
vt 1.000000 0.125000
vt 0.500000 0.321050
vt 0.404329 0.316076
vt 0.323223 0.301909
vt 0.269030 0.280708
vt 0.250000 0.255700
vt 0.269030 0.230692
vt 0.323223 0.209491
vt 0.404329 0.195324
vt 0.500000 0.190350
vt 0.595671 0.195324
vt 0.676777 0.209491
vt 0.730970 0.230692
vt 0.750000 0.255700
vt 0.730970 0.280708
vt 0.676777 0.301909
vt 0.595671 0.316076
vt 0.595671 0.091371
vt 0.676777 0.084597
vt 0.730970 0.074459
vt 0.750000 0.062500
vt 0.730970 0.050541
vt 0.676777 0.040403
vt 0.595671 0.033629
vt 0.500000 0.031250
vt 0.404329 0.033629
vt 0.323223 0.040403
vt 0.269030 0.050541
vt 0.250000 0.062500
vt 0.269030 0.074459
vt 0.323223 0.084597
vt 0.404329 0.091371
vt 0.500000 0.093750
vt 0.062500 0.518219
vt 0.000000 0.518219
vt 0.125000 0.518219
vt 0.187500 0.518219
vt 0.250000 0.518219
vt 0.312500 0.518219
vt 0.375000 0.518219
vt 0.437500 0.518219
vt 0.500000 0.518219
vt 0.562500 0.518219
vt 0.625000 0.518219
vt 0.687500 0.518219
vt 0.750000 0.518219
vt 0.812500 0.518219
vt 0.875000 0.518219
vt 0.937500 0.518219
vt 1.000000 0.518219
vt 0.062500 0.388664
vt 0.000000 0.388664
vt 0.125000 0.388664
vt 0.187500 0.388664
vt 0.250000 0.388664
vt 0.312500 0.388664
vt 0.375000 0.388664
vt 0.437500 0.388664
vt 0.500000 0.388664
vt 0.562500 0.388664
vt 0.625000 0.388664
vt 0.687500 0.388664
vt 0.750000 0.388664
vt 0.812500 0.388664
vt 0.875000 0.388664
vt 0.937500 0.388664
vt 1.000000 0.388664
vt 0.062500 0.870445
vt 0.000000 0.870445
vt 0.125000 0.870445
vt 0.187500 0.870445
vt 0.250000 0.870445
vt 0.312500 0.870445
vt 0.375000 0.870445
vt 0.437500 0.870445
vt 0.500000 0.870445
vt 0.562500 0.870445
vt 0.625000 0.870445
vt 0.687500 0.870445
vt 0.750000 0.870445
vt 0.812500 0.870445
vt 0.875000 0.870445
vt 0.937500 0.870445
vt 1.000000 0.870445
vt 0.062500 0.243964
vt 0.000000 0.243964
vt 0.125000 0.243964
vt 0.187500 0.243964
vt 0.250000 0.243964
vt 0.312500 0.243964
vt 0.375000 0.243964
vt 0.437500 0.243964
vt 0.500000 0.243964
vt 0.562500 0.243964
vt 0.625000 0.243964
vt 0.687500 0.243964
vt 0.750000 0.243964
vt 0.812500 0.243964
vt 0.875000 0.243964
vt 0.937500 0.243964
vt 1.000000 0.243964
vt 0.062500 0.097117
vt 0.000000 0.097117
vt 0.125000 0.097117
vt 0.187500 0.097117
vt 0.250000 0.097117
vt 0.312500 0.097117
vt 0.375000 0.097117
vt 0.437500 0.097117
vt 0.500000 0.097117
vt 0.562500 0.097117
vt 0.625000 0.097117
vt 0.687500 0.097117
vt 0.750000 0.097117
vt 0.812500 0.097117
vt 0.875000 0.097117
vt 0.937500 0.097117
vt 1.000000 0.097117
o ballast
usemtl concrete
f 1/1/1 2/2/1 3/3/1 4/4/1
f 5/4/2 6/3/2 7/2/2 8/1/2
f 8/2/3 7/1/3 2/4/3 1/3/3
f 6/2/4 5/1/4 4/4/4 3/3/4
f 5/2/5 8/1/5 1/4/5 4/3/5
f 7/2/6 6/1/6 3/4/6 2/3/6
f 9/1/1 10/2/1 11/3/1 12/4/1
f 13/4/2 14/3/2 15/2/2 16/1/2
f 16/2/3 15/1/3 10/4/3 9/3/3
f 14/2/4 13/1/4 12/4/4 11/3/4
f 13/2/5 16/1/5 9/4/5 12/3/5
f 15/2/6 14/1/6 11/4/6 10/3/6
f 17/1/1 18/2/1 19/3/1 20/4/1
f 21/4/2 22/3/2 23/2/2 24/1/2
f 24/2/3 23/1/3 18/4/3 17/3/3
f 22/2/4 21/1/4 20/4/4 19/3/4
f 21/2/5 24/1/5 17/4/5 20/3/5
f 23/2/6 22/1/6 19/4/6 18/3/6
f 25/1/1 26/2/1 27/3/1 28/4/1
f 29/4/2 30/3/2 31/2/2 32/1/2
f 32/2/3 31/1/3 26/4/3 25/3/3
f 30/2/4 29/1/4 28/4/4 27/3/4
f 29/2/5 32/1/5 25/4/5 28/3/5
f 31/2/6 30/1/6 27/4/6 26/3/6
o frame
usemtl frame
f 33/5/1 34/6/1 35/7/1 36/4/1
f 37/4/2 38/7/2 39/6/2 40/5/2
f 40/6/3 39/5/3 34/4/3 33/7/3
f 38/6/4 37/5/4 36/4/4 35/7/4
f 37/6/5 40/5/5 33/4/5 36/7/5
f 39/6/6 38/5/6 35/4/6 34/7/6
f 41/5/1 42/6/1 43/7/1 44/4/1
f 45/4/2 46/7/2 39/6/2 40/5/2
f 40/6/3 39/5/3 42/4/3 41/7/3
f 46/6/4 45/5/4 44/4/4 43/7/4
f 45/6/5 40/5/5 41/4/5 44/7/5
f 39/6/6 46/5/6 43/4/6 42/7/6
f 47/5/1 48/6/1 49/7/1 50/4/1
f 37/4/2 38/7/2 51/6/2 52/5/2
f 52/6/3 51/5/3 48/4/3 47/7/3
f 38/6/4 37/5/4 50/4/4 49/7/4
f 37/6/5 52/5/5 47/4/5 50/7/5
f 51/6/6 38/5/6 49/4/6 48/7/6
f 53/5/1 54/6/1 55/7/1 56/4/1
f 57/4/2 58/7/2 59/6/2 60/5/2
f 60/6/3 59/5/3 54/4/3 53/7/3
f 58/6/4 57/5/4 56/4/4 55/7/4
f 57/6/5 60/5/5 53/4/5 56/7/5
f 59/6/6 58/5/6 55/4/6 54/7/6
f 61/5/1 62/6/1 63/7/1 64/4/1
f 65/4/2 66/7/2 59/6/2 60/5/2
f 60/6/3 59/5/3 62/4/3 61/7/3
f 66/6/4 65/5/4 64/4/4 63/7/4
f 65/6/5 60/5/5 61/4/5 64/7/5
f 59/6/6 66/5/6 63/4/6 62/7/6
f 67/5/1 68/6/1 69/7/1 70/4/1
f 57/4/2 58/7/2 71/6/2 72/5/2
f 72/6/3 71/5/3 68/4/3 67/7/3
f 58/6/4 57/5/4 70/4/4 69/7/4
f 57/6/5 72/5/5 67/4/5 70/7/5
f 71/6/6 58/5/6 69/4/6 68/7/6
f 36/5/1 73/6/1 74/7/1 53/4/1
f 60/4/2 75/7/2 76/6/2 37/5/2
f 37/6/3 76/5/3 73/4/3 36/7/3
f 75/6/4 60/5/4 53/4/4 74/7/4
f 60/6/5 37/5/5 36/4/5 53/7/5
f 76/6/6 75/5/6 74/4/6 73/7/6
f 50/5/1 77/6/1 78/7/1 61/4/1
f 60/4/2 79/7/2 80/6/2 37/5/2
f 37/6/3 80/5/3 77/4/3 50/7/3
f 79/6/4 60/5/4 61/4/4 78/7/4
f 60/6/5 37/5/5 50/4/5 61/7/5
f 80/6/6 79/5/6 78/4/6 77/7/6
f 81/5/1 82/6/1 83/7/1 84/4/1
f 85/4/2 75/7/2 76/6/2 86/5/2
f 86/6/3 76/5/3 82/4/3 81/7/3
f 75/6/4 85/5/4 84/4/4 83/7/4
f 85/6/5 86/5/5 81/4/5 84/7/5
f 76/6/6 75/5/6 83/4/6 82/7/6
f 87/5/1 35/6/1 54/7/1 88/4/1
f 89/4/2 59/7/2 38/6/2 90/5/2
f 90/6/3 38/5/3 35/4/3 87/7/3
f 59/6/4 89/5/4 88/4/4 54/7/4
f 89/6/5 90/5/5 87/4/5 88/7/5
f 38/6/6 59/5/6 54/4/6 35/7/6
f 91/5/1 92/6/1 93/7/1 94/4/1
f 89/4/2 95/7/2 96/6/2 90/5/2
f 90/6/3 96/5/3 92/4/3 91/7/3
f 95/6/4 89/5/4 94/4/4 93/7/4
f 89/6/5 90/5/5 91/4/5 94/7/5
f 96/6/6 95/5/6 93/4/6 92/7/6
f 97/5/1 49/6/1 62/7/1 98/4/1
f 99/4/2 59/7/2 38/6/2 100/5/2
f 100/6/3 38/5/3 49/4/3 97/7/3
f 59/6/4 99/5/4 98/4/4 62/7/4
f 99/6/5 100/5/5 97/4/5 98/7/5
f 38/6/6 59/5/6 62/4/6 49/7/6
f 101/8/1 102/9/1 103/10/1 104/4/1
f 105/4/2 106/10/2 107/9/2 108/8/2
f 108/9/3 107/8/3 102/4/3 101/10/3
f 106/9/4 105/8/4 104/4/4 103/10/4
f 105/9/5 108/8/5 101/4/5 104/10/5
f 107/9/6 106/8/6 103/4/6 102/10/6
f 109/8/1 110/9/1 111/10/1 112/4/1
f 113/4/2 114/10/2 115/9/2 116/8/2
f 116/9/3 115/8/3 110/4/3 109/10/3
f 114/9/4 113/8/4 112/4/4 111/10/4
f 113/9/5 116/8/5 109/4/5 112/10/5
f 115/9/6 114/8/6 111/4/6 110/10/6
o modules
usemtl module_back
f 117/11/1 118/12/1 119/13/1 120/4/1
f 125/11/1 126/12/1 127/13/1 128/4/1
usemtl module
f 121/4/2 122/13/2 123/12/2 124/11/2
f 129/4/2 130/13/2 131/12/2 132/11/2
usemtl module_edge
f 124/12/3 123/11/3 118/4/3 117/13/3
f 122/12/4 121/11/4 120/4/4 119/13/4
f 121/12/5 124/11/5 117/4/5 120/13/5
f 123/12/6 122/11/6 119/4/6 118/13/6
f 132/12/3 131/11/3 126/4/3 125/13/3
f 130/12/4 129/11/4 128/4/4 127/13/4
f 129/12/5 132/11/5 125/4/5 128/13/5
f 131/12/6 130/11/6 127/4/6 126/13/6
usemtl frame
f 133/14/1 134/15/1 135/16/1 136/4/1
f 137/4/2 138/16/2 139/15/2 140/14/2
f 140/15/3 139/14/3 134/4/3 133/16/3
f 138/15/4 137/14/4 136/4/4 135/16/4
f 137/15/5 140/14/5 133/4/5 136/16/5
f 139/15/6 138/14/6 135/4/6 134/16/6
f 141/17/7 142/18/7 143/19/7 144/4/7
f 142/18/4 145/20/4 146/21/4 143/19/4
f 145/20/8 147/22/8 148/23/8 146/21/8
f 147/22/9 149/24/9 150/25/9 148/23/9
f 149/24/3 151/26/3 152/27/3 150/25/3
f 151/26/10 141/28/10 144/29/10 152/27/10
f 153/17/11 154/30/11 155/31/11 156/4/11
f 154/30/12 157/32/12 158/33/12 155/31/12
f 157/32/13 159/34/13 160/35/13 158/33/13
f 159/34/14 161/36/14 162/37/14 160/35/14
f 161/36/15 163/38/15 164/39/15 162/37/15
f 163/38/16 165/40/16 166/41/16 164/39/16
f 165/40/17 167/42/17 168/43/17 166/41/17
f 167/42/18 169/22/18 170/23/18 168/43/18
f 169/22/19 171/44/19 172/45/19 170/23/19
f 171/44/20 173/46/20 174/47/20 172/45/20
f 173/46/21 175/48/21 176/49/21 174/47/21
f 175/48/22 177/50/22 178/51/22 176/49/22
f 177/50/23 179/52/23 180/53/23 178/51/23
f 179/52/24 181/54/24 182/55/24 180/53/24
f 181/54/25 183/56/25 184/57/25 182/55/25
f 183/56/26 153/28/26 156/29/26 184/57/26
f 178/58/1 180/59/1 182/60/1 184/61/1
f 174/62/1 176/63/1 178/58/1 184/61/1
f 170/64/1 172/65/1 174/62/1 184/61/1
f 166/66/1 168/67/1 170/64/1 184/61/1
f 162/68/1 164/69/1 166/66/1 184/61/1
f 158/70/1 160/71/1 162/68/1 184/61/1
f 156/72/1 155/73/1 158/70/1 184/61/1
f 159/71/2 157/70/2 154/73/2 153/72/2
f 163/69/2 161/68/2 159/71/2 153/72/2
f 167/67/2 165/66/2 163/69/2 153/72/2
f 171/65/2 169/64/2 167/67/2 153/72/2
f 175/63/2 173/62/2 171/65/2 153/72/2
f 179/59/2 177/58/2 175/63/2 153/72/2
f 183/61/2 181/60/2 179/59/2 153/72/2
f 185/17/27 186/18/27 187/19/27 188/4/27
f 186/18/28 189/20/28 190/21/28 187/19/28
f 189/20/5 191/22/5 192/23/5 190/21/5
f 191/22/29 193/24/29 194/25/29 192/23/29
f 193/24/30 195/26/30 196/27/30 194/25/30
f 195/26/6 185/28/6 188/29/6 196/27/6
f 190/74/1 192/75/1 194/58/1 196/76/1
f 188/77/1 187/68/1 190/74/1 196/76/1
f 191/75/2 189/74/2 186/68/2 185/77/2
f 195/76/2 193/58/2 191/75/2 185/77/2
f 197/14/1 198/15/1 199/16/1 200/4/1
f 201/4/2 202/16/2 203/15/2 204/14/2
f 204/15/3 203/14/3 198/4/3 197/16/3
f 202/15/4 201/14/4 200/4/4 199/16/4
f 201/15/5 204/14/5 197/4/5 200/16/5
f 203/15/6 202/14/6 199/4/6 198/16/6
f 205/14/1 206/15/1 207/16/1 208/4/1
f 209/4/2 210/16/2 211/15/2 212/14/2
f 212/15/3 211/14/3 206/4/3 205/16/3
f 210/15/4 209/14/4 208/4/4 207/16/4
f 209/15/5 212/14/5 205/4/5 208/16/5
f 211/15/6 210/14/6 207/4/6 206/16/6
f 213/14/1 214/15/1 215/16/1 216/4/1
f 217/4/2 218/16/2 219/15/2 220/14/2
f 220/15/3 219/14/3 214/4/3 213/16/3
f 218/15/4 217/14/4 216/4/4 215/16/4
f 217/15/5 220/14/5 213/4/5 216/16/5
f 219/15/6 218/14/6 215/4/6 214/16/6
f 221/17/7 222/18/7 223/19/7 224/4/7
f 222/18/4 225/20/4 226/21/4 223/19/4
f 225/20/8 227/22/8 228/23/8 226/21/8
f 227/22/9 229/24/9 230/25/9 228/23/9
f 229/24/3 231/26/3 232/27/3 230/25/3
f 231/26/10 221/28/10 224/29/10 232/27/10
f 233/17/11 234/30/11 235/31/11 236/4/11
f 234/30/12 237/32/12 238/33/12 235/31/12
f 237/32/13 239/34/13 240/35/13 238/33/13
f 239/34/14 241/36/14 242/37/14 240/35/14
f 241/36/15 243/38/15 244/39/15 242/37/15
f 243/38/16 245/40/16 246/41/16 244/39/16
f 245/40/17 247/42/17 248/43/17 246/41/17
f 247/42/18 249/22/18 250/23/18 248/43/18
f 249/22/19 251/44/19 252/45/19 250/23/19
f 251/44/20 253/46/20 254/47/20 252/45/20
f 253/46/21 255/48/21 256/49/21 254/47/21
f 255/48/22 257/50/22 258/51/22 256/49/22
f 257/50/23 259/52/23 260/53/23 258/51/23
f 259/52/24 261/54/24 262/55/24 260/53/24
f 261/54/25 263/56/25 264/57/25 262/55/25
f 263/56/26 233/28/26 236/29/26 264/57/26
f 258/58/1 260/59/1 262/60/1 264/61/1
f 254/62/1 256/63/1 258/58/1 264/61/1
f 250/64/1 252/65/1 254/62/1 264/61/1
f 246/66/1 248/67/1 250/64/1 264/61/1
f 242/68/1 244/69/1 246/66/1 264/61/1
f 238/70/1 240/71/1 242/68/1 264/61/1
f 236/72/1 235/73/1 238/70/1 264/61/1
f 239/71/2 237/70/2 234/73/2 233/72/2
f 243/69/2 241/68/2 239/71/2 233/72/2
f 247/67/2 245/66/2 243/69/2 233/72/2
f 251/65/2 249/64/2 247/67/2 233/72/2
f 255/63/2 253/62/2 251/65/2 233/72/2
f 259/59/2 257/58/2 255/63/2 233/72/2
f 263/61/2 261/60/2 259/59/2 233/72/2
f 265/17/27 266/18/27 267/19/27 268/4/27
f 266/18/28 269/20/28 270/21/28 267/19/28
f 269/20/5 271/22/5 272/23/5 270/21/5
f 271/22/29 273/24/29 274/25/29 272/23/29
f 273/24/30 275/26/30 276/27/30 274/25/30
f 275/26/6 265/28/6 268/29/6 276/27/6
f 270/74/1 272/75/1 274/58/1 276/76/1
f 268/77/1 267/68/1 270/74/1 276/76/1
f 271/75/2 269/74/2 266/68/2 265/77/2
f 275/76/2 273/58/2 271/75/2 265/77/2
f 277/14/1 278/15/1 279/16/1 280/4/1
f 281/4/2 282/16/2 283/15/2 284/14/2
f 284/15/3 283/14/3 278/4/3 277/16/3
f 282/15/4 281/14/4 280/4/4 279/16/4
f 281/15/5 284/14/5 277/4/5 280/16/5
f 283/15/6 282/14/6 279/4/6 278/16/6
f 285/14/1 286/15/1 287/16/1 288/4/1
f 289/4/2 290/16/2 291/15/2 292/14/2
f 292/15/3 291/14/3 286/4/3 285/16/3
f 290/15/4 289/14/4 288/4/4 287/16/4
f 289/15/5 292/14/5 285/4/5 288/16/5
f 291/15/6 290/14/6 287/4/6 286/16/6
o harness
usemtl core
f 293/4/31 294/47/31 295/78/31 296/11/31
f 294/47/32 297/79/32 298/80/32 295/78/32
f 297/79/33 299/81/33 300/82/33 298/80/33
f 299/81/34 301/83/34 302/84/34 300/82/34
f 301/83/35 303/85/35 304/86/35 302/84/35
f 303/85/36 305/87/36 306/88/36 304/86/36
f 305/87/37 307/89/37 308/90/37 306/88/37
f 307/89/38 309/58/38 310/68/38 308/90/38
f 309/58/39 311/91/39 312/92/39 310/68/39
f 311/91/40 313/93/40 314/94/40 312/92/40
f 313/93/41 315/95/41 316/96/41 314/94/41
f 315/95/42 317/97/42 318/98/42 316/96/42
f 317/97/43 319/99/43 320/100/43 318/98/43
f 319/99/44 321/101/44 322/102/44 320/100/44
f 321/101/45 323/103/45 324/104/45 322/102/45
f 323/103/46 293/13/46 296/12/46 324/104/46
f 323/61/3 321/60/3 319/59/3 317/58/3 315/63/3 313/62/3 311/65/3 309/64/3 307/67/3 305/66/3 303/69/3 301/68/3 299/71/3 297/70/3 294/73/3 293/72/3
f 325/4/31 326/47/31 327/78/31 328/11/31
f 326/47/32 329/79/32 330/80/32 327/78/32
f 329/79/33 331/81/33 332/82/33 330/80/33
f 331/81/34 333/83/34 334/84/34 332/82/34
f 333/83/35 335/85/35 336/86/35 334/84/35
f 335/85/36 337/87/36 338/88/36 336/86/36
f 337/87/37 339/89/37 340/90/37 338/88/37
f 339/89/38 341/58/38 342/68/38 340/90/38
f 341/58/39 343/91/39 344/92/39 342/68/39
f 343/91/40 345/93/40 346/94/40 344/92/40
f 345/93/41 347/95/41 348/96/41 346/94/41
f 347/95/42 349/97/42 350/98/42 348/96/42
f 349/97/43 351/99/43 352/100/43 350/98/43
f 351/99/44 353/101/44 354/102/44 352/100/44
f 353/101/45 355/103/45 356/104/45 354/102/45
f 355/103/46 325/13/46 328/12/46 356/104/46
f 355/61/3 353/60/3 351/59/3 349/58/3 347/63/3 345/62/3 343/65/3 341/64/3 339/67/3 337/66/3 335/69/3 333/68/3 331/71/3 329/70/3 326/73/3 325/72/3
o harness_input
usemtl core
f 357/4/46 358/47/46 359/105/46 360/106/46
f 358/47/45 361/79/45 362/107/45 359/105/45
f 361/79/44 363/81/44 364/108/44 362/107/44
f 363/81/43 365/83/43 366/109/43 364/108/43
f 365/83/42 367/85/42 368/110/42 366/109/42
f 367/85/41 369/87/41 370/111/41 368/110/41
f 369/87/40 371/89/40 372/112/40 370/111/40
f 371/89/39 373/58/39 374/113/39 372/112/39
f 373/58/38 375/91/38 376/114/38 374/113/38
f 375/91/37 377/93/37 378/115/37 376/114/37
f 377/93/36 379/95/36 380/116/36 378/115/36
f 379/95/35 381/97/35 382/117/35 380/116/35
f 381/97/34 383/99/34 384/118/34 382/117/34
f 383/99/33 385/101/33 386/119/33 384/118/33
f 385/101/32 387/103/32 388/120/32 386/119/32
f 387/103/31 357/13/31 360/121/31 388/120/31
f 360/106/47 359/105/47 389/122/47 390/123/47
f 359/105/48 362/107/48 391/124/48 389/122/48
f 362/107/49 364/108/49 392/125/49 391/124/49
f 364/108/50 366/109/50 393/126/50 392/125/50
f 366/109/51 368/110/51 394/127/51 393/126/51
f 368/110/52 370/111/52 395/128/52 394/127/52
f 370/111/53 372/112/53 396/129/53 395/128/53
f 372/112/54 374/113/54 397/130/54 396/129/54
f 374/113/55 376/114/55 398/131/55 397/130/55
f 376/114/56 378/115/56 399/132/56 398/131/56
f 378/115/57 380/116/57 400/133/57 399/132/57
f 380/116/58 382/117/58 401/134/58 400/133/58
f 382/117/59 384/118/59 402/135/59 401/134/59
f 384/118/60 386/119/60 403/136/60 402/135/60
f 386/119/61 388/120/61 404/137/61 403/136/61
f 388/120/62 360/121/62 390/138/62 404/137/62
f 390/123/47 389/122/47 405/78/47 406/11/47
f 389/122/48 391/124/48 407/80/48 405/78/48
f 391/124/49 392/125/49 408/82/49 407/80/49
f 392/125/50 393/126/50 409/84/50 408/82/50
f 393/126/51 394/127/51 410/86/51 409/84/51
f 394/127/52 395/128/52 411/88/52 410/86/52
f 395/128/53 396/129/53 412/90/53 411/88/53
f 396/129/54 397/130/54 413/68/54 412/90/54
f 397/130/55 398/131/55 414/92/55 413/68/55
f 398/131/56 399/132/56 415/94/56 414/92/56
f 399/132/57 400/133/57 416/96/57 415/94/57
f 400/133/58 401/134/58 417/98/58 416/96/58
f 401/134/59 402/135/59 418/100/59 417/98/59
f 402/135/60 403/136/60 419/102/60 418/100/60
f 403/136/61 404/137/61 420/104/61 419/102/61
f 404/137/62 390/138/62 406/12/62 420/104/62
f 387/61/4 385/60/4 383/59/4 381/58/4 379/63/4 377/62/4 375/65/4 373/64/4 371/67/4 369/66/4 367/69/4 365/68/4 363/71/4 361/70/4 358/73/4 357/72/4
f 406/72/3 405/73/3 407/70/3 408/71/3 409/68/3 410/69/3 411/66/3 412/67/3 413/64/3 414/65/3 415/62/3 416/63/3 417/58/3 418/59/3 419/60/3 420/61/3
f 421/4/46 422/47/46 423/105/46 424/106/46
f 422/47/45 425/79/45 426/107/45 423/105/45
f 425/79/44 427/81/44 428/108/44 426/107/44
f 427/81/43 429/83/43 430/109/43 428/108/43
f 429/83/42 431/85/42 432/110/42 430/109/42
f 431/85/41 433/87/41 434/111/41 432/110/41
f 433/87/40 435/89/40 436/112/40 434/111/40
f 435/89/39 437/58/39 438/113/39 436/112/39
f 437/58/38 439/91/38 440/114/38 438/113/38
f 439/91/37 441/93/37 442/115/37 440/114/37
f 441/93/36 443/95/36 444/116/36 442/115/36
f 443/95/35 445/97/35 446/117/35 444/116/35
f 445/97/34 447/99/34 448/118/34 446/117/34
f 447/99/33 449/101/33 450/119/33 448/118/33
f 449/101/32 451/103/32 452/120/32 450/119/32
f 451/103/31 421/13/31 424/121/31 452/120/31
f 424/106/63 423/105/63 453/122/63 454/123/63
f 423/105/64 426/107/64 455/124/64 453/122/64
f 426/107/65 428/108/65 456/125/65 455/124/65
f 428/108/66 430/109/66 457/126/66 456/125/66
f 430/109/67 432/110/67 458/127/67 457/126/67
f 432/110/68 434/111/68 459/128/68 458/127/68
f 434/111/69 436/112/69 460/129/69 459/128/69
f 436/112/70 438/113/70 461/130/70 460/129/70
f 438/113/71 440/114/71 462/131/71 461/130/71
f 440/114/72 442/115/72 463/132/72 462/131/72
f 442/115/73 444/116/73 464/133/73 463/132/73
f 444/116/74 446/117/74 465/134/74 464/133/74
f 446/117/75 448/118/75 466/135/75 465/134/75
f 448/118/76 450/119/76 467/136/76 466/135/76
f 450/119/77 452/120/77 468/137/77 467/136/77
f 452/120/78 424/121/78 454/138/78 468/137/78
f 454/123/63 453/122/63 469/78/63 470/11/63
f 453/122/64 455/124/64 471/80/64 469/78/64
f 455/124/65 456/125/65 472/82/65 471/80/65
f 456/125/66 457/126/66 473/84/66 472/82/66
f 457/126/67 458/127/67 474/86/67 473/84/67
f 458/127/68 459/128/68 475/88/68 474/86/68
f 459/128/69 460/129/69 476/90/69 475/88/69
f 460/129/70 461/130/70 477/68/70 476/90/70
f 461/130/71 462/131/71 478/92/71 477/68/71
f 462/131/72 463/132/72 479/94/72 478/92/72
f 463/132/73 464/133/73 480/96/73 479/94/73
f 464/133/74 465/134/74 481/98/74 480/96/74
f 465/134/75 466/135/75 482/100/75 481/98/75
f 466/135/76 467/136/76 483/102/76 482/100/76
f 467/136/77 468/137/77 484/104/77 483/102/77
f 468/137/78 454/138/78 470/12/78 484/104/78
f 451/61/4 449/60/4 447/59/4 445/58/4 443/63/4 441/62/4 439/65/4 437/64/4 435/67/4 433/66/4 431/69/4 429/68/4 427/71/4 425/70/4 422/73/4 421/72/4
f 470/72/3 469/73/3 471/70/3 472/71/3 473/68/3 474/69/3 475/66/3 476/67/3 477/64/3 478/65/3 479/62/3 480/63/3 481/58/3 482/59/3 483/60/3 484/61/3
usemtl plug_plus
f 485/139/79 486/140/79 487/78/79 488/11/79
f 486/140/80 489/141/80 490/80/80 487/78/80
f 489/141/81 491/142/81 492/82/81 490/80/81
f 491/142/82 493/143/82 494/84/82 492/82/82
f 493/143/83 495/144/83 496/86/83 494/84/83
f 495/144/84 497/145/84 498/88/84 496/86/84
f 497/145/85 499/146/85 500/90/85 498/88/85
f 499/146/86 501/147/86 502/68/86 500/90/86
f 501/147/87 503/148/87 504/92/87 502/68/87
f 503/148/88 505/149/88 506/94/88 504/92/88
f 505/149/89 507/150/89 508/96/89 506/94/89
f 507/150/90 509/151/90 510/98/90 508/96/90
f 509/151/91 511/152/91 512/100/91 510/98/91
f 511/152/92 513/153/92 514/102/92 512/100/92
f 513/153/93 515/154/93 516/104/93 514/102/93
f 515/154/94 485/155/94 488/12/94 516/104/94
f 488/156/4 487/157/4 490/158/4 492/159/4
f 488/156/4 492/159/4 494/160/4 496/161/4
f 488/156/4 496/161/4 498/162/4 500/163/4
f 488/156/4 500/163/4 502/164/4 504/165/4
f 488/156/4 504/165/4 506/166/4 508/167/4
f 488/156/4 508/167/4 510/168/4 512/169/4
f 488/156/4 512/169/4 514/170/4 516/171/4
f 517/172/95 518/173/95 519/140/95 520/139/95
f 518/173/96 521/174/96 522/141/96 519/140/96
f 521/174/97 523/175/97 524/142/97 522/141/97
f 523/175/98 525/176/98 526/143/98 524/142/98
f 525/176/99 527/177/99 528/144/99 526/143/99
f 527/177/100 529/178/100 530/145/100 528/144/100
f 529/178/101 531/179/101 532/146/101 530/145/101
f 531/179/102 533/180/102 534/147/102 532/146/102
f 533/180/103 535/181/103 536/148/103 534/147/103
f 535/181/104 537/182/104 538/149/104 536/148/104
f 537/182/105 539/183/105 540/150/105 538/149/105
f 539/183/106 541/184/106 542/151/106 540/150/106
f 541/184/107 543/185/107 544/152/107 542/151/107
f 543/185/108 545/186/108 546/153/108 544/152/108
f 545/186/109 547/187/109 548/154/109 546/153/109
f 547/187/110 517/188/110 520/155/110 548/154/110
f 520/189/4 519/190/4 522/191/4 524/192/4
f 520/189/4 524/192/4 526/193/4 528/194/4
f 520/189/4 528/194/4 530/195/4 532/196/4
f 520/189/4 532/196/4 534/197/4 536/198/4
f 520/189/4 536/198/4 538/199/4 540/200/4
f 520/189/4 540/200/4 542/201/4 544/202/4
f 520/189/4 544/202/4 546/203/4 548/204/4
f 547/204/3 545/203/3 543/202/3 541/201/3
f 547/204/3 541/201/3 539/200/3 537/199/3
f 547/204/3 537/199/3 535/198/3 533/197/3
f 547/204/3 533/197/3 531/196/3 529/195/3
f 547/204/3 529/195/3 527/194/3 525/193/3
f 547/204/3 525/193/3 523/192/3 521/191/3
f 547/204/3 521/191/3 518/190/3 517/189/3
f 549/205/95 550/206/95 551/173/95 552/172/95
f 550/206/96 553/207/96 554/174/96 551/173/96
f 553/207/97 555/208/97 556/175/97 554/174/97
f 555/208/98 557/209/98 558/176/98 556/175/98
f 557/209/99 559/210/99 560/177/99 558/176/99
f 559/210/100 561/211/100 562/178/100 560/177/100
f 561/211/101 563/212/101 564/179/101 562/178/101
f 563/212/102 565/213/102 566/180/102 564/179/102
f 565/213/103 567/214/103 568/181/103 566/180/103
f 567/214/104 569/215/104 570/182/104 568/181/104
f 569/215/105 571/216/105 572/183/105 570/182/105
f 571/216/106 573/217/106 574/184/106 572/183/106
f 573/217/107 575/218/107 576/185/107 574/184/107
f 575/218/108 577/219/108 578/186/108 576/185/108
f 577/219/109 579/220/109 580/187/109 578/186/109
f 579/220/110 549/221/110 552/188/110 580/187/110
f 581/222/95 582/223/95 583/206/95 584/205/95
f 582/223/96 585/224/96 586/207/96 583/206/96
f 585/224/97 587/225/97 588/208/97 586/207/97
f 587/225/98 589/226/98 590/209/98 588/208/98
f 589/226/99 591/227/99 592/210/99 590/209/99
f 591/227/100 593/228/100 594/211/100 592/210/100
f 593/228/101 595/229/101 596/212/101 594/211/101
f 595/229/102 597/230/102 598/213/102 596/212/102
f 597/230/103 599/231/103 600/214/103 598/213/103
f 599/231/104 601/232/104 602/215/104 600/214/104
f 601/232/105 603/233/105 604/216/105 602/215/105
f 603/233/106 605/234/106 606/217/106 604/216/106
f 605/234/107 607/235/107 608/218/107 606/217/107
f 607/235/108 609/236/108 610/219/108 608/218/108
f 609/236/109 611/237/109 612/220/109 610/219/109
f 611/237/110 581/238/110 584/221/110 612/220/110
f 584/239/4 583/240/4 586/241/4 588/242/4
f 584/239/4 588/242/4 590/243/4 592/244/4
f 584/239/4 592/244/4 594/245/4 596/246/4
f 584/239/4 596/246/4 598/247/4 600/248/4
f 584/239/4 600/248/4 602/249/4 604/250/4
f 584/239/4 604/250/4 606/251/4 608/252/4
f 584/239/4 608/252/4 610/253/4 612/254/4
f 613/4/111 614/47/111 582/223/111 581/222/111
f 614/47/112 615/79/112 585/224/112 582/223/112
f 615/79/113 616/81/113 587/225/113 585/224/113
f 616/81/114 617/83/114 589/226/114 587/225/114
f 617/83/115 618/85/115 591/227/115 589/226/115
f 618/85/116 619/87/116 593/228/116 591/227/116
f 619/87/117 620/89/117 595/229/117 593/228/117
f 620/89/118 621/58/118 597/230/118 595/229/118
f 621/58/119 622/91/119 599/231/119 597/230/119
f 622/91/120 623/93/120 601/232/120 599/231/120
f 623/93/121 624/95/121 603/233/121 601/232/121
f 624/95/122 625/97/122 605/234/122 603/233/122
f 625/97/123 626/99/123 607/235/123 605/234/123
f 626/99/124 627/101/124 609/236/124 607/235/124
f 627/101/125 628/103/125 611/237/125 609/236/125
f 628/103/126 613/13/126 581/238/126 611/237/126
f 628/255/3 627/256/3 626/257/3 625/258/3
f 628/255/3 625/258/3 624/259/3 623/260/3
f 628/255/3 623/260/3 622/261/3 621/262/3
f 628/255/3 621/262/3 620/263/3 619/264/3
f 628/255/3 619/264/3 618/265/3 617/266/3
f 628/255/3 617/266/3 616/267/3 615/268/3
f 628/255/3 615/268/3 614/269/3 613/270/3
f 629/4/95 630/47/95 631/223/95 632/222/95
f 630/47/96 633/79/96 634/224/96 631/223/96
f 633/79/97 635/81/97 636/225/97 634/224/97
f 635/81/98 637/83/98 638/226/98 636/225/98
f 637/83/99 639/85/99 640/227/99 638/226/99
f 639/85/100 641/87/100 642/228/100 640/227/100
f 641/87/101 643/89/101 644/229/101 642/228/101
f 643/89/102 645/58/102 646/230/102 644/229/102
f 645/58/103 647/91/103 648/231/103 646/230/103
f 647/91/104 649/93/104 650/232/104 648/231/104
f 649/93/105 651/95/105 652/233/105 650/232/105
f 651/95/106 653/97/106 654/234/106 652/233/106
f 653/97/107 655/99/107 656/235/107 654/234/107
f 655/99/108 657/101/108 658/236/108 656/235/108
f 657/101/109 659/103/109 660/237/109 658/236/109
f 659/103/110 629/13/110 632/238/110 660/237/110
f 659/255/3 657/256/3 655/257/3 653/258/3
f 659/255/3 653/258/3 651/259/3 649/260/3
f 659/255/3 649/260/3 647/261/3 645/262/3
f 659/255/3 645/262/3 643/263/3 641/264/3
f 659/255/3 641/264/3 639/265/3 637/266/3
f 659/255/3 637/266/3 635/267/3 633/268/3
f 659/255/3 633/268/3 630/269/3 629/270/3
usemtl plug_minus
f 661/139/79 662/140/79 663/78/79 664/11/79
f 662/140/80 665/141/80 666/80/80 663/78/80
f 665/141/81 667/142/81 668/82/81 666/80/81
f 667/142/82 669/143/82 670/84/82 668/82/82
f 669/143/83 671/144/83 672/86/83 670/84/83
f 671/144/84 673/145/84 674/88/84 672/86/84
f 673/145/85 675/146/85 676/90/85 674/88/85
f 675/146/86 677/147/86 678/68/86 676/90/86
f 677/147/87 679/148/87 680/92/87 678/68/87
f 679/148/88 681/149/88 682/94/88 680/92/88
f 681/149/89 683/150/89 684/96/89 682/94/89
f 683/150/90 685/151/90 686/98/90 684/96/90
f 685/151/91 687/152/91 688/100/91 686/98/91
f 687/152/92 689/153/92 690/102/92 688/100/92
f 689/153/93 691/154/93 692/104/93 690/102/93
f 691/154/94 661/155/94 664/12/94 692/104/94
f 664/156/4 663/157/4 666/158/4 668/159/4
f 664/156/4 668/159/4 670/160/4 672/161/4
f 664/156/4 672/161/4 674/162/4 676/163/4
f 664/156/4 676/163/4 678/164/4 680/165/4
f 664/156/4 680/165/4 682/166/4 684/167/4
f 664/156/4 684/167/4 686/168/4 688/169/4
f 664/156/4 688/169/4 690/170/4 692/171/4
f 693/172/95 694/173/95 695/140/95 696/139/95
f 694/173/96 697/174/96 698/141/96 695/140/96
f 697/174/97 699/175/97 700/142/97 698/141/97
f 699/175/98 701/176/98 702/143/98 700/142/98
f 701/176/99 703/177/99 704/144/99 702/143/99
f 703/177/100 705/178/100 706/145/100 704/144/100
f 705/178/101 707/179/101 708/146/101 706/145/101
f 707/179/102 709/180/102 710/147/102 708/146/102
f 709/180/103 711/181/103 712/148/103 710/147/103
f 711/181/104 713/182/104 714/149/104 712/148/104
f 713/182/105 715/183/105 716/150/105 714/149/105
f 715/183/106 717/184/106 718/151/106 716/150/106
f 717/184/107 719/185/107 720/152/107 718/151/107
f 719/185/108 721/186/108 722/153/108 720/152/108
f 721/186/109 723/187/109 724/154/109 722/153/109
f 723/187/110 693/188/110 696/155/110 724/154/110
f 696/189/4 695/190/4 698/191/4 700/192/4
f 696/189/4 700/192/4 702/193/4 704/194/4
f 696/189/4 704/194/4 706/195/4 708/196/4
f 696/189/4 708/196/4 710/197/4 712/198/4
f 696/189/4 712/198/4 714/199/4 716/200/4
f 696/189/4 716/200/4 718/201/4 720/202/4
f 696/189/4 720/202/4 722/203/4 724/204/4
f 723/204/3 721/203/3 719/202/3 717/201/3
f 723/204/3 717/201/3 715/200/3 713/199/3
f 723/204/3 713/199/3 711/198/3 709/197/3
f 723/204/3 709/197/3 707/196/3 705/195/3
f 723/204/3 705/195/3 703/194/3 701/193/3
f 723/204/3 701/193/3 699/192/3 697/191/3
f 723/204/3 697/191/3 694/190/3 693/189/3
f 725/205/95 726/206/95 727/173/95 728/172/95
f 726/206/96 729/207/96 730/174/96 727/173/96
f 729/207/97 731/208/97 732/175/97 730/174/97
f 731/208/98 733/209/98 734/176/98 732/175/98
f 733/209/99 735/210/99 736/177/99 734/176/99
f 735/210/100 737/211/100 738/178/100 736/177/100
f 737/211/101 739/212/101 740/179/101 738/178/101
f 739/212/102 741/213/102 742/180/102 740/179/102
f 741/213/103 743/214/103 744/181/103 742/180/103
f 743/214/104 745/215/104 746/182/104 744/181/104
f 745/215/105 747/216/105 748/183/105 746/182/105
f 747/216/106 749/217/106 750/184/106 748/183/106
f 749/217/107 751/218/107 752/185/107 750/184/107
f 751/218/108 753/219/108 754/186/108 752/185/108
f 753/219/109 755/220/109 756/187/109 754/186/109
f 755/220/110 725/221/110 728/188/110 756/187/110
f 757/222/95 758/223/95 759/206/95 760/205/95
f 758/223/96 761/224/96 762/207/96 759/206/96
f 761/224/97 763/225/97 764/208/97 762/207/97
f 763/225/98 765/226/98 766/209/98 764/208/98
f 765/226/99 767/227/99 768/210/99 766/209/99
f 767/227/100 769/228/100 770/211/100 768/210/100
f 769/228/101 771/229/101 772/212/101 770/211/101
f 771/229/102 773/230/102 774/213/102 772/212/102
f 773/230/103 775/231/103 776/214/103 774/213/103
f 775/231/104 777/232/104 778/215/104 776/214/104
f 777/232/105 779/233/105 780/216/105 778/215/105
f 779/233/106 781/234/106 782/217/106 780/216/106
f 781/234/107 783/235/107 784/218/107 782/217/107
f 783/235/108 785/236/108 786/219/108 784/218/108
f 785/236/109 787/237/109 788/220/109 786/219/109
f 787/237/110 757/238/110 760/221/110 788/220/110
f 760/239/4 759/240/4 762/241/4 764/242/4
f 760/239/4 764/242/4 766/243/4 768/244/4
f 760/239/4 768/244/4 770/245/4 772/246/4
f 760/239/4 772/246/4 774/247/4 776/248/4
f 760/239/4 776/248/4 778/249/4 780/250/4
f 760/239/4 780/250/4 782/251/4 784/252/4
f 760/239/4 784/252/4 786/253/4 788/254/4
f 789/4/111 790/47/111 758/223/111 757/222/111
f 790/47/112 791/79/112 761/224/112 758/223/112
f 791/79/113 792/81/113 763/225/113 761/224/113
f 792/81/114 793/83/114 765/226/114 763/225/114
f 793/83/115 794/85/115 767/227/115 765/226/115
f 794/85/116 795/87/116 769/228/116 767/227/116
f 795/87/117 796/89/117 771/229/117 769/228/117
f 796/89/118 797/58/118 773/230/118 771/229/118
f 797/58/119 798/91/119 775/231/119 773/230/119
f 798/91/120 799/93/120 777/232/120 775/231/120
f 799/93/121 800/95/121 779/233/121 777/232/121
f 800/95/122 801/97/122 781/234/122 779/233/122
f 801/97/123 802/99/123 783/235/123 781/234/123
f 802/99/124 803/101/124 785/236/124 783/235/124
f 803/101/125 804/103/125 787/237/125 785/236/125
f 804/103/126 789/13/126 757/238/126 787/237/126
f 804/255/3 803/256/3 802/257/3 801/258/3
f 804/255/3 801/258/3 800/259/3 799/260/3
f 804/255/3 799/260/3 798/261/3 797/262/3
f 804/255/3 797/262/3 796/263/3 795/264/3
f 804/255/3 795/264/3 794/265/3 793/266/3
f 804/255/3 793/266/3 792/267/3 791/268/3
f 804/255/3 791/268/3 790/269/3 789/270/3
o harness_entry_north
usemtl core
f 805/4/31 806/47/31 807/271/31 808/272/31
f 806/47/32 809/79/32 810/273/32 807/271/32
f 809/79/33 811/81/33 812/274/33 810/273/33
f 811/81/34 813/83/34 814/275/34 812/274/34
f 813/83/35 815/85/35 816/276/35 814/275/35
f 815/85/36 817/87/36 818/277/36 816/276/36
f 817/87/37 819/89/37 820/278/37 818/277/37
f 819/89/38 821/58/38 822/279/38 820/278/38
f 821/58/39 823/91/39 824/280/39 822/279/39
f 823/91/40 825/93/40 826/281/40 824/280/40
f 825/93/41 827/95/41 828/282/41 826/281/41
f 827/95/42 829/97/42 830/283/42 828/282/42
f 829/97/43 831/99/43 832/284/43 830/283/43
f 831/99/44 833/101/44 834/285/44 832/284/44
f 833/101/45 835/103/45 836/286/45 834/285/45
f 835/103/46 805/13/46 808/287/46 836/286/46
f 808/272/127 807/271/127 837/78/127 293/11/127
f 807/271/128 810/273/128 838/80/128 837/78/128
f 810/273/129 812/274/129 839/82/129 838/80/129
f 812/274/130 814/275/130 840/84/130 839/82/130
f 814/275/131 816/276/131 841/86/131 840/84/131
f 816/276/132 818/277/132 842/88/132 841/86/132
f 818/277/133 820/278/133 843/90/133 842/88/133
f 820/278/134 822/279/134 309/68/134 843/90/134
f 822/279/135 824/280/135 844/92/135 309/68/135
f 824/280/136 826/281/136 845/94/136 844/92/136
f 826/281/137 828/282/137 846/96/137 845/94/137
f 828/282/138 830/283/138 847/98/138 846/96/138
f 830/283/139 832/284/139 848/100/139 847/98/139
f 832/284/140 834/285/140 849/102/140 848/100/140
f 834/285/141 836/286/141 850/104/141 849/102/141
f 836/286/142 808/287/142 293/12/142 850/104/142
f 293/72/6 837/73/6 838/70/6 839/71/6 840/68/6 841/69/6 842/66/6 843/67/6 309/64/6 844/65/6 845/62/6 846/63/6 847/58/6 848/59/6 849/60/6 850/61/6
f 851/4/31 852/47/31 853/288/31 854/289/31
f 852/47/32 855/79/32 856/290/32 853/288/32
f 855/79/33 857/81/33 858/291/33 856/290/33
f 857/81/34 859/83/34 860/292/34 858/291/34
f 859/83/35 861/85/35 862/293/35 860/292/35
f 861/85/36 863/87/36 864/294/36 862/293/36
f 863/87/37 865/89/37 866/295/37 864/294/37
f 865/89/38 867/58/38 868/296/38 866/295/38
f 867/58/39 869/91/39 870/297/39 868/296/39
f 869/91/40 871/93/40 872/298/40 870/297/40
f 871/93/41 873/95/41 874/299/41 872/298/41
f 873/95/42 875/97/42 876/300/42 874/299/42
f 875/97/43 877/99/43 878/301/43 876/300/43
f 877/99/44 879/101/44 880/302/44 878/301/44
f 879/101/45 881/103/45 882/303/45 880/302/45
f 881/103/46 851/13/46 854/304/46 882/303/46
f 854/289/127 853/288/127 883/305/127 884/306/127
f 853/288/128 856/290/128 885/307/128 883/305/128
f 856/290/129 858/291/129 886/308/129 885/307/129
f 858/291/130 860/292/130 887/309/130 886/308/130
f 860/292/131 862/293/131 888/310/131 887/309/131
f 862/293/132 864/294/132 889/311/132 888/310/132
f 864/294/133 866/295/133 890/312/133 889/311/133
f 866/295/134 868/296/134 891/313/134 890/312/134
f 868/296/135 870/297/135 892/314/135 891/313/135
f 870/297/136 872/298/136 893/315/136 892/314/136
f 872/298/137 874/299/137 894/316/137 893/315/137
f 874/299/138 876/300/138 895/317/138 894/316/138
f 876/300/139 878/301/139 896/318/139 895/317/139
f 878/301/140 880/302/140 897/319/140 896/318/140
f 880/302/141 882/303/141 898/320/141 897/319/141
f 882/303/142 854/304/142 884/321/142 898/320/142
f 884/306/127 883/305/127 326/78/127 325/11/127
f 883/305/128 885/307/128 329/80/128 326/78/128
f 885/307/129 886/308/129 331/82/129 329/80/129
f 886/308/130 887/309/130 333/84/130 331/82/130
f 887/309/131 888/310/131 335/86/131 333/84/131
f 888/310/132 889/311/132 337/88/132 335/86/132
f 889/311/133 890/312/133 339/90/133 337/88/133
f 890/312/134 891/313/134 341/68/134 339/90/134
f 891/313/135 892/314/135 343/92/135 341/68/135
f 892/314/136 893/315/136 345/94/136 343/92/136
f 893/315/137 894/316/137 347/96/137 345/94/137
f 894/316/138 895/317/138 349/98/138 347/96/138
f 895/317/139 896/318/139 351/100/139 349/98/139
f 896/318/140 897/319/140 353/102/140 351/100/140
f 897/319/141 898/320/141 355/104/141 353/102/141
f 898/320/142 884/321/142 325/12/142 355/104/142
f 325/72/4 326/73/4 329/70/4 331/71/4 333/68/4 335/69/4 337/66/4 339/67/4 341/64/4 343/65/4 345/62/4 347/63/4 349/58/4 351/59/4 353/60/4 355/61/4
o harness_entry_south
usemtl core
f 899/4/46 900/47/46 901/322/46 902/323/46
f 900/47/45 903/79/45 904/324/45 901/322/45
f 903/79/44 905/81/44 906/325/44 904/324/44
f 905/81/43 907/83/43 908/326/43 906/325/43
f 907/83/42 909/85/42 910/327/42 908/326/42
f 909/85/41 911/87/41 912/328/41 910/327/41
f 911/87/40 913/89/40 914/329/40 912/328/40
f 913/89/39 915/58/39 916/330/39 914/329/39
f 915/58/38 917/91/38 918/331/38 916/330/38
f 917/91/37 919/93/37 920/332/37 918/331/37
f 919/93/36 921/95/36 922/333/36 920/332/36
f 921/95/35 923/97/35 924/334/35 922/333/35
f 923/97/34 925/99/34 926/335/34 924/334/34
f 925/99/33 927/101/33 928/336/33 926/335/33
f 927/101/32 929/103/32 930/337/32 928/336/32
f 929/103/31 899/13/31 902/338/31 930/337/31
f 902/323/143 901/322/143 931/78/143 932/11/143
f 901/322/144 904/324/144 933/80/144 931/78/144
f 904/324/145 906/325/145 934/82/145 933/80/145
f 906/325/146 908/326/146 935/84/146 934/82/146
f 908/326/147 910/327/147 936/86/147 935/84/147
f 910/327/148 912/328/148 937/88/148 936/86/148
f 912/328/149 914/329/149 938/90/149 937/88/149
f 914/329/150 916/330/150 939/68/150 938/90/150
f 916/330/151 918/331/151 940/92/151 939/68/151
f 918/331/152 920/332/152 941/94/152 940/92/152
f 920/332/153 922/333/153 942/96/153 941/94/153
f 922/333/154 924/334/154 943/98/154 942/96/154
f 924/334/155 926/335/155 944/100/155 943/98/155
f 926/335/156 928/336/156 945/102/156 944/100/156
f 928/336/157 930/337/157 946/104/157 945/102/157
f 930/337/158 902/338/158 932/12/158 946/104/158
f 932/72/6 931/73/6 933/70/6 934/71/6 935/68/6 936/69/6 937/66/6 938/67/6 939/64/6 940/65/6 941/62/6 942/63/6 943/58/6 944/59/6 945/60/6 946/61/6
f 947/4/46 948/47/46 949/339/46 950/340/46
f 948/47/45 951/79/45 952/341/45 949/339/45
f 951/79/44 953/81/44 954/342/44 952/341/44
f 953/81/43 955/83/43 956/343/43 954/342/43
f 955/83/42 957/85/42 958/344/42 956/343/42
f 957/85/41 959/87/41 960/345/41 958/344/41
f 959/87/40 961/89/40 962/346/40 960/345/40
f 961/89/39 963/58/39 964/347/39 962/346/39
f 963/58/38 965/91/38 966/348/38 964/347/38
f 965/91/37 967/93/37 968/349/37 966/348/37
f 967/93/36 969/95/36 970/350/36 968/349/36
f 969/95/35 971/97/35 972/351/35 970/350/35
f 971/97/34 973/99/34 974/352/34 972/351/34
f 973/99/33 975/101/33 976/353/33 974/352/33
f 975/101/32 977/103/32 978/354/32 976/353/32
f 977/103/31 947/13/31 950/355/31 978/354/31
f 950/340/143 949/339/143 979/78/143 980/11/143
f 949/339/144 952/341/144 981/80/144 979/78/144
f 952/341/145 954/342/145 982/82/145 981/80/145
f 954/342/146 956/343/146 983/84/146 982/82/146
f 956/343/147 958/344/147 984/86/147 983/84/147
f 958/344/148 960/345/148 985/88/148 984/86/148
f 960/345/149 962/346/149 986/90/149 985/88/149
f 962/346/150 964/347/150 987/68/150 986/90/150
f 964/347/151 966/348/151 988/92/151 987/68/151
f 966/348/152 968/349/152 989/94/152 988/92/152
f 968/349/153 970/350/153 990/96/153 989/94/153
f 970/350/154 972/351/154 991/98/154 990/96/154
f 972/351/155 974/352/155 992/100/155 991/98/155
f 974/352/156 976/353/156 993/102/156 992/100/156
f 976/353/157 978/354/157 994/104/157 993/102/157
f 978/354/158 950/355/158 980/12/158 994/104/158
f 980/72/6 979/73/6 981/70/6 982/71/6 983/68/6 984/69/6 985/66/6 986/67/6 987/64/6 988/65/6 989/62/6 990/63/6 991/58/6 992/59/6 993/60/6 994/61/6
