# generated by tools/gen_cable_models.py - do not edit by hand
mtllib dc_string_cable_trench_bend.mtl
v 0.565625 0.818750 0.337500
v 0.550078 0.815658 0.337500
v 0.550312 0.815658 0.353933
v 0.565625 0.818750 0.351250
v 0.536899 0.806851 0.337500
v 0.537330 0.806851 0.356207
v 0.528092 0.793672 0.337500
v 0.528655 0.793672 0.357727
v 0.525000 0.778125 0.337500
v 0.525609 0.778125 0.358261
v 0.528092 0.762578 0.337500
v 0.528655 0.762578 0.357727
v 0.536899 0.749399 0.337500
v 0.537330 0.749399 0.356207
v 0.550078 0.740592 0.337500
v 0.550312 0.740592 0.353933
v 0.565625 0.737500 0.337500
v 0.565625 0.737500 0.351250
v 0.581172 0.740592 0.337500
v 0.580938 0.740592 0.348567
v 0.594351 0.749399 0.337500
v 0.593920 0.749399 0.346293
v 0.603158 0.762578 0.337500
v 0.602595 0.762578 0.344773
v 0.606250 0.778125 0.337500
v 0.605641 0.778125 0.344239
v 0.603158 0.793672 0.337500
v 0.602595 0.793672 0.344773
v 0.594351 0.806851 0.337500
v 0.593920 0.806851 0.346293
v 0.581172 0.815658 0.337500
v 0.580938 0.815658 0.348567
v 0.552733 0.815658 0.361300
v 0.567486 0.818750 0.356399
v 0.540225 0.806851 0.365455
v 0.531867 0.793672 0.368231
v 0.528933 0.778125 0.369206
v 0.531867 0.762578 0.368231
v 0.540225 0.749399 0.365455
v 0.552733 0.740592 0.361300
v 0.567486 0.737500 0.356399
v 0.582240 0.740592 0.351499
v 0.594748 0.749399 0.347344
v 0.603105 0.762578 0.344568
v 0.606040 0.778125 0.343593
v 0.603105 0.793672 0.344568
v 0.594748 0.806851 0.347344
v 0.582240 0.815658 0.351499
v 0.558636 0.815658 0.380522
v 0.572999 0.818750 0.374572
v 0.546460 0.806851 0.385566
v 0.538324 0.793672 0.388936
v 0.535467 0.778125 0.390119
v 0.538324 0.762578 0.388936
v 0.546460 0.749399 0.385566
v 0.558636 0.740592 0.380522
v 0.572999 0.737500 0.374572
v 0.587362 0.740592 0.368623
v 0.599539 0.749399 0.363579
v 0.607675 0.762578 0.360209
v 0.610532 0.778125 0.359026
v 0.607675 0.793672 0.360209
v 0.599539 0.806851 0.363579
v 0.587362 0.815658 0.368623
v 0.569025 0.815658 0.399958
v 0.581951 0.818750 0.391321
v 0.558066 0.806851 0.407280
v 0.550744 0.793672 0.412173
v 0.548173 0.778125 0.413891
v 0.550744 0.762578 0.412173
v 0.558066 0.749399 0.407280
v 0.569025 0.740592 0.399958
v 0.581951 0.737500 0.391321
v 0.594878 0.740592 0.382684
v 0.605836 0.749399 0.375361
v 0.613159 0.762578 0.370469
v 0.615730 0.778125 0.368751
v 0.613159 0.793672 0.370469
v 0.605836 0.806851 0.375361
v 0.594878 0.815658 0.382684
v 0.583006 0.815658 0.416994
v 0.593999 0.818750 0.406001
v 0.573687 0.806851 0.426313
v 0.567459 0.793672 0.432541
v 0.565273 0.778125 0.434727
v 0.567459 0.762578 0.432541
v 0.573687 0.749399 0.426313
v 0.583006 0.740592 0.416994
v 0.593999 0.737500 0.406001
v 0.604992 0.740592 0.395008
v 0.614312 0.749399 0.385688
v 0.620539 0.762578 0.379461
v 0.622725 0.778125 0.377275
v 0.620539 0.793672 0.379461
v 0.614312 0.806851 0.385688
v 0.604992 0.815658 0.395008
v 0.600042 0.815658 0.430975
v 0.608679 0.818750 0.418049
v 0.592720 0.806851 0.441934
v 0.587827 0.793672 0.449256
v 0.586109 0.778125 0.451827
v 0.587827 0.762578 0.449256
v 0.592720 0.749399 0.441934
v 0.600042 0.740592 0.430975
v 0.608679 0.737500 0.418049
v 0.617316 0.740592 0.405122
v 0.624639 0.749399 0.394164
v 0.629531 0.762578 0.386841
v 0.631249 0.778125 0.384270
v 0.629531 0.793672 0.386841
v 0.624639 0.806851 0.394164
v 0.617316 0.815658 0.405122
v 0.619478 0.815658 0.441364
v 0.625428 0.818750 0.427001
v 0.614434 0.806851 0.453540
v 0.611064 0.793672 0.461676
v 0.609881 0.778125 0.464533
v 0.611064 0.762578 0.461676
v 0.614434 0.749399 0.453540
v 0.619478 0.740592 0.441364
v 0.625428 0.737500 0.427001
v 0.631377 0.740592 0.412638
v 0.636421 0.749399 0.400461
v 0.639791 0.762578 0.392325
v 0.640974 0.778125 0.389468
v 0.639791 0.793672 0.392325
v 0.636421 0.806851 0.400461
v 0.631377 0.815658 0.412638
v 0.638700 0.815658 0.447267
v 0.643601 0.818750 0.432514
v 0.634545 0.806851 0.459775
v 0.631769 0.793672 0.468133
v 0.630794 0.778125 0.471067
v 0.631769 0.762578 0.468133
v 0.634545 0.749399 0.459775
v 0.638700 0.740592 0.447267
v 0.643601 0.737500 0.432514
v 0.648501 0.740592 0.417760
v 0.652656 0.749399 0.405252
v 0.655432 0.762578 0.396895
v 0.656407 0.778125 0.393960
v 0.655432 0.793672 0.396895
v 0.652656 0.806851 0.405252
v 0.648501 0.815658 0.417760
v 0.646067 0.815658 0.449688
v 0.648750 0.818750 0.434375
v 0.643793 0.806851 0.462670
v 0.642273 0.793672 0.471345
v 0.641739 0.778125 0.474391
v 0.642273 0.762578 0.471345
v 0.643793 0.749399 0.462670
v 0.646067 0.740592 0.449688
v 0.648750 0.737500 0.434375
v 0.651433 0.740592 0.419062
v 0.653707 0.749399 0.406080
v 0.655227 0.762578 0.397405
v 0.655761 0.778125 0.394359
v 0.655227 0.793672 0.397405
v 0.653707 0.806851 0.406080
v 0.651433 0.815658 0.419062
v 0.662500 0.815658 0.449922
v 0.662500 0.818750 0.434375
v 0.662500 0.806851 0.463101
v 0.662500 0.793672 0.471908
v 0.662500 0.778125 0.475000
v 0.662500 0.762578 0.471908
v 0.662500 0.749399 0.463101
v 0.662500 0.740592 0.449922
v 0.662500 0.737500 0.434375
v 0.662500 0.740592 0.418828
v 0.662500 0.749399 0.405649
v 0.662500 0.762578 0.396842
v 0.662500 0.778125 0.393750
v 0.662500 0.793672 0.396842
v 0.662500 0.806851 0.405649
v 0.662500 0.815658 0.418828
v 0.434375 0.818750 0.337500
v 0.418828 0.815658 0.337500
v 0.418867 0.815658 0.352350
v 0.434375 0.818750 0.351250
v 0.405649 0.806851 0.337500
v 0.405721 0.806851 0.353282
v 0.396842 0.793672 0.337500
v 0.396936 0.793672 0.353905
v 0.393750 0.778125 0.337500
v 0.393852 0.778125 0.354123
v 0.396842 0.762578 0.337500
v 0.396936 0.762578 0.353905
v 0.405649 0.749399 0.337500
v 0.405721 0.749399 0.353282
v 0.418828 0.740592 0.337500
v 0.418867 0.740592 0.352350
v 0.434375 0.737500 0.337500
v 0.434375 0.737500 0.351250
v 0.449922 0.740592 0.337500
v 0.449883 0.740592 0.350150
v 0.463101 0.749399 0.337500
v 0.463029 0.749399 0.349218
v 0.471908 0.762578 0.337500
v 0.471814 0.762578 0.348595
v 0.475000 0.778125 0.337500
v 0.474898 0.778125 0.348377
v 0.471908 0.793672 0.337500
v 0.471814 0.793672 0.348595
v 0.463101 0.806851 0.337500
v 0.463029 0.806851 0.349218
v 0.449922 0.815658 0.337500
v 0.449883 0.815658 0.350150
v 0.423580 0.815658 0.385368
v 0.438758 0.818750 0.382005
v 0.410712 0.806851 0.388219
v 0.402114 0.793672 0.390124
v 0.399095 0.778125 0.390793
v 0.402114 0.762578 0.390124
v 0.410712 0.749399 0.388219
v 0.423580 0.740592 0.385368
v 0.438758 0.737500 0.382005
v 0.453937 0.740592 0.378642
v 0.466804 0.749399 0.375791
v 0.475402 0.762578 0.373886
v 0.478421 0.778125 0.373217
v 0.475402 0.793672 0.373886
v 0.466804 0.806851 0.375791
v 0.453937 0.815658 0.378642
v 0.437377 0.815658 0.430749
v 0.451740 0.818750 0.424800
v 0.425200 0.806851 0.435793
v 0.417064 0.793672 0.439163
v 0.414207 0.778125 0.440346
v 0.417064 0.762578 0.439163
v 0.425200 0.749399 0.435793
v 0.437377 0.740592 0.430749
v 0.451740 0.737500 0.424800
v 0.466103 0.740592 0.418850
v 0.478280 0.749399 0.413807
v 0.486416 0.762578 0.410437
v 0.489273 0.778125 0.409253
v 0.486416 0.793672 0.410437
v 0.478280 0.806851 0.413807
v 0.466103 0.815658 0.418850
v 0.459895 0.815658 0.472877
v 0.472821 0.818750 0.464239
v 0.448936 0.806851 0.480199
v 0.441614 0.793672 0.485091
v 0.439043 0.778125 0.486810
v 0.441614 0.762578 0.485091
v 0.448936 0.749399 0.480199
v 0.459895 0.740592 0.472877
v 0.472821 0.737500 0.464239
v 0.485747 0.740592 0.455602
v 0.496706 0.749399 0.448280
v 0.504028 0.762578 0.443387
v 0.506599 0.778125 0.441669
v 0.504028 0.793672 0.443387
v 0.496706 0.806851 0.448280
v 0.485747 0.815658 0.455602
v 0.490198 0.815658 0.509802
v 0.501191 0.818750 0.498809
v 0.480879 0.806851 0.519121
v 0.474652 0.793672 0.525348
v 0.472465 0.778125 0.527535
v 0.474652 0.762578 0.525348
v 0.480879 0.749399 0.519121
v 0.490198 0.740592 0.509802
v 0.501191 0.737500 0.498809
v 0.512184 0.740592 0.487816
v 0.521504 0.749399 0.478496
v 0.527731 0.762578 0.472269
v 0.529917 0.778125 0.470083
v 0.527731 0.793672 0.472269
v 0.521504 0.806851 0.478496
v 0.512184 0.815658 0.487816
v 0.527123 0.815658 0.540105
v 0.535761 0.818750 0.527179
v 0.519801 0.806851 0.551064
v 0.514909 0.793672 0.558386
v 0.513190 0.778125 0.560957
v 0.514909 0.762578 0.558386
v 0.519801 0.749399 0.551064
v 0.527123 0.740592 0.540105
v 0.535761 0.737500 0.527179
v 0.544398 0.740592 0.514253
v 0.551720 0.749399 0.503294
v 0.556613 0.762578 0.495972
v 0.558331 0.778125 0.493401
v 0.556613 0.793672 0.495972
v 0.551720 0.806851 0.503294
v 0.544398 0.815658 0.514253
v 0.569251 0.815658 0.562623
v 0.575200 0.818750 0.548260
v 0.564207 0.806851 0.574800
v 0.560837 0.793672 0.582936
v 0.559654 0.778125 0.585793
v 0.560837 0.762578 0.582936
v 0.564207 0.749399 0.574800
v 0.569251 0.740592 0.562623
v 0.575200 0.737500 0.548260
v 0.581150 0.740592 0.533897
v 0.586193 0.749399 0.521720
v 0.589563 0.762578 0.513584
v 0.590747 0.778125 0.510727
v 0.589563 0.793672 0.513584
v 0.586193 0.806851 0.521720
v 0.581150 0.815658 0.533897
v 0.614632 0.815658 0.576420
v 0.617995 0.818750 0.561242
v 0.611781 0.806851 0.589288
v 0.609876 0.793672 0.597886
v 0.609207 0.778125 0.600905
v 0.609876 0.762578 0.597886
v 0.611781 0.749399 0.589288
v 0.614632 0.740592 0.576420
v 0.617995 0.737500 0.561242
v 0.621358 0.740592 0.546063
v 0.624209 0.749399 0.533196
v 0.626114 0.762578 0.524598
v 0.626783 0.778125 0.521579
v 0.626114 0.793672 0.524598
v 0.624209 0.806851 0.533196
v 0.621358 0.815658 0.546063
v 0.647650 0.815658 0.581133
v 0.648750 0.818750 0.565625
v 0.646718 0.806851 0.594279
v 0.646095 0.793672 0.603064
v 0.645877 0.778125 0.606148
v 0.646095 0.762578 0.603064
v 0.646718 0.749399 0.594279
v 0.647650 0.740592 0.581133
v 0.648750 0.737500 0.565625
v 0.649850 0.740592 0.550117
v 0.650782 0.749399 0.536971
v 0.651405 0.762578 0.528186
v 0.651623 0.778125 0.525102
v 0.651405 0.793672 0.528186
v 0.650782 0.806851 0.536971
v 0.649850 0.815658 0.550117
v 0.662500 0.815658 0.581172
v 0.662500 0.818750 0.565625
v 0.662500 0.806851 0.594351
v 0.662500 0.793672 0.603158
v 0.662500 0.778125 0.606250
v 0.662500 0.762578 0.603158
v 0.662500 0.749399 0.594351
v 0.662500 0.740592 0.581172
v 0.662500 0.737500 0.565625
v 0.662500 0.740592 0.550078
v 0.662500 0.749399 0.536899
v 0.662500 0.762578 0.528092
v 0.662500 0.778125 0.525000
v 0.662500 0.793672 0.528092
v 0.662500 0.806851 0.536899
v 0.662500 0.815658 0.550078
v 0.000000 0.000000 0.000000
v 1.000000 0.000000 0.000000
v 1.000000 0.000000 1.000000
v 0.000000 0.000000 1.000000
v 0.000000 0.737500 1.000000
v 1.000000 0.737500 1.000000
v 1.000000 0.737500 0.000000
v 0.000000 0.737500 0.000000
v 1.000000 0.737500 0.062500
v 0.000000 0.737500 0.062500
v 0.000000 1.000000 0.062500
v 1.000000 1.000000 0.062500
v 1.000000 1.000000 0.000000
v 0.000000 1.000000 0.000000
v 0.000000 0.737500 0.937500
v 1.000000 0.737500 0.937500
v 0.000000 1.000000 1.000000
v 1.000000 1.000000 1.000000
v 1.000000 1.000000 0.937500
v 0.000000 1.000000 0.937500
v 0.062500 0.737500 0.062500
v 0.062500 0.737500 0.937500
v 0.062500 1.000000 0.937500
v 0.062500 1.000000 0.062500
v 0.937500 0.737500 0.062500
v 0.937500 0.737500 0.937500
v 0.937500 1.000000 0.937500
v 0.937500 1.000000 0.062500
vn -0.1913 0.9619 0.0000
vn -0.5449 0.8155 0.0000
vn -0.8155 0.5449 0.0000
vn -0.9619 0.1913 0.0000
vn -0.9619 -0.1913 0.0000
vn -0.8155 -0.5449 0.0000
vn -0.5449 -0.8155 0.0000
vn -0.1913 -0.9619 0.0000
vn 0.1913 -0.9619 0.0000
vn 0.5449 -0.8155 0.0000
vn 0.8155 -0.5449 0.0000
vn 0.9619 -0.1913 0.0000
vn 0.9619 0.1913 0.0000
vn 0.8155 0.5449 -0.0000
vn 0.5449 0.8155 -0.0000
vn 0.1913 0.9619 0.0000
vn -0.1885 0.9619 0.0330
vn -0.5367 0.8155 0.0940
vn -0.8033 0.5449 0.1407
vn -0.9475 0.1913 0.1660
vn -0.9475 -0.1913 0.1660
vn -0.8033 -0.5449 0.1407
vn -0.5367 -0.8155 0.0940
vn -0.1885 -0.9619 0.0330
vn 0.1885 -0.9619 -0.0330
vn 0.5367 -0.8155 -0.0940
vn 0.8033 -0.5449 -0.1407
vn 0.9475 -0.1913 -0.1660
vn 0.9475 0.1913 -0.1660
vn 0.8033 0.5449 -0.1407
vn 0.5367 0.8155 -0.0940
vn 0.1885 0.9619 -0.0330
vn -0.1816 0.9619 0.0603
vn -0.5171 0.8155 0.1718
vn -0.7739 0.5449 0.2571
vn -0.9129 0.1913 0.3032
vn -0.9129 -0.1913 0.3032
vn -0.7739 -0.5449 0.2571
vn -0.5171 -0.8155 0.1718
vn -0.1816 -0.9619 0.0603
vn 0.1816 -0.9619 -0.0603
vn 0.5171 -0.8155 -0.1718
vn 0.7739 -0.5449 -0.2571
vn 0.9129 -0.1913 -0.3032
vn 0.9129 0.1913 -0.3032
vn 0.7739 0.5449 -0.2571
vn 0.5171 0.8155 -0.1718
vn 0.1816 0.9619 -0.0603
vn -0.1768 0.9619 0.0732
vn -0.5034 0.8155 0.2085
vn -0.7534 0.5449 0.3121
vn -0.8887 0.1913 0.3681
vn -0.8887 -0.1913 0.3681
vn -0.7534 -0.5449 0.3121
vn -0.5034 -0.8155 0.2085
vn -0.1768 -0.9619 0.0732
vn 0.1768 -0.9619 -0.0732
vn 0.5034 -0.8155 -0.2085
vn 0.7534 -0.5449 -0.3121
vn 0.8887 -0.1913 -0.3681
vn 0.8887 0.1913 -0.3681
vn 0.7534 0.5449 -0.3121
vn 0.5034 0.8155 -0.2085
vn 0.1768 0.9619 -0.0732
vn -0.1591 0.9619 0.1063
vn -0.4531 0.8155 0.3027
vn -0.6781 0.5449 0.4531
vn -0.7998 0.1913 0.5344
vn -0.7998 -0.1913 0.5344
vn -0.6781 -0.5449 0.4531
vn -0.4531 -0.8155 0.3027
vn -0.1591 -0.9619 0.1063
vn 0.1591 -0.9619 -0.1063
vn 0.4531 -0.8155 -0.3027
vn 0.6781 -0.5449 -0.4531
vn 0.7998 -0.1913 -0.5344
vn 0.7998 0.1913 -0.5344
vn 0.6781 0.5449 -0.4531
vn 0.4531 0.8155 -0.3027
vn 0.1591 0.9619 -0.1063
vn -0.1353 0.9619 0.1353
vn -0.3853 0.8155 0.3853
vn -0.5766 0.5449 0.5766
vn -0.6802 0.1913 0.6802
vn -0.6802 -0.1913 0.6802
vn -0.5766 -0.5449 0.5766
vn -0.3853 -0.8155 0.3853
vn -0.1353 -0.9619 0.1353
vn 0.1353 -0.9619 -0.1353
vn 0.3853 -0.8155 -0.3853
vn 0.5766 -0.5449 -0.5766
vn 0.6802 -0.1913 -0.6802
vn 0.6802 0.1913 -0.6802
vn 0.5766 0.5449 -0.5766
vn 0.3853 0.8155 -0.3853
vn 0.1353 0.9619 -0.1353
vn -0.1063 0.9619 0.1591
vn -0.3027 0.8155 0.4531
vn -0.4531 0.5449 0.6781
vn -0.5344 0.1913 0.7998
vn -0.5344 -0.1913 0.7998
vn -0.4531 -0.5449 0.6781
vn -0.3027 -0.8155 0.4531
vn -0.1063 -0.9619 0.1591
vn 0.1063 -0.9619 -0.1591
vn 0.3027 -0.8155 -0.4531
vn 0.4531 -0.5449 -0.6781
vn 0.5344 -0.1913 -0.7998
vn 0.5344 0.1913 -0.7998
vn 0.4531 0.5449 -0.6781
vn 0.3027 0.8155 -0.4531
vn 0.1063 0.9619 -0.1591
vn -0.0732 0.9619 0.1768
vn -0.2085 0.8155 0.5034
vn -0.3121 0.5449 0.7534
vn -0.3681 0.1913 0.8887
vn -0.3681 -0.1913 0.8887
vn -0.3121 -0.5449 0.7534
vn -0.2085 -0.8155 0.5034
vn -0.0732 -0.9619 0.1768
vn 0.0732 -0.9619 -0.1768
vn 0.2085 -0.8155 -0.5034
vn 0.3121 -0.5449 -0.7534
vn 0.3681 -0.1913 -0.8887
vn 0.3681 0.1913 -0.8887
vn 0.3121 0.5449 -0.7534
vn 0.2085 0.8155 -0.5034
vn 0.0732 0.9619 -0.1768
vn -0.0603 0.9619 0.1816
vn -0.1718 0.8155 0.5171
vn -0.2571 0.5449 0.7739
vn -0.3032 0.1913 0.9129
vn -0.3032 -0.1913 0.9129
vn -0.2571 -0.5449 0.7739
vn -0.1718 -0.8155 0.5171
vn -0.0603 -0.9619 0.1816
vn 0.0603 -0.9619 -0.1816
vn 0.1718 -0.8155 -0.5171
vn 0.2571 -0.5449 -0.7739
vn 0.3032 -0.1913 -0.9129
vn 0.3032 0.1913 -0.9129
vn 0.2571 0.5449 -0.7739
vn 0.1718 0.8155 -0.5171
vn 0.0603 0.9619 -0.1816
vn -0.0330 0.9619 0.1885
vn -0.0940 0.8155 0.5367
vn -0.1407 0.5449 0.8033
vn -0.1660 0.1913 0.9475
vn -0.1660 -0.1913 0.9475
vn -0.1407 -0.5449 0.8033
vn -0.0940 -0.8155 0.5367
vn -0.0330 -0.9619 0.1885
vn 0.0330 -0.9619 -0.1885
vn 0.0940 -0.8155 -0.5367
vn 0.1407 -0.5449 -0.8033
vn 0.1660 -0.1913 -0.9475
vn 0.1660 0.1913 -0.9475
vn 0.1407 0.5449 -0.8033
vn 0.0940 0.8155 -0.5367
vn 0.0330 0.9619 -0.1885
vn -0.1909 0.9619 0.0135
vn -0.5435 0.8155 0.0385
vn -0.8135 0.5449 0.0577
vn -0.9595 0.1913 0.0680
vn -0.9595 -0.1913 0.0680
vn -0.8135 -0.5449 0.0577
vn -0.5435 -0.8155 0.0385
vn -0.1909 -0.9619 0.0135
vn 0.1909 -0.9619 -0.0135
vn 0.5435 -0.8155 -0.0385
vn 0.8135 -0.5449 -0.0577
vn 0.9595 -0.1913 -0.0680
vn 0.9595 0.1913 -0.0680
vn 0.8135 0.5449 -0.0577
vn 0.5435 0.8155 -0.0385
vn 0.1909 0.9619 -0.0135
vn -0.1868 0.9619 0.0414
vn -0.5320 0.8155 0.1179
vn -0.7962 0.5449 0.1764
vn -0.9392 0.1913 0.2081
vn -0.9392 -0.1913 0.2081
vn -0.7962 -0.5449 0.1764
vn -0.5320 -0.8155 0.1179
vn -0.1868 -0.9619 0.0414
vn 0.1868 -0.9619 -0.0414
vn 0.5320 -0.8155 -0.1179
vn 0.7962 -0.5449 -0.1764
vn 0.9392 -0.1913 -0.2081
vn 0.9392 0.1913 -0.2081
vn 0.7962 0.5449 -0.1764
vn 0.5320 0.8155 -0.1179
vn 0.1868 0.9619 -0.0414
vn -0.0414 0.9619 0.1868
vn -0.1179 0.8155 0.5320
vn -0.1764 0.5449 0.7962
vn -0.2081 0.1913 0.9392
vn -0.2081 -0.1913 0.9392
vn -0.1764 -0.5449 0.7962
vn -0.1179 -0.8155 0.5320
vn -0.0414 -0.9619 0.1868
vn 0.0414 -0.9619 -0.1868
vn 0.1179 -0.8155 -0.5320
vn 0.1764 -0.5449 -0.7962
vn 0.2081 -0.1913 -0.9392
vn 0.2081 0.1913 -0.9392
vn 0.1764 0.5449 -0.7962
vn 0.1179 0.8155 -0.5320
vn 0.0414 0.9619 -0.1868
vn -0.0135 0.9619 0.1909
vn -0.0385 0.8155 0.5435
vn -0.0577 0.5449 0.8135
vn -0.0680 0.1913 0.9595
vn -0.0680 -0.1913 0.9595
vn -0.0577 -0.5449 0.8135
vn -0.0385 -0.8155 0.5435
vn -0.0135 -0.9619 0.1909
vn 0.0135 -0.9619 -0.1909
vn 0.0385 -0.8155 -0.5435
vn 0.0577 -0.5449 -0.8135
vn 0.0680 -0.1913 -0.9595
vn 0.0680 0.1913 -0.9595
vn 0.0577 0.5449 -0.8135
vn 0.0385 0.8155 -0.5435
vn 0.0135 0.9619 -0.1909
vn 0.0000 -1.0000 0.0000
vn 0.0000 1.0000 0.0000
vn 0.0000 0.0000 -1.0000
vn 0.0000 0.0000 1.0000
vn -1.0000 0.0000 0.0000
vn 1.0000 0.0000 0.0000
vt 0.000000 0.000000
vt 0.062500 0.000000
vt 0.062500 0.090226
vt 0.000000 0.090226
vt 0.125000 0.000000
vt 0.125000 0.090226
vt 0.187500 0.000000
vt 0.187500 0.090226
vt 0.250000 0.000000
vt 0.250000 0.090226
vt 0.312500 0.000000
vt 0.312500 0.090226
vt 0.375000 0.000000
vt 0.375000 0.090226
vt 0.437500 0.000000
vt 0.437500 0.090226
vt 0.500000 0.000000
vt 0.500000 0.090226
vt 0.562500 0.000000
vt 0.562500 0.090226
vt 0.625000 0.000000
vt 0.625000 0.090226
vt 0.687500 0.000000
vt 0.687500 0.090226
vt 0.750000 0.000000
vt 0.750000 0.090226
vt 0.812500 0.000000
vt 0.812500 0.090226
vt 0.875000 0.000000
vt 0.875000 0.090226
vt 0.937500 0.000000
vt 0.937500 0.090226
vt 1.000000 0.000000
vt 1.000000 0.090226
vt 0.062500 0.126155
vt 0.000000 0.126155
vt 0.125000 0.126155
vt 0.187500 0.126155
vt 0.250000 0.126155
vt 0.312500 0.126155
vt 0.375000 0.126155
vt 0.437500 0.126155
vt 0.500000 0.126155
vt 0.562500 0.126155
vt 0.625000 0.126155
vt 0.687500 0.126155
vt 0.750000 0.126155
vt 0.812500 0.126155
vt 0.875000 0.126155
vt 0.937500 0.126155
vt 1.000000 0.126155
vt 0.062500 0.250770
vt 0.000000 0.250770
vt 0.125000 0.250770
vt 0.187500 0.250770
vt 0.250000 0.250770
vt 0.312500 0.250770
vt 0.375000 0.250770
vt 0.437500 0.250770
vt 0.500000 0.250770
vt 0.562500 0.250770
vt 0.625000 0.250770
vt 0.687500 0.250770
vt 0.750000 0.250770
vt 0.812500 0.250770
vt 0.875000 0.250770
vt 0.937500 0.250770
vt 1.000000 0.250770
vt 0.062500 0.375385
vt 0.000000 0.375385
vt 0.125000 0.375385
vt 0.187500 0.375385
vt 0.250000 0.375385
vt 0.312500 0.375385
vt 0.375000 0.375385
vt 0.437500 0.375385
vt 0.500000 0.375385
vt 0.562500 0.375385
vt 0.625000 0.375385
vt 0.687500 0.375385
vt 0.750000 0.375385
vt 0.812500 0.375385
vt 0.875000 0.375385
vt 0.937500 0.375385
vt 1.000000 0.375385
vt 0.062500 0.500000
vt 0.000000 0.500000
vt 0.125000 0.500000
vt 0.187500 0.500000
vt 0.250000 0.500000
vt 0.312500 0.500000
vt 0.375000 0.500000
vt 0.437500 0.500000
vt 0.500000 0.500000
vt 0.562500 0.500000
vt 0.625000 0.500000
vt 0.687500 0.500000
vt 0.750000 0.500000
vt 0.812500 0.500000
vt 0.875000 0.500000
vt 0.937500 0.500000
vt 1.000000 0.500000
vt 0.062500 0.624615
vt 0.000000 0.624615
vt 0.125000 0.624615
vt 0.187500 0.624615
vt 0.250000 0.624615
vt 0.312500 0.624615
vt 0.375000 0.624615
vt 0.437500 0.624615
vt 0.500000 0.624615
vt 0.562500 0.624615
vt 0.625000 0.624615
vt 0.687500 0.624615
vt 0.750000 0.624615
vt 0.812500 0.624615
vt 0.875000 0.624615
vt 0.937500 0.624615
vt 1.000000 0.624615
vt 0.062500 0.749230
vt 0.000000 0.749230
vt 0.125000 0.749230
vt 0.187500 0.749230
vt 0.250000 0.749230
vt 0.312500 0.749230
vt 0.375000 0.749230
vt 0.437500 0.749230
vt 0.500000 0.749230
vt 0.562500 0.749230
vt 0.625000 0.749230
vt 0.687500 0.749230
vt 0.750000 0.749230
vt 0.812500 0.749230
vt 0.875000 0.749230
vt 0.937500 0.749230
vt 1.000000 0.749230
vt 0.062500 0.873845
vt 0.000000 0.873845
vt 0.125000 0.873845
vt 0.187500 0.873845
vt 0.250000 0.873845
vt 0.312500 0.873845
vt 0.375000 0.873845
vt 0.437500 0.873845
vt 0.500000 0.873845
vt 0.562500 0.873845
vt 0.625000 0.873845
vt 0.687500 0.873845
vt 0.750000 0.873845
vt 0.812500 0.873845
vt 0.875000 0.873845
vt 0.937500 0.873845
vt 1.000000 0.873845
vt 0.062500 0.909774
vt 0.000000 0.909774
vt 0.125000 0.909774
vt 0.187500 0.909774
vt 0.250000 0.909774
vt 0.312500 0.909774
vt 0.375000 0.909774
vt 0.437500 0.909774
vt 0.500000 0.909774
vt 0.562500 0.909774
vt 0.625000 0.909774
vt 0.687500 0.909774
vt 0.750000 0.909774
vt 0.812500 0.909774
vt 0.875000 0.909774
vt 0.937500 0.909774
vt 1.000000 0.909774
vt 0.062500 1.000000
vt 0.000000 1.000000
vt 0.125000 1.000000
vt 0.187500 1.000000
vt 0.250000 1.000000
vt 0.312500 1.000000
vt 0.375000 1.000000
vt 0.437500 1.000000
vt 0.500000 1.000000
vt 0.562500 1.000000
vt 0.625000 1.000000
vt 0.687500 1.000000
vt 0.750000 1.000000
vt 0.812500 1.000000
vt 0.875000 1.000000
vt 0.937500 1.000000
vt 1.000000 1.000000
vt 0.062500 0.038413
vt 0.000000 0.038413
vt 0.125000 0.038413
vt 0.187500 0.038413
vt 0.250000 0.038413
vt 0.312500 0.038413
vt 0.375000 0.038413
vt 0.437500 0.038413
vt 0.500000 0.038413
vt 0.562500 0.038413
vt 0.625000 0.038413
vt 0.687500 0.038413
vt 0.750000 0.038413
vt 0.812500 0.038413
vt 0.875000 0.038413
vt 0.937500 0.038413
vt 1.000000 0.038413
vt 0.062500 0.125200
vt 0.000000 0.125200
vt 0.125000 0.125200
vt 0.187500 0.125200
vt 0.250000 0.125200
vt 0.312500 0.125200
vt 0.375000 0.125200
vt 0.437500 0.125200
vt 0.500000 0.125200
vt 0.562500 0.125200
vt 0.625000 0.125200
vt 0.687500 0.125200
vt 0.750000 0.125200
vt 0.812500 0.125200
vt 0.875000 0.125200
vt 0.937500 0.125200
vt 1.000000 0.125200
vt 0.062500 0.250133
vt 0.000000 0.250133
vt 0.125000 0.250133
vt 0.187500 0.250133
vt 0.250000 0.250133
vt 0.312500 0.250133
vt 0.375000 0.250133
vt 0.437500 0.250133
vt 0.500000 0.250133
vt 0.562500 0.250133
vt 0.625000 0.250133
vt 0.687500 0.250133
vt 0.750000 0.250133
vt 0.812500 0.250133
vt 0.875000 0.250133
vt 0.937500 0.250133
vt 1.000000 0.250133
vt 0.062500 0.375067
vt 0.000000 0.375067
vt 0.125000 0.375067
vt 0.187500 0.375067
vt 0.250000 0.375067
vt 0.312500 0.375067
vt 0.375000 0.375067
vt 0.437500 0.375067
vt 0.500000 0.375067
vt 0.562500 0.375067
vt 0.625000 0.375067
vt 0.687500 0.375067
vt 0.750000 0.375067
vt 0.812500 0.375067
vt 0.875000 0.375067
vt 0.937500 0.375067
vt 1.000000 0.375067
vt 0.062500 0.624933
vt 0.000000 0.624933
vt 0.125000 0.624933
vt 0.187500 0.624933
vt 0.250000 0.624933
vt 0.312500 0.624933
vt 0.375000 0.624933
vt 0.437500 0.624933
vt 0.500000 0.624933
vt 0.562500 0.624933
vt 0.625000 0.624933
vt 0.687500 0.624933
vt 0.750000 0.624933
vt 0.812500 0.624933
vt 0.875000 0.624933
vt 0.937500 0.624933
vt 1.000000 0.624933
vt 0.062500 0.749867
vt 0.000000 0.749867
vt 0.125000 0.749867
vt 0.187500 0.749867
vt 0.250000 0.749867
vt 0.312500 0.749867
vt 0.375000 0.749867
vt 0.437500 0.749867
vt 0.500000 0.749867
vt 0.562500 0.749867
vt 0.625000 0.749867
vt 0.687500 0.749867
vt 0.750000 0.749867
vt 0.812500 0.749867
vt 0.875000 0.749867
vt 0.937500 0.749867
vt 1.000000 0.749867
vt 0.062500 0.874800
vt 0.000000 0.874800
vt 0.125000 0.874800
vt 0.187500 0.874800
vt 0.250000 0.874800
vt 0.312500 0.874800
vt 0.375000 0.874800
vt 0.437500 0.874800
vt 0.500000 0.874800
vt 0.562500 0.874800
vt 0.625000 0.874800
vt 0.687500 0.874800
vt 0.750000 0.874800
vt 0.812500 0.874800
vt 0.875000 0.874800
vt 0.937500 0.874800
vt 1.000000 0.874800
vt 0.062500 0.961587
vt 0.000000 0.961587
vt 0.125000 0.961587
vt 0.187500 0.961587
vt 0.250000 0.961587
vt 0.312500 0.961587
vt 0.375000 0.961587
vt 0.437500 0.961587
vt 0.500000 0.961587
vt 0.562500 0.961587
vt 0.625000 0.961587
vt 0.687500 0.961587
vt 0.750000 0.961587
vt 0.812500 0.961587
vt 0.875000 0.961587
vt 0.937500 0.961587
vt 1.000000 0.961587
o cable
usemtl core
f 1/1/1 2/2/1 3/3/1 4/4/1
f 2/2/2 5/5/2 6/6/2 3/3/2
f 5/5/3 7/7/3 8/8/3 6/6/3
f 7/7/4 9/9/4 10/10/4 8/8/4
f 9/9/5 11/11/5 12/12/5 10/10/5
f 11/11/6 13/13/6 14/14/6 12/12/6
f 13/13/7 15/15/7 16/16/7 14/14/7
f 15/15/8 17/17/8 18/18/8 16/16/8
f 17/17/9 19/19/9 20/20/9 18/18/9
f 19/19/10 21/21/10 22/22/10 20/20/10
f 21/21/11 23/23/11 24/24/11 22/22/11
f 23/23/12 25/25/12 26/26/12 24/24/12
f 25/25/13 27/27/13 28/28/13 26/26/13
f 27/27/14 29/29/14 30/30/14 28/28/14
f 29/29/15 31/31/15 32/32/15 30/30/15
f 31/31/16 1/33/16 4/34/16 32/32/16
f 4/4/17 3/3/17 33/35/17 34/36/17
f 3/3/18 6/6/18 35/37/18 33/35/18
f 6/6/19 8/8/19 36/38/19 35/37/19
f 8/8/20 10/10/20 37/39/20 36/38/20
f 10/10/21 12/12/21 38/40/21 37/39/21
f 12/12/22 14/14/22 39/41/22 38/40/22
f 14/14/23 16/16/23 40/42/23 39/41/23
f 16/16/24 18/18/24 41/43/24 40/42/24
f 18/18/25 20/20/25 42/44/25 41/43/25
f 20/20/26 22/22/26 43/45/26 42/44/26
f 43/45/27 44/46/27 24/24/27 22/22/27
f 44/46/28 45/47/28 26/26/28 24/24/28
f 45/47/29 46/48/29 28/28/29 26/26/29
f 28/28/30 30/30/30 47/49/30 46/48/30
f 30/30/31 32/32/31 48/50/31 47/49/31
f 32/32/32 4/34/32 34/51/32 48/50/32
f 34/36/33 33/35/33 49/52/33 50/53/33
f 33/35/34 35/37/34 51/54/34 49/52/34
f 35/37/35 36/38/35 52/55/35 51/54/35
f 36/38/36 37/39/36 53/56/36 52/55/36
f 37/39/37 38/40/37 54/57/37 53/56/37
f 38/40/38 39/41/38 55/58/38 54/57/38
f 39/41/39 40/42/39 56/59/39 55/58/39
f 40/42/40 41/43/40 57/60/40 56/59/40
f 41/43/41 42/44/41 58/61/41 57/60/41
f 42/44/42 43/45/42 59/62/42 58/61/42
f 43/45/43 44/46/43 60/63/43 59/62/43
f 44/46/44 45/47/44 61/64/44 60/63/44
f 45/47/45 46/48/45 62/65/45 61/64/45
f 46/48/46 47/49/46 63/66/46 62/65/46
f 47/49/47 48/50/47 64/67/47 63/66/47
f 48/50/48 34/51/48 50/68/48 64/67/48
f 50/53/49 49/52/49 65/69/49 66/70/49
f 49/52/50 51/54/50 67/71/50 65/69/50
f 51/54/51 52/55/51 68/72/51 67/71/51
f 52/55/52 53/56/52 69/73/52 68/72/52
f 53/56/53 54/57/53 70/74/53 69/73/53
f 54/57/54 55/58/54 71/75/54 70/74/54
f 55/58/55 56/59/55 72/76/55 71/75/55
f 56/59/56 57/60/56 73/77/56 72/76/56
f 57/60/57 58/61/57 74/78/57 73/77/57
f 58/61/58 59/62/58 75/79/58 74/78/58
f 59/62/59 60/63/59 76/80/59 75/79/59
f 60/63/60 61/64/60 77/81/60 76/80/60
f 61/64/61 62/65/61 78/82/61 77/81/61
f 62/65/62 63/66/62 79/83/62 78/82/62
f 63/66/63 64/67/63 80/84/63 79/83/63
f 64/67/64 50/68/64 66/85/64 80/84/64
f 66/70/65 65/69/65 81/86/65 82/87/65
f 65/69/66 67/71/66 83/88/66 81/86/66
f 67/71/67 68/72/67 84/89/67 83/88/67
f 68/72/68 69/73/68 85/90/68 84/89/68
f 69/73/69 70/74/69 86/91/69 85/90/69
f 70/74/70 71/75/70 87/92/70 86/91/70
f 71/75/71 72/76/71 88/93/71 87/92/71
f 72/76/72 73/77/72 89/94/72 88/93/72
f 73/77/73 74/78/73 90/95/73 89/94/73
f 74/78/74 75/79/74 91/96/74 90/95/74
f 75/79/75 76/80/75 92/97/75 91/96/75
f 76/80/76 77/81/76 93/98/76 92/97/76
f 77/81/77 78/82/77 94/99/77 93/98/77
f 78/82/78 79/83/78 95/100/78 94/99/78
f 79/83/79 80/84/79 96/101/79 95/100/79
f 80/84/80 66/85/80 82/102/80 96/101/80
f 82/87/81 81/86/81 97/103/81 98/104/81
f 81/86/82 83/88/82 99/105/82 97/103/82
f 83/88/83 84/89/83 100/106/83 99/105/83
f 84/89/84 85/90/84 101/107/84 100/106/84
f 85/90/85 86/91/85 102/108/85 101/107/85
f 86/91/86 87/92/86 103/109/86 102/108/86
f 87/92/87 88/93/87 104/110/87 103/109/87
f 88/93/88 89/94/88 105/111/88 104/110/88
f 89/94/89 90/95/89 106/112/89 105/111/89
f 90/95/90 91/96/90 107/113/90 106/112/90
f 91/96/91 92/97/91 108/114/91 107/113/91
f 92/97/92 93/98/92 109/115/92 108/114/92
f 93/98/93 94/99/93 110/116/93 109/115/93
f 94/99/94 95/100/94 111/117/94 110/116/94
f 95/100/95 96/101/95 112/118/95 111/117/95
f 96/101/96 82/102/96 98/119/96 112/118/96
f 98/104/97 97/103/97 113/120/97 114/121/97
f 97/103/98 99/105/98 115/122/98 113/120/98
f 99/105/99 100/106/99 116/123/99 115/122/99
f 100/106/100 101/107/100 117/124/100 116/123/100
f 101/107/101 102/108/101 118/125/101 117/124/101
f 102/108/102 103/109/102 119/126/102 118/125/102
f 103/109/103 104/110/103 120/127/103 119/126/103
f 104/110/104 105/111/104 121/128/104 120/127/104
f 105/111/105 106/112/105 122/129/105 121/128/105
f 106/112/106 107/113/106 123/130/106 122/129/106
f 107/113/107 108/114/107 124/131/107 123/130/107
f 108/114/108 109/115/108 125/132/108 124/131/108
f 109/115/109 110/116/109 126/133/109 125/132/109
f 110/116/110 111/117/110 127/134/110 126/133/110
f 111/117/111 112/118/111 128/135/111 127/134/111
f 112/118/112 98/119/112 114/136/112 128/135/112
f 114/121/113 113/120/113 129/137/113 130/138/113
f 113/120/114 115/122/114 131/139/114 129/137/114
f 115/122/115 116/123/115 132/140/115 131/139/115
f 116/123/116 117/124/116 133/141/116 132/140/116
f 117/124/117 118/125/117 134/142/117 133/141/117
f 118/125/118 119/126/118 135/143/118 134/142/118
f 119/126/119 120/127/119 136/144/119 135/143/119
f 120/127/120 121/128/120 137/145/120 136/144/120
f 121/128/121 122/129/121 138/146/121 137/145/121
f 122/129/122 123/130/122 139/147/122 138/146/122
f 123/130/123 124/131/123 140/148/123 139/147/123
f 124/131/124 125/132/124 141/149/124 140/148/124
f 125/132/125 126/133/125 142/150/125 141/149/125
f 126/133/126 127/134/126 143/151/126 142/150/126
f 127/134/127 128/135/127 144/152/127 143/151/127
f 128/135/128 114/136/128 130/153/128 144/152/128
f 130/138/129 129/137/129 145/154/129 146/155/129
f 129/137/130 131/139/130 147/156/130 145/154/130
f 131/139/131 132/140/131 148/157/131 147/156/131
f 132/140/132 133/141/132 149/158/132 148/157/132
f 133/141/133 134/142/133 150/159/133 149/158/133
f 134/142/134 135/143/134 151/160/134 150/159/134
f 135/143/135 136/144/135 152/161/135 151/160/135
f 136/144/136 137/145/136 153/162/136 152/161/136
f 137/145/137 138/146/137 154/163/137 153/162/137
f 138/146/138 139/147/138 155/164/138 154/163/138
f 155/164/139 156/165/139 140/148/139 139/147/139
f 156/165/140 157/166/140 141/149/140 140/148/140
f 157/166/141 158/167/141 142/150/141 141/149/141
f 142/150/142 143/151/142 159/168/142 158/167/142
f 143/151/143 144/152/143 160/169/143 159/168/143
f 144/152/144 130/153/144 146/170/144 160/169/144
f 146/155/145 145/154/145 161/171/145 162/172/145
f 145/154/146 147/156/146 163/173/146 161/171/146
f 147/156/147 148/157/147 164/174/147 163/173/147
f 148/157/148 149/158/148 165/175/148 164/174/148
f 149/158/149 150/159/149 166/176/149 165/175/149
f 150/159/150 151/160/150 167/177/150 166/176/150
f 151/160/151 152/161/151 168/178/151 167/177/151
f 152/161/152 153/162/152 169/179/152 168/178/152
f 153/162/153 154/163/153 170/180/153 169/179/153
f 154/163/154 155/164/154 171/181/154 170/180/154
f 155/164/155 156/165/155 172/182/155 171/181/155
f 156/165/156 157/166/156 173/183/156 172/182/156
f 157/166/157 158/167/157 174/184/157 173/183/157
f 158/167/158 159/168/158 175/185/158 174/184/158
f 159/168/159 160/169/159 176/186/159 175/185/159
f 160/169/160 146/170/160 162/187/160 176/186/160
f 177/1/1 178/2/1 179/188/1 180/189/1
f 178/2/2 181/5/2 182/190/2 179/188/2
f 181/5/3 183/7/3 184/191/3 182/190/3
f 183/7/4 185/9/4 186/192/4 184/191/4
f 185/9/5 187/11/5 188/193/5 186/192/5
f 187/11/6 189/13/6 190/194/6 188/193/6
f 189/13/7 191/15/7 192/195/7 190/194/7
f 191/15/8 193/17/8 194/196/8 192/195/8
f 193/17/9 195/19/9 196/197/9 194/196/9
f 195/19/10 197/21/10 198/198/10 196/197/10
f 197/21/11 199/23/11 200/199/11 198/198/11
f 199/23/12 201/25/12 202/200/12 200/199/12
f 201/25/13 203/27/13 204/201/13 202/200/13
f 203/27/14 205/29/14 206/202/14 204/201/14
f 205/29/15 207/31/15 208/203/15 206/202/15
f 207/31/16 177/33/16 180/204/16 208/203/16
f 180/189/161 179/188/161 209/205/161 210/206/161
f 179/188/162 182/190/162 211/207/162 209/205/162
f 182/190/163 184/191/163 212/208/163 211/207/163
f 184/191/164 186/192/164 213/209/164 212/208/164
f 186/192/165 188/193/165 214/210/165 213/209/165
f 188/193/166 190/194/166 215/211/166 214/210/166
f 190/194/167 192/195/167 216/212/167 215/211/167
f 192/195/168 194/196/168 217/213/168 216/212/168
f 194/196/169 196/197/169 218/214/169 217/213/169
f 196/197/170 198/198/170 219/215/170 218/214/170
f 198/198/171 200/199/171 220/216/171 219/215/171
f 200/199/172 202/200/172 221/217/172 220/216/172
f 202/200/173 204/201/173 222/218/173 221/217/173
f 204/201/174 206/202/174 223/219/174 222/218/174
f 206/202/175 208/203/175 224/220/175 223/219/175
f 208/203/176 180/204/176 210/221/176 224/220/176
f 210/206/177 209/205/177 225/222/177 226/223/177
f 209/205/178 211/207/178 227/224/178 225/222/178
f 211/207/179 212/208/179 228/225/179 227/224/179
f 212/208/180 213/209/180 229/226/180 228/225/180
f 213/209/181 214/210/181 230/227/181 229/226/181
f 214/210/182 215/211/182 231/228/182 230/227/182
f 215/211/183 216/212/183 232/229/183 231/228/183
f 216/212/184 217/213/184 233/230/184 232/229/184
f 217/213/185 218/214/185 234/231/185 233/230/185
f 218/214/186 219/215/186 235/232/186 234/231/186
f 219/215/187 220/216/187 236/233/187 235/232/187
f 220/216/188 221/217/188 237/234/188 236/233/188
f 221/217/189 222/218/189 238/235/189 237/234/189
f 222/218/190 223/219/190 239/236/190 238/235/190
f 223/219/191 224/220/191 240/237/191 239/236/191
f 224/220/192 210/221/192 226/238/192 240/237/192
f 226/223/49 225/222/49 241/239/49 242/240/49
f 225/222/50 227/224/50 243/241/50 241/239/50
f 227/224/51 228/225/51 244/242/51 243/241/51
f 228/225/52 229/226/52 245/243/52 244/242/52
f 229/226/53 230/227/53 246/244/53 245/243/53
f 230/227/54 231/228/54 247/245/54 246/244/54
f 231/228/55 232/229/55 248/246/55 247/245/55
f 232/229/56 233/230/56 249/247/56 248/246/56
f 233/230/57 234/231/57 250/248/57 249/247/57
f 234/231/58 235/232/58 251/249/58 250/248/58
f 235/232/59 236/233/59 252/250/59 251/249/59
f 236/233/60 237/234/60 253/251/60 252/250/60
f 237/234/61 238/235/61 254/252/61 253/251/61
f 238/235/62 239/236/62 255/253/62 254/252/62
f 239/236/63 240/237/63 256/254/63 255/253/63
f 240/237/64 226/238/64 242/255/64 256/254/64
f 242/240/65 241/239/65 257/86/65 258/87/65
f 241/239/66 243/241/66 259/88/66 257/86/66
f 243/241/67 244/242/67 260/89/67 259/88/67
f 244/242/68 245/243/68 261/90/68 260/89/68
f 245/243/69 246/244/69 262/91/69 261/90/69
f 246/244/70 247/245/70 263/92/70 262/91/70
f 247/245/71 248/246/71 264/93/71 263/92/71
f 248/246/72 249/247/72 265/94/72 264/93/72
f 249/247/73 250/248/73 266/95/73 265/94/73
f 250/248/74 251/249/74 267/96/74 266/95/74
f 251/249/75 252/250/75 268/97/75 267/96/75
f 252/250/76 253/251/76 269/98/76 268/97/76
f 253/251/77 254/252/77 270/99/77 269/98/77
f 254/252/78 255/253/78 271/100/78 270/99/78
f 255/253/79 256/254/79 272/101/79 271/100/79
f 256/254/80 242/255/80 258/102/80 272/101/80
f 258/87/81 257/86/81 273/256/81 274/257/81
f 257/86/82 259/88/82 275/258/82 273/256/82
f 259/88/83 260/89/83 276/259/83 275/258/83
f 260/89/84 261/90/84 277/260/84 276/259/84
f 261/90/85 262/91/85 278/261/85 277/260/85
f 262/91/86 263/92/86 279/262/86 278/261/86
f 263/92/87 264/93/87 280/263/87 279/262/87
f 264/93/88 265/94/88 281/264/88 280/263/88
f 265/94/89 266/95/89 282/265/89 281/264/89
f 266/95/90 267/96/90 283/266/90 282/265/90
f 267/96/91 268/97/91 284/267/91 283/266/91
f 268/97/92 269/98/92 285/268/92 284/267/92
f 269/98/93 270/99/93 286/269/93 285/268/93
f 270/99/94 271/100/94 287/270/94 286/269/94
f 271/100/95 272/101/95 288/271/95 287/270/95
f 272/101/96 258/102/96 274/272/96 288/271/96
f 274/257/97 273/256/97 289/273/97 290/274/97
f 273/256/98 275/258/98 291/275/98 289/273/98
f 275/258/99 276/259/99 292/276/99 291/275/99
f 276/259/100 277/260/100 293/277/100 292/276/100
f 277/260/101 278/261/101 294/278/101 293/277/101
f 278/261/102 279/262/102 295/279/102 294/278/102
f 279/262/103 280/263/103 296/280/103 295/279/103
f 280/263/104 281/264/104 297/281/104 296/280/104
f 281/264/105 282/265/105 298/282/105 297/281/105
f 282/265/106 283/266/106 299/283/106 298/282/106
f 283/266/107 284/267/107 300/284/107 299/283/107
f 284/267/108 285/268/108 301/285/108 300/284/108
f 285/268/109 286/269/109 302/286/109 301/285/109
f 286/269/110 287/270/110 303/287/110 302/286/110
f 287/270/111 288/271/111 304/288/111 303/287/111
f 288/271/112 274/272/112 290/289/112 304/288/112
f 290/274/113 289/273/113 305/290/113 306/291/113
f 289/273/114 291/275/114 307/292/114 305/290/114
f 291/275/115 292/276/115 308/293/115 307/292/115
f 292/276/116 293/277/116 309/294/116 308/293/116
f 293/277/117 294/278/117 310/295/117 309/294/117
f 294/278/118 295/279/118 311/296/118 310/295/118
f 295/279/119 296/280/119 312/297/119 311/296/119
f 296/280/120 297/281/120 313/298/120 312/297/120
f 297/281/121 298/282/121 314/299/121 313/298/121
f 298/282/122 299/283/122 315/300/122 314/299/122
f 299/283/123 300/284/123 316/301/123 315/300/123
f 300/284/124 301/285/124 317/302/124 316/301/124
f 301/285/125 302/286/125 318/303/125 317/302/125
f 302/286/126 303/287/126 319/304/126 318/303/126
f 303/287/127 304/288/127 320/305/127 319/304/127
f 304/288/128 290/289/128 306/306/128 320/305/128
f 306/291/193 305/290/193 321/307/193 322/308/193
f 305/290/194 307/292/194 323/309/194 321/307/194
f 307/292/195 308/293/195 324/310/195 323/309/195
f 308/293/196 309/294/196 325/311/196 324/310/196
f 309/294/197 310/295/197 326/312/197 325/311/197
f 310/295/198 311/296/198 327/313/198 326/312/198
f 311/296/199 312/297/199 328/314/199 327/313/199
f 312/297/200 313/298/200 329/315/200 328/314/200
f 313/298/201 314/299/201 330/316/201 329/315/201
f 314/299/202 315/300/202 331/317/202 330/316/202
f 315/300/203 316/301/203 332/318/203 331/317/203
f 316/301/204 317/302/204 333/319/204 332/318/204
f 317/302/205 318/303/205 334/320/205 333/319/205
f 318/303/206 319/304/206 335/321/206 334/320/206
f 319/304/207 320/305/207 336/322/207 335/321/207
f 320/305/208 306/306/208 322/323/208 336/322/208
f 322/308/209 321/307/209 337/171/209 338/172/209
f 321/307/210 323/309/210 339/173/210 337/171/210
f 323/309/211 324/310/211 340/174/211 339/173/211
f 324/310/212 325/311/212 341/175/212 340/174/212
f 325/311/213 326/312/213 342/176/213 341/175/213
f 326/312/214 327/313/214 343/177/214 342/176/214
f 327/313/215 328/314/215 344/178/215 343/177/215
f 328/314/216 329/315/216 345/179/216 344/178/216
f 329/315/217 330/316/217 346/180/217 345/179/217
f 330/316/218 331/317/218 347/181/218 346/180/218
f 331/317/219 332/318/219 348/182/219 347/181/219
f 332/318/220 333/319/220 349/183/220 348/182/220
f 333/319/221 334/320/221 350/184/221 349/183/221
f 334/320/222 335/321/222 351/185/222 350/184/222
f 335/321/223 336/322/223 352/186/223 351/185/223
f 336/322/224 322/323/224 338/187/224 352/186/224
o bedding
usemtl trench
f 353/172/225 354/187/225 355/33/225 356/1/225
f 357/1/226 358/33/226 359/187/226 360/172/226
f 360/187/227 359/172/227 354/1/227 353/33/227
f 358/187/228 357/172/228 356/1/228 355/33/228
f 357/187/229 360/172/229 353/1/229 356/33/229
f 359/187/230 358/172/230 355/1/230 354/33/230
f 360/87/225 359/94/225 361/17/225 362/1/225
f 363/1/226 364/17/226 365/94/226 366/87/226
f 366/94/227 365/87/227 359/1/227 360/17/227
f 364/94/228 363/87/228 362/1/228 361/17/228
f 363/94/229 366/87/229 360/1/229 362/17/229
f 365/94/230 364/87/230 361/1/230 359/17/230
f 367/87/225 368/94/225 358/17/225 357/1/225
f 369/1/226 370/17/226 371/94/226 372/87/226
f 372/94/227 371/87/227 368/1/227 367/17/227
f 370/94/228 369/87/228 357/1/228 358/17/228
f 369/94/229 372/87/229 367/1/229 357/17/229
f 371/94/230 370/87/230 358/1/230 368/17/230
f 362/87/225 373/94/225 374/17/225 367/1/225
f 372/1/226 375/17/226 376/94/226 363/87/226
f 363/94/227 376/87/227 373/1/227 362/17/227
f 375/94/228 372/87/228 367/1/228 374/17/228
f 372/94/229 363/87/229 362/1/229 367/17/229
f 376/94/230 375/87/230 374/1/230 373/17/230
f 377/87/225 361/94/225 368/17/225 378/1/225
f 379/1/226 371/17/226 364/94/226 380/87/226
f 380/94/227 364/87/227 361/1/227 377/17/227
f 371/94/228 379/87/228 378/1/228 368/17/228
f 379/94/229 380/87/229 377/1/229 378/17/229
f 364/94/230 371/87/230 368/1/230 361/17/230
