# generated by tools/gen_cable_models.py - do not edit by hand
mtllib dc_string_cable_arm.mtl
v 0.434375 0.081250 0.000000
v 0.426449 0.080469 0.000000
v 0.426449 0.080469 0.337500
v 0.434375 0.081250 0.337500
v 0.418828 0.078158 0.000000
v 0.418828 0.078158 0.337500
v 0.411805 0.074403 0.000000
v 0.411805 0.074403 0.337500
v 0.405649 0.069351 0.000000
v 0.405649 0.069351 0.337500
v 0.400597 0.063195 0.000000
v 0.400597 0.063195 0.337500
v 0.396842 0.056172 0.000000
v 0.396842 0.056172 0.337500
v 0.394531 0.048551 0.000000
v 0.394531 0.048551 0.337500
v 0.393750 0.040625 0.000000
v 0.393750 0.040625 0.337500
v 0.394531 0.032699 0.000000
v 0.394531 0.032699 0.337500
v 0.396842 0.025078 0.000000
v 0.396842 0.025078 0.337500
v 0.400597 0.018055 0.000000
v 0.400597 0.018055 0.337500
v 0.405649 0.011899 0.000000
v 0.405649 0.011899 0.337500
v 0.411805 0.006847 0.000000
v 0.411805 0.006847 0.337500
v 0.418828 0.003092 0.000000
v 0.418828 0.003092 0.337500
v 0.426449 0.000781 0.000000
v 0.426449 0.000781 0.337500
v 0.434375 0.000000 0.000000
v 0.434375 0.000000 0.337500
v 0.442301 0.000781 0.000000
v 0.442301 0.000781 0.337500
v 0.449922 0.003092 0.000000
v 0.449922 0.003092 0.337500
v 0.456945 0.006847 0.000000
v 0.456945 0.006847 0.337500
v 0.463101 0.011899 0.000000
v 0.463101 0.011899 0.337500
v 0.468153 0.018055 0.000000
v 0.468153 0.018055 0.337500
v 0.471908 0.025078 0.000000
v 0.471908 0.025078 0.337500
v 0.474219 0.032699 0.000000
v 0.474219 0.032699 0.337500
v 0.475000 0.040625 0.000000
v 0.475000 0.040625 0.337500
v 0.474219 0.048551 0.000000
v 0.474219 0.048551 0.337500
v 0.471908 0.056172 0.000000
v 0.471908 0.056172 0.337500
v 0.468153 0.063195 0.000000
v 0.468153 0.063195 0.337500
v 0.463101 0.069351 0.000000
v 0.463101 0.069351 0.337500
v 0.456945 0.074403 0.000000
v 0.456945 0.074403 0.337500
v 0.449922 0.078158 0.000000
v 0.449922 0.078158 0.337500
v 0.442301 0.080469 0.000000
v 0.442301 0.080469 0.337500
v 0.565625 0.081250 0.000000
v 0.557699 0.080469 0.000000
v 0.557699 0.080469 0.337500
v 0.565625 0.081250 0.337500
v 0.550078 0.078158 0.000000
v 0.550078 0.078158 0.337500
v 0.543055 0.074403 0.000000
v 0.543055 0.074403 0.337500
v 0.536899 0.069351 0.000000
v 0.536899 0.069351 0.337500
v 0.531847 0.063195 0.000000
v 0.531847 0.063195 0.337500
v 0.528092 0.056172 0.000000
v 0.528092 0.056172 0.337500
v 0.525781 0.048551 0.000000
v 0.525781 0.048551 0.337500
v 0.525000 0.040625 0.000000
v 0.525000 0.040625 0.337500
v 0.525781 0.032699 0.000000
v 0.525781 0.032699 0.337500
v 0.528092 0.025078 0.000000
v 0.528092 0.025078 0.337500
v 0.531847 0.018055 0.000000
v 0.531847 0.018055 0.337500
v 0.536899 0.011899 0.000000
v 0.536899 0.011899 0.337500
v 0.543055 0.006847 0.000000
v 0.543055 0.006847 0.337500
v 0.550078 0.003092 0.000000
v 0.550078 0.003092 0.337500
v 0.557699 0.000781 0.000000
v 0.557699 0.000781 0.337500
v 0.565625 0.000000 0.000000
v 0.565625 0.000000 0.337500
v 0.573551 0.000781 0.000000
v 0.573551 0.000781 0.337500
v 0.581172 0.003092 0.000000
v 0.581172 0.003092 0.337500
v 0.588195 0.006847 0.000000
v 0.588195 0.006847 0.337500
v 0.594351 0.011899 0.000000
v 0.594351 0.011899 0.337500
v 0.599403 0.018055 0.000000
v 0.599403 0.018055 0.337500
v 0.603158 0.025078 0.000000
v 0.603158 0.025078 0.337500
v 0.605469 0.032699 0.000000
v 0.605469 0.032699 0.337500
v 0.606250 0.040625 0.000000
v 0.606250 0.040625 0.337500
v 0.605469 0.048551 0.000000
v 0.605469 0.048551 0.337500
v 0.603158 0.056172 0.000000
v 0.603158 0.056172 0.337500
v 0.599403 0.063195 0.000000
v 0.599403 0.063195 0.337500
v 0.594351 0.069351 0.000000
v 0.594351 0.069351 0.337500
v 0.588195 0.074403 0.000000
v 0.588195 0.074403 0.337500
v 0.581172 0.078158 0.000000
v 0.581172 0.078158 0.337500
v 0.573551 0.080469 0.000000
v 0.573551 0.080469 0.337500
v 0.375000 0.081250 0.162500
v 0.625000 0.081250 0.162500
v 0.625000 0.081250 0.212500
v 0.375000 0.081250 0.212500
v 0.375000 0.095000 0.212500
v 0.625000 0.095000 0.212500
v 0.625000 0.095000 0.162500
v 0.375000 0.095000 0.162500
v 0.375000 0.000000 0.162500
v 0.390000 0.000000 0.162500
v 0.390000 0.000000 0.212500
v 0.375000 0.000000 0.212500
v 0.390000 0.081250 0.212500
v 0.390000 0.081250 0.162500
v 0.610000 0.000000 0.162500
v 0.625000 0.000000 0.162500
v 0.625000 0.000000 0.212500
v 0.610000 0.000000 0.212500
v 0.610000 0.081250 0.212500
v 0.610000 0.081250 0.162500
v 0.625000 0.015625 0.158750
v 0.647500 0.015625 0.158750
v 0.647500 0.015625 0.216250
v 0.625000 0.015625 0.216250
v 0.625000 0.056250 0.216250
v 0.647500 0.056250 0.216250
v 0.647500 0.056250 0.158750
v 0.625000 0.056250 0.158750
vn -0.0975 0.9904 0.0000
vn -0.2889 0.9523 0.0000
vn -0.4691 0.8777 0.0000
vn -0.6313 0.7693 0.0000
vn -0.7693 0.6313 0.0000
vn -0.8777 0.4691 0.0000
vn -0.9523 0.2889 0.0000
vn -0.9904 0.0975 0.0000
vn -0.9904 -0.0975 0.0000
vn -0.9523 -0.2889 0.0000
vn -0.8777 -0.4691 0.0000
vn -0.7693 -0.6313 0.0000
vn -0.6313 -0.7693 0.0000
vn -0.4691 -0.8777 0.0000
vn -0.2889 -0.9523 0.0000
vn -0.0975 -0.9904 0.0000
vn 0.0975 -0.9904 0.0000
vn 0.2889 -0.9523 0.0000
vn 0.4691 -0.8777 0.0000
vn 0.6313 -0.7693 0.0000
vn 0.7693 -0.6313 0.0000
vn 0.8777 -0.4691 0.0000
vn 0.9523 -0.2889 0.0000
vn 0.9904 -0.0975 0.0000
vn 0.9904 0.0975 0.0000
vn 0.9523 0.2889 -0.0000
vn 0.8777 0.4691 -0.0000
vn 0.7693 0.6313 -0.0000
vn 0.6313 0.7693 -0.0000
vn 0.4691 0.8777 -0.0000
vn 0.2889 0.9523 -0.0000
vn 0.0975 0.9904 0.0000
vn 0.0000 -1.0000 0.0000
vn 0.0000 1.0000 0.0000
vn 0.0000 0.0000 -1.0000
vn 0.0000 0.0000 1.0000
vn -1.0000 0.0000 0.0000
vn 1.0000 0.0000 0.0000
vt 0.000000 0.000000
vt 0.031250 0.000000
vt 0.031250 1.000000
vt 0.000000 1.000000
vt 0.062500 0.000000
vt 0.062500 1.000000
vt 0.093750 0.000000
vt 0.093750 1.000000
vt 0.125000 0.000000
vt 0.125000 1.000000
vt 0.156250 0.000000
vt 0.156250 1.000000
vt 0.187500 0.000000
vt 0.187500 1.000000
vt 0.218750 0.000000
vt 0.218750 1.000000
vt 0.250000 0.000000
vt 0.250000 1.000000
vt 0.281250 0.000000
vt 0.281250 1.000000
vt 0.312500 0.000000
vt 0.312500 1.000000
vt 0.343750 0.000000
vt 0.343750 1.000000
vt 0.375000 0.000000
vt 0.375000 1.000000
vt 0.406250 0.000000
vt 0.406250 1.000000
vt 0.437500 0.000000
vt 0.437500 1.000000
vt 0.468750 0.000000
vt 0.468750 1.000000
vt 0.500000 0.000000
vt 0.500000 1.000000
vt 0.531250 0.000000
vt 0.531250 1.000000
vt 0.562500 0.000000
vt 0.562500 1.000000
vt 0.593750 0.000000
vt 0.593750 1.000000
vt 0.625000 0.000000
vt 0.625000 1.000000
vt 0.656250 0.000000
vt 0.656250 1.000000
vt 0.687500 0.000000
vt 0.687500 1.000000
vt 0.718750 0.000000
vt 0.718750 1.000000
vt 0.750000 0.000000
vt 0.750000 1.000000
vt 0.781250 0.000000
vt 0.781250 1.000000
vt 0.812500 0.000000
vt 0.812500 1.000000
vt 0.843750 0.000000
vt 0.843750 1.000000
vt 0.875000 0.000000
vt 0.875000 1.000000
vt 0.906250 0.000000
vt 0.906250 1.000000
vt 0.937500 0.000000
vt 0.937500 1.000000
vt 0.968750 0.000000
vt 0.968750 1.000000
vt 1.000000 0.000000
vt 1.000000 1.000000
vt 0.000000 0.480000
vt 0.550000 0.480000
vt 0.550000 0.020000
vt 0.000000 0.020000
vt 0.000000 0.980000
vt 0.550000 0.980000
vt 0.550000 0.520000
vt 0.000000 0.520000
o cable
usemtl core
f 1/1/1 2/2/1 3/3/1 4/4/1
f 2/2/2 5/5/2 6/6/2 3/3/2
f 5/5/3 7/7/3 8/8/3 6/6/3
f 7/7/4 9/9/4 10/10/4 8/8/4
f 9/9/5 11/11/5 12/12/5 10/10/5
f 11/11/6 13/13/6 14/14/6 12/12/6
f 13/13/7 15/15/7 16/16/7 14/14/7
f 15/15/8 17/17/8 18/18/8 16/16/8
f 17/17/9 19/19/9 20/20/9 18/18/9
f 19/19/10 21/21/10 22/22/10 20/20/10
f 21/21/11 23/23/11 24/24/11 22/22/11
f 23/23/12 25/25/12 26/26/12 24/24/12
f 25/25/13 27/27/13 28/28/13 26/26/13
f 27/27/14 29/29/14 30/30/14 28/28/14
f 29/29/15 31/31/15 32/32/15 30/30/15
f 31/31/16 33/33/16 34/34/16 32/32/16
f 33/33/17 35/35/17 36/36/17 34/34/17
f 35/35/18 37/37/18 38/38/18 36/36/18
f 37/37/19 39/39/19 40/40/19 38/38/19
f 39/39/20 41/41/20 42/42/20 40/40/20
f 41/41/21 43/43/21 44/44/21 42/42/21
f 43/43/22 45/45/22 46/46/22 44/44/22
f 45/45/23 47/47/23 48/48/23 46/46/23
f 47/47/24 49/49/24 50/50/24 48/48/24
f 49/49/25 51/51/25 52/52/25 50/50/25
f 51/51/26 53/53/26 54/54/26 52/52/26
f 53/53/27 55/55/27 56/56/27 54/54/27
f 55/55/28 57/57/28 58/58/28 56/56/28
f 57/57/29 59/59/29 60/60/29 58/58/29
f 59/59/30 61/61/30 62/62/30 60/60/30
f 61/61/31 63/63/31 64/64/31 62/62/31
f 63/63/32 1/65/32 4/66/32 64/64/32
f 65/1/1 66/2/1 67/3/1 68/4/1
f 66/2/2 69/5/2 70/6/2 67/3/2
f 69/5/3 71/7/3 72/8/3 70/6/3
f 71/7/4 73/9/4 74/10/4 72/8/4
f 73/9/5 75/11/5 76/12/5 74/10/5
f 75/11/6 77/13/6 78/14/6 76/12/6
f 77/13/7 79/15/7 80/16/7 78/14/7
f 79/15/8 81/17/8 82/18/8 80/16/8
f 81/17/9 83/19/9 84/20/9 82/18/9
f 83/19/10 85/21/10 86/22/10 84/20/10
f 85/21/11 87/23/11 88/24/11 86/22/11
f 87/23/12 89/25/12 90/26/12 88/24/12
f 89/25/13 91/27/13 92/28/13 90/26/13
f 91/27/14 93/29/14 94/30/14 92/28/14
f 93/29/15 95/31/15 96/32/15 94/30/15
f 95/31/16 97/33/16 98/34/16 96/32/16
f 97/33/17 99/35/17 100/36/17 98/34/17
f 99/35/18 101/37/18 102/38/18 100/36/18
f 101/37/19 103/39/19 104/40/19 102/38/19
f 103/39/20 105/41/20 106/42/20 104/40/20
f 105/41/21 107/43/21 108/44/21 106/42/21
f 107/43/22 109/45/22 110/46/22 108/44/22
f 109/45/23 111/47/23 112/48/23 110/46/23
f 111/47/24 113/49/24 114/50/24 112/48/24
f 113/49/25 115/51/25 116/52/25 114/50/25
f 115/51/26 117/53/26 118/54/26 116/52/26
f 117/53/27 119/55/27 120/56/27 118/54/27
f 119/55/28 121/57/28 122/58/28 120/56/28
f 121/57/29 123/59/29 124/60/29 122/58/29
f 123/59/30 125/61/30 126/62/30 124/60/30
f 125/61/31 127/63/31 128/64/31 126/62/31
f 127/63/32 65/65/32 68/66/32 128/64/32
o tie
usemtl tie
f 129/67/33 130/68/33 131/69/33 132/70/33
f 133/70/34 134/69/34 135/68/34 136/67/34
f 136/68/35 135/67/35 130/70/35 129/69/35
f 134/68/36 133/67/36 132/70/36 131/69/36
f 133/68/37 136/67/37 129/70/37 132/69/37
f 135/68/38 134/67/38 131/70/38 130/69/38
f 137/71/33 138/72/33 139/73/33 140/74/33
f 132/74/34 141/73/34 142/72/34 129/71/34
f 129/72/35 142/71/35 138/74/35 137/73/35
f 141/72/36 132/71/36 140/74/36 139/73/36
f 132/72/37 129/71/37 137/74/37 140/73/37
f 142/72/38 141/71/38 139/74/38 138/73/38
f 143/71/33 144/72/33 145/73/33 146/74/33
f 147/74/34 131/73/34 130/72/34 148/71/34
f 148/72/35 130/71/35 144/74/35 143/73/35
f 131/72/36 147/71/36 146/74/36 145/73/36
f 147/72/37 148/71/37 143/74/37 146/73/37
f 130/72/38 131/71/38 145/74/38 144/73/38
f 149/71/33 150/72/33 151/73/33 152/74/33
f 153/74/34 154/73/34 155/72/34 156/71/34
f 156/72/35 155/71/35 150/74/35 149/73/35
f 154/72/36 153/71/36 152/74/36 151/73/36
f 153/72/37 156/71/37 149/74/37 152/73/37
f 155/72/38 154/71/38 151/74/38 150/73/38
