# generated by tools/gen_cable_models.py - do not edit by hand
mtllib dc_string_cable_cross.mtl
v 0.337500 0.000000 0.337500
v 0.662500 0.000000 0.337500
v 0.662500 0.000000 0.662500
v 0.337500 0.000000 0.662500
v 0.337500 0.237500 0.662500
v 0.662500 0.237500 0.662500
v 0.662500 0.237500 0.337500
v 0.337500 0.237500 0.337500
v 0.318750 0.237500 0.318750
v 0.681250 0.237500 0.318750
v 0.681250 0.237500 0.681250
v 0.318750 0.237500 0.681250
v 0.318750 0.256250 0.681250
v 0.681250 0.256250 0.681250
v 0.681250 0.256250 0.318750
v 0.318750 0.256250 0.318750
v 0.463125 0.090421 0.316250
v 0.405625 0.090421 0.316250
v 0.405625 0.090421 0.337500
v 0.463125 0.090421 0.337500
v 0.376875 0.040625 0.316250
v 0.376875 0.040625 0.337500
v 0.405625 -0.009171 0.316250
v 0.405625 -0.009171 0.337500
v 0.463125 -0.009171 0.316250
v 0.463125 -0.009171 0.337500
v 0.491875 0.040625 0.316250
v 0.491875 0.040625 0.337500
v 0.434375 0.083625 0.252500
v 0.425986 0.082799 0.252500
v 0.423889 0.093342 0.316250
v 0.434375 0.094375 0.316250
v 0.417920 0.080352 0.252500
v 0.413806 0.090284 0.316250
v 0.410485 0.076378 0.252500
v 0.404513 0.085316 0.316250
v 0.403969 0.071031 0.252500
v 0.396368 0.078632 0.316250
v 0.398622 0.064515 0.252500
v 0.389684 0.070487 0.316250
v 0.394648 0.057080 0.252500
v 0.384716 0.061194 0.316250
v 0.392201 0.049014 0.252500
v 0.381658 0.051111 0.316250
v 0.391375 0.040625 0.252500
v 0.380625 0.040625 0.316250
v 0.392201 0.032236 0.252500
v 0.381658 0.030139 0.316250
v 0.394648 0.024170 0.252500
v 0.384716 0.020056 0.316250
v 0.398622 0.016735 0.252500
v 0.389684 0.010763 0.316250
v 0.403969 0.010219 0.252500
v 0.396368 0.002618 0.316250
v 0.410485 0.004872 0.252500
v 0.404513 -0.004066 0.316250
v 0.417920 0.000898 0.252500
v 0.413806 -0.009034 0.316250
v 0.425986 -0.001549 0.252500
v 0.423889 -0.012092 0.316250
v 0.434375 -0.002375 0.252500
v 0.434375 -0.013125 0.316250
v 0.442764 -0.001549 0.252500
v 0.444861 -0.012092 0.316250
v 0.450830 0.000898 0.252500
v 0.454944 -0.009034 0.316250
v 0.458265 0.004872 0.252500
v 0.464237 -0.004066 0.316250
v 0.464781 0.010219 0.252500
v 0.472382 0.002618 0.316250
v 0.470128 0.016735 0.252500
v 0.479066 0.010763 0.316250
v 0.474102 0.024170 0.252500
v 0.484034 0.020056 0.316250
v 0.476549 0.032236 0.252500
v 0.487092 0.030139 0.316250
v 0.477375 0.040625 0.252500
v 0.488125 0.040625 0.316250
v 0.476549 0.049014 0.252500
v 0.487092 0.051111 0.316250
v 0.474102 0.057080 0.252500
v 0.484034 0.061194 0.316250
v 0.470128 0.064515 0.252500
v 0.479066 0.070487 0.316250
v 0.464781 0.071031 0.252500
v 0.472382 0.078632 0.316250
v 0.458265 0.076378 0.252500
v 0.464237 0.085316 0.316250
v 0.450830 0.080352 0.252500
v 0.454944 0.090284 0.316250
v 0.442764 0.082799 0.252500
v 0.444861 0.093342 0.316250
v 0.594375 0.090421 0.316250
v 0.536875 0.090421 0.316250
v 0.536875 0.090421 0.337500
v 0.594375 0.090421 0.337500
v 0.508125 0.040625 0.316250
v 0.508125 0.040625 0.337500
v 0.536875 -0.009171 0.316250
v 0.536875 -0.009171 0.337500
v 0.594375 -0.009171 0.316250
v 0.594375 -0.009171 0.337500
v 0.623125 0.040625 0.316250
v 0.623125 0.040625 0.337500
v 0.565625 0.083625 0.252500
v 0.557236 0.082799 0.252500
v 0.555139 0.093342 0.316250
v 0.565625 0.094375 0.316250
v 0.549170 0.080352 0.252500
v 0.545056 0.090284 0.316250
v 0.541735 0.076378 0.252500
v 0.535763 0.085316 0.316250
v 0.535219 0.071031 0.252500
v 0.527618 0.078632 0.316250
v 0.529872 0.064515 0.252500
v 0.520934 0.070487 0.316250
v 0.525898 0.057080 0.252500
v 0.515966 0.061194 0.316250
v 0.523451 0.049014 0.252500
v 0.512908 0.051111 0.316250
v 0.522625 0.040625 0.252500
v 0.511875 0.040625 0.316250
v 0.523451 0.032236 0.252500
v 0.512908 0.030139 0.316250
v 0.525898 0.024170 0.252500
v 0.515966 0.020056 0.316250
v 0.529872 0.016735 0.252500
v 0.520934 0.010763 0.316250
v 0.535219 0.010219 0.252500
v 0.527618 0.002618 0.316250
v 0.541735 0.004872 0.252500
v 0.535763 -0.004066 0.316250
v 0.549170 0.000898 0.252500
v 0.545056 -0.009034 0.316250
v 0.557236 -0.001549 0.252500
v 0.555139 -0.012092 0.316250
v 0.565625 -0.002375 0.252500
v 0.565625 -0.013125 0.316250
v 0.574014 -0.001549 0.252500
v 0.576111 -0.012092 0.316250
v 0.582080 0.000898 0.252500
v 0.586194 -0.009034 0.316250
v 0.589515 0.004872 0.252500
v 0.595487 -0.004066 0.316250
v 0.596031 0.010219 0.252500
v 0.603632 0.002618 0.316250
v 0.601378 0.016735 0.252500
v 0.610316 0.010763 0.316250
v 0.605352 0.024170 0.252500
v 0.615284 0.020056 0.316250
v 0.607799 0.032236 0.252500
v 0.618342 0.030139 0.316250
v 0.608625 0.040625 0.252500
v 0.619375 0.040625 0.316250
v 0.607799 0.049014 0.252500
v 0.618342 0.051111 0.316250
v 0.605352 0.057080 0.252500
v 0.615284 0.061194 0.316250
v 0.601378 0.064515 0.252500
v 0.610316 0.070487 0.316250
v 0.596031 0.071031 0.252500
v 0.603632 0.078632 0.316250
v 0.589515 0.076378 0.252500
v 0.595487 0.085316 0.316250
v 0.582080 0.080352 0.252500
v 0.586194 0.090284 0.316250
v 0.574014 0.082799 0.252500
v 0.576111 0.093342 0.316250
v 0.662500 0.069375 0.484171
v 0.662500 0.011875 0.484171
v 0.683750 0.011875 0.484171
v 0.683750 0.069375 0.484171
v 0.662500 -0.016875 0.434375
v 0.683750 -0.016875 0.434375
v 0.662500 0.011875 0.384579
v 0.683750 0.011875 0.384579
v 0.662500 0.069375 0.384579
v 0.683750 0.069375 0.384579
v 0.662500 0.098125 0.434375
v 0.683750 0.098125 0.434375
v 0.683750 0.094375 0.434375
v 0.683750 0.093342 0.444861
v 0.747500 0.082799 0.442764
v 0.747500 0.083625 0.434375
v 0.683750 0.090284 0.454944
v 0.747500 0.080352 0.450830
v 0.683750 0.085316 0.464237
v 0.747500 0.076378 0.458265
v 0.683750 0.078632 0.472382
v 0.747500 0.071031 0.464781
v 0.683750 0.070487 0.479066
v 0.747500 0.064515 0.470128
v 0.683750 0.061194 0.484034
v 0.747500 0.057080 0.474102
v 0.683750 0.051111 0.487092
v 0.747500 0.049014 0.476549
v 0.683750 0.040625 0.488125
v 0.747500 0.040625 0.477375
v 0.683750 0.030139 0.487092
v 0.747500 0.032236 0.476549
v 0.683750 0.020056 0.484034
v 0.747500 0.024170 0.474102
v 0.683750 0.010763 0.479066
v 0.747500 0.016735 0.470128
v 0.683750 0.002618 0.472382
v 0.747500 0.010219 0.464781
v 0.683750 -0.004066 0.464237
v 0.747500 0.004872 0.458265
v 0.683750 -0.009034 0.454944
v 0.747500 0.000898 0.450830
v 0.683750 -0.012092 0.444861
v 0.747500 -0.001549 0.442764
v 0.683750 -0.013125 0.434375
v 0.747500 -0.002375 0.434375
v 0.683750 -0.012092 0.423889
v 0.747500 -0.001549 0.425986
v 0.683750 -0.009034 0.413806
v 0.747500 0.000898 0.417920
v 0.683750 -0.004066 0.404513
v 0.747500 0.004872 0.410485
v 0.683750 0.002618 0.396368
v 0.747500 0.010219 0.403969
v 0.683750 0.010763 0.389684
v 0.747500 0.016735 0.398622
v 0.683750 0.020056 0.384716
v 0.747500 0.024170 0.394648
v 0.683750 0.030139 0.381658
v 0.747500 0.032236 0.392201
v 0.683750 0.040625 0.380625
v 0.747500 0.040625 0.391375
v 0.683750 0.051111 0.381658
v 0.747500 0.049014 0.392201
v 0.683750 0.061194 0.384716
v 0.747500 0.057080 0.394648
v 0.683750 0.070487 0.389684
v 0.747500 0.064515 0.398622
v 0.683750 0.078632 0.396368
v 0.747500 0.071031 0.403969
v 0.683750 0.085316 0.404513
v 0.747500 0.076378 0.410485
v 0.683750 0.090284 0.413806
v 0.747500 0.080352 0.417920
v 0.683750 0.093342 0.423889
v 0.747500 0.082799 0.425986
v 0.662500 0.069375 0.615421
v 0.662500 0.011875 0.615421
v 0.683750 0.011875 0.615421
v 0.683750 0.069375 0.615421
v 0.662500 -0.016875 0.565625
v 0.683750 -0.016875 0.565625
v 0.662500 0.011875 0.515829
v 0.683750 0.011875 0.515829
v 0.662500 0.069375 0.515829
v 0.683750 0.069375 0.515829
v 0.662500 0.098125 0.565625
v 0.683750 0.098125 0.565625
v 0.683750 0.094375 0.565625
v 0.683750 0.093342 0.576111
v 0.747500 0.082799 0.574014
v 0.747500 0.083625 0.565625
v 0.683750 0.090284 0.586194
v 0.747500 0.080352 0.582080
v 0.683750 0.085316 0.595487
v 0.747500 0.076378 0.589515
v 0.683750 0.078632 0.603632
v 0.747500 0.071031 0.596031
v 0.683750 0.070487 0.610316
v 0.747500 0.064515 0.601378
v 0.683750 0.061194 0.615284
v 0.747500 0.057080 0.605352
v 0.683750 0.051111 0.618342
v 0.747500 0.049014 0.607799
v 0.683750 0.040625 0.619375
v 0.747500 0.040625 0.608625
v 0.683750 0.030139 0.618342
v 0.747500 0.032236 0.607799
v 0.683750 0.020056 0.615284
v 0.747500 0.024170 0.605352
v 0.683750 0.010763 0.610316
v 0.747500 0.016735 0.601378
v 0.683750 0.002618 0.603632
v 0.747500 0.010219 0.596031
v 0.683750 -0.004066 0.595487
v 0.747500 0.004872 0.589515
v 0.683750 -0.009034 0.586194
v 0.747500 0.000898 0.582080
v 0.683750 -0.012092 0.576111
v 0.747500 -0.001549 0.574014
v 0.683750 -0.013125 0.565625
v 0.747500 -0.002375 0.565625
v 0.683750 -0.012092 0.555139
v 0.747500 -0.001549 0.557236
v 0.683750 -0.009034 0.545056
v 0.747500 0.000898 0.549170
v 0.683750 -0.004066 0.535763
v 0.747500 0.004872 0.541735
v 0.683750 0.002618 0.527618
v 0.747500 0.010219 0.535219
v 0.683750 0.010763 0.520934
v 0.747500 0.016735 0.529872
v 0.683750 0.020056 0.515966
v 0.747500 0.024170 0.525898
v 0.683750 0.030139 0.512908
v 0.747500 0.032236 0.523451
v 0.683750 0.040625 0.511875
v 0.747500 0.040625 0.522625
v 0.683750 0.051111 0.512908
v 0.747500 0.049014 0.523451
v 0.683750 0.061194 0.515966
v 0.747500 0.057080 0.525898
v 0.683750 0.070487 0.520934
v 0.747500 0.064515 0.529872
v 0.683750 0.078632 0.527618
v 0.747500 0.071031 0.535219
v 0.683750 0.085316 0.535763
v 0.747500 0.076378 0.541735
v 0.683750 0.090284 0.545056
v 0.747500 0.080352 0.549170
v 0.683750 0.093342 0.555139
v 0.747500 0.082799 0.557236
v 0.463125 0.090421 0.662500
v 0.405625 0.090421 0.662500
v 0.405625 0.090421 0.683750
v 0.463125 0.090421 0.683750
v 0.376875 0.040625 0.662500
v 0.376875 0.040625 0.683750
v 0.405625 -0.009171 0.662500
v 0.405625 -0.009171 0.683750
v 0.463125 -0.009171 0.662500
v 0.463125 -0.009171 0.683750
v 0.491875 0.040625 0.662500
v 0.491875 0.040625 0.683750
v 0.434375 0.094375 0.683750
v 0.423889 0.093342 0.683750
v 0.425986 0.082799 0.747500
v 0.434375 0.083625 0.747500
v 0.413806 0.090284 0.683750
v 0.417920 0.080352 0.747500
v 0.404513 0.085316 0.683750
v 0.410485 0.076378 0.747500
v 0.396368 0.078632 0.683750
v 0.403969 0.071031 0.747500
v 0.389684 0.070487 0.683750
v 0.398622 0.064515 0.747500
v 0.384716 0.061194 0.683750
v 0.394648 0.057080 0.747500
v 0.381658 0.051111 0.683750
v 0.392201 0.049014 0.747500
v 0.380625 0.040625 0.683750
v 0.391375 0.040625 0.747500
v 0.381658 0.030139 0.683750
v 0.392201 0.032236 0.747500
v 0.384716 0.020056 0.683750
v 0.394648 0.024170 0.747500
v 0.389684 0.010763 0.683750
v 0.398622 0.016735 0.747500
v 0.396368 0.002618 0.683750
v 0.403969 0.010219 0.747500
v 0.404513 -0.004066 0.683750
v 0.410485 0.004872 0.747500
v 0.413806 -0.009034 0.683750
v 0.417920 0.000898 0.747500
v 0.423889 -0.012092 0.683750
v 0.425986 -0.001549 0.747500
v 0.434375 -0.013125 0.683750
v 0.434375 -0.002375 0.747500
v 0.444861 -0.012092 0.683750
v 0.442764 -0.001549 0.747500
v 0.454944 -0.009034 0.683750
v 0.450830 0.000898 0.747500
v 0.464237 -0.004066 0.683750
v 0.458265 0.004872 0.747500
v 0.472382 0.002618 0.683750
v 0.464781 0.010219 0.747500
v 0.479066 0.010763 0.683750
v 0.470128 0.016735 0.747500
v 0.484034 0.020056 0.683750
v 0.474102 0.024170 0.747500
v 0.487092 0.030139 0.683750
v 0.476549 0.032236 0.747500
v 0.488125 0.040625 0.683750
v 0.477375 0.040625 0.747500
v 0.487092 0.051111 0.683750
v 0.476549 0.049014 0.747500
v 0.484034 0.061194 0.683750
v 0.474102 0.057080 0.747500
v 0.479066 0.070487 0.683750
v 0.470128 0.064515 0.747500
v 0.472382 0.078632 0.683750
v 0.464781 0.071031 0.747500
v 0.464237 0.085316 0.683750
v 0.458265 0.076378 0.747500
v 0.454944 0.090284 0.683750
v 0.450830 0.080352 0.747500
v 0.444861 0.093342 0.683750
v 0.442764 0.082799 0.747500
v 0.594375 0.090421 0.662500
v 0.536875 0.090421 0.662500
v 0.536875 0.090421 0.683750
v 0.594375 0.090421 0.683750
v 0.508125 0.040625 0.662500
v 0.508125 0.040625 0.683750
v 0.536875 -0.009171 0.662500
v 0.536875 -0.009171 0.683750
v 0.594375 -0.009171 0.662500
v 0.594375 -0.009171 0.683750
v 0.623125 0.040625 0.662500
v 0.623125 0.040625 0.683750
v 0.565625 0.094375 0.683750
v 0.555139 0.093342 0.683750
v 0.557236 0.082799 0.747500
v 0.565625 0.083625 0.747500
v 0.545056 0.090284 0.683750
v 0.549170 0.080352 0.747500
v 0.535763 0.085316 0.683750
v 0.541735 0.076378 0.747500
v 0.527618 0.078632 0.683750
v 0.535219 0.071031 0.747500
v 0.520934 0.070487 0.683750
v 0.529872 0.064515 0.747500
v 0.515966 0.061194 0.683750
v 0.525898 0.057080 0.747500
v 0.512908 0.051111 0.683750
v 0.523451 0.049014 0.747500
v 0.511875 0.040625 0.683750
v 0.522625 0.040625 0.747500
v 0.512908 0.030139 0.683750
v 0.523451 0.032236 0.747500
v 0.515966 0.020056 0.683750
v 0.525898 0.024170 0.747500
v 0.520934 0.010763 0.683750
v 0.529872 0.016735 0.747500
v 0.527618 0.002618 0.683750
v 0.535219 0.010219 0.747500
v 0.535763 -0.004066 0.683750
v 0.541735 0.004872 0.747500
v 0.545056 -0.009034 0.683750
v 0.549170 0.000898 0.747500
v 0.555139 -0.012092 0.683750
v 0.557236 -0.001549 0.747500
v 0.565625 -0.013125 0.683750
v 0.565625 -0.002375 0.747500
v 0.576111 -0.012092 0.683750
v 0.574014 -0.001549 0.747500
v 0.586194 -0.009034 0.683750
v 0.582080 0.000898 0.747500
v 0.595487 -0.004066 0.683750
v 0.589515 0.004872 0.747500
v 0.603632 0.002618 0.683750
v 0.596031 0.010219 0.747500
v 0.610316 0.010763 0.683750
v 0.601378 0.016735 0.747500
v 0.615284 0.020056 0.683750
v 0.605352 0.024170 0.747500
v 0.618342 0.030139 0.683750
v 0.607799 0.032236 0.747500
v 0.619375 0.040625 0.683750
v 0.608625 0.040625 0.747500
v 0.618342 0.051111 0.683750
v 0.607799 0.049014 0.747500
v 0.615284 0.061194 0.683750
v 0.605352 0.057080 0.747500
v 0.610316 0.070487 0.683750
v 0.601378 0.064515 0.747500
v 0.603632 0.078632 0.683750
v 0.596031 0.071031 0.747500
v 0.595487 0.085316 0.683750
v 0.589515 0.076378 0.747500
v 0.586194 0.090284 0.683750
v 0.582080 0.080352 0.747500
v 0.576111 0.093342 0.683750
v 0.574014 0.082799 0.747500
v 0.316250 0.069375 0.484171
v 0.316250 0.011875 0.484171
v 0.337500 0.011875 0.484171
v 0.337500 0.069375 0.484171
v 0.316250 -0.016875 0.434375
v 0.337500 -0.016875 0.434375
v 0.316250 0.011875 0.384579
v 0.337500 0.011875 0.384579
v 0.316250 0.069375 0.384579
v 0.337500 0.069375 0.384579
v 0.316250 0.098125 0.434375
v 0.337500 0.098125 0.434375
v 0.252500 0.083625 0.434375
v 0.252500 0.082799 0.442764
v 0.316250 0.093342 0.444861
v 0.316250 0.094375 0.434375
v 0.252500 0.080352 0.450830
v 0.316250 0.090284 0.454944
v 0.252500 0.076378 0.458265
v 0.316250 0.085316 0.464237
v 0.252500 0.071031 0.464781
v 0.316250 0.078632 0.472382
v 0.252500 0.064515 0.470128
v 0.316250 0.070487 0.479066
v 0.252500 0.057080 0.474102
v 0.316250 0.061194 0.484034
v 0.252500 0.049014 0.476549
v 0.316250 0.051111 0.487092
v 0.252500 0.040625 0.477375
v 0.316250 0.040625 0.488125
v 0.252500 0.032236 0.476549
v 0.316250 0.030139 0.487092
v 0.252500 0.024170 0.474102
v 0.316250 0.020056 0.484034
v 0.252500 0.016735 0.470128
v 0.316250 0.010763 0.479066
v 0.252500 0.010219 0.464781
v 0.316250 0.002618 0.472382
v 0.252500 0.004872 0.458265
v 0.316250 -0.004066 0.464237
v 0.252500 0.000898 0.450830
v 0.316250 -0.009034 0.454944
v 0.252500 -0.001549 0.442764
v 0.316250 -0.012092 0.444861
v 0.252500 -0.002375 0.434375
v 0.316250 -0.013125 0.434375
v 0.252500 -0.001549 0.425986
v 0.316250 -0.012092 0.423889
v 0.252500 0.000898 0.417920
v 0.316250 -0.009034 0.413806
v 0.252500 0.004872 0.410485
v 0.316250 -0.004066 0.404513
v 0.252500 0.010219 0.403969
v 0.316250 0.002618 0.396368
v 0.252500 0.016735 0.398622
v 0.316250 0.010763 0.389684
v 0.252500 0.024170 0.394648
v 0.316250 0.020056 0.384716
v 0.252500 0.032236 0.392201
v 0.316250 0.030139 0.381658
v 0.252500 0.040625 0.391375
v 0.316250 0.040625 0.380625
v 0.252500 0.049014 0.392201
v 0.316250 0.051111 0.381658
v 0.252500 0.057080 0.394648
v 0.316250 0.061194 0.384716
v 0.252500 0.064515 0.398622
v 0.316250 0.070487 0.389684
v 0.252500 0.071031 0.403969
v 0.316250 0.078632 0.396368
v 0.252500 0.076378 0.410485
v 0.316250 0.085316 0.404513
v 0.252500 0.080352 0.417920
v 0.316250 0.090284 0.413806
v 0.252500 0.082799 0.425986
v 0.316250 0.093342 0.423889
v 0.316250 0.069375 0.615421
v 0.316250 0.011875 0.615421
v 0.337500 0.011875 0.615421
v 0.337500 0.069375 0.615421
v 0.316250 -0.016875 0.565625
v 0.337500 -0.016875 0.565625
v 0.316250 0.011875 0.515829
v 0.337500 0.011875 0.515829
v 0.316250 0.069375 0.515829
v 0.337500 0.069375 0.515829
v 0.316250 0.098125 0.565625
v 0.337500 0.098125 0.565625
v 0.252500 0.083625 0.565625
v 0.252500 0.082799 0.574014
v 0.316250 0.093342 0.576111
v 0.316250 0.094375 0.565625
v 0.252500 0.080352 0.582080
v 0.316250 0.090284 0.586194
v 0.252500 0.076378 0.589515
v 0.316250 0.085316 0.595487
v 0.252500 0.071031 0.596031
v 0.316250 0.078632 0.603632
v 0.252500 0.064515 0.601378
v 0.316250 0.070487 0.610316
v 0.252500 0.057080 0.605352
v 0.316250 0.061194 0.615284
v 0.252500 0.049014 0.607799
v 0.316250 0.051111 0.618342
v 0.252500 0.040625 0.608625
v 0.316250 0.040625 0.619375
v 0.252500 0.032236 0.607799
v 0.316250 0.030139 0.618342
v 0.252500 0.024170 0.605352
v 0.316250 0.020056 0.615284
v 0.252500 0.016735 0.601378
v 0.316250 0.010763 0.610316
v 0.252500 0.010219 0.596031
v 0.316250 0.002618 0.603632
v 0.252500 0.004872 0.589515
v 0.316250 -0.004066 0.595487
v 0.252500 0.000898 0.582080
v 0.316250 -0.009034 0.586194
v 0.252500 -0.001549 0.574014
v 0.316250 -0.012092 0.576111
v 0.252500 -0.002375 0.565625
v 0.316250 -0.013125 0.565625
v 0.252500 -0.001549 0.557236
v 0.316250 -0.012092 0.555139
v 0.252500 0.000898 0.549170
v 0.316250 -0.009034 0.545056
v 0.252500 0.004872 0.541735
v 0.316250 -0.004066 0.535763
v 0.252500 0.010219 0.535219
v 0.316250 0.002618 0.527618
v 0.252500 0.016735 0.529872
v 0.316250 0.010763 0.520934
v 0.252500 0.024170 0.525898
v 0.316250 0.020056 0.515966
v 0.252500 0.032236 0.523451
v 0.316250 0.030139 0.512908
v 0.252500 0.040625 0.522625
v 0.316250 0.040625 0.511875
v 0.252500 0.049014 0.523451
v 0.316250 0.051111 0.512908
v 0.252500 0.057080 0.525898
v 0.316250 0.061194 0.515966
v 0.252500 0.064515 0.529872
v 0.316250 0.070487 0.520934
v 0.252500 0.071031 0.535219
v 0.316250 0.078632 0.527618
v 0.252500 0.076378 0.541735
v 0.316250 0.085316 0.535763
v 0.252500 0.080352 0.549170
v 0.316250 0.090284 0.545056
v 0.252500 0.082799 0.557236
v 0.316250 0.093342 0.555139
vn 0.0000 -1.0000 0.0000
vn 0.0000 1.0000 0.0000
vn 0.0000 0.0000 -1.0000
vn 0.0000 0.0000 1.0000
vn -1.0000 0.0000 0.0000
vn 1.0000 0.0000 0.0000
vn -0.8660 0.5000 0.0000
vn -0.8660 -0.5000 0.0000
vn 0.8660 -0.5000 0.0000
vn 0.8660 0.5000 0.0000
vn -0.1089 0.9941 0.0000
vn -0.3007 0.9537 0.0000
vn -0.4810 0.8767 0.0000
vn -0.6428 0.7660 0.0000
vn -0.7799 0.6259 0.0000
vn -0.8870 0.4617 0.0000
vn -0.9601 0.2798 0.0000
vn -0.9962 0.0871 0.0000
vn -0.9941 -0.1089 0.0000
vn -0.9537 -0.3007 0.0000
vn -0.8767 -0.4810 0.0000
vn -0.7660 -0.6428 0.0000
vn -0.6259 -0.7799 0.0000
vn -0.4617 -0.8870 0.0000
vn -0.2798 -0.9601 0.0000
vn -0.0871 -0.9962 0.0000
vn 0.1089 -0.9941 0.0000
vn 0.3007 -0.9537 0.0000
vn 0.4810 -0.8767 0.0000
vn 0.6428 -0.7660 0.0000
vn 0.7799 -0.6259 0.0000
vn 0.8870 -0.4617 0.0000
vn 0.9601 -0.2798 0.0000
vn 0.9962 -0.0871 0.0000
vn 0.9941 0.1089 0.0000
vn 0.9537 0.3007 0.0000
vn 0.8767 0.4810 0.0000
vn 0.7660 0.6428 0.0000
vn 0.6259 0.7799 0.0000
vn 0.4617 0.8870 0.0000
vn 0.2798 0.9601 0.0000
vn 0.0871 0.9962 0.0000
vn 0.0000 -0.8660 0.5000
vn 0.0000 -0.8660 -0.5000
vn 0.0000 0.8660 -0.5000
vn 0.0000 0.8660 0.5000
vn 0.0000 0.9962 0.0871
vn 0.0000 0.9601 0.2798
vn 0.0000 0.8870 0.4617
vn 0.0000 0.7799 0.6259
vn 0.0000 0.6428 0.7660
vn 0.0000 0.4810 0.8767
vn 0.0000 0.3007 0.9537
vn 0.0000 0.1089 0.9941
vn 0.0000 -0.0871 0.9962
vn 0.0000 -0.2798 0.9601
vn 0.0000 -0.4617 0.8870
vn 0.0000 -0.6259 0.7799
vn 0.0000 -0.7660 0.6428
vn 0.0000 -0.8767 0.4810
vn 0.0000 -0.9537 0.3007
vn 0.0000 -0.9941 0.1089
vn 0.0000 -0.9962 -0.0871
vn 0.0000 -0.9601 -0.2798
vn 0.0000 -0.8870 -0.4617
vn 0.0000 -0.7799 -0.6259
vn 0.0000 -0.6428 -0.7660
vn 0.0000 -0.4810 -0.8767
vn 0.0000 -0.3007 -0.9537
vn 0.0000 -0.1089 -0.9941
vn 0.0000 0.0871 -0.9962
vn 0.0000 0.2798 -0.9601
vn 0.0000 0.4617 -0.8870
vn 0.0000 0.6259 -0.7799
vn 0.0000 0.7660 -0.6428
vn 0.0000 0.8767 -0.4810
vn 0.0000 0.9537 -0.3007
vn 0.0000 0.9941 -0.1089
vn -0.0871 0.9962 0.0000
vn -0.2798 0.9601 0.0000
vn -0.4617 0.8870 0.0000
vn -0.6259 0.7799 0.0000
vn -0.7660 0.6428 0.0000
vn -0.8767 0.4810 0.0000
vn -0.9537 0.3007 0.0000
vn -0.9941 0.1089 0.0000
vn -0.9962 -0.0871 0.0000
vn -0.9601 -0.2798 0.0000
vn -0.8870 -0.4617 0.0000
vn -0.7799 -0.6259 0.0000
vn -0.6428 -0.7660 0.0000
vn -0.4810 -0.8767 0.0000
vn -0.3007 -0.9537 0.0000
vn -0.1089 -0.9941 0.0000
vn 0.0871 -0.9962 0.0000
vn 0.2798 -0.9601 0.0000
vn 0.4617 -0.8870 0.0000
vn 0.6259 -0.7799 0.0000
vn 0.7660 -0.6428 0.0000
vn 0.8767 -0.4810 0.0000
vn 0.9537 -0.3007 0.0000
vn 0.9941 -0.1089 0.0000
vn 0.9962 0.0871 0.0000
vn 0.9601 0.2798 0.0000
vn 0.8870 0.4617 0.0000
vn 0.7799 0.6259 0.0000
vn 0.6428 0.7660 0.0000
vn 0.4810 0.8767 0.0000
vn 0.3007 0.9537 0.0000
vn 0.1089 0.9941 0.0000
vn 0.0000 0.9941 0.1089
vn 0.0000 0.9537 0.3007
vn 0.0000 0.8767 0.4810
vn 0.0000 0.7660 0.6428
vn 0.0000 0.6259 0.7799
vn 0.0000 0.4617 0.8870
vn 0.0000 0.2798 0.9601
vn 0.0000 0.0871 0.9962
vn 0.0000 -0.1089 0.9941
vn 0.0000 -0.3007 0.9537
vn 0.0000 -0.4810 0.8767
vn 0.0000 -0.6428 0.7660
vn 0.0000 -0.7799 0.6259
vn 0.0000 -0.8870 0.4617
vn 0.0000 -0.9601 0.2798
vn 0.0000 -0.9962 0.0871
vn 0.0000 -0.9941 -0.1089
vn 0.0000 -0.9537 -0.3007
vn 0.0000 -0.8767 -0.4810
vn 0.0000 -0.7660 -0.6428
vn 0.0000 -0.6259 -0.7799
vn 0.0000 -0.4617 -0.8870
vn 0.0000 -0.2798 -0.9601
vn 0.0000 -0.0871 -0.9962
vn 0.0000 0.1089 -0.9941
vn 0.0000 0.3007 -0.9537
vn 0.0000 0.4810 -0.8767
vn 0.0000 0.6428 -0.7660
vn 0.0000 0.7799 -0.6259
vn 0.0000 0.8870 -0.4617
vn 0.0000 0.9601 -0.2798
vn 0.0000 0.9962 -0.0871
vt 0.000000 1.000000
vt 1.000000 1.000000
vt 1.000000 0.000000
vt 0.000000 0.000000
vt 0.000000 0.055000
vt 1.000000 0.055000
vt 0.166667 0.000000
vt 0.166667 0.250000
vt 0.000000 0.250000
vt 0.333333 0.000000
vt 0.333333 0.250000
vt 0.500000 0.000000
vt 0.500000 0.250000
vt 0.666667 0.000000
vt 0.666667 0.250000
vt 0.833333 0.000000
vt 0.833333 0.250000
vt 1.000000 0.250000
vt 0.750000 0.125000
vt 0.625000 0.070873
vt 0.375000 0.070873
vt 0.250000 0.125000
vt 0.375000 0.179127
vt 0.625000 0.179127
vt 0.031250 0.250000
vt 0.031250 1.000000
vt 0.062500 0.250000
vt 0.062500 1.000000
vt 0.093750 0.250000
vt 0.093750 1.000000
vt 0.125000 0.250000
vt 0.125000 1.000000
vt 0.156250 0.250000
vt 0.156250 1.000000
vt 0.187500 0.250000
vt 0.187500 1.000000
vt 0.218750 0.250000
vt 0.218750 1.000000
vt 0.250000 0.250000
vt 0.250000 1.000000
vt 0.281250 0.250000
vt 0.281250 1.000000
vt 0.312500 0.250000
vt 0.312500 1.000000
vt 0.343750 0.250000
vt 0.343750 1.000000
vt 0.375000 0.250000
vt 0.375000 1.000000
vt 0.406250 0.250000
vt 0.406250 1.000000
vt 0.437500 0.250000
vt 0.437500 1.000000
vt 0.468750 0.250000
vt 0.468750 1.000000
vt 0.500000 1.000000
vt 0.531250 0.250000
vt 0.531250 1.000000
vt 0.562500 0.250000
vt 0.562500 1.000000
vt 0.593750 0.250000
vt 0.593750 1.000000
vt 0.625000 0.250000
vt 0.625000 1.000000
vt 0.656250 0.250000
vt 0.656250 1.000000
vt 0.687500 0.250000
vt 0.687500 1.000000
vt 0.718750 0.250000
vt 0.718750 1.000000
vt 0.750000 0.250000
vt 0.750000 1.000000
vt 0.781250 0.250000
vt 0.781250 1.000000
vt 0.812500 0.250000
vt 0.812500 1.000000
vt 0.843750 0.250000
vt 0.843750 1.000000
vt 0.875000 0.250000
vt 0.875000 1.000000
vt 0.906250 0.250000
vt 0.906250 1.000000
vt 0.937500 0.250000
vt 0.937500 1.000000
vt 0.968750 0.250000
vt 0.968750 1.000000
vt 0.548773 0.808897
vt 0.595671 0.798227
vt 0.638893 0.780901
vt 0.676777 0.757583
vt 0.707867 0.729169
vt 0.730970 0.696753
vt 0.745196 0.661579
vt 0.750000 0.625000
vt 0.745196 0.588421
vt 0.730970 0.553247
vt 0.707867 0.520831
vt 0.676777 0.492417
vt 0.638893 0.469099
vt 0.595671 0.451773
vt 0.548773 0.441103
vt 0.500000 0.437500
vt 0.451227 0.441103
vt 0.404329 0.451773
vt 0.361107 0.469099
vt 0.323223 0.492417
vt 0.292133 0.520831
vt 0.269030 0.553247
vt 0.254804 0.588421
vt 0.250000 0.625000
vt 0.254804 0.661579
vt 0.269030 0.696753
vt 0.292133 0.729169
vt 0.323223 0.757583
vt 0.361107 0.780901
vt 0.404329 0.798227
vt 0.451227 0.808897
vt 0.500000 0.812500
o jbox
usemtl jbox_side
f 1/1/1 2/2/1 3/3/1 4/4/1
f 5/4/2 6/3/2 7/2/2 8/1/2
f 8/2/3 7/1/3 2/4/3 1/3/3
f 6/2/4 5/1/4 4/4/4 3/3/4
f 5/2/5 8/1/5 1/4/5 4/3/5
f 7/2/6 6/1/6 3/4/6 2/3/6
f 9/5/1 10/6/1 11/3/1 12/4/1
f 16/6/3 15/5/3 10/4/3 9/3/3
f 14/6/4 13/5/4 12/4/4 11/3/4
f 13/6/5 16/5/5 9/4/5 12/3/5
f 15/6/6 14/5/6 11/4/6 10/3/6
usemtl jbox
f 13/4/2 14/3/2 15/2/2 16/1/2
o gland_north_plus
usemtl gland
f 17/4/2 18/7/2 19/8/2 20/9/2
f 18/7/7 21/10/7 22/11/7 19/8/7
f 21/10/8 23/12/8 24/13/8 22/11/8
f 23/12/1 25/14/1 26/15/1 24/13/1
f 25/14/9 27/16/9 28/17/9 26/15/9
f 27/16/10 17/3/10 20/18/10 28/17/10
f 27/19/3 25/20/3 23/21/3 21/22/3
f 27/19/3 21/22/3 18/23/3 17/24/3
f 29/9/11 30/25/11 31/26/11 32/1/11
f 30/25/12 33/27/12 34/28/12 31/26/12
f 33/27/13 35/29/13 36/30/13 34/28/13
f 35/29/14 37/31/14 38/32/14 36/30/14
f 37/31/15 39/33/15 40/34/15 38/32/15
f 39/33/16 41/35/16 42/36/16 40/34/16
f 41/35/17 43/37/17 44/38/17 42/36/17
f 43/37/18 45/39/18 46/40/18 44/38/18
f 45/39/19 47/41/19 48/42/19 46/40/19
f 47/41/20 49/43/20 50/44/20 48/42/20
f 49/43/21 51/45/21 52/46/21 50/44/21
f 51/45/22 53/47/22 54/48/22 52/46/22
f 53/47/23 55/49/23 56/50/23 54/48/23
f 55/49/24 57/51/24 58/52/24 56/50/24
f 57/51/25 59/53/25 60/54/25 58/52/25
f 59/53/26 61/13/26 62/55/26 60/54/26
f 61/13/27 63/56/27 64/57/27 62/55/27
f 63/56/28 65/58/28 66/59/28 64/57/28
f 65/58/29 67/60/29 68/61/29 66/59/29
f 67/60/30 69/62/30 70/63/30 68/61/30
f 69/62/31 71/64/31 72/65/31 70/63/31
f 71/64/32 73/66/32 74/67/32 72/65/32
f 73/66/33 75/68/33 76/69/33 74/67/33
f 75/68/34 77/70/34 78/71/34 76/69/34
f 77/70/35 79/72/35 80/73/35 78/71/35
f 79/72/36 81/74/36 82/75/36 80/73/36
f 81/74/37 83/76/37 84/77/37 82/75/37
f 83/76/38 85/78/38 86/79/38 84/77/38
f 85/78/39 87/80/39 88/81/39 86/79/39
f 87/80/40 89/82/40 90/83/40 88/81/40
f 89/82/41 91/84/41 92/85/41 90/83/41
f 91/84/42 29/18/42 32/2/42 92/85/42
f 91/86/3 89/87/3 87/88/3 85/89/3
f 91/86/3 85/89/3 83/90/3 81/91/3
f 91/86/3 81/91/3 79/92/3 77/93/3
f 91/86/3 77/93/3 75/94/3 73/95/3
f 91/86/3 73/95/3 71/96/3 69/97/3
f 91/86/3 69/97/3 67/98/3 65/99/3
f 91/86/3 65/99/3 63/100/3 61/101/3
f 91/86/3 61/101/3 59/102/3 57/103/3
f 91/86/3 57/103/3 55/104/3 53/105/3
f 91/86/3 53/105/3 51/106/3 49/107/3
f 91/86/3 49/107/3 47/108/3 45/109/3
f 91/86/3 45/109/3 43/110/3 41/111/3
f 91/86/3 41/111/3 39/112/3 37/113/3
f 91/86/3 37/113/3 35/114/3 33/115/3
f 91/86/3 33/115/3 30/116/3 29/117/3
o gland_north_minus
usemtl gland
f 93/4/2 94/7/2 95/8/2 96/9/2
f 94/7/7 97/10/7 98/11/7 95/8/7
f 97/10/8 99/12/8 100/13/8 98/11/8
f 99/12/1 101/14/1 102/15/1 100/13/1
f 101/14/9 103/16/9 104/17/9 102/15/9
f 103/16/10 93/3/10 96/18/10 104/17/10
f 103/19/3 101/20/3 99/21/3 97/22/3
f 103/19/3 97/22/3 94/23/3 93/24/3
f 105/9/11 106/25/11 107/26/11 108/1/11
f 106/25/12 109/27/12 110/28/12 107/26/12
f 109/27/13 111/29/13 112/30/13 110/28/13
f 111/29/14 113/31/14 114/32/14 112/30/14
f 113/31/15 115/33/15 116/34/15 114/32/15
f 115/33/16 117/35/16 118/36/16 116/34/16
f 117/35/17 119/37/17 120/38/17 118/36/17
f 119/37/18 121/39/18 122/40/18 120/38/18
f 121/39/19 123/41/19 124/42/19 122/40/19
f 123/41/20 125/43/20 126/44/20 124/42/20
f 125/43/21 127/45/21 128/46/21 126/44/21
f 127/45/22 129/47/22 130/48/22 128/46/22
f 129/47/23 131/49/23 132/50/23 130/48/23
f 131/49/24 133/51/24 134/52/24 132/50/24
f 133/51/25 135/53/25 136/54/25 134/52/25
f 135/53/26 137/13/26 138/55/26 136/54/26
f 137/13/27 139/56/27 140/57/27 138/55/27
f 139/56/28 141/58/28 142/59/28 140/57/28
f 141/58/29 143/60/29 144/61/29 142/59/29
f 143/60/30 145/62/30 146/63/30 144/61/30
f 145/62/31 147/64/31 148/65/31 146/63/31
f 147/64/32 149/66/32 150/67/32 148/65/32
f 149/66/33 151/68/33 152/69/33 150/67/33
f 151/68/34 153/70/34 154/71/34 152/69/34
f 153/70/35 155/72/35 156/73/35 154/71/35
f 155/72/36 157/74/36 158/75/36 156/73/36
f 157/74/37 159/76/37 160/77/37 158/75/37
f 159/76/38 161/78/38 162/79/38 160/77/38
f 161/78/39 163/80/39 164/81/39 162/79/39
f 163/80/40 165/82/40 166/83/40 164/81/40
f 165/82/41 167/84/41 168/85/41 166/83/41
f 167/84/42 105/18/42 108/2/42 168/85/42
f 167/86/3 165/87/3 163/88/3 161/89/3
f 167/86/3 161/89/3 159/90/3 157/91/3
f 167/86/3 157/91/3 155/92/3 153/93/3
f 167/86/3 153/93/3 151/94/3 149/95/3
f 167/86/3 149/95/3 147/96/3 145/97/3
f 167/86/3 145/97/3 143/98/3 141/99/3
f 167/86/3 141/99/3 139/100/3 137/101/3
f 167/86/3 137/101/3 135/102/3 133/103/3
f 167/86/3 133/103/3 131/104/3 129/105/3
f 167/86/3 129/105/3 127/106/3 125/107/3
f 167/86/3 125/107/3 123/108/3 121/109/3
f 167/86/3 121/109/3 119/110/3 117/111/3
f 167/86/3 117/111/3 115/112/3 113/113/3
f 167/86/3 113/113/3 111/114/3 109/115/3
f 167/86/3 109/115/3 106/116/3 105/117/3
o gland_east_plus
usemtl gland
f 169/4/4 170/7/4 171/8/4 172/9/4
f 170/7/43 173/10/43 174/11/43 171/8/43
f 173/10/44 175/12/44 176/13/44 174/11/44
f 175/12/3 177/14/3 178/15/3 176/13/3
f 177/14/45 179/16/45 180/17/45 178/15/45
f 179/16/46 169/3/46 172/18/46 180/17/46
f 172/24/6 171/23/6 174/22/6 176/21/6
f 172/24/6 176/21/6 178/20/6 180/19/6
f 181/9/47 182/25/47 183/26/47 184/1/47
f 182/25/48 185/27/48 186/28/48 183/26/48
f 185/27/49 187/29/49 188/30/49 186/28/49
f 187/29/50 189/31/50 190/32/50 188/30/50
f 189/31/51 191/33/51 192/34/51 190/32/51
f 191/33/52 193/35/52 194/36/52 192/34/52
f 193/35/53 195/37/53 196/38/53 194/36/53
f 195/37/54 197/39/54 198/40/54 196/38/54
f 197/39/55 199/41/55 200/42/55 198/40/55
f 199/41/56 201/43/56 202/44/56 200/42/56
f 201/43/57 203/45/57 204/46/57 202/44/57
f 203/45/58 205/47/58 206/48/58 204/46/58
f 205/47/59 207/49/59 208/50/59 206/48/59
f 207/49/60 209/51/60 210/52/60 208/50/60
f 209/51/61 211/53/61 212/54/61 210/52/61
f 211/53/62 213/13/62 214/55/62 212/54/62
f 213/13/63 215/56/63 216/57/63 214/55/63
f 215/56/64 217/58/64 218/59/64 216/57/64
f 217/58/65 219/60/65 220/61/65 218/59/65
f 219/60/66 221/62/66 222/63/66 220/61/66
f 221/62/67 223/64/67 224/65/67 222/63/67
f 223/64/68 225/66/68 226/67/68 224/65/68
f 225/66/69 227/68/69 228/69/69 226/67/69
f 227/68/70 229/70/70 230/71/70 228/69/70
f 229/70/71 231/72/71 232/73/71 230/71/71
f 231/72/72 233/74/72 234/75/72 232/73/72
f 233/74/73 235/76/73 236/77/73 234/75/73
f 235/76/74 237/78/74 238/79/74 236/77/74
f 237/78/75 239/80/75 240/81/75 238/79/75
f 239/80/76 241/82/76 242/83/76 240/81/76
f 241/82/77 243/84/77 244/85/77 242/83/77
f 243/84/78 181/18/78 184/2/78 244/85/78
f 184/93/6 183/92/6 186/91/6 188/90/6
f 184/93/6 188/90/6 190/89/6 192/88/6
f 184/93/6 192/88/6 194/87/6 196/86/6
f 184/93/6 196/86/6 198/117/6 200/116/6
f 184/93/6 200/116/6 202/115/6 204/114/6
f 184/93/6 204/114/6 206/113/6 208/112/6
f 184/93/6 208/112/6 210/111/6 212/110/6
f 184/93/6 212/110/6 214/109/6 216/108/6
f 184/93/6 216/108/6 218/107/6 220/106/6
f 184/93/6 220/106/6 222/105/6 224/104/6
f 184/93/6 224/104/6 226/103/6 228/102/6
f 184/93/6 228/102/6 230/101/6 232/100/6
f 184/93/6 232/100/6 234/99/6 236/98/6
f 184/93/6 236/98/6 238/97/6 240/96/6
f 184/93/6 240/96/6 242/95/6 244/94/6
o gland_east_minus
usemtl gland
f 245/4/4 246/7/4 247/8/4 248/9/4
f 246/7/43 249/10/43 250/11/43 247/8/43
f 249/10/44 251/12/44 252/13/44 250/11/44
f 251/12/3 253/14/3 254/15/3 252/13/3
f 253/14/45 255/16/45 256/17/45 254/15/45
f 255/16/46 245/3/46 248/18/46 256/17/46
f 248/24/6 247/23/6 250/22/6 252/21/6
f 248/24/6 252/21/6 254/20/6 256/19/6
f 257/9/47 258/25/47 259/26/47 260/1/47
f 258/25/48 261/27/48 262/28/48 259/26/48
f 261/27/49 263/29/49 264/30/49 262/28/49
f 263/29/50 265/31/50 266/32/50 264/30/50
f 265/31/51 267/33/51 268/34/51 266/32/51
f 267/33/52 269/35/52 270/36/52 268/34/52
f 269/35/53 271/37/53 272/38/53 270/36/53
f 271/37/54 273/39/54 274/40/54 272/38/54
f 273/39/55 275/41/55 276/42/55 274/40/55
f 275/41/56 277/43/56 278/44/56 276/42/56
f 277/43/57 279/45/57 280/46/57 278/44/57
f 279/45/58 281/47/58 282/48/58 280/46/58
f 281/47/59 283/49/59 284/50/59 282/48/59
f 283/49/60 285/51/60 286/52/60 284/50/60
f 285/51/61 287/53/61 288/54/61 286/52/61
f 287/53/62 289/13/62 290/55/62 288/54/62
f 289/13/63 291/56/63 292/57/63 290/55/63
f 291/56/64 293/58/64 294/59/64 292/57/64
f 293/58/65 295/60/65 296/61/65 294/59/65
f 295/60/66 297/62/66 298/63/66 296/61/66
f 297/62/67 299/64/67 300/65/67 298/63/67
f 299/64/68 301/66/68 302/67/68 300/65/68
f 301/66/69 303/68/69 304/69/69 302/67/69
f 303/68/70 305/70/70 306/71/70 304/69/70
f 305/70/71 307/72/71 308/73/71 306/71/71
f 307/72/72 309/74/72 310/75/72 308/73/72
f 309/74/73 311/76/73 312/77/73 310/75/73
f 311/76/74 313/78/74 314/79/74 312/77/74
f 313/78/75 315/80/75 316/81/75 314/79/75
f 315/80/76 317/82/76 318/83/76 316/81/76
f 317/82/77 319/84/77 320/85/77 318/83/77
f 319/84/78 257/18/78 260/2/78 320/85/78
f 260/93/6 259/92/6 262/91/6 264/90/6
f 260/93/6 264/90/6 266/89/6 268/88/6
f 260/93/6 268/88/6 270/87/6 272/86/6
f 260/93/6 272/86/6 274/117/6 276/116/6
f 260/93/6 276/116/6 278/115/6 280/114/6
f 260/93/6 280/114/6 282/113/6 284/112/6
f 260/93/6 284/112/6 286/111/6 288/110/6
f 260/93/6 288/110/6 290/109/6 292/108/6
f 260/93/6 292/108/6 294/107/6 296/106/6
f 260/93/6 296/106/6 298/105/6 300/104/6
f 260/93/6 300/104/6 302/103/6 304/102/6
f 260/93/6 304/102/6 306/101/6 308/100/6
f 260/93/6 308/100/6 310/99/6 312/98/6
f 260/93/6 312/98/6 314/97/6 316/96/6
f 260/93/6 316/96/6 318/95/6 320/94/6
o gland_south_plus
usemtl gland
f 321/4/2 322/7/2 323/8/2 324/9/2
f 322/7/7 325/10/7 326/11/7 323/8/7
f 325/10/8 327/12/8 328/13/8 326/11/8
f 327/12/1 329/14/1 330/15/1 328/13/1
f 329/14/9 331/16/9 332/17/9 330/15/9
f 331/16/10 321/3/10 324/18/10 332/17/10
f 324/24/4 323/23/4 326/22/4 328/21/4
f 324/24/4 328/21/4 330/20/4 332/19/4
f 333/9/79 334/25/79 335/26/79 336/1/79
f 334/25/80 337/27/80 338/28/80 335/26/80
f 337/27/81 339/29/81 340/30/81 338/28/81
f 339/29/82 341/31/82 342/32/82 340/30/82
f 341/31/83 343/33/83 344/34/83 342/32/83
f 343/33/84 345/35/84 346/36/84 344/34/84
f 345/35/85 347/37/85 348/38/85 346/36/85
f 347/37/86 349/39/86 350/40/86 348/38/86
f 349/39/87 351/41/87 352/42/87 350/40/87
f 351/41/88 353/43/88 354/44/88 352/42/88
f 353/43/89 355/45/89 356/46/89 354/44/89
f 355/45/90 357/47/90 358/48/90 356/46/90
f 357/47/91 359/49/91 360/50/91 358/48/91
f 359/49/92 361/51/92 362/52/92 360/50/92
f 361/51/93 363/53/93 364/54/93 362/52/93
f 363/53/94 365/13/94 366/55/94 364/54/94
f 365/13/95 367/56/95 368/57/95 366/55/95
f 367/56/96 369/58/96 370/59/96 368/57/96
f 369/58/97 371/60/97 372/61/97 370/59/97
f 371/60/98 373/62/98 374/63/98 372/61/98
f 373/62/99 375/64/99 376/65/99 374/63/99
f 375/64/100 377/66/100 378/67/100 376/65/100
f 377/66/101 379/68/101 380/69/101 378/67/101
f 379/68/102 381/70/102 382/71/102 380/69/102
f 381/70/103 383/72/103 384/73/103 382/71/103
f 383/72/104 385/74/104 386/75/104 384/73/104
f 385/74/105 387/76/105 388/77/105 386/75/105
f 387/76/106 389/78/106 390/79/106 388/77/106
f 389/78/107 391/80/107 392/81/107 390/79/107
f 391/80/108 393/82/108 394/83/108 392/81/108
f 393/82/109 395/84/109 396/85/109 394/83/109
f 395/84/110 333/18/110 336/2/110 396/85/110
f 336/117/4 335/116/4 338/115/4 340/114/4
f 336/117/4 340/114/4 342/113/4 344/112/4
f 336/117/4 344/112/4 346/111/4 348/110/4
f 336/117/4 348/110/4 350/109/4 352/108/4
f 336/117/4 352/108/4 354/107/4 356/106/4
f 336/117/4 356/106/4 358/105/4 360/104/4
f 336/117/4 360/104/4 362/103/4 364/102/4
f 336/117/4 364/102/4 366/101/4 368/100/4
f 336/117/4 368/100/4 370/99/4 372/98/4
f 336/117/4 372/98/4 374/97/4 376/96/4
f 336/117/4 376/96/4 378/95/4 380/94/4
f 336/117/4 380/94/4 382/93/4 384/92/4
f 336/117/4 384/92/4 386/91/4 388/90/4
f 336/117/4 388/90/4 390/89/4 392/88/4
f 336/117/4 392/88/4 394/87/4 396/86/4
o gland_south_minus
usemtl gland
f 397/4/2 398/7/2 399/8/2 400/9/2
f 398/7/7 401/10/7 402/11/7 399/8/7
f 401/10/8 403/12/8 404/13/8 402/11/8
f 403/12/1 405/14/1 406/15/1 404/13/1
f 405/14/9 407/16/9 408/17/9 406/15/9
f 407/16/10 397/3/10 400/18/10 408/17/10
f 400/24/4 399/23/4 402/22/4 404/21/4
f 400/24/4 404/21/4 406/20/4 408/19/4
f 409/9/79 410/25/79 411/26/79 412/1/79
f 410/25/80 413/27/80 414/28/80 411/26/80
f 413/27/81 415/29/81 416/30/81 414/28/81
f 415/29/82 417/31/82 418/32/82 416/30/82
f 417/31/83 419/33/83 420/34/83 418/32/83
f 419/33/84 421/35/84 422/36/84 420/34/84
f 421/35/85 423/37/85 424/38/85 422/36/85
f 423/37/86 425/39/86 426/40/86 424/38/86
f 425/39/87 427/41/87 428/42/87 426/40/87
f 427/41/88 429/43/88 430/44/88 428/42/88
f 429/43/89 431/45/89 432/46/89 430/44/89
f 431/45/90 433/47/90 434/48/90 432/46/90
f 433/47/91 435/49/91 436/50/91 434/48/91
f 435/49/92 437/51/92 438/52/92 436/50/92
f 437/51/93 439/53/93 440/54/93 438/52/93
f 439/53/94 441/13/94 442/55/94 440/54/94
f 441/13/95 443/56/95 444/57/95 442/55/95
f 443/56/96 445/58/96 446/59/96 444/57/96
f 445/58/97 447/60/97 448/61/97 446/59/97
f 447/60/98 449/62/98 450/63/98 448/61/98
f 449/62/99 451/64/99 452/65/99 450/63/99
f 451/64/100 453/66/100 454/67/100 452/65/100
f 453/66/101 455/68/101 456/69/101 454/67/101
f 455/68/102 457/70/102 458/71/102 456/69/102
f 457/70/103 459/72/103 460/73/103 458/71/103
f 459/72/104 461/74/104 462/75/104 460/73/104
f 461/74/105 463/76/105 464/77/105 462/75/105
f 463/76/106 465/78/106 466/79/106 464/77/106
f 465/78/107 467/80/107 468/81/107 466/79/107
f 467/80/108 469/82/108 470/83/108 468/81/108
f 469/82/109 471/84/109 472/85/109 470/83/109
f 471/84/110 409/18/110 412/2/110 472/85/110
f 412/117/4 411/116/4 414/115/4 416/114/4
f 412/117/4 416/114/4 418/113/4 420/112/4
f 412/117/4 420/112/4 422/111/4 424/110/4
f 412/117/4 424/110/4 426/109/4 428/108/4
f 412/117/4 428/108/4 430/107/4 432/106/4
f 412/117/4 432/106/4 434/105/4 436/104/4
f 412/117/4 436/104/4 438/103/4 440/102/4
f 412/117/4 440/102/4 442/101/4 444/100/4
f 412/117/4 444/100/4 446/99/4 448/98/4
f 412/117/4 448/98/4 450/97/4 452/96/4
f 412/117/4 452/96/4 454/95/4 456/94/4
f 412/117/4 456/94/4 458/93/4 460/92/4
f 412/117/4 460/92/4 462/91/4 464/90/4
f 412/117/4 464/90/4 466/89/4 468/88/4
f 412/117/4 468/88/4 470/87/4 472/86/4
o gland_west_plus
usemtl gland
f 473/4/4 474/7/4 475/8/4 476/9/4
f 474/7/43 477/10/43 478/11/43 475/8/43
f 477/10/44 479/12/44 480/13/44 478/11/44
f 479/12/3 481/14/3 482/15/3 480/13/3
f 481/14/45 483/16/45 484/17/45 482/15/45
f 483/16/46 473/3/46 476/18/46 484/17/46
f 483/19/5 481/20/5 479/21/5 477/22/5
f 483/19/5 477/22/5 474/23/5 473/24/5
f 485/9/111 486/25/111 487/26/111 488/1/111
f 486/25/112 489/27/112 490/28/112 487/26/112
f 489/27/113 491/29/113 492/30/113 490/28/113
f 491/29/114 493/31/114 494/32/114 492/30/114
f 493/31/115 495/33/115 496/34/115 494/32/115
f 495/33/116 497/35/116 498/36/116 496/34/116
f 497/35/117 499/37/117 500/38/117 498/36/117
f 499/37/118 501/39/118 502/40/118 500/38/118
f 501/39/119 503/41/119 504/42/119 502/40/119
f 503/41/120 505/43/120 506/44/120 504/42/120
f 505/43/121 507/45/121 508/46/121 506/44/121
f 507/45/122 509/47/122 510/48/122 508/46/122
f 509/47/123 511/49/123 512/50/123 510/48/123
f 511/49/124 513/51/124 514/52/124 512/50/124
f 513/51/125 515/53/125 516/54/125 514/52/125
f 515/53/126 517/13/126 518/55/126 516/54/126
f 517/13/127 519/56/127 520/57/127 518/55/127
f 519/56/128 521/58/128 522/59/128 520/57/128
f 521/58/129 523/60/129 524/61/129 522/59/129
f 523/60/130 525/62/130 526/63/130 524/61/130
f 525/62/131 527/64/131 528/65/131 526/63/131
f 527/64/132 529/66/132 530/67/132 528/65/132
f 529/66/133 531/68/133 532/69/133 530/67/133
f 531/68/134 533/70/134 534/71/134 532/69/134
f 533/70/135 535/72/135 536/73/135 534/71/135
f 535/72/136 537/74/136 538/75/136 536/73/136
f 537/74/137 539/76/137 540/77/137 538/75/137
f 539/76/138 541/78/138 542/79/138 540/77/138
f 541/78/139 543/80/139 544/81/139 542/79/139
f 543/80/140 545/82/140 546/83/140 544/81/140
f 545/82/141 547/84/141 548/85/141 546/83/141
f 547/84/142 485/18/142 488/2/142 548/85/142
f 547/94/5 545/95/5 543/96/5 541/97/5
f 547/94/5 541/97/5 539/98/5 537/99/5
f 547/94/5 537/99/5 535/100/5 533/101/5
f 547/94/5 533/101/5 531/102/5 529/103/5
f 547/94/5 529/103/5 527/104/5 525/105/5
f 547/94/5 525/105/5 523/106/5 521/107/5
f 547/94/5 521/107/5 519/108/5 517/109/5
f 547/94/5 517/109/5 515/110/5 513/111/5
f 547/94/5 513/111/5 511/112/5 509/113/5
f 547/94/5 509/113/5 507/114/5 505/115/5
f 547/94/5 505/115/5 503/116/5 501/117/5
f 547/94/5 501/117/5 499/86/5 497/87/5
f 547/94/5 497/87/5 495/88/5 493/89/5
f 547/94/5 493/89/5 491/90/5 489/91/5
f 547/94/5 489/91/5 486/92/5 485/93/5
o gland_west_minus
usemtl gland
f 549/4/4 550/7/4 551/8/4 552/9/4
f 550/7/43 553/10/43 554/11/43 551/8/43
f 553/10/44 555/12/44 556/13/44 554/11/44
f 555/12/3 557/14/3 558/15/3 556/13/3
f 557/14/45 559/16/45 560/17/45 558/15/45
f 559/16/46 549/3/46 552/18/46 560/17/46
f 559/19/5 557/20/5 555/21/5 553/22/5
f 559/19/5 553/22/5 550/23/5 549/24/5
f 561/9/111 562/25/111 563/26/111 564/1/111
f 562/25/112 565/27/112 566/28/112 563/26/112
f 565/27/113 567/29/113 568/30/113 566/28/113
f 567/29/114 569/31/114 570/32/114 568/30/114
f 569/31/115 571/33/115 572/34/115 570/32/115
f 571/33/116 573/35/116 574/36/116 572/34/116
f 573/35/117 575/37/117 576/38/117 574/36/117
f 575/37/118 577/39/118 578/40/118 576/38/118
f 577/39/119 579/41/119 580/42/119 578/40/119
f 579/41/120 581/43/120 582/44/120 580/42/120
f 581/43/121 583/45/121 584/46/121 582/44/121
f 583/45/122 585/47/122 586/48/122 584/46/122
f 585/47/123 587/49/123 588/50/123 586/48/123
f 587/49/124 589/51/124 590/52/124 588/50/124
f 589/51/125 591/53/125 592/54/125 590/52/125
f 591/53/126 593/13/126 594/55/126 592/54/126
f 593/13/127 595/56/127 596/57/127 594/55/127
f 595/56/128 597/58/128 598/59/128 596/57/128
f 597/58/129 599/60/129 600/61/129 598/59/129
f 599/60/130 601/62/130 602/63/130 600/61/130
f 601/62/131 603/64/131 604/65/131 602/63/131
f 603/64/132 605/66/132 606/67/132 604/65/132
f 605/66/133 607/68/133 608/69/133 606/67/133
f 607/68/134 609/70/134 610/71/134 608/69/134
f 609/70/135 611/72/135 612/73/135 610/71/135
f 611/72/136 613/74/136 614/75/136 612/73/136
f 613/74/137 615/76/137 616/77/137 614/75/137
f 615/76/138 617/78/138 618/79/138 616/77/138
f 617/78/139 619/80/139 620/81/139 618/79/139
f 619/80/140 621/82/140 622/83/140 620/81/140
f 621/82/141 623/84/141 624/85/141 622/83/141
f 623/84/142 561/18/142 564/2/142 624/85/142
f 623/94/5 621/95/5 619/96/5 617/97/5
f 623/94/5 617/97/5 615/98/5 613/99/5
f 623/94/5 613/99/5 611/100/5 609/101/5
f 623/94/5 609/101/5 607/102/5 605/103/5
f 623/94/5 605/103/5 603/104/5 601/105/5
f 623/94/5 601/105/5 599/106/5 597/107/5
f 623/94/5 597/107/5 595/108/5 593/109/5
f 623/94/5 593/109/5 591/110/5 589/111/5
f 623/94/5 589/111/5 587/112/5 585/113/5
f 623/94/5 585/113/5 583/114/5 581/115/5
f 623/94/5 581/115/5 579/116/5 577/117/5
f 623/94/5 577/117/5 575/86/5 573/87/5
f 623/94/5 573/87/5 571/88/5 569/89/5
f 623/94/5 569/89/5 567/90/5 565/91/5
f 623/94/5 565/91/5 562/92/5 561/93/5
