# generated by tools/gen_cable_models.py - do not edit by hand
mtllib dc_string_cable_trench_bed.mtl
v 0.000000 0.000000 0.000000
v 1.000000 0.000000 0.000000
v 1.000000 0.000000 1.000000
v 0.000000 0.000000 1.000000
v 0.000000 0.737500 1.000000
v 1.000000 0.737500 1.000000
v 1.000000 0.737500 0.000000
v 0.000000 0.737500 0.000000
v 1.000000 0.737500 0.062500
v 0.000000 0.737500 0.062500
v 0.000000 1.000000 0.062500
v 1.000000 1.000000 0.062500
v 1.000000 1.000000 0.000000
v 0.000000 1.000000 0.000000
v 0.000000 0.737500 0.937500
v 1.000000 0.737500 0.937500
v 0.000000 1.000000 1.000000
v 1.000000 1.000000 1.000000
v 1.000000 1.000000 0.937500
v 0.000000 1.000000 0.937500
v 0.062500 0.737500 0.062500
v 0.062500 0.737500 0.937500
v 0.062500 1.000000 0.937500
v 0.062500 1.000000 0.062500
v 0.937500 0.737500 0.062500
v 0.937500 0.737500 0.937500
v 0.937500 1.000000 0.937500
v 0.937500 1.000000 0.062500
vn 0.0000 -1.0000 0.0000
vn 0.0000 1.0000 0.0000
vn 0.0000 0.0000 -1.0000
vn 0.0000 0.0000 1.0000
vn -1.0000 0.0000 0.0000
vn 1.0000 0.0000 0.0000
vt 0.000000 1.000000
vt 1.000000 1.000000
vt 1.000000 0.000000
vt 0.000000 0.000000
vt 0.000000 0.500000
vt 0.500000 0.500000
vt 0.500000 0.000000
o bedding
usemtl trench
f 1/1/1 2/2/1 3/3/1 4/4/1
f 5/4/2 6/3/2 7/2/2 8/1/2
f 8/2/3 7/1/3 2/4/3 1/3/3
f 6/2/4 5/1/4 4/4/4 3/3/4
f 5/2/5 8/1/5 1/4/5 4/3/5
f 7/2/6 6/1/6 3/4/6 2/3/6
f 8/5/1 7/6/1 9/7/1 10/4/1
f 11/4/2 12/7/2 13/6/2 14/5/2
f 14/6/3 13/5/3 7/4/3 8/7/3
f 12/6/4 11/5/4 10/4/4 9/7/4
f 11/6/5 14/5/5 8/4/5 10/7/5
f 13/6/6 12/5/6 9/4/6 7/7/6
f 15/5/1 16/6/1 6/7/1 5/4/1
f 17/4/2 18/7/2 19/6/2 20/5/2
f 20/6/3 19/5/3 16/4/3 15/7/3
f 18/6/4 17/5/4 5/4/4 6/7/4
f 17/6/5 20/5/5 15/4/5 5/7/5
f 19/6/6 18/5/6 6/4/6 16/7/6
f 10/5/1 21/6/1 22/7/1 15/4/1
f 20/4/2 23/7/2 24/6/2 11/5/2
f 11/6/3 24/5/3 21/4/3 10/7/3
f 23/6/4 20/5/4 15/4/4 22/7/4
f 20/6/5 11/5/5 10/4/5 15/7/5
f 24/6/6 23/5/6 22/4/6 21/7/6
f 25/5/1 9/6/1 16/7/1 26/4/1
f 27/4/2 19/7/2 12/6/2 28/5/2
f 28/6/3 12/5/3 9/4/3 25/7/3
f 19/6/4 27/5/4 26/4/4 16/7/4
f 27/6/5 28/5/5 25/4/5 26/7/5
f 12/6/6 19/5/6 16/4/6 9/7/6
