# generated by tools/gen_cable_models.py - do not edit by hand
mtllib dc_string_cable_end.mtl
v 0.434375 0.081250 0.337500
v 0.418828 0.078158 0.337500
v 0.419115 0.077864 0.505698
v 0.434659 0.080932 0.506182
v 0.405649 0.069351 0.337500
v 0.405895 0.069126 0.506059
v 0.396842 0.056172 0.337500
v 0.397010 0.056050 0.507210
v 0.393750 0.040625 0.337500
v 0.393814 0.040625 0.508976
v 0.396842 0.025078 0.337500
v 0.396793 0.025200 0.511089
v 0.405649 0.011899 0.337500
v 0.405493 0.012124 0.513226
v 0.418828 0.003092 0.337500
v 0.418590 0.003386 0.515062
v 0.434375 0.000000 0.337500
v 0.434091 0.000318 0.516318
v 0.449922 0.003092 0.337500
v 0.449635 0.003386 0.516802
v 0.463101 0.011899 0.337500
v 0.462855 0.012124 0.516441
v 0.471908 0.025078 0.337500
v 0.471740 0.025200 0.515290
v 0.475000 0.040625 0.337500
v 0.474936 0.040625 0.513524
v 0.471908 0.056172 0.337500
v 0.471957 0.056050 0.511411
v 0.463101 0.069351 0.337500
v 0.463257 0.069126 0.509274
v 0.449922 0.078158 0.337500
v 0.450160 0.077864 0.507438
v 0.406615 0.105989 0.615073
v 0.422159 0.109057 0.615557
v 0.393395 0.097251 0.615434
v 0.384510 0.084175 0.616585
v 0.381314 0.068750 0.618351
v 0.384293 0.053325 0.620464
v 0.392993 0.040249 0.622601
v 0.406090 0.031511 0.624437
v 0.421591 0.028443 0.625693
v 0.437135 0.031511 0.626177
v 0.450355 0.040249 0.625816
v 0.459240 0.053325 0.624665
v 0.462436 0.068750 0.622899
v 0.459457 0.084175 0.620786
v 0.450757 0.097251 0.618649
v 0.437660 0.105989 0.616813
v 0.406593 0.106391 0.667500
v 0.422161 0.109374 0.667500
v 0.393352 0.097678 0.667500
v 0.384453 0.084561 0.667500
v 0.381251 0.069036 0.667500
v 0.384234 0.053468 0.667500
v 0.392947 0.040227 0.667500
v 0.406064 0.031328 0.667500
v 0.421589 0.028126 0.667500
v 0.437157 0.031109 0.667500
v 0.450398 0.039822 0.667500
v 0.459297 0.052939 0.667500
v 0.462499 0.068464 0.667500
v 0.459516 0.084032 0.667500
v 0.450803 0.097273 0.667500
v 0.437686 0.106172 0.667500
v 0.421875 0.111250 0.648750
v 0.405611 0.108015 0.648750
v 0.402261 0.116103 0.683125
v 0.421875 0.120005 0.683125
v 0.391823 0.098802 0.648750
v 0.385632 0.104993 0.683125
v 0.382610 0.085014 0.648750
v 0.374522 0.088364 0.683125
v 0.379375 0.068750 0.648750
v 0.370620 0.068750 0.683125
v 0.382610 0.052486 0.648750
v 0.374522 0.049136 0.683125
v 0.391823 0.038698 0.648750
v 0.385632 0.032507 0.683125
v 0.405611 0.029485 0.648750
v 0.402261 0.021397 0.683125
v 0.421875 0.026250 0.648750
v 0.421875 0.017495 0.683125
v 0.438139 0.029485 0.648750
v 0.441489 0.021397 0.683125
v 0.451927 0.038698 0.648750
v 0.458118 0.032507 0.683125
v 0.461140 0.052486 0.648750
v 0.469228 0.049136 0.683125
v 0.464375 0.068750 0.648750
v 0.473130 0.068750 0.683125
v 0.461140 0.085014 0.648750
v 0.469228 0.088364 0.683125
v 0.451927 0.098802 0.648750
v 0.458118 0.104993 0.683125
v 0.438139 0.108015 0.648750
v 0.441489 0.116103 0.683125
v 0.421875 0.128125 0.683125
v 0.399153 0.123605 0.683125
v 0.399153 0.123605 0.733125
v 0.421875 0.128125 0.733125
v 0.379891 0.110734 0.683125
v 0.379891 0.110734 0.733125
v 0.367020 0.091472 0.683125
v 0.367020 0.091472 0.733125
v 0.362500 0.068750 0.683125
v 0.362500 0.068750 0.733125
v 0.367020 0.046028 0.683125
v 0.367020 0.046028 0.733125
v 0.379891 0.026766 0.683125
v 0.379891 0.026766 0.733125
v 0.399153 0.013895 0.683125
v 0.399153 0.013895 0.733125
v 0.421875 0.009375 0.683125
v 0.421875 0.009375 0.733125
v 0.444597 0.013895 0.683125
v 0.444597 0.013895 0.733125
v 0.463859 0.026766 0.683125
v 0.463859 0.026766 0.733125
v 0.476730 0.046028 0.683125
v 0.476730 0.046028 0.733125
v 0.481250 0.068750 0.683125
v 0.481250 0.068750 0.733125
v 0.476730 0.091472 0.683125
v 0.476730 0.091472 0.733125
v 0.463859 0.110734 0.683125
v 0.463859 0.110734 0.733125
v 0.444597 0.123605 0.683125
v 0.444597 0.123605 0.733125
v 0.421875 0.118750 0.733125
v 0.402741 0.114944 0.733125
v 0.402741 0.114944 0.817500
v 0.421875 0.118750 0.817500
v 0.386520 0.104105 0.733125
v 0.386520 0.104105 0.817500
v 0.375681 0.087884 0.733125
v 0.375681 0.087884 0.817500
v 0.371875 0.068750 0.733125
v 0.371875 0.068750 0.817500
v 0.375681 0.049616 0.733125
v 0.375681 0.049616 0.817500
v 0.386520 0.033395 0.733125
v 0.386520 0.033395 0.817500
v 0.402741 0.022556 0.733125
v 0.402741 0.022556 0.817500
v 0.421875 0.018750 0.733125
v 0.421875 0.018750 0.817500
v 0.441009 0.022556 0.733125
v 0.441009 0.022556 0.817500
v 0.457230 0.033395 0.733125
v 0.457230 0.033395 0.817500
v 0.468069 0.049616 0.733125
v 0.468069 0.049616 0.817500
v 0.471875 0.068750 0.733125
v 0.471875 0.068750 0.817500
v 0.468069 0.087884 0.733125
v 0.468069 0.087884 0.817500
v 0.457230 0.104105 0.733125
v 0.457230 0.104105 0.817500
v 0.441009 0.114944 0.733125
v 0.441009 0.114944 0.817500
v 0.421875 0.137500 0.817500
v 0.395566 0.132267 0.817500
v 0.395566 0.132267 0.889375
v 0.421875 0.137500 0.889375
v 0.373261 0.117364 0.817500
v 0.373261 0.117364 0.889375
v 0.358358 0.095059 0.817500
v 0.358358 0.095059 0.889375
v 0.353125 0.068750 0.817500
v 0.353125 0.068750 0.889375
v 0.358358 0.042441 0.817500
v 0.358358 0.042441 0.889375
v 0.373261 0.020136 0.817500
v 0.373261 0.020136 0.889375
v 0.395566 0.005233 0.817500
v 0.395566 0.005233 0.889375
v 0.421875 0.000000 0.817500
v 0.421875 0.000000 0.889375
v 0.448184 0.005233 0.817500
v 0.448184 0.005233 0.889375
v 0.470489 0.020136 0.817500
v 0.470489 0.020136 0.889375
v 0.485392 0.042441 0.817500
v 0.485392 0.042441 0.889375
v 0.490625 0.068750 0.817500
v 0.490625 0.068750 0.889375
v 0.485392 0.095059 0.817500
v 0.485392 0.095059 0.889375
v 0.470489 0.117364 0.817500
v 0.470489 0.117364 0.889375
v 0.448184 0.132267 0.817500
v 0.448184 0.132267 0.889375
v 0.399144 0.123628 0.923750
v 0.421875 0.128150 0.923750
v 0.379873 0.110752 0.923750
v 0.366997 0.091481 0.923750
v 0.362475 0.068750 0.923750
v 0.366997 0.046019 0.923750
v 0.379873 0.026748 0.923750
v 0.399144 0.013872 0.923750
v 0.421875 0.009350 0.923750
v 0.444606 0.013872 0.923750
v 0.463877 0.026748 0.923750
v 0.476753 0.046019 0.923750
v 0.481275 0.068750 0.923750
v 0.476753 0.091481 0.923750
v 0.463877 0.110752 0.923750
v 0.444606 0.123628 0.923750
v 0.421875 0.082500 0.923750
v 0.416613 0.081453 0.923750
v 0.416613 0.081453 0.937500
v 0.421875 0.082500 0.937500
v 0.412152 0.078473 0.923750
v 0.412152 0.078473 0.937500
v 0.409172 0.074012 0.923750
v 0.409172 0.074012 0.937500
v 0.408125 0.068750 0.923750
v 0.408125 0.068750 0.937500
v 0.409172 0.063488 0.923750
v 0.409172 0.063488 0.937500
v 0.412152 0.059027 0.923750
v 0.412152 0.059027 0.937500
v 0.416613 0.056047 0.923750
v 0.416613 0.056047 0.937500
v 0.421875 0.055000 0.923750
v 0.421875 0.055000 0.937500
v 0.427137 0.056047 0.923750
v 0.427137 0.056047 0.937500
v 0.431598 0.059027 0.923750
v 0.431598 0.059027 0.937500
v 0.434578 0.063488 0.923750
v 0.434578 0.063488 0.937500
v 0.435625 0.068750 0.923750
v 0.435625 0.068750 0.937500
v 0.434578 0.074012 0.923750
v 0.434578 0.074012 0.937500
v 0.431598 0.078473 0.923750
v 0.431598 0.078473 0.937500
v 0.427137 0.081453 0.923750
v 0.427137 0.081453 0.937500
v 0.565625 0.081250 0.337500
v 0.550078 0.078158 0.337500
v 0.549840 0.077864 0.382438
v 0.565341 0.080932 0.381182
v 0.536899 0.069351 0.337500
v 0.536743 0.069126 0.384274
v 0.528092 0.056172 0.337500
v 0.528043 0.056050 0.386411
v 0.525000 0.040625 0.337500
v 0.525064 0.040625 0.388524
v 0.528092 0.025078 0.337500
v 0.528260 0.025200 0.390290
v 0.536899 0.011899 0.337500
v 0.537145 0.012124 0.391441
v 0.550078 0.003092 0.337500
v 0.550365 0.003386 0.391802
v 0.565625 0.000000 0.337500
v 0.565909 0.000318 0.391318
v 0.581172 0.003092 0.337500
v 0.581410 0.003386 0.390062
v 0.594351 0.011899 0.337500
v 0.594507 0.012124 0.388226
v 0.603158 0.025078 0.337500
v 0.603207 0.025200 0.386089
v 0.606250 0.040625 0.337500
v 0.606186 0.040625 0.383976
v 0.603158 0.056172 0.337500
v 0.602990 0.056050 0.382210
v 0.594351 0.069351 0.337500
v 0.594105 0.069126 0.381059
v 0.581172 0.078158 0.337500
v 0.580885 0.077864 0.380698
v 0.562340 0.105989 0.491813
v 0.577841 0.109057 0.490557
v 0.549243 0.097251 0.493649
v 0.540543 0.084175 0.495786
v 0.537564 0.068750 0.497899
v 0.540760 0.053325 0.499665
v 0.549645 0.040249 0.500816
v 0.562865 0.031511 0.501177
v 0.578409 0.028443 0.500693
v 0.593910 0.031511 0.499437
v 0.607007 0.040249 0.497601
v 0.615707 0.053325 0.495464
v 0.618686 0.068750 0.493351
v 0.615490 0.084175 0.491585
v 0.606605 0.097251 0.490434
v 0.593385 0.105989 0.490073
v 0.562314 0.106172 0.542500
v 0.577839 0.109374 0.542500
v 0.549197 0.097273 0.542500
v 0.540484 0.084032 0.542500
v 0.537501 0.068464 0.542500
v 0.540703 0.052939 0.542500
v 0.549602 0.039822 0.542500
v 0.562843 0.031109 0.542500
v 0.578411 0.028126 0.542500
v 0.593936 0.031328 0.542500
v 0.607053 0.040227 0.542500
v 0.615766 0.053468 0.542500
v 0.618749 0.069036 0.542500
v 0.615547 0.084561 0.542500
v 0.606648 0.097678 0.542500
v 0.593407 0.106391 0.542500
v 0.578125 0.111250 0.523750
v 0.561861 0.108015 0.523750
v 0.558511 0.116103 0.558125
v 0.578125 0.120005 0.558125
v 0.548073 0.098802 0.523750
v 0.541882 0.104993 0.558125
v 0.538860 0.085014 0.523750
v 0.530772 0.088364 0.558125
v 0.535625 0.068750 0.523750
v 0.526870 0.068750 0.558125
v 0.538860 0.052486 0.523750
v 0.530772 0.049136 0.558125
v 0.548073 0.038698 0.523750
v 0.541882 0.032507 0.558125
v 0.561861 0.029485 0.523750
v 0.558511 0.021397 0.558125
v 0.578125 0.026250 0.523750
v 0.578125 0.017495 0.558125
v 0.594389 0.029485 0.523750
v 0.597739 0.021397 0.558125
v 0.608177 0.038698 0.523750
v 0.614368 0.032507 0.558125
v 0.617390 0.052486 0.523750
v 0.625478 0.049136 0.558125
v 0.620625 0.068750 0.523750
v 0.629380 0.068750 0.558125
v 0.617390 0.085014 0.523750
v 0.625478 0.088364 0.558125
v 0.608177 0.098802 0.523750
v 0.614368 0.104993 0.558125
v 0.594389 0.108015 0.523750
v 0.597739 0.116103 0.558125
v 0.578125 0.128125 0.558125
v 0.555403 0.123605 0.558125
v 0.555403 0.123605 0.608125
v 0.578125 0.128125 0.608125
v 0.536141 0.110734 0.558125
v 0.536141 0.110734 0.608125
v 0.523270 0.091472 0.558125
v 0.523270 0.091472 0.608125
v 0.518750 0.068750 0.558125
v 0.518750 0.068750 0.608125
v 0.523270 0.046028 0.558125
v 0.523270 0.046028 0.608125
v 0.536141 0.026766 0.558125
v 0.536141 0.026766 0.608125
v 0.555403 0.013895 0.558125
v 0.555403 0.013895 0.608125
v 0.578125 0.009375 0.558125
v 0.578125 0.009375 0.608125
v 0.600847 0.013895 0.558125
v 0.600847 0.013895 0.608125
v 0.620109 0.026766 0.558125
v 0.620109 0.026766 0.608125
v 0.632980 0.046028 0.558125
v 0.632980 0.046028 0.608125
v 0.637500 0.068750 0.558125
v 0.637500 0.068750 0.608125
v 0.632980 0.091472 0.558125
v 0.632980 0.091472 0.608125
v 0.620109 0.110734 0.558125
v 0.620109 0.110734 0.608125
v 0.600847 0.123605 0.558125
v 0.600847 0.123605 0.608125
v 0.578125 0.118750 0.608125
v 0.558991 0.114944 0.608125
v 0.558991 0.114944 0.692500
v 0.578125 0.118750 0.692500
v 0.542770 0.104105 0.608125
v 0.542770 0.104105 0.692500
v 0.531931 0.087884 0.608125
v 0.531931 0.087884 0.692500
v 0.528125 0.068750 0.608125
v 0.528125 0.068750 0.692500
v 0.531931 0.049616 0.608125
v 0.531931 0.049616 0.692500
v 0.542770 0.033395 0.608125
v 0.542770 0.033395 0.692500
v 0.558991 0.022556 0.608125
v 0.558991 0.022556 0.692500
v 0.578125 0.018750 0.608125
v 0.578125 0.018750 0.692500
v 0.597259 0.022556 0.608125
v 0.597259 0.022556 0.692500
v 0.613480 0.033395 0.608125
v 0.613480 0.033395 0.692500
v 0.624319 0.049616 0.608125
v 0.624319 0.049616 0.692500
v 0.628125 0.068750 0.608125
v 0.628125 0.068750 0.692500
v 0.624319 0.087884 0.608125
v 0.624319 0.087884 0.692500
v 0.613480 0.104105 0.608125
v 0.613480 0.104105 0.692500
v 0.597259 0.114944 0.608125
v 0.597259 0.114944 0.692500
v 0.578125 0.137500 0.692500
v 0.551816 0.132267 0.692500
v 0.551816 0.132267 0.764375
v 0.578125 0.137500 0.764375
v 0.529511 0.117364 0.692500
v 0.529511 0.117364 0.764375
v 0.514608 0.095059 0.692500
v 0.514608 0.095059 0.764375
v 0.509375 0.068750 0.692500
v 0.509375 0.068750 0.764375
v 0.514608 0.042441 0.692500
v 0.514608 0.042441 0.764375
v 0.529511 0.020136 0.692500
v 0.529511 0.020136 0.764375
v 0.551816 0.005233 0.692500
v 0.551816 0.005233 0.764375
v 0.578125 0.000000 0.692500
v 0.578125 0.000000 0.764375
v 0.604434 0.005233 0.692500
v 0.604434 0.005233 0.764375
v 0.626739 0.020136 0.692500
v 0.626739 0.020136 0.764375
v 0.641642 0.042441 0.692500
v 0.641642 0.042441 0.764375
v 0.646875 0.068750 0.692500
v 0.646875 0.068750 0.764375
v 0.641642 0.095059 0.692500
v 0.641642 0.095059 0.764375
v 0.626739 0.117364 0.692500
v 0.626739 0.117364 0.764375
v 0.604434 0.132267 0.692500
v 0.604434 0.132267 0.764375
v 0.555394 0.123628 0.798750
v 0.578125 0.128150 0.798750
v 0.536123 0.110752 0.798750
v 0.523247 0.091481 0.798750
v 0.518725 0.068750 0.798750
v 0.523247 0.046019 0.798750
v 0.536123 0.026748 0.798750
v 0.555394 0.013872 0.798750
v 0.578125 0.009350 0.798750
v 0.600856 0.013872 0.798750
v 0.620127 0.026748 0.798750
v 0.633003 0.046019 0.798750
v 0.637525 0.068750 0.798750
v 0.633003 0.091481 0.798750
v 0.620127 0.110752 0.798750
v 0.600856 0.123628 0.798750
vn -0.1913 0.9619 0.0000
vn -0.5449 0.8155 0.0000
vn -0.8155 0.5449 0.0000
vn -0.9619 0.1913 0.0000
vn -0.9619 -0.1913 0.0000
vn -0.8155 -0.5449 0.0000
vn -0.5449 -0.8155 0.0000
vn -0.1913 -0.9619 0.0000
vn 0.1913 -0.9619 0.0000
vn 0.5449 -0.8155 0.0000
vn 0.8155 -0.5449 0.0000
vn 0.9619 -0.1913 0.0000
vn 0.9619 0.1913 0.0000
vn 0.8155 0.5449 -0.0000
vn 0.5449 0.8155 -0.0000
vn 0.1913 0.9619 0.0000
vn -0.1843 0.9544 -0.1307
vn -0.5383 0.8091 -0.1322
vn -0.8104 0.5406 -0.1136
vn -0.9591 0.1898 -0.0777
vn -0.9618 -0.1898 -0.0300
vn -0.8180 -0.5406 0.0223
vn -0.5497 -0.8091 0.0712
vn -0.1978 -0.9544 0.1093
vn 0.1843 -0.9544 0.1307
vn 0.5383 -0.8091 0.1322
vn 0.8104 -0.5406 0.1136
vn 0.9591 -0.1898 0.0777
vn 0.9618 0.1898 0.0300
vn 0.8180 0.5406 -0.0223
vn 0.5497 0.8091 -0.0712
vn 0.1978 0.9544 -0.1093
vn 0.0000 0.0000 1.0000
vn -0.2133 0.9770 0.0000
vn -0.5709 0.8210 0.0000
vn -0.8416 0.5400 0.0000
vn -0.9842 0.1768 0.0000
vn -0.9770 -0.2133 0.0000
vn -0.8210 -0.5709 0.0000
vn -0.5400 -0.8416 0.0000
vn -0.1768 -0.9842 0.0000
vn 0.2133 -0.9770 0.0000
vn 0.5709 -0.8210 0.0000
vn 0.8416 -0.5400 0.0000
vn 0.9842 -0.1768 0.0000
vn 0.9770 0.2133 0.0000
vn 0.8210 0.5709 0.0000
vn 0.5400 0.8416 0.0000
vn 0.1768 0.9842 0.0000
vn -0.0000 -0.0000 -1.0000
vn -0.1951 0.9808 0.0000
vn -0.5556 0.8315 0.0000
vn -0.8315 0.5556 0.0000
vn -0.9808 0.1951 0.0000
vn -0.9808 -0.1951 0.0000
vn -0.8315 -0.5556 0.0000
vn -0.5556 -0.8315 0.0000
vn -0.1951 -0.9808 0.0000
vn 0.1951 -0.9808 0.0000
vn 0.5556 -0.8315 0.0000
vn 0.8315 -0.5556 0.0000
vn 0.9808 -0.1951 0.0000
vn 0.9808 0.1951 0.0000
vn 0.8315 0.5556 0.0000
vn 0.5556 0.8315 0.0000
vn 0.1951 0.9808 0.0000
vn -0.1808 0.9835 0.0000
vn -0.5434 0.8394 0.0000
vn -0.8233 0.5676 0.0000
vn -0.9779 0.2093 0.0000
vn -0.9835 -0.1808 0.0000
vn -0.8394 -0.5434 0.0000
vn -0.5676 -0.8233 0.0000
vn -0.2093 -0.9779 0.0000
vn 0.1808 -0.9835 0.0000
vn 0.5434 -0.8394 0.0000
vn 0.8233 -0.5676 0.0000
vn 0.9779 -0.2093 0.0000
vn 0.9835 0.1808 0.0000
vn 0.8394 0.5434 0.0000
vn 0.5676 0.8233 0.0000
vn 0.2093 0.9779 0.0000
vn -0.1978 0.9544 -0.1093
vn -0.5497 0.8091 -0.0712
vn -0.8180 0.5406 -0.0223
vn -0.9618 0.1898 0.0300
vn -0.9591 -0.1898 0.0777
vn -0.8104 -0.5406 0.1136
vn -0.5383 -0.8091 0.1322
vn -0.1843 -0.9544 0.1307
vn 0.1978 -0.9544 0.1093
vn 0.5497 -0.8091 0.0712
vn 0.8180 -0.5406 0.0223
vn 0.9618 -0.1898 -0.0300
vn 0.9591 0.1898 -0.0777
vn 0.8104 0.5406 -0.1136
vn 0.5383 0.8091 -0.1322
vn 0.1843 0.9544 -0.1307
vt 0.000000 0.000000
vt 0.062500 0.000000
vt 0.062500 0.519824
vt 0.000000 0.519824
vt 0.125000 0.000000
vt 0.125000 0.519824
vt 0.187500 0.000000
vt 0.187500 0.519824
vt 0.250000 0.000000
vt 0.250000 0.519824
vt 0.312500 0.000000
vt 0.312500 0.519824
vt 0.375000 0.000000
vt 0.375000 0.519824
vt 0.437500 0.000000
vt 0.437500 0.519824
vt 0.500000 0.000000
vt 0.500000 0.519824
vt 0.562500 0.000000
vt 0.562500 0.519824
vt 0.625000 0.000000
vt 0.625000 0.519824
vt 0.687500 0.000000
vt 0.687500 0.519824
vt 0.750000 0.000000
vt 0.750000 0.519824
vt 0.812500 0.000000
vt 0.812500 0.519824
vt 0.875000 0.000000
vt 0.875000 0.519824
vt 0.937500 0.000000
vt 0.937500 0.519824
vt 1.000000 0.000000
vt 1.000000 0.519824
vt 0.062500 0.859760
vt 0.000000 0.859760
vt 0.125000 0.859760
vt 0.187500 0.859760
vt 0.250000 0.859760
vt 0.312500 0.859760
vt 0.375000 0.859760
vt 0.437500 0.859760
vt 0.500000 0.859760
vt 0.562500 0.859760
vt 0.625000 0.859760
vt 0.687500 0.859760
vt 0.750000 0.859760
vt 0.812500 0.859760
vt 0.875000 0.859760
vt 0.937500 0.859760
vt 1.000000 0.859760
vt 0.062500 1.000000
vt 0.000000 1.000000
vt 0.125000 1.000000
vt 0.187500 1.000000
vt 0.250000 1.000000
vt 0.312500 1.000000
vt 0.375000 1.000000
vt 0.437500 1.000000
vt 0.500000 1.000000
vt 0.562500 1.000000
vt 0.625000 1.000000
vt 0.687500 1.000000
vt 0.750000 1.000000
vt 0.812500 1.000000
vt 0.875000 1.000000
vt 0.937500 1.000000
vt 1.000000 1.000000
vt 1.000000 0.500000
vt 0.961940 0.691342
vt 0.853553 0.853553
vt 0.691342 0.961940
vt 0.308658 0.961940
vt 0.146447 0.853553
vt 0.038060 0.691342
vt 0.000000 0.500000
vt 0.038060 0.308658
vt 0.146447 0.146447
vt 0.308658 0.038060
vt 0.691342 0.038060
vt 0.853553 0.146447
vt 0.961940 0.308658
vt 0.062500 0.125000
vt 0.000000 0.125000
vt 0.125000 0.125000
vt 0.187500 0.125000
vt 0.250000 0.125000
vt 0.312500 0.125000
vt 0.375000 0.125000
vt 0.437500 0.125000
vt 0.500000 0.125000
vt 0.562500 0.125000
vt 0.625000 0.125000
vt 0.687500 0.125000
vt 0.750000 0.125000
vt 0.812500 0.125000
vt 0.875000 0.125000
vt 0.937500 0.125000
vt 1.000000 0.125000
vt 0.595671 0.091371
vt 0.676777 0.084597
vt 0.730970 0.074459
vt 0.750000 0.062500
vt 0.730970 0.050541
vt 0.676777 0.040403
vt 0.595671 0.033629
vt 0.500000 0.031250
vt 0.404329 0.033629
vt 0.323223 0.040403
vt 0.269030 0.050541
vt 0.250000 0.062500
vt 0.269030 0.074459
vt 0.323223 0.084597
vt 0.404329 0.091371
vt 0.500000 0.093750
vt 0.062500 0.306800
vt 0.000000 0.306800
vt 0.125000 0.306800
vt 0.187500 0.306800
vt 0.250000 0.306800
vt 0.312500 0.306800
vt 0.375000 0.306800
vt 0.437500 0.306800
vt 0.500000 0.306800
vt 0.562500 0.306800
vt 0.625000 0.306800
vt 0.687500 0.306800
vt 0.750000 0.306800
vt 0.812500 0.306800
vt 0.875000 0.306800
vt 0.937500 0.306800
vt 1.000000 0.306800
vt 0.595671 0.257890
vt 0.676777 0.248038
vt 0.730970 0.233293
vt 0.750000 0.215900
vt 0.730970 0.198507
vt 0.676777 0.183762
vt 0.595671 0.173910
vt 0.500000 0.170450
vt 0.404329 0.173910
vt 0.323223 0.183762
vt 0.269030 0.198507
vt 0.250000 0.215900
vt 0.269030 0.233293
vt 0.323223 0.248038
vt 0.404329 0.257890
vt 0.500000 0.261350
vt 0.062500 0.613600
vt 0.000000 0.613600
vt 0.125000 0.613600
vt 0.187500 0.613600
vt 0.250000 0.613600
vt 0.312500 0.613600
vt 0.375000 0.613600
vt 0.437500 0.613600
vt 0.500000 0.613600
vt 0.562500 0.613600
vt 0.625000 0.613600
vt 0.687500 0.613600
vt 0.750000 0.613600
vt 0.812500 0.613600
vt 0.875000 0.613600
vt 0.937500 0.613600
vt 1.000000 0.613600
vt 0.062500 0.875000
vt 0.000000 0.875000
vt 0.125000 0.875000
vt 0.187500 0.875000
vt 0.250000 0.875000
vt 0.312500 0.875000
vt 0.375000 0.875000
vt 0.437500 0.875000
vt 0.500000 0.875000
vt 0.562500 0.875000
vt 0.625000 0.875000
vt 0.687500 0.875000
vt 0.750000 0.875000
vt 0.812500 0.875000
vt 0.875000 0.875000
vt 0.937500 0.875000
vt 1.000000 0.875000
vt 0.595671 0.804676
vt 0.676777 0.790509
vt 0.730970 0.769308
vt 0.750000 0.744300
vt 0.730970 0.719292
vt 0.676777 0.698091
vt 0.595671 0.683924
vt 0.500000 0.678950
vt 0.404329 0.683924
vt 0.323223 0.698091
vt 0.269030 0.719292
vt 0.250000 0.744300
vt 0.269030 0.769308
vt 0.323223 0.790509
vt 0.404329 0.804676
vt 0.500000 0.809650
vt 0.500000 0.968750
vt 0.404329 0.966371
vt 0.323223 0.959597
vt 0.269030 0.949459
vt 0.250000 0.937500
vt 0.269030 0.925541
vt 0.323223 0.915403
vt 0.404329 0.908629
vt 0.500000 0.906250
vt 0.595671 0.908629
vt 0.676777 0.915403
vt 0.730970 0.925541
vt 0.750000 0.937500
vt 0.730970 0.949459
vt 0.676777 0.959597
vt 0.595671 0.966371
vt 0.062500 0.232977
vt 0.000000 0.232977
vt 0.125000 0.232977
vt 0.187500 0.232977
vt 0.250000 0.232977
vt 0.312500 0.232977
vt 0.375000 0.232977
vt 0.437500 0.232977
vt 0.500000 0.232977
vt 0.562500 0.232977
vt 0.625000 0.232977
vt 0.687500 0.232977
vt 0.750000 0.232977
vt 0.812500 0.232977
vt 0.875000 0.232977
vt 0.937500 0.232977
vt 1.000000 0.232977
vt 0.062500 0.775983
vt 0.000000 0.775983
vt 0.125000 0.775983
vt 0.187500 0.775983
vt 0.250000 0.775983
vt 0.312500 0.775983
vt 0.375000 0.775983
vt 0.437500 0.775983
vt 0.500000 0.775983
vt 0.562500 0.775983
vt 0.625000 0.775983
vt 0.687500 0.775983
vt 0.750000 0.775983
vt 0.812500 0.775983
vt 0.875000 0.775983
vt 0.937500 0.775983
vt 1.000000 0.775983
o cable
usemtl core
f 1/1/1 2/2/1 3/3/1 4/4/1
f 2/2/2 5/5/2 6/6/2 3/3/2
f 5/5/3 7/7/3 8/8/3 6/6/3
f 7/7/4 9/9/4 10/10/4 8/8/4
f 9/9/5 11/11/5 12/12/5 10/10/5
f 11/11/6 13/13/6 14/14/6 12/12/6
f 13/13/7 15/15/7 16/16/7 14/14/7
f 15/15/8 17/17/8 18/18/8 16/16/8
f 17/17/9 19/19/9 20/20/9 18/18/9
f 19/19/10 21/21/10 22/22/10 20/20/10
f 21/21/11 23/23/11 24/24/11 22/22/11
f 23/23/12 25/25/12 26/26/12 24/24/12
f 25/25/13 27/27/13 28/28/13 26/26/13
f 27/27/14 29/29/14 30/30/14 28/28/14
f 29/29/15 31/31/15 32/32/15 30/30/15
f 31/31/16 1/33/16 4/34/16 32/32/16
f 4/4/17 3/3/17 33/35/17 34/36/17
f 3/3/18 6/6/18 35/37/18 33/35/18
f 6/6/19 8/8/19 36/38/19 35/37/19
f 8/8/20 10/10/20 37/39/20 36/38/20
f 10/10/21 12/12/21 38/40/21 37/39/21
f 12/12/22 14/14/22 39/41/22 38/40/22
f 14/14/23 16/16/23 40/42/23 39/41/23
f 16/16/24 18/18/24 41/43/24 40/42/24
f 18/18/25 20/20/25 42/44/25 41/43/25
f 20/20/26 22/22/26 43/45/26 42/44/26
f 22/22/27 24/24/27 44/46/27 43/45/27
f 24/24/28 26/26/28 45/47/28 44/46/28
f 26/26/29 28/28/29 46/48/29 45/47/29
f 28/28/30 30/30/30 47/49/30 46/48/30
f 30/30/31 32/32/31 48/50/31 47/49/31
f 32/32/32 4/34/32 34/51/32 48/50/32
f 34/36/17 33/35/17 49/52/17 50/53/17
f 33/35/18 35/37/18 51/54/18 49/52/18
f 35/37/19 36/38/19 52/55/19 51/54/19
f 36/38/20 37/39/20 53/56/20 52/55/20
f 37/39/21 38/40/21 54/57/21 53/56/21
f 38/40/22 39/41/22 55/58/22 54/57/22
f 39/41/23 40/42/23 56/59/23 55/58/23
f 40/42/24 41/43/24 57/60/24 56/59/24
f 41/43/25 42/44/25 58/61/25 57/60/25
f 42/44/26 43/45/26 59/62/26 58/61/26
f 43/45/27 44/46/27 60/63/27 59/62/27
f 44/46/28 45/47/28 61/64/28 60/63/28
f 45/47/29 46/48/29 62/65/29 61/64/29
f 46/48/30 47/49/30 63/66/30 62/65/30
f 47/49/31 48/50/31 64/67/31 63/66/31
f 48/50/32 34/51/32 50/68/32 64/67/32
f 50/69/33 49/70/33 51/71/33 52/72/33 53/60/33 54/73/33 55/74/33 56/75/33 57/76/33 58/77/33 59/78/33 60/79/33 61/17/33 62/80/33 63/81/33 64/82/33
f 241/1/1 242/2/1 243/215/1 244/216/1
f 242/2/2 245/5/2 246/217/2 243/215/2
f 245/5/3 247/7/3 248/218/3 246/217/3
f 247/7/4 249/9/4 250/219/4 248/218/4
f 249/9/5 251/11/5 252/220/5 250/219/5
f 251/11/6 253/13/6 254/221/6 252/220/6
f 253/13/7 255/15/7 256/222/7 254/221/7
f 255/15/8 257/17/8 258/223/8 256/222/8
f 257/17/9 259/19/9 260/224/9 258/223/9
f 259/19/10 261/21/10 262/225/10 260/224/10
f 261/21/11 263/23/11 264/226/11 262/225/11
f 263/23/12 265/25/12 266/227/12 264/226/12
f 265/25/13 267/27/13 268/228/13 266/227/13
f 267/27/14 269/29/14 270/229/14 268/228/14
f 269/29/15 271/31/15 272/230/15 270/229/15
f 271/31/16 241/33/16 244/231/16 272/230/16
f 244/216/83 243/215/83 273/232/83 274/233/83
f 243/215/84 246/217/84 275/234/84 273/232/84
f 246/217/85 248/218/85 276/235/85 275/234/85
f 248/218/86 250/219/86 277/236/86 276/235/86
f 250/219/87 252/220/87 278/237/87 277/236/87
f 252/220/88 254/221/88 279/238/88 278/237/88
f 254/221/89 256/222/89 280/239/89 279/238/89
f 256/222/90 258/223/90 281/240/90 280/239/90
f 258/223/91 260/224/91 282/241/91 281/240/91
f 260/224/92 262/225/92 283/242/92 282/241/92
f 262/225/93 264/226/93 284/243/93 283/242/93
f 264/226/94 266/227/94 285/244/94 284/243/94
f 266/227/95 268/228/95 286/245/95 285/244/95
f 268/228/96 270/229/96 287/246/96 286/245/96
f 270/229/97 272/230/97 288/247/97 287/246/97
f 272/230/98 244/231/98 274/248/98 288/247/98
f 274/233/83 273/232/83 289/52/83 290/53/83
f 273/232/84 275/234/84 291/54/84 289/52/84
f 275/234/85 276/235/85 292/55/85 291/54/85
f 276/235/86 277/236/86 293/56/86 292/55/86
f 277/236/87 278/237/87 294/57/87 293/56/87
f 278/237/88 279/238/88 295/58/88 294/57/88
f 279/238/89 280/239/89 296/59/89 295/58/89
f 280/239/90 281/240/90 297/60/90 296/59/90
f 281/240/91 282/241/91 298/61/91 297/60/91
f 282/241/92 283/242/92 299/62/92 298/61/92
f 283/242/93 284/243/93 300/63/93 299/62/93
f 284/243/94 285/244/94 301/64/94 300/63/94
f 285/244/95 286/245/95 302/65/95 301/64/95
f 286/245/96 287/246/96 303/66/96 302/65/96
f 287/246/97 288/247/97 304/67/97 303/66/97
f 288/247/98 274/248/98 290/68/98 304/67/98
f 290/69/33 289/70/33 291/71/33 292/72/33 293/60/33 294/73/33 295/74/33 296/75/33 297/76/33 298/77/33 299/78/33 300/79/33 301/17/33 302/80/33 303/81/33 304/82/33
o plug_plus
usemtl plug_plus
f 65/1/34 66/2/34 67/83/34 68/84/34
f 66/2/35 69/5/35 70/85/35 67/83/35
f 69/5/36 71/7/36 72/86/36 70/85/36
f 71/7/37 73/9/37 74/87/37 72/86/37
f 73/9/38 75/11/38 76/88/38 74/87/38
f 75/11/39 77/13/39 78/89/39 76/88/39
f 77/13/40 79/15/40 80/90/40 78/89/40
f 79/15/41 81/17/41 82/91/41 80/90/41
f 81/17/42 83/19/42 84/92/42 82/91/42
f 83/19/43 85/21/43 86/93/43 84/92/43
f 85/21/44 87/23/44 88/94/44 86/93/44
f 87/23/45 89/25/45 90/95/45 88/94/45
f 89/25/46 91/27/46 92/96/46 90/95/46
f 91/27/47 93/29/47 94/97/47 92/96/47
f 93/29/48 95/31/48 96/98/48 94/97/48
f 95/31/49 65/33/49 68/99/49 96/98/49
f 95/100/50 93/101/50 91/102/50 89/103/50
f 95/100/50 89/103/50 87/104/50 85/105/50
f 95/100/50 85/105/50 83/106/50 81/107/50
f 95/100/50 81/107/50 79/108/50 77/109/50
f 95/100/50 77/109/50 75/110/50 73/111/50
f 95/100/50 73/111/50 71/112/50 69/113/50
f 95/100/50 69/113/50 66/114/50 65/115/50
f 97/84/51 98/83/51 99/116/51 100/117/51
f 98/83/52 101/85/52 102/118/52 99/116/52
f 101/85/53 103/86/53 104/119/53 102/118/53
f 103/86/54 105/87/54 106/120/54 104/119/54
f 105/87/55 107/88/55 108/121/55 106/120/55
f 107/88/56 109/89/56 110/122/56 108/121/56
f 109/89/57 111/90/57 112/123/57 110/122/57
f 111/90/58 113/91/58 114/124/58 112/123/58
f 113/91/59 115/92/59 116/125/59 114/124/59
f 115/92/60 117/93/60 118/126/60 116/125/60
f 117/93/61 119/94/61 120/127/61 118/126/61
f 119/94/62 121/95/62 122/128/62 120/127/62
f 121/95/63 123/96/63 124/129/63 122/128/63
f 123/96/64 125/97/64 126/130/64 124/129/64
f 125/97/65 127/98/65 128/131/65 126/130/65
f 127/98/66 97/99/66 100/132/66 128/131/66
f 127/133/50 125/134/50 123/135/50 121/136/50
f 127/133/50 121/136/50 119/137/50 117/138/50
f 127/133/50 117/138/50 115/139/50 113/140/50
f 127/133/50 113/140/50 111/141/50 109/142/50
f 127/133/50 109/142/50 107/143/50 105/144/50
f 127/133/50 105/144/50 103/145/50 101/146/50
f 127/133/50 101/146/50 98/147/50 97/148/50
f 100/148/33 99/147/33 102/146/33 104/145/33
f 100/148/33 104/145/33 106/144/33 108/143/33
f 100/148/33 108/143/33 110/142/33 112/141/33
f 100/148/33 112/141/33 114/140/33 116/139/33
f 100/148/33 116/139/33 118/138/33 120/137/33
f 100/148/33 120/137/33 122/136/33 124/135/33
f 100/148/33 124/135/33 126/134/33 128/133/33
f 129/117/51 130/116/51 131/149/51 132/150/51
f 130/116/52 133/118/52 134/151/52 131/149/52
f 133/118/53 135/119/53 136/152/53 134/151/53
f 135/119/54 137/120/54 138/153/54 136/152/54
f 137/120/55 139/121/55 140/154/55 138/153/55
f 139/121/56 141/122/56 142/155/56 140/154/56
f 141/122/57 143/123/57 144/156/57 142/155/57
f 143/123/58 145/124/58 146/157/58 144/156/58
f 145/124/59 147/125/59 148/158/59 146/157/59
f 147/125/60 149/126/60 150/159/60 148/158/60
f 149/126/61 151/127/61 152/160/61 150/159/61
f 151/127/62 153/128/62 154/161/62 152/160/62
f 153/128/63 155/129/63 156/162/63 154/161/63
f 155/129/64 157/130/64 158/163/64 156/162/64
f 157/130/65 159/131/65 160/164/65 158/163/65
f 159/131/66 129/132/66 132/165/66 160/164/66
f 161/150/51 162/149/51 163/166/51 164/167/51
f 162/149/52 165/151/52 166/168/52 163/166/52
f 165/151/53 167/152/53 168/169/53 166/168/53
f 167/152/54 169/153/54 170/170/54 168/169/54
f 169/153/55 171/154/55 172/171/55 170/170/55
f 171/154/56 173/155/56 174/172/56 172/171/56
f 173/155/57 175/156/57 176/173/57 174/172/57
f 175/156/58 177/157/58 178/174/58 176/173/58
f 177/157/59 179/158/59 180/175/59 178/174/59
f 179/158/60 181/159/60 182/176/60 180/175/60
f 181/159/61 183/160/61 184/177/61 182/176/61
f 183/160/62 185/161/62 186/178/62 184/177/62
f 185/161/63 187/162/63 188/179/63 186/178/63
f 187/162/64 189/163/64 190/180/64 188/179/64
f 189/163/65 191/164/65 192/181/65 190/180/65
f 191/164/66 161/165/66 164/182/66 192/181/66
f 191/183/50 189/184/50 187/185/50 185/186/50
f 191/183/50 185/186/50 183/187/50 181/188/50
f 191/183/50 181/188/50 179/189/50 177/190/50
f 191/183/50 177/190/50 175/191/50 173/192/50
f 191/183/50 173/192/50 171/193/50 169/194/50
f 191/183/50 169/194/50 167/195/50 165/196/50
f 191/183/50 165/196/50 162/197/50 161/198/50
f 164/167/67 163/166/67 193/52/67 194/53/67
f 163/166/68 166/168/68 195/54/68 193/52/68
f 166/168/69 168/169/69 196/55/69 195/54/69
f 168/169/70 170/170/70 197/56/70 196/55/70
f 170/170/71 172/171/71 198/57/71 197/56/71
f 172/171/72 174/172/72 199/58/72 198/57/72
f 174/172/73 176/173/73 200/59/73 199/58/73
f 176/173/74 178/174/74 201/60/74 200/59/74
f 178/174/75 180/175/75 202/61/75 201/60/75
f 180/175/76 182/176/76 203/62/76 202/61/76
f 182/176/77 184/177/77 204/63/77 203/62/77
f 184/177/78 186/178/78 205/64/78 204/63/78
f 186/178/79 188/179/79 206/65/79 205/64/79
f 188/179/80 190/180/80 207/66/80 206/65/80
f 190/180/81 192/181/81 208/67/81 207/66/81
f 192/181/82 164/182/82 194/68/82 208/67/82
f 194/199/33 193/200/33 195/201/33 196/202/33
f 194/199/33 196/202/33 197/203/33 198/204/33
f 194/199/33 198/204/33 199/205/33 200/206/33
f 194/199/33 200/206/33 201/207/33 202/208/33
f 194/199/33 202/208/33 203/209/33 204/210/33
f 194/199/33 204/210/33 205/211/33 206/212/33
f 194/199/33 206/212/33 207/213/33 208/214/33
f 209/167/51 210/166/51 211/52/51 212/53/51
f 210/166/52 213/168/52 214/54/52 211/52/52
f 213/168/53 215/169/53 216/55/53 214/54/53
f 215/169/54 217/170/54 218/56/54 216/55/54
f 217/170/55 219/171/55 220/57/55 218/56/55
f 219/171/56 221/172/56 222/58/56 220/57/56
f 221/172/57 223/173/57 224/59/57 222/58/57
f 223/173/58 225/174/58 226/60/58 224/59/58
f 225/174/59 227/175/59 228/61/59 226/60/59
f 227/175/60 229/176/60 230/62/60 228/61/60
f 229/176/61 231/177/61 232/63/61 230/62/61
f 231/177/62 233/178/62 234/64/62 232/63/62
f 233/178/63 235/179/63 236/65/63 234/64/63
f 235/179/64 237/180/64 238/66/64 236/65/64
f 237/180/65 239/181/65 240/67/65 238/66/65
f 239/181/66 209/182/66 212/68/66 240/67/66
f 212/199/33 211/200/33 214/201/33 216/202/33
f 212/199/33 216/202/33 218/203/33 220/204/33
f 212/199/33 220/204/33 222/205/33 224/206/33
f 212/199/33 224/206/33 226/207/33 228/208/33
f 212/199/33 228/208/33 230/209/33 232/210/33
f 212/199/33 232/210/33 234/211/33 236/212/33
f 212/199/33 236/212/33 238/213/33 240/214/33
o plug_minus
usemtl plug_minus
f 305/1/34 306/2/34 307/83/34 308/84/34
f 306/2/35 309/5/35 310/85/35 307/83/35
f 309/5/36 311/7/36 312/86/36 310/85/36
f 311/7/37 313/9/37 314/87/37 312/86/37
f 313/9/38 315/11/38 316/88/38 314/87/38
f 315/11/39 317/13/39 318/89/39 316/88/39
f 317/13/40 319/15/40 320/90/40 318/89/40
f 319/15/41 321/17/41 322/91/41 320/90/41
f 321/17/42 323/19/42 324/92/42 322/91/42
f 323/19/43 325/21/43 326/93/43 324/92/43
f 325/21/44 327/23/44 328/94/44 326/93/44
f 327/23/45 329/25/45 330/95/45 328/94/45
f 329/25/46 331/27/46 332/96/46 330/95/46
f 331/27/47 333/29/47 334/97/47 332/96/47
f 333/29/48 335/31/48 336/98/48 334/97/48
f 335/31/49 305/33/49 308/99/49 336/98/49
f 335/100/50 333/101/50 331/102/50 329/103/50
f 335/100/50 329/103/50 327/104/50 325/105/50
f 335/100/50 325/105/50 323/106/50 321/107/50
f 335/100/50 321/107/50 319/108/50 317/109/50
f 335/100/50 317/109/50 315/110/50 313/111/50
f 335/100/50 313/111/50 311/112/50 309/113/50
f 335/100/50 309/113/50 306/114/50 305/115/50
f 337/84/51 338/83/51 339/116/51 340/117/51
f 338/83/52 341/85/52 342/118/52 339/116/52
f 341/85/53 343/86/53 344/119/53 342/118/53
f 343/86/54 345/87/54 346/120/54 344/119/54
f 345/87/55 347/88/55 348/121/55 346/120/55
f 347/88/56 349/89/56 350/122/56 348/121/56
f 349/89/57 351/90/57 352/123/57 350/122/57
f 351/90/58 353/91/58 354/124/58 352/123/58
f 353/91/59 355/92/59 356/125/59 354/124/59
f 355/92/60 357/93/60 358/126/60 356/125/60
f 357/93/61 359/94/61 360/127/61 358/126/61
f 359/94/62 361/95/62 362/128/62 360/127/62
f 361/95/63 363/96/63 364/129/63 362/128/63
f 363/96/64 365/97/64 366/130/64 364/129/64
f 365/97/65 367/98/65 368/131/65 366/130/65
f 367/98/66 337/99/66 340/132/66 368/131/66
f 367/133/50 365/134/50 363/135/50 361/136/50
f 367/133/50 361/136/50 359/137/50 357/138/50
f 367/133/50 357/138/50 355/139/50 353/140/50
f 367/133/50 353/140/50 351/141/50 349/142/50
f 367/133/50 349/142/50 347/143/50 345/144/50
f 367/133/50 345/144/50 343/145/50 341/146/50
f 367/133/50 341/146/50 338/147/50 337/148/50
f 340/148/33 339/147/33 342/146/33 344/145/33
f 340/148/33 344/145/33 346/144/33 348/143/33
f 340/148/33 348/143/33 350/142/33 352/141/33
f 340/148/33 352/141/33 354/140/33 356/139/33
f 340/148/33 356/139/33 358/138/33 360/137/33
f 340/148/33 360/137/33 362/136/33 364/135/33
f 340/148/33 364/135/33 366/134/33 368/133/33
f 369/117/51 370/116/51 371/149/51 372/150/51
f 370/116/52 373/118/52 374/151/52 371/149/52
f 373/118/53 375/119/53 376/152/53 374/151/53
f 375/119/54 377/120/54 378/153/54 376/152/54
f 377/120/55 379/121/55 380/154/55 378/153/55
f 379/121/56 381/122/56 382/155/56 380/154/56
f 381/122/57 383/123/57 384/156/57 382/155/57
f 383/123/58 385/124/58 386/157/58 384/156/58
f 385/124/59 387/125/59 388/158/59 386/157/59
f 387/125/60 389/126/60 390/159/60 388/158/60
f 389/126/61 391/127/61 392/160/61 390/159/61
f 391/127/62 393/128/62 394/161/62 392/160/62
f 393/128/63 395/129/63 396/162/63 394/161/63
f 395/129/64 397/130/64 398/163/64 396/162/64
f 397/130/65 399/131/65 400/164/65 398/163/65
f 399/131/66 369/132/66 372/165/66 400/164/66
f 401/150/51 402/149/51 403/166/51 404/167/51
f 402/149/52 405/151/52 406/168/52 403/166/52
f 405/151/53 407/152/53 408/169/53 406/168/53
f 407/152/54 409/153/54 410/170/54 408/169/54
f 409/153/55 411/154/55 412/171/55 410/170/55
f 411/154/56 413/155/56 414/172/56 412/171/56
f 413/155/57 415/156/57 416/173/57 414/172/57
f 415/156/58 417/157/58 418/174/58 416/173/58
f 417/157/59 419/158/59 420/175/59 418/174/59
f 419/158/60 421/159/60 422/176/60 420/175/60
f 421/159/61 423/160/61 424/177/61 422/176/61
f 423/160/62 425/161/62 426/178/62 424/177/62
f 425/161/63 427/162/63 428/179/63 426/178/63
f 427/162/64 429/163/64 430/180/64 428/179/64
f 429/163/65 431/164/65 432/181/65 430/180/65
f 431/164/66 401/165/66 404/182/66 432/181/66
f 431/183/50 429/184/50 427/185/50 425/186/50
f 431/183/50 425/186/50 423/187/50 421/188/50
f 431/183/50 421/188/50 419/189/50 417/190/50
f 431/183/50 417/190/50 415/191/50 413/192/50
f 431/183/50 413/192/50 411/193/50 409/194/50
f 431/183/50 409/194/50 407/195/50 405/196/50
f 431/183/50 405/196/50 402/197/50 401/198/50
f 404/167/67 403/166/67 433/52/67 434/53/67
f 403/166/68 406/168/68 435/54/68 433/52/68
f 406/168/69 408/169/69 436/55/69 435/54/69
f 408/169/70 410/170/70 437/56/70 436/55/70
f 410/170/71 412/171/71 438/57/71 437/56/71
f 412/171/72 414/172/72 439/58/72 438/57/72
f 414/172/73 416/173/73 440/59/73 439/58/73
f 416/173/74 418/174/74 441/60/74 440/59/74
f 418/174/75 420/175/75 442/61/75 441/60/75
f 420/175/76 422/176/76 443/62/76 442/61/76
f 422/176/77 424/177/77 444/63/77 443/62/77
f 424/177/78 426/178/78 445/64/78 444/63/78
f 426/178/79 428/179/79 446/65/79 445/64/79
f 428/179/80 430/180/80 447/66/80 446/65/80
f 430/180/81 432/181/81 448/67/81 447/66/81
f 432/181/82 404/182/82 434/68/82 448/67/82
f 434/199/33 433/200/33 435/201/33 436/202/33
f 434/199/33 436/202/33 437/203/33 438/204/33
f 434/199/33 438/204/33 439/205/33 440/206/33
f 434/199/33 440/206/33 441/207/33 442/208/33
f 434/199/33 442/208/33 443/209/33 444/210/33
f 434/199/33 444/210/33 445/211/33 446/212/33
f 434/199/33 446/212/33 447/213/33 448/214/33
