# generated by tools/gen_cable_models.py - do not edit by hand
mtllib dc_string_cable_trench_end.mtl
v 0.434375 0.818750 0.337500
v 0.426449 0.817969 0.337500
v 0.426740 0.817657 0.505836
v 0.434659 0.818432 0.506182
v 0.418828 0.815658 0.337500
v 0.419115 0.815364 0.505698
v 0.411805 0.811903 0.337500
v 0.412077 0.811639 0.505773
v 0.405649 0.806851 0.337500
v 0.405895 0.806626 0.506059
v 0.400597 0.800695 0.337500
v 0.400807 0.800518 0.506544
v 0.396842 0.793672 0.337500
v 0.397010 0.793550 0.507210
v 0.394531 0.786051 0.337500
v 0.394648 0.785988 0.508031
v 0.393750 0.778125 0.337500
v 0.393814 0.778125 0.508976
v 0.394531 0.770199 0.337500
v 0.394538 0.770262 0.510009
v 0.396842 0.762578 0.337500
v 0.396793 0.762700 0.511089
v 0.400597 0.755555 0.337500
v 0.400492 0.755732 0.512175
v 0.405649 0.749399 0.337500
v 0.405493 0.749624 0.513226
v 0.411805 0.744347 0.337500
v 0.411604 0.744611 0.514200
v 0.418828 0.740592 0.337500
v 0.418590 0.740886 0.515062
v 0.426449 0.738281 0.337500
v 0.426183 0.738593 0.515777
v 0.434375 0.737500 0.337500
v 0.434091 0.737818 0.516318
v 0.442301 0.738281 0.337500
v 0.442010 0.738593 0.516664
v 0.449922 0.740592 0.337500
v 0.449635 0.740886 0.516802
v 0.456945 0.744347 0.337500
v 0.456673 0.744611 0.516727
v 0.463101 0.749399 0.337500
v 0.462855 0.749624 0.516441
v 0.468153 0.755555 0.337500
v 0.467943 0.755732 0.515956
v 0.471908 0.762578 0.337500
v 0.471740 0.762700 0.515290
v 0.474219 0.770199 0.337500
v 0.474102 0.770262 0.514469
v 0.475000 0.778125 0.337500
v 0.474936 0.778125 0.513524
v 0.474219 0.786051 0.337500
v 0.474212 0.785988 0.512491
v 0.471908 0.793672 0.337500
v 0.471957 0.793550 0.511411
v 0.468153 0.800695 0.337500
v 0.468258 0.800518 0.510325
v 0.463101 0.806851 0.337500
v 0.463257 0.806626 0.509274
v 0.456945 0.811903 0.337500
v 0.457146 0.811639 0.508300
v 0.449922 0.815658 0.337500
v 0.450160 0.815364 0.507438
v 0.442301 0.817969 0.337500
v 0.442567 0.817657 0.506723
v 0.414240 0.845782 0.615211
v 0.422159 0.846557 0.615557
v 0.406615 0.843489 0.615073
v 0.399577 0.839764 0.615148
v 0.393395 0.834751 0.615434
v 0.388307 0.828643 0.615919
v 0.384510 0.821675 0.616585
v 0.382148 0.814113 0.617406
v 0.381314 0.806250 0.618351
v 0.382038 0.798387 0.619384
v 0.384293 0.790825 0.620464
v 0.387992 0.783857 0.621550
v 0.392993 0.777749 0.622601
v 0.399104 0.772736 0.623575
v 0.406090 0.769011 0.624437
v 0.413683 0.766718 0.625152
v 0.421591 0.765943 0.625693
v 0.429510 0.766718 0.626039
v 0.437135 0.769011 0.626177
v 0.444173 0.772736 0.626102
v 0.450355 0.777749 0.625816
v 0.455443 0.783857 0.625331
v 0.459240 0.790825 0.624665
v 0.461602 0.798387 0.623844
v 0.462436 0.806250 0.622899
v 0.461712 0.814113 0.621866
v 0.459457 0.821675 0.620786
v 0.455758 0.828643 0.619700
v 0.450757 0.834751 0.618649
v 0.444646 0.839764 0.617675
v 0.437660 0.843489 0.616813
v 0.430067 0.845782 0.616098
v 0.414230 0.846149 0.667500
v 0.422161 0.846874 0.667500
v 0.406593 0.843891 0.667500
v 0.399544 0.840187 0.667500
v 0.393352 0.835178 0.667500
v 0.388256 0.829058 0.667500
v 0.384453 0.822061 0.667500
v 0.382087 0.814456 0.667500
v 0.381251 0.806536 0.667500
v 0.381976 0.798605 0.667500
v 0.384234 0.790968 0.667500
v 0.387938 0.783919 0.667500
v 0.392947 0.777727 0.667500
v 0.399067 0.772631 0.667500
v 0.406064 0.768828 0.667500
v 0.413669 0.766462 0.667500
v 0.421589 0.765626 0.667500
v 0.429520 0.766351 0.667500
v 0.437157 0.768609 0.667500
v 0.444206 0.772313 0.667500
v 0.450398 0.777322 0.667500
v 0.455494 0.783442 0.667500
v 0.459297 0.790439 0.667500
v 0.461663 0.798044 0.667500
v 0.462499 0.805964 0.667500
v 0.461774 0.813895 0.667500
v 0.459516 0.821532 0.667500
v 0.455812 0.828581 0.667500
v 0.450803 0.834773 0.667500
v 0.444683 0.839869 0.667500
v 0.437686 0.843672 0.667500
v 0.430081 0.846038 0.667500
v 0.421875 0.848750 0.648750
v 0.413584 0.847933 0.648750
v 0.411876 0.856520 0.683125
v 0.421875 0.857505 0.683125
v 0.405611 0.845515 0.648750
v 0.402261 0.853603 0.683125
v 0.398263 0.841587 0.648750
v 0.393399 0.848867 0.683125
v 0.391823 0.836302 0.648750
v 0.385632 0.842493 0.683125
v 0.386538 0.829862 0.648750
v 0.379258 0.834726 0.683125
v 0.382610 0.822514 0.648750
v 0.374522 0.825864 0.683125
v 0.380192 0.814541 0.648750
v 0.371605 0.816249 0.683125
v 0.379375 0.806250 0.648750
v 0.370620 0.806250 0.683125
v 0.380192 0.797959 0.648750
v 0.371605 0.796251 0.683125
v 0.382610 0.789986 0.648750
v 0.374522 0.786636 0.683125
v 0.386538 0.782638 0.648750
v 0.379258 0.777774 0.683125
v 0.391823 0.776198 0.648750
v 0.385632 0.770007 0.683125
v 0.398263 0.770913 0.648750
v 0.393399 0.763633 0.683125
v 0.405611 0.766985 0.648750
v 0.402261 0.758897 0.683125
v 0.413584 0.764567 0.648750
v 0.411876 0.755980 0.683125
v 0.421875 0.763750 0.648750
v 0.421875 0.754995 0.683125
v 0.430166 0.764567 0.648750
v 0.431874 0.755980 0.683125
v 0.438139 0.766985 0.648750
v 0.441489 0.758897 0.683125
v 0.445487 0.770913 0.648750
v 0.450351 0.763633 0.683125
v 0.451927 0.776198 0.648750
v 0.458118 0.770007 0.683125
v 0.457212 0.782638 0.648750
v 0.464492 0.777774 0.683125
v 0.461140 0.789986 0.648750
v 0.469228 0.786636 0.683125
v 0.463558 0.797959 0.648750
v 0.472145 0.796251 0.683125
v 0.464375 0.806250 0.648750
v 0.473130 0.806250 0.683125
v 0.463558 0.814541 0.648750
v 0.472145 0.816249 0.683125
v 0.461140 0.822514 0.648750
v 0.469228 0.825864 0.683125
v 0.457212 0.829862 0.648750
v 0.464492 0.834726 0.683125
v 0.451927 0.836302 0.648750
v 0.458118 0.842493 0.683125
v 0.445487 0.841587 0.648750
v 0.450351 0.848867 0.683125
v 0.438139 0.845515 0.648750
v 0.441489 0.853603 0.683125
v 0.430166 0.847933 0.648750
v 0.431874 0.856520 0.683125
v 0.421875 0.865625 0.683125
v 0.410292 0.864484 0.683125
v 0.410292 0.864484 0.733125
v 0.421875 0.865625 0.733125
v 0.399153 0.861105 0.683125
v 0.399153 0.861105 0.733125
v 0.388888 0.855619 0.683125
v 0.388888 0.855619 0.733125
v 0.379891 0.848234 0.683125
v 0.379891 0.848234 0.733125
v 0.372506 0.839237 0.683125
v 0.372506 0.839237 0.733125
v 0.367020 0.828972 0.683125
v 0.367020 0.828972 0.733125
v 0.363641 0.817833 0.683125
v 0.363641 0.817833 0.733125
v 0.362500 0.806250 0.683125
v 0.362500 0.806250 0.733125
v 0.363641 0.794667 0.683125
v 0.363641 0.794667 0.733125
v 0.367020 0.783528 0.683125
v 0.367020 0.783528 0.733125
v 0.372506 0.773263 0.683125
v 0.372506 0.773263 0.733125
v 0.379891 0.764266 0.683125
v 0.379891 0.764266 0.733125
v 0.388888 0.756881 0.683125
v 0.388888 0.756881 0.733125
v 0.399153 0.751395 0.683125
v 0.399153 0.751395 0.733125
v 0.410292 0.748016 0.683125
v 0.410292 0.748016 0.733125
v 0.421875 0.746875 0.683125
v 0.421875 0.746875 0.733125
v 0.433458 0.748016 0.683125
v 0.433458 0.748016 0.733125
v 0.444597 0.751395 0.683125
v 0.444597 0.751395 0.733125
v 0.454862 0.756881 0.683125
v 0.454862 0.756881 0.733125
v 0.463859 0.764266 0.683125
v 0.463859 0.764266 0.733125
v 0.471244 0.773263 0.683125
v 0.471244 0.773263 0.733125
v 0.476730 0.783528 0.683125
v 0.476730 0.783528 0.733125
v 0.480109 0.794667 0.683125
v 0.480109 0.794667 0.733125
v 0.481250 0.806250 0.683125
v 0.481250 0.806250 0.733125
v 0.480109 0.817833 0.683125
v 0.480109 0.817833 0.733125
v 0.476730 0.828972 0.683125
v 0.476730 0.828972 0.733125
v 0.471244 0.839237 0.683125
v 0.471244 0.839237 0.733125
v 0.463859 0.848234 0.683125
v 0.463859 0.848234 0.733125
v 0.454862 0.855619 0.683125
v 0.454862 0.855619 0.733125
v 0.444597 0.861105 0.683125
v 0.444597 0.861105 0.733125
v 0.433458 0.864484 0.683125
v 0.433458 0.864484 0.733125
v 0.421875 0.856250 0.733125
v 0.412120 0.855289 0.733125
v 0.412120 0.855289 0.817500
v 0.421875 0.856250 0.817500
v 0.402741 0.852444 0.733125
v 0.402741 0.852444 0.817500
v 0.394096 0.847823 0.733125
v 0.394096 0.847823 0.817500
v 0.386520 0.841605 0.733125
v 0.386520 0.841605 0.817500
v 0.380302 0.834029 0.733125
v 0.380302 0.834029 0.817500
v 0.375681 0.825384 0.733125
v 0.375681 0.825384 0.817500
v 0.372836 0.816005 0.733125
v 0.372836 0.816005 0.817500
v 0.371875 0.806250 0.733125
v 0.371875 0.806250 0.817500
v 0.372836 0.796495 0.733125
v 0.372836 0.796495 0.817500
v 0.375681 0.787116 0.733125
v 0.375681 0.787116 0.817500
v 0.380302 0.778471 0.733125
v 0.380302 0.778471 0.817500
v 0.386520 0.770895 0.733125
v 0.386520 0.770895 0.817500
v 0.394096 0.764677 0.733125
v 0.394096 0.764677 0.817500
v 0.402741 0.760056 0.733125
v 0.402741 0.760056 0.817500
v 0.412120 0.757211 0.733125
v 0.412120 0.757211 0.817500
v 0.421875 0.756250 0.733125
v 0.421875 0.756250 0.817500
v 0.431630 0.757211 0.733125
v 0.431630 0.757211 0.817500
v 0.441009 0.760056 0.733125
v 0.441009 0.760056 0.817500
v 0.449654 0.764677 0.733125
v 0.449654 0.764677 0.817500
v 0.457230 0.770895 0.733125
v 0.457230 0.770895 0.817500
v 0.463448 0.778471 0.733125
v 0.463448 0.778471 0.817500
v 0.468069 0.787116 0.733125
v 0.468069 0.787116 0.817500
v 0.470914 0.796495 0.733125
v 0.470914 0.796495 0.817500
v 0.471875 0.806250 0.733125
v 0.471875 0.806250 0.817500
v 0.470914 0.816005 0.733125
v 0.470914 0.816005 0.817500
v 0.468069 0.825384 0.733125
v 0.468069 0.825384 0.817500
v 0.463448 0.834029 0.733125
v 0.463448 0.834029 0.817500
v 0.457230 0.841605 0.733125
v 0.457230 0.841605 0.817500
v 0.449654 0.847823 0.733125
v 0.449654 0.847823 0.817500
v 0.441009 0.852444 0.733125
v 0.441009 0.852444 0.817500
v 0.431630 0.855289 0.733125
v 0.431630 0.855289 0.817500
v 0.421875 0.875000 0.817500
v 0.408463 0.873679 0.817500
v 0.408463 0.873679 0.889375
v 0.421875 0.875000 0.889375
v 0.395566 0.869767 0.817500
v 0.395566 0.869767 0.889375
v 0.383680 0.863414 0.817500
v 0.383680 0.863414 0.889375
v 0.373261 0.854864 0.817500
v 0.373261 0.854864 0.889375
v 0.364711 0.844445 0.817500
v 0.364711 0.844445 0.889375
v 0.358358 0.832559 0.817500
v 0.358358 0.832559 0.889375
v 0.354446 0.819662 0.817500
v 0.354446 0.819662 0.889375
v 0.353125 0.806250 0.817500
v 0.353125 0.806250 0.889375
v 0.354446 0.792838 0.817500
v 0.354446 0.792838 0.889375
v 0.358358 0.779941 0.817500
v 0.358358 0.779941 0.889375
v 0.364711 0.768055 0.817500
v 0.364711 0.768055 0.889375
v 0.373261 0.757636 0.817500
v 0.373261 0.757636 0.889375
v 0.383680 0.749086 0.817500
v 0.383680 0.749086 0.889375
v 0.395566 0.742733 0.817500
v 0.395566 0.742733 0.889375
v 0.408463 0.738821 0.817500
v 0.408463 0.738821 0.889375
v 0.421875 0.737500 0.817500
v 0.421875 0.737500 0.889375
v 0.435287 0.738821 0.817500
v 0.435287 0.738821 0.889375
v 0.448184 0.742733 0.817500
v 0.448184 0.742733 0.889375
v 0.460070 0.749086 0.817500
v 0.460070 0.749086 0.889375
v 0.470489 0.757636 0.817500
v 0.470489 0.757636 0.889375
v 0.479039 0.768055 0.817500
v 0.479039 0.768055 0.889375
v 0.485392 0.779941 0.817500
v 0.485392 0.779941 0.889375
v 0.489304 0.792838 0.817500
v 0.489304 0.792838 0.889375
v 0.490625 0.806250 0.817500
v 0.490625 0.806250 0.889375
v 0.489304 0.819662 0.817500
v 0.489304 0.819662 0.889375
v 0.485392 0.832559 0.817500
v 0.485392 0.832559 0.889375
v 0.479039 0.844445 0.817500
v 0.479039 0.844445 0.889375
v 0.470489 0.854864 0.817500
v 0.470489 0.854864 0.889375
v 0.460070 0.863414 0.817500
v 0.460070 0.863414 0.889375
v 0.448184 0.869767 0.817500
v 0.448184 0.869767 0.889375
v 0.435287 0.873679 0.817500
v 0.435287 0.873679 0.889375
v 0.410287 0.864509 0.923750
v 0.421875 0.865650 0.923750
v 0.399144 0.861128 0.923750
v 0.388874 0.855639 0.923750
v 0.379873 0.848252 0.923750
v 0.372486 0.839251 0.923750
v 0.366997 0.828981 0.923750
v 0.363616 0.817838 0.923750
v 0.362475 0.806250 0.923750
v 0.363616 0.794662 0.923750
v 0.366997 0.783519 0.923750
v 0.372486 0.773249 0.923750
v 0.379873 0.764248 0.923750
v 0.388874 0.756861 0.923750
v 0.399144 0.751372 0.923750
v 0.410287 0.747991 0.923750
v 0.421875 0.746850 0.923750
v 0.433463 0.747991 0.923750
v 0.444606 0.751372 0.923750
v 0.454876 0.756861 0.923750
v 0.463877 0.764248 0.923750
v 0.471264 0.773249 0.923750
v 0.476753 0.783519 0.923750
v 0.480134 0.794662 0.923750
v 0.481275 0.806250 0.923750
v 0.480134 0.817838 0.923750
v 0.476753 0.828981 0.923750
v 0.471264 0.839251 0.923750
v 0.463877 0.848252 0.923750
v 0.454876 0.855639 0.923750
v 0.444606 0.861128 0.923750
v 0.433463 0.864509 0.923750
v 0.421875 0.820000 0.923750
v 0.419193 0.819736 0.923750
v 0.419193 0.819736 0.937500
v 0.421875 0.820000 0.937500
v 0.416613 0.818953 0.923750
v 0.416613 0.818953 0.937500
v 0.414236 0.817683 0.923750
v 0.414236 0.817683 0.937500
v 0.412152 0.815973 0.923750
v 0.412152 0.815973 0.937500
v 0.410442 0.813889 0.923750
v 0.410442 0.813889 0.937500
v 0.409172 0.811512 0.923750
v 0.409172 0.811512 0.937500
v 0.408389 0.808932 0.923750
v 0.408389 0.808932 0.937500
v 0.408125 0.806250 0.923750
v 0.408125 0.806250 0.937500
v 0.408389 0.803568 0.923750
v 0.408389 0.803568 0.937500
v 0.409172 0.800988 0.923750
v 0.409172 0.800988 0.937500
v 0.410442 0.798611 0.923750
v 0.410442 0.798611 0.937500
v 0.412152 0.796527 0.923750
v 0.412152 0.796527 0.937500
v 0.414236 0.794817 0.923750
v 0.414236 0.794817 0.937500
v 0.416613 0.793547 0.923750
v 0.416613 0.793547 0.937500
v 0.419193 0.792764 0.923750
v 0.419193 0.792764 0.937500
v 0.421875 0.792500 0.923750
v 0.421875 0.792500 0.937500
v 0.424557 0.792764 0.923750
v 0.424557 0.792764 0.937500
v 0.427137 0.793547 0.923750
v 0.427137 0.793547 0.937500
v 0.429514 0.794817 0.923750
v 0.429514 0.794817 0.937500
v 0.431598 0.796527 0.923750
v 0.431598 0.796527 0.937500
v 0.433308 0.798611 0.923750
v 0.433308 0.798611 0.937500
v 0.434578 0.800988 0.923750
v 0.434578 0.800988 0.937500
v 0.435361 0.803568 0.923750
v 0.435361 0.803568 0.937500
v 0.435625 0.806250 0.923750
v 0.435625 0.806250 0.937500
v 0.435361 0.808932 0.923750
v 0.435361 0.808932 0.937500
v 0.434578 0.811512 0.923750
v 0.434578 0.811512 0.937500
v 0.433308 0.813889 0.923750
v 0.433308 0.813889 0.937500
v 0.431598 0.815973 0.923750
v 0.431598 0.815973 0.937500
v 0.429514 0.817683 0.923750
v 0.429514 0.817683 0.937500
v 0.427137 0.818953 0.923750
v 0.427137 0.818953 0.937500
v 0.424557 0.819736 0.923750
v 0.424557 0.819736 0.937500
v 0.565625 0.818750 0.337500
v 0.557699 0.817969 0.337500
v 0.557433 0.817657 0.381723
v 0.565341 0.818432 0.381182
v 0.550078 0.815658 0.337500
v 0.549840 0.815364 0.382438
v 0.543055 0.811903 0.337500
v 0.542854 0.811639 0.383300
v 0.536899 0.806851 0.337500
v 0.536743 0.806626 0.384274
v 0.531847 0.800695 0.337500
v 0.531742 0.800518 0.385325
v 0.528092 0.793672 0.337500
v 0.528043 0.793550 0.386411
v 0.525781 0.786051 0.337500
v 0.525788 0.785988 0.387491
v 0.525000 0.778125 0.337500
v 0.525064 0.778125 0.388524
v 0.525781 0.770199 0.337500
v 0.525898 0.770262 0.389469
v 0.528092 0.762578 0.337500
v 0.528260 0.762700 0.390290
v 0.531847 0.755555 0.337500
v 0.532057 0.755732 0.390956
v 0.536899 0.749399 0.337500
v 0.537145 0.749624 0.391441
v 0.543055 0.744347 0.337500
v 0.543327 0.744611 0.391727
v 0.550078 0.740592 0.337500
v 0.550365 0.740886 0.391802
v 0.557699 0.738281 0.337500
v 0.557990 0.738593 0.391664
v 0.565625 0.737500 0.337500
v 0.565909 0.737818 0.391318
v 0.573551 0.738281 0.337500
v 0.573817 0.738593 0.390777
v 0.581172 0.740592 0.337500
v 0.581410 0.740886 0.390062
v 0.588195 0.744347 0.337500
v 0.588396 0.744611 0.389200
v 0.594351 0.749399 0.337500
v 0.594507 0.749624 0.388226
v 0.599403 0.755555 0.337500
v 0.599508 0.755732 0.387175
v 0.603158 0.762578 0.337500
v 0.603207 0.762700 0.386089
v 0.605469 0.770199 0.337500
v 0.605462 0.770262 0.385009
v 0.606250 0.778125 0.337500
v 0.606186 0.778125 0.383976
v 0.605469 0.786051 0.337500
v 0.605352 0.785988 0.383031
v 0.603158 0.793672 0.337500
v 0.602990 0.793550 0.382210
v 0.599403 0.800695 0.337500
v 0.599193 0.800518 0.381544
v 0.594351 0.806851 0.337500
v 0.594105 0.806626 0.381059
v 0.588195 0.811903 0.337500
v 0.587923 0.811639 0.380773
v 0.581172 0.815658 0.337500
v 0.580885 0.815364 0.380698
v 0.573551 0.817969 0.337500
v 0.573260 0.817657 0.380836
v 0.569933 0.845782 0.491098
v 0.577841 0.846557 0.490557
v 0.562340 0.843489 0.491813
v 0.555354 0.839764 0.492675
v 0.549243 0.834751 0.493649
v 0.544242 0.828643 0.494700
v 0.540543 0.821675 0.495786
v 0.538288 0.814113 0.496866
v 0.537564 0.806250 0.497899
v 0.538398 0.798387 0.498844
v 0.540760 0.790825 0.499665
v 0.544557 0.783857 0.500331
v 0.549645 0.777749 0.500816
v 0.555827 0.772736 0.501102
v 0.562865 0.769011 0.501177
v 0.570490 0.766718 0.501039
v 0.578409 0.765943 0.500693
v 0.586317 0.766718 0.500152
v 0.593910 0.769011 0.499437
v 0.600896 0.772736 0.498575
v 0.607007 0.777749 0.497601
v 0.612008 0.783857 0.496550
v 0.615707 0.790825 0.495464
v 0.617962 0.798387 0.494384
v 0.618686 0.806250 0.493351
v 0.617852 0.814113 0.492406
v 0.615490 0.821675 0.491585
v 0.611693 0.828643 0.490919
v 0.606605 0.834751 0.490434
v 0.600423 0.839764 0.490148
v 0.593385 0.843489 0.490073
v 0.585760 0.845782 0.490211
v 0.569919 0.846038 0.542500
v 0.577839 0.846874 0.542500
v 0.562314 0.843672 0.542500
v 0.555317 0.839869 0.542500
v 0.549197 0.834773 0.542500
v 0.544188 0.828581 0.542500
v 0.540484 0.821532 0.542500
v 0.538226 0.813895 0.542500
v 0.537501 0.805964 0.542500
v 0.538337 0.798044 0.542500
v 0.540703 0.790439 0.542500
v 0.544506 0.783442 0.542500
v 0.549602 0.777322 0.542500
v 0.555794 0.772313 0.542500
v 0.562843 0.768609 0.542500
v 0.570480 0.766351 0.542500
v 0.578411 0.765626 0.542500
v 0.586331 0.766462 0.542500
v 0.593936 0.768828 0.542500
v 0.600933 0.772631 0.542500
v 0.607053 0.777727 0.542500
v 0.612062 0.783919 0.542500
v 0.615766 0.790968 0.542500
v 0.618024 0.798605 0.542500
v 0.618749 0.806536 0.542500
v 0.617913 0.814456 0.542500
v 0.615547 0.822061 0.542500
v 0.611744 0.829058 0.542500
v 0.606648 0.835178 0.542500
v 0.600456 0.840187 0.542500
v 0.593407 0.843891 0.542500
v 0.585770 0.846149 0.542500
v 0.578125 0.848750 0.523750
v 0.569834 0.847933 0.523750
v 0.568126 0.856520 0.558125
v 0.578125 0.857505 0.558125
v 0.561861 0.845515 0.523750
v 0.558511 0.853603 0.558125
v 0.554513 0.841587 0.523750
v 0.549649 0.848867 0.558125
v 0.548073 0.836302 0.523750
v 0.541882 0.842493 0.558125
v 0.542788 0.829862 0.523750
v 0.535508 0.834726 0.558125
v 0.538860 0.822514 0.523750
v 0.530772 0.825864 0.558125
v 0.536442 0.814541 0.523750
v 0.527855 0.816249 0.558125
v 0.535625 0.806250 0.523750
v 0.526870 0.806250 0.558125
v 0.536442 0.797959 0.523750
v 0.527855 0.796251 0.558125
v 0.538860 0.789986 0.523750
v 0.530772 0.786636 0.558125
v 0.542788 0.782638 0.523750
v 0.535508 0.777774 0.558125
v 0.548073 0.776198 0.523750
v 0.541882 0.770007 0.558125
v 0.554513 0.770913 0.523750
v 0.549649 0.763633 0.558125
v 0.561861 0.766985 0.523750
v 0.558511 0.758897 0.558125
v 0.569834 0.764567 0.523750
v 0.568126 0.755980 0.558125
v 0.578125 0.763750 0.523750
v 0.578125 0.754995 0.558125
v 0.586416 0.764567 0.523750
v 0.588124 0.755980 0.558125
v 0.594389 0.766985 0.523750
v 0.597739 0.758897 0.558125
v 0.601737 0.770913 0.523750
v 0.606601 0.763633 0.558125
v 0.608177 0.776198 0.523750
v 0.614368 0.770007 0.558125
v 0.613462 0.782638 0.523750
v 0.620742 0.777774 0.558125
v 0.617390 0.789986 0.523750
v 0.625478 0.786636 0.558125
v 0.619808 0.797959 0.523750
v 0.628395 0.796251 0.558125
v 0.620625 0.806250 0.523750
v 0.629380 0.806250 0.558125
v 0.619808 0.814541 0.523750
v 0.628395 0.816249 0.558125
v 0.617390 0.822514 0.523750
v 0.625478 0.825864 0.558125
v 0.613462 0.829862 0.523750
v 0.620742 0.834726 0.558125
v 0.608177 0.836302 0.523750
v 0.614368 0.842493 0.558125
v 0.601737 0.841587 0.523750
v 0.606601 0.848867 0.558125
v 0.594389 0.845515 0.523750
v 0.597739 0.853603 0.558125
v 0.586416 0.847933 0.523750
v 0.588124 0.856520 0.558125
v 0.578125 0.865625 0.558125
v 0.566542 0.864484 0.558125
v 0.566542 0.864484 0.608125
v 0.578125 0.865625 0.608125
v 0.555403 0.861105 0.558125
v 0.555403 0.861105 0.608125
v 0.545138 0.855619 0.558125
v 0.545138 0.855619 0.608125
v 0.536141 0.848234 0.558125
v 0.536141 0.848234 0.608125
v 0.528756 0.839237 0.558125
v 0.528756 0.839237 0.608125
v 0.523270 0.828972 0.558125
v 0.523270 0.828972 0.608125
v 0.519891 0.817833 0.558125
v 0.519891 0.817833 0.608125
v 0.518750 0.806250 0.558125
v 0.518750 0.806250 0.608125
v 0.519891 0.794667 0.558125
v 0.519891 0.794667 0.608125
v 0.523270 0.783528 0.558125
v 0.523270 0.783528 0.608125
v 0.528756 0.773263 0.558125
v 0.528756 0.773263 0.608125
v 0.536141 0.764266 0.558125
v 0.536141 0.764266 0.608125
v 0.545138 0.756881 0.558125
v 0.545138 0.756881 0.608125
v 0.555403 0.751395 0.558125
v 0.555403 0.751395 0.608125
v 0.566542 0.748016 0.558125
v 0.566542 0.748016 0.608125
v 0.578125 0.746875 0.558125
v 0.578125 0.746875 0.608125
v 0.589708 0.748016 0.558125
v 0.589708 0.748016 0.608125
v 0.600847 0.751395 0.558125
v 0.600847 0.751395 0.608125
v 0.611112 0.756881 0.558125
v 0.611112 0.756881 0.608125
v 0.620109 0.764266 0.558125
v 0.620109 0.764266 0.608125
v 0.627494 0.773263 0.558125
v 0.627494 0.773263 0.608125
v 0.632980 0.783528 0.558125
v 0.632980 0.783528 0.608125
v 0.636359 0.794667 0.558125
v 0.636359 0.794667 0.608125
v 0.637500 0.806250 0.558125
v 0.637500 0.806250 0.608125
v 0.636359 0.817833 0.558125
v 0.636359 0.817833 0.608125
v 0.632980 0.828972 0.558125
v 0.632980 0.828972 0.608125
v 0.627494 0.839237 0.558125
v 0.627494 0.839237 0.608125
v 0.620109 0.848234 0.558125
v 0.620109 0.848234 0.608125
v 0.611112 0.855619 0.558125
v 0.611112 0.855619 0.608125
v 0.600847 0.861105 0.558125
v 0.600847 0.861105 0.608125
v 0.589708 0.864484 0.558125
v 0.589708 0.864484 0.608125
v 0.578125 0.856250 0.608125
v 0.568370 0.855289 0.608125
v 0.568370 0.855289 0.692500
v 0.578125 0.856250 0.692500
v 0.558991 0.852444 0.608125
v 0.558991 0.852444 0.692500
v 0.550346 0.847823 0.608125
v 0.550346 0.847823 0.692500
v 0.542770 0.841605 0.608125
v 0.542770 0.841605 0.692500
v 0.536552 0.834029 0.608125
v 0.536552 0.834029 0.692500
v 0.531931 0.825384 0.608125
v 0.531931 0.825384 0.692500
v 0.529086 0.816005 0.608125
v 0.529086 0.816005 0.692500
v 0.528125 0.806250 0.608125
v 0.528125 0.806250 0.692500
v 0.529086 0.796495 0.608125
v 0.529086 0.796495 0.692500
v 0.531931 0.787116 0.608125
v 0.531931 0.787116 0.692500
v 0.536552 0.778471 0.608125
v 0.536552 0.778471 0.692500
v 0.542770 0.770895 0.608125
v 0.542770 0.770895 0.692500
v 0.550346 0.764677 0.608125
v 0.550346 0.764677 0.692500
v 0.558991 0.760056 0.608125
v 0.558991 0.760056 0.692500
v 0.568370 0.757211 0.608125
v 0.568370 0.757211 0.692500
v 0.578125 0.756250 0.608125
v 0.578125 0.756250 0.692500
v 0.587880 0.757211 0.608125
v 0.587880 0.757211 0.692500
v 0.597259 0.760056 0.608125
v 0.597259 0.760056 0.692500
v 0.605904 0.764677 0.608125
v 0.605904 0.764677 0.692500
v 0.613480 0.770895 0.608125
v 0.613480 0.770895 0.692500
v 0.619698 0.778471 0.608125
v 0.619698 0.778471 0.692500
v 0.624319 0.787116 0.608125
v 0.624319 0.787116 0.692500
v 0.627164 0.796495 0.608125
v 0.627164 0.796495 0.692500
v 0.628125 0.806250 0.608125
v 0.628125 0.806250 0.692500
v 0.627164 0.816005 0.608125
v 0.627164 0.816005 0.692500
v 0.624319 0.825384 0.608125
v 0.624319 0.825384 0.692500
v 0.619698 0.834029 0.608125
v 0.619698 0.834029 0.692500
v 0.613480 0.841605 0.608125
v 0.613480 0.841605 0.692500
v 0.605904 0.847823 0.608125
v 0.605904 0.847823 0.692500
v 0.597259 0.852444 0.608125
v 0.597259 0.852444 0.692500
v 0.587880 0.855289 0.608125
v 0.587880 0.855289 0.692500
v 0.578125 0.875000 0.692500
v 0.564713 0.873679 0.692500
v 0.564713 0.873679 0.764375
v 0.578125 0.875000 0.764375
v 0.551816 0.869767 0.692500
v 0.551816 0.869767 0.764375
v 0.539930 0.863414 0.692500
v 0.539930 0.863414 0.764375
v 0.529511 0.854864 0.692500
v 0.529511 0.854864 0.764375
v 0.520961 0.844445 0.692500
v 0.520961 0.844445 0.764375
v 0.514608 0.832559 0.692500
v 0.514608 0.832559 0.764375
v 0.510696 0.819662 0.692500
v 0.510696 0.819662 0.764375
v 0.509375 0.806250 0.692500
v 0.509375 0.806250 0.764375
v 0.510696 0.792838 0.692500
v 0.510696 0.792838 0.764375
v 0.514608 0.779941 0.692500
v 0.514608 0.779941 0.764375
v 0.520961 0.768055 0.692500
v 0.520961 0.768055 0.764375
v 0.529511 0.757636 0.692500
v 0.529511 0.757636 0.764375
v 0.539930 0.749086 0.692500
v 0.539930 0.749086 0.764375
v 0.551816 0.742733 0.692500
v 0.551816 0.742733 0.764375
v 0.564713 0.738821 0.692500
v 0.564713 0.738821 0.764375
v 0.578125 0.737500 0.692500
v 0.578125 0.737500 0.764375
v 0.591537 0.738821 0.692500
v 0.591537 0.738821 0.764375
v 0.604434 0.742733 0.692500
v 0.604434 0.742733 0.764375
v 0.616320 0.749086 0.692500
v 0.616320 0.749086 0.764375
v 0.626739 0.757636 0.692500
v 0.626739 0.757636 0.764375
v 0.635289 0.768055 0.692500
v 0.635289 0.768055 0.764375
v 0.641642 0.779941 0.692500
v 0.641642 0.779941 0.764375
v 0.645554 0.792838 0.692500
v 0.645554 0.792838 0.764375
v 0.646875 0.806250 0.692500
v 0.646875 0.806250 0.764375
v 0.645554 0.819662 0.692500
v 0.645554 0.819662 0.764375
v 0.641642 0.832559 0.692500
v 0.641642 0.832559 0.764375
v 0.635289 0.844445 0.692500
v 0.635289 0.844445 0.764375
v 0.626739 0.854864 0.692500
v 0.626739 0.854864 0.764375
v 0.616320 0.863414 0.692500
v 0.616320 0.863414 0.764375
v 0.604434 0.869767 0.692500
v 0.604434 0.869767 0.764375
v 0.591537 0.873679 0.692500
v 0.591537 0.873679 0.764375
v 0.566537 0.864509 0.798750
v 0.578125 0.865650 0.798750
v 0.555394 0.861128 0.798750
v 0.545124 0.855639 0.798750
v 0.536123 0.848252 0.798750
v 0.528736 0.839251 0.798750
v 0.523247 0.828981 0.798750
v 0.519866 0.817838 0.798750
v 0.518725 0.806250 0.798750
v 0.519866 0.794662 0.798750
v 0.523247 0.783519 0.798750
v 0.528736 0.773249 0.798750
v 0.536123 0.764248 0.798750
v 0.545124 0.756861 0.798750
v 0.555394 0.751372 0.798750
v 0.566537 0.747991 0.798750
v 0.578125 0.746850 0.798750
v 0.589713 0.747991 0.798750
v 0.600856 0.751372 0.798750
v 0.611126 0.756861 0.798750
v 0.620127 0.764248 0.798750
v 0.627514 0.773249 0.798750
v 0.633003 0.783519 0.798750
v 0.636384 0.794662 0.798750
v 0.637525 0.806250 0.798750
v 0.636384 0.817838 0.798750
v 0.633003 0.828981 0.798750
v 0.627514 0.839251 0.798750
v 0.620127 0.848252 0.798750
v 0.611126 0.855639 0.798750
v 0.600856 0.861128 0.798750
v 0.589713 0.864509 0.798750
v 0.000000 0.000000 0.000000
v 1.000000 0.000000 0.000000
v 1.000000 0.000000 1.000000
v 0.000000 0.000000 1.000000
v 0.000000 0.737500 1.000000
v 1.000000 0.737500 1.000000
v 1.000000 0.737500 0.000000
v 0.000000 0.737500 0.000000
v 1.000000 0.737500 0.062500
v 0.000000 0.737500 0.062500
v 0.000000 1.000000 0.062500
v 1.000000 1.000000 0.062500
v 1.000000 1.000000 0.000000
v 0.000000 1.000000 0.000000
v 0.000000 0.737500 0.937500
v 1.000000 0.737500 0.937500
v 0.000000 1.000000 1.000000
v 1.000000 1.000000 1.000000
v 1.000000 1.000000 0.937500
v 0.000000 1.000000 0.937500
v 0.062500 0.737500 0.062500
v 0.062500 0.737500 0.937500
v 0.062500 1.000000 0.937500
v 0.062500 1.000000 0.062500
v 0.937500 0.737500 0.062500
v 0.937500 0.737500 0.937500
v 0.937500 1.000000 0.937500
v 0.937500 1.000000 0.062500
vn -0.0975 0.9904 0.0000
vn -0.2889 0.9523 0.0000
vn -0.4691 0.8777 0.0000
vn -0.6313 0.7693 0.0000
vn -0.7693 0.6313 0.0000
vn -0.8777 0.4691 0.0000
vn -0.9523 0.2889 0.0000
vn -0.9904 0.0975 0.0000
vn -0.9904 -0.0975 0.0000
vn -0.9523 -0.2889 0.0000
vn -0.8777 -0.4691 0.0000
vn -0.7693 -0.6313 0.0000
vn -0.6313 -0.7693 0.0000
vn -0.4691 -0.8777 0.0000
vn -0.2889 -0.9523 0.0000
vn -0.0975 -0.9904 0.0000
vn 0.0975 -0.9904 0.0000
vn 0.2889 -0.9523 0.0000
vn 0.4691 -0.8777 0.0000
vn 0.6313 -0.7693 0.0000
vn 0.7693 -0.6313 0.0000
vn 0.8777 -0.4691 0.0000
vn 0.9523 -0.2889 0.0000
vn 0.9904 -0.0975 0.0000
vn 0.9904 0.0975 0.0000
vn 0.9523 0.2889 -0.0000
vn 0.8777 0.4691 -0.0000
vn 0.7693 0.6313 -0.0000
vn 0.6313 0.7693 -0.0000
vn 0.4691 0.8777 -0.0000
vn 0.2889 0.9523 -0.0000
vn 0.0975 0.9904 0.0000
vn -0.0905 0.9826 -0.1290
vn -0.2818 0.9449 -0.1350
vn -0.4623 0.8708 -0.1357
vn -0.6250 0.7633 -0.1313
vn -0.7637 0.6264 -0.1218
vn -0.8730 0.4655 -0.1076
vn -0.9488 0.2866 -0.0893
vn -0.9882 0.0968 -0.0676
vn -0.9895 -0.0968 -0.0433
vn -0.9529 -0.2866 -0.0173
vn -0.8796 -0.4655 0.0094
vn -0.7725 -0.6264 0.0357
vn -0.6357 -0.7633 0.0606
vn -0.4745 -0.8708 0.0832
vn -0.2951 -0.9449 0.1026
vn -0.1043 -0.9826 0.1181
vn 0.0905 -0.9826 0.1290
vn 0.2818 -0.9449 0.1350
vn 0.4623 -0.8708 0.1357
vn 0.6250 -0.7633 0.1313
vn 0.7637 -0.6264 0.1218
vn 0.8730 -0.4655 0.1076
vn 0.9488 -0.2866 0.0893
vn 0.9882 -0.0968 0.0676
vn 0.9895 0.0968 0.0433
vn 0.9529 0.2866 0.0173
vn 0.8796 0.4655 -0.0094
vn 0.7725 0.6264 -0.0357
vn 0.6357 0.7633 -0.0606
vn 0.4745 0.8708 -0.0832
vn 0.2951 0.9449 -0.1026
vn 0.1043 0.9826 -0.1181
vn 0.0000 0.0000 1.0000
vn -0.1072 0.9942 0.0000
vn -0.2991 0.9542 0.0000
vn -0.4795 0.8775 0.0000
vn -0.6415 0.7671 0.0000
vn -0.7788 0.6273 0.0000
vn -0.8862 0.4633 0.0000
vn -0.9596 0.2815 0.0000
vn -0.9960 0.0889 0.0000
vn -0.9942 -0.1072 0.0000
vn -0.9542 -0.2991 0.0000
vn -0.8775 -0.4795 0.0000
vn -0.7671 -0.6415 0.0000
vn -0.6273 -0.7788 0.0000
vn -0.4633 -0.8862 0.0000
vn -0.2815 -0.9596 0.0000
vn -0.0889 -0.9960 0.0000
vn 0.1072 -0.9942 0.0000
vn 0.2991 -0.9542 0.0000
vn 0.4795 -0.8775 0.0000
vn 0.6415 -0.7671 0.0000
vn 0.7788 -0.6273 0.0000
vn 0.8862 -0.4633 0.0000
vn 0.9596 -0.2815 0.0000
vn 0.9960 -0.0889 0.0000
vn 0.9942 0.1072 0.0000
vn 0.9542 0.2991 0.0000
vn 0.8775 0.4795 0.0000
vn 0.7671 0.6415 0.0000
vn 0.6273 0.7788 0.0000
vn 0.4633 0.8862 0.0000
vn 0.2815 0.9596 0.0000
vn 0.0889 0.9960 0.0000
vn -0.0000 -0.0000 -1.0000
vn -0.0980 0.9952 0.0000
vn -0.2903 0.9569 0.0000
vn -0.4714 0.8819 0.0000
vn -0.6344 0.7730 0.0000
vn -0.7730 0.6344 0.0000
vn -0.8819 0.4714 0.0000
vn -0.9569 0.2903 0.0000
vn -0.9952 0.0980 0.0000
vn -0.9952 -0.0980 0.0000
vn -0.9569 -0.2903 0.0000
vn -0.8819 -0.4714 0.0000
vn -0.7730 -0.6344 0.0000
vn -0.6344 -0.7730 0.0000
vn -0.4714 -0.8819 0.0000
vn -0.2903 -0.9569 0.0000
vn -0.0980 -0.9952 0.0000
vn 0.0980 -0.9952 0.0000
vn 0.2903 -0.9569 0.0000
vn 0.4714 -0.8819 0.0000
vn 0.6344 -0.7730 0.0000
vn 0.7730 -0.6344 0.0000
vn 0.8819 -0.4714 0.0000
vn 0.9569 -0.2903 0.0000
vn 0.9952 -0.0980 0.0000
vn 0.9952 0.0980 0.0000
vn 0.9569 0.2903 0.0000
vn 0.8819 0.4714 0.0000
vn 0.7730 0.6344 0.0000
vn 0.6344 0.7730 0.0000
vn 0.4714 0.8819 0.0000
vn 0.2903 0.9569 0.0000
vn 0.0980 0.9952 0.0000
vn -0.0909 0.9959 0.0000
vn -0.2834 0.9590 0.0000
vn -0.4650 0.8853 0.0000
vn -0.6288 0.7775 0.0000
vn -0.7684 0.6399 0.0000
vn -0.8785 0.4777 0.0000
vn -0.9548 0.2972 0.0000
vn -0.9945 0.1052 0.0000
vn -0.9959 -0.0909 0.0000
vn -0.9590 -0.2834 0.0000
vn -0.8853 -0.4650 0.0000
vn -0.7775 -0.6288 0.0000
vn -0.6399 -0.7684 0.0000
vn -0.4777 -0.8785 0.0000
vn -0.2972 -0.9548 0.0000
vn -0.1052 -0.9945 0.0000
vn 0.0909 -0.9959 0.0000
vn 0.2834 -0.9590 0.0000
vn 0.4650 -0.8853 0.0000
vn 0.6288 -0.7775 0.0000
vn 0.7684 -0.6399 0.0000
vn 0.8785 -0.4777 0.0000
vn 0.9548 -0.2972 0.0000
vn 0.9945 -0.1052 0.0000
vn 0.9959 0.0909 0.0000
vn 0.9590 0.2834 0.0000
vn 0.8853 0.4650 0.0000
vn 0.7775 0.6288 0.0000
vn 0.6399 0.7684 0.0000
vn 0.4777 0.8785 0.0000
vn 0.2972 0.9548 0.0000
vn 0.1052 0.9945 0.0000
vn -0.1043 0.9826 -0.1181
vn -0.2951 0.9449 -0.1026
vn -0.4745 0.8708 -0.0832
vn -0.6357 0.7633 -0.0606
vn -0.7725 0.6264 -0.0357
vn -0.8796 0.4655 -0.0094
vn -0.9529 0.2866 0.0173
vn -0.9895 0.0968 0.0433
vn -0.9882 -0.0968 0.0676
vn -0.9488 -0.2866 0.0893
vn -0.8730 -0.4655 0.1076
vn -0.7637 -0.6264 0.1218
vn -0.6250 -0.7633 0.1313
vn -0.4623 -0.8708 0.1357
vn -0.2818 -0.9449 0.1350
vn -0.0905 -0.9826 0.1290
vn 0.1043 -0.9826 0.1181
vn 0.2951 -0.9449 0.1026
vn 0.4745 -0.8708 0.0832
vn 0.6357 -0.7633 0.0606
vn 0.7725 -0.6264 0.0357
vn 0.8796 -0.4655 0.0094
vn 0.9529 -0.2866 -0.0173
vn 0.9895 -0.0968 -0.0433
vn 0.9882 0.0968 -0.0676
vn 0.9488 0.2866 -0.0893
vn 0.8730 0.4655 -0.1076
vn 0.7637 0.6264 -0.1218
vn 0.6250 0.7633 -0.1313
vn 0.4623 0.8708 -0.1357
vn 0.2818 0.9449 -0.1350
vn 0.0905 0.9826 -0.1290
vn 0.0000 -1.0000 0.0000
vn 0.0000 1.0000 0.0000
vn -1.0000 0.0000 0.0000
vn 1.0000 0.0000 0.0000
vt 0.000000 0.000000
vt 0.031250 0.000000
vt 0.031250 0.519824
vt 0.000000 0.519824
vt 0.062500 0.000000
vt 0.062500 0.519824
vt 0.093750 0.000000
vt 0.093750 0.519824
vt 0.125000 0.000000
vt 0.125000 0.519824
vt 0.156250 0.000000
vt 0.156250 0.519824
vt 0.187500 0.000000
vt 0.187500 0.519824
vt 0.218750 0.000000
vt 0.218750 0.519824
vt 0.250000 0.000000
vt 0.250000 0.519824
vt 0.281250 0.000000
vt 0.281250 0.519824
vt 0.312500 0.000000
vt 0.312500 0.519824
vt 0.343750 0.000000
vt 0.343750 0.519824
vt 0.375000 0.000000
vt 0.375000 0.519824
vt 0.406250 0.000000
vt 0.406250 0.519824
vt 0.437500 0.000000
vt 0.437500 0.519824
vt 0.468750 0.000000
vt 0.468750 0.519824
vt 0.500000 0.000000
vt 0.500000 0.519824
vt 0.531250 0.000000
vt 0.531250 0.519824
vt 0.562500 0.000000
vt 0.562500 0.519824
vt 0.593750 0.000000
vt 0.593750 0.519824
vt 0.625000 0.000000
vt 0.625000 0.519824
vt 0.656250 0.000000
vt 0.656250 0.519824
vt 0.687500 0.000000
vt 0.687500 0.519824
vt 0.718750 0.000000
vt 0.718750 0.519824
vt 0.750000 0.000000
vt 0.750000 0.519824
vt 0.781250 0.000000
vt 0.781250 0.519824
vt 0.812500 0.000000
vt 0.812500 0.519824
vt 0.843750 0.000000
vt 0.843750 0.519824
vt 0.875000 0.000000
vt 0.875000 0.519824
vt 0.906250 0.000000
vt 0.906250 0.519824
vt 0.937500 0.000000
vt 0.937500 0.519824
vt 0.968750 0.000000
vt 0.968750 0.519824
vt 1.000000 0.000000
vt 1.000000 0.519824
vt 0.031250 0.859760
vt 0.000000 0.859760
vt 0.062500 0.859760
vt 0.093750 0.859760
vt 0.125000 0.859760
vt 0.156250 0.859760
vt 0.187500 0.859760
vt 0.218750 0.859760
vt 0.250000 0.859760
vt 0.281250 0.859760
vt 0.312500 0.859760
vt 0.343750 0.859760
vt 0.375000 0.859760
vt 0.406250 0.859760
vt 0.437500 0.859760
vt 0.468750 0.859760
vt 0.500000 0.859760
vt 0.531250 0.859760
vt 0.562500 0.859760
vt 0.593750 0.859760
vt 0.625000 0.859760
vt 0.656250 0.859760
vt 0.687500 0.859760
vt 0.718750 0.859760
vt 0.750000 0.859760
vt 0.781250 0.859760
vt 0.812500 0.859760
vt 0.843750 0.859760
vt 0.875000 0.859760
vt 0.906250 0.859760
vt 0.937500 0.859760
vt 0.968750 0.859760
vt 1.000000 0.859760
vt 0.031250 1.000000
vt 0.000000 1.000000
vt 0.062500 1.000000
vt 0.093750 1.000000
vt 0.125000 1.000000
vt 0.156250 1.000000
vt 0.187500 1.000000
vt 0.218750 1.000000
vt 0.250000 1.000000
vt 0.281250 1.000000
vt 0.312500 1.000000
vt 0.343750 1.000000
vt 0.375000 1.000000
vt 0.406250 1.000000
vt 0.437500 1.000000
vt 0.468750 1.000000
vt 0.500000 1.000000
vt 0.531250 1.000000
vt 0.562500 1.000000
vt 0.593750 1.000000
vt 0.625000 1.000000
vt 0.656250 1.000000
vt 0.687500 1.000000
vt 0.718750 1.000000
vt 0.750000 1.000000
vt 0.781250 1.000000
vt 0.812500 1.000000
vt 0.843750 1.000000
vt 0.875000 1.000000
vt 0.906250 1.000000
vt 0.937500 1.000000
vt 0.968750 1.000000
vt 1.000000 1.000000
vt 1.000000 0.500000
vt 0.990393 0.597545
vt 0.961940 0.691342
vt 0.915735 0.777785
vt 0.853553 0.853553
vt 0.777785 0.915735
vt 0.691342 0.961940
vt 0.597545 0.990393
vt 0.402455 0.990393
vt 0.308658 0.961940
vt 0.222215 0.915735
vt 0.146447 0.853553
vt 0.084265 0.777785
vt 0.038060 0.691342
vt 0.009607 0.597545
vt 0.000000 0.500000
vt 0.009607 0.402455
vt 0.038060 0.308658
vt 0.084265 0.222215
vt 0.146447 0.146447
vt 0.222215 0.084265
vt 0.308658 0.038060
vt 0.402455 0.009607
vt 0.597545 0.009607
vt 0.691342 0.038060
vt 0.777785 0.084265
vt 0.853553 0.146447
vt 0.915735 0.222215
vt 0.961940 0.308658
vt 0.990393 0.402455
vt 0.031250 0.125000
vt 0.000000 0.125000
vt 0.062500 0.125000
vt 0.093750 0.125000
vt 0.125000 0.125000
vt 0.156250 0.125000
vt 0.187500 0.125000
vt 0.218750 0.125000
vt 0.250000 0.125000
vt 0.281250 0.125000
vt 0.312500 0.125000
vt 0.343750 0.125000
vt 0.375000 0.125000
vt 0.406250 0.125000
vt 0.437500 0.125000
vt 0.468750 0.125000
vt 0.500000 0.125000
vt 0.531250 0.125000
vt 0.562500 0.125000
vt 0.593750 0.125000
vt 0.625000 0.125000
vt 0.656250 0.125000
vt 0.687500 0.125000
vt 0.718750 0.125000
vt 0.750000 0.125000
vt 0.781250 0.125000
vt 0.812500 0.125000
vt 0.843750 0.125000
vt 0.875000 0.125000
vt 0.906250 0.125000
vt 0.937500 0.125000
vt 0.968750 0.125000
vt 1.000000 0.125000
vt 0.548773 0.093150
vt 0.595671 0.091371
vt 0.638893 0.088483
vt 0.676777 0.084597
vt 0.707867 0.079862
vt 0.730970 0.074459
vt 0.745196 0.068597
vt 0.750000 0.062500
vt 0.745196 0.056403
vt 0.730970 0.050541
vt 0.707867 0.045138
vt 0.676777 0.040403
vt 0.638893 0.036517
vt 0.595671 0.033629
vt 0.548773 0.031850
vt 0.500000 0.031250
vt 0.451227 0.031850
vt 0.404329 0.033629
vt 0.361107 0.036517
vt 0.323223 0.040403
vt 0.292133 0.045138
vt 0.269030 0.050541
vt 0.254804 0.056403
vt 0.250000 0.062500
vt 0.254804 0.068597
vt 0.269030 0.074459
vt 0.292133 0.079862
vt 0.323223 0.084597
vt 0.361107 0.088483
vt 0.404329 0.091371
vt 0.451227 0.093150
vt 0.500000 0.093750
vt 0.031250 0.306800
vt 0.000000 0.306800
vt 0.062500 0.306800
vt 0.093750 0.306800
vt 0.125000 0.306800
vt 0.156250 0.306800
vt 0.187500 0.306800
vt 0.218750 0.306800
vt 0.250000 0.306800
vt 0.281250 0.306800
vt 0.312500 0.306800
vt 0.343750 0.306800
vt 0.375000 0.306800
vt 0.406250 0.306800
vt 0.437500 0.306800
vt 0.468750 0.306800
vt 0.500000 0.306800
vt 0.531250 0.306800
vt 0.562500 0.306800
vt 0.593750 0.306800
vt 0.625000 0.306800
vt 0.656250 0.306800
vt 0.687500 0.306800
vt 0.718750 0.306800
vt 0.750000 0.306800
vt 0.781250 0.306800
vt 0.812500 0.306800
vt 0.843750 0.306800
vt 0.875000 0.306800
vt 0.906250 0.306800
vt 0.937500 0.306800
vt 0.968750 0.306800
vt 1.000000 0.306800
vt 0.548773 0.260477
vt 0.595671 0.257890
vt 0.638893 0.253690
vt 0.676777 0.248038
vt 0.707867 0.241151
vt 0.730970 0.233293
vt 0.745196 0.224767
vt 0.750000 0.215900
vt 0.745196 0.207033
vt 0.730970 0.198507
vt 0.707867 0.190649
vt 0.676777 0.183762
vt 0.638893 0.178110
vt 0.595671 0.173910
vt 0.548773 0.171323
vt 0.500000 0.170450
vt 0.451227 0.171323
vt 0.404329 0.173910
vt 0.361107 0.178110
vt 0.323223 0.183762
vt 0.292133 0.190649
vt 0.269030 0.198507
vt 0.254804 0.207033
vt 0.250000 0.215900
vt 0.254804 0.224767
vt 0.269030 0.233293
vt 0.292133 0.241151
vt 0.323223 0.248038
vt 0.361107 0.253690
vt 0.404329 0.257890
vt 0.451227 0.260477
vt 0.500000 0.261350
vt 0.031250 0.613600
vt 0.000000 0.613600
vt 0.062500 0.613600
vt 0.093750 0.613600
vt 0.125000 0.613600
vt 0.156250 0.613600
vt 0.187500 0.613600
vt 0.218750 0.613600
vt 0.250000 0.613600
vt 0.281250 0.613600
vt 0.312500 0.613600
vt 0.343750 0.613600
vt 0.375000 0.613600
vt 0.406250 0.613600
vt 0.437500 0.613600
vt 0.468750 0.613600
vt 0.500000 0.613600
vt 0.531250 0.613600
vt 0.562500 0.613600
vt 0.593750 0.613600
vt 0.625000 0.613600
vt 0.656250 0.613600
vt 0.687500 0.613600
vt 0.718750 0.613600
vt 0.750000 0.613600
vt 0.781250 0.613600
vt 0.812500 0.613600
vt 0.843750 0.613600
vt 0.875000 0.613600
vt 0.906250 0.613600
vt 0.937500 0.613600
vt 0.968750 0.613600
vt 1.000000 0.613600
vt 0.031250 0.875000
vt 0.000000 0.875000
vt 0.062500 0.875000
vt 0.093750 0.875000
vt 0.125000 0.875000
vt 0.156250 0.875000
vt 0.187500 0.875000
vt 0.218750 0.875000
vt 0.250000 0.875000
vt 0.281250 0.875000
vt 0.312500 0.875000
vt 0.343750 0.875000
vt 0.375000 0.875000
vt 0.406250 0.875000
vt 0.437500 0.875000
vt 0.468750 0.875000
vt 0.500000 0.875000
vt 0.531250 0.875000
vt 0.562500 0.875000
vt 0.593750 0.875000
vt 0.625000 0.875000
vt 0.656250 0.875000
vt 0.687500 0.875000
vt 0.718750 0.875000
vt 0.750000 0.875000
vt 0.781250 0.875000
vt 0.812500 0.875000
vt 0.843750 0.875000
vt 0.875000 0.875000
vt 0.906250 0.875000
vt 0.937500 0.875000
vt 0.968750 0.875000
vt 1.000000 0.875000
vt 0.548773 0.808394
vt 0.595671 0.804676
vt 0.638893 0.798637
vt 0.676777 0.790509
vt 0.707867 0.780607
vt 0.730970 0.769308
vt 0.745196 0.757049
vt 0.750000 0.744300
vt 0.745196 0.731551
vt 0.730970 0.719292
vt 0.707867 0.707993
vt 0.676777 0.698091
vt 0.638893 0.689963
vt 0.595671 0.683924
vt 0.548773 0.680206
vt 0.500000 0.678950
vt 0.451227 0.680206
vt 0.404329 0.683924
vt 0.361107 0.689963
vt 0.323223 0.698091
vt 0.292133 0.707993
vt 0.269030 0.719292
vt 0.254804 0.731551
vt 0.250000 0.744300
vt 0.254804 0.757049
vt 0.269030 0.769308
vt 0.292133 0.780607
vt 0.323223 0.790509
vt 0.361107 0.798637
vt 0.404329 0.804676
vt 0.451227 0.808394
vt 0.500000 0.809650
vt 0.500000 0.968750
vt 0.451227 0.968150
vt 0.404329 0.966371
vt 0.361107 0.963483
vt 0.323223 0.959597
vt 0.292133 0.954862
vt 0.269030 0.949459
vt 0.254804 0.943597
vt 0.250000 0.937500
vt 0.254804 0.931403
vt 0.269030 0.925541
vt 0.292133 0.920138
vt 0.323223 0.915403
vt 0.361107 0.911517
vt 0.404329 0.908629
vt 0.451227 0.906850
vt 0.500000 0.906250
vt 0.548773 0.906850
vt 0.595671 0.908629
vt 0.638893 0.911517
vt 0.676777 0.915403
vt 0.707867 0.920138
vt 0.730970 0.925541
vt 0.745196 0.931403
vt 0.750000 0.937500
vt 0.745196 0.943597
vt 0.730970 0.949459
vt 0.707867 0.954862
vt 0.676777 0.959597
vt 0.638893 0.963483
vt 0.595671 0.966371
vt 0.548773 0.968150
vt 0.031250 0.232977
vt 0.000000 0.232977
vt 0.062500 0.232977
vt 0.093750 0.232977
vt 0.125000 0.232977
vt 0.156250 0.232977
vt 0.187500 0.232977
vt 0.218750 0.232977
vt 0.250000 0.232977
vt 0.281250 0.232977
vt 0.312500 0.232977
vt 0.343750 0.232977
vt 0.375000 0.232977
vt 0.406250 0.232977
vt 0.437500 0.232977
vt 0.468750 0.232977
vt 0.500000 0.232977
vt 0.531250 0.232977
vt 0.562500 0.232977
vt 0.593750 0.232977
vt 0.625000 0.232977
vt 0.656250 0.232977
vt 0.687500 0.232977
vt 0.718750 0.232977
vt 0.750000 0.232977
vt 0.781250 0.232977
vt 0.812500 0.232977
vt 0.843750 0.232977
vt 0.875000 0.232977
vt 0.906250 0.232977
vt 0.937500 0.232977
vt 0.968750 0.232977
vt 1.000000 0.232977
vt 0.031250 0.775983
vt 0.000000 0.775983
vt 0.062500 0.775983
vt 0.093750 0.775983
vt 0.125000 0.775983
vt 0.156250 0.775983
vt 0.187500 0.775983
vt 0.218750 0.775983
vt 0.250000 0.775983
vt 0.281250 0.775983
vt 0.312500 0.775983
vt 0.343750 0.775983
vt 0.375000 0.775983
vt 0.406250 0.775983
vt 0.437500 0.775983
vt 0.468750 0.775983
vt 0.500000 0.775983
vt 0.531250 0.775983
vt 0.562500 0.775983
vt 0.593750 0.775983
vt 0.625000 0.775983
vt 0.656250 0.775983
vt 0.687500 0.775983
vt 0.718750 0.775983
vt 0.750000 0.775983
vt 0.781250 0.775983
vt 0.812500 0.775983
vt 0.843750 0.775983
vt 0.875000 0.775983
vt 0.906250 0.775983
vt 0.937500 0.775983
vt 0.968750 0.775983
vt 1.000000 0.775983
vt 0.500000 0.500000
o cable
usemtl core
f 1/1/1 2/2/1 3/3/1 4/4/1
f 2/2/2 5/5/2 6/6/2 3/3/2
f 5/5/3 7/7/3 8/8/3 6/6/3
f 7/7/4 9/9/4 10/10/4 8/8/4
f 9/9/5 11/11/5 12/12/5 10/10/5
f 11/11/6 13/13/6 14/14/6 12/12/6
f 13/13/7 15/15/7 16/16/7 14/14/7
f 15/15/8 17/17/8 18/18/8 16/16/8
f 17/17/9 19/19/9 20/20/9 18/18/9
f 19/19/10 21/21/10 22/22/10 20/20/10
f 21/21/11 23/23/11 24/24/11 22/22/11
f 23/23/12 25/25/12 26/26/12 24/24/12
f 25/25/13 27/27/13 28/28/13 26/26/13
f 27/27/14 29/29/14 30/30/14 28/28/14
f 29/29/15 31/31/15 32/32/15 30/30/15
f 31/31/16 33/33/16 34/34/16 32/32/16
f 33/33/17 35/35/17 36/36/17 34/34/17
f 35/35/18 37/37/18 38/38/18 36/36/18
f 37/37/19 39/39/19 40/40/19 38/38/19
f 39/39/20 41/41/20 42/42/20 40/40/20
f 41/41/21 43/43/21 44/44/21 42/42/21
f 43/43/22 45/45/22 46/46/22 44/44/22
f 45/45/23 47/47/23 48/48/23 46/46/23
f 47/47/24 49/49/24 50/50/24 48/48/24
f 49/49/25 51/51/25 52/52/25 50/50/25
f 51/51/26 53/53/26 54/54/26 52/52/26
f 53/53/27 55/55/27 56/56/27 54/54/27
f 55/55/28 57/57/28 58/58/28 56/56/28
f 57/57/29 59/59/29 60/60/29 58/58/29
f 59/59/30 61/61/30 62/62/30 60/60/30
f 61/61/31 63/63/31 64/64/31 62/62/31
f 63/63/32 1/65/32 4/66/32 64/64/32
f 4/4/33 3/3/33 65/67/33 66/68/33
f 3/3/34 6/6/34 67/69/34 65/67/34
f 6/6/35 8/8/35 68/70/35 67/69/35
f 8/8/36 10/10/36 69/71/36 68/70/36
f 10/10/37 12/12/37 70/72/37 69/71/37
f 12/12/38 14/14/38 71/73/38 70/72/38
f 14/14/39 16/16/39 72/74/39 71/73/39
f 16/16/40 18/18/40 73/75/40 72/74/40
f 18/18/41 20/20/41 74/76/41 73/75/41
f 20/20/42 22/22/42 75/77/42 74/76/42
f 22/22/43 24/24/43 76/78/43 75/77/43
f 24/24/44 26/26/44 77/79/44 76/78/44
f 26/26/45 28/28/45 78/80/45 77/79/45
f 28/28/46 30/30/46 79/81/46 78/80/46
f 30/30/47 32/32/47 80/82/47 79/81/47
f 32/32/48 34/34/48 81/83/48 80/82/48
f 34/34/49 36/36/49 82/84/49 81/83/49
f 36/36/50 38/38/50 83/85/50 82/84/50
f 38/38/51 40/40/51 84/86/51 83/85/51
f 40/40/52 42/42/52 85/87/52 84/86/52
f 42/42/53 44/44/53 86/88/53 85/87/53
f 44/44/54 46/46/54 87/89/54 86/88/54
f 46/46/55 48/48/55 88/90/55 87/89/55
f 48/48/56 50/50/56 89/91/56 88/90/56
f 50/50/57 52/52/57 90/92/57 89/91/57
f 52/52/58 54/54/58 91/93/58 90/92/58
f 54/54/59 56/56/59 92/94/59 91/93/59
f 56/56/60 58/58/60 93/95/60 92/94/60
f 58/58/61 60/60/61 94/96/61 93/95/61
f 60/60/62 62/62/62 95/97/62 94/96/62
f 62/62/63 64/64/63 96/98/63 95/97/63
f 64/64/64 4/66/64 66/99/64 96/98/64
f 66/68/33 65/67/33 97/100/33 98/101/33
f 65/67/34 67/69/34 99/102/34 97/100/34
f 67/69/35 68/70/35 100/103/35 99/102/35
f 68/70/36 69/71/36 101/104/36 100/103/36
f 69/71/37 70/72/37 102/105/37 101/104/37
f 70/72/38 71/73/38 103/106/38 102/105/38
f 71/73/39 72/74/39 104/107/39 103/106/39
f 72/74/40 73/75/40 105/108/40 104/107/40
f 73/75/41 74/76/41 106/109/41 105/108/41
f 74/76/42 75/77/42 107/110/42 106/109/42
f 75/77/43 76/78/43 108/111/43 107/110/43
f 76/78/44 77/79/44 109/112/44 108/111/44
f 77/79/45 78/80/45 110/113/45 109/112/45
f 78/80/46 79/81/46 111/114/46 110/113/46
f 79/81/47 80/82/47 112/115/47 111/114/47
f 80/82/48 81/83/48 113/116/48 112/115/48
f 81/83/49 82/84/49 114/117/49 113/116/49
f 82/84/50 83/85/50 115/118/50 114/117/50
f 83/85/51 84/86/51 116/119/51 115/118/51
f 84/86/52 85/87/52 117/120/52 116/119/52
f 85/87/53 86/88/53 118/121/53 117/120/53
f 86/88/54 87/89/54 119/122/54 118/121/54
f 87/89/55 88/90/55 120/123/55 119/122/55
f 88/90/56 89/91/56 121/124/56 120/123/56
f 89/91/57 90/92/57 122/125/57 121/124/57
f 90/92/58 91/93/58 123/126/58 122/125/58
f 91/93/59 92/94/59 124/127/59 123/126/59
f 92/94/60 93/95/60 125/128/60 124/127/60
f 93/95/61 94/96/61 126/129/61 125/128/61
f 94/96/62 95/97/62 127/130/62 126/129/62
f 95/97/63 96/98/63 128/131/63 127/130/63
f 96/98/64 66/99/64 98/132/64 128/131/64
f 98/133/65 97/134/65 99/135/65 100/136/65 101/137/65 102/138/65 103/139/65 104/140/65 105/116/65 106/141/65 107/142/65 108/143/65 109/144/65 110/145/65 111/146/65 112/147/65 113/148/65 114/149/65 115/150/65 116/151/65 117/152/65 118/153/65 119/154/65 120/155/65 121/33/65 122/156/65 123/157/65 124/158/65 125/159/65 126/160/65 127/161/65 128/162/65
f 481/1/1 482/2/1 483/423/1 484/424/1
f 482/2/2 485/5/2 486/425/2 483/423/2
f 485/5/3 487/7/3 488/426/3 486/425/3
f 487/7/4 489/9/4 490/427/4 488/426/4
f 489/9/5 491/11/5 492/428/5 490/427/5
f 491/11/6 493/13/6 494/429/6 492/428/6
f 493/13/7 495/15/7 496/430/7 494/429/7
f 495/15/8 497/17/8 498/431/8 496/430/8
f 497/17/9 499/19/9 500/432/9 498/431/9
f 499/19/10 501/21/10 502/433/10 500/432/10
f 501/21/11 503/23/11 504/434/11 502/433/11
f 503/23/12 505/25/12 506/435/12 504/434/12
f 505/25/13 507/27/13 508/436/13 506/435/13
f 507/27/14 509/29/14 510/437/14 508/436/14
f 509/29/15 511/31/15 512/438/15 510/437/15
f 511/31/16 513/33/16 514/439/16 512/438/16
f 513/33/17 515/35/17 516/440/17 514/439/17
f 515/35/18 517/37/18 518/441/18 516/440/18
f 517/37/19 519/39/19 520/442/19 518/441/19
f 519/39/20 521/41/20 522/443/20 520/442/20
f 521/41/21 523/43/21 524/444/21 522/443/21
f 523/43/22 525/45/22 526/445/22 524/444/22
f 525/45/23 527/47/23 528/446/23 526/445/23
f 527/47/24 529/49/24 530/447/24 528/446/24
f 529/49/25 531/51/25 532/448/25 530/447/25
f 531/51/26 533/53/26 534/449/26 532/448/26
f 533/53/27 535/55/27 536/450/27 534/449/27
f 535/55/28 537/57/28 538/451/28 536/450/28
f 537/57/29 539/59/29 540/452/29 538/451/29
f 539/59/30 541/61/30 542/453/30 540/452/30
f 541/61/31 543/63/31 544/454/31 542/453/31
f 543/63/32 481/65/32 484/455/32 544/454/32
f 484/424/163 483/423/163 545/456/163 546/457/163
f 483/423/164 486/425/164 547/458/164 545/456/164
f 486/425/165 488/426/165 548/459/165 547/458/165
f 488/426/166 490/427/166 549/460/166 548/459/166
f 490/427/167 492/428/167 550/461/167 549/460/167
f 492/428/168 494/429/168 551/462/168 550/461/168
f 494/429/169 496/430/169 552/463/169 551/462/169
f 496/430/170 498/431/170 553/464/170 552/463/170
f 498/431/171 500/432/171 554/465/171 553/464/171
f 500/432/172 502/433/172 555/466/172 554/465/172
f 502/433/173 504/434/173 556/467/173 555/466/173
f 504/434/174 506/435/174 557/468/174 556/467/174
f 506/435/175 508/436/175 558/469/175 557/468/175
f 508/436/176 510/437/176 559/470/176 558/469/176
f 510/437/177 512/438/177 560/471/177 559/470/177
f 512/438/178 514/439/178 561/472/178 560/471/178
f 514/439/179 516/440/179 562/473/179 561/472/179
f 516/440/180 518/441/180 563/474/180 562/473/180
f 518/441/181 520/442/181 564/475/181 563/474/181
f 520/442/182 522/443/182 565/476/182 564/475/182
f 522/443/183 524/444/183 566/477/183 565/476/183
f 524/444/184 526/445/184 567/478/184 566/477/184
f 526/445/185 528/446/185 568/479/185 567/478/185
f 528/446/186 530/447/186 569/480/186 568/479/186
f 530/447/187 532/448/187 570/481/187 569/480/187
f 532/448/188 534/449/188 571/482/188 570/481/188
f 534/449/189 536/450/189 572/483/189 571/482/189
f 536/450/190 538/451/190 573/484/190 572/483/190
f 538/451/191 540/452/191 574/485/191 573/484/191
f 540/452/192 542/453/192 575/486/192 574/485/192
f 542/453/193 544/454/193 576/487/193 575/486/193
f 544/454/194 484/455/194 546/488/194 576/487/194
f 546/457/163 545/456/163 577/100/163 578/101/163
f 545/456/164 547/458/164 579/102/164 577/100/164
f 547/458/165 548/459/165 580/103/165 579/102/165
f 548/459/166 549/460/166 581/104/166 580/103/166
f 549/460/167 550/461/167 582/105/167 581/104/167
f 550/461/168 551/462/168 583/106/168 582/105/168
f 551/462/169 552/463/169 584/107/169 583/106/169
f 552/463/170 553/464/170 585/108/170 584/107/170
f 553/464/171 554/465/171 586/109/171 585/108/171
f 554/465/172 555/466/172 587/110/172 586/109/172
f 555/466/173 556/467/173 588/111/173 587/110/173
f 556/467/174 557/468/174 589/112/174 588/111/174
f 557/468/175 558/469/175 590/113/175 589/112/175
f 558/469/176 559/470/176 591/114/176 590/113/176
f 559/470/177 560/471/177 592/115/177 591/114/177
f 560/471/178 561/472/178 593/116/178 592/115/178
f 561/472/179 562/473/179 594/117/179 593/116/179
f 562/473/180 563/474/180 595/118/180 594/117/180
f 563/474/181 564/475/181 596/119/181 595/118/181
f 564/475/182 565/476/182 597/120/182 596/119/182
f 565/476/183 566/477/183 598/121/183 597/120/183
f 566/477/184 567/478/184 599/122/184 598/121/184
f 567/478/185 568/479/185 600/123/185 599/122/185
f 568/479/186 569/480/186 601/124/186 600/123/186
f 569/480/187 570/481/187 602/125/187 601/124/187
f 570/481/188 571/482/188 603/126/188 602/125/188
f 571/482/189 572/483/189 604/127/189 603/126/189
f 572/483/190 573/484/190 605/128/190 604/127/190
f 573/484/191 574/485/191 606/129/191 605/128/191
f 574/485/192 575/486/192 607/130/192 606/129/192
f 575/486/193 576/487/193 608/131/193 607/130/193
f 576/487/194 546/488/194 578/132/194 608/131/194
f 578/133/65 577/134/65 579/135/65 580/136/65 581/137/65 582/138/65 583/139/65 584/140/65 585/116/65 586/141/65 587/142/65 588/143/65 589/144/65 590/145/65 591/146/65 592/147/65 593/148/65 594/149/65 595/150/65 596/151/65 597/152/65 598/153/65 599/154/65 600/155/65 601/33/65 602/156/65 603/157/65 604/158/65 605/159/65 606/160/65 607/161/65 608/162/65
o plug_plus
usemtl plug_plus
f 129/1/66 130/2/66 131/163/66 132/164/66
f 130/2/67 133/5/67 134/165/67 131/163/67
f 133/5/68 135/7/68 136/166/68 134/165/68
f 135/7/69 137/9/69 138/167/69 136/166/69
f 137/9/70 139/11/70 140/168/70 138/167/70
f 139/11/71 141/13/71 142/169/71 140/168/71
f 141/13/72 143/15/72 144/170/72 142/169/72
f 143/15/73 145/17/73 146/171/73 144/170/73
f 145/17/74 147/19/74 148/172/74 146/171/74
f 147/19/75 149/21/75 150/173/75 148/172/75
f 149/21/76 151/23/76 152/174/76 150/173/76
f 151/23/77 153/25/77 154/175/77 152/174/77
f 153/25/78 155/27/78 156/176/78 154/175/78
f 155/27/79 157/29/79 158/177/79 156/176/79
f 157/29/80 159/31/80 160/178/80 158/177/80
f 159/31/81 161/33/81 162/179/81 160/178/81
f 161/33/82 163/35/82 164/180/82 162/179/82
f 163/35/83 165/37/83 166/181/83 164/180/83
f 165/37/84 167/39/84 168/182/84 166/181/84
f 167/39/85 169/41/85 170/183/85 168/182/85
f 169/41/86 171/43/86 172/184/86 170/183/86
f 171/43/87 173/45/87 174/185/87 172/184/87
f 173/45/88 175/47/88 176/186/88 174/185/88
f 175/47/89 177/49/89 178/187/89 176/186/89
f 177/49/90 179/51/90 180/188/90 178/187/90
f 179/51/91 181/53/91 182/189/91 180/188/91
f 181/53/92 183/55/92 184/190/92 182/189/92
f 183/55/93 185/57/93 186/191/93 184/190/93
f 185/57/94 187/59/94 188/192/94 186/191/94
f 187/59/95 189/61/95 190/193/95 188/192/95
f 189/61/96 191/63/96 192/194/96 190/193/96
f 191/63/97 129/65/97 132/195/97 192/194/97
f 191/196/98 189/197/98 187/198/98 185/199/98
f 191/196/98 185/199/98 183/200/98 181/201/98
f 191/196/98 181/201/98 179/202/98 177/203/98
f 191/196/98 177/203/98 175/204/98 173/205/98
f 191/196/98 173/205/98 171/206/98 169/207/98
f 191/196/98 169/207/98 167/208/98 165/209/98
f 191/196/98 165/209/98 163/210/98 161/211/98
f 191/196/98 161/211/98 159/212/98 157/213/98
f 191/196/98 157/213/98 155/214/98 153/215/98
f 191/196/98 153/215/98 151/216/98 149/217/98
f 191/196/98 149/217/98 147/218/98 145/219/98
f 191/196/98 145/219/98 143/220/98 141/221/98
f 191/196/98 141/221/98 139/222/98 137/223/98
f 191/196/98 137/223/98 135/224/98 133/225/98
f 191/196/98 133/225/98 130/226/98 129/227/98
f 193/164/99 194/163/99 195/228/99 196/229/99
f 194/163/100 197/165/100 198/230/100 195/228/100
f 197/165/101 199/166/101 200/231/101 198/230/101
f 199/166/102 201/167/102 202/232/102 200/231/102
f 201/167/103 203/168/103 204/233/103 202/232/103
f 203/168/104 205/169/104 206/234/104 204/233/104
f 205/169/105 207/170/105 208/235/105 206/234/105
f 207/170/106 209/171/106 210/236/106 208/235/106
f 209/171/107 211/172/107 212/237/107 210/236/107
f 211/172/108 213/173/108 214/238/108 212/237/108
f 213/173/109 215/174/109 216/239/109 214/238/109
f 215/174/110 217/175/110 218/240/110 216/239/110
f 217/175/111 219/176/111 220/241/111 218/240/111
f 219/176/112 221/177/112 222/242/112 220/241/112
f 221/177/113 223/178/113 224/243/113 222/242/113
f 223/178/114 225/179/114 226/244/114 224/243/114
f 225/179/115 227/180/115 228/245/115 226/244/115
f 227/180/116 229/181/116 230/246/116 228/245/116
f 229/181/117 231/182/117 232/247/117 230/246/117
f 231/182/118 233/183/118 234/248/118 232/247/118
f 233/183/119 235/184/119 236/249/119 234/248/119
f 235/184/120 237/185/120 238/250/120 236/249/120
f 237/185/121 239/186/121 240/251/121 238/250/121
f 239/186/122 241/187/122 242/252/122 240/251/122
f 241/187/123 243/188/123 244/253/123 242/252/123
f 243/188/124 245/189/124 246/254/124 244/253/124
f 245/189/125 247/190/125 248/255/125 246/254/125
f 247/190/126 249/191/126 250/256/126 248/255/126
f 249/191/127 251/192/127 252/257/127 250/256/127
f 251/192/128 253/193/128 254/258/128 252/257/128
f 253/193/129 255/194/129 256/259/129 254/258/129
f 255/194/130 193/195/130 196/260/130 256/259/130
f 255/261/98 253/262/98 251/263/98 249/264/98
f 255/261/98 249/264/98 247/265/98 245/266/98
f 255/261/98 245/266/98 243/267/98 241/268/98
f 255/261/98 241/268/98 239/269/98 237/270/98
f 255/261/98 237/270/98 235/271/98 233/272/98
f 255/261/98 233/272/98 231/273/98 229/274/98
f 255/261/98 229/274/98 227/275/98 225/276/98
f 255/261/98 225/276/98 223/277/98 221/278/98
f 255/261/98 221/278/98 219/279/98 217/280/98
f 255/261/98 217/280/98 215/281/98 213/282/98
f 255/261/98 213/282/98 211/283/98 209/284/98
f 255/261/98 209/284/98 207/285/98 205/286/98
f 255/261/98 205/286/98 203/287/98 201/288/98
f 255/261/98 201/288/98 199/289/98 197/290/98
f 255/261/98 197/290/98 194/291/98 193/292/98
f 196/292/65 195/291/65 198/290/65 200/289/65
f 196/292/65 200/289/65 202/288/65 204/287/65
f 196/292/65 204/287/65 206/286/65 208/285/65
f 196/292/65 208/285/65 210/284/65 212/283/65
f 196/292/65 212/283/65 214/282/65 216/281/65
f 196/292/65 216/281/65 218/280/65 220/279/65
f 196/292/65 220/279/65 222/278/65 224/277/65
f 196/292/65 224/277/65 226/276/65 228/275/65
f 196/292/65 228/275/65 230/274/65 232/273/65
f 196/292/65 232/273/65 234/272/65 236/271/65
f 196/292/65 236/271/65 238/270/65 240/269/65
f 196/292/65 240/269/65 242/268/65 244/267/65
f 196/292/65 244/267/65 246/266/65 248/265/65
f 196/292/65 248/265/65 250/264/65 252/263/65
f 196/292/65 252/263/65 254/262/65 256/261/65
f 257/229/99 258/228/99 259/293/99 260/294/99
f 258/228/100 261/230/100 262/295/100 259/293/100
f 261/230/101 263/231/101 264/296/101 262/295/101
f 263/231/102 265/232/102 266/297/102 264/296/102
f 265/232/103 267/233/103 268/298/103 266/297/103
f 267/233/104 269/234/104 270/299/104 268/298/104
f 269/234/105 271/235/105 272/300/105 270/299/105
f 271/235/106 273/236/106 274/301/106 272/300/106
f 273/236/107 275/237/107 276/302/107 274/301/107
f 275/237/108 277/238/108 278/303/108 276/302/108
f 277/238/109 279/239/109 280/304/109 278/303/109
f 279/239/110 281/240/110 282/305/110 280/304/110
f 281/240/111 283/241/111 284/306/111 282/305/111
f 283/241/112 285/242/112 286/307/112 284/306/112
f 285/242/113 287/243/113 288/308/113 286/307/113
f 287/243/114 289/244/114 290/309/114 288/308/114
f 289/244/115 291/245/115 292/310/115 290/309/115
f 291/245/116 293/246/116 294/311/116 292/310/116
f 293/246/117 295/247/117 296/312/117 294/311/117
f 295/247/118 297/248/118 298/313/118 296/312/118
f 297/248/119 299/249/119 300/314/119 298/313/119
f 299/249/120 301/250/120 302/315/120 300/314/120
f 301/250/121 303/251/121 304/316/121 302/315/121
f 303/251/122 305/252/122 306/317/122 304/316/122
f 305/252/123 307/253/123 308/318/123 306/317/123
f 307/253/124 309/254/124 310/319/124 308/318/124
f 309/254/125 311/255/125 312/320/125 310/319/125
f 311/255/126 313/256/126 314/321/126 312/320/126
f 313/256/127 315/257/127 316/322/127 314/321/127
f 315/257/128 317/258/128 318/323/128 316/322/128
f 317/258/129 319/259/129 320/324/129 318/323/129
f 319/259/130 257/260/130 260/325/130 320/324/130
f 321/294/99 322/293/99 323/326/99 324/327/99
f 322/293/100 325/295/100 326/328/100 323/326/100
f 325/295/101 327/296/101 328/329/101 326/328/101
f 327/296/102 329/297/102 330/330/102 328/329/102
f 329/297/103 331/298/103 332/331/103 330/330/103
f 331/298/104 333/299/104 334/332/104 332/331/104
f 333/299/105 335/300/105 336/333/105 334/332/105
f 335/300/106 337/301/106 338/334/106 336/333/106
f 337/301/107 339/302/107 340/335/107 338/334/107
f 339/302/108 341/303/108 342/336/108 340/335/108
f 341/303/109 343/304/109 344/337/109 342/336/109
f 343/304/110 345/305/110 346/338/110 344/337/110
f 345/305/111 347/306/111 348/339/111 346/338/111
f 347/306/112 349/307/112 350/340/112 348/339/112
f 349/307/113 351/308/113 352/341/113 350/340/113
f 351/308/114 353/309/114 354/342/114 352/341/114
f 353/309/115 355/310/115 356/343/115 354/342/115
f 355/310/116 357/311/116 358/344/116 356/343/116
f 357/311/117 359/312/117 360/345/117 358/344/117
f 359/312/118 361/313/118 362/346/118 360/345/118
f 361/313/119 363/314/119 364/347/119 362/346/119
f 363/314/120 365/315/120 366/348/120 364/347/120
f 365/315/121 367/316/121 368/349/121 366/348/121
f 367/316/122 369/317/122 370/350/122 368/349/122
f 369/317/123 371/318/123 372/351/123 370/350/123
f 371/318/124 373/319/124 374/352/124 372/351/124
f 373/319/125 375/320/125 376/353/125 374/352/125
f 375/320/126 377/321/126 378/354/126 376/353/126
f 377/321/127 379/322/127 380/355/127 378/354/127
f 379/322/128 381/323/128 382/356/128 380/355/128
f 381/323/129 383/324/129 384/357/129 382/356/129
f 383/324/130 321/325/130 324/358/130 384/357/130
f 383/359/98 381/360/98 379/361/98 377/362/98
f 383/359/98 377/362/98 375/363/98 373/364/98
f 383/359/98 373/364/98 371/365/98 369/366/98
f 383/359/98 369/366/98 367/367/98 365/368/98
f 383/359/98 365/368/98 363/369/98 361/370/98
f 383/359/98 361/370/98 359/371/98 357/372/98
f 383/359/98 357/372/98 355/373/98 353/374/98
f 383/359/98 353/374/98 351/375/98 349/376/98
f 383/359/98 349/376/98 347/377/98 345/378/98
f 383/359/98 345/378/98 343/379/98 341/380/98
f 383/359/98 341/380/98 339/381/98 337/382/98
f 383/359/98 337/382/98 335/383/98 333/384/98
f 383/359/98 333/384/98 331/385/98 329/386/98
f 383/359/98 329/386/98 327/387/98 325/388/98
f 383/359/98 325/388/98 322/389/98 321/390/98
f 324/327/131 323/326/131 385/100/131 386/101/131
f 323/326/132 326/328/132 387/102/132 385/100/132
f 326/328/133 328/329/133 388/103/133 387/102/133
f 328/329/134 330/330/134 389/104/134 388/103/134
f 330/330/135 332/331/135 390/105/135 389/104/135
f 332/331/136 334/332/136 391/106/136 390/105/136
f 334/332/137 336/333/137 392/107/137 391/106/137
f 336/333/138 338/334/138 393/108/138 392/107/138
f 338/334/139 340/335/139 394/109/139 393/108/139
f 340/335/140 342/336/140 395/110/140 394/109/140
f 342/336/141 344/337/141 396/111/141 395/110/141
f 344/337/142 346/338/142 397/112/142 396/111/142
f 346/338/143 348/339/143 398/113/143 397/112/143
f 348/339/144 350/340/144 399/114/144 398/113/144
f 350/340/145 352/341/145 400/115/145 399/114/145
f 352/341/146 354/342/146 401/116/146 400/115/146
f 354/342/147 356/343/147 402/117/147 401/116/147
f 356/343/148 358/344/148 403/118/148 402/117/148
f 358/344/149 360/345/149 404/119/149 403/118/149
f 360/345/150 362/346/150 405/120/150 404/119/150
f 362/346/151 364/347/151 406/121/151 405/120/151
f 364/347/152 366/348/152 407/122/152 406/121/152
f 366/348/153 368/349/153 408/123/153 407/122/153
f 368/349/154 370/350/154 409/124/154 408/123/154
f 370/350/155 372/351/155 410/125/155 409/124/155
f 372/351/156 374/352/156 411/126/156 410/125/156
f 374/352/157 376/353/157 412/127/157 411/126/157
f 376/353/158 378/354/158 413/128/158 412/127/158
f 378/354/159 380/355/159 414/129/159 413/128/159
f 380/355/160 382/356/160 415/130/160 414/129/160
f 382/356/161 384/357/161 416/131/161 415/130/161
f 384/357/162 324/358/162 386/132/162 416/131/162
f 386/391/65 385/392/65 387/393/65 388/394/65
f 386/391/65 388/394/65 389/395/65 390/396/65
f 386/391/65 390/396/65 391/397/65 392/398/65
f 386/391/65 392/398/65 393/399/65 394/400/65
f 386/391/65 394/400/65 395/401/65 396/402/65
f 386/391/65 396/402/65 397/403/65 398/404/65
f 386/391/65 398/404/65 399/405/65 400/406/65
f 386/391/65 400/406/65 401/407/65 402/408/65
f 386/391/65 402/408/65 403/409/65 404/410/65
f 386/391/65 404/410/65 405/411/65 406/412/65
f 386/391/65 406/412/65 407/413/65 408/414/65
f 386/391/65 408/414/65 409/415/65 410/416/65
f 386/391/65 410/416/65 411/417/65 412/418/65
f 386/391/65 412/418/65 413/419/65 414/420/65
f 386/391/65 414/420/65 415/421/65 416/422/65
f 417/327/99 418/326/99 419/100/99 420/101/99
f 418/326/100 421/328/100 422/102/100 419/100/100
f 421/328/101 423/329/101 424/103/101 422/102/101
f 423/329/102 425/330/102 426/104/102 424/103/102
f 425/330/103 427/331/103 428/105/103 426/104/103
f 427/331/104 429/332/104 430/106/104 428/105/104
f 429/332/105 431/333/105 432/107/105 430/106/105
f 431/333/106 433/334/106 434/108/106 432/107/106
f 433/334/107 435/335/107 436/109/107 434/108/107
f 435/335/108 437/336/108 438/110/108 436/109/108
f 437/336/109 439/337/109 440/111/109 438/110/109
f 439/337/110 441/338/110 442/112/110 440/111/110
f 441/338/111 443/339/111 444/113/111 442/112/111
f 443/339/112 445/340/112 446/114/112 444/113/112
f 445/340/113 447/341/113 448/115/113 446/114/113
f 447/341/114 449/342/114 450/116/114 448/115/114
f 449/342/115 451/343/115 452/117/115 450/116/115
f 451/343/116 453/344/116 454/118/116 452/117/116
f 453/344/117 455/345/117 456/119/117 454/118/117
f 455/345/118 457/346/118 458/120/118 456/119/118
f 457/346/119 459/347/119 460/121/119 458/120/119
f 459/347/120 461/348/120 462/122/120 460/121/120
f 461/348/121 463/349/121 464/123/121 462/122/121
f 463/349/122 465/350/122 466/124/122 464/123/122
f 465/350/123 467/351/123 468/125/123 466/124/123
f 467/351/124 469/352/124 470/126/124 468/125/124
f 469/352/125 471/353/125 472/127/125 470/126/125
f 471/353/126 473/354/126 474/128/126 472/127/126
f 473/354/127 475/355/127 476/129/127 474/128/127
f 475/355/128 477/356/128 478/130/128 476/129/128
f 477/356/129 479/357/129 480/131/129 478/130/129
f 479/357/130 417/358/130 420/132/130 480/131/130
f 420/391/65 419/392/65 422/393/65 424/394/65
f 420/391/65 424/394/65 426/395/65 428/396/65
f 420/391/65 428/396/65 430/397/65 432/398/65
f 420/391/65 432/398/65 434/399/65 436/400/65
f 420/391/65 436/400/65 438/401/65 440/402/65
f 420/391/65 440/402/65 442/403/65 444/404/65
f 420/391/65 444/404/65 446/405/65 448/406/65
f 420/391/65 448/406/65 450/407/65 452/408/65
f 420/391/65 452/408/65 454/409/65 456/410/65
f 420/391/65 456/410/65 458/411/65 460/412/65
f 420/391/65 460/412/65 462/413/65 464/414/65
f 420/391/65 464/414/65 466/415/65 468/416/65
f 420/391/65 468/416/65 470/417/65 472/418/65
f 420/391/65 472/418/65 474/419/65 476/420/65
f 420/391/65 476/420/65 478/421/65 480/422/65
o plug_minus
usemtl plug_minus
f 609/1/66 610/2/66 611/163/66 612/164/66
f 610/2/67 613/5/67 614/165/67 611/163/67
f 613/5/68 615/7/68 616/166/68 614/165/68
f 615/7/69 617/9/69 618/167/69 616/166/69
f 617/9/70 619/11/70 620/168/70 618/167/70
f 619/11/71 621/13/71 622/169/71 620/168/71
f 621/13/72 623/15/72 624/170/72 622/169/72
f 623/15/73 625/17/73 626/171/73 624/170/73
f 625/17/74 627/19/74 628/172/74 626/171/74
f 627/19/75 629/21/75 630/173/75 628/172/75
f 629/21/76 631/23/76 632/174/76 630/173/76
f 631/23/77 633/25/77 634/175/77 632/174/77
f 633/25/78 635/27/78 636/176/78 634/175/78
f 635/27/79 637/29/79 638/177/79 636/176/79
f 637/29/80 639/31/80 640/178/80 638/177/80
f 639/31/81 641/33/81 642/179/81 640/178/81
f 641/33/82 643/35/82 644/180/82 642/179/82
f 643/35/83 645/37/83 646/181/83 644/180/83
f 645/37/84 647/39/84 648/182/84 646/181/84
f 647/39/85 649/41/85 650/183/85 648/182/85
f 649/41/86 651/43/86 652/184/86 650/183/86
f 651/43/87 653/45/87 654/185/87 652/184/87
f 653/45/88 655/47/88 656/186/88 654/185/88
f 655/47/89 657/49/89 658/187/89 656/186/89
f 657/49/90 659/51/90 660/188/90 658/187/90
f 659/51/91 661/53/91 662/189/91 660/188/91
f 661/53/92 663/55/92 664/190/92 662/189/92
f 663/55/93 665/57/93 666/191/93 664/190/93
f 665/57/94 667/59/94 668/192/94 666/191/94
f 667/59/95 669/61/95 670/193/95 668/192/95
f 669/61/96 671/63/96 672/194/96 670/193/96
f 671/63/97 609/65/97 612/195/97 672/194/97
f 671/196/98 669/197/98 667/198/98 665/199/98
f 671/196/98 665/199/98 663/200/98 661/201/98
f 671/196/98 661/201/98 659/202/98 657/203/98
f 671/196/98 657/203/98 655/204/98 653/205/98
f 671/196/98 653/205/98 651/206/98 649/207/98
f 671/196/98 649/207/98 647/208/98 645/209/98
f 671/196/98 645/209/98 643/210/98 641/211/98
f 671/196/98 641/211/98 639/212/98 637/213/98
f 671/196/98 637/213/98 635/214/98 633/215/98
f 671/196/98 633/215/98 631/216/98 629/217/98
f 671/196/98 629/217/98 627/218/98 625/219/98
f 671/196/98 625/219/98 623/220/98 621/221/98
f 671/196/98 621/221/98 619/222/98 617/223/98
f 671/196/98 617/223/98 615/224/98 613/225/98
f 671/196/98 613/225/98 610/226/98 609/227/98
f 673/164/99 674/163/99 675/228/99 676/229/99
f 674/163/100 677/165/100 678/230/100 675/228/100
f 677/165/101 679/166/101 680/231/101 678/230/101
f 679/166/102 681/167/102 682/232/102 680/231/102
f 681/167/103 683/168/103 684/233/103 682/232/103
f 683/168/104 685/169/104 686/234/104 684/233/104
f 685/169/105 687/170/105 688/235/105 686/234/105
f 687/170/106 689/171/106 690/236/106 688/235/106
f 689/171/107 691/172/107 692/237/107 690/236/107
f 691/172/108 693/173/108 694/238/108 692/237/108
f 693/173/109 695/174/109 696/239/109 694/238/109
f 695/174/110 697/175/110 698/240/110 696/239/110
f 697/175/111 699/176/111 700/241/111 698/240/111
f 699/176/112 701/177/112 702/242/112 700/241/112
f 701/177/113 703/178/113 704/243/113 702/242/113
f 703/178/114 705/179/114 706/244/114 704/243/114
f 705/179/115 707/180/115 708/245/115 706/244/115
f 707/180/116 709/181/116 710/246/116 708/245/116
f 709/181/117 711/182/117 712/247/117 710/246/117
f 711/182/118 713/183/118 714/248/118 712/247/118
f 713/183/119 715/184/119 716/249/119 714/248/119
f 715/184/120 717/185/120 718/250/120 716/249/120
f 717/185/121 719/186/121 720/251/121 718/250/121
f 719/186/122 721/187/122 722/252/122 720/251/122
f 721/187/123 723/188/123 724/253/123 722/252/123
f 723/188/124 725/189/124 726/254/124 724/253/124
f 725/189/125 727/190/125 728/255/125 726/254/125
f 727/190/126 729/191/126 730/256/126 728/255/126
f 729/191/127 731/192/127 732/257/127 730/256/127
f 731/192/128 733/193/128 734/258/128 732/257/128
f 733/193/129 735/194/129 736/259/129 734/258/129
f 735/194/130 673/195/130 676/260/130 736/259/130
f 735/261/98 733/262/98 731/263/98 729/264/98
f 735/261/98 729/264/98 727/265/98 725/266/98
f 735/261/98 725/266/98 723/267/98 721/268/98
f 735/261/98 721/268/98 719/269/98 717/270/98
f 735/261/98 717/270/98 715/271/98 713/272/98
f 735/261/98 713/272/98 711/273/98 709/274/98
f 735/261/98 709/274/98 707/275/98 705/276/98
f 735/261/98 705/276/98 703/277/98 701/278/98
f 735/261/98 701/278/98 699/279/98 697/280/98
f 735/261/98 697/280/98 695/281/98 693/282/98
f 735/261/98 693/282/98 691/283/98 689/284/98
f 735/261/98 689/284/98 687/285/98 685/286/98
f 735/261/98 685/286/98 683/287/98 681/288/98
f 735/261/98 681/288/98 679/289/98 677/290/98
f 735/261/98 677/290/98 674/291/98 673/292/98
f 676/292/65 675/291/65 678/290/65 680/289/65
f 676/292/65 680/289/65 682/288/65 684/287/65
f 676/292/65 684/287/65 686/286/65 688/285/65
f 676/292/65 688/285/65 690/284/65 692/283/65
f 676/292/65 692/283/65 694/282/65 696/281/65
f 676/292/65 696/281/65 698/280/65 700/279/65
f 676/292/65 700/279/65 702/278/65 704/277/65
f 676/292/65 704/277/65 706/276/65 708/275/65
f 676/292/65 708/275/65 710/274/65 712/273/65
f 676/292/65 712/273/65 714/272/65 716/271/65
f 676/292/65 716/271/65 718/270/65 720/269/65
f 676/292/65 720/269/65 722/268/65 724/267/65
f 676/292/65 724/267/65 726/266/65 728/265/65
f 676/292/65 728/265/65 730/264/65 732/263/65
f 676/292/65 732/263/65 734/262/65 736/261/65
f 737/229/99 738/228/99 739/293/99 740/294/99
f 738/228/100 741/230/100 742/295/100 739/293/100
f 741/230/101 743/231/101 744/296/101 742/295/101
f 743/231/102 745/232/102 746/297/102 744/296/102
f 745/232/103 747/233/103 748/298/103 746/297/103
f 747/233/104 749/234/104 750/299/104 748/298/104
f 749/234/105 751/235/105 752/300/105 750/299/105
f 751/235/106 753/236/106 754/301/106 752/300/106
f 753/236/107 755/237/107 756/302/107 754/301/107
f 755/237/108 757/238/108 758/303/108 756/302/108
f 757/238/109 759/239/109 760/304/109 758/303/109
f 759/239/110 761/240/110 762/305/110 760/304/110
f 761/240/111 763/241/111 764/306/111 762/305/111
f 763/241/112 765/242/112 766/307/112 764/306/112
f 765/242/113 767/243/113 768/308/113 766/307/113
f 767/243/114 769/244/114 770/309/114 768/308/114
f 769/244/115 771/245/115 772/310/115 770/309/115
f 771/245/116 773/246/116 774/311/116 772/310/116
f 773/246/117 775/247/117 776/312/117 774/311/117
f 775/247/118 777/248/118 778/313/118 776/312/118
f 777/248/119 779/249/119 780/314/119 778/313/119
f 779/249/120 781/250/120 782/315/120 780/314/120
f 781/250/121 783/251/121 784/316/121 782/315/121
f 783/251/122 785/252/122 786/317/122 784/316/122
f 785/252/123 787/253/123 788/318/123 786/317/123
f 787/253/124 789/254/124 790/319/124 788/318/124
f 789/254/125 791/255/125 792/320/125 790/319/125
f 791/255/126 793/256/126 794/321/126 792/320/126
f 793/256/127 795/257/127 796/322/127 794/321/127
f 795/257/128 797/258/128 798/323/128 796/322/128
f 797/258/129 799/259/129 800/324/129 798/323/129
f 799/259/130 737/260/130 740/325/130 800/324/130
f 801/294/99 802/293/99 803/326/99 804/327/99
f 802/293/100 805/295/100 806/328/100 803/326/100
f 805/295/101 807/296/101 808/329/101 806/328/101
f 807/296/102 809/297/102 810/330/102 808/329/102
f 809/297/103 811/298/103 812/331/103 810/330/103
f 811/298/104 813/299/104 814/332/104 812/331/104
f 813/299/105 815/300/105 816/333/105 814/332/105
f 815/300/106 817/301/106 818/334/106 816/333/106
f 817/301/107 819/302/107 820/335/107 818/334/107
f 819/302/108 821/303/108 822/336/108 820/335/108
f 821/303/109 823/304/109 824/337/109 822/336/109
f 823/304/110 825/305/110 826/338/110 824/337/110
f 825/305/111 827/306/111 828/339/111 826/338/111
f 827/306/112 829/307/112 830/340/112 828/339/112
f 829/307/113 831/308/113 832/341/113 830/340/113
f 831/308/114 833/309/114 834/342/114 832/341/114
f 833/309/115 835/310/115 836/343/115 834/342/115
f 835/310/116 837/311/116 838/344/116 836/343/116
f 837/311/117 839/312/117 840/345/117 838/344/117
f 839/312/118 841/313/118 842/346/118 840/345/118
f 841/313/119 843/314/119 844/347/119 842/346/119
f 843/314/120 845/315/120 846/348/120 844/347/120
f 845/315/121 847/316/121 848/349/121 846/348/121
f 847/316/122 849/317/122 850/350/122 848/349/122
f 849/317/123 851/318/123 852/351/123 850/350/123
f 851/318/124 853/319/124 854/352/124 852/351/124
f 853/319/125 855/320/125 856/353/125 854/352/125
f 855/320/126 857/321/126 858/354/126 856/353/126
f 857/321/127 859/322/127 860/355/127 858/354/127
f 859/322/128 861/323/128 862/356/128 860/355/128
f 861/323/129 863/324/129 864/357/129 862/356/129
f 863/324/130 801/325/130 804/358/130 864/357/130
f 863/359/98 861/360/98 859/361/98 857/362/98
f 863/359/98 857/362/98 855/363/98 853/364/98
f 863/359/98 853/364/98 851/365/98 849/366/98
f 863/359/98 849/366/98 847/367/98 845/368/98
f 863/359/98 845/368/98 843/369/98 841/370/98
f 863/359/98 841/370/98 839/371/98 837/372/98
f 863/359/98 837/372/98 835/373/98 833/374/98
f 863/359/98 833/374/98 831/375/98 829/376/98
f 863/359/98 829/376/98 827/377/98 825/378/98
f 863/359/98 825/378/98 823/379/98 821/380/98
f 863/359/98 821/380/98 819/381/98 817/382/98
f 863/359/98 817/382/98 815/383/98 813/384/98
f 863/359/98 813/384/98 811/385/98 809/386/98
f 863/359/98 809/386/98 807/387/98 805/388/98
f 863/359/98 805/388/98 802/389/98 801/390/98
f 804/327/131 803/326/131 865/100/131 866/101/131
f 803/326/132 806/328/132 867/102/132 865/100/132
f 806/328/133 808/329/133 868/103/133 867/102/133
f 808/329/134 810/330/134 869/104/134 868/103/134
f 810/330/135 812/331/135 870/105/135 869/104/135
f 812/331/136 814/332/136 871/106/136 870/105/136
f 814/332/137 816/333/137 872/107/137 871/106/137
f 816/333/138 818/334/138 873/108/138 872/107/138
f 818/334/139 820/335/139 874/109/139 873/108/139
f 820/335/140 822/336/140 875/110/140 874/109/140
f 822/336/141 824/337/141 876/111/141 875/110/141
f 824/337/142 826/338/142 877/112/142 876/111/142
f 826/338/143 828/339/143 878/113/143 877/112/143
f 828/339/144 830/340/144 879/114/144 878/113/144
f 830/340/145 832/341/145 880/115/145 879/114/145
f 832/341/146 834/342/146 881/116/146 880/115/146
f 834/342/147 836/343/147 882/117/147 881/116/147
f 836/343/148 838/344/148 883/118/148 882/117/148
f 838/344/149 840/345/149 884/119/149 883/118/149
f 840/345/150 842/346/150 885/120/150 884/119/150
f 842/346/151 844/347/151 886/121/151 885/120/151
f 844/347/152 846/348/152 887/122/152 886/121/152
f 846/348/153 848/349/153 888/123/153 887/122/153
f 848/349/154 850/350/154 889/124/154 888/123/154
f 850/350/155 852/351/155 890/125/155 889/124/155
f 852/351/156 854/352/156 891/126/156 890/125/156
f 854/352/157 856/353/157 892/127/157 891/126/157
f 856/353/158 858/354/158 893/128/158 892/127/158
f 858/354/159 860/355/159 894/129/159 893/128/159
f 860/355/160 862/356/160 895/130/160 894/129/160
f 862/356/161 864/357/161 896/131/161 895/130/161
f 864/357/162 804/358/162 866/132/162 896/131/162
f 866/391/65 865/392/65 867/393/65 868/394/65
f 866/391/65 868/394/65 869/395/65 870/396/65
f 866/391/65 870/396/65 871/397/65 872/398/65
f 866/391/65 872/398/65 873/399/65 874/400/65
f 866/391/65 874/400/65 875/401/65 876/402/65
f 866/391/65 876/402/65 877/403/65 878/404/65
f 866/391/65 878/404/65 879/405/65 880/406/65
f 866/391/65 880/406/65 881/407/65 882/408/65
f 866/391/65 882/408/65 883/409/65 884/410/65
f 866/391/65 884/410/65 885/411/65 886/412/65
f 866/391/65 886/412/65 887/413/65 888/414/65
f 866/391/65 888/414/65 889/415/65 890/416/65
f 866/391/65 890/416/65 891/417/65 892/418/65
f 866/391/65 892/418/65 893/419/65 894/420/65
f 866/391/65 894/420/65 895/421/65 896/422/65
o bedding
usemtl trench
f 897/101/195 898/132/195 899/65/195 900/1/195
f 901/1/196 902/65/196 903/132/196 904/101/196
f 904/132/98 903/101/98 898/1/98 897/65/98
f 902/132/65 901/101/65 900/1/65 899/65/65
f 901/132/197 904/101/197 897/1/197 900/65/197
f 903/132/198 902/101/198 899/1/198 898/65/198
f 904/148/195 903/489/195 905/33/195 906/1/195
f 907/1/196 908/33/196 909/489/196 910/148/196
f 910/489/98 909/148/98 903/1/98 904/33/98
f 908/489/65 907/148/65 906/1/65 905/33/65
f 907/489/197 910/148/197 904/1/197 906/33/197
f 909/489/198 908/148/198 905/1/198 903/33/198
f 911/148/195 912/489/195 902/33/195 901/1/195
f 913/1/196 914/33/196 915/489/196 916/148/196
f 916/489/98 915/148/98 912/1/98 911/33/98
f 914/489/65 913/148/65 901/1/65 902/33/65
f 913/489/197 916/148/197 911/1/197 901/33/197
f 915/489/198 914/148/198 902/1/198 912/33/198
f 906/148/195 917/489/195 918/33/195 911/1/195
f 916/1/196 919/33/196 920/489/196 907/148/196
f 907/489/98 920/148/98 917/1/98 906/33/98
f 919/489/65 916/148/65 911/1/65 918/33/65
f 916/489/197 907/148/197 906/1/197 911/33/197
f 920/489/198 919/148/198 918/1/198 917/33/198
f 921/148/195 905/489/195 912/33/195 922/1/195
f 923/1/196 915/33/196 908/489/196 924/148/196
f 924/489/98 908/148/98 905/1/98 921/33/98
f 915/489/65 923/148/65 922/1/65 912/33/65
f 923/489/197 924/148/197 921/1/197 922/33/197
f 908/489/198 915/148/198 912/1/198 905/33/198
