# generated by tools/gen_cable_models.py - do not edit by hand
mtllib dc_string_cable_tee.mtl
v -0.162500 0.000000 0.162500
v 0.162500 0.000000 0.162500
v 0.162500 0.000000 -0.162500
v -0.162500 0.000000 -0.162500
v -0.162500 0.181250 -0.162500
v 0.162500 0.181250 -0.162500
v 0.162500 0.181250 0.162500
v -0.162500 0.181250 0.162500
v -0.009375 0.040625 -0.262500
v -0.010456 0.051599 -0.262500
v -0.010456 0.051599 -0.162500
v -0.009375 0.040625 -0.162500
v -0.013657 0.062151 -0.262500
v -0.013657 0.062151 -0.162500
v -0.018855 0.071876 -0.262500
v -0.018855 0.071876 -0.162500
v -0.025850 0.080400 -0.262500
v -0.025850 0.080400 -0.162500
v -0.034374 0.087395 -0.262500
v -0.034374 0.087395 -0.162500
v -0.044099 0.092593 -0.262500
v -0.044099 0.092593 -0.162500
v -0.054651 0.095794 -0.262500
v -0.054651 0.095794 -0.162500
v -0.065625 0.096875 -0.262500
v -0.065625 0.096875 -0.162500
v -0.076599 0.095794 -0.262500
v -0.076599 0.095794 -0.162500
v -0.087151 0.092593 -0.262500
v -0.087151 0.092593 -0.162500
v -0.096876 0.087395 -0.262500
v -0.096876 0.087395 -0.162500
v -0.105400 0.080400 -0.262500
v -0.105400 0.080400 -0.162500
v -0.112395 0.071876 -0.262500
v -0.112395 0.071876 -0.162500
v -0.117593 0.062151 -0.262500
v -0.117593 0.062151 -0.162500
v -0.120794 0.051599 -0.262500
v -0.120794 0.051599 -0.162500
v -0.121875 0.040625 -0.262500
v -0.121875 0.040625 -0.162500
v -0.120794 0.029651 -0.262500
v -0.120794 0.029651 -0.162500
v -0.117593 0.019099 -0.262500
v -0.117593 0.019099 -0.162500
v -0.112395 0.009374 -0.262500
v -0.112395 0.009374 -0.162500
v -0.105400 0.000850 -0.262500
v -0.105400 0.000850 -0.162500
v -0.096876 -0.006145 -0.262500
v -0.096876 -0.006145 -0.162500
v -0.087151 -0.011343 -0.262500
v -0.087151 -0.011343 -0.162500
v -0.076599 -0.014544 -0.262500
v -0.076599 -0.014544 -0.162500
v -0.065625 -0.015625 -0.262500
v -0.065625 -0.015625 -0.162500
v -0.054651 -0.014544 -0.262500
v -0.054651 -0.014544 -0.162500
v -0.044099 -0.011343 -0.262500
v -0.044099 -0.011343 -0.162500
v -0.034374 -0.006145 -0.262500
v -0.034374 -0.006145 -0.162500
v -0.025850 0.000850 -0.262500
v -0.025850 0.000850 -0.162500
v -0.018855 0.009374 -0.262500
v -0.018855 0.009374 -0.162500
v -0.013657 0.019099 -0.262500
v -0.013657 0.019099 -0.162500
v -0.010456 0.029651 -0.262500
v -0.010456 0.029651 -0.162500
v 0.121875 0.040625 -0.262500
v 0.120794 0.051599 -0.262500
v 0.120794 0.051599 -0.162500
v 0.121875 0.040625 -0.162500
v 0.117593 0.062151 -0.262500
v 0.117593 0.062151 -0.162500
v 0.112395 0.071876 -0.262500
v 0.112395 0.071876 -0.162500
v 0.105400 0.080400 -0.262500
v 0.105400 0.080400 -0.162500
v 0.096876 0.087395 -0.262500
v 0.096876 0.087395 -0.162500
v 0.087151 0.092593 -0.262500
v 0.087151 0.092593 -0.162500
v 0.076599 0.095794 -0.262500
v 0.076599 0.095794 -0.162500
v 0.065625 0.096875 -0.262500
v 0.065625 0.096875 -0.162500
v 0.054651 0.095794 -0.262500
v 0.054651 0.095794 -0.162500
v 0.044099 0.092593 -0.262500
v 0.044099 0.092593 -0.162500
v 0.034374 0.087395 -0.262500
v 0.034374 0.087395 -0.162500
v 0.025850 0.080400 -0.262500
v 0.025850 0.080400 -0.162500
v 0.018855 0.071876 -0.262500
v 0.018855 0.071876 -0.162500
v 0.013657 0.062151 -0.262500
v 0.013657 0.062151 -0.162500
v 0.010456 0.051599 -0.262500
v 0.010456 0.051599 -0.162500
v 0.009375 0.040625 -0.262500
v 0.009375 0.040625 -0.162500
v 0.010456 0.029651 -0.262500
v 0.010456 0.029651 -0.162500
v 0.013657 0.019099 -0.262500
v 0.013657 0.019099 -0.162500
v 0.018855 0.009374 -0.262500
v 0.018855 0.009374 -0.162500
v 0.025850 0.000850 -0.262500
v 0.025850 0.000850 -0.162500
v 0.034374 -0.006145 -0.262500
v 0.034374 -0.006145 -0.162500
v 0.044099 -0.011343 -0.262500
v 0.044099 -0.011343 -0.162500
v 0.054651 -0.014544 -0.262500
v 0.054651 -0.014544 -0.162500
v 0.065625 -0.015625 -0.262500
v 0.065625 -0.015625 -0.162500
v 0.076599 -0.014544 -0.262500
v 0.076599 -0.014544 -0.162500
v 0.087151 -0.011343 -0.262500
v 0.087151 -0.011343 -0.162500
v 0.096876 -0.006145 -0.262500
v 0.096876 -0.006145 -0.162500
v 0.105400 0.000850 -0.262500
v 0.105400 0.000850 -0.162500
v 0.112395 0.009374 -0.262500
v 0.112395 0.009374 -0.162500
v 0.117593 0.019099 -0.262500
v 0.117593 0.019099 -0.162500
v 0.120794 0.029651 -0.262500
v 0.120794 0.029651 -0.162500
v 0.112500 0.096875 -0.065625
v 0.112500 0.095794 -0.054651
v 0.212500 0.095794 -0.054651
v 0.212500 0.096875 -0.065625
v 0.112500 0.092593 -0.044099
v 0.212500 0.092593 -0.044099
v 0.112500 0.087395 -0.034374
v 0.212500 0.087395 -0.034374
v 0.112500 0.080400 -0.025850
v 0.212500 0.080400 -0.025850
v 0.112500 0.071876 -0.018855
v 0.212500 0.071876 -0.018855
v 0.112500 0.062151 -0.013657
v 0.212500 0.062151 -0.013657
v 0.112500 0.051599 -0.010456
v 0.212500 0.051599 -0.010456
v 0.112500 0.040625 -0.009375
v 0.212500 0.040625 -0.009375
v 0.112500 0.029651 -0.010456
v 0.212500 0.029651 -0.010456
v 0.112500 0.019099 -0.013657
v 0.212500 0.019099 -0.013657
v 0.112500 0.009374 -0.018855
v 0.212500 0.009374 -0.018855
v 0.112500 0.000850 -0.025850
v 0.212500 0.000850 -0.025850
v 0.112500 -0.006145 -0.034374
v 0.212500 -0.006145 -0.034374
v 0.112500 -0.011343 -0.044099
v 0.212500 -0.011343 -0.044099
v 0.112500 -0.014544 -0.054651
v 0.212500 -0.014544 -0.054651
v 0.112500 -0.015625 -0.065625
v 0.212500 -0.015625 -0.065625
v 0.112500 -0.014544 -0.076599
v 0.212500 -0.014544 -0.076599
v 0.112500 -0.011343 -0.087151
v 0.212500 -0.011343 -0.087151
v 0.112500 -0.006145 -0.096876
v 0.212500 -0.006145 -0.096876
v 0.112500 0.000850 -0.105400
v 0.212500 0.000850 -0.105400
v 0.112500 0.009374 -0.112395
v 0.212500 0.009374 -0.112395
v 0.112500 0.019099 -0.117593
v 0.212500 0.019099 -0.117593
v 0.112500 0.029651 -0.120794
v 0.212500 0.029651 -0.120794
v 0.112500 0.040625 -0.121875
v 0.212500 0.040625 -0.121875
v 0.112500 0.051599 -0.120794
v 0.212500 0.051599 -0.120794
v 0.112500 0.062151 -0.117593
v 0.212500 0.062151 -0.117593
v 0.112500 0.071876 -0.112395
v 0.212500 0.071876 -0.112395
v 0.112500 0.080400 -0.105400
v 0.212500 0.080400 -0.105400
v 0.112500 0.087395 -0.096876
v 0.212500 0.087395 -0.096876
v 0.112500 0.092593 -0.087151
v 0.212500 0.092593 -0.087151
v 0.112500 0.095794 -0.076599
v 0.212500 0.095794 -0.076599
v 0.112500 0.096875 0.065625
v 0.112500 0.095794 0.076599
v 0.212500 0.095794 0.076599
v 0.212500 0.096875 0.065625
v 0.112500 0.092593 0.087151
v 0.212500 0.092593 0.087151
v 0.112500 0.087395 0.096876
v 0.212500 0.087395 0.096876
v 0.112500 0.080400 0.105400
v 0.212500 0.080400 0.105400
v 0.112500 0.071876 0.112395
v 0.212500 0.071876 0.112395
v 0.112500 0.062151 0.117593
v 0.212500 0.062151 0.117593
v 0.112500 0.051599 0.120794
v 0.212500 0.051599 0.120794
v 0.112500 0.040625 0.121875
v 0.212500 0.040625 0.121875
v 0.112500 0.029651 0.120794
v 0.212500 0.029651 0.120794
v 0.112500 0.019099 0.117593
v 0.212500 0.019099 0.117593
v 0.112500 0.009374 0.112395
v 0.212500 0.009374 0.112395
v 0.112500 0.000850 0.105400
v 0.212500 0.000850 0.105400
v 0.112500 -0.006145 0.096876
v 0.212500 -0.006145 0.096876
v 0.112500 -0.011343 0.087151
v 0.212500 -0.011343 0.087151
v 0.112500 -0.014544 0.076599
v 0.212500 -0.014544 0.076599
v 0.112500 -0.015625 0.065625
v 0.212500 -0.015625 0.065625
v 0.112500 -0.014544 0.054651
v 0.212500 -0.014544 0.054651
v 0.112500 -0.011343 0.044099
v 0.212500 -0.011343 0.044099
v 0.112500 -0.006145 0.034374
v 0.212500 -0.006145 0.034374
v 0.112500 0.000850 0.025850
v 0.212500 0.000850 0.025850
v 0.112500 0.009374 0.018855
v 0.212500 0.009374 0.018855
v 0.112500 0.019099 0.013657
v 0.212500 0.019099 0.013657
v 0.112500 0.029651 0.010456
v 0.212500 0.029651 0.010456
v 0.112500 0.040625 0.009375
v 0.212500 0.040625 0.009375
v 0.112500 0.051599 0.010456
v 0.212500 0.051599 0.010456
v 0.112500 0.062151 0.013657
v 0.212500 0.062151 0.013657
v 0.112500 0.071876 0.018855
v 0.212500 0.071876 0.018855
v 0.112500 0.080400 0.025850
v 0.212500 0.080400 0.025850
v 0.112500 0.087395 0.034374
v 0.212500 0.087395 0.034374
v 0.112500 0.092593 0.044099
v 0.212500 0.092593 0.044099
v 0.112500 0.095794 0.054651
v 0.212500 0.095794 0.054651
v -0.009375 0.040625 0.112500
v -0.010456 0.051599 0.112500
v -0.010456 0.051599 0.212500
v -0.009375 0.040625 0.212500
v -0.013657 0.062151 0.112500
v -0.013657 0.062151 0.212500
v -0.018855 0.071876 0.112500
v -0.018855 0.071876 0.212500
v -0.025850 0.080400 0.112500
v -0.025850 0.080400 0.212500
v -0.034374 0.087395 0.112500
v -0.034374 0.087395 0.212500
v -0.044099 0.092593 0.112500
v -0.044099 0.092593 0.212500
v -0.054651 0.095794 0.112500
v -0.054651 0.095794 0.212500
v -0.065625 0.096875 0.112500
v -0.065625 0.096875 0.212500
v -0.076599 0.095794 0.112500
v -0.076599 0.095794 0.212500
v -0.087151 0.092593 0.112500
v -0.087151 0.092593 0.212500
v -0.096876 0.087395 0.112500
v -0.096876 0.087395 0.212500
v -0.105400 0.080400 0.112500
v -0.105400 0.080400 0.212500
v -0.112395 0.071876 0.112500
v -0.112395 0.071876 0.212500
v -0.117593 0.062151 0.112500
v -0.117593 0.062151 0.212500
v -0.120794 0.051599 0.112500
v -0.120794 0.051599 0.212500
v -0.121875 0.040625 0.112500
v -0.121875 0.040625 0.212500
v -0.120794 0.029651 0.112500
v -0.120794 0.029651 0.212500
v -0.117593 0.019099 0.112500
v -0.117593 0.019099 0.212500
v -0.112395 0.009374 0.112500
v -0.112395 0.009374 0.212500
v -0.105400 0.000850 0.112500
v -0.105400 0.000850 0.212500
v -0.096876 -0.006145 0.112500
v -0.096876 -0.006145 0.212500
v -0.087151 -0.011343 0.112500
v -0.087151 -0.011343 0.212500
v -0.076599 -0.014544 0.112500
v -0.076599 -0.014544 0.212500
v -0.065625 -0.015625 0.112500
v -0.065625 -0.015625 0.212500
v -0.054651 -0.014544 0.112500
v -0.054651 -0.014544 0.212500
v -0.044099 -0.011343 0.112500
v -0.044099 -0.011343 0.212500
v -0.034374 -0.006145 0.112500
v -0.034374 -0.006145 0.212500
v -0.025850 0.000850 0.112500
v -0.025850 0.000850 0.212500
v -0.018855 0.009374 0.112500
v -0.018855 0.009374 0.212500
v -0.013657 0.019099 0.112500
v -0.013657 0.019099 0.212500
v -0.010456 0.029651 0.112500
v -0.010456 0.029651 0.212500
v 0.121875 0.040625 0.112500
v 0.120794 0.051599 0.112500
v 0.120794 0.051599 0.212500
v 0.121875 0.040625 0.212500
v 0.117593 0.062151 0.112500
v 0.117593 0.062151 0.212500
v 0.112395 0.071876 0.112500
v 0.112395 0.071876 0.212500
v 0.105400 0.080400 0.112500
v 0.105400 0.080400 0.212500
v 0.096876 0.087395 0.112500
v 0.096876 0.087395 0.212500
v 0.087151 0.092593 0.112500
v 0.087151 0.092593 0.212500
v 0.076599 0.095794 0.112500
v 0.076599 0.095794 0.212500
v 0.065625 0.096875 0.112500
v 0.065625 0.096875 0.212500
v 0.054651 0.095794 0.112500
v 0.054651 0.095794 0.212500
v 0.044099 0.092593 0.112500
v 0.044099 0.092593 0.212500
v 0.034374 0.087395 0.112500
v 0.034374 0.087395 0.212500
v 0.025850 0.080400 0.112500
v 0.025850 0.080400 0.212500
v 0.018855 0.071876 0.112500
v 0.018855 0.071876 0.212500
v 0.013657 0.062151 0.112500
v 0.013657 0.062151 0.212500
v 0.010456 0.051599 0.112500
v 0.010456 0.051599 0.212500
v 0.009375 0.040625 0.112500
v 0.009375 0.040625 0.212500
v 0.010456 0.029651 0.112500
v 0.010456 0.029651 0.212500
v 0.013657 0.019099 0.112500
v 0.013657 0.019099 0.212500
v 0.018855 0.009374 0.112500
v 0.018855 0.009374 0.212500
v 0.025850 0.000850 0.112500
v 0.025850 0.000850 0.212500
v 0.034374 -0.006145 0.112500
v 0.034374 -0.006145 0.212500
v 0.044099 -0.011343 0.112500
v 0.044099 -0.011343 0.212500
v 0.054651 -0.014544 0.112500
v 0.054651 -0.014544 0.212500
v 0.065625 -0.015625 0.112500
v 0.065625 -0.015625 0.212500
v 0.076599 -0.014544 0.112500
v 0.076599 -0.014544 0.212500
v 0.087151 -0.011343 0.112500
v 0.087151 -0.011343 0.212500
v 0.096876 -0.006145 0.112500
v 0.096876 -0.006145 0.212500
v 0.105400 0.000850 0.112500
v 0.105400 0.000850 0.212500
v 0.112395 0.009374 0.112500
v 0.112395 0.009374 0.212500
v 0.117593 0.019099 0.112500
v 0.117593 0.019099 0.212500
v 0.120794 0.029651 0.112500
v 0.120794 0.029651 0.212500
vn 0.0000 -1.0000 0.0000
vn 0.0000 1.0000 0.0000
vn 0.0000 0.0000 -1.0000
vn 0.0000 0.0000 1.0000
vn -1.0000 0.0000 0.0000
vn 1.0000 0.0000 0.0000
vn 0.9952 0.0980 0.0000
vn 0.9569 0.2903 0.0000
vn 0.8819 0.4714 0.0000
vn 0.7730 0.6344 0.0000
vn 0.6344 0.7730 0.0000
vn 0.4714 0.8819 0.0000
vn 0.2903 0.9569 0.0000
vn 0.0980 0.9952 0.0000
vn -0.0980 0.9952 0.0000
vn -0.2903 0.9569 0.0000
vn -0.4714 0.8819 0.0000
vn -0.6344 0.7730 0.0000
vn -0.7730 0.6344 0.0000
vn -0.8819 0.4714 0.0000
vn -0.9569 0.2903 0.0000
vn -0.9952 0.0980 0.0000
vn -0.9952 -0.0980 0.0000
vn -0.9569 -0.2903 0.0000
vn -0.8819 -0.4714 0.0000
vn -0.7730 -0.6344 0.0000
vn -0.6344 -0.7730 0.0000
vn -0.4714 -0.8819 0.0000
vn -0.2903 -0.9569 0.0000
vn -0.0980 -0.9952 0.0000
vn 0.0980 -0.9952 0.0000
vn 0.2903 -0.9569 0.0000
vn 0.4714 -0.8819 0.0000
vn 0.6344 -0.7730 0.0000
vn 0.7730 -0.6344 0.0000
vn 0.8819 -0.4714 0.0000
vn 0.9569 -0.2903 0.0000
vn 0.9952 -0.0980 0.0000
vn 0.0000 0.9952 0.0980
vn 0.0000 0.9569 0.2903
vn 0.0000 0.8819 0.4714
vn 0.0000 0.7730 0.6344
vn 0.0000 0.6344 0.7730
vn 0.0000 0.4714 0.8819
vn 0.0000 0.2903 0.9569
vn 0.0000 0.0980 0.9952
vn 0.0000 -0.0980 0.9952
vn 0.0000 -0.2903 0.9569
vn 0.0000 -0.4714 0.8819
vn 0.0000 -0.6344 0.7730
vn 0.0000 -0.7730 0.6344
vn 0.0000 -0.8819 0.4714
vn 0.0000 -0.9569 0.2903
vn 0.0000 -0.9952 0.0980
vn 0.0000 -0.9952 -0.0980
vn 0.0000 -0.9569 -0.2903
vn 0.0000 -0.8819 -0.4714
vn 0.0000 -0.7730 -0.6344
vn 0.0000 -0.6344 -0.7730
vn 0.0000 -0.4714 -0.8819
vn 0.0000 -0.2903 -0.9569
vn 0.0000 -0.0980 -0.9952
vn 0.0000 0.0980 -0.9952
vn 0.0000 0.2903 -0.9569
vn 0.0000 0.4714 -0.8819
vn 0.0000 0.6344 -0.7730
vn 0.0000 0.7730 -0.6344
vn 0.0000 0.8819 -0.4714
vn 0.0000 0.9569 -0.2903
vn 0.0000 0.9952 -0.0980
vt 0.000000 0.000000
vt 1.000000 0.000000
vt 1.000000 1.000000
vt 0.000000 1.000000
vt 0.015625 0.000000
vt 0.015625 0.500000
vt 0.000000 0.500000
vt 0.031250 0.000000
vt 0.031250 0.500000
vt 0.046875 0.000000
vt 0.046875 0.500000
vt 0.062500 0.000000
vt 0.062500 0.500000
vt 0.078125 0.000000
vt 0.078125 0.500000
vt 0.093750 0.000000
vt 0.093750 0.500000
vt 0.109375 0.000000
vt 0.109375 0.500000
vt 0.125000 0.000000
vt 0.125000 0.500000
vt 0.140625 0.000000
vt 0.140625 0.500000
vt 0.156250 0.000000
vt 0.156250 0.500000
vt 0.171875 0.000000
vt 0.171875 0.500000
vt 0.187500 0.000000
vt 0.187500 0.500000
vt 0.203125 0.000000
vt 0.203125 0.500000
vt 0.218750 0.000000
vt 0.218750 0.500000
vt 0.234375 0.000000
vt 0.234375 0.500000
vt 0.250000 0.000000
vt 0.250000 0.500000
vt 0.265625 0.000000
vt 0.265625 0.500000
vt 0.281250 0.000000
vt 0.281250 0.500000
vt 0.296875 0.000000
vt 0.296875 0.500000
vt 0.312500 0.000000
vt 0.312500 0.500000
vt 0.328125 0.000000
vt 0.328125 0.500000
vt 0.343750 0.000000
vt 0.343750 0.500000
vt 0.359375 0.000000
vt 0.359375 0.500000
vt 0.375000 0.000000
vt 0.375000 0.500000
vt 0.390625 0.000000
vt 0.390625 0.500000
vt 0.406250 0.000000
vt 0.406250 0.500000
vt 0.421875 0.000000
vt 0.421875 0.500000
vt 0.437500 0.000000
vt 0.437500 0.500000
vt 0.453125 0.000000
vt 0.453125 0.500000
vt 0.468750 0.000000
vt 0.468750 0.500000
vt 0.484375 0.000000
vt 0.484375 0.500000
vt 0.500000 0.000000
vt 0.500000 0.500000
o jbox
usemtl jbox
f 1/1/1 2/2/1 3/3/1 4/4/1
f 5/4/2 6/3/2 7/2/2 8/1/2
f 4/2/3 3/1/3 6/4/3 5/3/3
f 2/2/4 1/1/4 8/4/4 7/3/4
f 1/2/5 4/1/5 5/4/5 8/3/5
f 3/2/6 2/1/6 7/4/6 6/3/6
o gland
usemtl plug_minus
f 9/1/7 10/5/7 11/6/7 12/7/7
f 10/5/8 13/8/8 14/9/8 11/6/8
f 13/8/9 15/10/9 16/11/9 14/9/9
f 15/10/10 17/12/10 18/13/10 16/11/10
f 17/12/11 19/14/11 20/15/11 18/13/11
f 19/14/12 21/16/12 22/17/12 20/15/12
f 21/16/13 23/18/13 24/19/13 22/17/13
f 23/18/14 25/20/14 26/21/14 24/19/14
f 25/20/15 27/22/15 28/23/15 26/21/15
f 27/22/16 29/24/16 30/25/16 28/23/16
f 29/24/17 31/26/17 32/27/17 30/25/17
f 31/26/18 33/28/18 34/29/18 32/27/18
f 33/28/19 35/30/19 36/31/19 34/29/19
f 35/30/20 37/32/20 38/33/20 36/31/20
f 37/32/21 39/34/21 40/35/21 38/33/21
f 39/34/22 41/36/22 42/37/22 40/35/22
f 41/36/23 43/38/23 44/39/23 42/37/23
f 43/38/24 45/40/24 46/41/24 44/39/24
f 45/40/25 47/42/25 48/43/25 46/41/25
f 47/42/26 49/44/26 50/45/26 48/43/26
f 49/44/27 51/46/27 52/47/27 50/45/27
f 51/46/28 53/48/28 54/49/28 52/47/28
f 53/48/29 55/50/29 56/51/29 54/49/29
f 55/50/30 57/52/30 58/53/30 56/51/30
f 57/52/31 59/54/31 60/55/31 58/53/31
f 59/54/32 61/56/32 62/57/32 60/55/32
f 61/56/33 63/58/33 64/59/33 62/57/33
f 63/58/34 65/60/34 66/61/34 64/59/34
f 65/60/35 67/62/35 68/63/35 66/61/35
f 67/62/36 69/64/36 70/65/36 68/63/36
f 69/64/37 71/66/37 72/67/37 70/65/37
f 71/66/38 9/68/38 12/69/38 72/67/38
f 73/1/7 74/5/7 75/6/7 76/7/7
f 74/5/8 77/8/8 78/9/8 75/6/8
f 77/8/9 79/10/9 80/11/9 78/9/9
f 79/10/10 81/12/10 82/13/10 80/11/10
f 81/12/11 83/14/11 84/15/11 82/13/11
f 83/14/12 85/16/12 86/17/12 84/15/12
f 85/16/13 87/18/13 88/19/13 86/17/13
f 87/18/14 89/20/14 90/21/14 88/19/14
f 89/20/15 91/22/15 92/23/15 90/21/15
f 91/22/16 93/24/16 94/25/16 92/23/16
f 93/24/17 95/26/17 96/27/17 94/25/17
f 95/26/18 97/28/18 98/29/18 96/27/18
f 97/28/19 99/30/19 100/31/19 98/29/19
f 99/30/20 101/32/20 102/33/20 100/31/20
f 101/32/21 103/34/21 104/35/21 102/33/21
f 103/34/22 105/36/22 106/37/22 104/35/22
f 105/36/23 107/38/23 108/39/23 106/37/23
f 107/38/24 109/40/24 110/41/24 108/39/24
f 109/40/25 111/42/25 112/43/25 110/41/25
f 111/42/26 113/44/26 114/45/26 112/43/26
f 113/44/27 115/46/27 116/47/27 114/45/27
f 115/46/28 117/48/28 118/49/28 116/47/28
f 117/48/29 119/50/29 120/51/29 118/49/29
f 119/50/30 121/52/30 122/53/30 120/51/30
f 121/52/31 123/54/31 124/55/31 122/53/31
f 123/54/32 125/56/32 126/57/32 124/55/32
f 125/56/33 127/58/33 128/59/33 126/57/33
f 127/58/34 129/60/34 130/61/34 128/59/34
f 129/60/35 131/62/35 132/63/35 130/61/35
f 131/62/36 133/64/36 134/65/36 132/63/36
f 133/64/37 135/66/37 136/67/37 134/65/37
f 135/66/38 73/68/38 76/69/38 136/67/38
f 137/1/39 138/5/39 139/6/39 140/7/39
f 138/5/40 141/8/40 142/9/40 139/6/40
f 141/8/41 143/10/41 144/11/41 142/9/41
f 143/10/42 145/12/42 146/13/42 144/11/42
f 145/12/43 147/14/43 148/15/43 146/13/43
f 147/14/44 149/16/44 150/17/44 148/15/44
f 149/16/45 151/18/45 152/19/45 150/17/45
f 151/18/46 153/20/46 154/21/46 152/19/46
f 153/20/47 155/22/47 156/23/47 154/21/47
f 155/22/48 157/24/48 158/25/48 156/23/48
f 157/24/49 159/26/49 160/27/49 158/25/49
f 159/26/50 161/28/50 162/29/50 160/27/50
f 161/28/51 163/30/51 164/31/51 162/29/51
f 163/30/52 165/32/52 166/33/52 164/31/52
f 165/32/53 167/34/53 168/35/53 166/33/53
f 167/34/54 169/36/54 170/37/54 168/35/54
f 169/36/55 171/38/55 172/39/55 170/37/55
f 171/38/56 173/40/56 174/41/56 172/39/56
f 173/40/57 175/42/57 176/43/57 174/41/57
f 175/42/58 177/44/58 178/45/58 176/43/58
f 177/44/59 179/46/59 180/47/59 178/45/59
f 179/46/60 181/48/60 182/49/60 180/47/60
f 181/48/61 183/50/61 184/51/61 182/49/61
f 183/50/62 185/52/62 186/53/62 184/51/62
f 185/52/63 187/54/63 188/55/63 186/53/63
f 187/54/64 189/56/64 190/57/64 188/55/64
f 189/56/65 191/58/65 192/59/65 190/57/65
f 191/58/66 193/60/66 194/61/66 192/59/66
f 193/60/67 195/62/67 196/63/67 194/61/67
f 195/62/68 197/64/68 198/65/68 196/63/68
f 197/64/69 199/66/69 200/67/69 198/65/69
f 199/66/70 137/68/70 140/69/70 200/67/70
f 201/1/39 202/5/39 203/6/39 204/7/39
f 202/5/40 205/8/40 206/9/40 203/6/40
f 205/8/41 207/10/41 208/11/41 206/9/41
f 207/10/42 209/12/42 210/13/42 208/11/42
f 209/12/43 211/14/43 212/15/43 210/13/43
f 211/14/44 213/16/44 214/17/44 212/15/44
f 213/16/45 215/18/45 216/19/45 214/17/45
f 215/18/46 217/20/46 218/21/46 216/19/46
f 217/20/47 219/22/47 220/23/47 218/21/47
f 219/22/48 221/24/48 222/25/48 220/23/48
f 221/24/49 223/26/49 224/27/49 222/25/49
f 223/26/50 225/28/50 226/29/50 224/27/50
f 225/28/51 227/30/51 228/31/51 226/29/51
f 227/30/52 229/32/52 230/33/52 228/31/52
f 229/32/53 231/34/53 232/35/53 230/33/53
f 231/34/54 233/36/54 234/37/54 232/35/54
f 233/36/55 235/38/55 236/39/55 234/37/55
f 235/38/56 237/40/56 238/41/56 236/39/56
f 237/40/57 239/42/57 240/43/57 238/41/57
f 239/42/58 241/44/58 242/45/58 240/43/58
f 241/44/59 243/46/59 244/47/59 242/45/59
f 243/46/60 245/48/60 246/49/60 244/47/60
f 245/48/61 247/50/61 248/51/61 246/49/61
f 247/50/62 249/52/62 250/53/62 248/51/62
f 249/52/63 251/54/63 252/55/63 250/53/63
f 251/54/64 253/56/64 254/57/64 252/55/64
f 253/56/65 255/58/65 256/59/65 254/57/65
f 255/58/66 257/60/66 258/61/66 256/59/66
f 257/60/67 259/62/67 260/63/67 258/61/67
f 259/62/68 261/64/68 262/65/68 260/63/68
f 261/64/69 263/66/69 264/67/69 262/65/69
f 263/66/70 201/68/70 204/69/70 264/67/70
f 265/1/7 266/5/7 267/6/7 268/7/7
f 266/5/8 269/8/8 270/9/8 267/6/8
f 269/8/9 271/10/9 272/11/9 270/9/9
f 271/10/10 273/12/10 274/13/10 272/11/10
f 273/12/11 275/14/11 276/15/11 274/13/11
f 275/14/12 277/16/12 278/17/12 276/15/12
f 277/16/13 279/18/13 280/19/13 278/17/13
f 279/18/14 281/20/14 282/21/14 280/19/14
f 281/20/15 283/22/15 284/23/15 282/21/15
f 283/22/16 285/24/16 286/25/16 284/23/16
f 285/24/17 287/26/17 288/27/17 286/25/17
f 287/26/18 289/28/18 290/29/18 288/27/18
f 289/28/19 291/30/19 292/31/19 290/29/19
f 291/30/20 293/32/20 294/33/20 292/31/20
f 293/32/21 295/34/21 296/35/21 294/33/21
f 295/34/22 297/36/22 298/37/22 296/35/22
f 297/36/23 299/38/23 300/39/23 298/37/23
f 299/38/24 301/40/24 302/41/24 300/39/24
f 301/40/25 303/42/25 304/43/25 302/41/25
f 303/42/26 305/44/26 306/45/26 304/43/26
f 305/44/27 307/46/27 308/47/27 306/45/27
f 307/46/28 309/48/28 310/49/28 308/47/28
f 309/48/29 311/50/29 312/51/29 310/49/29
f 311/50/30 313/52/30 314/53/30 312/51/30
f 313/52/31 315/54/31 316/55/31 314/53/31
f 315/54/32 317/56/32 318/57/32 316/55/32
f 317/56/33 319/58/33 320/59/33 318/57/33
f 319/58/34 321/60/34 322/61/34 320/59/34
f 321/60/35 323/62/35 324/63/35 322/61/35
f 323/62/36 325/64/36 326/65/36 324/63/36
f 325/64/37 327/66/37 328/67/37 326/65/37
f 327/66/38 265/68/38 268/69/38 328/67/38
f 329/1/7 330/5/7 331/6/7 332/7/7
f 330/5/8 333/8/8 334/9/8 331/6/8
f 333/8/9 335/10/9 336/11/9 334/9/9
f 335/10/10 337/12/10 338/13/10 336/11/10
f 337/12/11 339/14/11 340/15/11 338/13/11
f 339/14/12 341/16/12 342/17/12 340/15/12
f 341/16/13 343/18/13 344/19/13 342/17/13
f 343/18/14 345/20/14 346/21/14 344/19/14
f 345/20/15 347/22/15 348/23/15 346/21/15
f 347/22/16 349/24/16 350/25/16 348/23/16
f 349/24/17 351/26/17 352/27/17 350/25/17
f 351/26/18 353/28/18 354/29/18 352/27/18
f 353/28/19 355/30/19 356/31/19 354/29/19
f 355/30/20 357/32/20 358/33/20 356/31/20
f 357/32/21 359/34/21 360/35/21 358/33/21
f 359/34/22 361/36/22 362/37/22 360/35/22
f 361/36/23 363/38/23 364/39/23 362/37/23
f 363/38/24 365/40/24 366/41/24 364/39/24
f 365/40/25 367/42/25 368/43/25 366/41/25
f 367/42/26 369/44/26 370/45/26 368/43/26
f 369/44/27 371/46/27 372/47/27 370/45/27
f 371/46/28 373/48/28 374/49/28 372/47/28
f 373/48/29 375/50/29 376/51/29 374/49/29
f 375/50/30 377/52/30 378/53/30 376/51/30
f 377/52/31 379/54/31 380/55/31 378/53/31
f 379/54/32 381/56/32 382/57/32 380/55/32
f 381/56/33 383/58/33 384/59/33 382/57/33
f 383/58/34 385/60/34 386/61/34 384/59/34
f 385/60/35 387/62/35 388/63/35 386/61/35
f 387/62/36 389/64/36 390/65/36 388/63/36
f 389/64/37 391/66/37 392/67/37 390/65/37
f 391/66/38 329/68/38 332/69/38 392/67/38
