# generated by tools/gen_cable_models.py - do not edit by hand
mtllib dc_string_cable_trench_loose.mtl
v 0.434375 0.818750 0.200000
v 0.418828 0.815658 0.200000
v 0.419115 0.815364 0.505698
v 0.434659 0.818432 0.506182
v 0.405649 0.806851 0.200000
v 0.405895 0.806626 0.506059
v 0.396842 0.793672 0.200000
v 0.397010 0.793550 0.507210
v 0.393750 0.778125 0.200000
v 0.393814 0.778125 0.508976
v 0.396842 0.762578 0.200000
v 0.396793 0.762700 0.511089
v 0.405649 0.749399 0.200000
v 0.405493 0.749624 0.513226
v 0.418828 0.740592 0.200000
v 0.418590 0.740886 0.515062
v 0.434375 0.737500 0.200000
v 0.434091 0.737818 0.516318
v 0.449922 0.740592 0.200000
v 0.449635 0.740886 0.516802
v 0.463101 0.749399 0.200000
v 0.462855 0.749624 0.516441
v 0.471908 0.762578 0.200000
v 0.471740 0.762700 0.515290
v 0.475000 0.778125 0.200000
v 0.474936 0.778125 0.513524
v 0.471908 0.793672 0.200000
v 0.471957 0.793550 0.511411
v 0.463101 0.806851 0.200000
v 0.463257 0.806626 0.509274
v 0.449922 0.815658 0.200000
v 0.450160 0.815364 0.507438
v 0.406615 0.843489 0.615073
v 0.422159 0.846557 0.615557
v 0.393395 0.834751 0.615434
v 0.384510 0.821675 0.616585
v 0.381314 0.806250 0.618351
v 0.384293 0.790825 0.620464
v 0.392993 0.777749 0.622601
v 0.406090 0.769011 0.624437
v 0.421591 0.765943 0.625693
v 0.437135 0.769011 0.626177
v 0.450355 0.777749 0.625816
v 0.459240 0.790825 0.624665
v 0.462436 0.806250 0.622899
v 0.459457 0.821675 0.620786
v 0.450757 0.834751 0.618649
v 0.437660 0.843489 0.616813
v 0.406593 0.843891 0.667500
v 0.422161 0.846874 0.667500
v 0.393352 0.835178 0.667500
v 0.384453 0.822061 0.667500
v 0.381251 0.806536 0.667500
v 0.384234 0.790968 0.667500
v 0.392947 0.777727 0.667500
v 0.406064 0.768828 0.667500
v 0.421589 0.765626 0.667500
v 0.437157 0.768609 0.667500
v 0.450398 0.777322 0.667500
v 0.459297 0.790439 0.667500
v 0.462499 0.805964 0.667500
v 0.459516 0.821532 0.667500
v 0.450803 0.834773 0.667500
v 0.437686 0.843672 0.667500
v 0.421875 0.848750 0.648750
v 0.405611 0.845515 0.648750
v 0.402261 0.853603 0.683125
v 0.421875 0.857505 0.683125
v 0.391823 0.836302 0.648750
v 0.385632 0.842493 0.683125
v 0.382610 0.822514 0.648750
v 0.374522 0.825864 0.683125
v 0.379375 0.806250 0.648750
v 0.370620 0.806250 0.683125
v 0.382610 0.789986 0.648750
v 0.374522 0.786636 0.683125
v 0.391823 0.776198 0.648750
v 0.385632 0.770007 0.683125
v 0.405611 0.766985 0.648750
v 0.402261 0.758897 0.683125
v 0.421875 0.763750 0.648750
v 0.421875 0.754995 0.683125
v 0.438139 0.766985 0.648750
v 0.441489 0.758897 0.683125
v 0.451927 0.776198 0.648750
v 0.458118 0.770007 0.683125
v 0.461140 0.789986 0.648750
v 0.469228 0.786636 0.683125
v 0.464375 0.806250 0.648750
v 0.473130 0.806250 0.683125
v 0.461140 0.822514 0.648750
v 0.469228 0.825864 0.683125
v 0.451927 0.836302 0.648750
v 0.458118 0.842493 0.683125
v 0.438139 0.845515 0.648750
v 0.441489 0.853603 0.683125
v 0.421875 0.865625 0.683125
v 0.399153 0.861105 0.683125
v 0.399153 0.861105 0.733125
v 0.421875 0.865625 0.733125
v 0.379891 0.848234 0.683125
v 0.379891 0.848234 0.733125
v 0.367020 0.828972 0.683125
v 0.367020 0.828972 0.733125
v 0.362500 0.806250 0.683125
v 0.362500 0.806250 0.733125
v 0.367020 0.783528 0.683125
v 0.367020 0.783528 0.733125
v 0.379891 0.764266 0.683125
v 0.379891 0.764266 0.733125
v 0.399153 0.751395 0.683125
v 0.399153 0.751395 0.733125
v 0.421875 0.746875 0.683125
v 0.421875 0.746875 0.733125
v 0.444597 0.751395 0.683125
v 0.444597 0.751395 0.733125
v 0.463859 0.764266 0.683125
v 0.463859 0.764266 0.733125
v 0.476730 0.783528 0.683125
v 0.476730 0.783528 0.733125
v 0.481250 0.806250 0.683125
v 0.481250 0.806250 0.733125
v 0.476730 0.828972 0.683125
v 0.476730 0.828972 0.733125
v 0.463859 0.848234 0.683125
v 0.463859 0.848234 0.733125
v 0.444597 0.861105 0.683125
v 0.444597 0.861105 0.733125
v 0.421875 0.856250 0.733125
v 0.402741 0.852444 0.733125
v 0.402741 0.852444 0.817500
v 0.421875 0.856250 0.817500
v 0.386520 0.841605 0.733125
v 0.386520 0.841605 0.817500
v 0.375681 0.825384 0.733125
v 0.375681 0.825384 0.817500
v 0.371875 0.806250 0.733125
v 0.371875 0.806250 0.817500
v 0.375681 0.787116 0.733125
v 0.375681 0.787116 0.817500
v 0.386520 0.770895 0.733125
v 0.386520 0.770895 0.817500
v 0.402741 0.760056 0.733125
v 0.402741 0.760056 0.817500
v 0.421875 0.756250 0.733125
v 0.421875 0.756250 0.817500
v 0.441009 0.760056 0.733125
v 0.441009 0.760056 0.817500
v 0.457230 0.770895 0.733125
v 0.457230 0.770895 0.817500
v 0.468069 0.787116 0.733125
v 0.468069 0.787116 0.817500
v 0.471875 0.806250 0.733125
v 0.471875 0.806250 0.817500
v 0.468069 0.825384 0.733125
v 0.468069 0.825384 0.817500
v 0.457230 0.841605 0.733125
v 0.457230 0.841605 0.817500
v 0.441009 0.852444 0.733125
v 0.441009 0.852444 0.817500
v 0.421875 0.875000 0.817500
v 0.395566 0.869767 0.817500
v 0.395566 0.869767 0.889375
v 0.421875 0.875000 0.889375
v 0.373261 0.854864 0.817500
v 0.373261 0.854864 0.889375
v 0.358358 0.832559 0.817500
v 0.358358 0.832559 0.889375
v 0.353125 0.806250 0.817500
v 0.353125 0.806250 0.889375
v 0.358358 0.779941 0.817500
v 0.358358 0.779941 0.889375
v 0.373261 0.757636 0.817500
v 0.373261 0.757636 0.889375
v 0.395566 0.742733 0.817500
v 0.395566 0.742733 0.889375
v 0.421875 0.737500 0.817500
v 0.421875 0.737500 0.889375
v 0.448184 0.742733 0.817500
v 0.448184 0.742733 0.889375
v 0.470489 0.757636 0.817500
v 0.470489 0.757636 0.889375
v 0.485392 0.779941 0.817500
v 0.485392 0.779941 0.889375
v 0.490625 0.806250 0.817500
v 0.490625 0.806250 0.889375
v 0.485392 0.832559 0.817500
v 0.485392 0.832559 0.889375
v 0.470489 0.854864 0.817500
v 0.470489 0.854864 0.889375
v 0.448184 0.869767 0.817500
v 0.448184 0.869767 0.889375
v 0.399144 0.861128 0.923750
v 0.421875 0.865650 0.923750
v 0.379873 0.848252 0.923750
v 0.366997 0.828981 0.923750
v 0.362475 0.806250 0.923750
v 0.366997 0.783519 0.923750
v 0.379873 0.764248 0.923750
v 0.399144 0.751372 0.923750
v 0.421875 0.746850 0.923750
v 0.444606 0.751372 0.923750
v 0.463877 0.764248 0.923750
v 0.476753 0.783519 0.923750
v 0.481275 0.806250 0.923750
v 0.476753 0.828981 0.923750
v 0.463877 0.848252 0.923750
v 0.444606 0.861128 0.923750
v 0.421875 0.820000 0.923750
v 0.416613 0.818953 0.923750
v 0.416613 0.818953 0.937500
v 0.421875 0.820000 0.937500
v 0.412152 0.815973 0.923750
v 0.412152 0.815973 0.937500
v 0.409172 0.811512 0.923750
v 0.409172 0.811512 0.937500
v 0.408125 0.806250 0.923750
v 0.408125 0.806250 0.937500
v 0.409172 0.800988 0.923750
v 0.409172 0.800988 0.937500
v 0.412152 0.796527 0.923750
v 0.412152 0.796527 0.937500
v 0.416613 0.793547 0.923750
v 0.416613 0.793547 0.937500
v 0.421875 0.792500 0.923750
v 0.421875 0.792500 0.937500
v 0.427137 0.793547 0.923750
v 0.427137 0.793547 0.937500
v 0.431598 0.796527 0.923750
v 0.431598 0.796527 0.937500
v 0.434578 0.800988 0.923750
v 0.434578 0.800988 0.937500
v 0.435625 0.806250 0.923750
v 0.435625 0.806250 0.937500
v 0.434578 0.811512 0.923750
v 0.434578 0.811512 0.937500
v 0.431598 0.815973 0.923750
v 0.431598 0.815973 0.937500
v 0.427137 0.818953 0.923750
v 0.427137 0.818953 0.937500
v 0.565625 0.818750 0.200000
v 0.550078 0.815658 0.200000
v 0.549840 0.815364 0.382438
v 0.565341 0.818432 0.381182
v 0.536899 0.806851 0.200000
v 0.536743 0.806626 0.384274
v 0.528092 0.793672 0.200000
v 0.528043 0.793550 0.386411
v 0.525000 0.778125 0.200000
v 0.525064 0.778125 0.388524
v 0.528092 0.762578 0.200000
v 0.528260 0.762700 0.390290
v 0.536899 0.749399 0.200000
v 0.537145 0.749624 0.391441
v 0.550078 0.740592 0.200000
v 0.550365 0.740886 0.391802
v 0.565625 0.737500 0.200000
v 0.565909 0.737818 0.391318
v 0.581172 0.740592 0.200000
v 0.581410 0.740886 0.390062
v 0.594351 0.749399 0.200000
v 0.594507 0.749624 0.388226
v 0.603158 0.762578 0.200000
v 0.603207 0.762700 0.386089
v 0.606250 0.778125 0.200000
v 0.606186 0.778125 0.383976
v 0.603158 0.793672 0.200000
v 0.602990 0.793550 0.382210
v 0.594351 0.806851 0.200000
v 0.594105 0.806626 0.381059
v 0.581172 0.815658 0.200000
v 0.580885 0.815364 0.380698
v 0.562340 0.843489 0.491813
v 0.577841 0.846557 0.490557
v 0.549243 0.834751 0.493649
v 0.540543 0.821675 0.495786
v 0.537564 0.806250 0.497899
v 0.540760 0.790825 0.499665
v 0.549645 0.777749 0.500816
v 0.562865 0.769011 0.501177
v 0.578409 0.765943 0.500693
v 0.593910 0.769011 0.499437
v 0.607007 0.777749 0.497601
v 0.615707 0.790825 0.495464
v 0.618686 0.806250 0.493351
v 0.615490 0.821675 0.491585
v 0.606605 0.834751 0.490434
v 0.593385 0.843489 0.490073
v 0.562314 0.843672 0.542500
v 0.577839 0.846874 0.542500
v 0.549197 0.834773 0.542500
v 0.540484 0.821532 0.542500
v 0.537501 0.805964 0.542500
v 0.540703 0.790439 0.542500
v 0.549602 0.777322 0.542500
v 0.562843 0.768609 0.542500
v 0.578411 0.765626 0.542500
v 0.593936 0.768828 0.542500
v 0.607053 0.777727 0.542500
v 0.615766 0.790968 0.542500
v 0.618749 0.806536 0.542500
v 0.615547 0.822061 0.542500
v 0.606648 0.835178 0.542500
v 0.593407 0.843891 0.542500
v 0.578125 0.848750 0.523750
v 0.561861 0.845515 0.523750
v 0.558511 0.853603 0.558125
v 0.578125 0.857505 0.558125
v 0.548073 0.836302 0.523750
v 0.541882 0.842493 0.558125
v 0.538860 0.822514 0.523750
v 0.530772 0.825864 0.558125
v 0.535625 0.806250 0.523750
v 0.526870 0.806250 0.558125
v 0.538860 0.789986 0.523750
v 0.530772 0.786636 0.558125
v 0.548073 0.776198 0.523750
v 0.541882 0.770007 0.558125
v 0.561861 0.766985 0.523750
v 0.558511 0.758897 0.558125
v 0.578125 0.763750 0.523750
v 0.578125 0.754995 0.558125
v 0.594389 0.766985 0.523750
v 0.597739 0.758897 0.558125
v 0.608177 0.776198 0.523750
v 0.614368 0.770007 0.558125
v 0.617390 0.789986 0.523750
v 0.625478 0.786636 0.558125
v 0.620625 0.806250 0.523750
v 0.629380 0.806250 0.558125
v 0.617390 0.822514 0.523750
v 0.625478 0.825864 0.558125
v 0.608177 0.836302 0.523750
v 0.614368 0.842493 0.558125
v 0.594389 0.845515 0.523750
v 0.597739 0.853603 0.558125
v 0.578125 0.865625 0.558125
v 0.555403 0.861105 0.558125
v 0.555403 0.861105 0.608125
v 0.578125 0.865625 0.608125
v 0.536141 0.848234 0.558125
v 0.536141 0.848234 0.608125
v 0.523270 0.828972 0.558125
v 0.523270 0.828972 0.608125
v 0.518750 0.806250 0.558125
v 0.518750 0.806250 0.608125
v 0.523270 0.783528 0.558125
v 0.523270 0.783528 0.608125
v 0.536141 0.764266 0.558125
v 0.536141 0.764266 0.608125
v 0.555403 0.751395 0.558125
v 0.555403 0.751395 0.608125
v 0.578125 0.746875 0.558125
v 0.578125 0.746875 0.608125
v 0.600847 0.751395 0.558125
v 0.600847 0.751395 0.608125
v 0.620109 0.764266 0.558125
v 0.620109 0.764266 0.608125
v 0.632980 0.783528 0.558125
v 0.632980 0.783528 0.608125
v 0.637500 0.806250 0.558125
v 0.637500 0.806250 0.608125
v 0.632980 0.828972 0.558125
v 0.632980 0.828972 0.608125
v 0.620109 0.848234 0.558125
v 0.620109 0.848234 0.608125
v 0.600847 0.861105 0.558125
v 0.600847 0.861105 0.608125
v 0.578125 0.856250 0.608125
v 0.558991 0.852444 0.608125
v 0.558991 0.852444 0.692500
v 0.578125 0.856250 0.692500
v 0.542770 0.841605 0.608125
v 0.542770 0.841605 0.692500
v 0.531931 0.825384 0.608125
v 0.531931 0.825384 0.692500
v 0.528125 0.806250 0.608125
v 0.528125 0.806250 0.692500
v 0.531931 0.787116 0.608125
v 0.531931 0.787116 0.692500
v 0.542770 0.770895 0.608125
v 0.542770 0.770895 0.692500
v 0.558991 0.760056 0.608125
v 0.558991 0.760056 0.692500
v 0.578125 0.756250 0.608125
v 0.578125 0.756250 0.692500
v 0.597259 0.760056 0.608125
v 0.597259 0.760056 0.692500
v 0.613480 0.770895 0.608125
v 0.613480 0.770895 0.692500
v 0.624319 0.787116 0.608125
v 0.624319 0.787116 0.692500
v 0.628125 0.806250 0.608125
v 0.628125 0.806250 0.692500
v 0.624319 0.825384 0.608125
v 0.624319 0.825384 0.692500
v 0.613480 0.841605 0.608125
v 0.613480 0.841605 0.692500
v 0.597259 0.852444 0.608125
v 0.597259 0.852444 0.692500
v 0.578125 0.875000 0.692500
v 0.551816 0.869767 0.692500
v 0.551816 0.869767 0.764375
v 0.578125 0.875000 0.764375
v 0.529511 0.854864 0.692500
v 0.529511 0.854864 0.764375
v 0.514608 0.832559 0.692500
v 0.514608 0.832559 0.764375
v 0.509375 0.806250 0.692500
v 0.509375 0.806250 0.764375
v 0.514608 0.779941 0.692500
v 0.514608 0.779941 0.764375
v 0.529511 0.757636 0.692500
v 0.529511 0.757636 0.764375
v 0.551816 0.742733 0.692500
v 0.551816 0.742733 0.764375
v 0.578125 0.737500 0.692500
v 0.578125 0.737500 0.764375
v 0.604434 0.742733 0.692500
v 0.604434 0.742733 0.764375
v 0.626739 0.757636 0.692500
v 0.626739 0.757636 0.764375
v 0.641642 0.779941 0.692500
v 0.641642 0.779941 0.764375
v 0.646875 0.806250 0.692500
v 0.646875 0.806250 0.764375
v 0.641642 0.832559 0.692500
v 0.641642 0.832559 0.764375
v 0.626739 0.854864 0.692500
v 0.626739 0.854864 0.764375
v 0.604434 0.869767 0.692500
v 0.604434 0.869767 0.764375
v 0.555394 0.861128 0.798750
v 0.578125 0.865650 0.798750
v 0.536123 0.848252 0.798750
v 0.523247 0.828981 0.798750
v 0.518725 0.806250 0.798750
v 0.523247 0.783519 0.798750
v 0.536123 0.764248 0.798750
v 0.555394 0.751372 0.798750
v 0.578125 0.746850 0.798750
v 0.600856 0.751372 0.798750
v 0.620127 0.764248 0.798750
v 0.633003 0.783519 0.798750
v 0.637525 0.806250 0.798750
v 0.633003 0.828981 0.798750
v 0.620127 0.848252 0.798750
v 0.600856 0.861128 0.798750
v 0.000000 0.000000 0.000000
v 1.000000 0.000000 0.000000
v 1.000000 0.000000 1.000000
v 0.000000 0.000000 1.000000
v 0.000000 0.737500 1.000000
v 1.000000 0.737500 1.000000
v 1.000000 0.737500 0.000000
v 0.000000 0.737500 0.000000
v 1.000000 0.737500 0.062500
v 0.000000 0.737500 0.062500
v 0.000000 1.000000 0.062500
v 1.000000 1.000000 0.062500
v 1.000000 1.000000 0.000000
v 0.000000 1.000000 0.000000
v 0.000000 0.737500 0.937500
v 1.000000 0.737500 0.937500
v 0.000000 1.000000 1.000000
v 1.000000 1.000000 1.000000
v 1.000000 1.000000 0.937500
v 0.000000 1.000000 0.937500
v 0.062500 0.737500 0.062500
v 0.062500 0.737500 0.937500
v 0.062500 1.000000 0.937500
v 0.062500 1.000000 0.062500
v 0.937500 0.737500 0.062500
v 0.937500 0.737500 0.937500
v 0.937500 1.000000 0.937500
v 0.937500 1.000000 0.062500
vn -0.1913 0.9619 0.0000
vn -0.5449 0.8155 0.0000
vn -0.8155 0.5449 0.0000
vn -0.9619 0.1913 0.0000
vn -0.9619 -0.1913 0.0000
vn -0.8155 -0.5449 0.0000
vn -0.5449 -0.8155 0.0000
vn -0.1913 -0.9619 0.0000
vn 0.1913 -0.9619 0.0000
vn 0.5449 -0.8155 0.0000
vn 0.8155 -0.5449 0.0000
vn 0.9619 -0.1913 0.0000
vn 0.9619 0.1913 0.0000
vn 0.8155 0.5449 -0.0000
vn 0.5449 0.8155 -0.0000
vn 0.1913 0.9619 0.0000
vn -0.1843 0.9544 -0.1307
vn -0.5383 0.8091 -0.1322
vn -0.8104 0.5406 -0.1136
vn -0.9591 0.1898 -0.0777
vn -0.9618 -0.1898 -0.0300
vn -0.8180 -0.5406 0.0223
vn -0.5497 -0.8091 0.0712
vn -0.1978 -0.9544 0.1093
vn 0.1843 -0.9544 0.1307
vn 0.5383 -0.8091 0.1322
vn 0.8104 -0.5406 0.1136
vn 0.9591 -0.1898 0.0777
vn 0.9618 0.1898 0.0300
vn 0.8180 0.5406 -0.0223
vn 0.5497 0.8091 -0.0712
vn 0.1978 0.9544 -0.1093
vn -0.0000 -0.0000 -1.0000
vn 0.0000 0.0000 1.0000
vn -0.2133 0.9770 0.0000
vn -0.5709 0.8210 0.0000
vn -0.8416 0.5400 0.0000
vn -0.9842 0.1768 0.0000
vn -0.9770 -0.2133 0.0000
vn -0.8210 -0.5709 0.0000
vn -0.5400 -0.8416 0.0000
vn -0.1768 -0.9842 0.0000
vn 0.2133 -0.9770 0.0000
vn 0.5709 -0.8210 0.0000
vn 0.8416 -0.5400 0.0000
vn 0.9842 -0.1768 0.0000
vn 0.9770 0.2133 0.0000
vn 0.8210 0.5709 0.0000
vn 0.5400 0.8416 0.0000
vn 0.1768 0.9842 0.0000
vn -0.1951 0.9808 0.0000
vn -0.5556 0.8315 0.0000
vn -0.8315 0.5556 0.0000
vn -0.9808 0.1951 0.0000
vn -0.9808 -0.1951 0.0000
vn -0.8315 -0.5556 0.0000
vn -0.5556 -0.8315 0.0000
vn -0.1951 -0.9808 0.0000
vn 0.1951 -0.9808 0.0000
vn 0.5556 -0.8315 0.0000
vn 0.8315 -0.5556 0.0000
vn 0.9808 -0.1951 0.0000
vn 0.9808 0.1951 0.0000
vn 0.8315 0.5556 0.0000
vn 0.5556 0.8315 0.0000
vn 0.1951 0.9808 0.0000
vn -0.1808 0.9835 0.0000
vn -0.5434 0.8394 0.0000
vn -0.8233 0.5676 0.0000
vn -0.9779 0.2093 0.0000
vn -0.9835 -0.1808 0.0000
vn -0.8394 -0.5434 0.0000
vn -0.5676 -0.8233 0.0000
vn -0.2093 -0.9779 0.0000
vn 0.1808 -0.9835 0.0000
vn 0.5434 -0.8394 0.0000
vn 0.8233 -0.5676 0.0000
vn 0.9779 -0.2093 0.0000
vn 0.9835 0.1808 0.0000
vn 0.8394 0.5434 0.0000
vn 0.5676 0.8233 0.0000
vn 0.2093 0.9779 0.0000
vn -0.1978 0.9544 -0.1093
vn -0.5497 0.8091 -0.0712
vn -0.8180 0.5406 -0.0223
vn -0.9618 0.1898 0.0300
vn -0.9591 -0.1898 0.0777
vn -0.8104 -0.5406 0.1136
vn -0.5383 -0.8091 0.1322
vn -0.1843 -0.9544 0.1307
vn 0.1978 -0.9544 0.1093
vn 0.5497 -0.8091 0.0712
vn 0.8180 -0.5406 0.0223
vn 0.9618 -0.1898 -0.0300
vn 0.9591 0.1898 -0.0777
vn 0.8104 0.5406 -0.1136
vn 0.5383 0.8091 -0.1322
vn 0.1843 0.9544 -0.1307
vn 0.0000 -1.0000 0.0000
vn 0.0000 1.0000 0.0000
vn -1.0000 0.0000 0.0000
vn 1.0000 0.0000 0.0000
vt 0.000000 0.000000
vt 0.062500 0.000000
vt 0.062500 0.659780
vt 0.000000 0.659780
vt 0.125000 0.000000
vt 0.125000 0.659780
vt 0.187500 0.000000
vt 0.187500 0.659780
vt 0.250000 0.000000
vt 0.250000 0.659780
vt 0.312500 0.000000
vt 0.312500 0.659780
vt 0.375000 0.000000
vt 0.375000 0.659780
vt 0.437500 0.000000
vt 0.437500 0.659780
vt 0.500000 0.000000
vt 0.500000 0.659780
vt 0.562500 0.000000
vt 0.562500 0.659780
vt 0.625000 0.000000
vt 0.625000 0.659780
vt 0.687500 0.000000
vt 0.687500 0.659780
vt 0.750000 0.000000
vt 0.750000 0.659780
vt 0.812500 0.000000
vt 0.812500 0.659780
vt 0.875000 0.000000
vt 0.875000 0.659780
vt 0.937500 0.000000
vt 0.937500 0.659780
vt 1.000000 0.000000
vt 1.000000 0.659780
vt 0.062500 0.900635
vt 0.000000 0.900635
vt 0.125000 0.900635
vt 0.187500 0.900635
vt 0.250000 0.900635
vt 0.312500 0.900635
vt 0.375000 0.900635
vt 0.437500 0.900635
vt 0.500000 0.900635
vt 0.562500 0.900635
vt 0.625000 0.900635
vt 0.687500 0.900635
vt 0.750000 0.900635
vt 0.812500 0.900635
vt 0.875000 0.900635
vt 0.937500 0.900635
vt 1.000000 0.900635
vt 0.062500 1.000000
vt 0.000000 1.000000
vt 0.125000 1.000000
vt 0.187500 1.000000
vt 0.250000 1.000000
vt 0.312500 1.000000
vt 0.375000 1.000000
vt 0.437500 1.000000
vt 0.500000 1.000000
vt 0.562500 1.000000
vt 0.625000 1.000000
vt 0.687500 1.000000
vt 0.750000 1.000000
vt 0.812500 1.000000
vt 0.875000 1.000000
vt 0.937500 1.000000
vt 1.000000 1.000000
vt 0.961940 0.308658
vt 0.853553 0.146447
vt 0.691342 0.038060
vt 0.308658 0.038060
vt 0.146447 0.146447
vt 0.038060 0.308658
vt 0.000000 0.500000
vt 0.038060 0.691342
vt 0.146447 0.853553
vt 0.308658 0.961940
vt 0.691342 0.961940
vt 0.853553 0.853553
vt 0.961940 0.691342
vt 1.000000 0.500000
vt 0.062500 0.125000
vt 0.000000 0.125000
vt 0.125000 0.125000
vt 0.187500 0.125000
vt 0.250000 0.125000
vt 0.312500 0.125000
vt 0.375000 0.125000
vt 0.437500 0.125000
vt 0.500000 0.125000
vt 0.562500 0.125000
vt 0.625000 0.125000
vt 0.687500 0.125000
vt 0.750000 0.125000
vt 0.812500 0.125000
vt 0.875000 0.125000
vt 0.937500 0.125000
vt 1.000000 0.125000
vt 0.595671 0.091371
vt 0.676777 0.084597
vt 0.730970 0.074459
vt 0.750000 0.062500
vt 0.730970 0.050541
vt 0.676777 0.040403
vt 0.595671 0.033629
vt 0.500000 0.031250
vt 0.404329 0.033629
vt 0.323223 0.040403
vt 0.269030 0.050541
vt 0.250000 0.062500
vt 0.269030 0.074459
vt 0.323223 0.084597
vt 0.404329 0.091371
vt 0.500000 0.093750
vt 0.062500 0.306800
vt 0.000000 0.306800
vt 0.125000 0.306800
vt 0.187500 0.306800
vt 0.250000 0.306800
vt 0.312500 0.306800
vt 0.375000 0.306800
vt 0.437500 0.306800
vt 0.500000 0.306800
vt 0.562500 0.306800
vt 0.625000 0.306800
vt 0.687500 0.306800
vt 0.750000 0.306800
vt 0.812500 0.306800
vt 0.875000 0.306800
vt 0.937500 0.306800
vt 1.000000 0.306800
vt 0.595671 0.257890
vt 0.676777 0.248038
vt 0.730970 0.233293
vt 0.750000 0.215900
vt 0.730970 0.198507
vt 0.676777 0.183762
vt 0.595671 0.173910
vt 0.500000 0.170450
vt 0.404329 0.173910
vt 0.323223 0.183762
vt 0.269030 0.198507
vt 0.250000 0.215900
vt 0.269030 0.233293
vt 0.323223 0.248038
vt 0.404329 0.257890
vt 0.500000 0.261350
vt 0.062500 0.613600
vt 0.000000 0.613600
vt 0.125000 0.613600
vt 0.187500 0.613600
vt 0.250000 0.613600
vt 0.312500 0.613600
vt 0.375000 0.613600
vt 0.437500 0.613600
vt 0.500000 0.613600
vt 0.562500 0.613600
vt 0.625000 0.613600
vt 0.687500 0.613600
vt 0.750000 0.613600
vt 0.812500 0.613600
vt 0.875000 0.613600
vt 0.937500 0.613600
vt 1.000000 0.613600
vt 0.062500 0.875000
vt 0.000000 0.875000
vt 0.125000 0.875000
vt 0.187500 0.875000
vt 0.250000 0.875000
vt 0.312500 0.875000
vt 0.375000 0.875000
vt 0.437500 0.875000
vt 0.500000 0.875000
vt 0.562500 0.875000
vt 0.625000 0.875000
vt 0.687500 0.875000
vt 0.750000 0.875000
vt 0.812500 0.875000
vt 0.875000 0.875000
vt 0.937500 0.875000
vt 1.000000 0.875000
vt 0.595671 0.804676
vt 0.676777 0.790509
vt 0.730970 0.769308
vt 0.750000 0.744300
vt 0.730970 0.719292
vt 0.676777 0.698091
vt 0.595671 0.683924
vt 0.500000 0.678950
vt 0.404329 0.683924
vt 0.323223 0.698091
vt 0.269030 0.719292
vt 0.250000 0.744300
vt 0.269030 0.769308
vt 0.323223 0.790509
vt 0.404329 0.804676
vt 0.500000 0.809650
vt 0.500000 0.968750
vt 0.404329 0.966371
vt 0.323223 0.959597
vt 0.269030 0.949459
vt 0.250000 0.937500
vt 0.269030 0.925541
vt 0.323223 0.915403
vt 0.404329 0.908629
vt 0.500000 0.906250
vt 0.595671 0.908629
vt 0.676777 0.915403
vt 0.730970 0.925541
vt 0.750000 0.937500
vt 0.730970 0.949459
vt 0.676777 0.959597
vt 0.595671 0.966371
vt 0.062500 0.537134
vt 0.000000 0.537134
vt 0.125000 0.537134
vt 0.187500 0.537134
vt 0.250000 0.537134
vt 0.312500 0.537134
vt 0.375000 0.537134
vt 0.437500 0.537134
vt 0.500000 0.537134
vt 0.562500 0.537134
vt 0.625000 0.537134
vt 0.687500 0.537134
vt 0.750000 0.537134
vt 0.812500 0.537134
vt 0.875000 0.537134
vt 0.937500 0.537134
vt 1.000000 0.537134
vt 0.062500 0.864815
vt 0.000000 0.864815
vt 0.125000 0.864815
vt 0.187500 0.864815
vt 0.250000 0.864815
vt 0.312500 0.864815
vt 0.375000 0.864815
vt 0.437500 0.864815
vt 0.500000 0.864815
vt 0.562500 0.864815
vt 0.625000 0.864815
vt 0.687500 0.864815
vt 0.750000 0.864815
vt 0.812500 0.864815
vt 0.875000 0.864815
vt 0.937500 0.864815
vt 1.000000 0.864815
vt 0.500000 0.500000
o cable
usemtl core
f 1/1/1 2/2/1 3/3/1 4/4/1
f 2/2/2 5/5/2 6/6/2 3/3/2
f 5/5/3 7/7/3 8/8/3 6/6/3
f 7/7/4 9/9/4 10/10/4 8/8/4
f 9/9/5 11/11/5 12/12/5 10/10/5
f 11/11/6 13/13/6 14/14/6 12/12/6
f 13/13/7 15/15/7 16/16/7 14/14/7
f 15/15/8 17/17/8 18/18/8 16/16/8
f 17/17/9 19/19/9 20/20/9 18/18/9
f 19/19/10 21/21/10 22/22/10 20/20/10
f 21/21/11 23/23/11 24/24/11 22/22/11
f 23/23/12 25/25/12 26/26/12 24/24/12
f 25/25/13 27/27/13 28/28/13 26/26/13
f 27/27/14 29/29/14 30/30/14 28/28/14
f 29/29/15 31/31/15 32/32/15 30/30/15
f 31/31/16 1/33/16 4/34/16 32/32/16
f 4/4/17 3/3/17 33/35/17 34/36/17
f 3/3/18 6/6/18 35/37/18 33/35/18
f 6/6/19 8/8/19 36/38/19 35/37/19
f 8/8/20 10/10/20 37/39/20 36/38/20
f 10/10/21 12/12/21 38/40/21 37/39/21
f 12/12/22 14/14/22 39/41/22 38/40/22
f 14/14/23 16/16/23 40/42/23 39/41/23
f 16/16/24 18/18/24 41/43/24 40/42/24
f 18/18/25 20/20/25 42/44/25 41/43/25
f 20/20/26 22/22/26 43/45/26 42/44/26
f 22/22/27 24/24/27 44/46/27 43/45/27
f 24/24/28 26/26/28 45/47/28 44/46/28
f 26/26/29 28/28/29 46/48/29 45/47/29
f 28/28/30 30/30/30 47/49/30 46/48/30
f 30/30/31 32/32/31 48/50/31 47/49/31
f 32/32/32 4/34/32 34/51/32 48/50/32
f 34/36/17 33/35/17 49/52/17 50/53/17
f 33/35/18 35/37/18 51/54/18 49/52/18
f 35/37/19 36/38/19 52/55/19 51/54/19
f 36/38/20 37/39/20 53/56/20 52/55/20
f 37/39/21 38/40/21 54/57/21 53/56/21
f 38/40/22 39/41/22 55/58/22 54/57/22
f 39/41/23 40/42/23 56/59/23 55/58/23
f 40/42/24 41/43/24 57/60/24 56/59/24
f 41/43/25 42/44/25 58/61/25 57/60/25
f 42/44/26 43/45/26 59/62/26 58/61/26
f 43/45/27 44/46/27 60/63/27 59/62/27
f 44/46/28 45/47/28 61/64/28 60/63/28
f 45/47/29 46/48/29 62/65/29 61/64/29
f 46/48/30 47/49/30 63/66/30 62/65/30
f 47/49/31 48/50/31 64/67/31 63/66/31
f 48/50/32 34/51/32 50/68/32 64/67/32
f 31/69/33 29/70/33 27/71/33 25/17/33 23/72/33 21/73/33 19/74/33 17/75/33 15/76/33 13/77/33 11/78/33 9/60/33 7/79/33 5/80/33 2/81/33 1/82/33
f 50/82/34 49/81/34 51/80/34 52/79/34 53/60/34 54/78/34 55/77/34 56/76/34 57/75/34 58/74/34 59/73/34 60/72/34 61/17/34 62/71/34 63/70/34 64/69/34
f 241/1/1 242/2/1 243/215/1 244/216/1
f 242/2/2 245/5/2 246/217/2 243/215/2
f 245/5/3 247/7/3 248/218/3 246/217/3
f 247/7/4 249/9/4 250/219/4 248/218/4
f 249/9/5 251/11/5 252/220/5 250/219/5
f 251/11/6 253/13/6 254/221/6 252/220/6
f 253/13/7 255/15/7 256/222/7 254/221/7
f 255/15/8 257/17/8 258/223/8 256/222/8
f 257/17/9 259/19/9 260/224/9 258/223/9
f 259/19/10 261/21/10 262/225/10 260/224/10
f 261/21/11 263/23/11 264/226/11 262/225/11
f 263/23/12 265/25/12 266/227/12 264/226/12
f 265/25/13 267/27/13 268/228/13 266/227/13
f 267/27/14 269/29/14 270/229/14 268/228/14
f 269/29/15 271/31/15 272/230/15 270/229/15
f 271/31/16 241/33/16 244/231/16 272/230/16
f 244/216/83 243/215/83 273/232/83 274/233/83
f 243/215/84 246/217/84 275/234/84 273/232/84
f 246/217/85 248/218/85 276/235/85 275/234/85
f 248/218/86 250/219/86 277/236/86 276/235/86
f 250/219/87 252/220/87 278/237/87 277/236/87
f 252/220/88 254/221/88 279/238/88 278/237/88
f 254/221/89 256/222/89 280/239/89 279/238/89
f 256/222/90 258/223/90 281/240/90 280/239/90
f 258/223/91 260/224/91 282/241/91 281/240/91
f 260/224/92 262/225/92 283/242/92 282/241/92
f 262/225/93 264/226/93 284/243/93 283/242/93
f 264/226/94 266/227/94 285/244/94 284/243/94
f 266/227/95 268/228/95 286/245/95 285/244/95
f 268/228/96 270/229/96 287/246/96 286/245/96
f 270/229/97 272/230/97 288/247/97 287/246/97
f 272/230/98 244/231/98 274/248/98 288/247/98
f 274/233/83 273/232/83 289/52/83 290/53/83
f 273/232/84 275/234/84 291/54/84 289/52/84
f 275/234/85 276/235/85 292/55/85 291/54/85
f 276/235/86 277/236/86 293/56/86 292/55/86
f 277/236/87 278/237/87 294/57/87 293/56/87
f 278/237/88 279/238/88 295/58/88 294/57/88
f 279/238/89 280/239/89 296/59/89 295/58/89
f 280/239/90 281/240/90 297/60/90 296/59/90
f 281/240/91 282/241/91 298/61/91 297/60/91
f 282/241/92 283/242/92 299/62/92 298/61/92
f 283/242/93 284/243/93 300/63/93 299/62/93
f 284/243/94 285/244/94 301/64/94 300/63/94
f 285/244/95 286/245/95 302/65/95 301/64/95
f 286/245/96 287/246/96 303/66/96 302/65/96
f 287/246/97 288/247/97 304/67/97 303/66/97
f 288/247/98 274/248/98 290/68/98 304/67/98
f 271/69/33 269/70/33 267/71/33 265/17/33 263/72/33 261/73/33 259/74/33 257/75/33 255/76/33 253/77/33 251/78/33 249/60/33 247/79/33 245/80/33 242/81/33 241/82/33
f 290/82/34 289/81/34 291/80/34 292/79/34 293/60/34 294/78/34 295/77/34 296/76/34 297/75/34 298/74/34 299/73/34 300/72/34 301/17/34 302/71/34 303/70/34 304/69/34
o plug_plus
usemtl plug_plus
f 65/1/35 66/2/35 67/83/35 68/84/35
f 66/2/36 69/5/36 70/85/36 67/83/36
f 69/5/37 71/7/37 72/86/37 70/85/37
f 71/7/38 73/9/38 74/87/38 72/86/38
f 73/9/39 75/11/39 76/88/39 74/87/39
f 75/11/40 77/13/40 78/89/40 76/88/40
f 77/13/41 79/15/41 80/90/41 78/89/41
f 79/15/42 81/17/42 82/91/42 80/90/42
f 81/17/43 83/19/43 84/92/43 82/91/43
f 83/19/44 85/21/44 86/93/44 84/92/44
f 85/21/45 87/23/45 88/94/45 86/93/45
f 87/23/46 89/25/46 90/95/46 88/94/46
f 89/25/47 91/27/47 92/96/47 90/95/47
f 91/27/48 93/29/48 94/97/48 92/96/48
f 93/29/49 95/31/49 96/98/49 94/97/49
f 95/31/50 65/33/50 68/99/50 96/98/50
f 95/100/33 93/101/33 91/102/33 89/103/33
f 95/100/33 89/103/33 87/104/33 85/105/33
f 95/100/33 85/105/33 83/106/33 81/107/33
f 95/100/33 81/107/33 79/108/33 77/109/33
f 95/100/33 77/109/33 75/110/33 73/111/33
f 95/100/33 73/111/33 71/112/33 69/113/33
f 95/100/33 69/113/33 66/114/33 65/115/33
f 97/84/51 98/83/51 99/116/51 100/117/51
f 98/83/52 101/85/52 102/118/52 99/116/52
f 101/85/53 103/86/53 104/119/53 102/118/53
f 103/86/54 105/87/54 106/120/54 104/119/54
f 105/87/55 107/88/55 108/121/55 106/120/55
f 107/88/56 109/89/56 110/122/56 108/121/56
f 109/89/57 111/90/57 112/123/57 110/122/57
f 111/90/58 113/91/58 114/124/58 112/123/58
f 113/91/59 115/92/59 116/125/59 114/124/59
f 115/92/60 117/93/60 118/126/60 116/125/60
f 117/93/61 119/94/61 120/127/61 118/126/61
f 119/94/62 121/95/62 122/128/62 120/127/62
f 121/95/63 123/96/63 124/129/63 122/128/63
f 123/96/64 125/97/64 126/130/64 124/129/64
f 125/97/65 127/98/65 128/131/65 126/130/65
f 127/98/66 97/99/66 100/132/66 128/131/66
f 127/133/33 125/134/33 123/135/33 121/136/33
f 127/133/33 121/136/33 119/137/33 117/138/33
f 127/133/33 117/138/33 115/139/33 113/140/33
f 127/133/33 113/140/33 111/141/33 109/142/33
f 127/133/33 109/142/33 107/143/33 105/144/33
f 127/133/33 105/144/33 103/145/33 101/146/33
f 127/133/33 101/146/33 98/147/33 97/148/33
f 100/148/34 99/147/34 102/146/34 104/145/34
f 100/148/34 104/145/34 106/144/34 108/143/34
f 100/148/34 108/143/34 110/142/34 112/141/34
f 100/148/34 112/141/34 114/140/34 116/139/34
f 100/148/34 116/139/34 118/138/34 120/137/34
f 100/148/34 120/137/34 122/136/34 124/135/34
f 100/148/34 124/135/34 126/134/34 128/133/34
f 129/117/51 130/116/51 131/149/51 132/150/51
f 130/116/52 133/118/52 134/151/52 131/149/52
f 133/118/53 135/119/53 136/152/53 134/151/53
f 135/119/54 137/120/54 138/153/54 136/152/54
f 137/120/55 139/121/55 140/154/55 138/153/55
f 139/121/56 141/122/56 142/155/56 140/154/56
f 141/122/57 143/123/57 144/156/57 142/155/57
f 143/123/58 145/124/58 146/157/58 144/156/58
f 145/124/59 147/125/59 148/158/59 146/157/59
f 147/125/60 149/126/60 150/159/60 148/158/60
f 149/126/61 151/127/61 152/160/61 150/159/61
f 151/127/62 153/128/62 154/161/62 152/160/62
f 153/128/63 155/129/63 156/162/63 154/161/63
f 155/129/64 157/130/64 158/163/64 156/162/64
f 157/130/65 159/131/65 160/164/65 158/163/65
f 159/131/66 129/132/66 132/165/66 160/164/66
f 161/150/51 162/149/51 163/166/51 164/167/51
f 162/149/52 165/151/52 166/168/52 163/166/52
f 165/151/53 167/152/53 168/169/53 166/168/53
f 167/152/54 169/153/54 170/170/54 168/169/54
f 169/153/55 171/154/55 172/171/55 170/170/55
f 171/154/56 173/155/56 174/172/56 172/171/56
f 173/155/57 175/156/57 176/173/57 174/172/57
f 175/156/58 177/157/58 178/174/58 176/173/58
f 177/157/59 179/158/59 180/175/59 178/174/59
f 179/158/60 181/159/60 182/176/60 180/175/60
f 181/159/61 183/160/61 184/177/61 182/176/61
f 183/160/62 185/161/62 186/178/62 184/177/62
f 185/161/63 187/162/63 188/179/63 186/178/63
f 187/162/64 189/163/64 190/180/64 188/179/64
f 189/163/65 191/164/65 192/181/65 190/180/65
f 191/164/66 161/165/66 164/182/66 192/181/66
f 191/183/33 189/184/33 187/185/33 185/186/33
f 191/183/33 185/186/33 183/187/33 181/188/33
f 191/183/33 181/188/33 179/189/33 177/190/33
f 191/183/33 177/190/33 175/191/33 173/192/33
f 191/183/33 173/192/33 171/193/33 169/194/33
f 191/183/33 169/194/33 167/195/33 165/196/33
f 191/183/33 165/196/33 162/197/33 161/198/33
f 164/167/67 163/166/67 193/52/67 194/53/67
f 163/166/68 166/168/68 195/54/68 193/52/68
f 166/168/69 168/169/69 196/55/69 195/54/69
f 168/169/70 170/170/70 197/56/70 196/55/70
f 170/170/71 172/171/71 198/57/71 197/56/71
f 172/171/72 174/172/72 199/58/72 198/57/72
f 174/172/73 176/173/73 200/59/73 199/58/73
f 176/173/74 178/174/74 201/60/74 200/59/74
f 178/174/75 180/175/75 202/61/75 201/60/75
f 180/175/76 182/176/76 203/62/76 202/61/76
f 182/176/77 184/177/77 204/63/77 203/62/77
f 184/177/78 186/178/78 205/64/78 204/63/78
f 186/178/79 188/179/79 206/65/79 205/64/79
f 188/179/80 190/180/80 207/66/80 206/65/80
f 190/180/81 192/181/81 208/67/81 207/66/81
f 192/181/82 164/182/82 194/68/82 208/67/82
f 194/199/34 193/200/34 195/201/34 196/202/34
f 194/199/34 196/202/34 197/203/34 198/204/34
f 194/199/34 198/204/34 199/205/34 200/206/34
f 194/199/34 200/206/34 201/207/34 202/208/34
f 194/199/34 202/208/34 203/209/34 204/210/34
f 194/199/34 204/210/34 205/211/34 206/212/34
f 194/199/34 206/212/34 207/213/34 208/214/34
f 209/167/51 210/166/51 211/52/51 212/53/51
f 210/166/52 213/168/52 214/54/52 211/52/52
f 213/168/53 215/169/53 216/55/53 214/54/53
f 215/169/54 217/170/54 218/56/54 216/55/54
f 217/170/55 219/171/55 220/57/55 218/56/55
f 219/171/56 221/172/56 222/58/56 220/57/56
f 221/172/57 223/173/57 224/59/57 222/58/57
f 223/173/58 225/174/58 226/60/58 224/59/58
f 225/174/59 227/175/59 228/61/59 226/60/59
f 227/175/60 229/176/60 230/62/60 228/61/60
f 229/176/61 231/177/61 232/63/61 230/62/61
f 231/177/62 233/178/62 234/64/62 232/63/62
f 233/178/63 235/179/63 236/65/63 234/64/63
f 235/179/64 237/180/64 238/66/64 236/65/64
f 237/180/65 239/181/65 240/67/65 238/66/65
f 239/181/66 209/182/66 212/68/66 240/67/66
f 212/199/34 211/200/34 214/201/34 216/202/34
f 212/199/34 216/202/34 218/203/34 220/204/34
f 212/199/34 220/204/34 222/205/34 224/206/34
f 212/199/34 224/206/34 226/207/34 228/208/34
f 212/199/34 228/208/34 230/209/34 232/210/34
f 212/199/34 232/210/34 234/211/34 236/212/34
f 212/199/34 236/212/34 238/213/34 240/214/34
o plug_minus
usemtl plug_minus
f 305/1/35 306/2/35 307/83/35 308/84/35
f 306/2/36 309/5/36 310/85/36 307/83/36
f 309/5/37 311/7/37 312/86/37 310/85/37
f 311/7/38 313/9/38 314/87/38 312/86/38
f 313/9/39 315/11/39 316/88/39 314/87/39
f 315/11/40 317/13/40 318/89/40 316/88/40
f 317/13/41 319/15/41 320/90/41 318/89/41
f 319/15/42 321/17/42 322/91/42 320/90/42
f 321/17/43 323/19/43 324/92/43 322/91/43
f 323/19/44 325/21/44 326/93/44 324/92/44
f 325/21/45 327/23/45 328/94/45 326/93/45
f 327/23/46 329/25/46 330/95/46 328/94/46
f 329/25/47 331/27/47 332/96/47 330/95/47
f 331/27/48 333/29/48 334/97/48 332/96/48
f 333/29/49 335/31/49 336/98/49 334/97/49
f 335/31/50 305/33/50 308/99/50 336/98/50
f 335/100/33 333/101/33 331/102/33 329/103/33
f 335/100/33 329/103/33 327/104/33 325/105/33
f 335/100/33 325/105/33 323/106/33 321/107/33
f 335/100/33 321/107/33 319/108/33 317/109/33
f 335/100/33 317/109/33 315/110/33 313/111/33
f 335/100/33 313/111/33 311/112/33 309/113/33
f 335/100/33 309/113/33 306/114/33 305/115/33
f 337/84/51 338/83/51 339/116/51 340/117/51
f 338/83/52 341/85/52 342/118/52 339/116/52
f 341/85/53 343/86/53 344/119/53 342/118/53
f 343/86/54 345/87/54 346/120/54 344/119/54
f 345/87/55 347/88/55 348/121/55 346/120/55
f 347/88/56 349/89/56 350/122/56 348/121/56
f 349/89/57 351/90/57 352/123/57 350/122/57
f 351/90/58 353/91/58 354/124/58 352/123/58
f 353/91/59 355/92/59 356/125/59 354/124/59
f 355/92/60 357/93/60 358/126/60 356/125/60
f 357/93/61 359/94/61 360/127/61 358/126/61
f 359/94/62 361/95/62 362/128/62 360/127/62
f 361/95/63 363/96/63 364/129/63 362/128/63
f 363/96/64 365/97/64 366/130/64 364/129/64
f 365/97/65 367/98/65 368/131/65 366/130/65
f 367/98/66 337/99/66 340/132/66 368/131/66
f 367/133/33 365/134/33 363/135/33 361/136/33
f 367/133/33 361/136/33 359/137/33 357/138/33
f 367/133/33 357/138/33 355/139/33 353/140/33
f 367/133/33 353/140/33 351/141/33 349/142/33
f 367/133/33 349/142/33 347/143/33 345/144/33
f 367/133/33 345/144/33 343/145/33 341/146/33
f 367/133/33 341/146/33 338/147/33 337/148/33
f 340/148/34 339/147/34 342/146/34 344/145/34
f 340/148/34 344/145/34 346/144/34 348/143/34
f 340/148/34 348/143/34 350/142/34 352/141/34
f 340/148/34 352/141/34 354/140/34 356/139/34
f 340/148/34 356/139/34 358/138/34 360/137/34
f 340/148/34 360/137/34 362/136/34 364/135/34
f 340/148/34 364/135/34 366/134/34 368/133/34
f 369/117/51 370/116/51 371/149/51 372/150/51
f 370/116/52 373/118/52 374/151/52 371/149/52
f 373/118/53 375/119/53 376/152/53 374/151/53
f 375/119/54 377/120/54 378/153/54 376/152/54
f 377/120/55 379/121/55 380/154/55 378/153/55
f 379/121/56 381/122/56 382/155/56 380/154/56
f 381/122/57 383/123/57 384/156/57 382/155/57
f 383/123/58 385/124/58 386/157/58 384/156/58
f 385/124/59 387/125/59 388/158/59 386/157/59
f 387/125/60 389/126/60 390/159/60 388/158/60
f 389/126/61 391/127/61 392/160/61 390/159/61
f 391/127/62 393/128/62 394/161/62 392/160/62
f 393/128/63 395/129/63 396/162/63 394/161/63
f 395/129/64 397/130/64 398/163/64 396/162/64
f 397/130/65 399/131/65 400/164/65 398/163/65
f 399/131/66 369/132/66 372/165/66 400/164/66
f 401/150/51 402/149/51 403/166/51 404/167/51
f 402/149/52 405/151/52 406/168/52 403/166/52
f 405/151/53 407/152/53 408/169/53 406/168/53
f 407/152/54 409/153/54 410/170/54 408/169/54
f 409/153/55 411/154/55 412/171/55 410/170/55
f 411/154/56 413/155/56 414/172/56 412/171/56
f 413/155/57 415/156/57 416/173/57 414/172/57
f 415/156/58 417/157/58 418/174/58 416/173/58
f 417/157/59 419/158/59 420/175/59 418/174/59
f 419/158/60 421/159/60 422/176/60 420/175/60
f 421/159/61 423/160/61 424/177/61 422/176/61
f 423/160/62 425/161/62 426/178/62 424/177/62
f 425/161/63 427/162/63 428/179/63 426/178/63
f 427/162/64 429/163/64 430/180/64 428/179/64
f 429/163/65 431/164/65 432/181/65 430/180/65
f 431/164/66 401/165/66 404/182/66 432/181/66
f 431/183/33 429/184/33 427/185/33 425/186/33
f 431/183/33 425/186/33 423/187/33 421/188/33
f 431/183/33 421/188/33 419/189/33 417/190/33
f 431/183/33 417/190/33 415/191/33 413/192/33
f 431/183/33 413/192/33 411/193/33 409/194/33
f 431/183/33 409/194/33 407/195/33 405/196/33
f 431/183/33 405/196/33 402/197/33 401/198/33
f 404/167/67 403/166/67 433/52/67 434/53/67
f 403/166/68 406/168/68 435/54/68 433/52/68
f 406/168/69 408/169/69 436/55/69 435/54/69
f 408/169/70 410/170/70 437/56/70 436/55/70
f 410/170/71 412/171/71 438/57/71 437/56/71
f 412/171/72 414/172/72 439/58/72 438/57/72
f 414/172/73 416/173/73 440/59/73 439/58/73
f 416/173/74 418/174/74 441/60/74 440/59/74
f 418/174/75 420/175/75 442/61/75 441/60/75
f 420/175/76 422/176/76 443/62/76 442/61/76
f 422/176/77 424/177/77 444/63/77 443/62/77
f 424/177/78 426/178/78 445/64/78 444/63/78
f 426/178/79 428/179/79 446/65/79 445/64/79
f 428/179/80 430/180/80 447/66/80 446/65/80
f 430/180/81 432/181/81 448/67/81 447/66/81
f 432/181/82 404/182/82 434/68/82 448/67/82
f 434/199/34 433/200/34 435/201/34 436/202/34
f 434/199/34 436/202/34 437/203/34 438/204/34
f 434/199/34 438/204/34 439/205/34 440/206/34
f 434/199/34 440/206/34 441/207/34 442/208/34
f 434/199/34 442/208/34 443/209/34 444/210/34
f 434/199/34 444/210/34 445/211/34 446/212/34
f 434/199/34 446/212/34 447/213/34 448/214/34
o bedding
usemtl trench
f 449/53/99 450/68/99 451/33/99 452/1/99
f 453/1/100 454/33/100 455/68/100 456/53/100
f 456/68/33 455/53/33 450/1/33 449/33/33
f 454/68/34 453/53/34 452/1/34 451/33/34
f 453/68/101 456/53/101 449/1/101 452/33/101
f 455/68/102 454/53/102 451/1/102 450/33/102
f 456/75/99 455/249/99 457/17/99 458/1/99
f 459/1/100 460/17/100 461/249/100 462/75/100
f 462/249/33 461/75/33 455/1/33 456/17/33
f 460/249/34 459/75/34 458/1/34 457/17/34
f 459/249/101 462/75/101 456/1/101 458/17/101
f 461/249/102 460/75/102 457/1/102 455/17/102
f 463/75/99 464/249/99 454/17/99 453/1/99
f 465/1/100 466/17/100 467/249/100 468/75/100
f 468/249/33 467/75/33 464/1/33 463/17/33
f 466/249/34 465/75/34 453/1/34 454/17/34
f 465/249/101 468/75/101 463/1/101 453/17/101
f 467/249/102 466/75/102 454/1/102 464/17/102
f 458/75/99 469/249/99 470/17/99 463/1/99
f 468/1/100 471/17/100 472/249/100 459/75/100
f 459/249/33 472/75/33 469/1/33 458/17/33
f 471/249/34 468/75/34 463/1/34 470/17/34
f 468/249/101 459/75/101 458/1/101 463/17/101
f 472/249/102 471/75/102 470/1/102 469/17/102
f 473/75/99 457/249/99 464/17/99 474/1/99
f 475/1/100 467/17/100 460/249/100 476/75/100
f 476/249/33 460/75/33 457/1/33 473/17/33
f 467/249/34 475/75/34 474/1/34 464/17/34
f 475/249/101 476/75/101 473/1/101 474/17/101
f 460/249/102 467/75/102 464/1/102 457/17/102
