# generated by tools/gen_cable_models.py - do not edit by hand
mtllib dc_string_cable_loose.mtl
v -0.065625 0.081250 -0.300000
v -0.073551 0.080469 -0.300000
v -0.073551 0.080469 0.025000
v -0.065625 0.081250 0.025000
v -0.081172 0.078158 -0.300000
v -0.081172 0.078158 0.025000
v -0.088195 0.074403 -0.300000
v -0.088195 0.074403 0.025000
v -0.094351 0.069351 -0.300000
v -0.094351 0.069351 0.025000
v -0.099403 0.063195 -0.300000
v -0.099403 0.063195 0.025000
v -0.103158 0.056172 -0.300000
v -0.103158 0.056172 0.025000
v -0.105469 0.048551 -0.300000
v -0.105469 0.048551 0.025000
v -0.106250 0.040625 -0.300000
v -0.106250 0.040625 0.025000
v -0.105469 0.032699 -0.300000
v -0.105469 0.032699 0.025000
v -0.103158 0.025078 -0.300000
v -0.103158 0.025078 0.025000
v -0.099403 0.018055 -0.300000
v -0.099403 0.018055 0.025000
v -0.094351 0.011899 -0.300000
v -0.094351 0.011899 0.025000
v -0.088195 0.006847 -0.300000
v -0.088195 0.006847 0.025000
v -0.081172 0.003092 -0.300000
v -0.081172 0.003092 0.025000
v -0.073551 0.000781 -0.300000
v -0.073551 0.000781 0.025000
v -0.065625 0.000000 -0.300000
v -0.065625 0.000000 0.025000
v -0.057699 0.000781 -0.300000
v -0.057699 0.000781 0.025000
v -0.050078 0.003092 -0.300000
v -0.050078 0.003092 0.025000
v -0.043055 0.006847 -0.300000
v -0.043055 0.006847 0.025000
v -0.036899 0.011899 -0.300000
v -0.036899 0.011899 0.025000
v -0.031847 0.018055 -0.300000
v -0.031847 0.018055 0.025000
v -0.028092 0.025078 -0.300000
v -0.028092 0.025078 0.025000
v -0.025781 0.032699 -0.300000
v -0.025781 0.032699 0.025000
v -0.025000 0.040625 -0.300000
v -0.025000 0.040625 0.025000
v -0.025781 0.048551 -0.300000
v -0.025781 0.048551 0.025000
v -0.028092 0.056172 -0.300000
v -0.028092 0.056172 0.025000
v -0.031847 0.063195 -0.300000
v -0.031847 0.063195 0.025000
v -0.036899 0.069351 -0.300000
v -0.036899 0.069351 0.025000
v -0.043055 0.074403 -0.300000
v -0.043055 0.074403 0.025000
v -0.050078 0.078158 -0.300000
v -0.050078 0.078158 0.025000
v -0.057699 0.080469 -0.300000
v -0.057699 0.080469 0.025000
v -0.012500 0.040625 -0.043750
v -0.013521 0.050989 -0.043750
v -0.013521 0.050989 0.093750
v -0.012500 0.040625 0.093750
v -0.016544 0.060955 -0.043750
v -0.016544 0.060955 0.093750
v -0.021453 0.070140 -0.043750
v -0.021453 0.070140 0.093750
v -0.028060 0.078190 -0.043750
v -0.028060 0.078190 0.093750
v -0.036110 0.084797 -0.043750
v -0.036110 0.084797 0.093750
v -0.045295 0.089706 -0.043750
v -0.045295 0.089706 0.093750
v -0.055261 0.092729 -0.043750
v -0.055261 0.092729 0.093750
v -0.065625 0.093750 -0.043750
v -0.065625 0.093750 0.093750
v -0.075989 0.092729 -0.043750
v -0.075989 0.092729 0.093750
v -0.085955 0.089706 -0.043750
v -0.085955 0.089706 0.093750
v -0.095140 0.084797 -0.043750
v -0.095140 0.084797 0.093750
v -0.103190 0.078190 -0.043750
v -0.103190 0.078190 0.093750
v -0.109797 0.070140 -0.043750
v -0.109797 0.070140 0.093750
v -0.114706 0.060955 -0.043750
v -0.114706 0.060955 0.093750
v -0.117729 0.050989 -0.043750
v -0.117729 0.050989 0.093750
v -0.118750 0.040625 -0.043750
v -0.118750 0.040625 0.093750
v -0.117729 0.030261 -0.043750
v -0.117729 0.030261 0.093750
v -0.114706 0.020295 -0.043750
v -0.114706 0.020295 0.093750
v -0.109797 0.011110 -0.043750
v -0.109797 0.011110 0.093750
v -0.103190 0.003060 -0.043750
v -0.103190 0.003060 0.093750
v -0.095140 -0.003547 -0.043750
v -0.095140 -0.003547 0.093750
v -0.085955 -0.008456 -0.043750
v -0.085955 -0.008456 0.093750
v -0.075989 -0.011479 -0.043750
v -0.075989 -0.011479 0.093750
v -0.065625 -0.012500 -0.043750
v -0.065625 -0.012500 0.093750
v -0.055261 -0.011479 -0.043750
v -0.055261 -0.011479 0.093750
v -0.045295 -0.008456 -0.043750
v -0.045295 -0.008456 0.093750
v -0.036110 -0.003547 -0.043750
v -0.036110 -0.003547 0.093750
v -0.028060 0.003060 -0.043750
v -0.028060 0.003060 0.093750
v -0.021453 0.011110 -0.043750
v -0.021453 0.011110 0.093750
v -0.016544 0.020295 -0.043750
v -0.016544 0.020295 0.093750
v -0.013521 0.030261 -0.043750
v -0.013521 0.030261 0.093750
v -0.006250 0.040625 -0.068750
v -0.007391 0.052208 -0.068750
v -0.007391 0.052208 0.256250
v -0.006250 0.040625 0.256250
v -0.010770 0.063347 -0.068750
v -0.010770 0.063347 0.256250
v -0.016256 0.073612 -0.068750
v -0.016256 0.073612 0.256250
v -0.023641 0.082609 -0.068750
v -0.023641 0.082609 0.256250
v -0.032638 0.089994 -0.068750
v -0.032638 0.089994 0.256250
v -0.042903 0.095480 -0.068750
v -0.042903 0.095480 0.256250
v -0.054042 0.098859 -0.068750
v -0.054042 0.098859 0.256250
v -0.065625 0.100000 -0.068750
v -0.065625 0.100000 0.256250
v -0.077208 0.098859 -0.068750
v -0.077208 0.098859 0.256250
v -0.088347 0.095480 -0.068750
v -0.088347 0.095480 0.256250
v -0.098612 0.089994 -0.068750
v -0.098612 0.089994 0.256250
v -0.107609 0.082609 -0.068750
v -0.107609 0.082609 0.256250
v -0.114994 0.073612 -0.068750
v -0.114994 0.073612 0.256250
v -0.120480 0.063347 -0.068750
v -0.120480 0.063347 0.256250
v -0.123859 0.052208 -0.068750
v -0.123859 0.052208 0.256250
v -0.125000 0.040625 -0.068750
v -0.125000 0.040625 0.256250
v -0.123859 0.029042 -0.068750
v -0.123859 0.029042 0.256250
v -0.120480 0.017903 -0.068750
v -0.120480 0.017903 0.256250
v -0.114994 0.007638 -0.068750
v -0.114994 0.007638 0.256250
v -0.107609 -0.001359 -0.068750
v -0.107609 -0.001359 0.256250
v -0.098612 -0.008744 -0.068750
v -0.098612 -0.008744 0.256250
v -0.088347 -0.014230 -0.068750
v -0.088347 -0.014230 0.256250
v -0.077208 -0.017609 -0.068750
v -0.077208 -0.017609 0.256250
v -0.065625 -0.018750 -0.068750
v -0.065625 -0.018750 0.256250
v -0.054042 -0.017609 -0.068750
v -0.054042 -0.017609 0.256250
v -0.042903 -0.014230 -0.068750
v -0.042903 -0.014230 0.256250
v -0.032638 -0.008744 -0.068750
v -0.032638 -0.008744 0.256250
v -0.023641 -0.001359 -0.068750
v -0.023641 -0.001359 0.256250
v -0.016256 0.007638 -0.068750
v -0.016256 0.007638 0.256250
v -0.010770 0.017903 -0.068750
v -0.010770 0.017903 0.256250
v -0.007391 0.029042 -0.068750
v -0.007391 0.029042 0.256250
v -0.026875 0.040625 0.212500
v -0.027620 0.048185 0.212500
v -0.027620 0.048185 0.300000
v -0.026875 0.040625 0.300000
v -0.029825 0.055454 0.212500
v -0.029825 0.055454 0.300000
v -0.033406 0.062153 0.212500
v -0.033406 0.062153 0.300000
v -0.038225 0.068025 0.212500
v -0.038225 0.068025 0.300000
v -0.044097 0.072844 0.212500
v -0.044097 0.072844 0.300000
v -0.050796 0.076425 0.212500
v -0.050796 0.076425 0.300000
v -0.058065 0.078630 0.212500
v -0.058065 0.078630 0.300000
v -0.065625 0.079375 0.212500
v -0.065625 0.079375 0.300000
v -0.073185 0.078630 0.212500
v -0.073185 0.078630 0.300000
v -0.080454 0.076425 0.212500
v -0.080454 0.076425 0.300000
v -0.087153 0.072844 0.212500
v -0.087153 0.072844 0.300000
v -0.093025 0.068025 0.212500
v -0.093025 0.068025 0.300000
v -0.097844 0.062153 0.212500
v -0.097844 0.062153 0.300000
v -0.101425 0.055454 0.212500
v -0.101425 0.055454 0.300000
v -0.103630 0.048185 0.212500
v -0.103630 0.048185 0.300000
v -0.104375 0.040625 0.212500
v -0.104375 0.040625 0.300000
v -0.103630 0.033065 0.212500
v -0.103630 0.033065 0.300000
v -0.101425 0.025796 0.212500
v -0.101425 0.025796 0.300000
v -0.097844 0.019097 0.212500
v -0.097844 0.019097 0.300000
v -0.093025 0.013225 0.212500
v -0.093025 0.013225 0.300000
v -0.087153 0.008406 0.212500
v -0.087153 0.008406 0.300000
v -0.080454 0.004825 0.212500
v -0.080454 0.004825 0.300000
v -0.073185 0.002620 0.212500
v -0.073185 0.002620 0.300000
v -0.065625 0.001875 0.212500
v -0.065625 0.001875 0.300000
v -0.058065 0.002620 0.212500
v -0.058065 0.002620 0.300000
v -0.050796 0.004825 0.212500
v -0.050796 0.004825 0.300000
v -0.044097 0.008406 0.212500
v -0.044097 0.008406 0.300000
v -0.038225 0.013225 0.212500
v -0.038225 0.013225 0.300000
v -0.033406 0.019097 0.212500
v -0.033406 0.019097 0.300000
v -0.029825 0.025796 0.212500
v -0.029825 0.025796 0.300000
v -0.027620 0.033065 0.212500
v -0.027620 0.033065 0.300000
v 0.065625 0.081250 -0.300000
v 0.057699 0.080469 -0.300000
v 0.057699 0.080469 0.025000
v 0.065625 0.081250 0.025000
v 0.050078 0.078158 -0.300000
v 0.050078 0.078158 0.025000
v 0.043055 0.074403 -0.300000
v 0.043055 0.074403 0.025000
v 0.036899 0.069351 -0.300000
v 0.036899 0.069351 0.025000
v 0.031847 0.063195 -0.300000
v 0.031847 0.063195 0.025000
v 0.028092 0.056172 -0.300000
v 0.028092 0.056172 0.025000
v 0.025781 0.048551 -0.300000
v 0.025781 0.048551 0.025000
v 0.025000 0.040625 -0.300000
v 0.025000 0.040625 0.025000
v 0.025781 0.032699 -0.300000
v 0.025781 0.032699 0.025000
v 0.028092 0.025078 -0.300000
v 0.028092 0.025078 0.025000
v 0.031847 0.018055 -0.300000
v 0.031847 0.018055 0.025000
v 0.036899 0.011899 -0.300000
v 0.036899 0.011899 0.025000
v 0.043055 0.006847 -0.300000
v 0.043055 0.006847 0.025000
v 0.050078 0.003092 -0.300000
v 0.050078 0.003092 0.025000
v 0.057699 0.000781 -0.300000
v 0.057699 0.000781 0.025000
v 0.065625 0.000000 -0.300000
v 0.065625 0.000000 0.025000
v 0.073551 0.000781 -0.300000
v 0.073551 0.000781 0.025000
v 0.081172 0.003092 -0.300000
v 0.081172 0.003092 0.025000
v 0.088195 0.006847 -0.300000
v 0.088195 0.006847 0.025000
v 0.094351 0.011899 -0.300000
v 0.094351 0.011899 0.025000
v 0.099403 0.018055 -0.300000
v 0.099403 0.018055 0.025000
v 0.103158 0.025078 -0.300000
v 0.103158 0.025078 0.025000
v 0.105469 0.032699 -0.300000
v 0.105469 0.032699 0.025000
v 0.106250 0.040625 -0.300000
v 0.106250 0.040625 0.025000
v 0.105469 0.048551 -0.300000
v 0.105469 0.048551 0.025000
v 0.103158 0.056172 -0.300000
v 0.103158 0.056172 0.025000
v 0.099403 0.063195 -0.300000
v 0.099403 0.063195 0.025000
v 0.094351 0.069351 -0.300000
v 0.094351 0.069351 0.025000
v 0.088195 0.074403 -0.300000
v 0.088195 0.074403 0.025000
v 0.081172 0.078158 -0.300000
v 0.081172 0.078158 0.025000
v 0.073551 0.080469 -0.300000
v 0.073551 0.080469 0.025000
v 0.118750 0.040625 -0.043750
v 0.117729 0.050989 -0.043750
v 0.117729 0.050989 0.093750
v 0.118750 0.040625 0.093750
v 0.114706 0.060955 -0.043750
v 0.114706 0.060955 0.093750
v 0.109797 0.070140 -0.043750
v 0.109797 0.070140 0.093750
v 0.103190 0.078190 -0.043750
v 0.103190 0.078190 0.093750
v 0.095140 0.084797 -0.043750
v 0.095140 0.084797 0.093750
v 0.085955 0.089706 -0.043750
v 0.085955 0.089706 0.093750
v 0.075989 0.092729 -0.043750
v 0.075989 0.092729 0.093750
v 0.065625 0.093750 -0.043750
v 0.065625 0.093750 0.093750
v 0.055261 0.092729 -0.043750
v 0.055261 0.092729 0.093750
v 0.045295 0.089706 -0.043750
v 0.045295 0.089706 0.093750
v 0.036110 0.084797 -0.043750
v 0.036110 0.084797 0.093750
v 0.028060 0.078190 -0.043750
v 0.028060 0.078190 0.093750
v 0.021453 0.070140 -0.043750
v 0.021453 0.070140 0.093750
v 0.016544 0.060955 -0.043750
v 0.016544 0.060955 0.093750
v 0.013521 0.050989 -0.043750
v 0.013521 0.050989 0.093750
v 0.012500 0.040625 -0.043750
v 0.012500 0.040625 0.093750
v 0.013521 0.030261 -0.043750
v 0.013521 0.030261 0.093750
v 0.016544 0.020295 -0.043750
v 0.016544 0.020295 0.093750
v 0.021453 0.011110 -0.043750
v 0.021453 0.011110 0.093750
v 0.028060 0.003060 -0.043750
v 0.028060 0.003060 0.093750
v 0.036110 -0.003547 -0.043750
v 0.036110 -0.003547 0.093750
v 0.045295 -0.008456 -0.043750
v 0.045295 -0.008456 0.093750
v 0.055261 -0.011479 -0.043750
v 0.055261 -0.011479 0.093750
v 0.065625 -0.012500 -0.043750
v 0.065625 -0.012500 0.093750
v 0.075989 -0.011479 -0.043750
v 0.075989 -0.011479 0.093750
v 0.085955 -0.008456 -0.043750
v 0.085955 -0.008456 0.093750
v 0.095140 -0.003547 -0.043750
v 0.095140 -0.003547 0.093750
v 0.103190 0.003060 -0.043750
v 0.103190 0.003060 0.093750
v 0.109797 0.011110 -0.043750
v 0.109797 0.011110 0.093750
v 0.114706 0.020295 -0.043750
v 0.114706 0.020295 0.093750
v 0.117729 0.030261 -0.043750
v 0.117729 0.030261 0.093750
v 0.125000 0.040625 -0.068750
v 0.123859 0.052208 -0.068750
v 0.123859 0.052208 0.256250
v 0.125000 0.040625 0.256250
v 0.120480 0.063347 -0.068750
v 0.120480 0.063347 0.256250
v 0.114994 0.073612 -0.068750
v 0.114994 0.073612 0.256250
v 0.107609 0.082609 -0.068750
v 0.107609 0.082609 0.256250
v 0.098612 0.089994 -0.068750
v 0.098612 0.089994 0.256250
v 0.088347 0.095480 -0.068750
v 0.088347 0.095480 0.256250
v 0.077208 0.098859 -0.068750
v 0.077208 0.098859 0.256250
v 0.065625 0.100000 -0.068750
v 0.065625 0.100000 0.256250
v 0.054042 0.098859 -0.068750
v 0.054042 0.098859 0.256250
v 0.042903 0.095480 -0.068750
v 0.042903 0.095480 0.256250
v 0.032638 0.089994 -0.068750
v 0.032638 0.089994 0.256250
v 0.023641 0.082609 -0.068750
v 0.023641 0.082609 0.256250
v 0.016256 0.073612 -0.068750
v 0.016256 0.073612 0.256250
v 0.010770 0.063347 -0.068750
v 0.010770 0.063347 0.256250
v 0.007391 0.052208 -0.068750
v 0.007391 0.052208 0.256250
v 0.006250 0.040625 -0.068750
v 0.006250 0.040625 0.256250
v 0.007391 0.029042 -0.068750
v 0.007391 0.029042 0.256250
v 0.010770 0.017903 -0.068750
v 0.010770 0.017903 0.256250
v 0.016256 0.007638 -0.068750
v 0.016256 0.007638 0.256250
v 0.023641 -0.001359 -0.068750
v 0.023641 -0.001359 0.256250
v 0.032638 -0.008744 -0.068750
v 0.032638 -0.008744 0.256250
v 0.042903 -0.014230 -0.068750
v 0.042903 -0.014230 0.256250
v 0.054042 -0.017609 -0.068750
v 0.054042 -0.017609 0.256250
v 0.065625 -0.018750 -0.068750
v 0.065625 -0.018750 0.256250
v 0.077208 -0.017609 -0.068750
v 0.077208 -0.017609 0.256250
v 0.088347 -0.014230 -0.068750
v 0.088347 -0.014230 0.256250
v 0.098612 -0.008744 -0.068750
v 0.098612 -0.008744 0.256250
v 0.107609 -0.001359 -0.068750
v 0.107609 -0.001359 0.256250
v 0.114994 0.007638 -0.068750
v 0.114994 0.007638 0.256250
v 0.120480 0.017903 -0.068750
v 0.120480 0.017903 0.256250
v 0.123859 0.029042 -0.068750
v 0.123859 0.029042 0.256250
v 0.104375 0.040625 0.212500
v 0.103630 0.048185 0.212500
v 0.103630 0.048185 0.300000
v 0.104375 0.040625 0.300000
v 0.101425 0.055454 0.212500
v 0.101425 0.055454 0.300000
v 0.097844 0.062153 0.212500
v 0.097844 0.062153 0.300000
v 0.093025 0.068025 0.212500
v 0.093025 0.068025 0.300000
v 0.087153 0.072844 0.212500
v 0.087153 0.072844 0.300000
v 0.080454 0.076425 0.212500
v 0.080454 0.076425 0.300000
v 0.073185 0.078630 0.212500
v 0.073185 0.078630 0.300000
v 0.065625 0.079375 0.212500
v 0.065625 0.079375 0.300000
v 0.058065 0.078630 0.212500
v 0.058065 0.078630 0.300000
v 0.050796 0.076425 0.212500
v 0.050796 0.076425 0.300000
v 0.044097 0.072844 0.212500
v 0.044097 0.072844 0.300000
v 0.038225 0.068025 0.212500
v 0.038225 0.068025 0.300000
v 0.033406 0.062153 0.212500
v 0.033406 0.062153 0.300000
v 0.029825 0.055454 0.212500
v 0.029825 0.055454 0.300000
v 0.027620 0.048185 0.212500
v 0.027620 0.048185 0.300000
v 0.026875 0.040625 0.212500
v 0.026875 0.040625 0.300000
v 0.027620 0.033065 0.212500
v 0.027620 0.033065 0.300000
v 0.029825 0.025796 0.212500
v 0.029825 0.025796 0.300000
v 0.033406 0.019097 0.212500
v 0.033406 0.019097 0.300000
v 0.038225 0.013225 0.212500
v 0.038225 0.013225 0.300000
v 0.044097 0.008406 0.212500
v 0.044097 0.008406 0.300000
v 0.050796 0.004825 0.212500
v 0.050796 0.004825 0.300000
v 0.058065 0.002620 0.212500
v 0.058065 0.002620 0.300000
v 0.065625 0.001875 0.212500
v 0.065625 0.001875 0.300000
v 0.073185 0.002620 0.212500
v 0.073185 0.002620 0.300000
v 0.080454 0.004825 0.212500
v 0.080454 0.004825 0.300000
v 0.087153 0.008406 0.212500
v 0.087153 0.008406 0.300000
v 0.093025 0.013225 0.212500
v 0.093025 0.013225 0.300000
v 0.097844 0.019097 0.212500
v 0.097844 0.019097 0.300000
v 0.101425 0.025796 0.212500
v 0.101425 0.025796 0.300000
v 0.103630 0.033065 0.212500
v 0.103630 0.033065 0.300000
vn -0.0975 0.9904 0.0000
vn -0.2889 0.9523 0.0000
vn -0.4691 0.8777 0.0000
vn -0.6313 0.7693 0.0000
vn -0.7693 0.6313 0.0000
vn -0.8777 0.4691 0.0000
vn -0.9523 0.2889 0.0000
vn -0.9904 0.0975 0.0000
vn -0.9904 -0.0975 0.0000
vn -0.9523 -0.2889 0.0000
vn -0.8777 -0.4691 0.0000
vn -0.7693 -0.6313 0.0000
vn -0.6313 -0.7693 0.0000
vn -0.4691 -0.8777 0.0000
vn -0.2889 -0.9523 0.0000
vn -0.0975 -0.9904 0.0000
vn 0.0975 -0.9904 0.0000
vn 0.2889 -0.9523 0.0000
vn 0.4691 -0.8777 0.0000
vn 0.6313 -0.7693 0.0000
vn 0.7693 -0.6313 0.0000
vn 0.8777 -0.4691 0.0000
vn 0.9523 -0.2889 0.0000
vn 0.9904 -0.0975 0.0000
vn 0.9904 0.0975 0.0000
vn 0.9523 0.2889 -0.0000
vn 0.8777 0.4691 -0.0000
vn 0.7693 0.6313 -0.0000
vn 0.6313 0.7693 -0.0000
vn 0.4691 0.8777 -0.0000
vn 0.2889 0.9523 -0.0000
vn 0.0975 0.9904 0.0000
vn 0.9952 0.0980 0.0000
vn 0.9569 0.2903 0.0000
vn 0.8819 0.4714 0.0000
vn 0.7730 0.6344 0.0000
vn 0.6344 0.7730 0.0000
vn 0.4714 0.8819 0.0000
vn 0.2903 0.9569 0.0000
vn 0.0980 0.9952 0.0000
vn -0.0980 0.9952 0.0000
vn -0.2903 0.9569 0.0000
vn -0.4714 0.8819 0.0000
vn -0.6344 0.7730 0.0000
vn -0.7730 0.6344 0.0000
vn -0.8819 0.4714 0.0000
vn -0.9569 0.2903 0.0000
vn -0.9952 0.0980 0.0000
vn -0.9952 -0.0980 0.0000
vn -0.9569 -0.2903 0.0000
vn -0.8819 -0.4714 0.0000
vn -0.7730 -0.6344 0.0000
vn -0.6344 -0.7730 0.0000
vn -0.4714 -0.8819 0.0000
vn -0.2903 -0.9569 0.0000
vn -0.0980 -0.9952 0.0000
vn 0.0980 -0.9952 0.0000
vn 0.2903 -0.9569 0.0000
vn 0.4714 -0.8819 0.0000
vn 0.6344 -0.7730 0.0000
vn 0.7730 -0.6344 0.0000
vn 0.8819 -0.4714 0.0000
vn 0.9569 -0.2903 0.0000
vn 0.9952 -0.0980 0.0000
vn 0.0000 0.0000 1.0000
vt 0.000000 0.000000
vt 0.031250 0.000000
vt 0.031250 1.733333
vt 0.000000 1.733333
vt 0.062500 0.000000
vt 0.062500 1.733333
vt 0.093750 0.000000
vt 0.093750 1.733333
vt 0.125000 0.000000
vt 0.125000 1.733333
vt 0.156250 0.000000
vt 0.156250 1.733333
vt 0.187500 0.000000
vt 0.187500 1.733333
vt 0.218750 0.000000
vt 0.218750 1.733333
vt 0.250000 0.000000
vt 0.250000 1.733333
vt 0.281250 0.000000
vt 0.281250 1.733333
vt 0.312500 0.000000
vt 0.312500 1.733333
vt 0.343750 0.000000
vt 0.343750 1.733333
vt 0.375000 0.000000
vt 0.375000 1.733333
vt 0.406250 0.000000
vt 0.406250 1.733333
vt 0.437500 0.000000
vt 0.437500 1.733333
vt 0.468750 0.000000
vt 0.468750 1.733333
vt 0.500000 0.000000
vt 0.500000 1.733333
vt 0.531250 0.000000
vt 0.531250 1.733333
vt 0.562500 0.000000
vt 0.562500 1.733333
vt 0.593750 0.000000
vt 0.593750 1.733333
vt 0.625000 0.000000
vt 0.625000 1.733333
vt 0.656250 0.000000
vt 0.656250 1.733333
vt 0.687500 0.000000
vt 0.687500 1.733333
vt 0.718750 0.000000
vt 0.718750 1.733333
vt 0.750000 0.000000
vt 0.750000 1.733333
vt 0.781250 0.000000
vt 0.781250 1.733333
vt 0.812500 0.000000
vt 0.812500 1.733333
vt 0.843750 0.000000
vt 0.843750 1.733333
vt 0.875000 0.000000
vt 0.875000 1.733333
vt 0.906250 0.000000
vt 0.906250 1.733333
vt 0.937500 0.000000
vt 0.937500 1.733333
vt 0.968750 0.000000
vt 0.968750 1.733333
vt 1.000000 0.000000
vt 1.000000 1.733333
vt 0.015625 0.000000
vt 0.015625 0.500000
vt 0.000000 0.500000
vt 0.031250 0.500000
vt 0.046875 0.000000
vt 0.046875 0.500000
vt 0.062500 0.500000
vt 0.078125 0.000000
vt 0.078125 0.500000
vt 0.093750 0.500000
vt 0.109375 0.000000
vt 0.109375 0.500000
vt 0.125000 0.500000
vt 0.140625 0.000000
vt 0.140625 0.500000
vt 0.156250 0.500000
vt 0.171875 0.000000
vt 0.171875 0.500000
vt 0.187500 0.500000
vt 0.203125 0.000000
vt 0.203125 0.500000
vt 0.218750 0.500000
vt 0.234375 0.000000
vt 0.234375 0.500000
vt 0.250000 0.500000
vt 0.265625 0.000000
vt 0.265625 0.500000
vt 0.281250 0.500000
vt 0.296875 0.000000
vt 0.296875 0.500000
vt 0.312500 0.500000
vt 0.328125 0.000000
vt 0.328125 0.500000
vt 0.343750 0.500000
vt 0.359375 0.000000
vt 0.359375 0.500000
vt 0.375000 0.500000
vt 0.390625 0.000000
vt 0.390625 0.500000
vt 0.406250 0.500000
vt 0.421875 0.000000
vt 0.421875 0.500000
vt 0.437500 0.500000
vt 0.453125 0.000000
vt 0.453125 0.500000
vt 0.468750 0.500000
vt 0.484375 0.000000
vt 0.484375 0.500000
vt 0.500000 0.500000
vt 1.000000 0.500000
vt 0.990393 0.597545
vt 0.961940 0.691342
vt 0.915735 0.777785
vt 0.853553 0.853553
vt 0.777785 0.915735
vt 0.691342 0.961940
vt 0.597545 0.990393
vt 0.500000 1.000000
vt 0.402455 0.990393
vt 0.308658 0.961940
vt 0.222215 0.915735
vt 0.146447 0.853553
vt 0.084265 0.777785
vt 0.038060 0.691342
vt 0.009607 0.597545
vt 0.009607 0.402455
vt 0.038060 0.308658
vt 0.084265 0.222215
vt 0.146447 0.146447
vt 0.222215 0.084265
vt 0.308658 0.038060
vt 0.402455 0.009607
vt 0.597545 0.009607
vt 0.691342 0.038060
vt 0.777785 0.084265
vt 0.853553 0.146447
vt 0.915735 0.222215
vt 0.961940 0.308658
vt 0.990393 0.402455
o cable
usemtl core
f 1/1/1 2/2/1 3/3/1 4/4/1
f 2/2/2 5/5/2 6/6/2 3/3/2
f 5/5/3 7/7/3 8/8/3 6/6/3
f 7/7/4 9/9/4 10/10/4 8/8/4
f 9/9/5 11/11/5 12/12/5 10/10/5
f 11/11/6 13/13/6 14/14/6 12/12/6
f 13/13/7 15/15/7 16/16/7 14/14/7
f 15/15/8 17/17/8 18/18/8 16/16/8
f 17/17/9 19/19/9 20/20/9 18/18/9
f 19/19/10 21/21/10 22/22/10 20/20/10
f 21/21/11 23/23/11 24/24/11 22/22/11
f 23/23/12 25/25/12 26/26/12 24/24/12
f 25/25/13 27/27/13 28/28/13 26/26/13
f 27/27/14 29/29/14 30/30/14 28/28/14
f 29/29/15 31/31/15 32/32/15 30/30/15
f 31/31/16 33/33/16 34/34/16 32/32/16
f 33/33/17 35/35/17 36/36/17 34/34/17
f 35/35/18 37/37/18 38/38/18 36/36/18
f 37/37/19 39/39/19 40/40/19 38/38/19
f 39/39/20 41/41/20 42/42/20 40/40/20
f 41/41/21 43/43/21 44/44/21 42/42/21
f 43/43/22 45/45/22 46/46/22 44/44/22
f 45/45/23 47/47/23 48/48/23 46/46/23
f 47/47/24 49/49/24 50/50/24 48/48/24
f 49/49/25 51/51/25 52/52/25 50/50/25
f 51/51/26 53/53/26 54/54/26 52/52/26
f 53/53/27 55/55/27 56/56/27 54/54/27
f 55/55/28 57/57/28 58/58/28 56/56/28
f 57/57/29 59/59/29 60/60/29 58/58/29
f 59/59/30 61/61/30 62/62/30 60/60/30
f 61/61/31 63/63/31 64/64/31 62/62/31
f 63/63/32 1/65/32 4/66/32 64/64/32
f 257/1/1 258/2/1 259/3/1 260/4/1
f 258/2/2 261/5/2 262/6/2 259/3/2
f 261/5/3 263/7/3 264/8/3 262/6/3
f 263/7/4 265/9/4 266/10/4 264/8/4
f 265/9/5 267/11/5 268/12/5 266/10/5
f 267/11/6 269/13/6 270/14/6 268/12/6
f 269/13/7 271/15/7 272/16/7 270/14/7
f 271/15/8 273/17/8 274/18/8 272/16/8
f 273/17/9 275/19/9 276/20/9 274/18/9
f 275/19/10 277/21/10 278/22/10 276/20/10
f 277/21/11 279/23/11 280/24/11 278/22/11
f 279/23/12 281/25/12 282/26/12 280/24/12
f 281/25/13 283/27/13 284/28/13 282/26/13
f 283/27/14 285/29/14 286/30/14 284/28/14
f 285/29/15 287/31/15 288/32/15 286/30/15
f 287/31/16 289/33/16 290/34/16 288/32/16
f 289/33/17 291/35/17 292/36/17 290/34/17
f 291/35/18 293/37/18 294/38/18 292/36/18
f 293/37/19 295/39/19 296/40/19 294/38/19
f 295/39/20 297/41/20 298/42/20 296/40/20
f 297/41/21 299/43/21 300/44/21 298/42/21
f 299/43/22 301/45/22 302/46/22 300/44/22
f 301/45/23 303/47/23 304/48/23 302/46/23
f 303/47/24 305/49/24 306/50/24 304/48/24
f 305/49/25 307/51/25 308/52/25 306/50/25
f 307/51/26 309/53/26 310/54/26 308/52/26
f 309/53/27 311/55/27 312/56/27 310/54/27
f 311/55/28 313/57/28 314/58/28 312/56/28
f 313/57/29 315/59/29 316/60/29 314/58/29
f 315/59/30 317/61/30 318/62/30 316/60/30
f 317/61/31 319/63/31 320/64/31 318/62/31
f 319/63/32 257/65/32 260/66/32 320/64/32
o plug
usemtl plug_plus
f 65/1/33 66/67/33 67/68/33 68/69/33
f 66/67/34 69/2/34 70/70/34 67/68/34
f 69/2/35 71/71/35 72/72/35 70/70/35
f 71/71/36 73/5/36 74/73/36 72/72/36
f 73/5/37 75/74/37 76/75/37 74/73/37
f 75/74/38 77/7/38 78/76/38 76/75/38
f 77/7/39 79/77/39 80/78/39 78/76/39
f 79/77/40 81/9/40 82/79/40 80/78/40
f 81/9/41 83/80/41 84/81/41 82/79/41
f 83/80/42 85/11/42 86/82/42 84/81/42
f 85/11/43 87/83/43 88/84/43 86/82/43
f 87/83/44 89/13/44 90/85/44 88/84/44
f 89/13/45 91/86/45 92/87/45 90/85/45
f 91/86/46 93/15/46 94/88/46 92/87/46
f 93/15/47 95/89/47 96/90/47 94/88/47
f 95/89/48 97/17/48 98/91/48 96/90/48
f 97/17/49 99/92/49 100/93/49 98/91/49
f 99/92/50 101/19/50 102/94/50 100/93/50
f 101/19/51 103/95/51 104/96/51 102/94/51
f 103/95/52 105/21/52 106/97/52 104/96/52
f 105/21/53 107/98/53 108/99/53 106/97/53
f 107/98/54 109/23/54 110/100/54 108/99/54
f 109/23/55 111/101/55 112/102/55 110/100/55
f 111/101/56 113/25/56 114/103/56 112/102/56
f 113/25/57 115/104/57 116/105/57 114/103/57
f 115/104/58 117/27/58 118/106/58 116/105/58
f 117/27/59 119/107/59 120/108/59 118/106/59
f 119/107/60 121/29/60 122/109/60 120/108/60
f 121/29/61 123/110/61 124/111/61 122/109/61
f 123/110/62 125/31/62 126/112/62 124/111/62
f 125/31/63 127/113/63 128/114/63 126/112/63
f 127/113/64 65/33/64 68/115/64 128/114/64
f 129/1/33 130/67/33 131/68/33 132/69/33
f 130/67/34 133/2/34 134/70/34 131/68/34
f 133/2/35 135/71/35 136/72/35 134/70/35
f 135/71/36 137/5/36 138/73/36 136/72/36
f 137/5/37 139/74/37 140/75/37 138/73/37
f 139/74/38 141/7/38 142/76/38 140/75/38
f 141/7/39 143/77/39 144/78/39 142/76/39
f 143/77/40 145/9/40 146/79/40 144/78/40
f 145/9/41 147/80/41 148/81/41 146/79/41
f 147/80/42 149/11/42 150/82/42 148/81/42
f 149/11/43 151/83/43 152/84/43 150/82/43
f 151/83/44 153/13/44 154/85/44 152/84/44
f 153/13/45 155/86/45 156/87/45 154/85/45
f 155/86/46 157/15/46 158/88/46 156/87/46
f 157/15/47 159/89/47 160/90/47 158/88/47
f 159/89/48 161/17/48 162/91/48 160/90/48
f 161/17/49 163/92/49 164/93/49 162/91/49
f 163/92/50 165/19/50 166/94/50 164/93/50
f 165/19/51 167/95/51 168/96/51 166/94/51
f 167/95/52 169/21/52 170/97/52 168/96/52
f 169/21/53 171/98/53 172/99/53 170/97/53
f 171/98/54 173/23/54 174/100/54 172/99/54
f 173/23/55 175/101/55 176/102/55 174/100/55
f 175/101/56 177/25/56 178/103/56 176/102/56
f 177/25/57 179/104/57 180/105/57 178/103/57
f 179/104/58 181/27/58 182/106/58 180/105/58
f 181/27/59 183/107/59 184/108/59 182/106/59
f 183/107/60 185/29/60 186/109/60 184/108/60
f 185/29/61 187/110/61 188/111/61 186/109/61
f 187/110/62 189/31/62 190/112/62 188/111/62
f 189/31/63 191/113/63 192/114/63 190/112/63
f 191/113/64 129/33/64 132/115/64 192/114/64
f 193/1/33 194/67/33 195/68/33 196/69/33
f 194/67/34 197/2/34 198/70/34 195/68/34
f 197/2/35 199/71/35 200/72/35 198/70/35
f 199/71/36 201/5/36 202/73/36 200/72/36
f 201/5/37 203/74/37 204/75/37 202/73/37
f 203/74/38 205/7/38 206/76/38 204/75/38
f 205/7/39 207/77/39 208/78/39 206/76/39
f 207/77/40 209/9/40 210/79/40 208/78/40
f 209/9/41 211/80/41 212/81/41 210/79/41
f 211/80/42 213/11/42 214/82/42 212/81/42
f 213/11/43 215/83/43 216/84/43 214/82/43
f 215/83/44 217/13/44 218/85/44 216/84/44
f 217/13/45 219/86/45 220/87/45 218/85/45
f 219/86/46 221/15/46 222/88/46 220/87/46
f 221/15/47 223/89/47 224/90/47 222/88/47
f 223/89/48 225/17/48 226/91/48 224/90/48
f 225/17/49 227/92/49 228/93/49 226/91/49
f 227/92/50 229/19/50 230/94/50 228/93/50
f 229/19/51 231/95/51 232/96/51 230/94/51
f 231/95/52 233/21/52 234/97/52 232/96/52
f 233/21/53 235/98/53 236/99/53 234/97/53
f 235/98/54 237/23/54 238/100/54 236/99/54
f 237/23/55 239/101/55 240/102/55 238/100/55
f 239/101/56 241/25/56 242/103/56 240/102/56
f 241/25/57 243/104/57 244/105/57 242/103/57
f 243/104/58 245/27/58 246/106/58 244/105/58
f 245/27/59 247/107/59 248/108/59 246/106/59
f 247/107/60 249/29/60 250/109/60 248/108/60
f 249/29/61 251/110/61 252/111/61 250/109/61
f 251/110/62 253/31/62 254/112/62 252/111/62
f 253/31/63 255/113/63 256/114/63 254/112/63
f 255/113/64 193/33/64 196/115/64 256/114/64
f 196/116/65 195/117/65 198/118/65 200/119/65
f 196/116/65 200/119/65 202/120/65 204/121/65
f 196/116/65 204/121/65 206/122/65 208/123/65
f 196/116/65 208/123/65 210/124/65 212/125/65
f 196/116/65 212/125/65 214/126/65 216/127/65
f 196/116/65 216/127/65 218/128/65 220/129/65
f 196/116/65 220/129/65 222/130/65 224/131/65
f 196/116/65 224/131/65 226/69/65 228/132/65
f 196/116/65 228/132/65 230/133/65 232/134/65
f 196/116/65 232/134/65 234/135/65 236/136/65
f 196/116/65 236/136/65 238/137/65 240/138/65
f 196/116/65 240/138/65 242/33/65 244/139/65
f 196/116/65 244/139/65 246/140/65 248/141/65
f 196/116/65 248/141/65 250/142/65 252/143/65
f 196/116/65 252/143/65 254/144/65 256/145/65
o plug
usemtl plug_minus
f 321/1/33 322/67/33 323/68/33 324/69/33
f 322/67/34 325/2/34 326/70/34 323/68/34
f 325/2/35 327/71/35 328/72/35 326/70/35
f 327/71/36 329/5/36 330/73/36 328/72/36
f 329/5/37 331/74/37 332/75/37 330/73/37
f 331/74/38 333/7/38 334/76/38 332/75/38
f 333/7/39 335/77/39 336/78/39 334/76/39
f 335/77/40 337/9/40 338/79/40 336/78/40
f 337/9/41 339/80/41 340/81/41 338/79/41
f 339/80/42 341/11/42 342/82/42 340/81/42
f 341/11/43 343/83/43 344/84/43 342/82/43
f 343/83/44 345/13/44 346/85/44 344/84/44
f 345/13/45 347/86/45 348/87/45 346/85/45
f 347/86/46 349/15/46 350/88/46 348/87/46
f 349/15/47 351/89/47 352/90/47 350/88/47
f 351/89/48 353/17/48 354/91/48 352/90/48
f 353/17/49 355/92/49 356/93/49 354/91/49
f 355/92/50 357/19/50 358/94/50 356/93/50
f 357/19/51 359/95/51 360/96/51 358/94/51
f 359/95/52 361/21/52 362/97/52 360/96/52
f 361/21/53 363/98/53 364/99/53 362/97/53
f 363/98/54 365/23/54 366/100/54 364/99/54
f 365/23/55 367/101/55 368/102/55 366/100/55
f 367/101/56 369/25/56 370/103/56 368/102/56
f 369/25/57 371/104/57 372/105/57 370/103/57
f 371/104/58 373/27/58 374/106/58 372/105/58
f 373/27/59 375/107/59 376/108/59 374/106/59
f 375/107/60 377/29/60 378/109/60 376/108/60
f 377/29/61 379/110/61 380/111/61 378/109/61
f 379/110/62 381/31/62 382/112/62 380/111/62
f 381/31/63 383/113/63 384/114/63 382/112/63
f 383/113/64 321/33/64 324/115/64 384/114/64
f 385/1/33 386/67/33 387/68/33 388/69/33
f 386/67/34 389/2/34 390/70/34 387/68/34
f 389/2/35 391/71/35 392/72/35 390/70/35
f 391/71/36 393/5/36 394/73/36 392/72/36
f 393/5/37 395/74/37 396/75/37 394/73/37
f 395/74/38 397/7/38 398/76/38 396/75/38
f 397/7/39 399/77/39 400/78/39 398/76/39
f 399/77/40 401/9/40 402/79/40 400/78/40
f 401/9/41 403/80/41 404/81/41 402/79/41
f 403/80/42 405/11/42 406/82/42 404/81/42
f 405/11/43 407/83/43 408/84/43 406/82/43
f 407/83/44 409/13/44 410/85/44 408/84/44
f 409/13/45 411/86/45 412/87/45 410/85/45
f 411/86/46 413/15/46 414/88/46 412/87/46
f 413/15/47 415/89/47 416/90/47 414/88/47
f 415/89/48 417/17/48 418/91/48 416/90/48
f 417/17/49 419/92/49 420/93/49 418/91/49
f 419/92/50 421/19/50 422/94/50 420/93/50
f 421/19/51 423/95/51 424/96/51 422/94/51
f 423/95/52 425/21/52 426/97/52 424/96/52
f 425/21/53 427/98/53 428/99/53 426/97/53
f 427/98/54 429/23/54 430/100/54 428/99/54
f 429/23/55 431/101/55 432/102/55 430/100/55
f 431/101/56 433/25/56 434/103/56 432/102/56
f 433/25/57 435/104/57 436/105/57 434/103/57
f 435/104/58 437/27/58 438/106/58 436/105/58
f 437/27/59 439/107/59 440/108/59 438/106/59
f 439/107/60 441/29/60 442/109/60 440/108/60
f 441/29/61 443/110/61 444/111/61 442/109/61
f 443/110/62 445/31/62 446/112/62 444/111/62
f 445/31/63 447/113/63 448/114/63 446/112/63
f 447/113/64 385/33/64 388/115/64 448/114/64
f 449/1/33 450/67/33 451/68/33 452/69/33
f 450/67/34 453/2/34 454/70/34 451/68/34
f 453/2/35 455/71/35 456/72/35 454/70/35
f 455/71/36 457/5/36 458/73/36 456/72/36
f 457/5/37 459/74/37 460/75/37 458/73/37
f 459/74/38 461/7/38 462/76/38 460/75/38
f 461/7/39 463/77/39 464/78/39 462/76/39
f 463/77/40 465/9/40 466/79/40 464/78/40
f 465/9/41 467/80/41 468/81/41 466/79/41
f 467/80/42 469/11/42 470/82/42 468/81/42
f 469/11/43 471/83/43 472/84/43 470/82/43
f 471/83/44 473/13/44 474/85/44 472/84/44
f 473/13/45 475/86/45 476/87/45 474/85/45
f 475/86/46 477/15/46 478/88/46 476/87/46
f 477/15/47 479/89/47 480/90/47 478/88/47
f 479/89/48 481/17/48 482/91/48 480/90/48
f 481/17/49 483/92/49 484/93/49 482/91/49
f 483/92/50 485/19/50 486/94/50 484/93/50
f 485/19/51 487/95/51 488/96/51 486/94/51
f 487/95/52 489/21/52 490/97/52 488/96/52
f 489/21/53 491/98/53 492/99/53 490/97/53
f 491/98/54 493/23/54 494/100/54 492/99/54
f 493/23/55 495/101/55 496/102/55 494/100/55
f 495/101/56 497/25/56 498/103/56 496/102/56
f 497/25/57 499/104/57 500/105/57 498/103/57
f 499/104/58 501/27/58 502/106/58 500/105/58
f 501/27/59 503/107/59 504/108/59 502/106/59
f 503/107/60 505/29/60 506/109/60 504/108/60
f 505/29/61 507/110/61 508/111/61 506/109/61
f 507/110/62 509/31/62 510/112/62 508/111/62
f 509/31/63 511/113/63 512/114/63 510/112/63
f 511/113/64 449/33/64 452/115/64 512/114/64
f 452/116/65 451/117/65 454/118/65 456/119/65
f 452/116/65 456/119/65 458/120/65 460/121/65
f 452/116/65 460/121/65 462/122/65 464/123/65
f 452/116/65 464/123/65 466/124/65 468/125/65
f 452/116/65 468/125/65 470/126/65 472/127/65
f 452/116/65 472/127/65 474/128/65 476/129/65
f 452/116/65 476/129/65 478/130/65 480/131/65
f 452/116/65 480/131/65 482/69/65 484/132/65
f 452/116/65 484/132/65 486/133/65 488/134/65
f 452/116/65 488/134/65 490/135/65 492/136/65
f 452/116/65 492/136/65 494/137/65 496/138/65
f 452/116/65 496/138/65 498/33/65 500/139/65
f 452/116/65 500/139/65 502/140/65 504/141/65
f 452/116/65 504/141/65 506/142/65 508/143/65
f 452/116/65 508/143/65 510/144/65 512/145/65
