# generated by tools/gen_cable_models.py - do not edit by hand
mtllib dc_string_cable_bend.mtl
v 0.065625 0.081250 -0.162500
v 0.057738 0.080469 -0.161723
v 0.059713 0.080469 -0.142054
v 0.067486 0.081250 -0.143601
v 0.050153 0.078158 -0.160976
v 0.052239 0.078158 -0.140568
v 0.043164 0.074403 -0.160288
v 0.045350 0.074403 -0.139197
v 0.037037 0.069351 -0.159684
v 0.039312 0.069351 -0.137996
v 0.032009 0.063195 -0.159189
v 0.034357 0.063195 -0.137011
v 0.028273 0.056172 -0.158821
v 0.030675 0.056172 -0.136278
v 0.025972 0.048551 -0.158595
v 0.028408 0.048551 -0.135827
v 0.025196 0.040625 -0.158518
v 0.027642 0.040625 -0.135675
v 0.025972 0.032699 -0.158595
v 0.028408 0.032699 -0.135827
v 0.028273 0.025078 -0.158821
v 0.030675 0.025078 -0.136278
v 0.032009 0.018055 -0.159189
v 0.034357 0.018055 -0.137011
v 0.037037 0.011899 -0.159684
v 0.039312 0.011899 -0.137996
v 0.043164 0.006847 -0.160288
v 0.045350 0.006847 -0.139197
v 0.050153 0.003092 -0.160976
v 0.052239 0.003092 -0.140568
v 0.057738 0.000781 -0.161723
v 0.059713 0.000781 -0.142054
v 0.065625 0.000000 -0.162500
v 0.067486 0.000000 -0.143601
v 0.073512 0.000781 -0.163277
v 0.075260 0.000781 -0.145147
v 0.081097 0.003092 -0.164024
v 0.082734 0.003092 -0.146634
v 0.088086 0.006847 -0.164712
v 0.089623 0.006847 -0.148004
v 0.094213 0.011899 -0.165316
v 0.095661 0.011899 -0.149205
v 0.099241 0.018055 -0.165811
v 0.100616 0.018055 -0.150190
v 0.102977 0.025078 -0.166179
v 0.104298 0.025078 -0.150923
v 0.105278 0.032699 -0.166405
v 0.106565 0.032699 -0.151374
v 0.106054 0.040625 -0.166482
v 0.107331 0.040625 -0.151526
v 0.105278 0.048551 -0.166405
v 0.106565 0.048551 -0.151374
v 0.102977 0.056172 -0.166179
v 0.104298 0.056172 -0.150923
v 0.099241 0.063195 -0.165811
v 0.100616 0.063195 -0.150190
v 0.094213 0.069351 -0.165316
v 0.095661 0.069351 -0.149205
v 0.088086 0.074403 -0.164712
v 0.089623 0.074403 -0.148004
v 0.081097 0.078158 -0.164024
v 0.082734 0.078158 -0.146634
v 0.073512 0.080469 -0.163277
v 0.075260 0.080469 -0.145147
v 0.065677 0.080469 -0.122395
v 0.072999 0.081250 -0.125428
v 0.058636 0.078158 -0.119478
v 0.052147 0.074403 -0.116790
v 0.046460 0.069351 -0.114434
v 0.041792 0.063195 -0.112501
v 0.038324 0.056172 -0.111064
v 0.036188 0.048551 -0.110180
v 0.035467 0.040625 -0.109881
v 0.036188 0.032699 -0.110180
v 0.038324 0.025078 -0.111064
v 0.041792 0.018055 -0.112501
v 0.046460 0.011899 -0.114434
v 0.052147 0.006847 -0.116790
v 0.058636 0.003092 -0.119478
v 0.065677 0.000781 -0.122395
v 0.072999 0.000000 -0.125428
v 0.080321 0.000781 -0.128461
v 0.087362 0.003092 -0.131377
v 0.093851 0.006847 -0.134065
v 0.099539 0.011899 -0.136421
v 0.104206 0.018055 -0.138354
v 0.107675 0.025078 -0.139791
v 0.109811 0.032699 -0.140675
v 0.110532 0.040625 -0.140974
v 0.109811 0.048551 -0.140675
v 0.107675 0.056172 -0.139791
v 0.104206 0.063195 -0.138354
v 0.099539 0.069351 -0.136421
v 0.093851 0.074403 -0.134065
v 0.087362 0.078158 -0.131377
v 0.080321 0.080469 -0.128461
v 0.075362 0.080469 -0.104276
v 0.081951 0.081250 -0.108679
v 0.069025 0.078158 -0.100042
v 0.063185 0.074403 -0.096140
v 0.058066 0.069351 -0.092720
v 0.053866 0.063195 -0.089913
v 0.050744 0.056172 -0.087827
v 0.048822 0.048551 -0.086543
v 0.048173 0.040625 -0.086109
v 0.048822 0.032699 -0.086543
v 0.050744 0.025078 -0.087827
v 0.053866 0.018055 -0.089913
v 0.058066 0.011899 -0.092720
v 0.063185 0.006847 -0.096140
v 0.069025 0.003092 -0.100042
v 0.075362 0.000781 -0.104276
v 0.081951 0.000000 -0.108679
v 0.088541 0.000781 -0.113082
v 0.094878 0.003092 -0.117316
v 0.100718 0.006847 -0.121218
v 0.105836 0.011899 -0.124639
v 0.110037 0.018055 -0.127445
v 0.113159 0.025078 -0.129531
v 0.115081 0.032699 -0.130815
v 0.115730 0.040625 -0.131249
v 0.115081 0.048551 -0.130815
v 0.113159 0.056172 -0.129531
v 0.110037 0.063195 -0.127445
v 0.105836 0.069351 -0.124639
v 0.100718 0.074403 -0.121218
v 0.094878 0.078158 -0.117316
v 0.088541 0.080469 -0.113082
v 0.088395 0.080469 -0.088395
v 0.093999 0.081250 -0.093999
v 0.083006 0.078158 -0.083006
v 0.078040 0.074403 -0.078040
v 0.073687 0.069351 -0.073687
v 0.070114 0.063195 -0.070114
v 0.067459 0.056172 -0.067459
v 0.065825 0.048551 -0.065825
v 0.065273 0.040625 -0.065273
v 0.065825 0.032699 -0.065825
v 0.067459 0.025078 -0.067459
v 0.070114 0.018055 -0.070114
v 0.073687 0.011899 -0.073687
v 0.078040 0.006847 -0.078040
v 0.083006 0.003092 -0.083006
v 0.088395 0.000781 -0.088395
v 0.093999 0.000000 -0.093999
v 0.099603 0.000781 -0.099603
v 0.104992 0.003092 -0.104992
v 0.109958 0.006847 -0.109958
v 0.114312 0.011899 -0.114312
v 0.117884 0.018055 -0.117884
v 0.120539 0.025078 -0.120539
v 0.122173 0.032699 -0.122173
v 0.122725 0.040625 -0.122725
v 0.122173 0.048551 -0.122173
v 0.120539 0.056172 -0.120539
v 0.117884 0.063195 -0.117884
v 0.114312 0.069351 -0.114312
v 0.109958 0.074403 -0.109958
v 0.104992 0.078158 -0.104992
v 0.099603 0.080469 -0.099603
v 0.104276 0.080469 -0.075362
v 0.108679 0.081250 -0.081951
v 0.100042 0.078158 -0.069025
v 0.096140 0.074403 -0.063185
v 0.092720 0.069351 -0.058066
v 0.089913 0.063195 -0.053866
v 0.087827 0.056172 -0.050744
v 0.086543 0.048551 -0.048822
v 0.086109 0.040625 -0.048173
v 0.086543 0.032699 -0.048822
v 0.087827 0.025078 -0.050744
v 0.089913 0.018055 -0.053866
v 0.092720 0.011899 -0.058066
v 0.096140 0.006847 -0.063185
v 0.100042 0.003092 -0.069025
v 0.104276 0.000781 -0.075362
v 0.108679 0.000000 -0.081951
v 0.113082 0.000781 -0.088541
v 0.117316 0.003092 -0.094878
v 0.121218 0.006847 -0.100718
v 0.124639 0.011899 -0.105836
v 0.127445 0.018055 -0.110037
v 0.129531 0.025078 -0.113159
v 0.130815 0.032699 -0.115081
v 0.131249 0.040625 -0.115730
v 0.130815 0.048551 -0.115081
v 0.129531 0.056172 -0.113159
v 0.127445 0.063195 -0.110037
v 0.124639 0.069351 -0.105836
v 0.121218 0.074403 -0.100718
v 0.117316 0.078158 -0.094878
v 0.113082 0.080469 -0.088541
v 0.122395 0.080469 -0.065677
v 0.125428 0.081250 -0.072999
v 0.119478 0.078158 -0.058636
v 0.116790 0.074403 -0.052147
v 0.114434 0.069351 -0.046460
v 0.112501 0.063195 -0.041792
v 0.111064 0.056172 -0.038324
v 0.110180 0.048551 -0.036188
v 0.109881 0.040625 -0.035467
v 0.110180 0.032699 -0.036188
v 0.111064 0.025078 -0.038324
v 0.112501 0.018055 -0.041792
v 0.114434 0.011899 -0.046460
v 0.116790 0.006847 -0.052147
v 0.119478 0.003092 -0.058636
v 0.122395 0.000781 -0.065677
v 0.125428 0.000000 -0.072999
v 0.128461 0.000781 -0.080321
v 0.131377 0.003092 -0.087362
v 0.134065 0.006847 -0.093851
v 0.136421 0.011899 -0.099539
v 0.138354 0.018055 -0.104206
v 0.139791 0.025078 -0.107675
v 0.140675 0.032699 -0.109811
v 0.140974 0.040625 -0.110532
v 0.140675 0.048551 -0.109811
v 0.139791 0.056172 -0.107675
v 0.138354 0.063195 -0.104206
v 0.136421 0.069351 -0.099539
v 0.134065 0.074403 -0.093851
v 0.131377 0.078158 -0.087362
v 0.128461 0.080469 -0.080321
v 0.142054 0.080469 -0.059713
v 0.143601 0.081250 -0.067486
v 0.140568 0.078158 -0.052239
v 0.139197 0.074403 -0.045350
v 0.137996 0.069351 -0.039312
v 0.137011 0.063195 -0.034357
v 0.136278 0.056172 -0.030675
v 0.135827 0.048551 -0.028408
v 0.135675 0.040625 -0.027642
v 0.135827 0.032699 -0.028408
v 0.136278 0.025078 -0.030675
v 0.137011 0.018055 -0.034357
v 0.137996 0.011899 -0.039312
v 0.139197 0.006847 -0.045350
v 0.140568 0.003092 -0.052239
v 0.142054 0.000781 -0.059713
v 0.143601 0.000000 -0.067486
v 0.145147 0.000781 -0.075260
v 0.146634 0.003092 -0.082734
v 0.148004 0.006847 -0.089623
v 0.149205 0.011899 -0.095661
v 0.150190 0.018055 -0.100616
v 0.150923 0.025078 -0.104298
v 0.151374 0.032699 -0.106565
v 0.151526 0.040625 -0.107331
v 0.151374 0.048551 -0.106565
v 0.150923 0.056172 -0.104298
v 0.150190 0.063195 -0.100616
v 0.149205 0.069351 -0.095661
v 0.148004 0.074403 -0.089623
v 0.146634 0.078158 -0.082734
v 0.145147 0.080469 -0.075260
v 0.161723 0.080469 -0.057738
v 0.162500 0.081250 -0.065625
v 0.160976 0.078158 -0.050153
v 0.160288 0.074403 -0.043164
v 0.159684 0.069351 -0.037037
v 0.159189 0.063195 -0.032009
v 0.158821 0.056172 -0.028273
v 0.158595 0.048551 -0.025972
v 0.158518 0.040625 -0.025196
v 0.158595 0.032699 -0.025972
v 0.158821 0.025078 -0.028273
v 0.159189 0.018055 -0.032009
v 0.159684 0.011899 -0.037037
v 0.160288 0.006847 -0.043164
v 0.160976 0.003092 -0.050153
v 0.161723 0.000781 -0.057738
v 0.162500 0.000000 -0.065625
v 0.163277 0.000781 -0.073512
v 0.164024 0.003092 -0.081097
v 0.164712 0.006847 -0.088086
v 0.165316 0.011899 -0.094213
v 0.165811 0.018055 -0.099241
v 0.166179 0.025078 -0.102977
v 0.166405 0.032699 -0.105278
v 0.166482 0.040625 -0.106054
v 0.166405 0.048551 -0.105278
v 0.166179 0.056172 -0.102977
v 0.165811 0.063195 -0.099241
v 0.165316 0.069351 -0.094213
v 0.164712 0.074403 -0.088086
v 0.164024 0.078158 -0.081097
v 0.163277 0.080469 -0.073512
v -0.065625 0.081250 -0.162500
v -0.073512 0.080469 -0.161723
v -0.069015 0.080469 -0.116449
v -0.061242 0.081250 -0.117995
v -0.081097 0.078158 -0.160976
v -0.076489 0.078158 -0.114962
v -0.088086 0.074403 -0.160288
v -0.083378 0.074403 -0.113592
v -0.094213 0.069351 -0.159684
v -0.089416 0.069351 -0.112391
v -0.099241 0.063195 -0.159189
v -0.094371 0.063195 -0.111405
v -0.102977 0.056172 -0.158821
v -0.098053 0.056172 -0.110673
v -0.105278 0.048551 -0.158595
v -0.100320 0.048551 -0.110222
v -0.106054 0.040625 -0.158518
v -0.101086 0.040625 -0.110069
v -0.105278 0.032699 -0.158595
v -0.100320 0.032699 -0.110222
v -0.102977 0.025078 -0.158821
v -0.098053 0.025078 -0.110673
v -0.099241 0.018055 -0.159189
v -0.094371 0.018055 -0.111405
v -0.094213 0.011899 -0.159684
v -0.089416 0.011899 -0.112391
v -0.088086 0.006847 -0.160288
v -0.083378 0.006847 -0.113592
v -0.081097 0.003092 -0.160976
v -0.076489 0.003092 -0.114962
v -0.073512 0.000781 -0.161723
v -0.069015 0.000781 -0.116449
v -0.065625 0.000000 -0.162500
v -0.061242 0.000000 -0.117995
v -0.057738 0.000781 -0.163277
v -0.053468 0.000781 -0.119541
v -0.050153 0.003092 -0.164024
v -0.045994 0.003092 -0.121028
v -0.043164 0.006847 -0.164712
v -0.039105 0.006847 -0.122398
v -0.037037 0.011899 -0.165316
v -0.033067 0.011899 -0.123599
v -0.032009 0.018055 -0.165811
v -0.028112 0.018055 -0.124585
v -0.028273 0.025078 -0.166179
v -0.024430 0.025078 -0.125317
v -0.025972 0.032699 -0.166405
v -0.022163 0.032699 -0.125768
v -0.025196 0.040625 -0.166482
v -0.021397 0.040625 -0.125921
v -0.025972 0.048551 -0.166405
v -0.022163 0.048551 -0.125768
v -0.028273 0.056172 -0.166179
v -0.024430 0.056172 -0.125317
v -0.032009 0.063195 -0.165811
v -0.028112 0.063195 -0.124585
v -0.037037 0.069351 -0.165316
v -0.033067 0.069351 -0.123599
v -0.043164 0.074403 -0.164712
v -0.039105 0.074403 -0.122398
v -0.050153 0.078158 -0.164024
v -0.045994 0.078158 -0.121028
v -0.057738 0.080469 -0.163277
v -0.053468 0.080469 -0.119541
v -0.055582 0.080469 -0.072167
v -0.048260 0.081250 -0.075200
v -0.062623 0.078158 -0.069251
v -0.069112 0.074403 -0.066563
v -0.074800 0.069351 -0.064207
v -0.079467 0.063195 -0.062274
v -0.082936 0.056172 -0.060837
v -0.085071 0.048551 -0.059953
v -0.085793 0.040625 -0.059654
v -0.085071 0.032699 -0.059953
v -0.082936 0.025078 -0.060837
v -0.079467 0.018055 -0.062274
v -0.074800 0.011899 -0.064207
v -0.069112 0.006847 -0.066563
v -0.062623 0.003092 -0.069251
v -0.055582 0.000781 -0.072167
v -0.048260 0.000000 -0.075200
v -0.040938 0.000781 -0.078233
v -0.033897 0.003092 -0.081150
v -0.027408 0.006847 -0.083838
v -0.021720 0.011899 -0.086193
v -0.017053 0.018055 -0.088127
v -0.013584 0.025078 -0.089563
v -0.011449 0.032699 -0.090448
v -0.010727 0.040625 -0.090747
v -0.011449 0.048551 -0.090448
v -0.013584 0.056172 -0.089563
v -0.017053 0.063195 -0.088127
v -0.021720 0.069351 -0.086193
v -0.027408 0.074403 -0.083838
v -0.033897 0.078158 -0.081150
v -0.040938 0.080469 -0.078233
v -0.033769 0.080469 -0.031357
v -0.027179 0.081250 -0.035761
v -0.040105 0.078158 -0.027123
v -0.045945 0.074403 -0.023221
v -0.051064 0.069351 -0.019801
v -0.055265 0.063195 -0.016994
v -0.058386 0.056172 -0.014909
v -0.060308 0.048551 -0.013624
v -0.060957 0.040625 -0.013190
v -0.060308 0.032699 -0.013624
v -0.058386 0.025078 -0.014909
v -0.055265 0.018055 -0.016994
v -0.051064 0.011899 -0.019801
v -0.045945 0.006847 -0.023221
v -0.040105 0.003092 -0.027123
v -0.033769 0.000781 -0.031357
v -0.027179 0.000000 -0.035761
v -0.020589 0.000781 -0.040164
v -0.014253 0.003092 -0.044398
v -0.008413 0.006847 -0.048300
v -0.003294 0.011899 -0.051720
v 0.000907 0.018055 -0.054527
v 0.004028 0.025078 -0.056613
v 0.005950 0.032699 -0.057897
v 0.006599 0.040625 -0.058331
v 0.005950 0.048551 -0.057897
v 0.004028 0.056172 -0.056613
v 0.000907 0.063195 -0.054527
v -0.003294 0.069351 -0.051720
v -0.008413 0.074403 -0.048300
v -0.014253 0.078158 -0.044398
v -0.020589 0.080469 -0.040164
v -0.004413 0.080469 0.004413
v 0.001191 0.081250 -0.001191
v -0.009802 0.078158 0.009802
v -0.014768 0.074403 0.014768
v -0.019121 0.069351 0.019121
v -0.022694 0.063195 0.022694
v -0.025348 0.056172 0.025348
v -0.026983 0.048551 0.026983
v -0.027535 0.040625 0.027535
v -0.026983 0.032699 0.026983
v -0.025348 0.025078 0.025348
v -0.022694 0.018055 0.022694
v -0.019121 0.011899 0.019121
v -0.014768 0.006847 0.014768
v -0.009802 0.003092 0.009802
v -0.004413 0.000781 0.004413
v 0.001191 0.000000 -0.001191
v 0.006795 0.000781 -0.006795
v 0.012184 0.003092 -0.012184
v 0.017151 0.006847 -0.017151
v 0.021504 0.011899 -0.021504
v 0.025076 0.018055 -0.025076
v 0.027731 0.025078 -0.027731
v 0.029366 0.032699 -0.029366
v 0.029917 0.040625 -0.029917
v 0.029366 0.048551 -0.029366
v 0.027731 0.056172 -0.027731
v 0.025076 0.063195 -0.025076
v 0.021504 0.069351 -0.021504
v 0.017151 0.074403 -0.017151
v 0.012184 0.078158 -0.012184
v 0.006795 0.080469 -0.006795
v 0.031357 0.080469 0.033769
v 0.035761 0.081250 0.027179
v 0.027123 0.078158 0.040105
v 0.023221 0.074403 0.045945
v 0.019801 0.069351 0.051064
v 0.016994 0.063195 0.055265
v 0.014909 0.056172 0.058386
v 0.013624 0.048551 0.060308
v 0.013190 0.040625 0.060957
v 0.013624 0.032699 0.060308
v 0.014909 0.025078 0.058386
v 0.016994 0.018055 0.055265
v 0.019801 0.011899 0.051064
v 0.023221 0.006847 0.045945
v 0.027123 0.003092 0.040105
v 0.031357 0.000781 0.033769
v 0.035761 0.000000 0.027179
v 0.040164 0.000781 0.020589
v 0.044398 0.003092 0.014253
v 0.048300 0.006847 0.008413
v 0.051720 0.011899 0.003294
v 0.054527 0.018055 -0.000907
v 0.056613 0.025078 -0.004028
v 0.057897 0.032699 -0.005950
v 0.058331 0.040625 -0.006599
v 0.057897 0.048551 -0.005950
v 0.056613 0.056172 -0.004028
v 0.054527 0.063195 -0.000907
v 0.051720 0.069351 0.003294
v 0.048300 0.074403 0.008413
v 0.044398 0.078158 0.014253
v 0.040164 0.080469 0.020589
v 0.072167 0.080469 0.055582
v 0.075200 0.081250 0.048260
v 0.069251 0.078158 0.062623
v 0.066563 0.074403 0.069112
v 0.064207 0.069351 0.074800
v 0.062274 0.063195 0.079467
v 0.060837 0.056172 0.082936
v 0.059953 0.048551 0.085071
v 0.059654 0.040625 0.085793
v 0.059953 0.032699 0.085071
v 0.060837 0.025078 0.082936
v 0.062274 0.018055 0.079467
v 0.064207 0.011899 0.074800
v 0.066563 0.006847 0.069112
v 0.069251 0.003092 0.062623
v 0.072167 0.000781 0.055582
v 0.075200 0.000000 0.048260
v 0.078233 0.000781 0.040938
v 0.081150 0.003092 0.033897
v 0.083838 0.006847 0.027408
v 0.086193 0.011899 0.021720
v 0.088127 0.018055 0.017053
v 0.089563 0.025078 0.013584
v 0.090448 0.032699 0.011449
v 0.090747 0.040625 0.010727
v 0.090448 0.048551 0.011449
v 0.089563 0.056172 0.013584
v 0.088127 0.063195 0.017053
v 0.086193 0.069351 0.021720
v 0.083838 0.074403 0.027408
v 0.081150 0.078158 0.033897
v 0.078233 0.080469 0.040938
v 0.116449 0.080469 0.069015
v 0.117995 0.081250 0.061242
v 0.114962 0.078158 0.076489
v 0.113592 0.074403 0.083378
v 0.112391 0.069351 0.089416
v 0.111405 0.063195 0.094371
v 0.110673 0.056172 0.098053
v 0.110222 0.048551 0.100320
v 0.110069 0.040625 0.101086
v 0.110222 0.032699 0.100320
v 0.110673 0.025078 0.098053
v 0.111405 0.018055 0.094371
v 0.112391 0.011899 0.089416
v 0.113592 0.006847 0.083378
v 0.114962 0.003092 0.076489
v 0.116449 0.000781 0.069015
v 0.117995 0.000000 0.061242
v 0.119541 0.000781 0.053468
v 0.121028 0.003092 0.045994
v 0.122398 0.006847 0.039105
v 0.123599 0.011899 0.033067
v 0.124585 0.018055 0.028112
v 0.125317 0.025078 0.024430
v 0.125768 0.032699 0.022163
v 0.125921 0.040625 0.021397
v 0.125768 0.048551 0.022163
v 0.125317 0.056172 0.024430
v 0.124585 0.063195 0.028112
v 0.123599 0.069351 0.033067
v 0.122398 0.074403 0.039105
v 0.121028 0.078158 0.045994
v 0.119541 0.080469 0.053468
v 0.161723 0.080469 0.073512
v 0.162500 0.081250 0.065625
v 0.160976 0.078158 0.081097
v 0.160288 0.074403 0.088086
v 0.159684 0.069351 0.094213
v 0.159189 0.063195 0.099241
v 0.158821 0.056172 0.102977
v 0.158595 0.048551 0.105278
v 0.158518 0.040625 0.106054
v 0.158595 0.032699 0.105278
v 0.158821 0.025078 0.102977
v 0.159189 0.018055 0.099241
v 0.159684 0.011899 0.094213
v 0.160288 0.006847 0.088086
v 0.160976 0.003092 0.081097
v 0.161723 0.000781 0.073512
v 0.162500 0.000000 0.065625
v 0.163277 0.000781 0.057738
v 0.164024 0.003092 0.050153
v 0.164712 0.006847 0.043164
v 0.165316 0.011899 0.037037
v 0.165811 0.018055 0.032009
v 0.166179 0.025078 0.028273
v 0.166405 0.032699 0.025972
v 0.166482 0.040625 0.025196
v 0.166405 0.048551 0.025972
v 0.166179 0.056172 0.028273
v 0.165811 0.063195 0.032009
v 0.165316 0.069351 0.037037
v 0.164712 0.074403 0.043164
v 0.164024 0.078158 0.050153
v 0.163277 0.080469 0.057738
vn -0.0971 0.9904 0.0096
vn -0.2875 0.9523 0.0283
vn -0.4669 0.8777 0.0460
vn -0.6283 0.7693 0.0619
vn -0.7656 0.6313 0.0754
vn -0.8734 0.4691 0.0860
vn -0.9477 0.2889 0.0933
vn -0.9856 0.0975 0.0971
vn -0.9856 -0.0975 0.0971
vn -0.9477 -0.2889 0.0933
vn -0.8734 -0.4691 0.0860
vn -0.7656 -0.6313 0.0754
vn -0.6283 -0.7693 0.0619
vn -0.4669 -0.8777 0.0460
vn -0.2875 -0.9523 0.0283
vn -0.0971 -0.9904 0.0096
vn 0.0971 -0.9904 -0.0096
vn 0.2875 -0.9523 -0.0283
vn 0.4669 -0.8777 -0.0460
vn 0.6283 -0.7693 -0.0619
vn 0.7656 -0.6313 -0.0754
vn 0.8734 -0.4691 -0.0860
vn 0.9477 -0.2889 -0.0933
vn 0.9856 -0.0975 -0.0971
vn 0.9856 0.0975 -0.0971
vn 0.9477 0.2889 -0.0933
vn 0.8734 0.4691 -0.0860
vn 0.7656 0.6313 -0.0754
vn 0.6283 0.7693 -0.0619
vn 0.4669 0.8777 -0.0460
vn 0.2875 0.9523 -0.0283
vn 0.0971 0.9904 -0.0096
vn -0.0957 0.9904 0.0190
vn -0.2833 0.9523 0.0564
vn -0.4601 0.8777 0.0915
vn -0.6192 0.7693 0.1232
vn -0.7545 0.6313 0.1501
vn -0.8608 0.4691 0.1712
vn -0.9340 0.2889 0.1858
vn -0.9714 0.0975 0.1932
vn -0.9714 -0.0975 0.1932
vn -0.9340 -0.2889 0.1858
vn -0.8608 -0.4691 0.1712
vn -0.7545 -0.6313 0.1501
vn -0.6192 -0.7693 0.1232
vn -0.4601 -0.8777 0.0915
vn -0.2833 -0.9523 0.0564
vn -0.0957 -0.9904 0.0190
vn 0.0957 -0.9904 -0.0190
vn 0.2833 -0.9523 -0.0564
vn 0.4601 -0.8777 -0.0915
vn 0.6192 -0.7693 -0.1232
vn 0.7545 -0.6313 -0.1501
vn 0.8608 -0.4691 -0.1712
vn 0.9340 -0.2889 -0.1858
vn 0.9714 -0.0975 -0.1932
vn 0.9714 0.0975 -0.1932
vn 0.9340 0.2889 -0.1858
vn 0.8608 0.4691 -0.1712
vn 0.7545 0.6313 -0.1501
vn 0.6192 0.7693 -0.1232
vn 0.4601 0.8777 -0.0915
vn 0.2833 0.9523 -0.0564
vn 0.0957 0.9904 -0.0190
vn -0.0901 0.9904 0.0373
vn -0.2669 0.9523 0.1106
vn -0.4334 0.8777 0.1795
vn -0.5833 0.7693 0.2416
vn -0.7107 0.6313 0.2944
vn -0.8109 0.4691 0.3359
vn -0.8798 0.2889 0.3644
vn -0.9150 0.0975 0.3790
vn -0.9150 -0.0975 0.3790
vn -0.8798 -0.2889 0.3644
vn -0.8109 -0.4691 0.3359
vn -0.7107 -0.6313 0.2944
vn -0.5833 -0.7693 0.2416
vn -0.4334 -0.8777 0.1795
vn -0.2669 -0.9523 0.1106
vn -0.0901 -0.9904 0.0373
vn 0.0901 -0.9904 -0.0373
vn 0.2669 -0.9523 -0.1106
vn 0.4334 -0.8777 -0.1795
vn 0.5833 -0.7693 -0.2416
vn 0.7107 -0.6313 -0.2944
vn 0.8109 -0.4691 -0.3359
vn 0.8798 -0.2889 -0.3644
vn 0.9150 -0.0975 -0.3790
vn 0.9150 0.0975 -0.3790
vn 0.8798 0.2889 -0.3644
vn 0.8109 0.4691 -0.3359
vn 0.7107 0.6313 -0.2944
vn 0.5833 0.7693 -0.2416
vn 0.4334 0.8777 -0.1795
vn 0.2669 0.9523 -0.1106
vn 0.0901 0.9904 -0.0373
vn -0.0811 0.9904 0.0542
vn -0.2402 0.9523 0.1605
vn -0.3901 0.8777 0.2606
vn -0.5249 0.7693 0.3508
vn -0.6396 0.6313 0.4274
vn -0.7298 0.4691 0.4876
vn -0.7918 0.2889 0.5291
vn -0.8235 0.0975 0.5502
vn -0.8235 -0.0975 0.5502
vn -0.7918 -0.2889 0.5291
vn -0.7298 -0.4691 0.4876
vn -0.6396 -0.6313 0.4274
vn -0.5249 -0.7693 0.3508
vn -0.3901 -0.8777 0.2606
vn -0.2402 -0.9523 0.1605
vn -0.0811 -0.9904 0.0542
vn 0.0811 -0.9904 -0.0542
vn 0.2402 -0.9523 -0.1605
vn 0.3901 -0.8777 -0.2606
vn 0.5249 -0.7693 -0.3508
vn 0.6396 -0.6313 -0.4274
vn 0.7298 -0.4691 -0.4876
vn 0.7918 -0.2889 -0.5291
vn 0.8235 -0.0975 -0.5502
vn 0.8235 0.0975 -0.5502
vn 0.7918 0.2889 -0.5291
vn 0.7298 0.4691 -0.4876
vn 0.6396 0.6313 -0.4274
vn 0.5249 0.7693 -0.3508
vn 0.3901 0.8777 -0.2606
vn 0.2402 0.9523 -0.1605
vn 0.0811 0.9904 -0.0542
vn -0.0690 0.9904 0.0690
vn -0.2043 0.9523 0.2043
vn -0.3317 0.8777 0.3317
vn -0.4464 0.7693 0.4464
vn -0.5440 0.6313 0.5440
vn -0.6206 0.4691 0.6206
vn -0.6734 0.2889 0.6734
vn -0.7003 0.0975 0.7003
vn -0.7003 -0.0975 0.7003
vn -0.6734 -0.2889 0.6734
vn -0.6206 -0.4691 0.6206
vn -0.5440 -0.6313 0.5440
vn -0.4464 -0.7693 0.4464
vn -0.3317 -0.8777 0.3317
vn -0.2043 -0.9523 0.2043
vn -0.0690 -0.9904 0.0690
vn 0.0690 -0.9904 -0.0690
vn 0.2043 -0.9523 -0.2043
vn 0.3317 -0.8777 -0.3317
vn 0.4464 -0.7693 -0.4464
vn 0.5440 -0.6313 -0.5440
vn 0.6206 -0.4691 -0.6206
vn 0.6734 -0.2889 -0.6734
vn 0.7003 -0.0975 -0.7003
vn 0.7003 0.0975 -0.7003
vn 0.6734 0.2889 -0.6734
vn 0.6206 0.4691 -0.6206
vn 0.5440 0.6313 -0.5440
vn 0.4464 0.7693 -0.4464
vn 0.3317 0.8777 -0.3317
vn 0.2043 0.9523 -0.2043
vn 0.0690 0.9904 -0.0690
vn -0.0542 0.9904 0.0811
vn -0.1605 0.9523 0.2402
vn -0.2606 0.8777 0.3901
vn -0.3508 0.7693 0.5249
vn -0.4274 0.6313 0.6396
vn -0.4876 0.4691 0.7298
vn -0.5291 0.2889 0.7918
vn -0.5502 0.0975 0.8235
vn -0.5502 -0.0975 0.8235
vn -0.5291 -0.2889 0.7918
vn -0.4876 -0.4691 0.7298
vn -0.4274 -0.6313 0.6396
vn -0.3508 -0.7693 0.5249
vn -0.2606 -0.8777 0.3901
vn -0.1605 -0.9523 0.2402
vn -0.0542 -0.9904 0.0811
vn 0.0542 -0.9904 -0.0811
vn 0.1605 -0.9523 -0.2402
vn 0.2606 -0.8777 -0.3901
vn 0.3508 -0.7693 -0.5249
vn 0.4274 -0.6313 -0.6396
vn 0.4876 -0.4691 -0.7298
vn 0.5291 -0.2889 -0.7918
vn 0.5502 -0.0975 -0.8235
vn 0.5502 0.0975 -0.8235
vn 0.5291 0.2889 -0.7918
vn 0.4876 0.4691 -0.7298
vn 0.4274 0.6313 -0.6396
vn 0.3508 0.7693 -0.5249
vn 0.2606 0.8777 -0.3901
vn 0.1605 0.9523 -0.2402
vn 0.0542 0.9904 -0.0811
vn -0.0373 0.9904 0.0901
vn -0.1106 0.9523 0.2669
vn -0.1795 0.8777 0.4334
vn -0.2416 0.7693 0.5833
vn -0.2944 0.6313 0.7107
vn -0.3359 0.4691 0.8109
vn -0.3644 0.2889 0.8798
vn -0.3790 0.0975 0.9150
vn -0.3790 -0.0975 0.9150
vn -0.3644 -0.2889 0.8798
vn -0.3359 -0.4691 0.8109
vn -0.2944 -0.6313 0.7107
vn -0.2416 -0.7693 0.5833
vn -0.1795 -0.8777 0.4334
vn -0.1106 -0.9523 0.2669
vn -0.0373 -0.9904 0.0901
vn 0.0373 -0.9904 -0.0901
vn 0.1106 -0.9523 -0.2669
vn 0.1795 -0.8777 -0.4334
vn 0.2416 -0.7693 -0.5833
vn 0.2944 -0.6313 -0.7107
vn 0.3359 -0.4691 -0.8109
vn 0.3644 -0.2889 -0.8798
vn 0.3790 -0.0975 -0.9150
vn 0.3790 0.0975 -0.9150
vn 0.3644 0.2889 -0.8798
vn 0.3359 0.4691 -0.8109
vn 0.2944 0.6313 -0.7107
vn 0.2416 0.7693 -0.5833
vn 0.1795 0.8777 -0.4334
vn 0.1106 0.9523 -0.2669
vn 0.0373 0.9904 -0.0901
vn -0.0190 0.9904 0.0957
vn -0.0564 0.9523 0.2833
vn -0.0915 0.8777 0.4601
vn -0.1232 0.7693 0.6192
vn -0.1501 0.6313 0.7545
vn -0.1712 0.4691 0.8608
vn -0.1858 0.2889 0.9340
vn -0.1932 0.0975 0.9714
vn -0.1932 -0.0975 0.9714
vn -0.1858 -0.2889 0.9340
vn -0.1712 -0.4691 0.8608
vn -0.1501 -0.6313 0.7545
vn -0.1232 -0.7693 0.6192
vn -0.0915 -0.8777 0.4601
vn -0.0564 -0.9523 0.2833
vn -0.0190 -0.9904 0.0957
vn 0.0190 -0.9904 -0.0957
vn 0.0564 -0.9523 -0.2833
vn 0.0915 -0.8777 -0.4601
vn 0.1232 -0.7693 -0.6192
vn 0.1501 -0.6313 -0.7545
vn 0.1712 -0.4691 -0.8608
vn 0.1858 -0.2889 -0.9340
vn 0.1932 -0.0975 -0.9714
vn 0.1932 0.0975 -0.9714
vn 0.1858 0.2889 -0.9340
vn 0.1712 0.4691 -0.8608
vn 0.1501 0.6313 -0.7545
vn 0.1232 0.7693 -0.6192
vn 0.0915 0.8777 -0.4601
vn 0.0564 0.9523 -0.2833
vn 0.0190 0.9904 -0.0957
vt 0.000000 0.000000
vt 0.031250 0.000000
vt 0.031250 0.101284
vt 0.000000 0.101284
vt 0.062500 0.000000
vt 0.062500 0.101284
vt 0.093750 0.000000
vt 0.093750 0.101284
vt 0.125000 0.000000
vt 0.125000 0.101284
vt 0.156250 0.000000
vt 0.156250 0.101284
vt 0.187500 0.000000
vt 0.187500 0.101284
vt 0.218750 0.000000
vt 0.218750 0.101284
vt 0.250000 0.000000
vt 0.250000 0.101284
vt 0.281250 0.000000
vt 0.281250 0.101284
vt 0.312500 0.000000
vt 0.312500 0.101284
vt 0.343750 0.000000
vt 0.343750 0.101284
vt 0.375000 0.000000
vt 0.375000 0.101284
vt 0.406250 0.000000
vt 0.406250 0.101284
vt 0.437500 0.000000
vt 0.437500 0.101284
vt 0.468750 0.000000
vt 0.468750 0.101284
vt 0.500000 0.000000
vt 0.500000 0.101284
vt 0.531250 0.000000
vt 0.531250 0.101284
vt 0.562500 0.000000
vt 0.562500 0.101284
vt 0.593750 0.000000
vt 0.593750 0.101284
vt 0.625000 0.000000
vt 0.625000 0.101284
vt 0.656250 0.000000
vt 0.656250 0.101284
vt 0.687500 0.000000
vt 0.687500 0.101284
vt 0.718750 0.000000
vt 0.718750 0.101284
vt 0.750000 0.000000
vt 0.750000 0.101284
vt 0.781250 0.000000
vt 0.781250 0.101284
vt 0.812500 0.000000
vt 0.812500 0.101284
vt 0.843750 0.000000
vt 0.843750 0.101284
vt 0.875000 0.000000
vt 0.875000 0.101284
vt 0.906250 0.000000
vt 0.906250 0.101284
vt 0.937500 0.000000
vt 0.937500 0.101284
vt 0.968750 0.000000
vt 0.968750 0.101284
vt 1.000000 0.000000
vt 1.000000 0.101284
vt 0.031250 0.202569
vt 0.000000 0.202569
vt 0.062500 0.202569
vt 0.093750 0.202569
vt 0.125000 0.202569
vt 0.156250 0.202569
vt 0.187500 0.202569
vt 0.218750 0.202569
vt 0.250000 0.202569
vt 0.281250 0.202569
vt 0.312500 0.202569
vt 0.343750 0.202569
vt 0.375000 0.202569
vt 0.406250 0.202569
vt 0.437500 0.202569
vt 0.468750 0.202569
vt 0.500000 0.202569
vt 0.531250 0.202569
vt 0.562500 0.202569
vt 0.593750 0.202569
vt 0.625000 0.202569
vt 0.656250 0.202569
vt 0.687500 0.202569
vt 0.718750 0.202569
vt 0.750000 0.202569
vt 0.781250 0.202569
vt 0.812500 0.202569
vt 0.843750 0.202569
vt 0.875000 0.202569
vt 0.906250 0.202569
vt 0.937500 0.202569
vt 0.968750 0.202569
vt 1.000000 0.202569
vt 0.031250 0.303853
vt 0.000000 0.303853
vt 0.062500 0.303853
vt 0.093750 0.303853
vt 0.125000 0.303853
vt 0.156250 0.303853
vt 0.187500 0.303853
vt 0.218750 0.303853
vt 0.250000 0.303853
vt 0.281250 0.303853
vt 0.312500 0.303853
vt 0.343750 0.303853
vt 0.375000 0.303853
vt 0.406250 0.303853
vt 0.437500 0.303853
vt 0.468750 0.303853
vt 0.500000 0.303853
vt 0.531250 0.303853
vt 0.562500 0.303853
vt 0.593750 0.303853
vt 0.625000 0.303853
vt 0.656250 0.303853
vt 0.687500 0.303853
vt 0.718750 0.303853
vt 0.750000 0.303853
vt 0.781250 0.303853
vt 0.812500 0.303853
vt 0.843750 0.303853
vt 0.875000 0.303853
vt 0.906250 0.303853
vt 0.937500 0.303853
vt 0.968750 0.303853
vt 1.000000 0.303853
vt 0.031250 0.405138
vt 0.000000 0.405138
vt 0.062500 0.405138
vt 0.093750 0.405138
vt 0.125000 0.405138
vt 0.156250 0.405138
vt 0.187500 0.405138
vt 0.218750 0.405138
vt 0.250000 0.405138
vt 0.281250 0.405138
vt 0.312500 0.405138
vt 0.343750 0.405138
vt 0.375000 0.405138
vt 0.406250 0.405138
vt 0.437500 0.405138
vt 0.468750 0.405138
vt 0.500000 0.405138
vt 0.531250 0.405138
vt 0.562500 0.405138
vt 0.593750 0.405138
vt 0.625000 0.405138
vt 0.656250 0.405138
vt 0.687500 0.405138
vt 0.718750 0.405138
vt 0.750000 0.405138
vt 0.781250 0.405138
vt 0.812500 0.405138
vt 0.843750 0.405138
vt 0.875000 0.405138
vt 0.906250 0.405138
vt 0.937500 0.405138
vt 0.968750 0.405138
vt 1.000000 0.405138
vt 0.031250 0.506422
vt 0.000000 0.506422
vt 0.062500 0.506422
vt 0.093750 0.506422
vt 0.125000 0.506422
vt 0.156250 0.506422
vt 0.187500 0.506422
vt 0.218750 0.506422
vt 0.250000 0.506422
vt 0.281250 0.506422
vt 0.312500 0.506422
vt 0.343750 0.506422
vt 0.375000 0.506422
vt 0.406250 0.506422
vt 0.437500 0.506422
vt 0.468750 0.506422
vt 0.500000 0.506422
vt 0.531250 0.506422
vt 0.562500 0.506422
vt 0.593750 0.506422
vt 0.625000 0.506422
vt 0.656250 0.506422
vt 0.687500 0.506422
vt 0.718750 0.506422
vt 0.750000 0.506422
vt 0.781250 0.506422
vt 0.812500 0.506422
vt 0.843750 0.506422
vt 0.875000 0.506422
vt 0.906250 0.506422
vt 0.937500 0.506422
vt 0.968750 0.506422
vt 1.000000 0.506422
vt 0.031250 0.607706
vt 0.000000 0.607706
vt 0.062500 0.607706
vt 0.093750 0.607706
vt 0.125000 0.607706
vt 0.156250 0.607706
vt 0.187500 0.607706
vt 0.218750 0.607706
vt 0.250000 0.607706
vt 0.281250 0.607706
vt 0.312500 0.607706
vt 0.343750 0.607706
vt 0.375000 0.607706
vt 0.406250 0.607706
vt 0.437500 0.607706
vt 0.468750 0.607706
vt 0.500000 0.607706
vt 0.531250 0.607706
vt 0.562500 0.607706
vt 0.593750 0.607706
vt 0.625000 0.607706
vt 0.656250 0.607706
vt 0.687500 0.607706
vt 0.718750 0.607706
vt 0.750000 0.607706
vt 0.781250 0.607706
vt 0.812500 0.607706
vt 0.843750 0.607706
vt 0.875000 0.607706
vt 0.906250 0.607706
vt 0.937500 0.607706
vt 0.968750 0.607706
vt 1.000000 0.607706
vt 0.031250 0.708991
vt 0.000000 0.708991
vt 0.062500 0.708991
vt 0.093750 0.708991
vt 0.125000 0.708991
vt 0.156250 0.708991
vt 0.187500 0.708991
vt 0.218750 0.708991
vt 0.250000 0.708991
vt 0.281250 0.708991
vt 0.312500 0.708991
vt 0.343750 0.708991
vt 0.375000 0.708991
vt 0.406250 0.708991
vt 0.437500 0.708991
vt 0.468750 0.708991
vt 0.500000 0.708991
vt 0.531250 0.708991
vt 0.562500 0.708991
vt 0.593750 0.708991
vt 0.625000 0.708991
vt 0.656250 0.708991
vt 0.687500 0.708991
vt 0.718750 0.708991
vt 0.750000 0.708991
vt 0.781250 0.708991
vt 0.812500 0.708991
vt 0.843750 0.708991
vt 0.875000 0.708991
vt 0.906250 0.708991
vt 0.937500 0.708991
vt 0.968750 0.708991
vt 1.000000 0.708991
vt 0.031250 0.810275
vt 0.000000 0.810275
vt 0.062500 0.810275
vt 0.093750 0.810275
vt 0.125000 0.810275
vt 0.156250 0.810275
vt 0.187500 0.810275
vt 0.218750 0.810275
vt 0.250000 0.810275
vt 0.281250 0.810275
vt 0.312500 0.810275
vt 0.343750 0.810275
vt 0.375000 0.810275
vt 0.406250 0.810275
vt 0.437500 0.810275
vt 0.468750 0.810275
vt 0.500000 0.810275
vt 0.531250 0.810275
vt 0.562500 0.810275
vt 0.593750 0.810275
vt 0.625000 0.810275
vt 0.656250 0.810275
vt 0.687500 0.810275
vt 0.718750 0.810275
vt 0.750000 0.810275
vt 0.781250 0.810275
vt 0.812500 0.810275
vt 0.843750 0.810275
vt 0.875000 0.810275
vt 0.906250 0.810275
vt 0.937500 0.810275
vt 0.968750 0.810275
vt 1.000000 0.810275
vt 0.031250 0.238508
vt 0.000000 0.238508
vt 0.062500 0.238508
vt 0.093750 0.238508
vt 0.125000 0.238508
vt 0.156250 0.238508
vt 0.187500 0.238508
vt 0.218750 0.238508
vt 0.250000 0.238508
vt 0.281250 0.238508
vt 0.312500 0.238508
vt 0.343750 0.238508
vt 0.375000 0.238508
vt 0.406250 0.238508
vt 0.437500 0.238508
vt 0.468750 0.238508
vt 0.500000 0.238508
vt 0.531250 0.238508
vt 0.562500 0.238508
vt 0.593750 0.238508
vt 0.625000 0.238508
vt 0.656250 0.238508
vt 0.687500 0.238508
vt 0.718750 0.238508
vt 0.750000 0.238508
vt 0.781250 0.238508
vt 0.812500 0.238508
vt 0.843750 0.238508
vt 0.875000 0.238508
vt 0.906250 0.238508
vt 0.937500 0.238508
vt 0.968750 0.238508
vt 1.000000 0.238508
vt 0.031250 0.477017
vt 0.000000 0.477017
vt 0.062500 0.477017
vt 0.093750 0.477017
vt 0.125000 0.477017
vt 0.156250 0.477017
vt 0.187500 0.477017
vt 0.218750 0.477017
vt 0.250000 0.477017
vt 0.281250 0.477017
vt 0.312500 0.477017
vt 0.343750 0.477017
vt 0.375000 0.477017
vt 0.406250 0.477017
vt 0.437500 0.477017
vt 0.468750 0.477017
vt 0.500000 0.477017
vt 0.531250 0.477017
vt 0.562500 0.477017
vt 0.593750 0.477017
vt 0.625000 0.477017
vt 0.656250 0.477017
vt 0.687500 0.477017
vt 0.718750 0.477017
vt 0.750000 0.477017
vt 0.781250 0.477017
vt 0.812500 0.477017
vt 0.843750 0.477017
vt 0.875000 0.477017
vt 0.906250 0.477017
vt 0.937500 0.477017
vt 0.968750 0.477017
vt 1.000000 0.477017
vt 0.031250 0.715525
vt 0.000000 0.715525
vt 0.062500 0.715525
vt 0.093750 0.715525
vt 0.125000 0.715525
vt 0.156250 0.715525
vt 0.187500 0.715525
vt 0.218750 0.715525
vt 0.250000 0.715525
vt 0.281250 0.715525
vt 0.312500 0.715525
vt 0.343750 0.715525
vt 0.375000 0.715525
vt 0.406250 0.715525
vt 0.437500 0.715525
vt 0.468750 0.715525
vt 0.500000 0.715525
vt 0.531250 0.715525
vt 0.562500 0.715525
vt 0.593750 0.715525
vt 0.625000 0.715525
vt 0.656250 0.715525
vt 0.687500 0.715525
vt 0.718750 0.715525
vt 0.750000 0.715525
vt 0.781250 0.715525
vt 0.812500 0.715525
vt 0.843750 0.715525
vt 0.875000 0.715525
vt 0.906250 0.715525
vt 0.937500 0.715525
vt 0.968750 0.715525
vt 1.000000 0.715525
vt 0.031250 0.954033
vt 0.000000 0.954033
vt 0.062500 0.954033
vt 0.093750 0.954033
vt 0.125000 0.954033
vt 0.156250 0.954033
vt 0.187500 0.954033
vt 0.218750 0.954033
vt 0.250000 0.954033
vt 0.281250 0.954033
vt 0.312500 0.954033
vt 0.343750 0.954033
vt 0.375000 0.954033
vt 0.406250 0.954033
vt 0.437500 0.954033
vt 0.468750 0.954033
vt 0.500000 0.954033
vt 0.531250 0.954033
vt 0.562500 0.954033
vt 0.593750 0.954033
vt 0.625000 0.954033
vt 0.656250 0.954033
vt 0.687500 0.954033
vt 0.718750 0.954033
vt 0.750000 0.954033
vt 0.781250 0.954033
vt 0.812500 0.954033
vt 0.843750 0.954033
vt 0.875000 0.954033
vt 0.906250 0.954033
vt 0.937500 0.954033
vt 0.968750 0.954033
vt 1.000000 0.954033
vt 0.031250 1.192542
vt 0.000000 1.192542
vt 0.062500 1.192542
vt 0.093750 1.192542
vt 0.125000 1.192542
vt 0.156250 1.192542
vt 0.187500 1.192542
vt 0.218750 1.192542
vt 0.250000 1.192542
vt 0.281250 1.192542
vt 0.312500 1.192542
vt 0.343750 1.192542
vt 0.375000 1.192542
vt 0.406250 1.192542
vt 0.437500 1.192542
vt 0.468750 1.192542
vt 0.500000 1.192542
vt 0.531250 1.192542
vt 0.562500 1.192542
vt 0.593750 1.192542
vt 0.625000 1.192542
vt 0.656250 1.192542
vt 0.687500 1.192542
vt 0.718750 1.192542
vt 0.750000 1.192542
vt 0.781250 1.192542
vt 0.812500 1.192542
vt 0.843750 1.192542
vt 0.875000 1.192542
vt 0.906250 1.192542
vt 0.937500 1.192542
vt 0.968750 1.192542
vt 1.000000 1.192542
vt 0.031250 1.431050
vt 0.000000 1.431050
vt 0.062500 1.431050
vt 0.093750 1.431050
vt 0.125000 1.431050
vt 0.156250 1.431050
vt 0.187500 1.431050
vt 0.218750 1.431050
vt 0.250000 1.431050
vt 0.281250 1.431050
vt 0.312500 1.431050
vt 0.343750 1.431050
vt 0.375000 1.431050
vt 0.406250 1.431050
vt 0.437500 1.431050
vt 0.468750 1.431050
vt 0.500000 1.431050
vt 0.531250 1.431050
vt 0.562500 1.431050
vt 0.593750 1.431050
vt 0.625000 1.431050
vt 0.656250 1.431050
vt 0.687500 1.431050
vt 0.718750 1.431050
vt 0.750000 1.431050
vt 0.781250 1.431050
vt 0.812500 1.431050
vt 0.843750 1.431050
vt 0.875000 1.431050
vt 0.906250 1.431050
vt 0.937500 1.431050
vt 0.968750 1.431050
vt 1.000000 1.431050
vt 0.031250 1.669559
vt 0.000000 1.669559
vt 0.062500 1.669559
vt 0.093750 1.669559
vt 0.125000 1.669559
vt 0.156250 1.669559
vt 0.187500 1.669559
vt 0.218750 1.669559
vt 0.250000 1.669559
vt 0.281250 1.669559
vt 0.312500 1.669559
vt 0.343750 1.669559
vt 0.375000 1.669559
vt 0.406250 1.669559
vt 0.437500 1.669559
vt 0.468750 1.669559
vt 0.500000 1.669559
vt 0.531250 1.669559
vt 0.562500 1.669559
vt 0.593750 1.669559
vt 0.625000 1.669559
vt 0.656250 1.669559
vt 0.687500 1.669559
vt 0.718750 1.669559
vt 0.750000 1.669559
vt 0.781250 1.669559
vt 0.812500 1.669559
vt 0.843750 1.669559
vt 0.875000 1.669559
vt 0.906250 1.669559
vt 0.937500 1.669559
vt 0.968750 1.669559
vt 1.000000 1.669559
vt 0.031250 1.908067
vt 0.000000 1.908067
vt 0.062500 1.908067
vt 0.093750 1.908067
vt 0.125000 1.908067
vt 0.156250 1.908067
vt 0.187500 1.908067
vt 0.218750 1.908067
vt 0.250000 1.908067
vt 0.281250 1.908067
vt 0.312500 1.908067
vt 0.343750 1.908067
vt 0.375000 1.908067
vt 0.406250 1.908067
vt 0.437500 1.908067
vt 0.468750 1.908067
vt 0.500000 1.908067
vt 0.531250 1.908067
vt 0.562500 1.908067
vt 0.593750 1.908067
vt 0.625000 1.908067
vt 0.656250 1.908067
vt 0.687500 1.908067
vt 0.718750 1.908067
vt 0.750000 1.908067
vt 0.781250 1.908067
vt 0.812500 1.908067
vt 0.843750 1.908067
vt 0.875000 1.908067
vt 0.906250 1.908067
vt 0.937500 1.908067
vt 0.968750 1.908067
vt 1.000000 1.908067
o cable
usemtl core
f 1/1/1 2/2/1 3/3/1 4/4/1
f 2/2/2 5/5/2 6/6/2 3/3/2
f 5/5/3 7/7/3 8/8/3 6/6/3
f 7/7/4 9/9/4 10/10/4 8/8/4
f 9/9/5 11/11/5 12/12/5 10/10/5
f 11/11/6 13/13/6 14/14/6 12/12/6
f 13/13/7 15/15/7 16/16/7 14/14/7
f 15/15/8 17/17/8 18/18/8 16/16/8
f 17/17/9 19/19/9 20/20/9 18/18/9
f 19/19/10 21/21/10 22/22/10 20/20/10
f 21/21/11 23/23/11 24/24/11 22/22/11
f 23/23/12 25/25/12 26/26/12 24/24/12
f 25/25/13 27/27/13 28/28/13 26/26/13
f 27/27/14 29/29/14 30/30/14 28/28/14
f 29/29/15 31/31/15 32/32/15 30/30/15
f 31/31/16 33/33/16 34/34/16 32/32/16
f 33/33/17 35/35/17 36/36/17 34/34/17
f 35/35/18 37/37/18 38/38/18 36/36/18
f 37/37/19 39/39/19 40/40/19 38/38/19
f 39/39/20 41/41/20 42/42/20 40/40/20
f 41/41/21 43/43/21 44/44/21 42/42/21
f 43/43/22 45/45/22 46/46/22 44/44/22
f 45/45/23 47/47/23 48/48/23 46/46/23
f 47/47/24 49/49/24 50/50/24 48/48/24
f 49/49/25 51/51/25 52/52/25 50/50/25
f 51/51/26 53/53/26 54/54/26 52/52/26
f 53/53/27 55/55/27 56/56/27 54/54/27
f 55/55/28 57/57/28 58/58/28 56/56/28
f 57/57/29 59/59/29 60/60/29 58/58/29
f 59/59/30 61/61/30 62/62/30 60/60/30
f 61/61/31 63/63/31 64/64/31 62/62/31
f 63/63/32 1/65/32 4/66/32 64/64/32
f 4/4/33 3/3/33 65/67/33 66/68/33
f 3/3/34 6/6/34 67/69/34 65/67/34
f 6/6/35 8/8/35 68/70/35 67/69/35
f 8/8/36 10/10/36 69/71/36 68/70/36
f 10/10/37 12/12/37 70/72/37 69/71/37
f 12/12/38 14/14/38 71/73/38 70/72/38
f 14/14/39 16/16/39 72/74/39 71/73/39
f 16/16/40 18/18/40 73/75/40 72/74/40
f 18/18/41 20/20/41 74/76/41 73/75/41
f 20/20/42 22/22/42 75/77/42 74/76/42
f 22/22/43 24/24/43 76/78/43 75/77/43
f 24/24/44 26/26/44 77/79/44 76/78/44
f 26/26/45 28/28/45 78/80/45 77/79/45
f 28/28/46 30/30/46 79/81/46 78/80/46
f 30/30/47 32/32/47 80/82/47 79/81/47
f 32/32/48 34/34/48 81/83/48 80/82/48
f 34/34/49 36/36/49 82/84/49 81/83/49
f 36/36/50 38/38/50 83/85/50 82/84/50
f 38/38/51 40/40/51 84/86/51 83/85/51
f 40/40/52 42/42/52 85/87/52 84/86/52
f 42/42/53 44/44/53 86/88/53 85/87/53
f 44/44/54 46/46/54 87/89/54 86/88/54
f 46/46/55 48/48/55 88/90/55 87/89/55
f 48/48/56 50/50/56 89/91/56 88/90/56
f 50/50/57 52/52/57 90/92/57 89/91/57
f 52/52/58 54/54/58 91/93/58 90/92/58
f 54/54/59 56/56/59 92/94/59 91/93/59
f 56/56/60 58/58/60 93/95/60 92/94/60
f 58/58/61 60/60/61 94/96/61 93/95/61
f 60/60/62 62/62/62 95/97/62 94/96/62
f 62/62/63 64/64/63 96/98/63 95/97/63
f 64/64/64 4/66/64 66/99/64 96/98/64
f 66/68/65 65/67/65 97/100/65 98/101/65
f 65/67/66 67/69/66 99/102/66 97/100/66
f 67/69/67 68/70/67 100/103/67 99/102/67
f 68/70/68 69/71/68 101/104/68 100/103/68
f 69/71/69 70/72/69 102/105/69 101/104/69
f 70/72/70 71/73/70 103/106/70 102/105/70
f 71/73/71 72/74/71 104/107/71 103/106/71
f 72/74/72 73/75/72 105/108/72 104/107/72
f 73/75/73 74/76/73 106/109/73 105/108/73
f 74/76/74 75/77/74 107/110/74 106/109/74
f 75/77/75 76/78/75 108/111/75 107/110/75
f 76/78/76 77/79/76 109/112/76 108/111/76
f 77/79/77 78/80/77 110/113/77 109/112/77
f 78/80/78 79/81/78 111/114/78 110/113/78
f 79/81/79 80/82/79 112/115/79 111/114/79
f 80/82/80 81/83/80 113/116/80 112/115/80
f 81/83/81 82/84/81 114/117/81 113/116/81
f 82/84/82 83/85/82 115/118/82 114/117/82
f 83/85/83 84/86/83 116/119/83 115/118/83
f 84/86/84 85/87/84 117/120/84 116/119/84
f 85/87/85 86/88/85 118/121/85 117/120/85
f 86/88/86 87/89/86 119/122/86 118/121/86
f 87/89/87 88/90/87 120/123/87 119/122/87
f 88/90/88 89/91/88 121/124/88 120/123/88
f 89/91/89 90/92/89 122/125/89 121/124/89
f 90/92/90 91/93/90 123/126/90 122/125/90
f 91/93/91 92/94/91 124/127/91 123/126/91
f 92/94/92 93/95/92 125/128/92 124/127/92
f 93/95/93 94/96/93 126/129/93 125/128/93
f 94/96/94 95/97/94 127/130/94 126/129/94
f 95/97/95 96/98/95 128/131/95 127/130/95
f 96/98/96 66/99/96 98/132/96 128/131/96
f 98/101/97 97/100/97 129/133/97 130/134/97
f 97/100/98 99/102/98 131/135/98 129/133/98
f 99/102/99 100/103/99 132/136/99 131/135/99
f 100/103/100 101/104/100 133/137/100 132/136/100
f 101/104/101 102/105/101 134/138/101 133/137/101
f 102/105/102 103/106/102 135/139/102 134/138/102
f 103/106/103 104/107/103 136/140/103 135/139/103
f 104/107/104 105/108/104 137/141/104 136/140/104
f 105/108/105 106/109/105 138/142/105 137/141/105
f 106/109/106 107/110/106 139/143/106 138/142/106
f 107/110/107 108/111/107 140/144/107 139/143/107
f 108/111/108 109/112/108 141/145/108 140/144/108
f 109/112/109 110/113/109 142/146/109 141/145/109
f 110/113/110 111/114/110 143/147/110 142/146/110
f 111/114/111 112/115/111 144/148/111 143/147/111
f 112/115/112 113/116/112 145/149/112 144/148/112
f 113/116/113 114/117/113 146/150/113 145/149/113
f 114/117/114 115/118/114 147/151/114 146/150/114
f 115/118/115 116/119/115 148/152/115 147/151/115
f 116/119/116 117/120/116 149/153/116 148/152/116
f 117/120/117 118/121/117 150/154/117 149/153/117
f 118/121/118 119/122/118 151/155/118 150/154/118
f 119/122/119 120/123/119 152/156/119 151/155/119
f 120/123/120 121/124/120 153/157/120 152/156/120
f 121/124/121 122/125/121 154/158/121 153/157/121
f 122/125/122 123/126/122 155/159/122 154/158/122
f 123/126/123 124/127/123 156/160/123 155/159/123
f 124/127/124 125/128/124 157/161/124 156/160/124
f 125/128/125 126/129/125 158/162/125 157/161/125
f 126/129/126 127/130/126 159/163/126 158/162/126
f 127/130/127 128/131/127 160/164/127 159/163/127
f 128/131/128 98/132/128 130/165/128 160/164/128
f 130/134/129 129/133/129 161/166/129 162/167/129
f 129/133/130 131/135/130 163/168/130 161/166/130
f 131/135/131 132/136/131 164/169/131 163/168/131
f 132/136/132 133/137/132 165/170/132 164/169/132
f 133/137/133 134/138/133 166/171/133 165/170/133
f 134/138/134 135/139/134 167/172/134 166/171/134
f 135/139/135 136/140/135 168/173/135 167/172/135
f 136/140/136 137/141/136 169/174/136 168/173/136
f 137/141/137 138/142/137 170/175/137 169/174/137
f 138/142/138 139/143/138 171/176/138 170/175/138
f 139/143/139 140/144/139 172/177/139 171/176/139
f 140/144/140 141/145/140 173/178/140 172/177/140
f 141/145/141 142/146/141 174/179/141 173/178/141
f 142/146/142 143/147/142 175/180/142 174/179/142
f 143/147/143 144/148/143 176/181/143 175/180/143
f 144/148/144 145/149/144 177/182/144 176/181/144
f 145/149/145 146/150/145 178/183/145 177/182/145
f 146/150/146 147/151/146 179/184/146 178/183/146
f 147/151/147 148/152/147 180/185/147 179/184/147
f 148/152/148 149/153/148 181/186/148 180/185/148
f 149/153/149 150/154/149 182/187/149 181/186/149
f 150/154/150 151/155/150 183/188/150 182/187/150
f 151/155/151 152/156/151 184/189/151 183/188/151
f 152/156/152 153/157/152 185/190/152 184/189/152
f 153/157/153 154/158/153 186/191/153 185/190/153
f 154/158/154 155/159/154 187/192/154 186/191/154
f 155/159/155 156/160/155 188/193/155 187/192/155
f 156/160/156 157/161/156 189/194/156 188/193/156
f 157/161/157 158/162/157 190/195/157 189/194/157
f 158/162/158 159/163/158 191/196/158 190/195/158
f 159/163/159 160/164/159 192/197/159 191/196/159
f 160/164/160 130/165/160 162/198/160 192/197/160
f 162/167/161 161/166/161 193/199/161 194/200/161
f 161/166/162 163/168/162 195/201/162 193/199/162
f 163/168/163 164/169/163 196/202/163 195/201/163
f 164/169/164 165/170/164 197/203/164 196/202/164
f 165/170/165 166/171/165 198/204/165 197/203/165
f 166/171/166 167/172/166 199/205/166 198/204/166
f 167/172/167 168/173/167 200/206/167 199/205/167
f 168/173/168 169/174/168 201/207/168 200/206/168
f 169/174/169 170/175/169 202/208/169 201/207/169
f 170/175/170 171/176/170 203/209/170 202/208/170
f 171/176/171 172/177/171 204/210/171 203/209/171
f 172/177/172 173/178/172 205/211/172 204/210/172
f 173/178/173 174/179/173 206/212/173 205/211/173
f 174/179/174 175/180/174 207/213/174 206/212/174
f 175/180/175 176/181/175 208/214/175 207/213/175
f 176/181/176 177/182/176 209/215/176 208/214/176
f 177/182/177 178/183/177 210/216/177 209/215/177
f 178/183/178 179/184/178 211/217/178 210/216/178
f 179/184/179 180/185/179 212/218/179 211/217/179
f 180/185/180 181/186/180 213/219/180 212/218/180
f 181/186/181 182/187/181 214/220/181 213/219/181
f 182/187/182 183/188/182 215/221/182 214/220/182
f 183/188/183 184/189/183 216/222/183 215/221/183
f 184/189/184 185/190/184 217/223/184 216/222/184
f 185/190/185 186/191/185 218/224/185 217/223/185
f 186/191/186 187/192/186 219/225/186 218/224/186
f 187/192/187 188/193/187 220/226/187 219/225/187
f 188/193/188 189/194/188 221/227/188 220/226/188
f 189/194/189 190/195/189 222/228/189 221/227/189
f 190/195/190 191/196/190 223/229/190 222/228/190
f 191/196/191 192/197/191 224/230/191 223/229/191
f 192/197/192 162/198/192 194/231/192 224/230/192
f 194/200/193 193/199/193 225/232/193 226/233/193
f 193/199/194 195/201/194 227/234/194 225/232/194
f 195/201/195 196/202/195 228/235/195 227/234/195
f 196/202/196 197/203/196 229/236/196 228/235/196
f 197/203/197 198/204/197 230/237/197 229/236/197
f 198/204/198 199/205/198 231/238/198 230/237/198
f 199/205/199 200/206/199 232/239/199 231/238/199
f 200/206/200 201/207/200 233/240/200 232/239/200
f 201/207/201 202/208/201 234/241/201 233/240/201
f 202/208/202 203/209/202 235/242/202 234/241/202
f 203/209/203 204/210/203 236/243/203 235/242/203
f 204/210/204 205/211/204 237/244/204 236/243/204
f 205/211/205 206/212/205 238/245/205 237/244/205
f 206/212/206 207/213/206 239/246/206 238/245/206
f 207/213/207 208/214/207 240/247/207 239/246/207
f 208/214/208 209/215/208 241/248/208 240/247/208
f 209/215/209 210/216/209 242/249/209 241/248/209
f 210/216/210 211/217/210 243/250/210 242/249/210
f 211/217/211 212/218/211 244/251/211 243/250/211
f 212/218/212 213/219/212 245/252/212 244/251/212
f 213/219/213 214/220/213 246/253/213 245/252/213
f 214/220/214 215/221/214 247/254/214 246/253/214
f 215/221/215 216/222/215 248/255/215 247/254/215
f 216/222/216 217/223/216 249/256/216 248/255/216
f 217/223/217 218/224/217 250/257/217 249/256/217
f 218/224/218 219/225/218 251/258/218 250/257/218
f 219/225/219 220/226/219 252/259/219 251/258/219
f 220/226/220 221/227/220 253/260/220 252/259/220
f 221/227/221 222/228/221 254/261/221 253/260/221
f 222/228/222 223/229/222 255/262/222 254/261/222
f 223/229/223 224/230/223 256/263/223 255/262/223
f 224/230/224 194/231/224 226/264/224 256/263/224
f 226/233/225 225/232/225 257/265/225 258/266/225
f 225/232/226 227/234/226 259/267/226 257/265/226
f 227/234/227 228/235/227 260/268/227 259/267/227
f 228/235/228 229/236/228 261/269/228 260/268/228
f 229/236/229 230/237/229 262/270/229 261/269/229
f 230/237/230 231/238/230 263/271/230 262/270/230
f 231/238/231 232/239/231 264/272/231 263/271/231
f 232/239/232 233/240/232 265/273/232 264/272/232
f 233/240/233 234/241/233 266/274/233 265/273/233
f 234/241/234 235/242/234 267/275/234 266/274/234
f 235/242/235 236/243/235 268/276/235 267/275/235
f 236/243/236 237/244/236 269/277/236 268/276/236
f 237/244/237 238/245/237 270/278/237 269/277/237
f 238/245/238 239/246/238 271/279/238 270/278/238
f 239/246/239 240/247/239 272/280/239 271/279/239
f 240/247/240 241/248/240 273/281/240 272/280/240
f 241/248/241 242/249/241 274/282/241 273/281/241
f 242/249/242 243/250/242 275/283/242 274/282/242
f 243/250/243 244/251/243 276/284/243 275/283/243
f 244/251/244 245/252/244 277/285/244 276/284/244
f 245/252/245 246/253/245 278/286/245 277/285/245
f 246/253/246 247/254/246 279/287/246 278/286/246
f 247/254/247 248/255/247 280/288/247 279/287/247
f 248/255/248 249/256/248 281/289/248 280/288/248
f 249/256/249 250/257/249 282/290/249 281/289/249
f 250/257/250 251/258/250 283/291/250 282/290/250
f 251/258/251 252/259/251 284/292/251 283/291/251
f 252/259/252 253/260/252 285/293/252 284/292/252
f 253/260/253 254/261/253 286/294/253 285/293/253
f 254/261/254 255/262/254 287/295/254 286/294/254
f 255/262/255 256/263/255 288/296/255 287/295/255
f 256/263/256 226/264/256 258/297/256 288/296/256
f 289/1/1 290/2/1 291/298/1 292/299/1
f 290/2/2 293/5/2 294/300/2 291/298/2
f 293/5/3 295/7/3 296/301/3 294/300/3
f 295/7/4 297/9/4 298/302/4 296/301/4
f 297/9/5 299/11/5 300/303/5 298/302/5
f 299/11/6 301/13/6 302/304/6 300/303/6
f 301/13/7 303/15/7 304/305/7 302/304/7
f 303/15/8 305/17/8 306/306/8 304/305/8
f 305/17/9 307/19/9 308/307/9 306/306/9
f 307/19/10 309/21/10 310/308/10 308/307/10
f 309/21/11 311/23/11 312/309/11 310/308/11
f 311/23/12 313/25/12 314/310/12 312/309/12
f 313/25/13 315/27/13 316/311/13 314/310/13
f 315/27/14 317/29/14 318/312/14 316/311/14
f 317/29/15 319/31/15 320/313/15 318/312/15
f 319/31/16 321/33/16 322/314/16 320/313/16
f 321/33/17 323/35/17 324/315/17 322/314/17
f 323/35/18 325/37/18 326/316/18 324/315/18
f 325/37/19 327/39/19 328/317/19 326/316/19
f 327/39/20 329/41/20 330/318/20 328/317/20
f 329/41/21 331/43/21 332/319/21 330/318/21
f 331/43/22 333/45/22 334/320/22 332/319/22
f 333/45/23 335/47/23 336/321/23 334/320/23
f 335/47/24 337/49/24 338/322/24 336/321/24
f 337/49/25 339/51/25 340/323/25 338/322/25
f 339/51/26 341/53/26 342/324/26 340/323/26
f 341/53/27 343/55/27 344/325/27 342/324/27
f 343/55/28 345/57/28 346/326/28 344/325/28
f 345/57/29 347/59/29 348/327/29 346/326/29
f 347/59/30 349/61/30 350/328/30 348/327/30
f 349/61/31 351/63/31 352/329/31 350/328/31
f 351/63/32 289/65/32 292/330/32 352/329/32
f 292/299/33 291/298/33 353/331/33 354/332/33
f 291/298/34 294/300/34 355/333/34 353/331/34
f 294/300/35 296/301/35 356/334/35 355/333/35
f 296/301/36 298/302/36 357/335/36 356/334/36
f 298/302/37 300/303/37 358/336/37 357/335/37
f 300/303/38 302/304/38 359/337/38 358/336/38
f 302/304/39 304/305/39 360/338/39 359/337/39
f 304/305/40 306/306/40 361/339/40 360/338/40
f 306/306/41 308/307/41 362/340/41 361/339/41
f 308/307/42 310/308/42 363/341/42 362/340/42
f 310/308/43 312/309/43 364/342/43 363/341/43
f 312/309/44 314/310/44 365/343/44 364/342/44
f 314/310/45 316/311/45 366/344/45 365/343/45
f 316/311/46 318/312/46 367/345/46 366/344/46
f 318/312/47 320/313/47 368/346/47 367/345/47
f 320/313/48 322/314/48 369/347/48 368/346/48
f 322/314/49 324/315/49 370/348/49 369/347/49
f 324/315/50 326/316/50 371/349/50 370/348/50
f 326/316/51 328/317/51 372/350/51 371/349/51
f 328/317/52 330/318/52 373/351/52 372/350/52
f 330/318/53 332/319/53 374/352/53 373/351/53
f 332/319/54 334/320/54 375/353/54 374/352/54
f 334/320/55 336/321/55 376/354/55 375/353/55
f 336/321/56 338/322/56 377/355/56 376/354/56
f 338/322/57 340/323/57 378/356/57 377/355/57
f 340/323/58 342/324/58 379/357/58 378/356/58
f 342/324/59 344/325/59 380/358/59 379/357/59
f 344/325/60 346/326/60 381/359/60 380/358/60
f 346/326/61 348/327/61 382/360/61 381/359/61
f 348/327/62 350/328/62 383/361/62 382/360/62
f 350/328/63 352/329/63 384/362/63 383/361/63
f 352/329/64 292/330/64 354/363/64 384/362/64
f 354/332/65 353/331/65 385/364/65 386/365/65
f 353/331/66 355/333/66 387/366/66 385/364/66
f 355/333/67 356/334/67 388/367/67 387/366/67
f 356/334/68 357/335/68 389/368/68 388/367/68
f 357/335/69 358/336/69 390/369/69 389/368/69
f 358/336/70 359/337/70 391/370/70 390/369/70
f 359/337/71 360/338/71 392/371/71 391/370/71
f 360/338/72 361/339/72 393/372/72 392/371/72
f 361/339/73 362/340/73 394/373/73 393/372/73
f 362/340/74 363/341/74 395/374/74 394/373/74
f 363/341/75 364/342/75 396/375/75 395/374/75
f 364/342/76 365/343/76 397/376/76 396/375/76
f 365/343/77 366/344/77 398/377/77 397/376/77
f 366/344/78 367/345/78 399/378/78 398/377/78
f 367/345/79 368/346/79 400/379/79 399/378/79
f 368/346/80 369/347/80 401/380/80 400/379/80
f 369/347/81 370/348/81 402/381/81 401/380/81
f 370/348/82 371/349/82 403/382/82 402/381/82
f 371/349/83 372/350/83 404/383/83 403/382/83
f 372/350/84 373/351/84 405/384/84 404/383/84
f 373/351/85 374/352/85 406/385/85 405/384/85
f 374/352/86 375/353/86 407/386/86 406/385/86
f 375/353/87 376/354/87 408/387/87 407/386/87
f 376/354/88 377/355/88 409/388/88 408/387/88
f 377/355/89 378/356/89 410/389/89 409/388/89
f 378/356/90 379/357/90 411/390/90 410/389/90
f 379/357/91 380/358/91 412/391/91 411/390/91
f 380/358/92 381/359/92 413/392/92 412/391/92
f 381/359/93 382/360/93 414/393/93 413/392/93
f 382/360/94 383/361/94 415/394/94 414/393/94
f 383/361/95 384/362/95 416/395/95 415/394/95
f 384/362/96 354/363/96 386/396/96 416/395/96
f 386/365/97 385/364/97 417/397/97 418/398/97
f 385/364/98 387/366/98 419/399/98 417/397/98
f 387/366/99 388/367/99 420/400/99 419/399/99
f 388/367/100 389/368/100 421/401/100 420/400/100
f 389/368/101 390/369/101 422/402/101 421/401/101
f 390/369/102 391/370/102 423/403/102 422/402/102
f 391/370/103 392/371/103 424/404/103 423/403/103
f 392/371/104 393/372/104 425/405/104 424/404/104
f 393/372/105 394/373/105 426/406/105 425/405/105
f 394/373/106 395/374/106 427/407/106 426/406/106
f 395/374/107 396/375/107 428/408/107 427/407/107
f 396/375/108 397/376/108 429/409/108 428/408/108
f 397/376/109 398/377/109 430/410/109 429/409/109
f 398/377/110 399/378/110 431/411/110 430/410/110
f 399/378/111 400/379/111 432/412/111 431/411/111
f 400/379/112 401/380/112 433/413/112 432/412/112
f 401/380/113 402/381/113 434/414/113 433/413/113
f 402/381/114 403/382/114 435/415/114 434/414/114
f 403/382/115 404/383/115 436/416/115 435/415/115
f 404/383/116 405/384/116 437/417/116 436/416/116
f 405/384/117 406/385/117 438/418/117 437/417/117
f 406/385/118 407/386/118 439/419/118 438/418/118
f 407/386/119 408/387/119 440/420/119 439/419/119
f 408/387/120 409/388/120 441/421/120 440/420/120
f 409/388/121 410/389/121 442/422/121 441/421/121
f 410/389/122 411/390/122 443/423/122 442/422/122
f 411/390/123 412/391/123 444/424/123 443/423/123
f 412/391/124 413/392/124 445/425/124 444/424/124
f 413/392/125 414/393/125 446/426/125 445/425/125
f 414/393/126 415/394/126 447/427/126 446/426/126
f 415/394/127 416/395/127 448/428/127 447/427/127
f 416/395/128 386/396/128 418/429/128 448/428/128
f 418/398/129 417/397/129 449/430/129 450/431/129
f 417/397/130 419/399/130 451/432/130 449/430/130
f 419/399/131 420/400/131 452/433/131 451/432/131
f 420/400/132 421/401/132 453/434/132 452/433/132
f 421/401/133 422/402/133 454/435/133 453/434/133
f 422/402/134 423/403/134 455/436/134 454/435/134
f 423/403/135 424/404/135 456/437/135 455/436/135
f 424/404/136 425/405/136 457/438/136 456/437/136
f 425/405/137 426/406/137 458/439/137 457/438/137
f 426/406/138 427/407/138 459/440/138 458/439/138
f 427/407/139 428/408/139 460/441/139 459/440/139
f 428/408/140 429/409/140 461/442/140 460/441/140
f 429/409/141 430/410/141 462/443/141 461/442/141
f 430/410/142 431/411/142 463/444/142 462/443/142
f 431/411/143 432/412/143 464/445/143 463/444/143
f 432/412/144 433/413/144 465/446/144 464/445/144
f 433/413/145 434/414/145 466/447/145 465/446/145
f 434/414/146 435/415/146 467/448/146 466/447/146
f 435/415/147 436/416/147 468/449/147 467/448/147
f 436/416/148 437/417/148 469/450/148 468/449/148
f 437/417/149 438/418/149 470/451/149 469/450/149
f 438/418/150 439/419/150 471/452/150 470/451/150
f 439/419/151 440/420/151 472/453/151 471/452/151
f 440/420/152 441/421/152 473/454/152 472/453/152
f 441/421/153 442/422/153 474/455/153 473/454/153
f 442/422/154 443/423/154 475/456/154 474/455/154
f 443/423/155 444/424/155 476/457/155 475/456/155
f 444/424/156 445/425/156 477/458/156 476/457/156
f 445/425/157 446/426/157 478/459/157 477/458/157
f 446/426/158 447/427/158 479/460/158 478/459/158
f 447/427/159 448/428/159 480/461/159 479/460/159
f 448/428/160 418/429/160 450/462/160 480/461/160
f 450/431/161 449/430/161 481/463/161 482/464/161
f 449/430/162 451/432/162 483/465/162 481/463/162
f 451/432/163 452/433/163 484/466/163 483/465/163
f 452/433/164 453/434/164 485/467/164 484/466/164
f 453/434/165 454/435/165 486/468/165 485/467/165
f 454/435/166 455/436/166 487/469/166 486/468/166
f 455/436/167 456/437/167 488/470/167 487/469/167
f 456/437/168 457/438/168 489/471/168 488/470/168
f 457/438/169 458/439/169 490/472/169 489/471/169
f 458/439/170 459/440/170 491/473/170 490/472/170
f 459/440/171 460/441/171 492/474/171 491/473/171
f 460/441/172 461/442/172 493/475/172 492/474/172
f 461/442/173 462/443/173 494/476/173 493/475/173
f 462/443/174 463/444/174 495/477/174 494/476/174
f 463/444/175 464/445/175 496/478/175 495/477/175
f 464/445/176 465/446/176 497/479/176 496/478/176
f 465/446/177 466/447/177 498/480/177 497/479/177
f 466/447/178 467/448/178 499/481/178 498/480/178
f 467/448/179 468/449/179 500/482/179 499/481/179
f 468/449/180 469/450/180 501/483/180 500/482/180
f 469/450/181 470/451/181 502/484/181 501/483/181
f 470/451/182 471/452/182 503/485/182 502/484/182
f 471/452/183 472/453/183 504/486/183 503/485/183
f 472/453/184 473/454/184 505/487/184 504/486/184
f 473/454/185 474/455/185 506/488/185 505/487/185
f 474/455/186 475/456/186 507/489/186 506/488/186
f 475/456/187 476/457/187 508/490/187 507/489/187
f 476/457/188 477/458/188 509/491/188 508/490/188
f 477/458/189 478/459/189 510/492/189 509/491/189
f 478/459/190 479/460/190 511/493/190 510/492/190
f 479/460/191 480/461/191 512/494/191 511/493/191
f 480/461/192 450/462/192 482/495/192 512/494/192
f 482/464/193 481/463/193 513/496/193 514/497/193
f 481/463/194 483/465/194 515/498/194 513/496/194
f 483/465/195 484/466/195 516/499/195 515/498/195
f 484/466/196 485/467/196 517/500/196 516/499/196
f 485/467/197 486/468/197 518/501/197 517/500/197
f 486/468/198 487/469/198 519/502/198 518/501/198
f 487/469/199 488/470/199 520/503/199 519/502/199
f 488/470/200 489/471/200 521/504/200 520/503/200
f 489/471/201 490/472/201 522/505/201 521/504/201
f 490/472/202 491/473/202 523/506/202 522/505/202
f 491/473/203 492/474/203 524/507/203 523/506/203
f 492/474/204 493/475/204 525/508/204 524/507/204
f 493/475/205 494/476/205 526/509/205 525/508/205
f 494/476/206 495/477/206 527/510/206 526/509/206
f 495/477/207 496/478/207 528/511/207 527/510/207
f 496/478/208 497/479/208 529/512/208 528/511/208
f 497/479/209 498/480/209 530/513/209 529/512/209
f 498/480/210 499/481/210 531/514/210 530/513/210
f 499/481/211 500/482/211 532/515/211 531/514/211
f 500/482/212 501/483/212 533/516/212 532/515/212
f 501/483/213 502/484/213 534/517/213 533/516/213
f 502/484/214 503/485/214 535/518/214 534/517/214
f 503/485/215 504/486/215 536/519/215 535/518/215
f 504/486/216 505/487/216 537/520/216 536/519/216
f 505/487/217 506/488/217 538/521/217 537/520/217
f 506/488/218 507/489/218 539/522/218 538/521/218
f 507/489/219 508/490/219 540/523/219 539/522/219
f 508/490/220 509/491/220 541/524/220 540/523/220
f 509/491/221 510/492/221 542/525/221 541/524/221
f 510/492/222 511/493/222 543/526/222 542/525/222
f 511/493/223 512/494/223 544/527/223 543/526/223
f 512/494/224 482/495/224 514/528/224 544/527/224
f 514/497/225 513/496/225 545/529/225 546/530/225
f 513/496/226 515/498/226 547/531/226 545/529/226
f 515/498/227 516/499/227 548/532/227 547/531/227
f 516/499/228 517/500/228 549/533/228 548/532/228
f 517/500/229 518/501/229 550/534/229 549/533/229
f 518/501/230 519/502/230 551/535/230 550/534/230
f 519/502/231 520/503/231 552/536/231 551/535/231
f 520/503/232 521/504/232 553/537/232 552/536/232
f 521/504/233 522/505/233 554/538/233 553/537/233
f 522/505/234 523/506/234 555/539/234 554/538/234
f 523/506/235 524/507/235 556/540/235 555/539/235
f 524/507/236 525/508/236 557/541/236 556/540/236
f 525/508/237 526/509/237 558/542/237 557/541/237
f 526/509/238 527/510/238 559/543/238 558/542/238
f 527/510/239 528/511/239 560/544/239 559/543/239
f 528/511/240 529/512/240 561/545/240 560/544/240
f 529/512/241 530/513/241 562/546/241 561/545/241
f 530/513/242 531/514/242 563/547/242 562/546/242
f 531/514/243 532/515/243 564/548/243 563/547/243
f 532/515/244 533/516/244 565/549/244 564/548/244
f 533/516/245 534/517/245 566/550/245 565/549/245
f 534/517/246 535/518/246 567/551/246 566/550/246
f 535/518/247 536/519/247 568/552/247 567/551/247
f 536/519/248 537/520/248 569/553/248 568/552/248
f 537/520/249 538/521/249 570/554/249 569/553/249
f 538/521/250 539/522/250 571/555/250 570/554/250
f 539/522/251 540/523/251 572/556/251 571/555/251
f 540/523/252 541/524/252 573/557/252 572/556/252
f 541/524/253 542/525/253 574/558/253 573/557/253
f 542/525/254 543/526/254 575/559/254 574/558/254
f 543/526/255 544/527/255 576/560/255 575/559/255
f 544/527/256 514/528/256 546/561/256 576/560/256
