# generated by tools/gen_cable_models.py - do not edit by hand
mtllib dc_string_cable_climb.mtl
v 0.434375 0.081250 0.337500
v 0.449922 0.078158 0.337500
v 0.449922 0.078112 0.223717
v 0.434375 0.081201 0.223868
v 0.463101 0.069351 0.337500
v 0.463101 0.069317 0.223285
v 0.471908 0.056172 0.337500
v 0.471908 0.056153 0.222638
v 0.475000 0.040625 0.337500
v 0.475000 0.040625 0.221875
v 0.471908 0.025078 0.337500
v 0.471908 0.025097 0.221112
v 0.463101 0.011899 0.337500
v 0.463101 0.011933 0.220465
v 0.449922 0.003092 0.337500
v 0.449922 0.003138 0.220033
v 0.434375 0.000000 0.337500
v 0.434375 0.000049 0.219882
v 0.418828 0.003092 0.337500
v 0.418828 0.003138 0.220033
v 0.405649 0.011899 0.337500
v 0.405649 0.011933 0.220465
v 0.396842 0.025078 0.337500
v 0.396842 0.025097 0.221112
v 0.393750 0.040625 0.337500
v 0.393750 0.040625 0.221875
v 0.396842 0.056172 0.337500
v 0.396842 0.056153 0.222638
v 0.405649 0.069351 0.337500
v 0.405649 0.069317 0.223285
v 0.418828 0.078158 0.337500
v 0.418828 0.078112 0.223717
v 0.449922 0.080319 0.199934
v 0.434375 0.083352 0.200537
v 0.463101 0.071681 0.198216
v 0.471908 0.058755 0.195644
v 0.475000 0.043507 0.192611
v 0.471908 0.028259 0.189578
v 0.463101 0.015333 0.187007
v 0.449922 0.006696 0.185289
v 0.434375 0.003663 0.184686
v 0.418828 0.006696 0.185289
v 0.405649 0.015333 0.187007
v 0.396842 0.028259 0.189578
v 0.393750 0.043507 0.192611
v 0.396842 0.058755 0.195644
v 0.405649 0.071681 0.198216
v 0.418828 0.080319 0.199934
v 0.449922 0.086719 0.178836
v 0.434375 0.089576 0.180019
v 0.463101 0.078583 0.175466
v 0.471908 0.066406 0.170422
v 0.475000 0.052043 0.164472
v 0.471908 0.037680 0.158523
v 0.463101 0.025504 0.153479
v 0.449922 0.017367 0.150109
v 0.434375 0.014510 0.148926
v 0.418828 0.017367 0.150109
v 0.405649 0.025504 0.153479
v 0.396842 0.037680 0.158523
v 0.393750 0.052043 0.164472
v 0.396842 0.066406 0.170422
v 0.405649 0.078583 0.175466
v 0.418828 0.086719 0.178836
v 0.449922 0.097112 0.159391
v 0.434375 0.099683 0.161110
v 0.463101 0.089790 0.154499
v 0.471908 0.078831 0.147177
v 0.475000 0.065905 0.138539
v 0.471908 0.052978 0.129902
v 0.463101 0.042020 0.122580
v 0.449922 0.034697 0.117687
v 0.434375 0.032126 0.115969
v 0.418828 0.034697 0.117687
v 0.405649 0.042020 0.122580
v 0.396842 0.052978 0.129902
v 0.393750 0.065905 0.138539
v 0.396842 0.078831 0.147177
v 0.405649 0.089790 0.154499
v 0.418828 0.097112 0.159391
v 0.449922 0.111099 0.142349
v 0.434375 0.113285 0.144535
v 0.463101 0.104871 0.136121
v 0.471908 0.095552 0.126802
v 0.475000 0.084559 0.115809
v 0.471908 0.073566 0.104816
v 0.463101 0.064246 0.095496
v 0.449922 0.058019 0.089269
v 0.434375 0.055833 0.087083
v 0.418828 0.058019 0.089269
v 0.405649 0.064246 0.095496
v 0.396842 0.073566 0.104816
v 0.393750 0.084559 0.115809
v 0.396842 0.095552 0.126802
v 0.405649 0.104871 0.136121
v 0.418828 0.111099 0.142349
v 0.449922 0.128141 0.128362
v 0.434375 0.129860 0.130933
v 0.463101 0.123249 0.121040
v 0.471908 0.115927 0.110081
v 0.475000 0.107289 0.097155
v 0.471908 0.098652 0.084228
v 0.463101 0.091330 0.073270
v 0.449922 0.086437 0.065947
v 0.434375 0.084719 0.063376
v 0.418828 0.086437 0.065947
v 0.405649 0.091330 0.073270
v 0.396842 0.098652 0.084228
v 0.393750 0.107289 0.097155
v 0.396842 0.115927 0.110081
v 0.405649 0.123249 0.121040
v 0.418828 0.128141 0.128362
v 0.449922 0.147586 0.117969
v 0.434375 0.148769 0.120826
v 0.463101 0.144216 0.109833
v 0.471908 0.139172 0.097656
v 0.475000 0.133222 0.083293
v 0.471908 0.127273 0.068930
v 0.463101 0.122229 0.056754
v 0.449922 0.118859 0.048617
v 0.434375 0.117676 0.045760
v 0.418828 0.118859 0.048617
v 0.405649 0.122229 0.056754
v 0.396842 0.127273 0.068930
v 0.393750 0.133222 0.083293
v 0.396842 0.139172 0.097656
v 0.405649 0.144216 0.109833
v 0.418828 0.147586 0.117969
v 0.449922 0.168684 0.111569
v 0.434375 0.169287 0.114602
v 0.463101 0.166966 0.102931
v 0.471908 0.164394 0.090005
v 0.475000 0.161361 0.074757
v 0.471908 0.158328 0.059509
v 0.463101 0.155757 0.046583
v 0.449922 0.154039 0.037946
v 0.434375 0.153436 0.034913
v 0.418828 0.154039 0.037946
v 0.405649 0.155757 0.046583
v 0.396842 0.158328 0.059509
v 0.393750 0.161361 0.074757
v 0.396842 0.164394 0.090005
v 0.405649 0.166966 0.102931
v 0.418828 0.168684 0.111569
v 0.449922 0.192467 0.109362
v 0.434375 0.192618 0.112451
v 0.463101 0.192035 0.100567
v 0.471908 0.191388 0.087403
v 0.475000 0.190625 0.071875
v 0.471908 0.189862 0.056347
v 0.463101 0.189215 0.043183
v 0.449922 0.188783 0.034388
v 0.434375 0.188632 0.031299
v 0.418828 0.188783 0.034388
v 0.405649 0.189215 0.043183
v 0.396842 0.189862 0.056347
v 0.393750 0.190625 0.071875
v 0.396842 0.191388 0.087403
v 0.405649 0.192035 0.100567
v 0.418828 0.192467 0.109362
v 0.449922 1.000000 0.109408
v 0.434375 1.000000 0.112500
v 0.463101 1.000000 0.100601
v 0.471908 1.000000 0.087422
v 0.475000 1.000000 0.071875
v 0.471908 1.000000 0.056328
v 0.463101 1.000000 0.043149
v 0.449922 1.000000 0.034342
v 0.434375 1.000000 0.031250
v 0.418828 1.000000 0.034342
v 0.405649 1.000000 0.043149
v 0.396842 1.000000 0.056328
v 0.393750 1.000000 0.071875
v 0.396842 1.000000 0.087422
v 0.405649 1.000000 0.100601
v 0.418828 1.000000 0.109408
v 0.565625 0.081250 0.337500
v 0.581172 0.078158 0.337500
v 0.581172 0.078112 0.223717
v 0.565625 0.081201 0.223868
v 0.594351 0.069351 0.337500
v 0.594351 0.069317 0.223285
v 0.603158 0.056172 0.337500
v 0.603158 0.056153 0.222638
v 0.606250 0.040625 0.337500
v 0.606250 0.040625 0.221875
v 0.603158 0.025078 0.337500
v 0.603158 0.025097 0.221112
v 0.594351 0.011899 0.337500
v 0.594351 0.011933 0.220465
v 0.581172 0.003092 0.337500
v 0.581172 0.003138 0.220033
v 0.565625 0.000000 0.337500
v 0.565625 0.000049 0.219882
v 0.550078 0.003092 0.337500
v 0.550078 0.003138 0.220033
v 0.536899 0.011899 0.337500
v 0.536899 0.011933 0.220465
v 0.528092 0.025078 0.337500
v 0.528092 0.025097 0.221112
v 0.525000 0.040625 0.337500
v 0.525000 0.040625 0.221875
v 0.528092 0.056172 0.337500
v 0.528092 0.056153 0.222638
v 0.536899 0.069351 0.337500
v 0.536899 0.069317 0.223285
v 0.550078 0.078158 0.337500
v 0.550078 0.078112 0.223717
v 0.581172 0.080319 0.199934
v 0.565625 0.083352 0.200537
v 0.594351 0.071681 0.198216
v 0.603158 0.058755 0.195644
v 0.606250 0.043507 0.192611
v 0.603158 0.028259 0.189578
v 0.594351 0.015333 0.187007
v 0.581172 0.006696 0.185289
v 0.565625 0.003663 0.184686
v 0.550078 0.006696 0.185289
v 0.536899 0.015333 0.187007
v 0.528092 0.028259 0.189578
v 0.525000 0.043507 0.192611
v 0.528092 0.058755 0.195644
v 0.536899 0.071681 0.198216
v 0.550078 0.080319 0.199934
v 0.581172 0.086719 0.178836
v 0.565625 0.089576 0.180019
v 0.594351 0.078583 0.175466
v 0.603158 0.066406 0.170422
v 0.606250 0.052043 0.164472
v 0.603158 0.037680 0.158523
v 0.594351 0.025504 0.153479
v 0.581172 0.017367 0.150109
v 0.565625 0.014510 0.148926
v 0.550078 0.017367 0.150109
v 0.536899 0.025504 0.153479
v 0.528092 0.037680 0.158523
v 0.525000 0.052043 0.164472
v 0.528092 0.066406 0.170422
v 0.536899 0.078583 0.175466
v 0.550078 0.086719 0.178836
v 0.581172 0.097112 0.159391
v 0.565625 0.099683 0.161110
v 0.594351 0.089790 0.154499
v 0.603158 0.078831 0.147177
v 0.606250 0.065905 0.138539
v 0.603158 0.052978 0.129902
v 0.594351 0.042020 0.122580
v 0.581172 0.034697 0.117687
v 0.565625 0.032126 0.115969
v 0.550078 0.034697 0.117687
v 0.536899 0.042020 0.122580
v 0.528092 0.052978 0.129902
v 0.525000 0.065905 0.138539
v 0.528092 0.078831 0.147177
v 0.536899 0.089790 0.154499
v 0.550078 0.097112 0.159391
v 0.581172 0.111099 0.142349
v 0.565625 0.113285 0.144535
v 0.594351 0.104871 0.136121
v 0.603158 0.095552 0.126802
v 0.606250 0.084559 0.115809
v 0.603158 0.073566 0.104816
v 0.594351 0.064246 0.095496
v 0.581172 0.058019 0.089269
v 0.565625 0.055833 0.087083
v 0.550078 0.058019 0.089269
v 0.536899 0.064246 0.095496
v 0.528092 0.073566 0.104816
v 0.525000 0.084559 0.115809
v 0.528092 0.095552 0.126802
v 0.536899 0.104871 0.136121
v 0.550078 0.111099 0.142349
v 0.581172 0.128141 0.128362
v 0.565625 0.129860 0.130933
v 0.594351 0.123249 0.121040
v 0.603158 0.115927 0.110081
v 0.606250 0.107289 0.097155
v 0.603158 0.098652 0.084228
v 0.594351 0.091330 0.073270
v 0.581172 0.086437 0.065947
v 0.565625 0.084719 0.063376
v 0.550078 0.086437 0.065947
v 0.536899 0.091330 0.073270
v 0.528092 0.098652 0.084228
v 0.525000 0.107289 0.097155
v 0.528092 0.115927 0.110081
v 0.536899 0.123249 0.121040
v 0.550078 0.128141 0.128362
v 0.581172 0.147586 0.117969
v 0.565625 0.148769 0.120826
v 0.594351 0.144216 0.109833
v 0.603158 0.139172 0.097656
v 0.606250 0.133222 0.083293
v 0.603158 0.127273 0.068930
v 0.594351 0.122229 0.056754
v 0.581172 0.118859 0.048617
v 0.565625 0.117676 0.045760
v 0.550078 0.118859 0.048617
v 0.536899 0.122229 0.056754
v 0.528092 0.127273 0.068930
v 0.525000 0.133222 0.083293
v 0.528092 0.139172 0.097656
v 0.536899 0.144216 0.109833
v 0.550078 0.147586 0.117969
v 0.581172 0.168684 0.111569
v 0.565625 0.169287 0.114602
v 0.594351 0.166966 0.102931
v 0.603158 0.164394 0.090005
v 0.606250 0.161361 0.074757
v 0.603158 0.158328 0.059509
v 0.594351 0.155757 0.046583
v 0.581172 0.154039 0.037946
v 0.565625 0.153436 0.034913
v 0.550078 0.154039 0.037946
v 0.536899 0.155757 0.046583
v 0.528092 0.158328 0.059509
v 0.525000 0.161361 0.074757
v 0.528092 0.164394 0.090005
v 0.536899 0.166966 0.102931
v 0.550078 0.168684 0.111569
v 0.581172 0.192467 0.109362
v 0.565625 0.192618 0.112451
v 0.594351 0.192035 0.100567
v 0.603158 0.191388 0.087403
v 0.606250 0.190625 0.071875
v 0.603158 0.189862 0.056347
v 0.594351 0.189215 0.043183
v 0.581172 0.188783 0.034388
v 0.565625 0.188632 0.031299
v 0.550078 0.188783 0.034388
v 0.536899 0.189215 0.043183
v 0.528092 0.189862 0.056347
v 0.525000 0.190625 0.071875
v 0.528092 0.191388 0.087403
v 0.536899 0.192035 0.100567
v 0.550078 0.192467 0.109362
v 0.581172 1.000000 0.109408
v 0.565625 1.000000 0.112500
v 0.594351 1.000000 0.100601
v 0.603158 1.000000 0.087422
v 0.606250 1.000000 0.071875
v 0.603158 1.000000 0.056328
v 0.594351 1.000000 0.043149
v 0.581172 1.000000 0.034342
v 0.565625 1.000000 0.031250
v 0.550078 1.000000 0.034342
v 0.536899 1.000000 0.043149
v 0.528092 1.000000 0.056328
v 0.525000 1.000000 0.071875
v 0.528092 1.000000 0.087422
v 0.536899 1.000000 0.100601
v 0.550078 1.000000 0.109408
v 0.371875 0.562500 0.000000
v 0.628125 0.562500 0.000000
v 0.628125 0.562500 0.031250
v 0.371875 0.562500 0.031250
v 0.371875 0.650000 0.031250
v 0.628125 0.650000 0.031250
v 0.628125 0.650000 0.000000
v 0.371875 0.650000 0.000000
v 0.371875 0.562500 0.112500
v 0.628125 0.562500 0.112500
v 0.628125 0.562500 0.137500
v 0.371875 0.562500 0.137500
v 0.371875 0.650000 0.137500
v 0.628125 0.650000 0.137500
v 0.628125 0.650000 0.112500
v 0.371875 0.650000 0.112500
v 0.393750 0.562500 0.031250
v 0.393750 0.562500 0.112500
v 0.393750 0.650000 0.112500
v 0.393750 0.650000 0.031250
v 0.606250 0.562500 0.031250
v 0.606250 0.562500 0.112500
v 0.606250 0.650000 0.112500
v 0.606250 0.650000 0.031250
v 0.500000 0.627500 0.137500
v 0.491868 0.625882 0.137500
v 0.491868 0.625882 0.156250
v 0.500000 0.627500 0.156250
v 0.484974 0.621276 0.137500
v 0.484974 0.621276 0.156250
v 0.480368 0.614382 0.137500
v 0.480368 0.614382 0.156250
v 0.478750 0.606250 0.137500
v 0.478750 0.606250 0.156250
v 0.480368 0.598118 0.137500
v 0.480368 0.598118 0.156250
v 0.484974 0.591224 0.137500
v 0.484974 0.591224 0.156250
v 0.491868 0.586618 0.137500
v 0.491868 0.586618 0.156250
v 0.500000 0.585000 0.137500
v 0.500000 0.585000 0.156250
v 0.508132 0.586618 0.137500
v 0.508132 0.586618 0.156250
v 0.515026 0.591224 0.137500
v 0.515026 0.591224 0.156250
v 0.519632 0.598118 0.137500
v 0.519632 0.598118 0.156250
v 0.521250 0.606250 0.137500
v 0.521250 0.606250 0.156250
v 0.519632 0.614382 0.137500
v 0.519632 0.614382 0.156250
v 0.515026 0.621276 0.137500
v 0.515026 0.621276 0.156250
v 0.508132 0.625882 0.137500
v 0.508132 0.625882 0.156250
vn 0.1913 0.9619 -0.0000
vn 0.5449 0.8155 -0.0000
vn 0.8155 0.5449 -0.0000
vn 0.9619 0.1913 -0.0000
vn 0.9619 -0.1913 0.0000
vn 0.8155 -0.5449 0.0000
vn 0.5449 -0.8155 0.0000
vn 0.1913 -0.9619 0.0000
vn -0.1913 -0.9619 0.0000
vn -0.5449 -0.8155 0.0000
vn -0.8155 -0.5449 0.0000
vn -0.9619 -0.1913 0.0000
vn -0.9619 0.1913 -0.0000
vn -0.8155 0.5449 -0.0000
vn -0.5449 0.8155 -0.0000
vn -0.1913 0.9619 -0.0000
vn 0.1913 0.9608 0.0472
vn 0.5449 0.8145 0.0400
vn 0.8155 0.5442 0.0267
vn 0.9619 0.1911 0.0094
vn 0.9619 -0.1911 -0.0094
vn 0.8155 -0.5442 -0.0267
vn 0.5449 -0.8145 -0.0400
vn 0.1913 -0.9608 -0.0472
vn -0.1913 -0.9608 -0.0472
vn -0.5449 -0.8145 -0.0400
vn -0.8155 -0.5442 -0.0267
vn -0.9619 -0.1911 -0.0094
vn -0.9619 0.1911 0.0094
vn -0.8155 0.5442 0.0267
vn -0.5449 0.8145 0.0400
vn -0.1913 0.9608 0.0472
vn 0.1913 0.9435 0.1877
vn 0.5449 0.7998 0.1591
vn 0.8155 0.5344 0.1063
vn 0.9619 0.1877 0.0373
vn 0.9619 -0.1877 -0.0373
vn 0.8155 -0.5344 -0.1063
vn 0.5449 -0.7998 -0.1591
vn 0.1913 -0.9435 -0.1877
vn -0.1913 -0.9435 -0.1877
vn -0.5449 -0.7998 -0.1591
vn -0.8155 -0.5344 -0.1063
vn -0.9619 -0.1877 -0.0373
vn -0.9619 0.1877 0.0373
vn -0.8155 0.5344 0.1063
vn -0.5449 0.7998 0.1591
vn -0.1913 0.9435 0.1877
vn 0.1913 0.8887 0.3681
vn 0.5449 0.7534 0.3121
vn 0.8155 0.5034 0.2085
vn 0.9619 0.1768 0.0732
vn 0.9619 -0.1768 -0.0732
vn 0.8155 -0.5034 -0.2085
vn 0.5449 -0.7534 -0.3121
vn 0.1913 -0.8887 -0.3681
vn -0.1913 -0.8887 -0.3681
vn -0.5449 -0.7534 -0.3121
vn -0.8155 -0.5034 -0.2085
vn -0.9619 -0.1768 -0.0732
vn -0.9619 0.1768 0.0732
vn -0.8155 0.5034 0.2085
vn -0.5449 0.7534 0.3121
vn -0.1913 0.8887 0.3681
vn 0.1913 0.7998 0.5344
vn 0.5449 0.6781 0.4531
vn 0.8155 0.4531 0.3027
vn 0.9619 0.1591 0.1063
vn 0.9619 -0.1591 -0.1063
vn 0.8155 -0.4531 -0.3027
vn 0.5449 -0.6781 -0.4531
vn 0.1913 -0.7998 -0.5344
vn -0.1913 -0.7998 -0.5344
vn -0.5449 -0.6781 -0.4531
vn -0.8155 -0.4531 -0.3027
vn -0.9619 -0.1591 -0.1063
vn -0.9619 0.1591 0.1063
vn -0.8155 0.4531 0.3027
vn -0.5449 0.6781 0.4531
vn -0.1913 0.7998 0.5344
vn 0.1913 0.6802 0.6802
vn 0.5449 0.5766 0.5766
vn 0.8155 0.3853 0.3853
vn 0.9619 0.1353 0.1353
vn 0.9619 -0.1353 -0.1353
vn 0.8155 -0.3853 -0.3853
vn 0.5449 -0.5766 -0.5766
vn 0.1913 -0.6802 -0.6802
vn -0.1913 -0.6802 -0.6802
vn -0.5449 -0.5766 -0.5766
vn -0.8155 -0.3853 -0.3853
vn -0.9619 -0.1353 -0.1353
vn -0.9619 0.1353 0.1353
vn -0.8155 0.3853 0.3853
vn -0.5449 0.5766 0.5766
vn -0.1913 0.6802 0.6802
vn 0.1913 0.5344 0.7998
vn 0.5449 0.4531 0.6781
vn 0.8155 0.3027 0.4531
vn 0.9619 0.1063 0.1591
vn 0.9619 -0.1063 -0.1591
vn 0.8155 -0.3027 -0.4531
vn 0.5449 -0.4531 -0.6781
vn 0.1913 -0.5344 -0.7998
vn -0.1913 -0.5344 -0.7998
vn -0.5449 -0.4531 -0.6781
vn -0.8155 -0.3027 -0.4531
vn -0.9619 -0.1063 -0.1591
vn -0.9619 0.1063 0.1591
vn -0.8155 0.3027 0.4531
vn -0.5449 0.4531 0.6781
vn -0.1913 0.5344 0.7998
vn 0.1913 0.3681 0.8887
vn 0.5449 0.3121 0.7534
vn 0.8155 0.2085 0.5034
vn 0.9619 0.0732 0.1768
vn 0.9619 -0.0732 -0.1768
vn 0.8155 -0.2085 -0.5034
vn 0.5449 -0.3121 -0.7534
vn 0.1913 -0.3681 -0.8887
vn -0.1913 -0.3681 -0.8887
vn -0.5449 -0.3121 -0.7534
vn -0.8155 -0.2085 -0.5034
vn -0.9619 -0.0732 -0.1768
vn -0.9619 0.0732 0.1768
vn -0.8155 0.2085 0.5034
vn -0.5449 0.3121 0.7534
vn -0.1913 0.3681 0.8887
vn 0.1913 0.1877 0.9435
vn 0.5449 0.1591 0.7998
vn 0.8155 0.1063 0.5344
vn 0.9619 0.0373 0.1877
vn 0.9619 -0.0373 -0.1877
vn 0.8155 -0.1063 -0.5344
vn 0.5449 -0.1591 -0.7998
vn 0.1913 -0.1877 -0.9435
vn -0.1913 -0.1877 -0.9435
vn -0.5449 -0.1591 -0.7998
vn -0.8155 -0.1063 -0.5344
vn -0.9619 -0.0373 -0.1877
vn -0.9619 0.0373 0.1877
vn -0.8155 0.1063 0.5344
vn -0.5449 0.1591 0.7998
vn -0.1913 0.1877 0.9435
vn 0.1913 0.0472 0.9608
vn 0.5449 0.0400 0.8145
vn 0.8155 0.0267 0.5442
vn 0.9619 0.0094 0.1911
vn 0.9619 -0.0094 -0.1911
vn 0.8155 -0.0267 -0.5442
vn 0.5449 -0.0400 -0.8145
vn 0.1913 -0.0472 -0.9608
vn -0.1913 -0.0472 -0.9608
vn -0.5449 -0.0400 -0.8145
vn -0.8155 -0.0267 -0.5442
vn -0.9619 -0.0094 -0.1911
vn -0.9619 0.0094 0.1911
vn -0.8155 0.0267 0.5442
vn -0.5449 0.0400 0.8145
vn -0.1913 0.0472 0.9608
vn 0.0000 -1.0000 0.0000
vn 0.0000 1.0000 0.0000
vn 0.0000 0.0000 -1.0000
vn 0.0000 0.0000 1.0000
vn -1.0000 0.0000 0.0000
vn 1.0000 0.0000 0.0000
vn -0.1951 0.9808 0.0000
vn -0.5556 0.8315 0.0000
vn -0.8315 0.5556 0.0000
vn -0.9808 0.1951 0.0000
vn -0.9808 -0.1951 0.0000
vn -0.8315 -0.5556 0.0000
vn -0.5556 -0.8315 0.0000
vn -0.1951 -0.9808 0.0000
vn 0.1951 -0.9808 0.0000
vn 0.5556 -0.8315 0.0000
vn 0.8315 -0.5556 0.0000
vn 0.9808 -0.1951 0.0000
vn 0.9808 0.1951 0.0000
vn 0.8315 0.5556 0.0000
vn 0.5556 0.8315 0.0000
vn 0.1951 0.9808 0.0000
vt 0.000000 0.000000
vt 0.062500 0.000000
vt 0.062500 0.099656
vt 0.000000 0.099656
vt 0.125000 0.000000
vt 0.125000 0.099656
vt 0.187500 0.000000
vt 0.187500 0.099656
vt 0.250000 0.000000
vt 0.250000 0.099656
vt 0.312500 0.000000
vt 0.312500 0.099656
vt 0.375000 0.000000
vt 0.375000 0.099656
vt 0.437500 0.000000
vt 0.437500 0.099656
vt 0.500000 0.000000
vt 0.500000 0.099656
vt 0.562500 0.000000
vt 0.562500 0.099656
vt 0.625000 0.000000
vt 0.625000 0.099656
vt 0.687500 0.000000
vt 0.687500 0.099656
vt 0.750000 0.000000
vt 0.750000 0.099656
vt 0.812500 0.000000
vt 0.812500 0.099656
vt 0.875000 0.000000
vt 0.875000 0.099656
vt 0.937500 0.000000
vt 0.937500 0.099656
vt 1.000000 0.000000
vt 1.000000 0.099656
vt 0.062500 0.125000
vt 0.000000 0.125000
vt 0.125000 0.125000
vt 0.187500 0.125000
vt 0.250000 0.125000
vt 0.312500 0.125000
vt 0.375000 0.125000
vt 0.437500 0.125000
vt 0.500000 0.125000
vt 0.562500 0.125000
vt 0.625000 0.125000
vt 0.687500 0.125000
vt 0.750000 0.125000
vt 0.812500 0.125000
vt 0.875000 0.125000
vt 0.937500 0.125000
vt 1.000000 0.125000
vt 0.062500 0.150344
vt 0.000000 0.150344
vt 0.125000 0.150344
vt 0.187500 0.150344
vt 0.250000 0.150344
vt 0.312500 0.150344
vt 0.375000 0.150344
vt 0.437500 0.150344
vt 0.500000 0.150344
vt 0.562500 0.150344
vt 0.625000 0.150344
vt 0.687500 0.150344
vt 0.750000 0.150344
vt 0.812500 0.150344
vt 0.875000 0.150344
vt 0.937500 0.150344
vt 1.000000 0.150344
vt 0.062500 0.175688
vt 0.000000 0.175688
vt 0.125000 0.175688
vt 0.187500 0.175688
vt 0.250000 0.175688
vt 0.312500 0.175688
vt 0.375000 0.175688
vt 0.437500 0.175688
vt 0.500000 0.175688
vt 0.562500 0.175688
vt 0.625000 0.175688
vt 0.687500 0.175688
vt 0.750000 0.175688
vt 0.812500 0.175688
vt 0.875000 0.175688
vt 0.937500 0.175688
vt 1.000000 0.175688
vt 0.062500 0.201032
vt 0.000000 0.201032
vt 0.125000 0.201032
vt 0.187500 0.201032
vt 0.250000 0.201032
vt 0.312500 0.201032
vt 0.375000 0.201032
vt 0.437500 0.201032
vt 0.500000 0.201032
vt 0.562500 0.201032
vt 0.625000 0.201032
vt 0.687500 0.201032
vt 0.750000 0.201032
vt 0.812500 0.201032
vt 0.875000 0.201032
vt 0.937500 0.201032
vt 1.000000 0.201032
vt 0.062500 0.226376
vt 0.000000 0.226376
vt 0.125000 0.226376
vt 0.187500 0.226376
vt 0.250000 0.226376
vt 0.312500 0.226376
vt 0.375000 0.226376
vt 0.437500 0.226376
vt 0.500000 0.226376
vt 0.562500 0.226376
vt 0.625000 0.226376
vt 0.687500 0.226376
vt 0.750000 0.226376
vt 0.812500 0.226376
vt 0.875000 0.226376
vt 0.937500 0.226376
vt 1.000000 0.226376
vt 0.062500 0.251720
vt 0.000000 0.251720
vt 0.125000 0.251720
vt 0.187500 0.251720
vt 0.250000 0.251720
vt 0.312500 0.251720
vt 0.375000 0.251720
vt 0.437500 0.251720
vt 0.500000 0.251720
vt 0.562500 0.251720
vt 0.625000 0.251720
vt 0.687500 0.251720
vt 0.750000 0.251720
vt 0.812500 0.251720
vt 0.875000 0.251720
vt 0.937500 0.251720
vt 1.000000 0.251720
vt 0.062500 0.277064
vt 0.000000 0.277064
vt 0.125000 0.277064
vt 0.187500 0.277064
vt 0.250000 0.277064
vt 0.312500 0.277064
vt 0.375000 0.277064
vt 0.437500 0.277064
vt 0.500000 0.277064
vt 0.562500 0.277064
vt 0.625000 0.277064
vt 0.687500 0.277064
vt 0.750000 0.277064
vt 0.812500 0.277064
vt 0.875000 0.277064
vt 0.937500 0.277064
vt 1.000000 0.277064
vt 0.062500 0.302408
vt 0.000000 0.302408
vt 0.125000 0.302408
vt 0.187500 0.302408
vt 0.250000 0.302408
vt 0.312500 0.302408
vt 0.375000 0.302408
vt 0.437500 0.302408
vt 0.500000 0.302408
vt 0.562500 0.302408
vt 0.625000 0.302408
vt 0.687500 0.302408
vt 0.750000 0.302408
vt 0.812500 0.302408
vt 0.875000 0.302408
vt 0.937500 0.302408
vt 1.000000 0.302408
vt 0.062500 1.000000
vt 0.000000 1.000000
vt 0.125000 1.000000
vt 0.187500 1.000000
vt 0.250000 1.000000
vt 0.312500 1.000000
vt 0.375000 1.000000
vt 0.437500 1.000000
vt 0.500000 1.000000
vt 0.562500 1.000000
vt 0.625000 1.000000
vt 0.687500 1.000000
vt 0.750000 1.000000
vt 0.812500 1.000000
vt 0.875000 1.000000
vt 0.937500 1.000000
vt 1.000000 1.000000
vt 0.000000 0.980000
vt 1.000000 0.980000
vt 1.000000 0.520000
vt 0.000000 0.520000
vt 0.000000 0.480000
vt 1.000000 0.480000
vt 1.000000 0.020000
vt 0.000000 0.020000
vt 0.062500 0.020000
vt 0.062500 0.480000
vt 0.125000 0.020000
vt 0.125000 0.480000
vt 0.187500 0.020000
vt 0.187500 0.480000
vt 0.250000 0.020000
vt 0.250000 0.480000
vt 0.312500 0.020000
vt 0.312500 0.480000
vt 0.375000 0.020000
vt 0.375000 0.480000
vt 0.437500 0.020000
vt 0.437500 0.480000
vt 0.500000 0.020000
vt 0.500000 0.480000
vt 0.562500 0.020000
vt 0.562500 0.480000
vt 0.625000 0.020000
vt 0.625000 0.480000
vt 0.687500 0.020000
vt 0.687500 0.480000
vt 0.750000 0.020000
vt 0.750000 0.480000
vt 0.812500 0.020000
vt 0.812500 0.480000
vt 0.875000 0.020000
vt 0.875000 0.480000
vt 0.937500 0.020000
vt 0.937500 0.480000
vt 0.500000 0.365000
vt 0.404329 0.356246
vt 0.323223 0.331317
vt 0.269030 0.294009
vt 0.250000 0.250000
vt 0.269030 0.205991
vt 0.323223 0.168683
vt 0.404329 0.143754
vt 0.500000 0.135000
vt 0.595671 0.143754
vt 0.676777 0.168683
vt 0.730970 0.205991
vt 0.750000 0.250000
vt 0.730970 0.294009
vt 0.676777 0.331317
vt 0.595671 0.356246
o cable
usemtl core
f 1/1/1 2/2/1 3/3/1 4/4/1
f 2/2/2 5/5/2 6/6/2 3/3/2
f 5/5/3 7/7/3 8/8/3 6/6/3
f 7/7/4 9/9/4 10/10/4 8/8/4
f 9/9/5 11/11/5 12/12/5 10/10/5
f 11/11/6 13/13/6 14/14/6 12/12/6
f 13/13/7 15/15/7 16/16/7 14/14/7
f 15/15/8 17/17/8 18/18/8 16/16/8
f 17/17/9 19/19/9 20/20/9 18/18/9
f 19/19/10 21/21/10 22/22/10 20/20/10
f 21/21/11 23/23/11 24/24/11 22/22/11
f 23/23/12 25/25/12 26/26/12 24/24/12
f 25/25/13 27/27/13 28/28/13 26/26/13
f 27/27/14 29/29/14 30/30/14 28/28/14
f 29/29/15 31/31/15 32/32/15 30/30/15
f 31/31/16 1/33/16 4/34/16 32/32/16
f 4/4/17 3/3/17 33/35/17 34/36/17
f 3/3/18 6/6/18 35/37/18 33/35/18
f 6/6/19 8/8/19 36/38/19 35/37/19
f 8/8/20 10/10/20 37/39/20 36/38/20
f 10/10/21 12/12/21 38/40/21 37/39/21
f 12/12/22 14/14/22 39/41/22 38/40/22
f 14/14/23 16/16/23 40/42/23 39/41/23
f 16/16/24 18/18/24 41/43/24 40/42/24
f 18/18/25 20/20/25 42/44/25 41/43/25
f 20/20/26 22/22/26 43/45/26 42/44/26
f 22/22/27 24/24/27 44/46/27 43/45/27
f 24/24/28 26/26/28 45/47/28 44/46/28
f 26/26/29 28/28/29 46/48/29 45/47/29
f 28/28/30 30/30/30 47/49/30 46/48/30
f 30/30/31 32/32/31 48/50/31 47/49/31
f 32/32/32 4/34/32 34/51/32 48/50/32
f 34/36/33 33/35/33 49/52/33 50/53/33
f 33/35/34 35/37/34 51/54/34 49/52/34
f 35/37/35 36/38/35 52/55/35 51/54/35
f 36/38/36 37/39/36 53/56/36 52/55/36
f 37/39/37 38/40/37 54/57/37 53/56/37
f 38/40/38 39/41/38 55/58/38 54/57/38
f 39/41/39 40/42/39 56/59/39 55/58/39
f 40/42/40 41/43/40 57/60/40 56/59/40
f 41/43/41 42/44/41 58/61/41 57/60/41
f 42/44/42 43/45/42 59/62/42 58/61/42
f 43/45/43 44/46/43 60/63/43 59/62/43
f 44/46/44 45/47/44 61/64/44 60/63/44
f 45/47/45 46/48/45 62/65/45 61/64/45
f 46/48/46 47/49/46 63/66/46 62/65/46
f 47/49/47 48/50/47 64/67/47 63/66/47
f 48/50/48 34/51/48 50/68/48 64/67/48
f 50/53/49 49/52/49 65/69/49 66/70/49
f 49/52/50 51/54/50 67/71/50 65/69/50
f 51/54/51 52/55/51 68/72/51 67/71/51
f 52/55/52 53/56/52 69/73/52 68/72/52
f 53/56/53 54/57/53 70/74/53 69/73/53
f 54/57/54 55/58/54 71/75/54 70/74/54
f 55/58/55 56/59/55 72/76/55 71/75/55
f 56/59/56 57/60/56 73/77/56 72/76/56
f 57/60/57 58/61/57 74/78/57 73/77/57
f 58/61/58 59/62/58 75/79/58 74/78/58
f 59/62/59 60/63/59 76/80/59 75/79/59
f 60/63/60 61/64/60 77/81/60 76/80/60
f 61/64/61 62/65/61 78/82/61 77/81/61
f 62/65/62 63/66/62 79/83/62 78/82/62
f 63/66/63 64/67/63 80/84/63 79/83/63
f 64/67/64 50/68/64 66/85/64 80/84/64
f 66/70/65 65/69/65 81/86/65 82/87/65
f 65/69/66 67/71/66 83/88/66 81/86/66
f 67/71/67 68/72/67 84/89/67 83/88/67
f 68/72/68 69/73/68 85/90/68 84/89/68
f 69/73/69 70/74/69 86/91/69 85/90/69
f 70/74/70 71/75/70 87/92/70 86/91/70
f 71/75/71 72/76/71 88/93/71 87/92/71
f 72/76/72 73/77/72 89/94/72 88/93/72
f 73/77/73 74/78/73 90/95/73 89/94/73
f 74/78/74 75/79/74 91/96/74 90/95/74
f 75/79/75 76/80/75 92/97/75 91/96/75
f 76/80/76 77/81/76 93/98/76 92/97/76
f 77/81/77 78/82/77 94/99/77 93/98/77
f 78/82/78 79/83/78 95/100/78 94/99/78
f 79/83/79 80/84/79 96/101/79 95/100/79
f 80/84/80 66/85/80 82/102/80 96/101/80
f 82/87/81 81/86/81 97/103/81 98/104/81
f 81/86/82 83/88/82 99/105/82 97/103/82
f 83/88/83 84/89/83 100/106/83 99/105/83
f 84/89/84 85/90/84 101/107/84 100/106/84
f 85/90/85 86/91/85 102/108/85 101/107/85
f 86/91/86 87/92/86 103/109/86 102/108/86
f 87/92/87 88/93/87 104/110/87 103/109/87
f 88/93/88 89/94/88 105/111/88 104/110/88
f 89/94/89 90/95/89 106/112/89 105/111/89
f 90/95/90 91/96/90 107/113/90 106/112/90
f 91/96/91 92/97/91 108/114/91 107/113/91
f 92/97/92 93/98/92 109/115/92 108/114/92
f 93/98/93 94/99/93 110/116/93 109/115/93
f 94/99/94 95/100/94 111/117/94 110/116/94
f 95/100/95 96/101/95 112/118/95 111/117/95
f 96/101/96 82/102/96 98/119/96 112/118/96
f 98/104/97 97/103/97 113/120/97 114/121/97
f 97/103/98 99/105/98 115/122/98 113/120/98
f 99/105/99 100/106/99 116/123/99 115/122/99
f 100/106/100 101/107/100 117/124/100 116/123/100
f 101/107/101 102/108/101 118/125/101 117/124/101
f 102/108/102 103/109/102 119/126/102 118/125/102
f 103/109/103 104/110/103 120/127/103 119/126/103
f 104/110/104 105/111/104 121/128/104 120/127/104
f 105/111/105 106/112/105 122/129/105 121/128/105
f 106/112/106 107/113/106 123/130/106 122/129/106
f 107/113/107 108/114/107 124/131/107 123/130/107
f 108/114/108 109/115/108 125/132/108 124/131/108
f 109/115/109 110/116/109 126/133/109 125/132/109
f 110/116/110 111/117/110 127/134/110 126/133/110
f 111/117/111 112/118/111 128/135/111 127/134/111
f 112/118/112 98/119/112 114/136/112 128/135/112
f 114/121/113 113/120/113 129/137/113 130/138/113
f 113/120/114 115/122/114 131/139/114 129/137/114
f 115/122/115 116/123/115 132/140/115 131/139/115
f 116/123/116 117/124/116 133/141/116 132/140/116
f 117/124/117 118/125/117 134/142/117 133/141/117
f 118/125/118 119/126/118 135/143/118 134/142/118
f 119/126/119 120/127/119 136/144/119 135/143/119
f 120/127/120 121/128/120 137/145/120 136/144/120
f 121/128/121 122/129/121 138/146/121 137/145/121
f 122/129/122 123/130/122 139/147/122 138/146/122
f 123/130/123 124/131/123 140/148/123 139/147/123
f 124/131/124 125/132/124 141/149/124 140/148/124
f 125/132/125 126/133/125 142/150/125 141/149/125
f 126/133/126 127/134/126 143/151/126 142/150/126
f 127/134/127 128/135/127 144/152/127 143/151/127
f 128/135/128 114/136/128 130/153/128 144/152/128
f 130/138/129 129/137/129 145/154/129 146/155/129
f 129/137/130 131/139/130 147/156/130 145/154/130
f 131/139/131 132/140/131 148/157/131 147/156/131
f 132/140/132 133/141/132 149/158/132 148/157/132
f 133/141/133 134/142/133 150/159/133 149/158/133
f 134/142/134 135/143/134 151/160/134 150/159/134
f 135/143/135 136/144/135 152/161/135 151/160/135
f 136/144/136 137/145/136 153/162/136 152/161/136
f 137/145/137 138/146/137 154/163/137 153/162/137
f 138/146/138 139/147/138 155/164/138 154/163/138
f 139/147/139 140/148/139 156/165/139 155/164/139
f 140/148/140 141/149/140 157/166/140 156/165/140
f 141/149/141 142/150/141 158/167/141 157/166/141
f 142/150/142 143/151/142 159/168/142 158/167/142
f 143/151/143 144/152/143 160/169/143 159/168/143
f 144/152/144 130/153/144 146/170/144 160/169/144
f 146/155/145 145/154/145 161/171/145 162/172/145
f 145/154/146 147/156/146 163/173/146 161/171/146
f 147/156/147 148/157/147 164/174/147 163/173/147
f 148/157/148 149/158/148 165/175/148 164/174/148
f 149/158/149 150/159/149 166/176/149 165/175/149
f 150/159/150 151/160/150 167/177/150 166/176/150
f 151/160/151 152/161/151 168/178/151 167/177/151
f 152/161/152 153/162/152 169/179/152 168/178/152
f 153/162/153 154/163/153 170/180/153 169/179/153
f 154/163/154 155/164/154 171/181/154 170/180/154
f 155/164/155 156/165/155 172/182/155 171/181/155
f 156/165/156 157/166/156 173/183/156 172/182/156
f 157/166/157 158/167/157 174/184/157 173/183/157
f 158/167/158 159/168/158 175/185/158 174/184/158
f 159/168/159 160/169/159 176/186/159 175/185/159
f 160/169/160 146/170/160 162/187/160 176/186/160
f 177/1/1 178/2/1 179/3/1 180/4/1
f 178/2/2 181/5/2 182/6/2 179/3/2
f 181/5/3 183/7/3 184/8/3 182/6/3
f 183/7/4 185/9/4 186/10/4 184/8/4
f 185/9/5 187/11/5 188/12/5 186/10/5
f 187/11/6 189/13/6 190/14/6 188/12/6
f 189/13/7 191/15/7 192/16/7 190/14/7
f 191/15/8 193/17/8 194/18/8 192/16/8
f 193/17/9 195/19/9 196/20/9 194/18/9
f 195/19/10 197/21/10 198/22/10 196/20/10
f 197/21/11 199/23/11 200/24/11 198/22/11
f 199/23/12 201/25/12 202/26/12 200/24/12
f 201/25/13 203/27/13 204/28/13 202/26/13
f 203/27/14 205/29/14 206/30/14 204/28/14
f 205/29/15 207/31/15 208/32/15 206/30/15
f 207/31/16 177/33/16 180/34/16 208/32/16
f 180/4/17 179/3/17 209/35/17 210/36/17
f 179/3/18 182/6/18 211/37/18 209/35/18
f 182/6/19 184/8/19 212/38/19 211/37/19
f 184/8/20 186/10/20 213/39/20 212/38/20
f 186/10/21 188/12/21 214/40/21 213/39/21
f 188/12/22 190/14/22 215/41/22 214/40/22
f 190/14/23 192/16/23 216/42/23 215/41/23
f 192/16/24 194/18/24 217/43/24 216/42/24
f 194/18/25 196/20/25 218/44/25 217/43/25
f 196/20/26 198/22/26 219/45/26 218/44/26
f 198/22/27 200/24/27 220/46/27 219/45/27
f 200/24/28 202/26/28 221/47/28 220/46/28
f 202/26/29 204/28/29 222/48/29 221/47/29
f 204/28/30 206/30/30 223/49/30 222/48/30
f 206/30/31 208/32/31 224/50/31 223/49/31
f 208/32/32 180/34/32 210/51/32 224/50/32
f 210/36/33 209/35/33 225/52/33 226/53/33
f 209/35/34 211/37/34 227/54/34 225/52/34
f 211/37/35 212/38/35 228/55/35 227/54/35
f 212/38/36 213/39/36 229/56/36 228/55/36
f 213/39/37 214/40/37 230/57/37 229/56/37
f 214/40/38 215/41/38 231/58/38 230/57/38
f 215/41/39 216/42/39 232/59/39 231/58/39
f 216/42/40 217/43/40 233/60/40 232/59/40
f 217/43/41 218/44/41 234/61/41 233/60/41
f 218/44/42 219/45/42 235/62/42 234/61/42
f 219/45/43 220/46/43 236/63/43 235/62/43
f 220/46/44 221/47/44 237/64/44 236/63/44
f 221/47/45 222/48/45 238/65/45 237/64/45
f 222/48/46 223/49/46 239/66/46 238/65/46
f 223/49/47 224/50/47 240/67/47 239/66/47
f 224/50/48 210/51/48 226/68/48 240/67/48
f 226/53/49 225/52/49 241/69/49 242/70/49
f 225/52/50 227/54/50 243/71/50 241/69/50
f 227/54/51 228/55/51 244/72/51 243/71/51
f 228/55/52 229/56/52 245/73/52 244/72/52
f 229/56/53 230/57/53 246/74/53 245/73/53
f 230/57/54 231/58/54 247/75/54 246/74/54
f 231/58/55 232/59/55 248/76/55 247/75/55
f 232/59/56 233/60/56 249/77/56 248/76/56
f 233/60/57 234/61/57 250/78/57 249/77/57
f 234/61/58 235/62/58 251/79/58 250/78/58
f 235/62/59 236/63/59 252/80/59 251/79/59
f 236/63/60 237/64/60 253/81/60 252/80/60
f 237/64/61 238/65/61 254/82/61 253/81/61
f 238/65/62 239/66/62 255/83/62 254/82/62
f 239/66/63 240/67/63 256/84/63 255/83/63
f 240/67/64 226/68/64 242/85/64 256/84/64
f 242/70/65 241/69/65 257/86/65 258/87/65
f 241/69/66 243/71/66 259/88/66 257/86/66
f 243/71/67 244/72/67 260/89/67 259/88/67
f 244/72/68 245/73/68 261/90/68 260/89/68
f 245/73/69 246/74/69 262/91/69 261/90/69
f 246/74/70 247/75/70 263/92/70 262/91/70
f 247/75/71 248/76/71 264/93/71 263/92/71
f 248/76/72 249/77/72 265/94/72 264/93/72
f 249/77/73 250/78/73 266/95/73 265/94/73
f 250/78/74 251/79/74 267/96/74 266/95/74
f 251/79/75 252/80/75 268/97/75 267/96/75
f 252/80/76 253/81/76 269/98/76 268/97/76
f 253/81/77 254/82/77 270/99/77 269/98/77
f 254/82/78 255/83/78 271/100/78 270/99/78
f 255/83/79 256/84/79 272/101/79 271/100/79
f 256/84/80 242/85/80 258/102/80 272/101/80
f 258/87/81 257/86/81 273/103/81 274/104/81
f 257/86/82 259/88/82 275/105/82 273/103/82
f 259/88/83 260/89/83 276/106/83 275/105/83
f 260/89/84 261/90/84 277/107/84 276/106/84
f 261/90/85 262/91/85 278/108/85 277/107/85
f 262/91/86 263/92/86 279/109/86 278/108/86
f 263/92/87 264/93/87 280/110/87 279/109/87
f 264/93/88 265/94/88 281/111/88 280/110/88
f 265/94/89 266/95/89 282/112/89 281/111/89
f 266/95/90 267/96/90 283/113/90 282/112/90
f 267/96/91 268/97/91 284/114/91 283/113/91
f 268/97/92 269/98/92 285/115/92 284/114/92
f 269/98/93 270/99/93 286/116/93 285/115/93
f 270/99/94 271/100/94 287/117/94 286/116/94
f 271/100/95 272/101/95 288/118/95 287/117/95
f 272/101/96 258/102/96 274/119/96 288/118/96
f 274/104/97 273/103/97 289/120/97 290/121/97
f 273/103/98 275/105/98 291/122/98 289/120/98
f 275/105/99 276/106/99 292/123/99 291/122/99
f 276/106/100 277/107/100 293/124/100 292/123/100
f 277/107/101 278/108/101 294/125/101 293/124/101
f 278/108/102 279/109/102 295/126/102 294/125/102
f 279/109/103 280/110/103 296/127/103 295/126/103
f 280/110/104 281/111/104 297/128/104 296/127/104
f 281/111/105 282/112/105 298/129/105 297/128/105
f 282/112/106 283/113/106 299/130/106 298/129/106
f 283/113/107 284/114/107 300/131/107 299/130/107
f 284/114/108 285/115/108 301/132/108 300/131/108
f 285/115/109 286/116/109 302/133/109 301/132/109
f 286/116/110 287/117/110 303/134/110 302/133/110
f 287/117/111 288/118/111 304/135/111 303/134/111
f 288/118/112 274/119/112 290/136/112 304/135/112
f 290/121/113 289/120/113 305/137/113 306/138/113
f 289/120/114 291/122/114 307/139/114 305/137/114
f 291/122/115 292/123/115 308/140/115 307/139/115
f 292/123/116 293/124/116 309/141/116 308/140/116
f 293/124/117 294/125/117 310/142/117 309/141/117
f 294/125/118 295/126/118 311/143/118 310/142/118
f 295/126/119 296/127/119 312/144/119 311/143/119
f 296/127/120 297/128/120 313/145/120 312/144/120
f 297/128/121 298/129/121 314/146/121 313/145/121
f 298/129/122 299/130/122 315/147/122 314/146/122
f 299/130/123 300/131/123 316/148/123 315/147/123
f 300/131/124 301/132/124 317/149/124 316/148/124
f 301/132/125 302/133/125 318/150/125 317/149/125
f 302/133/126 303/134/126 319/151/126 318/150/126
f 303/134/127 304/135/127 320/152/127 319/151/127
f 304/135/128 290/136/128 306/153/128 320/152/128
f 306/138/129 305/137/129 321/154/129 322/155/129
f 305/137/130 307/139/130 323/156/130 321/154/130
f 307/139/131 308/140/131 324/157/131 323/156/131
f 308/140/132 309/141/132 325/158/132 324/157/132
f 309/141/133 310/142/133 326/159/133 325/158/133
f 310/142/134 311/143/134 327/160/134 326/159/134
f 311/143/135 312/144/135 328/161/135 327/160/135
f 312/144/136 313/145/136 329/162/136 328/161/136
f 313/145/137 314/146/137 330/163/137 329/162/137
f 314/146/138 315/147/138 331/164/138 330/163/138
f 315/147/139 316/148/139 332/165/139 331/164/139
f 316/148/140 317/149/140 333/166/140 332/165/140
f 317/149/141 318/150/141 334/167/141 333/166/141
f 318/150/142 319/151/142 335/168/142 334/167/142
f 319/151/143 320/152/143 336/169/143 335/168/143
f 320/152/144 306/153/144 322/170/144 336/169/144
f 322/155/145 321/154/145 337/171/145 338/172/145
f 321/154/146 323/156/146 339/173/146 337/171/146
f 323/156/147 324/157/147 340/174/147 339/173/147
f 324/157/148 325/158/148 341/175/148 340/174/148
f 325/158/149 326/159/149 342/176/149 341/175/149
f 326/159/150 327/160/150 343/177/150 342/176/150
f 327/160/151 328/161/151 344/178/151 343/177/151
f 328/161/152 329/162/152 345/179/152 344/178/152
f 329/162/153 330/163/153 346/180/153 345/179/153
f 330/163/154 331/164/154 347/181/154 346/180/154
f 331/164/155 332/165/155 348/182/155 347/181/155
f 332/165/156 333/166/156 349/183/156 348/182/156
f 333/166/157 334/167/157 350/184/157 349/183/157
f 334/167/158 335/168/158 351/185/158 350/184/158
f 335/168/159 336/169/159 352/186/159 351/185/159
f 336/169/160 322/170/160 338/187/160 352/186/160
o cleat
usemtl cleat
f 353/188/161 354/189/161 355/190/161 356/191/161
f 357/191/162 358/190/162 359/189/162 360/188/162
f 360/189/163 359/188/163 354/191/163 353/190/163
f 358/189/164 357/188/164 356/191/164 355/190/164
f 357/189/165 360/188/165 353/191/165 356/190/165
f 359/189/166 358/188/166 355/191/166 354/190/166
f 361/188/161 362/189/161 363/190/161 364/191/161
f 365/191/162 366/190/162 367/189/162 368/188/162
f 368/189/163 367/188/163 362/191/163 361/190/163
f 366/189/164 365/188/164 364/191/164 363/190/164
f 365/189/165 368/188/165 361/191/165 364/190/165
f 367/189/166 366/188/166 363/191/166 362/190/166
f 356/192/161 369/193/161 370/194/161 361/195/161
f 368/195/162 371/194/162 372/193/162 357/192/162
f 357/193/163 372/192/163 369/195/163 356/194/163
f 371/193/164 368/192/164 361/195/164 370/194/164
f 368/193/165 357/192/165 356/195/165 361/194/165
f 372/193/166 371/192/166 370/195/166 369/194/166
f 373/192/161 355/193/161 362/194/161 374/195/161
f 375/195/162 367/194/162 358/193/162 376/192/162
f 376/193/163 358/192/163 355/195/163 373/194/163
f 367/193/164 375/192/164 374/195/164 362/194/164
f 375/193/165 376/192/165 373/195/165 374/194/165
f 358/193/166 367/192/166 362/195/166 355/194/166
f 377/195/167 378/196/167 379/197/167 380/192/167
f 378/196/168 381/198/168 382/199/168 379/197/168
f 381/198/169 383/200/169 384/201/169 382/199/169
f 383/200/170 385/202/170 386/203/170 384/201/170
f 385/202/171 387/204/171 388/205/171 386/203/171
f 387/204/172 389/206/172 390/207/172 388/205/172
f 389/206/173 391/208/173 392/209/173 390/207/173
f 391/208/174 393/210/174 394/211/174 392/209/174
f 393/210/175 395/212/175 396/213/175 394/211/175
f 395/212/176 397/214/176 398/215/176 396/213/176
f 397/214/177 399/216/177 400/217/177 398/215/177
f 399/216/178 401/218/178 402/219/178 400/217/178
f 401/218/179 403/220/179 404/221/179 402/219/179
f 403/220/180 405/222/180 406/223/180 404/221/180
f 405/222/181 407/224/181 408/225/181 406/223/181
f 407/224/182 377/194/182 380/193/182 408/225/182
f 380/226/164 379/227/164 382/228/164 384/229/164
f 380/226/164 384/229/164 386/230/164 388/231/164
f 380/226/164 388/231/164 390/232/164 392/233/164
f 380/226/164 392/233/164 394/234/164 396/235/164
f 380/226/164 396/235/164 398/236/164 400/237/164
f 380/226/164 400/237/164 402/238/164 404/239/164
f 380/226/164 404/239/164 406/240/164 408/241/164
